<svg xmlns="http://www.w3.org/2000/svg" role="img" viewBox="0 0 24 24" width="256" height="256"><title>CookbookForge</title><path d="M12 1L13.4 5.1L17.3 6.1L13.4 7.1L12 9.5L10.6 7.1L6.7 6.1L10.6 5.1ZM11.5 9.5L2 7L0 8L0 24L11.5 24ZM12.5 9.5L12.5 24L24 24L24 8L22 7ZM1 10L9.5 10L9.5 10.35L1 10.35ZM1 11L8.5 11L8.5 11.35L1 11.35ZM1 12L7.5 12L7.5 12.35L1 12.35ZM1.5 13.5L10 13.5L10 13.75L1.5 13.75ZM1.5 16.75L10 16.75L10 17L1.5 17ZM1.5 13.75L1.75 13.75L1.75 16.75L1.5 16.75ZM9.75 13.75L10 13.75L10 16.75L9.75 16.75ZM2.1 14.2L8.1 14.2L8.1 14.55L2.1 14.55ZM2.1 15L7.1 15L7.1 15.35L2.1 15.35ZM2.1 15.8L9.1 15.8L9.1 16.15L2.1 16.15ZM1 18L9 18L9 18.35L1 18.35ZM1 19L7 19L7 19.35L1 19.35ZM9 18L9.5 18L9.5 18.5L9 18.5ZM13.5 10L22 10L22 10.35L13.5 10.35ZM13.5 11L21 11L21 11.35L13.5 11.35ZM13.5 12L20 12L20 12.35L13.5 12.35ZM14 13.5L22 13.5L22 13.75L14 13.75ZM14 16.75L22 16.75L22 17L14 17ZM14 13.75L14.25 13.75L14.25 16.75L14 16.75ZM21.75 13.75L22 13.75L22 16.75L21.75 16.75ZM15 14.5L20.5 14.5L20.5 14.8L15 14.8ZM15 15.7L19 15.7L19 16L15 16ZM13.5 18.05L13.9 18.05L13.9 18.3L13.5 18.3ZM14.3 18L21.3 18L21.3 18.35L14.3 18.35ZM13.5 19.05L13.9 19.05L13.9 19.3L13.5 19.3ZM14.3 19L19.8 19L19.8 19.35L14.3 19.35Z"/></svg>