<svg xmlns="http://www.w3.org/2000/svg" xmlns:xlink="http://www.w3.org/1999/xlink" contentStyleType="text/css" data-diagram-type="DESCRIPTION" height="539px" preserveAspectRatio="none" style="width:3651px;height:539px;background:#FFFFFF;" version="1.1" viewBox="0 0 3651 539" width="3651px" zoomAndPan="magnify"><?plantuml 1.2026.6?><defs/><g><g class="title" data-source-line="19"><text fill="#000000" font-family="'WenQuanYi Micro Hei'" font-size="14" font-weight="700" lengthAdjust="spacing" textLength="198.249" x="1722.8755" y="22.9951">cookbook-generator &#32452;&#20214;&#26550;&#26500;</text></g><!--cluster ???\ncookbook-generator--><g class="cluster" data-qualified-name="....ncookbook-generator" data-source-line="23" id="ent0002"><path d="M8.5,135.0969 L169.2695,135.0969 A3.75,3.75 0 0 1 171.7695,137.5969 L178.7695,173.6906 L807.5,173.6906 A2.5,2.5 0 0 1 810,176.1906 L810,384.7869 A2.5,2.5 0 0 1 807.5,387.2869 L8.5,387.2869 A2.5,2.5 0 0 1 6,384.7869 L6,137.5969 A2.5,2.5 0 0 1 8.5,135.0969" fill="#FFFFFF" style="stroke:#000000;stroke-width:1.5;"/><line style="stroke:#000000;stroke-width:1.5;" x1="6" x2="178.7695" y1="173.6906" y2="173.6906"/><text fill="#000000" font-family="'WenQuanYi Micro Hei'" font-size="14" font-weight="700" lengthAdjust="spacing" textLength="25.2041" x="77.2827" y="150.092">&#32534;&#25490;&#23618;</text><text fill="#000000" font-family="'WenQuanYi Micro Hei'" font-size="14" font-weight="700" lengthAdjust="spacing" textLength="159.7695" x="10" y="166.3889">cookbook-generator</text></g><!--cluster ??? Skills--><g class="cluster" data-qualified-name="... Skills" data-source-line="32" id="ent0009"><path d="M2600.5,273.6869 L2673.7012,273.6869 A3.75,3.75 0 0 1 2676.2012,276.1869 L2683.2012,295.9838 L3365.5,295.9838 A2.5,2.5 0 0 1 3368,298.4838 L3368,384.7869 A2.5,2.5 0 0 1 3365.5,387.2869 L2600.5,387.2869 A2.5,2.5 0 0 1 2598,384.7869 L2598,276.1869 A2.5,2.5 0 0 1 2600.5,273.6869" fill="#FFFFFF" style="stroke:#000000;stroke-width:1.5;"/><line style="stroke:#000000;stroke-width:1.5;" x1="2598" x2="2683.2012" y1="295.9838" y2="295.9838"/><text fill="#000000" font-family="'WenQuanYi Micro Hei'" font-size="14" font-weight="700" lengthAdjust="spacing" textLength="72.2012" x="2602" y="288.682">&#22797;&#29992;&#30340; Skills</text></g><!--cluster ??????--><g class="cluster" data-qualified-name="......" data-source-line="38" id="ent0013"><path d="M886.5,273.6869 L937.9082,273.6869 A3.75,3.75 0 0 1 940.4082,276.1869 L947.4082,295.9838 L1816.5,295.9838 A2.5,2.5 0 0 1 1819,298.4838 L1819,384.7869 A2.5,2.5 0 0 1 1816.5,387.2869 L886.5,387.2869 A2.5,2.5 0 0 1 884,384.7869 L884,276.1869 A2.5,2.5 0 0 1 886.5,273.6869" fill="#FFFFFF" style="stroke:#000000;stroke-width:1.5;"/><line style="stroke:#000000;stroke-width:1.5;" x1="884" x2="947.4082" y1="295.9838" y2="295.9838"/><text fill="#000000" font-family="'WenQuanYi Micro Hei'" font-size="14" font-weight="700" lengthAdjust="spacing" textLength="50.4082" x="888" y="288.682">&#25968;&#25454;&#37319;&#38598;&#24037;&#20855;</text></g><!--cluster ????--><g class="cluster" data-qualified-name="...." data-source-line="46" id="ent0019"><path d="M1845.5,281.8369 L1880.1055,281.8369 A3.75,3.75 0 0 1 1882.6055,284.3369 L1889.6055,304.1337 L2450.5,304.1337 A2.5,2.5 0 0 1 2453,306.6337 L2453,376.6369 A2.5,2.5 0 0 1 2450.5,379.1369 L1845.5,379.1369 A2.5,2.5 0 0 1 1843,376.6369 L1843,284.3369 A2.5,2.5 0 0 1 1845.5,281.8369" fill="#FFFFFF" style="stroke:#000000;stroke-width:1.5;"/><line style="stroke:#000000;stroke-width:1.5;" x1="1843" x2="1889.6055" y1="304.1337" y2="304.1337"/><text fill="#000000" font-family="'WenQuanYi Micro Hei'" font-size="14" font-weight="700" lengthAdjust="spacing" textLength="33.6055" x="1847" y="296.832">&#22270;&#34920;&#24037;&#20855;</text></g><!--cluster ?????--><g class="cluster" data-qualified-name="....." data-source-line="53" id="ent0024"><path d="M1689.5,411.2869 L1732.5068,411.2869 A3.75,3.75 0 0 1 1735.0068,413.7869 L1742.0068,433.5837 L3078.5,433.5837 A2.5,2.5 0 0 1 3081,436.0837 L3081,522.3769 A2.5,2.5 0 0 1 3078.5,524.8769 L1689.5,524.8769 A2.5,2.5 0 0 1 1687,522.3769 L1687,413.7869 A2.5,2.5 0 0 1 1689.5,411.2869" fill="#FFFFFF" style="stroke:#000000;stroke-width:1.5;"/><line style="stroke:#000000;stroke-width:1.5;" x1="1687" x2="1742.0068" y1="433.5837" y2="433.5837"/><text fill="#000000" font-family="'WenQuanYi Micro Hei'" font-size="14" font-weight="700" lengthAdjust="spacing" textLength="42.0068" x="1691" y="426.282">&#27169;&#26495;&#19982;&#36164;&#28304;</text></g><!--cluster ????--><g class="cluster" data-qualified-name="...." data-source-line="61" id="ent0030"><path d="M3107.5,411.2869 L3142.1055,411.2869 A3.75,3.75 0 0 1 3144.6055,413.7869 L3151.6055,433.5837 L3633.5,433.5837 A2.5,2.5 0 0 1 3636,436.0837 L3636,522.3769 A2.5,2.5 0 0 1 3633.5,524.8769 L3107.5,524.8769 A2.5,2.5 0 0 1 3105,522.3769 L3105,413.7869 A2.5,2.5 0 0 1 3107.5,411.2869" fill="#FFFFFF" style="stroke:#000000;stroke-width:1.5;"/><line style="stroke:#000000;stroke-width:1.5;" x1="3105" x2="3151.6055" y1="433.5837" y2="433.5837"/><text fill="#000000" font-family="'WenQuanYi Micro Hei'" font-size="14" font-weight="700" lengthAdjust="spacing" textLength="33.6055" x="3109" y="426.282">&#36755;&#20986;&#20135;&#29289;</text></g><!--entity ORCH--><g class="entity" data-qualified-name="....ncookbook-generator.ORCH" data-source-line="24" id="ent0003"><rect fill="#FFFFFF" height="62.5938" rx="2.5" ry="2.5" style="stroke:#000000;stroke-width:0.5;" width="104.7705" x="471.61" y="186.0969"/><rect fill="#FFFFFF" height="10" style="stroke:#000000;stroke-width:0.5;" width="15" x="556.3805" y="191.0969"/><rect fill="#FFFFFF" height="2" style="stroke:#000000;stroke-width:0.5;" width="4" x="554.3805" y="193.0969"/><rect fill="#FFFFFF" height="2" style="stroke:#000000;stroke-width:0.5;" width="4" x="554.3805" y="197.0969"/><text fill="#000000" font-family="'WenQuanYi Micro Hei'" font-size="14" lengthAdjust="spacing" textLength="64.7705" x="486.61" y="219.092">SKILL.md</text><text fill="#000000" font-family="'WenQuanYi Micro Hei'" font-size="14" lengthAdjust="spacing" textLength="33.6055" x="486.61" y="235.3889">&#32534;&#25490;&#25351;&#20196;</text></g><!--entity M2T--><g class="entity" data-qualified-name="....ncookbook-generator.M2T" data-source-line="25" id="ent0004"><rect fill="#FFFFFF" height="62.5938" rx="2.5" ry="2.5" style="stroke:#000000;stroke-width:0.5;" width="182.3994" x="611.8" y="186.0969"/><rect fill="#FFFFFF" height="10" style="stroke:#000000;stroke-width:0.5;" width="15" x="774.1994" y="191.0969"/><rect fill="#FFFFFF" height="2" style="stroke:#000000;stroke-width:0.5;" width="4" x="772.1994" y="193.0969"/><rect fill="#FFFFFF" height="2" style="stroke:#000000;stroke-width:0.5;" width="4" x="772.1994" y="197.0969"/><text fill="#000000" font-family="'WenQuanYi Micro Hei'" font-size="14" lengthAdjust="spacing" textLength="142.3994" x="626.8" y="219.092">scripts/mdx2tex.mjs</text><text fill="#000000" font-family="'WenQuanYi Micro Hei'" font-size="14" lengthAdjust="spacing" textLength="101.2676" x="626.8" y="235.3889">MDX -&gt; LaTeX</text></g><!--entity EPUB--><g class="entity" data-qualified-name="....ncookbook-generator.EPUB" data-source-line="26" id="ent0005"><rect fill="#FFFFFF" height="62.5938" rx="2.5" ry="2.5" style="stroke:#000000;stroke-width:0.5;" width="195.0322" x="241.48" y="186.0969"/><rect fill="#FFFFFF" height="10" style="stroke:#000000;stroke-width:0.5;" width="15" x="416.5122" y="191.0969"/><rect fill="#FFFFFF" height="2" style="stroke:#000000;stroke-width:0.5;" width="4" x="414.5122" y="193.0969"/><rect fill="#FFFFFF" height="2" style="stroke:#000000;stroke-width:0.5;" width="4" x="414.5122" y="197.0969"/><text fill="#000000" font-family="'WenQuanYi Micro Hei'" font-size="14" lengthAdjust="spacing" textLength="155.0322" x="256.48" y="219.092">scripts/build-epub.mjs</text><text fill="#000000" font-family="'WenQuanYi Micro Hei'" font-size="14" lengthAdjust="spacing" textLength="95.2725" x="256.48" y="235.3889">MDX -&gt; EPUB</text></g><!--entity FONT--><g class="entity" data-qualified-name="....ncookbook-generator.FONT" data-source-line="27" id="ent0006"><rect fill="#FFFFFF" height="62.5938" rx="2.5" ry="2.5" style="stroke:#000000;stroke-width:0.5;" width="206.9473" x="352.53" y="308.6869"/><rect fill="#FFFFFF" height="10" style="stroke:#000000;stroke-width:0.5;" width="15" x="539.4773" y="313.6869"/><rect fill="#FFFFFF" height="2" style="stroke:#000000;stroke-width:0.5;" width="4" x="537.4773" y="315.6869"/><rect fill="#FFFFFF" height="2" style="stroke:#000000;stroke-width:0.5;" width="4" x="537.4773" y="319.6869"/><text fill="#000000" font-family="'WenQuanYi Micro Hei'" font-size="14" lengthAdjust="spacing" textLength="166.9473" x="367.53" y="341.682">scripts/subset-fonts.mjs</text><text fill="#000000" font-family="'WenQuanYi Micro Hei'" font-size="14" lengthAdjust="spacing" textLength="42.0068" x="367.53" y="357.9789">&#23383;&#20307;&#23376;&#38598;&#21270;</text></g><!--entity WC--><g class="entity" data-qualified-name="....ncookbook-generator.WC" data-source-line="28" id="ent0007"><rect fill="#FFFFFF" height="62.5938" rx="2.5" ry="2.5" style="stroke:#000000;stroke-width:0.5;" width="199.5029" x="594.25" y="308.6869"/><rect fill="#FFFFFF" height="10" style="stroke:#000000;stroke-width:0.5;" width="15" x="773.7529" y="313.6869"/><rect fill="#FFFFFF" height="2" style="stroke:#000000;stroke-width:0.5;" width="4" x="771.7529" y="315.6869"/><rect fill="#FFFFFF" height="2" style="stroke:#000000;stroke-width:0.5;" width="4" x="771.7529" y="319.6869"/><text fill="#000000" font-family="'WenQuanYi Micro Hei'" font-size="14" lengthAdjust="spacing" textLength="159.5029" x="609.25" y="341.682">scripts/word-count.mjs</text><text fill="#000000" font-family="'WenQuanYi Micro Hei'" font-size="14" lengthAdjust="spacing" textLength="33.6055" x="609.25" y="357.9789">&#23383;&#25968;&#32479;&#35745;</text></g><!--entity FORMULA--><g class="entity" data-qualified-name="....ncookbook-generator.FORMULA" data-source-line="29" id="ent0008"><rect fill="#FFFFFF" height="62.5938" rx="2.5" ry="2.5" style="stroke:#000000;stroke-width:0.5;" width="295.8486" x="22.08" y="308.6869"/><rect fill="#FFFFFF" height="10" style="stroke:#000000;stroke-width:0.5;" width="15" x="297.9286" y="313.6869"/><rect fill="#FFFFFF" height="2" style="stroke:#000000;stroke-width:0.5;" width="4" x="295.9286" y="315.6869"/><rect fill="#FFFFFF" height="2" style="stroke:#000000;stroke-width:0.5;" width="4" x="295.9286" y="319.6869"/><text fill="#000000" font-family="'WenQuanYi Micro Hei'" font-size="14" lengthAdjust="spacing" textLength="255.8486" x="37.08" y="341.682">scripts/optimize-formula-images.mjs</text><text fill="#000000" font-family="'WenQuanYi Micro Hei'" font-size="14" lengthAdjust="spacing" textLength="50.4082" x="37.08" y="357.9789">&#20844;&#24335;&#22270;&#29255;&#20462;&#22797;</text></g><!--entity PCL--><g class="entity" data-qualified-name="... Skills.PCL" data-source-line="33" id="ent0010"><rect fill="#FFFFFF" height="62.5938" rx="2.5" ry="2.5" style="stroke:#000000;stroke-width:0.5;" width="219.0195" x="3132.49" y="308.6869"/><rect fill="#FFFFFF" height="10" style="stroke:#000000;stroke-width:0.5;" width="15" x="3331.5095" y="313.6869"/><rect fill="#FFFFFF" height="2" style="stroke:#000000;stroke-width:0.5;" width="4" x="3329.5095" y="315.6869"/><rect fill="#FFFFFF" height="2" style="stroke:#000000;stroke-width:0.5;" width="4" x="3329.5095" y="319.6869"/><text fill="#000000" font-family="'WenQuanYi Micro Hei'" font-size="14" lengthAdjust="spacing" textLength="160.918" x="3147.49" y="341.682">project-cookbook-latex</text><text fill="#000000" font-family="'WenQuanYi Micro Hei'" font-size="14" lengthAdjust="spacing" textLength="179.0195" x="3147.49" y="357.9789">&#36164;&#26009;&#31351;&#23613; / 8 &#19975;&#23383; / ElegantBook</text></g><!--entity L2N--><g class="entity" data-qualified-name="... Skills.L2N" data-source-line="34" id="ent0011"><rect fill="#FFFFFF" height="62.5938" rx="2.5" ry="2.5" style="stroke:#000000;stroke-width:0.5;" width="250.9912" x="2846.5" y="308.6869"/><rect fill="#FFFFFF" height="10" style="stroke:#000000;stroke-width:0.5;" width="15" x="3077.4912" y="313.6869"/><rect fill="#FFFFFF" height="2" style="stroke:#000000;stroke-width:0.5;" width="4" x="3075.4912" y="315.6869"/><rect fill="#FFFFFF" height="2" style="stroke:#000000;stroke-width:0.5;" width="4" x="3075.4912" y="319.6869"/><text fill="#000000" font-family="'WenQuanYi Micro Hei'" font-size="14" lengthAdjust="spacing" textLength="134.9482" x="2861.5" y="341.682">latex-to-nextra-site</text><text fill="#000000" font-family="'WenQuanYi Micro Hei'" font-size="14" lengthAdjust="spacing" textLength="210.9912" x="2861.5" y="357.9789">Nextra v3 / Docker / PlantUML</text></g><!--entity ERO--><g class="entity" data-qualified-name="... Skills.ERO" data-source-line="35" id="ent0012"><rect fill="#FFFFFF" height="62.5938" rx="2.5" ry="2.5" style="stroke:#000000;stroke-width:0.5;" width="197.6436" x="2614.18" y="308.6869"/><rect fill="#FFFFFF" height="10" style="stroke:#000000;stroke-width:0.5;" width="15" x="2791.8236" y="313.6869"/><rect fill="#FFFFFF" height="2" style="stroke:#000000;stroke-width:0.5;" width="4" x="2789.8236" y="315.6869"/><rect fill="#FFFFFF" height="2" style="stroke:#000000;stroke-width:0.5;" width="4" x="2789.8236" y="319.6869"/><text fill="#000000" font-family="'WenQuanYi Micro Hei'" font-size="14" lengthAdjust="spacing" textLength="157.6436" x="2629.18" y="341.682">epub-reader-optimizer</text><text fill="#000000" font-family="'WenQuanYi Micro Hei'" font-size="14" lengthAdjust="spacing" textLength="126.4443" x="2629.18" y="357.9789">CSS &#37325;&#20889; / &#23383;&#20307; / &#20844;&#24335;&#20462;&#22797;</text></g><!--entity BR--><g class="entity" data-qualified-name=".......BR" data-source-line="39" id="ent0014"><rect fill="#FFFFFF" height="62.5938" rx="2.5" ry="2.5" style="stroke:#000000;stroke-width:0.5;" width="176.0146" x="899.99" y="308.6869"/><rect fill="#FFFFFF" height="10" style="stroke:#000000;stroke-width:0.5;" width="15" x="1056.0046" y="313.6869"/><rect fill="#FFFFFF" height="2" style="stroke:#000000;stroke-width:0.5;" width="4" x="1054.0046" y="315.6869"/><rect fill="#FFFFFF" height="2" style="stroke:#000000;stroke-width:0.5;" width="4" x="1054.0046" y="319.6869"/><text fill="#000000" font-family="'WenQuanYi Micro Hei'" font-size="14" lengthAdjust="spacing" textLength="101.8145" x="914.99" y="341.682">agent-browser</text><text fill="#000000" font-family="'WenQuanYi Micro Hei'" font-size="14" lengthAdjust="spacing" textLength="136.0146" x="914.99" y="357.9789">/vivaldi-automation</text></g><!--entity WF--><g class="entity" data-qualified-name=".......WF" data-source-line="40" id="ent0015"><rect fill="#FFFFFF" height="46.2969" rx="2.5" ry="2.5" style="stroke:#000000;stroke-width:0.5;" width="203.4336" x="1111.28" y="316.8369"/><rect fill="#FFFFFF" height="10" style="stroke:#000000;stroke-width:0.5;" width="15" x="1294.7136" y="321.8369"/><rect fill="#FFFFFF" height="2" style="stroke:#000000;stroke-width:0.5;" width="4" x="1292.7136" y="323.8369"/><rect fill="#FFFFFF" height="2" style="stroke:#000000;stroke-width:0.5;" width="4" x="1292.7136" y="327.8369"/><text fill="#000000" font-family="'WenQuanYi Micro Hei'" font-size="14" lengthAdjust="spacing" textLength="163.4336" x="1126.28" y="349.832">WebFetch / WebSearch</text></g><!--entity ARX--><g class="entity" data-qualified-name=".......ARX" data-source-line="41" id="ent0016"><rect fill="#FFFFFF" height="62.5938" rx="2.5" ry="2.5" style="stroke:#000000;stroke-width:0.5;" width="171.0928" x="1349.45" y="308.6869"/><rect fill="#FFFFFF" height="10" style="stroke:#000000;stroke-width:0.5;" width="15" x="1500.5428" y="313.6869"/><rect fill="#FFFFFF" height="2" style="stroke:#000000;stroke-width:0.5;" width="4" x="1498.5428" y="315.6869"/><rect fill="#FFFFFF" height="2" style="stroke:#000000;stroke-width:0.5;" width="4" x="1498.5428" y="319.6869"/><text fill="#000000" font-family="'WenQuanYi Micro Hei'" font-size="14" lengthAdjust="spacing" textLength="96.3047" x="1364.45" y="341.682">arxiv-watcher</text><text fill="#000000" font-family="'WenQuanYi Micro Hei'" font-size="14" lengthAdjust="spacing" textLength="131.0928" x="1364.45" y="357.9789">/connected-papers</text></g><!--entity D2X--><g class="entity" data-qualified-name=".......D2X" data-source-line="42" id="ent0017"><rect fill="#FFFFFF" height="62.5938" rx="2.5" ry="2.5" style="stroke:#000000;stroke-width:0.5;" width="102.8701" x="1555.56" y="308.6869"/><rect fill="#FFFFFF" height="10" style="stroke:#000000;stroke-width:0.5;" width="15" x="1638.4301" y="313.6869"/><rect fill="#FFFFFF" height="2" style="stroke:#000000;stroke-width:0.5;" width="4" x="1636.4301" y="315.6869"/><rect fill="#FFFFFF" height="2" style="stroke:#000000;stroke-width:0.5;" width="4" x="1636.4301" y="319.6869"/><text fill="#000000" font-family="'WenQuanYi Micro Hei'" font-size="14" lengthAdjust="spacing" textLength="62.8701" x="1570.56" y="341.682">doc2x-cli</text><text fill="#000000" font-family="'WenQuanYi Micro Hei'" font-size="14" lengthAdjust="spacing" textLength="62.248" x="1570.56" y="357.9789">PDF OCR</text></g><!--entity GH--><g class="entity" data-qualified-name=".......GH" data-source-line="43" id="ent0018"><rect fill="#FFFFFF" height="62.5938" rx="2.5" ry="2.5" style="stroke:#000000;stroke-width:0.5;" width="109.7676" x="1693.12" y="308.6869"/><rect fill="#FFFFFF" height="10" style="stroke:#000000;stroke-width:0.5;" width="15" x="1782.8876" y="313.6869"/><rect fill="#FFFFFF" height="2" style="stroke:#000000;stroke-width:0.5;" width="4" x="1780.8876" y="315.6869"/><rect fill="#FFFFFF" height="2" style="stroke:#000000;stroke-width:0.5;" width="4" x="1780.8876" y="319.6869"/><text fill="#000000" font-family="'WenQuanYi Micro Hei'" font-size="14" lengthAdjust="spacing" textLength="38.2881" x="1708.12" y="341.682">gh-cli</text><text fill="#000000" font-family="'WenQuanYi Micro Hei'" font-size="14" lengthAdjust="spacing" textLength="69.7676" x="1708.12" y="357.9789">GitHub &#20179;&#24211;</text></g><!--entity PU--><g class="entity" data-qualified-name=".....PU" data-source-line="47" id="ent0020"><rect fill="#FFFFFF" height="46.2969" rx="2.5" ry="2.5" style="stroke:#000000;stroke-width:0.5;" width="102.1182" x="1858.94" y="316.8369"/><rect fill="#FFFFFF" height="10" style="stroke:#000000;stroke-width:0.5;" width="15" x="1941.0582" y="321.8369"/><rect fill="#FFFFFF" height="2" style="stroke:#000000;stroke-width:0.5;" width="4" x="1939.0582" y="323.8369"/><rect fill="#FFFFFF" height="2" style="stroke:#000000;stroke-width:0.5;" width="4" x="1939.0582" y="327.8369"/><text fill="#000000" font-family="'WenQuanYi Micro Hei'" font-size="14" lengthAdjust="spacing" textLength="62.1182" x="1873.94" y="349.832">plantuml</text></g><!--entity DR--><g class="entity" data-qualified-name=".....DR" data-source-line="48" id="ent0021"><rect fill="#FFFFFF" height="46.2969" rx="2.5" ry="2.5" style="stroke:#000000;stroke-width:0.5;" width="87.127" x="1996.44" y="316.8369"/><rect fill="#FFFFFF" height="10" style="stroke:#000000;stroke-width:0.5;" width="15" x="2063.567" y="321.8369"/><rect fill="#FFFFFF" height="2" style="stroke:#000000;stroke-width:0.5;" width="4" x="2061.567" y="323.8369"/><rect fill="#FFFFFF" height="2" style="stroke:#000000;stroke-width:0.5;" width="4" x="2061.567" y="327.8369"/><text fill="#000000" font-family="'WenQuanYi Micro Hei'" font-size="14" lengthAdjust="spacing" textLength="47.127" x="2011.44" y="349.832">drawio</text></g><!--entity EX--><g class="entity" data-qualified-name=".....EX" data-source-line="49" id="ent0022"><rect fill="#FFFFFF" height="46.2969" rx="2.5" ry="2.5" style="stroke:#000000;stroke-width:0.5;" width="115.626" x="2118.19" y="316.8369"/><rect fill="#FFFFFF" height="10" style="stroke:#000000;stroke-width:0.5;" width="15" x="2213.816" y="321.8369"/><rect fill="#FFFFFF" height="2" style="stroke:#000000;stroke-width:0.5;" width="4" x="2211.816" y="323.8369"/><rect fill="#FFFFFF" height="2" style="stroke:#000000;stroke-width:0.5;" width="4" x="2211.816" y="327.8369"/><text fill="#000000" font-family="'WenQuanYi Micro Hei'" font-size="14" lengthAdjust="spacing" textLength="75.626" x="2133.19" y="349.832">excalidraw</text></g><!--entity CH--><g class="entity" data-qualified-name=".....CH" data-source-line="50" id="ent0023"><rect fill="#FFFFFF" height="46.2969" rx="2.5" ry="2.5" style="stroke:#000000;stroke-width:0.5;" width="168.8916" x="2268.55" y="316.8369"/><rect fill="#FFFFFF" height="10" style="stroke:#000000;stroke-width:0.5;" width="15" x="2417.4416" y="321.8369"/><rect fill="#FFFFFF" height="2" style="stroke:#000000;stroke-width:0.5;" width="4" x="2415.4416" y="323.8369"/><rect fill="#FFFFFF" height="2" style="stroke:#000000;stroke-width:0.5;" width="4" x="2415.4416" y="327.8369"/><text fill="#000000" font-family="'WenQuanYi Micro Hei'" font-size="14" lengthAdjust="spacing" textLength="128.8916" x="2283.55" y="349.832">chart-visualization</text></g><!--entity ORE--><g class="entity" data-qualified-name="......ORE" data-source-line="54" id="ent0025"><rect fill="#FFFFFF" height="46.2969" rx="2.5" ry="2.5" style="stroke:#000000;stroke-width:0.5;" width="272.1621" x="1935.92" y="454.4269"/><rect fill="#FFFFFF" height="10" style="stroke:#000000;stroke-width:0.5;" width="15" x="2188.0821" y="459.4269"/><rect fill="#FFFFFF" height="2" style="stroke:#000000;stroke-width:0.5;" width="4" x="2186.0821" y="461.4269"/><rect fill="#FFFFFF" height="2" style="stroke:#000000;stroke-width:0.5;" width="4" x="2186.0821" y="465.4269"/><text fill="#000000" font-family="'WenQuanYi Micro Hei'" font-size="14" lengthAdjust="spacing" textLength="232.1621" x="1950.92" y="487.422">references/style-guide-oreilly.md</text></g><!--entity SPR--><g class="entity" data-qualified-name="......SPR" data-source-line="55" id="ent0026"><rect fill="#FFFFFF" height="46.2969" rx="2.5" ry="2.5" style="stroke:#000000;stroke-width:0.5;" width="287.2285" x="2243.39" y="454.4269"/><rect fill="#FFFFFF" height="10" style="stroke:#000000;stroke-width:0.5;" width="15" x="2510.6185" y="459.4269"/><rect fill="#FFFFFF" height="2" style="stroke:#000000;stroke-width:0.5;" width="4" x="2508.6185" y="461.4269"/><rect fill="#FFFFFF" height="2" style="stroke:#000000;stroke-width:0.5;" width="4" x="2508.6185" y="465.4269"/><text fill="#000000" font-family="'WenQuanYi Micro Hei'" font-size="14" lengthAdjust="spacing" textLength="247.2285" x="2258.39" y="487.422">references/style-guide-springer.md</text></g><!--entity TPL--><g class="entity" data-qualified-name="......TPL" data-source-line="56" id="ent0027"><rect fill="#FFFFFF" height="62.5938" rx="2.5" ry="2.5" style="stroke:#000000;stroke-width:0.5;" width="197.4043" x="1703.3" y="446.2869"/><rect fill="#FFFFFF" height="10" style="stroke:#000000;stroke-width:0.5;" width="15" x="1880.7043" y="451.2869"/><rect fill="#FFFFFF" height="2" style="stroke:#000000;stroke-width:0.5;" width="4" x="1878.7043" y="453.2869"/><rect fill="#FFFFFF" height="2" style="stroke:#000000;stroke-width:0.5;" width="4" x="1878.7043" y="457.2869"/><text fill="#000000" font-family="'WenQuanYi Micro Hei'" font-size="14" lengthAdjust="spacing" textLength="153.0566" x="1718.3" y="479.282">assets/template-mdx/</text><text fill="#000000" font-family="'WenQuanYi Micro Hei'" font-size="14" lengthAdjust="spacing" textLength="157.4043" x="1718.3" y="495.5789">chapter-template.mdx</text></g><!--entity NXT--><g class="entity" data-qualified-name="......NXT" data-source-line="57" id="ent0028"><rect fill="#FFFFFF" height="46.2969" rx="2.5" ry="2.5" style="stroke:#000000;stroke-width:0.5;" width="207.8428" x="2857.08" y="454.4269"/><rect fill="#FFFFFF" height="10" style="stroke:#000000;stroke-width:0.5;" width="15" x="3044.9228" y="459.4269"/><rect fill="#FFFFFF" height="2" style="stroke:#000000;stroke-width:0.5;" width="4" x="3042.9228" y="461.4269"/><rect fill="#FFFFFF" height="2" style="stroke:#000000;stroke-width:0.5;" width="4" x="3042.9228" y="465.4269"/><text fill="#000000" font-family="'WenQuanYi Micro Hei'" font-size="14" lengthAdjust="spacing" textLength="167.8428" x="2872.08" y="487.422">assets/nextra-template/</text></g><!--entity CSS--><g class="entity" data-qualified-name="......CSS" data-source-line="58" id="ent0029"><rect fill="#FFFFFF" height="46.2969" rx="2.5" ry="2.5" style="stroke:#000000;stroke-width:0.5;" width="256.1182" x="2565.94" y="454.4269"/><rect fill="#FFFFFF" height="10" style="stroke:#000000;stroke-width:0.5;" width="15" x="2802.0582" y="459.4269"/><rect fill="#FFFFFF" height="2" style="stroke:#000000;stroke-width:0.5;" width="4" x="2800.0582" y="461.4269"/><rect fill="#FFFFFF" height="2" style="stroke:#000000;stroke-width:0.5;" width="4" x="2800.0582" y="465.4269"/><text fill="#000000" font-family="'WenQuanYi Micro Hei'" font-size="14" lengthAdjust="spacing" textLength="216.1182" x="2580.94" y="487.422">assets/stylesheet.template.css</text></g><!--entity MDX--><g class="entity" data-qualified-name=".....MDX" data-source-line="62" id="ent0031"><path d="M3293.8,456.7869 C3293.8,446.7869 3329.0041,446.7869 3329.0041,446.7869 C3329.0041,446.7869 3364.2082,446.7869 3364.2082,456.7869 L3364.2082,498.3806 C3364.2082,508.3806 3329.0041,508.3806 3329.0041,508.3806 C3329.0041,508.3806 3293.8,508.3806 3293.8,498.3806 L3293.8,456.7869" fill="#FFFFFF" style="stroke:#000000;stroke-width:0.5;"/><path d="M3293.8,456.7869 C3293.8,466.7869 3329.0041,466.7869 3329.0041,466.7869 C3329.0041,466.7869 3364.2082,466.7869 3364.2082,456.7869" fill="none" style="stroke:#000000;stroke-width:0.5;"/><text fill="#000000" font-family="'WenQuanYi Micro Hei'" font-size="14" lengthAdjust="spacing" textLength="32.4502" x="3303.8" y="483.782">MDX</text><text fill="#000000" font-family="'WenQuanYi Micro Hei'" font-size="14" lengthAdjust="spacing" textLength="50.4082" x="3303.8" y="500.0789">&#31456;&#33410;&#21270;&#28304;&#26684;&#24335;</text></g><!--entity PDF--><g class="entity" data-qualified-name=".....PDF" data-source-line="63" id="ent0032"><path d="M3511.99,456.7869 C3511.99,446.7869 3565.9998,446.7869 3565.9998,446.7869 C3565.9998,446.7869 3620.0095,446.7869 3620.0095,456.7869 L3620.0095,498.3806 C3620.0095,508.3806 3565.9998,508.3806 3565.9998,508.3806 C3565.9998,508.3806 3511.99,508.3806 3511.99,498.3806 L3511.99,456.7869" fill="#FFFFFF" style="stroke:#000000;stroke-width:0.5;"/><path d="M3511.99,456.7869 C3511.99,466.7869 3565.9998,466.7869 3565.9998,466.7869 C3565.9998,466.7869 3620.0095,466.7869 3620.0095,456.7869" fill="none" style="stroke:#000000;stroke-width:0.5;"/><text fill="#000000" font-family="'WenQuanYi Micro Hei'" font-size="14" lengthAdjust="spacing" textLength="88.0195" x="3521.99" y="483.782">ElegantBook</text><text fill="#000000" font-family="'WenQuanYi Micro Hei'" font-size="14" lengthAdjust="spacing" textLength="27.2754" x="3521.99" y="500.0789">PDF</text></g><!--entity WEB--><g class="entity" data-qualified-name=".....WEB" data-source-line="64" id="ent0033"><path d="M3130.3009,454.4822 C3133.2575,448.2411 3138.9429,449.4002 3141.9232,454.4579 C3145.3857,449.1519 3150.5757,448.841 3154.0117,454.487 C3157.0261,447.1897 3163.6005,446.9272 3167.3116,453.8346 C3170.8982,447.8735 3174.3691,447.5398 3178.3434,453.4752 C3182.4227,447.6934 3187.3091,447.4957 3191.338,453.5306 C3195.1572,449.1176 3199.1428,447.9794 3202.6143,453.9098 C3206.1495,447.5931 3211.9297,448.8514 3215.1462,454.2507 C3218.4407,448.2391 3223.551,448.0219 3227.1572,453.9367 C3232.2715,448.5102 3236.1293,448.9227 3239.9988,455.2919 C3243.3795,450.063 3248.9711,450.7173 3251.6309,456.0833 C3256.5305,458.4558 3257.102,462.4365 3253.1335,466.1346 C3258.7493,469.1267 3259.0502,474.4528 3253.8489,478.0921 C3260.1305,482.4807 3259.7262,486.4238 3253.1825,490.1008 C3258.3663,495.444 3257.5751,499.3008 3250.9015,502.4546 C3248.6192,507.4504 3243.7909,507.4927 3240.5191,503.612 C3236.2001,509.647 3232.4529,508.8084 3228.0977,503.6522 C3224.2715,509.48 3219.2697,510.411 3215.0723,504.0488 C3212.6969,509.6562 3206.953,512.2878 3202.5442,506.2331 C3199.755,512.2863 3196.0182,513.2019 3191.5985,507.7896 C3187.0524,513.5433 3181.9218,513.3247 3179.2027,506.0511 C3175.2422,513.0807 3170.1984,511.6497 3166.2263,506.0631 C3162.2589,511.6361 3156.794,511.2316 3153.92,504.93 C3149.8136,508.6638 3146.0382,508.5047 3143.3766,503.2376 C3139.0415,508.7731 3132.6529,508.7744 3129.7409,501.6989 C3122.5845,499.2971 3122.5492,494.4692 3127.1122,489.5348 C3121.4527,487.5009 3120.0914,483.9604 3123.6123,478.9041 C3119.5027,474.6382 3120.4683,468.798 3126.808,467.4467 C3121.1964,461.1933 3123.1947,457.3092 3130.3009,454.4822" fill="#FFFFFF" style="stroke:#000000;stroke-width:0.5;"/><text fill="#000000" font-family="'WenQuanYi Micro Hei'" font-size="14" lengthAdjust="spacing" textLength="68.4482" x="3136.36" y="474.282">Nextra &#32593;&#31449;</text><text fill="#000000" font-family="'WenQuanYi Micro Hei'" font-size="14" lengthAdjust="spacing" textLength="107.2832" x="3136.36" y="490.5789">Vercel / Docker</text></g><!--entity EOUT--><g class="entity" data-qualified-name=".....EOUT" data-source-line="65" id="ent0034"><path d="M3398.8,464.9269 C3398.8,454.9269 3437.9963,454.9269 3437.9963,454.9269 C3437.9963,454.9269 3477.1926,454.9269 3477.1926,464.9269 L3477.1926,490.2238 C3477.1926,500.2238 3437.9963,500.2238 3437.9963,500.2238 C3437.9963,500.2238 3398.8,500.2238 3398.8,490.2238 L3398.8,464.9269" fill="#FFFFFF" style="stroke:#000000;stroke-width:0.5;"/><path d="M3398.8,464.9269 C3398.8,474.9269 3437.9963,474.9269 3437.9963,474.9269 C3437.9963,474.9269 3477.1926,474.9269 3477.1926,464.9269" fill="none" style="stroke:#000000;stroke-width:0.5;"/><text fill="#000000" font-family="'WenQuanYi Micro Hei'" font-size="14" lengthAdjust="spacing" textLength="58.3926" x="3408.8" y="491.922">&#20248;&#21270; EPUB</text></g><!--entity ??--><g class="entity" data-qualified-name=".." data-source-line="21" id="ent0001"><ellipse cx="524" cy="51.2969" fill="#FFFFFF" rx="8" ry="8" style="stroke:#000000;stroke-width:0.5;"/><path d="M524,59.2969 L524,86.2969 M511,67.2969 L537,67.2969 M524,86.2969 L511,101.2969 M524,86.2969 L537,101.2969" fill="none" style="stroke:#000000;stroke-width:0.5;"/><text fill="#000000" font-family="'WenQuanYi Micro Hei'" font-size="14" lengthAdjust="spacing" textLength="16.8027" x="515.5986" y="115.792">&#29992;&#25143;</text></g><!--link ?? to ORCH--><g class="link" data-entity-1="ent0001" data-entity-2="ent0003" data-link-type="dependency" data-source-line="68" id="lnk35"><path d="M524,119.3969 C524,140.3769 524,161.2069 524,180.9269" fill="none" id="&#29992;&#25143;-to-ORCH" style="stroke:#000000;stroke-width:0.75;"/><polygon fill="#000000" points="524,185.9269,528,176.9269,524,180.9269,520,176.9269,524,185.9269" style="stroke:#000000;stroke-width:0.75;stroke-linejoin:miter;stroke-miterlimit:10;"/></g><!--link ORCH to BR--><g class="link" data-entity-1="ent0003" data-entity-2="ent0014" data-link-type="dependency" data-source-line="69" id="lnk36"><path d="M576.85,243.5269 C582.55,245.5469 588.33,247.3369 594,248.6869 C714.83,277.5769 754.85,227.2969 873,265.6869 C901.15,274.8369 925.1915,289.5653 946.5615,305.2753" fill="none" id="ORCH-to-BR" style="stroke:#000000;stroke-width:0.75;"/><polygon fill="#000000" points="950.59,308.2369,945.7079,299.6832,946.5615,305.2753,940.9694,306.1289,950.59,308.2369" style="stroke:#000000;stroke-width:0.75;stroke-linejoin:miter;stroke-miterlimit:10;"/></g><!--link ORCH to WF--><g class="link" data-entity-1="ent0003" data-entity-2="ent0015" data-link-type="dependency" data-source-line="70" id="lnk37"><path d="M576.81,243.6769 C582.52,245.6769 588.32,247.4069 594,248.6869 C702.47,273.0869 987.56,233.5769 1094,265.6869 C1128.38,276.0669 1158.8032,295.9061 1181.7132,313.3661" fill="none" id="ORCH-to-WF" style="stroke:#000000;stroke-width:0.75;"/><polygon fill="#000000" points="1185.69,316.3969,1180.9564,307.7601,1181.7132,313.3661,1176.1072,314.123,1185.69,316.3969" style="stroke:#000000;stroke-width:0.75;stroke-linejoin:miter;stroke-miterlimit:10;"/></g><!--link ORCH to ARX--><g class="link" data-entity-1="ent0003" data-entity-2="ent0016" data-link-type="dependency" data-source-line="71" id="lnk38"><path d="M576.8,243.7469 C582.51,245.7269 588.31,247.4469 594,248.6869 C674.12,266.2469 1254.16,239.8269 1332,265.6869 C1358.24,274.4069 1379.7793,289.0835 1398.7693,305.0135" fill="none" id="ORCH-to-ARX" style="stroke:#000000;stroke-width:0.75;"/><polygon fill="#000000" points="1402.6,308.2269,1398.2755,299.3782,1398.7693,305.0135,1393.1341,305.5073,1402.6,308.2269" style="stroke:#000000;stroke-width:0.75;stroke-linejoin:miter;stroke-miterlimit:10;"/></g><!--link ORCH to D2X--><g class="link" data-entity-1="ent0003" data-entity-2="ent0017" data-link-type="dependency" data-source-line="72" id="lnk39"><path d="M576.79,243.7769 C582.5,245.7569 588.31,247.4569 594,248.6869 C645.26,259.7869 1490.04,244.4569 1538,265.6869 C1558.14,274.6069 1572.1396,288.5198 1584.2396,304.3998" fill="none" id="ORCH-to-D2X" style="stroke:#000000;stroke-width:0.75;"/><polygon fill="#000000" points="1587.27,308.3769,1584.997,298.7939,1584.2396,304.3998,1578.6337,303.6425,1587.27,308.3769" style="stroke:#000000;stroke-width:0.75;stroke-linejoin:miter;stroke-miterlimit:10;"/></g><!--link ORCH to GH--><g class="link" data-entity-1="ent0003" data-entity-2="ent0018" data-link-type="dependency" data-source-line="73" id="lnk40"><path d="M576.79,243.7869 C582.5,245.7669 588.3,247.4669 594,248.6869 C652.77,261.3469 1620.75,241.9969 1676,265.6869 C1696.66,274.5469 1711.2953,288.5335 1724.0153,304.4235" fill="none" id="ORCH-to-GH" style="stroke:#000000;stroke-width:0.75;"/><polygon fill="#000000" points="1727.14,308.3269,1724.6383,298.801,1724.0153,304.4235,1718.3929,303.8005,1727.14,308.3269" style="stroke:#000000;stroke-width:0.75;stroke-linejoin:miter;stroke-miterlimit:10;"/></g><!--link ORCH to PCL--><g class="link" data-entity-1="ent0003" data-entity-2="ent0010" data-link-type="dependency" data-source-line="74" id="lnk41"><path d="M576.78,243.8369 C582.49,245.8069 588.3,247.4869 594,248.6869 C731.05,277.5569 2979.83,228.9969 3115,265.6869 C3146.2,274.1569 3173.5567,289.4681 3197.3767,305.5581" fill="none" id="ORCH-to-PCL" style="stroke:#000000;stroke-width:0.75;"/><polygon fill="#000000" points="3201.52,308.3569,3196.301,300.0045,3197.3767,305.5581,3191.823,306.6338,3201.52,308.3569" style="stroke:#000000;stroke-width:0.75;stroke-linejoin:miter;stroke-miterlimit:10;"/></g><!--link ORCH to L2N--><g class="link" data-entity-1="ent0003" data-entity-2="ent0011" data-link-type="dependency" data-source-line="75" id="lnk42"><path d="M576.78,243.8369 C582.49,245.7969 588.3,247.4869 594,248.6869 C715.49,274.3369 2708.41,236.0969 2829,265.6869 C2863.41,274.1369 2894.5755,289.6761 2921.5755,305.7761" fill="none" id="ORCH-to-L2N" style="stroke:#000000;stroke-width:0.75;"/><polygon fill="#000000" points="2925.87,308.3369,2920.1886,300.2919,2921.5755,305.7761,2916.0913,307.1631,2925.87,308.3369" style="stroke:#000000;stroke-width:0.75;stroke-linejoin:miter;stroke-miterlimit:10;"/></g><!--link ORCH to ERO--><g class="link" data-entity-1="ent0003" data-entity-2="ent0012" data-link-type="dependency" data-source-line="76" id="lnk43"><path d="M576.78,243.8269 C582.49,245.7969 588.3,247.4869 594,248.6869 C702.33,271.6069 2480.22,236.3969 2587,265.6869 C2617.87,274.1569 2644.8653,289.3455 2668.4553,305.3855" fill="none" id="ORCH-to-ERO" style="stroke:#000000;stroke-width:0.75;"/><polygon fill="#000000" points="2672.59,308.1969,2667.3966,299.8286,2668.4553,305.3855,2662.8984,306.4441,2672.59,308.1969" style="stroke:#000000;stroke-width:0.75;stroke-linejoin:miter;stroke-miterlimit:10;"/></g><!--link ORCH to PU--><g class="link" data-entity-1="ent0003" data-entity-2="ent0020" data-link-type="dependency" data-source-line="77" id="lnk44"><path d="M576.79,243.7969 C582.5,245.7669 588.3,247.4669 594,248.6869 C660.55,262.9569 1754.97,242.6069 1819,265.6869 C1847.44,275.9369 1870.1328,295.4843 1887.0328,313.0443" fill="none" id="ORCH-to-PU" style="stroke:#000000;stroke-width:0.75;"/><polygon fill="#000000" points="1890.5,316.6469,1887.1411,307.3885,1887.0328,313.0443,1881.377,312.936,1890.5,316.6469" style="stroke:#000000;stroke-width:0.75;stroke-linejoin:miter;stroke-miterlimit:10;"/></g><!--link ORCH to DR--><g class="link" data-entity-1="ent0003" data-entity-2="ent0021" data-link-type="dependency" data-source-line="78" id="lnk45"><path d="M576.78,243.8069 C582.49,245.7769 588.3,247.4769 594,248.6869 C669.25,264.7569 1909.53,232.5969 1979,265.6869 C2001.12,276.2269 2015.495,294.779 2025.845,312.189" fill="none" id="ORCH-to-DR" style="stroke:#000000;stroke-width:0.75;"/><polygon fill="#000000" points="2028.4,316.4869,2027.2393,306.7067,2025.845,312.189,2020.3626,310.7947,2028.4,316.4869" style="stroke:#000000;stroke-width:0.75;stroke-linejoin:miter;stroke-miterlimit:10;"/></g><!--link ORCH to EX--><g class="link" data-entity-1="ent0003" data-entity-2="ent0022" data-link-type="dependency" data-source-line="79" id="lnk46"><path d="M576.78,243.8169 C582.49,245.7869 588.3,247.4769 594,248.6869 C675.89,266.1369 2023.64,233.6569 2101,265.6869 C2125.9,275.9969 2144.0212,294.9239 2157.4612,312.3939" fill="none" id="ORCH-to-EX" style="stroke:#000000;stroke-width:0.75;"/><polygon fill="#000000" points="2160.51,316.3569,2158.1926,306.7845,2157.4612,312.3939,2151.8518,311.6626,2160.51,316.3569" style="stroke:#000000;stroke-width:0.75;stroke-linejoin:miter;stroke-miterlimit:10;"/></g><!--link ORCH to CH--><g class="link" data-entity-1="ent0003" data-entity-2="ent0023" data-link-type="dependency" data-source-line="80" id="lnk47"><path d="M576.78,243.8169 C582.49,245.7869 588.3,247.4769 594,248.6869 C684.05,267.8269 2163.52,237.0169 2251,265.6869 C2281.88,275.8069 2307.669,295.604 2326.929,313.204" fill="none" id="ORCH-to-CH" style="stroke:#000000;stroke-width:0.75;"/><polygon fill="#000000" points="2330.62,316.5769,2326.6745,307.5529,2326.929,313.204,2321.2779,313.4585,2330.62,316.5769" style="stroke:#000000;stroke-width:0.75;stroke-linejoin:miter;stroke-miterlimit:10;"/></g><!--link ORCH to ORE--><g class="link" data-entity-1="ent0003" data-entity-2="ent0025" data-link-type="dependency" data-source-line="81" id="lnk48"><path d="M576.78,243.8269 C582.49,245.7969 588.3,247.4769 594,248.6869 C619.26,254.0369 2434.83,247.3469 2453,265.6869 C2493.54,306.6069 2493,353.8469 2453,395.2869 C2444.24,404.3569 2238.26,400.2869 2226,403.2869 C2183.43,413.6869 2142.9407,434.0578 2112.7007,451.5078" fill="none" id="ORCH-to-ORE" style="stroke:#000000;stroke-width:0.75;"/><polygon fill="#000000" points="2108.37,454.0069,2118.1645,452.9732,2112.7007,451.5078,2114.166,446.0441,2108.37,454.0069" style="stroke:#000000;stroke-width:0.75;stroke-linejoin:miter;stroke-miterlimit:10;"/></g><!--link ORCH to SPR--><g class="link" data-entity-1="ent0003" data-entity-2="ent0026" data-link-type="dependency" data-source-line="82" id="lnk49"><path d="M576.78,243.8269 C582.49,245.7969 588.3,247.4869 594,248.6869 C619.82,254.1569 2475.42,246.9469 2494,265.6869 C2534.54,306.5969 2519.6,343.6869 2494,395.2869 C2481.35,420.7769 2460.7441,437.8588 2438.1441,451.4588" fill="none" id="ORCH-to-SPR" style="stroke:#000000;stroke-width:0.75;"/><polygon fill="#000000" points="2433.86,454.0369,2443.6338,452.8237,2438.1441,451.4588,2439.509,445.9691,2433.86,454.0369" style="stroke:#000000;stroke-width:0.75;stroke-linejoin:miter;stroke-miterlimit:10;"/></g><!--link ORCH to TPL--><g class="link" data-entity-1="ent0003" data-entity-2="ent0027" data-link-type="dependency" data-source-line="83" id="lnk50"><path d="M576.87,243.4269 C582.57,245.4669 588.35,247.2869 594,248.6869 C640.95,260.3469 770.22,239.6669 811,265.6869 C866.73,301.2469 828.45,359.4369 884,395.2869 C951.6,438.9069 1474.6039,463.9695 1697.8639,472.7895" fill="none" id="ORCH-to-TPL" style="stroke:#000000;stroke-width:0.75;"/><polygon fill="#000000" points="1702.86,472.9869,1694.0249,468.6347,1697.8639,472.7895,1693.7091,476.6285,1702.86,472.9869" style="stroke:#000000;stroke-width:0.75;stroke-linejoin:miter;stroke-miterlimit:10;"/></g><!--link PCL to NXT--><g class="link" data-entity-1="ent0010" data-entity-2="ent0028" data-link-type="dependency" data-source-line="84" id="lnk51"><path d="M3172.73,371.7669 C3150.96,381.6369 3126.89,392.7369 3105,403.2869 C3070.88,419.7169 3037.1396,436.8968 3008.6696,451.6468" fill="none" id="PCL-to-NXT" style="stroke:#000000;stroke-width:0.75;"/><polygon fill="#000000" points="3004.23,453.9469,3014.0613,453.3584,3008.6696,451.6468,3010.3811,446.2551,3004.23,453.9469" style="stroke:#000000;stroke-width:0.75;stroke-linejoin:miter;stroke-miterlimit:10;"/></g><!--link ERO to CSS--><g class="link" data-entity-1="ent0012" data-entity-2="ent0029" data-link-type="dependency" data-source-line="85" id="lnk52"><path d="M2708.69,371.7569 C2705.18,396.7569 2701.0132,426.5052 2697.8632,449.0052" fill="none" id="ERO-to-CSS" style="stroke:#000000;stroke-width:0.75;"/><polygon fill="#000000" points="2697.17,453.9569,2702.3792,445.5984,2697.8632,449.0052,2694.4565,444.4892,2697.17,453.9569" style="stroke:#000000;stroke-width:0.75;stroke-linejoin:miter;stroke-miterlimit:10;"/></g><!--link PCL to M2T--><g class="link" data-entity-1="ent0010" data-entity-2="ent0004" data-link-type="dependency" data-source-line="86" id="lnk53"><path d="M3201.2,308.3269 C3177.4,292.3269 3146.02,274.3269 3115,265.6869 C3001.43,234.0669 1226.3399,221.507 799.4799,218.937" fill="none" id="PCL-to-M2T" style="stroke:#000000;stroke-width:0.75;"/><polygon fill="#000000" points="794.48,218.9069,803.4558,222.961,799.4799,218.937,803.5039,214.9611,794.48,218.9069" style="stroke:#000000;stroke-width:0.75;stroke-linejoin:miter;stroke-miterlimit:10;"/></g><!--link L2N to NXT--><g class="link" data-entity-1="ent0011" data-entity-2="ent0028" data-link-type="dependency" data-source-line="87" id="lnk54"><path d="M2969.5,371.7569 C2967.48,396.7569 2965.0653,426.4733 2963.2353,448.9733" fill="none" id="L2N-to-NXT" style="stroke:#000000;stroke-width:0.75;"/><polygon fill="#000000" points="2962.83,453.9569,2967.5464,445.3108,2963.2353,448.9733,2959.5728,444.6622,2962.83,453.9569" style="stroke:#000000;stroke-width:0.75;stroke-linejoin:miter;stroke-miterlimit:10;"/></g><!--link ERO to EPUB--><g class="link" data-entity-1="ent0012" data-entity-2="ent0005" data-link-type="dependency" data-source-line="88" id="lnk55"><path d="M2626.1,308.2169 C2576.16,292.1269 2511.85,274.0769 2453,265.6869 C2233.11,234.3369 674.16,278.1569 454,248.6869 C448.37,247.9369 447.5449,247.9152 441.7649,246.8352" fill="none" id="ERO-to-EPUB" style="stroke:#000000;stroke-width:0.75;"/><polygon fill="#000000" points="436.85,245.9169,444.9622,251.5019,441.7649,246.8352,446.4316,243.638,436.85,245.9169" style="stroke:#000000;stroke-width:0.75;stroke-linejoin:miter;stroke-miterlimit:10;"/></g><!--link EPUB to FONT--><g class="link" data-entity-1="ent0005" data-entity-2="ent0006" data-link-type="dependency" data-source-line="89" id="lnk56"><path d="M368.83,249.1369 C386.43,267.2769 405.1473,286.5793 422.7473,304.7093" fill="none" id="EPUB-to-FONT" style="stroke:#000000;stroke-width:0.75;"/><polygon fill="#000000" points="426.23,308.2969,422.8312,299.0531,422.7473,304.7093,417.0911,304.6254,426.23,308.2969" style="stroke:#000000;stroke-width:0.75;stroke-linejoin:miter;stroke-miterlimit:10;"/></g><!--link EPUB to FORMULA--><g class="link" data-entity-1="ent0005" data-entity-2="ent0008" data-link-type="dependency" data-source-line="90" id="lnk57"><path d="M295.92,249.1369 C270.49,267.2769 242.4907,287.2636 217.0707,305.3936" fill="none" id="EPUB-to-FORMULA" style="stroke:#000000;stroke-width:0.75;"/><polygon fill="#000000" points="213,308.2969,222.6499,306.3275,217.0707,305.3936,218.0047,299.8143,213,308.2969" style="stroke:#000000;stroke-width:0.75;stroke-linejoin:miter;stroke-miterlimit:10;"/></g><!--link ORCH to WC--><g class="link" data-entity-1="ent0003" data-entity-2="ent0007" data-link-type="dependency" data-source-line="91" id="lnk58"><path d="M567.34,249.1369 C592.91,267.2769 621.1018,287.2741 646.6618,305.4041" fill="none" id="ORCH-to-WC" style="stroke:#000000;stroke-width:0.75;"/><polygon fill="#000000" points="650.74,308.2969,645.7134,299.8273,646.6618,305.4041,641.085,306.3525,650.74,308.2969" style="stroke:#000000;stroke-width:0.75;stroke-linejoin:miter;stroke-miterlimit:10;"/></g><!--link M2T to PDF--><g class="link" data-entity-1="ent0004" data-entity-2="ent0032" data-link-type="dependency" data-source-line="92" id="lnk59"><path d="M794.34,218.6969 C1264.81,220.4469 3395,230.2869 3453,265.6869 C3518.77,305.8369 3547.4039,393.6624 3558.8139,441.6724" fill="none" id="M2T-to-PDF" style="stroke:#000000;stroke-width:0.75;"/><polygon fill="#000000" points="3559.97,446.5369,3561.7806,436.8559,3558.8139,441.6724,3553.9974,438.7056,3559.97,446.5369" style="stroke:#000000;stroke-width:0.75;stroke-linejoin:miter;stroke-miterlimit:10;"/></g><!--link PCL to MDX--><g class="link" data-entity-1="ent0010" data-entity-2="ent0031" data-link-type="dependency" data-source-line="93" id="lnk60"><path d="M3261.74,371.7569 C3276.08,394.0969 3292.6899,419.9786 3306.9399,442.1886" fill="none" id="PCL-to-MDX" style="stroke:#000000;stroke-width:0.75;"/><polygon fill="#000000" points="3309.64,446.3969,3308.1465,436.6619,3306.9399,442.1886,3301.4133,440.982,3309.64,446.3969" style="stroke:#000000;stroke-width:0.75;stroke-linejoin:miter;stroke-miterlimit:10;"/></g><!--link L2N to WEB--><g class="link" data-entity-1="ent0011" data-entity-2="ent0033" data-link-type="dependency" data-source-line="94" id="lnk61"><path d="M3027.63,371.7469 C3044.89,381.5669 3063.87,392.6469 3081,403.2869 C3102.7,416.7569 3122.1404,429.648 3141.8004,443.068" fill="none" id="L2N-to-WEB" style="stroke:#000000;stroke-width:0.75;"/><polygon fill="#000000" points="3145.93,445.8869,3140.7518,437.5092,3141.8004,443.068,3136.2416,444.1166,3145.93,445.8869" style="stroke:#000000;stroke-width:0.75;stroke-linejoin:miter;stroke-miterlimit:10;"/></g><!--link EPUB to EOUT--><g class="link" data-entity-1="ent0005" data-entity-2="ent0034" data-link-type="dependency" data-source-line="95" id="lnk62"><path d="M436.85,245.9369 C442.63,247.0069 448.37,247.9469 454,248.6869 C494.12,254.0069 3335.25,241.9069 3368,265.6869 C3429.18,310.1169 3437.638,405.1374 3438.278,449.5774" fill="none" id="EPUB-to-EOUT" style="stroke:#000000;stroke-width:0.75;"/><polygon fill="#000000" points="3438.35,454.5769,3442.22,445.5202,3438.278,449.5774,3434.2208,445.6354,3438.35,454.5769" style="stroke:#000000;stroke-width:0.75;stroke-linejoin:miter;stroke-miterlimit:10;"/></g><?plantuml-src ZLLRRnj557xthnYPvush80HFI8al2S99Z2ya2FCmtftOK-_Eh6Pc4xSLBrLQKzIKGY0G8g2HYaXL6fK7I1KdwP_nsic_uCoilLchuDJoPSwUxtndpjMoJPcF1VQGnnctMu9x12aHa9ICDRA57Rv9MHEjOrScDGrijvk21yp9SfSBz4x1l188XwpZm5K5pjG8SiEy_XkoZC5xUfMmJmBCFgDeYTg2eqL2qmdydAsucB_MSmJZmY7Y_pndkUTpHfYwdkqAEfMn14IuIQxd6mEdikMmmWqitu8kHawFr-M1ynQn6jXKfZaX-EPKPRL5xJOZKg8RC--_bqefgbo2RCxR3VXOJSA8m50XDEnjzNl_37w5zrOgXMtpxFl3mLV7gPGVPGcbXwUxWqVVXN_ThRCtATBeJWgXpoiVVrGipdXEdKNemSDkl_Vq2uGbMYbd5pL4seBwIcOyfpEhI6V6kodhR2ctXgmFKH5NoPf1ByrMa-16G5t78dxGcC3dIxLv0zU795u63KcKjGxzB2EByCMF_RETyCNZo_txuSDTOrLOMPxmiWdvjcmeYufj1Z-y7FP-kpWwC0QhsIIS-ufwz3O1Dy8BN6nH3n8rzdVlp_3qct3_VFYWstzz53xT7haiBzMASwal4ua57IHx-FCMghIfwyfHBdt1Rn9RMN6oNGpvghEBlxS6ktl3PyVXopEKGH-W_gikt1IEUPSqiHuFtZREIjcY9Z9sbk8M8nqbi2Mf8dMsR0IqyIuOvhZT9W8E9HViQqj5OrwSNTRcEkkM81XQqHg7BEeiMwcWo-vsU7yFxABiweC9En5mlhmo4ImaTB1zTDdjwZeS_nxUEnw52rgch0QqhTJqcGswWLs7MZXGtCEAScRuviiQl4eQ1QBi5dY4OuLWORUY2XKCb-ZG3MiJ0y9msPmnI2LnB1_xH4W3dIklQQp3xTcEPRkqpagv0bh9beqsDskqpLQaMg1gCMYWVcydFDanW8N5oIBkdryS74v4vEja1fuRrQ9cd0cyINdam0H2EZPsgNuSPSiujLjOA6k3oW1qjwzYpqww71mU37vvtN_rI7V4oUEHLq7MYI3C9Z05wfPBh6P07M9nGQ2tRi5iZgOnFmKiVG5_DKICqPMIkIoMC5GoeuZdwvwoO8Gpi0nQs5VG6-F7ODGnLjLICM4rQhunAcCWoslL1CHSGRO8KJCncIsZQa6xJGH_SRuJTa_w9tyC7poB8dT6-nUbOJl00dh-vEBhkp3ga9h1arFeohHPBBcr2MnYPam3613y0iZMEnYbHuCoFFjs-7olpZubmYPkF3G6lvgVdo3jd_u4ZirMClhyIgsgRn_jL6J1wZBhK7yP2RewFaCBnsVTex6WMp8M5XBMUivZGKzjBEZfkuBL4bm9X_a4RV9IkaTYGRT0BEZAWbDprYK4Dv4r56dyN6zmkCiR6BEgzPUHp0fEID5slCf5DWKyqUsX9Z4t577ChNCV4-X4_mi0?></g></svg>