<svg xmlns="http://www.w3.org/2000/svg" xmlns:xlink="http://www.w3.org/1999/xlink" contentStyleType="text/css" data-diagram-type="DESCRIPTION" height="439px" preserveAspectRatio="none" style="width:2005px;height:439px;background:#FFFFFF;" version="1.1" viewBox="0 0 2005 439" width="2005px" zoomAndPan="magnify"><?plantuml 1.2026.6?><defs/><g><g class="title" data-source-line="15"><text fill="#000000" font-family="'WenQuanYi Micro Hei'" font-size="14" font-weight="700" lengthAdjust="spacing" textLength="189.8477" x="904.1062" y="22.9951">cookbook-generator &#29992;&#20363;&#22270;</text></g><!--cluster cookbook-generator--><g class="cluster" data-qualified-name="cookbook-generator" data-source-line="22" id="ent0003"><rect fill="#FFFFFF" height="287" rx="2.5" ry="2.5" style="stroke:#000000;stroke-width:1;" width="1911.56" x="79.5" y="44.2969"/><text fill="#000000" font-family="'WenQuanYi Micro Hei'" font-size="14" font-weight="700" lengthAdjust="spacing" textLength="159.7695" x="955.3952" y="59.292">cookbook-generator</text></g><!--entity UC0--><g class="entity" data-qualified-name="cookbook-generator.UC0" data-source-line="23" id="ent0004"><ellipse cx="140.0846" cy="151.3005" fill="#FFFFFF" rx="44.5846" ry="14.5236" style="stroke:#000000;stroke-width:0.5;"/><text fill="#000000" font-family="'WenQuanYi Micro Hei'" font-size="14" lengthAdjust="spacing" textLength="58.8096" x="110.6799" y="155.9489">&#25351;&#23450;&#20027;&#39064;&#19982;&#36164;&#26009;</text></g><!--entity UC1--><g class="entity" data-qualified-name="cookbook-generator.UC1" data-source-line="24" id="ent0005"><ellipse cx="424.0567" cy="143.2942" fill="#FFFFFF" rx="114.3867" ry="25.2773" style="stroke:#000000;stroke-width:0.5;"/><text fill="#000000" font-family="'WenQuanYi Micro Hei'" font-size="14" lengthAdjust="spacing" textLength="50.4082" x="398.8526" y="134.3916">&#37319;&#38598;&#22810;&#28304;&#36164;&#26009;</text><text fill="#000000" font-family="'WenQuanYi Micro Hei'" font-size="14" lengthAdjust="spacing" textLength="194.3184" x="326.8975" y="150.6884">(&#32593;&#39029;/GitHub/arxiv/PDF/EPUB)</text></g><!--entity UC2--><g class="entity" data-qualified-name="cookbook-generator.UC2" data-source-line="25" id="ent0006"><ellipse cx="724.9592" cy="150.3007" fill="#FFFFFF" rx="61.5192" ry="14.7038" style="stroke:#000000;stroke-width:0.5;"/><text fill="#000000" font-family="'WenQuanYi Micro Hei'" font-size="14" lengthAdjust="spacing" textLength="84.0137" x="682.9524" y="154.9492">&#29983;&#25104;&#20840;&#26223;&#22270;&#19982;&#31456;&#33410;&#22823;&#32434;</text></g><!--entity UC3--><g class="entity" data-qualified-name="cookbook-generator.UC3" data-source-line="26" id="ent0007"><ellipse cx="950.134" cy="192.3005" fill="#FFFFFF" rx="38.644" ry="14.5236" style="stroke:#000000;stroke-width:0.5;"/><text fill="#000000" font-family="'WenQuanYi Micro Hei'" font-size="14" lengthAdjust="spacing" textLength="50.4082" x="924.9299" y="196.9489">&#29992;&#25143;&#30830;&#35748;&#22823;&#32434;</text></g><!--entity UC4--><g class="entity" data-qualified-name="cookbook-generator.UC4" data-source-line="27" id="ent0008"><ellipse cx="1166.6152" cy="192.3005" fill="#FFFFFF" rx="52.8552" ry="14.5236" style="stroke:#000000;stroke-width:0.5;"/><text fill="#000000" font-family="'WenQuanYi Micro Hei'" font-size="14" lengthAdjust="spacing" textLength="70.5059" x="1131.3622" y="196.9489">&#36880;&#31456;&#20889;&#20316; MDX</text></g><!--entity UC5--><g class="entity" data-qualified-name="cookbook-generator.UC5" data-source-line="28" id="ent0009"><ellipse cx="1383.124" cy="192.3005" fill="#FFFFFF" rx="38.644" ry="14.5236" style="stroke:#000000;stroke-width:0.5;"/><text fill="#000000" font-family="'WenQuanYi Micro Hei'" font-size="14" lengthAdjust="spacing" textLength="50.4082" x="1357.9199" y="196.9489">&#23383;&#25968;&#36798;&#26631;&#26657;&#39564;</text></g><!--entity UC6--><g class="entity" data-qualified-name="cookbook-generator.UC6" data-source-line="29" id="ent0010"><ellipse cx="1631.185" cy="296.2919" fill="#FFFFFF" rx="84.425" ry="19.285" style="stroke:#000000;stroke-width:0.5;"/><text fill="#000000" font-family="'WenQuanYi Micro Hei'" font-size="14" lengthAdjust="spacing" textLength="140.998" x="1560.686" y="300.9403">&#36755;&#20986; ElegantBook PDF</text></g><!--entity UC7--><g class="entity" data-qualified-name="cookbook-generator.UC7" data-source-line="30" id="ent0011"><ellipse cx="1631.1929" cy="162.2955" fill="#FFFFFF" rx="63.5929" ry="15.1186" style="stroke:#000000;stroke-width:0.5;"/><text fill="#000000" font-family="'WenQuanYi Micro Hei'" font-size="14" lengthAdjust="spacing" textLength="89.7012" x="1586.3423" y="166.9439">&#36755;&#20986; Nextra &#32593;&#31449;</text></g><!--entity UC8--><g class="entity" data-qualified-name="cookbook-generator.UC8" data-source-line="31" id="ent0012"><ellipse cx="1631.1911" cy="227.3005" fill="#FFFFFF" rx="56.1711" ry="14.5236" style="stroke:#000000;stroke-width:0.5;"/><text fill="#000000" font-family="'WenQuanYi Micro Hei'" font-size="14" lengthAdjust="spacing" textLength="75.1953" x="1593.5935" y="231.9489">&#36755;&#20986;&#20248;&#21270; EPUB</text></g><!--entity UC9--><g class="entity" data-qualified-name="cookbook-generator.UC9" data-source-line="32" id="ent0013"><ellipse cx="1631.194" cy="95.3017" fill="#FFFFFF" rx="69.974" ry="16.3948" style="stroke:#000000;stroke-width:0.5;"/><text fill="#000000" font-family="'WenQuanYi Micro Hei'" font-size="14" lengthAdjust="spacing" textLength="106.3125" x="1578.0377" y="99.9501">&#29983;&#25104;&#20013;&#33521;&#25991; README</text></g><!--entity UC10--><g class="entity" data-qualified-name="cookbook-generator.UC10" data-source-line="33" id="ent0014"><ellipse cx="1907.844" cy="190.3005" fill="#FFFFFF" rx="38.644" ry="14.5236" style="stroke:#000000;stroke-width:0.5;"/><text fill="#000000" font-family="'WenQuanYi Micro Hei'" font-size="14" lengthAdjust="spacing" textLength="50.4082" x="1882.6399" y="194.9489">&#22312;&#32447;&#27983;&#35272;&#32593;&#31449;</text></g><!--entity UC11--><g class="entity" data-qualified-name="cookbook-generator.UC11" data-source-line="34" id="ent0015"><ellipse cx="1907.8408" cy="280.301" fill="#FFFFFF" rx="67.2208" ry="15.8442" style="stroke:#000000;stroke-width:0.5;"/><text fill="#000000" font-family="'WenQuanYi Micro Hei'" font-size="14" lengthAdjust="spacing" textLength="99.2852" x="1858.1982" y="284.9495">&#19979;&#36733; PDF / EPUB</text></g><!--entity ??--><g class="entity" data-qualified-name=".." data-source-line="19" id="ent0001"><ellipse cx="19" cy="171.6469" fill="#FFFFFF" rx="8" ry="8" style="stroke:#000000;stroke-width:0.5;"/><path d="M19,179.6469 L19,206.6469 M6,187.6469 L32,187.6469 M19,206.6469 L6,221.6469 M19,206.6469 L32,221.6469" fill="none" style="stroke:#000000;stroke-width:0.5;"/><text fill="#000000" font-family="'WenQuanYi Micro Hei'" font-size="14" lengthAdjust="spacing" textLength="16.8027" x="10.5986" y="236.142">&#20316;&#32773;</text></g><!--entity ??--><g class="entity" data-qualified-name=".." data-source-line="20" id="ent0002"><ellipse cx="1631.19" cy="358.6469" fill="#FFFFFF" rx="8" ry="8" style="stroke:#000000;stroke-width:0.5;"/><path d="M1631.19,366.6469 L1631.19,393.6469 M1618.19,374.6469 L1644.19,374.6469 M1631.19,393.6469 L1618.19,408.6469 M1631.19,393.6469 L1644.19,408.6469" fill="none" style="stroke:#000000;stroke-width:0.5;"/><text fill="#000000" font-family="'WenQuanYi Micro Hei'" font-size="14" lengthAdjust="spacing" textLength="16.8027" x="1622.7886" y="423.142">&#35835;&#32773;</text></g><!--link ?? to UC0--><g class="link" data-entity-1="ent0001" data-entity-2="ent0004" data-link-type="dependency" data-source-line="37" id="lnk16"><path d="M32.74,195.9469 C51.46,188.0869 82.25,175.1628 107.04,164.7528" fill="none" id="&#20316;&#32773;-to-UC0" style="stroke:#000000;stroke-width:0.75;"/><polygon fill="#000000" points="111.65,162.8169,101.8032,162.6134,107.04,164.7528,104.9006,169.9895,111.65,162.8169" style="stroke:#000000;stroke-width:0.75;stroke-linejoin:miter;stroke-miterlimit:10;"/></g><!--link ?? to UC3--><g class="link" data-entity-1="ent0001" data-entity-2="ent0007" data-link-type="dependency" data-source-line="38" id="lnk17"><path d="M32.75,204.8769 C54.41,210.6269 99.88,221.2969 139.08,221.2969 C139.08,221.2969 139.08,221.2969 725.96,221.2969 C793.75,221.2969 867.2546,208.9447 910.7446,200.3647" fill="none" id="&#20316;&#32773;-to-UC3" style="stroke:#000000;stroke-width:0.75;"/><polygon fill="#000000" points="915.65,199.3969,906.046,197.2145,910.7446,200.3647,907.5944,205.0632,915.65,199.3969" style="stroke:#000000;stroke-width:0.75;stroke-linejoin:miter;stroke-miterlimit:10;"/></g><!--link UC0 to UC1--><g class="link" data-entity-1="ent0004" data-entity-2="ent0005" data-link-type="dependency" data-source-line="39" id="lnk18"><path d="M184.83,150.0569 C218.32,149.1069 261.092,147.899 305.062,146.649" fill="none" id="UC0-to-UC1" style="stroke:#000000;stroke-width:0.75;stroke-dasharray:7,7;"/><polygon fill="#000000" points="310.06,146.5069,300.95,142.7642,305.062,146.649,301.1773,150.761,310.06,146.5069" style="stroke:#000000;stroke-width:0.75;stroke-linejoin:miter;stroke-miterlimit:10;"/><text fill="#000000" font-family="'WenQuanYi Micro Hei'" font-size="13" lengthAdjust="spacing" textLength="63.0068" x="215.67" y="143.6038">&#171;include&#187;</text></g><!--link UC1 to UC2--><g class="link" data-entity-1="ent0005" data-entity-2="ent0006" data-link-type="dependency" data-source-line="40" id="lnk19"><path d="M538.06,145.9469 C580.71,146.9469 622.5814,147.9189 658.5914,148.7689" fill="none" id="UC1-to-UC2" style="stroke:#000000;stroke-width:0.75;stroke-dasharray:7,7;"/><polygon fill="#000000" points="663.59,148.8869,654.6869,144.6756,658.5914,148.7689,654.4981,152.6734,663.59,148.8869" style="stroke:#000000;stroke-width:0.75;stroke-linejoin:miter;stroke-miterlimit:10;"/><text fill="#000000" font-family="'WenQuanYi Micro Hei'" font-size="13" lengthAdjust="spacing" textLength="63.0068" x="569.44" y="142.8638">&#171;include&#187;</text></g><!--link UC2 to UC3--><g class="link" data-entity-1="ent0006" data-entity-2="ent0007" data-link-type="dependency" data-source-line="41" id="lnk20"><path d="M774.39,159.4069 C816.82,167.3969 872.5061,177.8827 910.0461,184.9427" fill="none" id="UC2-to-UC3" style="stroke:#000000;stroke-width:0.75;stroke-dasharray:7,7;"/><polygon fill="#000000" points="914.96,185.8669,906.8544,180.2724,910.0461,184.9427,905.3758,188.1345,914.96,185.8669" style="stroke:#000000;stroke-width:0.75;stroke-linejoin:miter;stroke-miterlimit:10;"/><text fill="#000000" font-family="'WenQuanYi Micro Hei'" font-size="13" lengthAdjust="spacing" textLength="63.0068" x="817.48" y="163.6038">&#171;include&#187;</text></g><!--link UC3 to UC4--><g class="link" data-entity-1="ent0007" data-entity-2="ent0008" data-link-type="dependency" data-source-line="42" id="lnk21"><path d="M988.98,192.2969 C1023.62,192.2969 1070.18,192.2969 1108.67,192.2969" fill="none" id="UC3-to-UC4" style="stroke:#000000;stroke-width:0.75;stroke-dasharray:7,7;"/><polygon fill="#000000" points="1113.67,192.2969,1104.67,188.2969,1108.67,192.2969,1104.67,196.2969,1113.67,192.2969" style="stroke:#000000;stroke-width:0.75;stroke-linejoin:miter;stroke-miterlimit:10;"/><text fill="#000000" font-family="'WenQuanYi Micro Hei'" font-size="13" lengthAdjust="spacing" textLength="63.0068" x="1019.77" y="188.3638">&#171;include&#187;</text></g><!--link UC4 to UC5--><g class="link" data-entity-1="ent0008" data-entity-2="ent0009" data-link-type="dependency" data-source-line="43" id="lnk22"><path d="M1219.82,192.2969 C1258.26,192.2969 1304.65,192.2969 1339.22,192.2969" fill="none" id="UC4-to-UC5" style="stroke:#000000;stroke-width:0.75;stroke-dasharray:7,7;"/><polygon fill="#000000" points="1344.22,192.2969,1335.22,188.2969,1339.22,192.2969,1335.22,196.2969,1344.22,192.2969" style="stroke:#000000;stroke-width:0.75;stroke-linejoin:miter;stroke-miterlimit:10;"/><text fill="#000000" font-family="'WenQuanYi Micro Hei'" font-size="13" lengthAdjust="spacing" textLength="63.0068" x="1250.48" y="188.3638">&#171;include&#187;</text></g><!--link UC5 to UC6--><g class="link" data-entity-1="ent0009" data-entity-2="ent0010" data-link-type="dependency" data-source-line="44" id="lnk23"><path d="M1399.24,205.8669 C1412.33,216.9969 1432.19,232.4669 1451.77,242.2969 C1488.65,260.8069 1528.2006,273.059 1563.4806,281.919" fill="none" id="UC5-to-UC6" style="stroke:#000000;stroke-width:0.75;stroke-dasharray:7,7;"/><polygon fill="#000000" points="1568.33,283.1369,1560.5753,277.0652,1563.4806,281.919,1558.6268,284.8243,1568.33,283.1369" style="stroke:#000000;stroke-width:0.75;stroke-linejoin:miter;stroke-miterlimit:10;"/><text fill="#000000" font-family="'WenQuanYi Micro Hei'" font-size="13" lengthAdjust="spacing" textLength="61.1851" x="1453.77" y="238.3638">&#171;extend&#187;</text></g><!--link UC5 to UC7--><g class="link" data-entity-1="ent0009" data-entity-2="ent0011" data-link-type="dependency" data-source-line="45" id="lnk24"><path d="M1420.43,187.8669 C1460.94,182.9369 1522.0068,175.4921 1569.1568,169.7421" fill="none" id="UC5-to-UC7" style="stroke:#000000;stroke-width:0.75;stroke-dasharray:7,7;"/><polygon fill="#000000" points="1574.12,169.1369,1564.702,166.2558,1569.1568,169.7421,1565.6704,174.1969,1574.12,169.1369" style="stroke:#000000;stroke-width:0.75;stroke-linejoin:miter;stroke-miterlimit:10;"/><text fill="#000000" font-family="'WenQuanYi Micro Hei'" font-size="13" lengthAdjust="spacing" textLength="61.1851" x="1453.77" y="172.4638">&#171;extend&#187;</text></g><!--link UC5 to UC8--><g class="link" data-entity-1="ent0009" data-entity-2="ent0012" data-link-type="dependency" data-source-line="46" id="lnk25"><path d="M1415.61,200.6169 C1426.95,203.3769 1439.87,206.2669 1451.77,208.2969 C1493.53,215.4269 1536.2982,219.9212 1571.8782,222.9612" fill="none" id="UC5-to-UC8" style="stroke:#000000;stroke-width:0.75;stroke-dasharray:7,7;"/><polygon fill="#000000" points="1576.86,223.3869,1568.2332,218.6352,1571.8782,222.9612,1567.5521,226.6062,1576.86,223.3869" style="stroke:#000000;stroke-width:0.75;stroke-linejoin:miter;stroke-miterlimit:10;"/><text fill="#000000" font-family="'WenQuanYi Micro Hei'" font-size="13" lengthAdjust="spacing" textLength="61.1851" x="1453.77" y="204.3638">&#171;extend&#187;</text></g><!--link UC5 to UC9--><g class="link" data-entity-1="ent0009" data-entity-2="ent0013" data-link-type="dependency" data-source-line="47" id="lnk26"><path d="M1402.7,179.3569 C1415.93,170.5769 1434.37,159.1569 1451.77,151.2969 C1494.07,132.1769 1539.9585,118.2338 1576.4885,108.5038" fill="none" id="UC5-to-UC9" style="stroke:#000000;stroke-width:0.75;stroke-dasharray:7,7;"/><polygon fill="#000000" points="1581.32,107.2169,1571.5937,105.6681,1576.4885,108.5038,1573.6527,113.3986,1581.32,107.2169" style="stroke:#000000;stroke-width:0.75;stroke-linejoin:miter;stroke-miterlimit:10;"/><text fill="#000000" font-family="'WenQuanYi Micro Hei'" font-size="13" lengthAdjust="spacing" textLength="63.0068" x="1452.77" y="123.3538">&#171;include&#187;</text></g><!--link UC7 to UC10--><g class="link" data-entity-1="ent0011" data-entity-2="ent0014" data-link-type="dependency" data-source-line="48" id="lnk27"><path d="M1690.44,168.2369 C1744.76,173.7769 1819.1558,181.3597 1865.1558,186.0497" fill="none" id="UC7-to-UC10" style="stroke:#000000;stroke-width:0.75;stroke-dasharray:7,7;"/><polygon fill="#000000" points="1870.13,186.5569,1861.5821,181.6646,1865.1558,186.0497,1860.7707,189.6234,1870.13,186.5569" style="stroke:#000000;stroke-width:0.75;stroke-linejoin:miter;stroke-miterlimit:10;"/><text fill="#000000" font-family="'WenQuanYi Micro Hei'" font-size="13" lengthAdjust="spacing" textLength="63.0068" x="1746.62" y="170.6938">&#171;include&#187;</text></g><!--link UC6 to UC11--><g class="link" data-entity-1="ent0010" data-entity-2="ent0015" data-link-type="dependency" data-source-line="49" id="lnk28"><path d="M1713.48,291.5669 C1754.61,289.1669 1798.8385,286.5874 1837.3185,284.3474" fill="none" id="UC6-to-UC11" style="stroke:#000000;stroke-width:0.75;stroke-dasharray:7,7;"/><polygon fill="#000000" points="1842.31,284.0569,1833.0928,280.5867,1837.3185,284.3474,1833.5577,288.5731,1842.31,284.0569" style="stroke:#000000;stroke-width:0.75;stroke-linejoin:miter;stroke-miterlimit:10;"/><text fill="#000000" font-family="'WenQuanYi Micro Hei'" font-size="13" lengthAdjust="spacing" textLength="63.0068" x="1746.62" y="281.9938">&#171;include&#187;</text></g><!--link UC8 to UC11--><g class="link" data-entity-1="ent0012" data-entity-2="ent0015" data-link-type="dependency" data-source-line="50" id="lnk29"><path d="M1677.24,235.9869 C1725.93,245.3869 1798.5406,259.3993 1849.8306,269.2993" fill="none" id="UC8-to-UC11" style="stroke:#000000;stroke-width:0.75;stroke-dasharray:7,7;"/><polygon fill="#000000" points="1854.74,270.2469,1846.6612,264.6137,1849.8306,269.2993,1845.145,272.4687,1854.74,270.2469" style="stroke:#000000;stroke-width:0.75;stroke-linejoin:miter;stroke-miterlimit:10;"/><text fill="#000000" font-family="'WenQuanYi Micro Hei'" font-size="13" lengthAdjust="spacing" textLength="63.0068" x="1746.62" y="246.6938">&#171;include&#187;</text></g><!--link ?? to UC10--><g class="link" data-entity-1="ent0002" data-entity-2="ent0014" data-link-type="dependency" data-source-line="51" id="lnk30"><path d="M1644.87,384.5469 C1676.25,374.7469 1758.76,345.7069 1810.62,297.2969 C1829.56,279.6169 1823.92,267.1169 1840.62,247.2969 C1854.99,230.2469 1870.7079,217.0107 1884.8779,206.2507" fill="none" id="&#35835;&#32773;-to-UC10" style="stroke:#000000;stroke-width:0.75;"/><polygon fill="#000000" points="1888.86,203.2269,1879.2733,205.484,1884.8779,206.2507,1884.1113,211.8553,1888.86,203.2269" style="stroke:#000000;stroke-width:0.75;stroke-linejoin:miter;stroke-miterlimit:10;"/></g><!--link ?? to UC11--><g class="link" data-entity-1="ent0002" data-entity-2="ent0015" data-link-type="dependency" data-source-line="52" id="lnk31"><path d="M1644.97,388.7969 C1675.23,389.4869 1753.02,388.3869 1810.62,362.2969 C1845.01,346.7269 1873.2913,318.7978 1890.3413,299.6878" fill="none" id="&#35835;&#32773;-to-UC11" style="stroke:#000000;stroke-width:0.75;"/><polygon fill="#000000" points="1893.67,295.9569,1884.6936,300.0095,1890.3413,299.6878,1890.663,305.3355,1893.67,295.9569" style="stroke:#000000;stroke-width:0.75;stroke-linejoin:miter;stroke-miterlimit:10;"/></g><?plantuml-src ZPDTInj158RlvrSSqflsGfCOOxI8u4UiDugLIblepRWx9alMcJAxMmkb8AKQgT9QQgrVK2s2eQAs1Mc8JVfdzYl_efDaqkwoHhkmiBFFC-VClBDh53Jw57Ey00kCCYNFsG81ari46N-9aSSgMzHe3kQnRWJ975OAESuigeuodN6uDTwy0ePAvh6bc-ECcb99DA-hbIaikiSU4dhVmlIn1fEQmXbC42qMy8SLa_6H6pktDCPLmZjrdZM8WWroSwssU6sr6QAOcERq_wZtJxssuZ3dRF5Q-22lAGLA30CItPaqGgPcwWGKnWfpukxA4Keu5Zc0jrcoQslENWqXdSoRO3BWMYvlWgfniHYDKOHm8p6mg_l-qh8S-EUNZG7YxGL3B5ey1YyGWDNA26BkUj4vsxNBb_KlstRvhN_nsjtQYG4sO7Oq4HJhnM9zRyKvsdKh6oth2RtjLT_N3o_YzpHpmfgBO_vSUnQV7XkFPwTdH-x8AibW5M_pixkwuIoNt9rpiJ_HqJivyD-ySewElSeFEQCdFAFahlxq3i_yiwEGbGgjRcb3579MTaGWC3dsI3gzGSSv_UH-_ERNQkv1qJquh7zTbrOwQFcr3qwn0bcTv30rHqHs87OapRuhp2dotEGOH1JUIJkvJDIpVsqxwrlGI4PA_T5WxFAfl_RTtIh2J7PuR38hpO7GDlPBNkMtU_7EFruDDKs6piikh_dLQcFj40zsJIRHIuHQtmrqTGqrppaqJ27n2hgx6yz9k0k3WnfLT4ibGqEeyQP5UYAaHv9KXAGawOsGNadI4PAMfAz9HCQ4gY6GwGJwEu61I9DCUvk92EfhesW4_PrGwmUKCOhZ28-JVm00?></g></svg>