<svg xmlns="http://www.w3.org/2000/svg" xmlns:xlink="http://www.w3.org/1999/xlink" contentStyleType="text/css" data-diagram-type="ACTIVITY" height="893px" preserveAspectRatio="none" style="width:1209px;height:893px;background:#FFFFFF;" version="1.1" viewBox="0 0 1209 893" width="1209px" zoomAndPan="magnify"><?plantuml 1.2026.6?><defs/><g><g class="title" data-source-line="15"><text fill="#000000" font-family="sans-serif" font-size="14" font-weight="700" lengthAdjust="spacing" textLength="239.3604" x="484.2834" y="32.9951">cookbook-generator Workflow</text></g><ellipse cx="593.9636" cy="62.2969" fill="#222222" rx="10" ry="10" style="stroke:#222222;stroke-width:1;"/><path d="M696.031,89.1484 L696.031,105.2813 L676.031,109.2813 L696.031,113.2813 L696.031,129.4141 A0,0 0 0 0 696.031,129.4141 L955.2649,129.4141 A0,0 0 0 0 955.2649,129.4141 L955.2649,99.1484 L945.2649,89.1484 L696.031,89.1484 A0,0 0 0 0 696.031,89.1484" fill="#FFFFFF" style="stroke:#000000;stroke-width:0.5;"/><path d="M945.2649,89.1484 L945.2649,99.1484 L955.2649,99.1484 L945.2649,89.1484" fill="#FFFFFF" style="stroke:#000000;stroke-width:0.5;"/><text fill="#000000" font-family="sans-serif" font-size="13" lengthAdjust="spacing" textLength="167.0322" x="702.031" y="106.2153">topic / sources / audience</text><text fill="#000000" font-family="sans-serif" font-size="13" lengthAdjust="spacing" textLength="238.2339" x="702.031" y="121.3481">word count / formats / diagram tools</text><rect fill="#FFFFFF" height="33.9688" rx="12.5" ry="12.5" style="stroke:#000000;stroke-width:0.5;" width="164.1348" x="511.8962" y="92.2969"/><text fill="#000000" font-family="sans-serif" font-size="12" lengthAdjust="spacing" textLength="144.1348" x="521.8962" y="113.4355">Phase 0 Input gathering</text><path d="M677.4333,139.4141 L677.4333,163.1133 L657.4333,167.1133 L677.4333,171.1133 L677.4333,194.8125 A0,0 0 0 0 677.4333,194.8125 L860.8127,194.8125 A0,0 0 0 0 860.8127,194.8125 L860.8127,149.4141 L850.8127,139.4141 L677.4333,139.4141 A0,0 0 0 0 677.4333,139.4141" fill="#FFFFFF" style="stroke:#000000;stroke-width:0.5;"/><path d="M850.8127,139.4141 L850.8127,149.4141 L860.8127,149.4141 L850.8127,139.4141" fill="#FFFFFF" style="stroke:#000000;stroke-width:0.5;"/><text fill="#000000" font-family="sans-serif" font-size="13" lengthAdjust="spacing" textLength="143.7236" x="683.4333" y="156.481">URLs / GitHub / arxiv /</text><text fill="#000000" font-family="sans-serif" font-size="13" lengthAdjust="spacing" textLength="154.9209" x="683.4333" y="171.6138">PDF / EPUB / local / web</text><text fill="#000000" font-family="sans-serif" font-size="13" lengthAdjust="spacing" textLength="162.3794" x="683.4333" y="186.7466">-&gt; metadata/sources.md</text><rect fill="#FFFFFF" height="33.9688" rx="12.5" ry="12.5" style="stroke:#000000;stroke-width:0.5;" width="126.9395" x="530.4939" y="150.1289"/><text fill="#000000" font-family="sans-serif" font-size="12" lengthAdjust="spacing" textLength="106.9395" x="540.4939" y="171.2676">Phase 1 Research</text><path d="M693.0281,255.6641 L693.0281,271.7969 L673.0281,275.7969 L693.0281,279.7969 L693.0281,295.9297 A0,0 0 0 0 693.0281,295.9297 L870.9294,295.9297 A0,0 0 0 0 870.9294,295.9297 L870.9294,265.6641 L860.9294,255.6641 L693.0281,255.6641 A0,0 0 0 0 693.0281,255.6641" fill="#FFFFFF" style="stroke:#000000;stroke-width:0.5;"/><path d="M860.9294,255.6641 L860.9294,265.6641 L870.9294,265.6641 L860.9294,255.6641" fill="#FFFFFF" style="stroke:#000000;stroke-width:0.5;"/><text fill="#000000" font-family="sans-serif" font-size="13" lengthAdjust="spacing" textLength="116.3462" x="699.0281" y="272.731">big picture + TOC</text><text fill="#000000" font-family="sans-serif" font-size="13" lengthAdjust="spacing" textLength="156.9014" x="699.0281" y="287.8638">-&gt; metadata/outline.md</text><rect fill="#FFFFFF" height="33.9688" rx="12.5" ry="12.5" style="stroke:#000000;stroke-width:0.5;" width="158.1289" x="514.8992" y="258.8125"/><text fill="#000000" font-family="sans-serif" font-size="12" lengthAdjust="spacing" textLength="138.1289" x="524.8992" y="279.9512">Phase 2 Outline design</text><polygon fill="#FFFFFF" points="593.9636,214.8125,605.9636,226.8125,593.9636,238.8125,581.9636,226.8125,593.9636,214.8125" style="stroke:#000000;stroke-width:0.5;stroke-linejoin:miter;stroke-miterlimit:10;"/><polygon fill="#FFFFFF" points="530.5955,315.9297,657.3318,315.9297,669.3318,327.9297,657.3318,339.9297,530.5955,339.9297,518.5955,327.9297,530.5955,315.9297" style="stroke:#000000;stroke-width:0.5;stroke-linejoin:miter;stroke-miterlimit:10;"/><text fill="#000000" font-family="sans-serif" font-size="11" lengthAdjust="spacing" textLength="19.0083" x="597.9636" y="350.1401">yes</text><text fill="#000000" font-family="sans-serif" font-size="11" lengthAdjust="spacing" textLength="126.7363" x="530.5955" y="331.7378">User approves outline?</text><text fill="#000000" font-family="sans-serif" font-size="11" lengthAdjust="spacing" textLength="13.7017" x="669.3318" y="325.3354">no</text><path d="M689.3132,361.6401 L689.3132,385.3394 L669.3132,389.3394 L689.3132,393.3394 L689.3132,417.0386 A0,0 0 0 0 689.3132,417.0386 L963.6038,417.0386 A0,0 0 0 0 963.6038,417.0386 L963.6038,371.6401 L953.6038,361.6401 L689.3132,361.6401 A0,0 0 0 0 689.3132,361.6401" fill="#FFFFFF" style="stroke:#000000;stroke-width:0.5;"/><path d="M953.6038,361.6401 L953.6038,371.6401 L963.6038,371.6401 L953.6038,361.6401" fill="#FFFFFF" style="stroke:#000000;stroke-width:0.5;"/><text fill="#000000" font-family="sans-serif" font-size="13" lengthAdjust="spacing" textLength="145.3486" x="695.3132" y="378.707">one .mdx per chapter:</text><text fill="#000000" font-family="sans-serif" font-size="13" lengthAdjust="spacing" textLength="191.9531" x="695.3132" y="393.8398">intro / map / theory / practice</text><text fill="#000000" font-family="sans-serif" font-size="13" lengthAdjust="spacing" textLength="253.2905" x="695.3132" y="408.9727">Recipes / pitfalls / key points / see-also</text><rect fill="#FFFFFF" height="33.9688" rx="12.5" ry="12.5" style="stroke:#000000;stroke-width:0.5;" width="150.6992" x="518.614" y="372.355"/><text fill="#000000" font-family="sans-serif" font-size="12" lengthAdjust="spacing" textLength="130.6992" x="528.614" y="393.4937">Phase 3 Chapter MDX</text><rect fill="#FFFFFF" height="33.9688" rx="12.5" ry="12.5" style="stroke:#000000;stroke-width:0.5;" width="219.7813" x="484.073" y="492.749"/><text fill="#000000" font-family="sans-serif" font-size="12" lengthAdjust="spacing" textLength="199.7813" x="494.073" y="513.8877">Expand Recipes / source analysis</text><rect fill="#FFFFFF" height="33.9688" rx="12.5" ry="12.5" style="stroke:#000000;stroke-width:0.5;" width="184.4316" x="501.7478" y="555.8154"/><text fill="#000000" font-family="sans-serif" font-size="12" lengthAdjust="spacing" textLength="164.4316" x="511.7478" y="576.9541">Lookup tables / appendices</text><polygon fill="#FFFFFF" points="535.8215,437.0386,652.1057,437.0386,664.1057,449.0386,652.1057,461.0386,535.8215,461.0386,523.8215,449.0386,535.8215,437.0386" style="stroke:#000000;stroke-width:0.5;stroke-linejoin:miter;stroke-miterlimit:10;"/><text fill="#000000" font-family="sans-serif" font-size="11" lengthAdjust="spacing" textLength="19.0083" x="597.9636" y="471.249">yes</text><text fill="#000000" font-family="sans-serif" font-size="11" lengthAdjust="spacing" textLength="116.2842" x="535.8215" y="452.8467">Word count not met?</text><text fill="#000000" font-family="sans-serif" font-size="11" lengthAdjust="spacing" textLength="13.7017" x="510.1199" y="446.4443">no</text><rect fill="#FFFFFF" height="33.9688" rx="12.5" ry="12.5" style="stroke:#000000;stroke-width:0.5;" width="183.3301" x="502.2986" y="631.7842"/><text fill="#000000" font-family="sans-serif" font-size="12" lengthAdjust="spacing" textLength="163.3301" x="512.2986" y="652.9229">Phase 5 Format conversion</text><rect fill="#555555" height="6" rx="2.5" ry="2.5" style="stroke:#555555;stroke-width:1;" width="1173.9272" x="16" y="685.7529"/><rect fill="#FFFFFF" height="33.9688" rx="12.5" ry="12.5" style="stroke:#000000;stroke-width:0.5;" width="114.3594" x="28" y="711.7529"/><text fill="#000000" font-family="sans-serif" font-size="12" lengthAdjust="spacing" textLength="94.3594" x="38" y="732.8916">5a. MDX source</text><path d="M331.4727,716.1709 L331.4727,724.7373 L311.4727,728.7373 L331.4727,732.7373 L331.4727,741.3037 A0,0 0 0 0 331.4727,741.3037 L526.189,741.3037 A0,0 0 0 0 526.189,741.3037 L526.189,726.1709 L516.189,716.1709 L331.4727,716.1709 A0,0 0 0 0 331.4727,716.1709" fill="#FFFFFF" style="stroke:#000000;stroke-width:0.5;"/><path d="M516.189,716.1709 L516.189,726.1709 L526.189,726.1709 L516.189,716.1709" fill="#FFFFFF" style="stroke:#000000;stroke-width:0.5;"/><text fill="#000000" font-family="sans-serif" font-size="13" lengthAdjust="spacing" textLength="173.7163" x="337.4727" y="733.2378">xelatex two passes -&gt; PDF</text><rect fill="#FFFFFF" height="33.9688" rx="12.5" ry="12.5" style="stroke:#000000;stroke-width:0.5;" width="159.1133" x="152.3594" y="711.7529"/><text fill="#000000" font-family="sans-serif" font-size="12" lengthAdjust="spacing" textLength="139.1133" x="162.3594" y="732.8916">5b. ElegantBook LaTeX</text><path d="M681.9917,708.6045 L681.9917,724.7373 L661.9917,728.7373 L681.9917,732.7373 L681.9917,748.8701 A0,0 0 0 0 681.9917,748.8701 L840.9834,748.8701 A0,0 0 0 0 840.9834,748.8701 L840.9834,718.6045 L830.9834,708.6045 L681.9917,708.6045 A0,0 0 0 0 681.9917,708.6045" fill="#FFFFFF" style="stroke:#000000;stroke-width:0.5;"/><path d="M830.9834,708.6045 L830.9834,718.6045 L840.9834,718.6045 L830.9834,708.6045" fill="#FFFFFF" style="stroke:#000000;stroke-width:0.5;"/><text fill="#000000" font-family="sans-serif" font-size="13" lengthAdjust="spacing" textLength="91.2095" x="687.9917" y="725.6714">npm run build</text><text fill="#000000" font-family="sans-serif" font-size="13" lengthAdjust="spacing" textLength="137.9917" x="687.9917" y="740.8042">+ Docker verification</text><rect fill="#FFFFFF" height="33.9688" rx="12.5" ry="12.5" style="stroke:#000000;stroke-width:0.5;" width="107.8027" x="554.189" y="711.7529"/><text fill="#000000" font-family="sans-serif" font-size="12" lengthAdjust="spacing" textLength="87.8027" x="564.189" y="732.8916">5c. Nextra site</text><path d="M963.6982,708.6045 L963.6982,724.7373 L943.6982,728.7373 L963.6982,732.7373 L963.6982,748.8701 A0,0 0 0 0 963.6982,748.8701 L1177.9272,748.8701 A0,0 0 0 0 1177.9272,748.8701 L1177.9272,718.6045 L1167.9272,708.6045 L963.6982,708.6045 A0,0 0 0 0 963.6982,708.6045" fill="#FFFFFF" style="stroke:#000000;stroke-width:0.5;"/><path d="M1167.9272,708.6045 L1167.9272,718.6045 L1177.9272,718.6045 L1167.9272,708.6045" fill="#FFFFFF" style="stroke:#000000;stroke-width:0.5;"/><text fill="#000000" font-family="sans-serif" font-size="13" lengthAdjust="spacing" textLength="193.229" x="969.6982" y="725.6714">font subsetting + CSS rewrite</text><text fill="#000000" font-family="sans-serif" font-size="13" lengthAdjust="spacing" textLength="131.4346" x="969.6982" y="740.8042">+ Python packaging</text><rect fill="#FFFFFF" height="33.9688" rx="12.5" ry="12.5" style="stroke:#000000;stroke-width:0.5;" width="74.7148" x="868.9834" y="711.7529"/><text fill="#000000" font-family="sans-serif" font-size="12" lengthAdjust="spacing" textLength="54.7148" x="878.9834" y="732.8916">5d. EPUB</text><rect fill="#555555" height="6" rx="2.5" ry="2.5" style="stroke:#555555;stroke-width:1;" width="1173.9272" x="16" y="768.8701"/><path d="M674.4158,791.7217 L674.4158,807.8545 L654.4158,811.8545 L674.4158,815.8545 L674.4158,831.9873 A0,0 0 0 0 674.4158,831.9873 L861.4324,831.9873 A0,0 0 0 0 861.4324,831.9873 L861.4324,801.7217 L851.4324,791.7217 L674.4158,791.7217 A0,0 0 0 0 674.4158,791.7217" fill="#FFFFFF" style="stroke:#000000;stroke-width:0.5;"/><path d="M851.4324,791.7217 L851.4324,801.7217 L861.4324,801.7217 L851.4324,791.7217" fill="#FFFFFF" style="stroke:#000000;stroke-width:0.5;"/><text fill="#000000" font-family="sans-serif" font-size="13" lengthAdjust="spacing" textLength="115.1084" x="680.4158" y="808.7886">bilingual README</text><text fill="#000000" font-family="sans-serif" font-size="13" lengthAdjust="spacing" textLength="166.0166" x="680.4158" y="823.9214">+ links + statistics report</text><rect fill="#FFFFFF" height="33.9688" rx="12.5" ry="12.5" style="stroke:#000000;stroke-width:0.5;" width="120.9043" x="533.5115" y="794.8701"/><text fill="#000000" font-family="sans-serif" font-size="12" lengthAdjust="spacing" textLength="100.9043" x="543.5115" y="816.0088">Phase 6 Delivery</text><ellipse cx="593.9636" cy="862.9873" fill="none" rx="11" ry="11" style="stroke:#222222;stroke-width:1;"/><ellipse cx="593.9636" cy="862.9873" fill="#222222" rx="6" ry="6" style="stroke:#222222;stroke-width:1;"/><line style="stroke:#000000;stroke-width:0.75;" x1="593.9636" x2="593.9636" y1="72.2969" y2="92.2969"/><polygon fill="#000000" points="589.9636,82.2969,593.9636,92.2969,597.9636,82.2969,593.9636,86.2969" style="stroke:#000000;stroke-width:1;stroke-linejoin:miter;stroke-miterlimit:10;"/><line style="stroke:#000000;stroke-width:0.75;" x1="593.9636" x2="593.9636" y1="126.2656" y2="150.1289"/><polygon fill="#000000" points="589.9636,140.1289,593.9636,150.1289,597.9636,140.1289,593.9636,144.1289" style="stroke:#000000;stroke-width:1;stroke-linejoin:miter;stroke-miterlimit:10;"/><line style="stroke:#000000;stroke-width:0.75;" x1="593.9636" x2="593.9636" y1="238.8125" y2="258.8125"/><polygon fill="#000000" points="589.9636,248.8125,593.9636,258.8125,597.9636,248.8125,593.9636,252.8125" style="stroke:#000000;stroke-width:1;stroke-linejoin:miter;stroke-miterlimit:10;"/><line style="stroke:#000000;stroke-width:0.75;" x1="669.3318" x2="882.9294" y1="327.9297" y2="327.9297"/><polygon fill="#000000" points="878.9294,285.7969,882.9294,275.7969,886.9294,285.7969,882.9294,281.7969" style="stroke:#000000;stroke-width:0.75;stroke-linejoin:miter;stroke-miterlimit:10;"/><line style="stroke:#000000;stroke-width:0.75;" x1="882.9294" x2="882.9294" y1="226.8125" y2="327.9297"/><line style="stroke:#000000;stroke-width:0.75;" x1="882.9294" x2="605.9636" y1="226.8125" y2="226.8125"/><polygon fill="#000000" points="615.9636,222.8125,605.9636,226.8125,615.9636,230.8125,611.9636,226.8125" style="stroke:#000000;stroke-width:1;stroke-linejoin:miter;stroke-miterlimit:10;"/><line style="stroke:#000000;stroke-width:0.75;" x1="593.9636" x2="593.9636" y1="292.7813" y2="315.9297"/><polygon fill="#000000" points="589.9636,305.9297,593.9636,315.9297,597.9636,305.9297,593.9636,309.9297" style="stroke:#000000;stroke-width:1;stroke-linejoin:miter;stroke-miterlimit:10;"/><line style="stroke:#000000;stroke-width:0.75;" x1="593.9636" x2="593.9636" y1="184.0977" y2="214.8125"/><polygon fill="#000000" points="589.9636,204.8125,593.9636,214.8125,597.9636,204.8125,593.9636,208.8125" style="stroke:#000000;stroke-width:1;stroke-linejoin:miter;stroke-miterlimit:10;"/><line style="stroke:#000000;stroke-width:0.75;" x1="593.9636" x2="593.9636" y1="339.9297" y2="372.355"/><polygon fill="#000000" points="589.9636,362.355,593.9636,372.355,597.9636,362.355,593.9636,366.355" style="stroke:#000000;stroke-width:1;stroke-linejoin:miter;stroke-miterlimit:10;"/><line style="stroke:#000000;stroke-width:0.75;" x1="593.9636" x2="593.9636" y1="526.7178" y2="555.8154"/><polygon fill="#000000" points="589.9636,545.8154,593.9636,555.8154,597.9636,545.8154,593.9636,549.8154" style="stroke:#000000;stroke-width:1;stroke-linejoin:miter;stroke-miterlimit:10;"/><line style="stroke:#000000;stroke-width:0.75;" x1="593.9636" x2="593.9636" y1="461.0386" y2="492.749"/><polygon fill="#000000" points="589.9636,482.749,593.9636,492.749,597.9636,482.749,593.9636,486.749" style="stroke:#000000;stroke-width:1;stroke-linejoin:miter;stroke-miterlimit:10;"/><line style="stroke:#000000;stroke-width:0.75;" x1="593.9636" x2="593.9636" y1="589.7842" y2="599.7842"/><line style="stroke:#000000;stroke-width:0.75;" x1="593.9636" x2="715.8542" y1="599.7842" y2="599.7842"/><polygon fill="#000000" points="711.8542,535.8154,715.8542,525.8154,719.8542,535.8154,715.8542,531.8154" style="stroke:#000000;stroke-width:0.75;stroke-linejoin:miter;stroke-miterlimit:10;"/><line style="stroke:#000000;stroke-width:0.75;" x1="715.8542" x2="715.8542" y1="449.0386" y2="599.7842"/><line style="stroke:#000000;stroke-width:0.75;" x1="715.8542" x2="664.1057" y1="449.0386" y2="449.0386"/><polygon fill="#000000" points="674.1057,445.0386,664.1057,449.0386,674.1057,453.0386,670.1057,449.0386" style="stroke:#000000;stroke-width:1;stroke-linejoin:miter;stroke-miterlimit:10;"/><line style="stroke:#000000;stroke-width:0.75;" x1="523.8215" x2="472.073" y1="449.0386" y2="449.0386"/><polygon fill="#000000" points="468.073,521.8154,472.073,531.8154,476.073,521.8154,472.073,525.8154" style="stroke:#000000;stroke-width:0.75;stroke-linejoin:miter;stroke-miterlimit:10;"/><line style="stroke:#000000;stroke-width:0.75;" x1="472.073" x2="472.073" y1="449.0386" y2="611.7842"/><line style="stroke:#000000;stroke-width:0.75;" x1="472.073" x2="593.9636" y1="611.7842" y2="611.7842"/><line style="stroke:#000000;stroke-width:0.75;" x1="593.9636" x2="593.9636" y1="611.7842" y2="631.7842"/><polygon fill="#000000" points="589.9636,621.7842,593.9636,631.7842,597.9636,621.7842,593.9636,625.7842" style="stroke:#000000;stroke-width:1;stroke-linejoin:miter;stroke-miterlimit:10;"/><line style="stroke:#000000;stroke-width:0.75;" x1="593.9636" x2="593.9636" y1="406.3237" y2="437.0386"/><polygon fill="#000000" points="589.9636,427.0386,593.9636,437.0386,597.9636,427.0386,593.9636,431.0386" style="stroke:#000000;stroke-width:1;stroke-linejoin:miter;stroke-miterlimit:10;"/><line style="stroke:#000000;stroke-width:0.75;" x1="85.1797" x2="85.1797" y1="691.7529" y2="711.7529"/><polygon fill="#000000" points="81.1797,701.7529,85.1797,711.7529,89.1797,701.7529,85.1797,705.7529" style="stroke:#000000;stroke-width:1;stroke-linejoin:miter;stroke-miterlimit:10;"/><line style="stroke:#000000;stroke-width:0.75;" x1="231.916" x2="231.916" y1="691.7529" y2="711.7529"/><polygon fill="#000000" points="227.916,701.7529,231.916,711.7529,235.916,701.7529,231.916,705.7529" style="stroke:#000000;stroke-width:1;stroke-linejoin:miter;stroke-miterlimit:10;"/><line style="stroke:#000000;stroke-width:0.75;" x1="608.0903" x2="608.0903" y1="691.7529" y2="711.7529"/><polygon fill="#000000" points="604.0903,701.7529,608.0903,711.7529,612.0903,701.7529,608.0903,705.7529" style="stroke:#000000;stroke-width:1;stroke-linejoin:miter;stroke-miterlimit:10;"/><line style="stroke:#000000;stroke-width:0.75;" x1="906.3408" x2="906.3408" y1="691.7529" y2="711.7529"/><polygon fill="#000000" points="902.3408,701.7529,906.3408,711.7529,910.3408,701.7529,906.3408,705.7529" style="stroke:#000000;stroke-width:1;stroke-linejoin:miter;stroke-miterlimit:10;"/><line style="stroke:#000000;stroke-width:0.75;" x1="85.1797" x2="85.1797" y1="745.7217" y2="768.8701"/><polygon fill="#000000" points="81.1797,758.8701,85.1797,768.8701,89.1797,758.8701,85.1797,762.8701" style="stroke:#000000;stroke-width:1;stroke-linejoin:miter;stroke-miterlimit:10;"/><line style="stroke:#000000;stroke-width:0.75;" x1="231.916" x2="231.916" y1="745.7217" y2="768.8701"/><polygon fill="#000000" points="227.916,758.8701,231.916,768.8701,235.916,758.8701,231.916,762.8701" style="stroke:#000000;stroke-width:1;stroke-linejoin:miter;stroke-miterlimit:10;"/><line style="stroke:#000000;stroke-width:0.75;" x1="608.0903" x2="608.0903" y1="745.7217" y2="768.8701"/><polygon fill="#000000" points="604.0903,758.8701,608.0903,768.8701,612.0903,758.8701,608.0903,762.8701" style="stroke:#000000;stroke-width:1;stroke-linejoin:miter;stroke-miterlimit:10;"/><line style="stroke:#000000;stroke-width:0.75;" x1="906.3408" x2="906.3408" y1="745.7217" y2="768.8701"/><polygon fill="#000000" points="902.3408,758.8701,906.3408,768.8701,910.3408,758.8701,906.3408,762.8701" style="stroke:#000000;stroke-width:1;stroke-linejoin:miter;stroke-miterlimit:10;"/><line style="stroke:#000000;stroke-width:0.75;" x1="593.9636" x2="593.9636" y1="665.7529" y2="685.7529"/><polygon fill="#000000" points="589.9636,675.7529,593.9636,685.7529,597.9636,675.7529,593.9636,679.7529" style="stroke:#000000;stroke-width:1;stroke-linejoin:miter;stroke-miterlimit:10;"/><line style="stroke:#000000;stroke-width:0.75;" x1="593.9636" x2="593.9636" y1="774.8701" y2="794.8701"/><polygon fill="#000000" points="589.9636,784.8701,593.9636,794.8701,597.9636,784.8701,593.9636,788.8701" style="stroke:#000000;stroke-width:1;stroke-linejoin:miter;stroke-miterlimit:10;"/><line style="stroke:#000000;stroke-width:0.75;" x1="593.9636" x2="593.9636" y1="828.8389" y2="851.9873"/><polygon fill="#000000" points="589.9636,841.9873,593.9636,851.9873,597.9636,841.9873,593.9636,845.9873" style="stroke:#000000;stroke-width:1;stroke-linejoin:miter;stroke-miterlimit:10;"/><?plantuml-src ZLHXJzj84FtkNp7IVG4X0ks9EubAhGe9ToVH5gKW-dLiJ-oLdPtLxfWa_xxFZe5SHA6M4gztPjwRUJExgN4-SEGbBTLhKKTT2bdi94jFbbHpgIldArfmctOjEHTD5RNpvQMs6kcFg-7PyIXbmLrhL-fjT3aTdXsNhsfoyIRGuAMnbFWhdC-5kGTdcxUndZn_2s_g6DgKlm_x6F0wUeowUjLuMxkYyP8IdKx-Fdk1PxvD9dg9zEuqoynPArIeDZb-nvN0m0Q2UutDejLLbYNZQDdvJSr9w9J-yw4pgjXgYUZlXyn3POgkgYqZCWske1DAsiL24bRSbKvy8J2kK1suEc_ONsXSilKUfUEgpz5KsvI9Bwc7V6HyHtD9mh6ezwZkvjTzz3_E_ktodYYktGETm78plSBtxERk0gzM2sxnNaaEq_57MefnoSOdOuwJPVbC6YK8z-WZ-tlwrbdhl60gawly1vZ-bmLHxYf2qTP5eIEw_NOvxEuIwHQY9oBQew9LxT21Wxk4Zd08KHyWsnZnwP1SeWElXtq87Mma7JxgyYTTrXmCKL-cF_QaKUGBjZK5c8kjspdsdRUeq6B90V_eeCOD5Y4oncDeqLmA5uQ-1MSukcs_R6H3GH7SVoIHOnnfVTPihE3-kRjzigX-J7_86ehEre4HyqonRG2nvtQJNEgrFR_667Q1ZFDsEpuXW0Z9mOp5o0L57dKuewjXaa3j7oGcfsWIXglfqSvuqiipCcttYIjsVh3c4vgrKh6t2z3IDT_AZnSwl9QMJTPaAwN0AI4nj1TJjjlEFUXYGbzbRP4fEPCNG7rOKkmyvPrhos7dYAPQDEWOod0BLx2XbbSeoiamuozWBt1rKkho96Rz7Nn4bz-_KvHLH2uZryt6QlMefsYuWjCkKRyO91mr_ekcqZgajTaRjDnXJAiE1sm--ppzCijwP6mr2MzS7EOI1Yk1EYWkaIU2X7lY9m00?></g></svg>