<svg xmlns="http://www.w3.org/2000/svg" xmlns:xlink="http://www.w3.org/1999/xlink" contentStyleType="text/css" data-diagram-type="ACTIVITY" height="893px" preserveAspectRatio="none" style="width:1006px;height:893px;background:#FFFFFF;" version="1.1" viewBox="0 0 1006 893" width="1006px" zoomAndPan="magnify"><?plantuml 1.2026.6?><defs/><g><g class="title" data-source-line="16"><text fill="#000000" font-family="'WenQuanYi Micro Hei'" font-size="14" font-weight="700" lengthAdjust="spacing" textLength="198.249" x="403.1099" y="32.9951">cookbook-generator &#24037;&#20316;&#27969;&#31243;</text></g><ellipse cx="492.2344" cy="62.2969" fill="#222222" rx="10" ry="10" style="stroke:#222222;stroke-width:1;"/><path d="M551.4697,89.1484 L551.4697,105.2813 L531.4697,109.2813 L551.4697,113.2813 L551.4697,129.4141 A0,0 0 0 0 551.4697,129.4141 L660.1689,129.4141 A0,0 0 0 0 660.1689,129.4141 L660.1689,99.1484 L650.1689,89.1484 L551.4697,89.1484 A0,0 0 0 0 551.4697,89.1484" fill="#FFFFFF" style="stroke:#000000;stroke-width:0.5;"/><path d="M650.1689,89.1484 L650.1689,99.1484 L660.1689,99.1484 L650.1689,89.1484" fill="#FFFFFF" style="stroke:#000000;stroke-width:0.5;"/><text fill="#000000" font-family="'WenQuanYi Micro Hei'" font-size="13" lengthAdjust="spacing" textLength="72.0967" x="557.4697" y="106.2153">&#20027;&#39064; / &#36164;&#26009; / &#35835;&#32773;</text><text fill="#000000" font-family="'WenQuanYi Micro Hei'" font-size="13" lengthAdjust="spacing" textLength="87.6992" x="557.4697" y="121.3481">&#23383;&#25968; / &#26684;&#24335; / &#22270;&#34920;&#20559;&#22909;</text><rect fill="#FFFFFF" height="33.9688" rx="12.5" ry="12.5" style="stroke:#000000;stroke-width:0.5;" width="78.4707" x="452.999" y="92.2969"/><text fill="#000000" font-family="'WenQuanYi Micro Hei'" font-size="12" lengthAdjust="spacing" textLength="58.4707" x="462.999" y="113.4355">&#38454;&#27573; 0 &#36755;&#20837;&#35782;&#21035;</text><path d="M551.4697,139.4141 L551.4697,163.1133 L531.4697,167.1133 L551.4697,171.1133 L551.4697,194.8125 A0,0 0 0 0 551.4697,194.8125 L734.8491,194.8125 A0,0 0 0 0 734.8491,194.8125 L734.8491,149.4141 L724.8491,139.4141 L551.4697,139.4141 A0,0 0 0 0 551.4697,139.4141" fill="#FFFFFF" style="stroke:#000000;stroke-width:0.5;"/><path d="M724.8491,139.4141 L724.8491,149.4141 L734.8491,149.4141 L724.8491,139.4141" fill="#FFFFFF" style="stroke:#000000;stroke-width:0.5;"/><text fill="#000000" font-family="'WenQuanYi Micro Hei'" font-size="13" lengthAdjust="spacing" textLength="136.9507" x="557.4697" y="156.481">URL / GitHub / arxiv /</text><text fill="#000000" font-family="'WenQuanYi Micro Hei'" font-size="13" lengthAdjust="spacing" textLength="128.9526" x="557.4697" y="171.6138">PDF / EPUB / &#26412;&#22320; / &#32593;&#32476;</text><text fill="#000000" font-family="'WenQuanYi Micro Hei'" font-size="13" lengthAdjust="spacing" textLength="162.3794" x="557.4697" y="186.7466">-&gt; metadata/sources.md</text><rect fill="#FFFFFF" height="33.9688" rx="12.5" ry="12.5" style="stroke:#000000;stroke-width:0.5;" width="78.4707" x="452.999" y="150.1289"/><text fill="#000000" font-family="'WenQuanYi Micro Hei'" font-size="12" lengthAdjust="spacing" textLength="58.4707" x="462.999" y="171.2676">&#38454;&#27573; 1 &#36164;&#26009;&#37319;&#38598;</text><path d="M551.4697,255.6641 L551.4697,271.7969 L531.4697,275.7969 L551.4697,279.7969 L551.4697,295.9297 A0,0 0 0 0 551.4697,295.9297 L729.3711,295.9297 A0,0 0 0 0 729.3711,295.9297 L729.3711,265.6641 L719.3711,255.6641 L551.4697,255.6641 A0,0 0 0 0 551.4697,255.6641" fill="#FFFFFF" style="stroke:#000000;stroke-width:0.5;"/><path d="M719.3711,255.6641 L719.3711,265.6641 L729.3711,265.6641 L719.3711,255.6641" fill="#FFFFFF" style="stroke:#000000;stroke-width:0.5;"/><text fill="#000000" font-family="'WenQuanYi Micro Hei'" font-size="13" lengthAdjust="spacing" textLength="73.7661" x="557.4697" y="272.731">&#20840;&#26223;&#22270; + &#31456;&#33410;&#30446;&#24405;</text><text fill="#000000" font-family="'WenQuanYi Micro Hei'" font-size="13" lengthAdjust="spacing" textLength="156.9014" x="557.4697" y="287.8638">-&gt; metadata/outline.md</text><rect fill="#FFFFFF" height="33.9688" rx="12.5" ry="12.5" style="stroke:#000000;stroke-width:0.5;" width="78.4707" x="452.999" y="258.8125"/><text fill="#000000" font-family="'WenQuanYi Micro Hei'" font-size="12" lengthAdjust="spacing" textLength="58.4707" x="462.999" y="279.9512">&#38454;&#27573; 2 &#22823;&#32434;&#35774;&#35745;</text><polygon fill="#FFFFFF" points="492.2344,214.8125,504.2344,226.8125,492.2344,238.8125,480.2344,226.8125,492.2344,214.8125" style="stroke:#000000;stroke-width:0.5;stroke-linejoin:miter;stroke-miterlimit:10;"/><polygon fill="#FFFFFF" points="469.512,315.9297,514.9568,315.9297,526.9568,327.9297,514.9568,339.9297,469.512,339.9297,457.512,327.9297,469.512,315.9297" style="stroke:#000000;stroke-width:0.5;stroke-linejoin:miter;stroke-miterlimit:10;"/><text fill="#000000" font-family="'WenQuanYi Micro Hei'" font-size="11" lengthAdjust="spacing" textLength="6.6011" x="496.2344" y="350.1401">&#26159;</text><text fill="#000000" font-family="'WenQuanYi Micro Hei'" font-size="11" lengthAdjust="spacing" textLength="45.4448" x="469.512" y="331.7378">&#29992;&#25143;&#30830;&#35748;&#22823;&#32434;?</text><text fill="#000000" font-family="'WenQuanYi Micro Hei'" font-size="11" lengthAdjust="spacing" textLength="6.6011" x="526.9568" y="325.3354">&#21542;</text><path d="M560.083,361.6401 L560.083,385.3394 L540.083,389.3394 L560.083,393.3394 L560.083,417.0386 A0,0 0 0 0 560.083,417.0386 L732.2397,417.0386 A0,0 0 0 0 732.2397,417.0386 L732.2397,371.6401 L722.2397,361.6401 L560.083,361.6401 A0,0 0 0 0 560.083,361.6401" fill="#FFFFFF" style="stroke:#000000;stroke-width:0.5;"/><path d="M722.2397,361.6401 L722.2397,371.6401 L732.2397,371.6401 L722.2397,361.6401" fill="#FFFFFF" style="stroke:#000000;stroke-width:0.5;"/><text fill="#000000" font-family="'WenQuanYi Micro Hei'" font-size="13" lengthAdjust="spacing" textLength="60.2773" x="566.083" y="378.707">&#27599;&#31456; .mdx&#65306;</text><text fill="#000000" font-family="'WenQuanYi Micro Hei'" font-size="13" lengthAdjust="spacing" textLength="100.3438" x="566.083" y="393.8398">&#24341;&#20837; / &#22320;&#22270; / &#21407;&#29702; / &#23454;&#29992;</text><text fill="#000000" font-family="'WenQuanYi Micro Hei'" font-size="13" lengthAdjust="spacing" textLength="151.1567" x="566.083" y="408.9727">Recipes / &#38519;&#38449; / &#35201;&#28857; / &#24310;&#20280;&#38405;&#35835;</text><rect fill="#FFFFFF" height="33.9688" rx="12.5" ry="12.5" style="stroke:#000000;stroke-width:0.5;" width="95.6973" x="444.3857" y="372.355"/><text fill="#000000" font-family="'WenQuanYi Micro Hei'" font-size="12" lengthAdjust="spacing" textLength="75.6973" x="454.3857" y="393.4937">&#38454;&#27573; 3 &#36880;&#31456; MDX</text><rect fill="#FFFFFF" height="33.9688" rx="12.5" ry="12.5" style="stroke:#000000;stroke-width:0.5;" width="125.5977" x="429.4355" y="492.749"/><text fill="#000000" font-family="'WenQuanYi Micro Hei'" font-size="12" lengthAdjust="spacing" textLength="105.5977" x="439.4355" y="513.8877">&#25193;&#20889; Recipes / &#28304;&#30721;&#35299;&#26512;</text><rect fill="#FFFFFF" height="33.9688" rx="12.5" ry="12.5" style="stroke:#000000;stroke-width:0.5;" width="67.6777" x="458.3955" y="555.8154"/><text fill="#000000" font-family="'WenQuanYi Micro Hei'" font-size="12" lengthAdjust="spacing" textLength="47.6777" x="468.3955" y="576.9541">&#36895;&#26597;&#34920; / &#38468;&#24405;</text><polygon fill="#FFFFFF" points="472.8125,437.0386,511.6563,437.0386,523.6563,449.0386,511.6563,461.0386,472.8125,461.0386,460.8125,449.0386,472.8125,437.0386" style="stroke:#000000;stroke-width:0.5;stroke-linejoin:miter;stroke-miterlimit:10;"/><text fill="#000000" font-family="'WenQuanYi Micro Hei'" font-size="11" lengthAdjust="spacing" textLength="6.6011" x="496.2344" y="471.249">&#26159;</text><text fill="#000000" font-family="'WenQuanYi Micro Hei'" font-size="11" lengthAdjust="spacing" textLength="38.8438" x="472.8125" y="452.8467">&#23383;&#25968;&#26410;&#36798;&#26631;?</text><text fill="#000000" font-family="'WenQuanYi Micro Hei'" font-size="11" lengthAdjust="spacing" textLength="6.6011" x="454.2114" y="446.4443">&#21542;</text><rect fill="#FFFFFF" height="33.9688" rx="12.5" ry="12.5" style="stroke:#000000;stroke-width:0.5;" width="85.6719" x="449.3984" y="631.7842"/><text fill="#000000" font-family="'WenQuanYi Micro Hei'" font-size="12" lengthAdjust="spacing" textLength="65.6719" x="459.3984" y="652.9229">&#38454;&#27573; 5 &#22810;&#26684;&#24335;&#36716;&#25442;</text><rect fill="#555555" height="6" rx="2.5" ry="2.5" style="stroke:#555555;stroke-width:1;" width="970.4688" x="16" y="685.7529"/><rect fill="#FFFFFF" height="33.9688" rx="12.5" ry="12.5" style="stroke:#000000;stroke-width:0.5;" width="95.8496" x="28" y="711.7529"/><text fill="#000000" font-family="'WenQuanYi Micro Hei'" font-size="12" lengthAdjust="spacing" textLength="75.8496" x="38" y="732.8916">5a. MDX &#28304;&#26684;&#24335;</text><path d="M312.9629,716.1709 L312.9629,724.7373 L292.9629,728.7373 L312.9629,732.7373 L312.9629,741.3037 A0,0 0 0 0 312.9629,741.3037 L466.5337,741.3037 A0,0 0 0 0 466.5337,741.3037 L466.5337,726.1709 L456.5337,716.1709 L312.9629,716.1709 A0,0 0 0 0 312.9629,716.1709" fill="#FFFFFF" style="stroke:#000000;stroke-width:0.5;"/><path d="M456.5337,716.1709 L456.5337,726.1709 L466.5337,726.1709 L456.5337,716.1709" fill="#FFFFFF" style="stroke:#000000;stroke-width:0.5;"/><text fill="#000000" font-family="'WenQuanYi Micro Hei'" font-size="13" lengthAdjust="spacing" textLength="132.5708" x="318.9629" y="733.2378">xelatex &#20004;&#36941;&#32534;&#35793; -&gt; PDF</text><rect fill="#FFFFFF" height="33.9688" rx="12.5" ry="12.5" style="stroke:#000000;stroke-width:0.5;" width="159.1133" x="133.8496" y="711.7529"/><text fill="#000000" font-family="'WenQuanYi Micro Hei'" font-size="12" lengthAdjust="spacing" textLength="139.1133" x="143.8496" y="732.8916">5b. ElegantBook LaTeX</text><path d="M615.0649,708.6045 L615.0649,724.7373 L595.0649,728.7373 L615.0649,732.7373 L615.0649,748.8701 A0,0 0 0 0 615.0649,748.8701 L727.2744,748.8701 A0,0 0 0 0 727.2744,748.8701 L727.2744,718.6045 L717.2744,708.6045 L615.0649,708.6045 A0,0 0 0 0 615.0649,708.6045" fill="#FFFFFF" style="stroke:#000000;stroke-width:0.5;"/><path d="M717.2744,708.6045 L717.2744,718.6045 L727.2744,718.6045 L717.2744,708.6045" fill="#FFFFFF" style="stroke:#000000;stroke-width:0.5;"/><text fill="#000000" font-family="'WenQuanYi Micro Hei'" font-size="13" lengthAdjust="spacing" textLength="91.2095" x="621.0649" y="725.6714">npm run build</text><text fill="#000000" font-family="'WenQuanYi Micro Hei'" font-size="13" lengthAdjust="spacing" textLength="80.7422" x="621.0649" y="740.8042">+ Docker &#39564;&#35777;</text><rect fill="#FFFFFF" height="33.9688" rx="12.5" ry="12.5" style="stroke:#000000;stroke-width:0.5;" width="100.5313" x="494.5337" y="711.7529"/><text fill="#000000" font-family="'WenQuanYi Micro Hei'" font-size="12" lengthAdjust="spacing" textLength="80.5313" x="504.5337" y="732.8916">5c. Nextra &#32593;&#31449;</text><path d="M849.9893,708.6045 L849.9893,724.7373 L829.9893,728.7373 L849.9893,732.7373 L849.9893,748.8701 A0,0 0 0 0 849.9893,748.8701 L974.4688,748.8701 A0,0 0 0 0 974.4688,748.8701 L974.4688,718.6045 L964.4688,708.6045 L849.9893,708.6045 A0,0 0 0 0 849.9893,708.6045" fill="#FFFFFF" style="stroke:#000000;stroke-width:0.5;"/><path d="M964.4688,708.6045 L964.4688,718.6045 L974.4688,718.6045 L964.4688,708.6045" fill="#FFFFFF" style="stroke:#000000;stroke-width:0.5;"/><text fill="#000000" font-family="'WenQuanYi Micro Hei'" font-size="13" lengthAdjust="spacing" textLength="103.4795" x="855.9893" y="725.6714">&#23383;&#20307;&#23376;&#38598;&#21270; + CSS &#37325;&#20889;</text><text fill="#000000" font-family="'WenQuanYi Micro Hei'" font-size="13" lengthAdjust="spacing" textLength="79.8218" x="855.9893" y="740.8042">+ Python &#25171;&#21253;</text><rect fill="#FFFFFF" height="33.9688" rx="12.5" ry="12.5" style="stroke:#000000;stroke-width:0.5;" width="74.7148" x="755.2744" y="711.7529"/><text fill="#000000" font-family="'WenQuanYi Micro Hei'" font-size="12" lengthAdjust="spacing" textLength="54.7148" x="765.2744" y="732.8916">5d. EPUB</text><rect fill="#555555" height="6" rx="2.5" ry="2.5" style="stroke:#555555;stroke-width:1;" width="970.4688" x="16" y="768.8701"/><path d="M551.4697,791.7217 L551.4697,807.8545 L531.4697,811.8545 L551.4697,815.8545 L551.4697,831.9873 A0,0 0 0 0 551.4697,831.9873 L655.5859,831.9873 A0,0 0 0 0 655.5859,831.9873 L655.5859,801.7217 L645.5859,791.7217 L551.4697,791.7217 A0,0 0 0 0 551.4697,791.7217" fill="#FFFFFF" style="stroke:#000000;stroke-width:0.5;"/><path d="M645.5859,791.7217 L645.5859,801.7217 L655.5859,801.7217 L645.5859,791.7217" fill="#FFFFFF" style="stroke:#000000;stroke-width:0.5;"/><text fill="#000000" font-family="'WenQuanYi Micro Hei'" font-size="13" lengthAdjust="spacing" textLength="83.1162" x="557.4697" y="808.7886">&#20013;&#33521;&#25991; README</text><text fill="#000000" font-family="'WenQuanYi Micro Hei'" font-size="13" lengthAdjust="spacing" textLength="80.9897" x="557.4697" y="823.9214">+ &#38142;&#25509; + &#32479;&#35745;&#25253;&#21578;</text><rect fill="#FFFFFF" height="33.9688" rx="12.5" ry="12.5" style="stroke:#000000;stroke-width:0.5;" width="78.4707" x="452.999" y="794.8701"/><text fill="#000000" font-family="'WenQuanYi Micro Hei'" font-size="12" lengthAdjust="spacing" textLength="58.4707" x="462.999" y="816.0088">&#38454;&#27573; 6 &#26368;&#32456;&#20132;&#20184;</text><ellipse cx="492.2344" cy="862.9873" fill="none" rx="11" ry="11" style="stroke:#222222;stroke-width:1;"/><ellipse cx="492.2344" cy="862.9873" fill="#222222" rx="6" ry="6" style="stroke:#222222;stroke-width:1;"/><line style="stroke:#000000;stroke-width:0.75;" x1="492.2344" x2="492.2344" y1="72.2969" y2="92.2969"/><polygon fill="#000000" points="488.2344,82.2969,492.2344,92.2969,496.2344,82.2969,492.2344,86.2969" style="stroke:#000000;stroke-width:1;stroke-linejoin:miter;stroke-miterlimit:10;"/><line style="stroke:#000000;stroke-width:0.75;" x1="492.2344" x2="492.2344" y1="126.2656" y2="150.1289"/><polygon fill="#000000" points="488.2344,140.1289,492.2344,150.1289,496.2344,140.1289,492.2344,144.1289" style="stroke:#000000;stroke-width:1;stroke-linejoin:miter;stroke-miterlimit:10;"/><line style="stroke:#000000;stroke-width:0.75;" x1="492.2344" x2="492.2344" y1="238.8125" y2="258.8125"/><polygon fill="#000000" points="488.2344,248.8125,492.2344,258.8125,496.2344,248.8125,492.2344,252.8125" style="stroke:#000000;stroke-width:1;stroke-linejoin:miter;stroke-miterlimit:10;"/><line style="stroke:#000000;stroke-width:0.75;" x1="526.9568" x2="741.3711" y1="327.9297" y2="327.9297"/><polygon fill="#000000" points="737.3711,285.7969,741.3711,275.7969,745.3711,285.7969,741.3711,281.7969" style="stroke:#000000;stroke-width:0.75;stroke-linejoin:miter;stroke-miterlimit:10;"/><line style="stroke:#000000;stroke-width:0.75;" x1="741.3711" x2="741.3711" y1="226.8125" y2="327.9297"/><line style="stroke:#000000;stroke-width:0.75;" x1="741.3711" x2="504.2344" y1="226.8125" y2="226.8125"/><polygon fill="#000000" points="514.2344,222.8125,504.2344,226.8125,514.2344,230.8125,510.2344,226.8125" style="stroke:#000000;stroke-width:1;stroke-linejoin:miter;stroke-miterlimit:10;"/><line style="stroke:#000000;stroke-width:0.75;" x1="492.2344" x2="492.2344" y1="292.7813" y2="315.9297"/><polygon fill="#000000" points="488.2344,305.9297,492.2344,315.9297,496.2344,305.9297,492.2344,309.9297" style="stroke:#000000;stroke-width:1;stroke-linejoin:miter;stroke-miterlimit:10;"/><line style="stroke:#000000;stroke-width:0.75;" x1="492.2344" x2="492.2344" y1="184.0977" y2="214.8125"/><polygon fill="#000000" points="488.2344,204.8125,492.2344,214.8125,496.2344,204.8125,492.2344,208.8125" style="stroke:#000000;stroke-width:1;stroke-linejoin:miter;stroke-miterlimit:10;"/><line style="stroke:#000000;stroke-width:0.75;" x1="492.2344" x2="492.2344" y1="339.9297" y2="372.355"/><polygon fill="#000000" points="488.2344,362.355,492.2344,372.355,496.2344,362.355,492.2344,366.355" style="stroke:#000000;stroke-width:1;stroke-linejoin:miter;stroke-miterlimit:10;"/><line style="stroke:#000000;stroke-width:0.75;" x1="492.2344" x2="492.2344" y1="526.7178" y2="555.8154"/><polygon fill="#000000" points="488.2344,545.8154,492.2344,555.8154,496.2344,545.8154,492.2344,549.8154" style="stroke:#000000;stroke-width:1;stroke-linejoin:miter;stroke-miterlimit:10;"/><line style="stroke:#000000;stroke-width:0.75;" x1="492.2344" x2="492.2344" y1="461.0386" y2="492.749"/><polygon fill="#000000" points="488.2344,482.749,492.2344,492.749,496.2344,482.749,492.2344,486.749" style="stroke:#000000;stroke-width:1;stroke-linejoin:miter;stroke-miterlimit:10;"/><line style="stroke:#000000;stroke-width:0.75;" x1="492.2344" x2="492.2344" y1="589.7842" y2="599.7842"/><line style="stroke:#000000;stroke-width:0.75;" x1="492.2344" x2="567.0332" y1="599.7842" y2="599.7842"/><polygon fill="#000000" points="563.0332,535.8154,567.0332,525.8154,571.0332,535.8154,567.0332,531.8154" style="stroke:#000000;stroke-width:0.75;stroke-linejoin:miter;stroke-miterlimit:10;"/><line style="stroke:#000000;stroke-width:0.75;" x1="567.0332" x2="567.0332" y1="449.0386" y2="599.7842"/><line style="stroke:#000000;stroke-width:0.75;" x1="567.0332" x2="523.6563" y1="449.0386" y2="449.0386"/><polygon fill="#000000" points="533.6563,445.0386,523.6563,449.0386,533.6563,453.0386,529.6563,449.0386" style="stroke:#000000;stroke-width:1;stroke-linejoin:miter;stroke-miterlimit:10;"/><line style="stroke:#000000;stroke-width:0.75;" x1="460.8125" x2="417.4355" y1="449.0386" y2="449.0386"/><polygon fill="#000000" points="413.4355,521.8154,417.4355,531.8154,421.4355,521.8154,417.4355,525.8154" style="stroke:#000000;stroke-width:0.75;stroke-linejoin:miter;stroke-miterlimit:10;"/><line style="stroke:#000000;stroke-width:0.75;" x1="417.4355" x2="417.4355" y1="449.0386" y2="611.7842"/><line style="stroke:#000000;stroke-width:0.75;" x1="417.4355" x2="492.2344" y1="611.7842" y2="611.7842"/><line style="stroke:#000000;stroke-width:0.75;" x1="492.2344" x2="492.2344" y1="611.7842" y2="631.7842"/><polygon fill="#000000" points="488.2344,621.7842,492.2344,631.7842,496.2344,621.7842,492.2344,625.7842" style="stroke:#000000;stroke-width:1;stroke-linejoin:miter;stroke-miterlimit:10;"/><line style="stroke:#000000;stroke-width:0.75;" x1="492.2344" x2="492.2344" y1="406.3237" y2="437.0386"/><polygon fill="#000000" points="488.2344,427.0386,492.2344,437.0386,496.2344,427.0386,492.2344,431.0386" style="stroke:#000000;stroke-width:1;stroke-linejoin:miter;stroke-miterlimit:10;"/><line style="stroke:#000000;stroke-width:0.75;" x1="75.9248" x2="75.9248" y1="691.7529" y2="711.7529"/><polygon fill="#000000" points="71.9248,701.7529,75.9248,711.7529,79.9248,701.7529,75.9248,705.7529" style="stroke:#000000;stroke-width:1;stroke-linejoin:miter;stroke-miterlimit:10;"/><line style="stroke:#000000;stroke-width:0.75;" x1="213.4063" x2="213.4063" y1="691.7529" y2="711.7529"/><polygon fill="#000000" points="209.4063,701.7529,213.4063,711.7529,217.4063,701.7529,213.4063,705.7529" style="stroke:#000000;stroke-width:1;stroke-linejoin:miter;stroke-miterlimit:10;"/><line style="stroke:#000000;stroke-width:0.75;" x1="544.7993" x2="544.7993" y1="691.7529" y2="711.7529"/><polygon fill="#000000" points="540.7993,701.7529,544.7993,711.7529,548.7993,701.7529,544.7993,705.7529" style="stroke:#000000;stroke-width:1;stroke-linejoin:miter;stroke-miterlimit:10;"/><line style="stroke:#000000;stroke-width:0.75;" x1="792.6318" x2="792.6318" y1="691.7529" y2="711.7529"/><polygon fill="#000000" points="788.6318,701.7529,792.6318,711.7529,796.6318,701.7529,792.6318,705.7529" style="stroke:#000000;stroke-width:1;stroke-linejoin:miter;stroke-miterlimit:10;"/><line style="stroke:#000000;stroke-width:0.75;" x1="75.9248" x2="75.9248" y1="745.7217" y2="768.8701"/><polygon fill="#000000" points="71.9248,758.8701,75.9248,768.8701,79.9248,758.8701,75.9248,762.8701" style="stroke:#000000;stroke-width:1;stroke-linejoin:miter;stroke-miterlimit:10;"/><line style="stroke:#000000;stroke-width:0.75;" x1="213.4063" x2="213.4063" y1="745.7217" y2="768.8701"/><polygon fill="#000000" points="209.4063,758.8701,213.4063,768.8701,217.4063,758.8701,213.4063,762.8701" style="stroke:#000000;stroke-width:1;stroke-linejoin:miter;stroke-miterlimit:10;"/><line style="stroke:#000000;stroke-width:0.75;" x1="544.7993" x2="544.7993" y1="745.7217" y2="768.8701"/><polygon fill="#000000" points="540.7993,758.8701,544.7993,768.8701,548.7993,758.8701,544.7993,762.8701" style="stroke:#000000;stroke-width:1;stroke-linejoin:miter;stroke-miterlimit:10;"/><line style="stroke:#000000;stroke-width:0.75;" x1="792.6318" x2="792.6318" y1="745.7217" y2="768.8701"/><polygon fill="#000000" points="788.6318,758.8701,792.6318,768.8701,796.6318,758.8701,792.6318,762.8701" style="stroke:#000000;stroke-width:1;stroke-linejoin:miter;stroke-miterlimit:10;"/><line style="stroke:#000000;stroke-width:0.75;" x1="492.2344" x2="492.2344" y1="665.7529" y2="685.7529"/><polygon fill="#000000" points="488.2344,675.7529,492.2344,685.7529,496.2344,675.7529,492.2344,679.7529" style="stroke:#000000;stroke-width:1;stroke-linejoin:miter;stroke-miterlimit:10;"/><line style="stroke:#000000;stroke-width:0.75;" x1="492.2344" x2="492.2344" y1="774.8701" y2="794.8701"/><polygon fill="#000000" points="488.2344,784.8701,492.2344,794.8701,496.2344,784.8701,492.2344,788.8701" style="stroke:#000000;stroke-width:1;stroke-linejoin:miter;stroke-miterlimit:10;"/><line style="stroke:#000000;stroke-width:0.75;" x1="492.2344" x2="492.2344" y1="828.8389" y2="851.9873"/><polygon fill="#000000" points="488.2344,841.9873,492.2344,851.9873,496.2344,841.9873,492.2344,845.9873" style="stroke:#000000;stroke-width:1;stroke-linejoin:miter;stroke-miterlimit:10;"/><?plantuml-src ZPFVJnj74CVVxwyOfI-WA8QqefLggLM8eNa8Y994JH_NliK-sRwrzjR1USDHZ0c1O4GXTh02f3YX8TX99KAAV_mrlhsxf_uBdJqRurANv2HBuvkvxsVsExDMt31JX9Ca99d98Z7EaXG4JrFDwcMi6D7Pl656OOuahFvCc4JYKSxIfdwJ9HY7hoRzfwz2ftCadH2Jp1JTab7_6LmoJP1-vHTg_fmcvgy6J1aHpk0MDQxqrKypGSS_2_Qh6DSf_p_kZOWm7XZYuUUrUfLVf1So27gfVxdisGUNgtFEvYzDteqPaRX9BGj60z-D3U3CTfhX9kLmVLJJX24I52ACnSFuknQbc2020VP9fTqio-EiS_1Kqon1kD2-zueVPVKOHi5jRTYvYbjRj9SEWvg9FWCteZ6X0RG_rRrNHHW1z_Ynt2gfe5Pt5tAOie-Uoytt-4RkDkp66WRsTilTEx2pQtQbgL5J1oNLurplQdZvlBUzU85pR_Os2lnaY5lfC0Q4Pum7C8A9cT0a_f-OkJUkIELtTbaXdUQwKozZ-jeFaAI2w4IG4OkbUOHQWQH-3kSqHOa2d7NnDTZxRvpJFzrgowtk1J7phpxmMBa3MQhXKU0gE8Uxxl8ZPxjgDpVzP3-EfKN2CAd20Lm0mdpCm4aCERyToAKJPw_gLlSxt1-7mR1Wo2wy7bOVm90irePx7dq3ta81gJ0Lkd_18LbRKmd4PVvkl53-DpPnQihsydlLBWRFTfp2eWggBv6CDRCqOgIeXQ-yqebN_A3czphhFFfB5TK_jXkVl68E9tfkMBVnpd1b-QtRQidTVBThlrVqKZxvmruizQdBquApctNV_2vV5eA-smixSgU2s-2Z7wD_GSKuKyVJzyuyXXDvqTaXj_bEhhuAQdECnvNA60ae9vHyfw2J0X8bXkaNX0CmaQ1HOefnt7YuJUxI-mE6cg498cW6rtdVowuwZIstjgw6YTlLFxmBuf40JDECuCJVjyFI064pbGIUDY6SDXAw_-OgX5WaZXVIUxlYrhANoEi1Vwy7xU3HytPpmpugu4MnLxPGy-QTE-3bLz7rBcJceOWn4-IJ3NibrmzHWU_VcR_VuhLPSEfBxTFzThtud_jzv3xz8BVoC3jn8pGreIbjRwCbdrNK_jTty9B8vOgzldo-8fPWgNy0?></g></svg>