<svg xmlns="http://www.w3.org/2000/svg" xmlns:xlink="http://www.w3.org/1999/xlink" contentStyleType="text/css" data-diagram-type="DESCRIPTION" height="567px" preserveAspectRatio="none" style="width:3077px;height:567px;background:#FFFFFF;" version="1.1" viewBox="0 0 3077 567" width="3077px" zoomAndPan="magnify"><?plantuml 1.2026.6?><defs/><g><g class="title" data-source-line="43"><text fill="#000000" font-family="'WenQuanYi Micro Hei'" font-size="14" font-weight="700" lengthAdjust="spacing" textLength="185.6436" x="1442.1782" y="24.0752">cookbook-forge &#32452;&#20214;&#26550;&#26500;</text></g><!--cluster P_ORCH--><g class="cluster" data-qualified-name="P_ORCH" data-source-line="52" id="ent0002"><rect fill="#FFFFFF" height="247.33" style="stroke:#000000;stroke-width:1;" width="740" x="62" y="134.1046"/><text fill="#000000" font-family="'WenQuanYi Micro Hei'" font-size="12" font-weight="700" lengthAdjust="spacing" textLength="36.375" x="413.8125" y="148.1691">&#32534;&#25490;&#23618;</text><text fill="#000000" font-family="'WenQuanYi Micro Hei'" font-size="12" font-weight="700" lengthAdjust="spacing" textLength="105.8965" x="379.0518" y="162.7531">cookbook-forge</text></g><!--cluster P_SKILLS--><g class="cluster" data-qualified-name="P_SKILLS" data-source-line="61" id="ent0009"><rect fill="#FFFFFF" height="124.17" style="stroke:#000000;stroke-width:1;" width="797" x="1474" y="265.2646"/><text fill="#000000" font-family="'WenQuanYi Micro Hei'" font-size="12" font-weight="700" lengthAdjust="spacing" textLength="77.2266" x="1833.8867" y="279.3291">&#22797;&#29992;&#30340; Skills</text></g><!--cluster P_RESEARCH--><g class="cluster" data-qualified-name="P_RESEARCH" data-source-line="67" id="ent0013"><rect fill="#FFFFFF" height="124.17" style="stroke:#000000;stroke-width:1;" width="929" x="7" y="429.4346"/><text fill="#000000" font-family="'WenQuanYi Micro Hei'" font-size="12" font-weight="700" lengthAdjust="spacing" textLength="74.25" x="434.375" y="443.4991">&#25968;&#25454;&#37319;&#38598;&#24037;&#20855;</text></g><!--cluster P_DIAGRAM--><g class="cluster" data-qualified-name="P_DIAGRAM" data-source-line="75" id="ent0019"><rect fill="#FFFFFF" height="109.58" style="stroke:#000000;stroke-width:1;" width="620" x="2443" y="272.5646"/><text fill="#000000" font-family="'WenQuanYi Micro Hei'" font-size="12" font-weight="700" lengthAdjust="spacing" textLength="49.125" x="2728.4375" y="286.6291">&#22270;&#34920;&#24037;&#20855;</text></g><!--cluster P_TEMPLATES--><g class="cluster" data-qualified-name="P_TEMPLATES" data-source-line="82" id="ent0024"><rect fill="#FFFFFF" height="108.17" style="stroke:#000000;stroke-width:1;" width="1275" x="968" y="437.4346"/><text fill="#000000" font-family="'WenQuanYi Micro Hei'" font-size="12" font-weight="700" lengthAdjust="spacing" textLength="61.5" x="1574.75" y="451.4991">&#27169;&#26495;&#19982;&#36164;&#28304;</text></g><!--cluster P_OUTPUT--><g class="cluster" data-qualified-name="P_OUTPUT" data-source-line="90" id="ent0030"><rect fill="#FFFFFF" height="124.17" style="stroke:#000000;stroke-width:1;" width="583" x="2275" y="429.4346"/><text fill="#000000" font-family="'WenQuanYi Micro Hei'" font-size="12" font-weight="700" lengthAdjust="spacing" textLength="48.75" x="2542.125" y="443.4991">&#36755;&#20986;&#20135;&#29289;</text></g><!--entity ORCH--><g class="entity" data-qualified-name="P_ORCH.ORCH" data-source-line="53" id="ent0003"><rect fill="#FFFFFF" height="59.168" style="stroke:#000000;stroke-width:0.5;" width="98.4414" x="483.78" y="182.1046"/><rect fill="#FFFFFF" height="10" style="stroke:#000000;stroke-width:0.5;" width="15" x="562.2214" y="187.1046"/><rect fill="#FFFFFF" height="2" style="stroke:#000000;stroke-width:0.5;" width="4" x="560.2214" y="189.1046"/><rect fill="#FFFFFF" height="2" style="stroke:#000000;stroke-width:0.5;" width="4" x="560.2214" y="193.1046"/><text fill="#000000" font-family="'WenQuanYi Micro Hei'" font-size="12" lengthAdjust="spacing" textLength="58.4414" x="498.78" y="214.1691">SKILL.md</text><text fill="#000000" font-family="'WenQuanYi Micro Hei'" font-size="12" lengthAdjust="spacing" textLength="48" x="498.78" y="228.7531">&#32534;&#25490;&#25351;&#20196;</text></g><!--entity M2T--><g class="entity" data-qualified-name="P_ORCH.M2T" data-source-line="54" id="ent0004"><rect fill="#FFFFFF" height="59.168" style="stroke:#000000;stroke-width:0.5;" width="164.1016" x="621.95" y="182.1046"/><rect fill="#FFFFFF" height="10" style="stroke:#000000;stroke-width:0.5;" width="15" x="766.0516" y="187.1046"/><rect fill="#FFFFFF" height="2" style="stroke:#000000;stroke-width:0.5;" width="4" x="764.0516" y="189.1046"/><rect fill="#FFFFFF" height="2" style="stroke:#000000;stroke-width:0.5;" width="4" x="764.0516" y="193.1046"/><text fill="#000000" font-family="'WenQuanYi Micro Hei'" font-size="12" lengthAdjust="spacing" textLength="124.1016" x="636.95" y="214.1691">scripts/mdx2tex.mjs</text><text fill="#000000" font-family="'WenQuanYi Micro Hei'" font-size="12" lengthAdjust="spacing" textLength="87.9375" x="636.95" y="228.7531">MDX -&gt; LaTeX</text></g><!--entity EPUB--><g class="entity" data-qualified-name="P_ORCH.EPUB" data-source-line="55" id="ent0005"><rect fill="#FFFFFF" height="59.168" style="stroke:#000000;stroke-width:0.5;" width="175.5215" x="268.24" y="182.1046"/><rect fill="#FFFFFF" height="10" style="stroke:#000000;stroke-width:0.5;" width="15" x="423.7615" y="187.1046"/><rect fill="#FFFFFF" height="2" style="stroke:#000000;stroke-width:0.5;" width="4" x="421.7615" y="189.1046"/><rect fill="#FFFFFF" height="2" style="stroke:#000000;stroke-width:0.5;" width="4" x="421.7615" y="193.1046"/><text fill="#000000" font-family="'WenQuanYi Micro Hei'" font-size="12" lengthAdjust="spacing" textLength="135.5215" x="283.24" y="214.1691">scripts/build-epub.mjs</text><text fill="#000000" font-family="'WenQuanYi Micro Hei'" font-size="12" lengthAdjust="spacing" textLength="83.1211" x="283.24" y="228.7531">MDX -&gt; EPUB</text></g><!--entity FONT--><g class="entity" data-qualified-name="P_ORCH.FONT" data-source-line="56" id="ent0006"><rect fill="#FFFFFF" height="59.168" style="stroke:#000000;stroke-width:0.5;" width="186.2207" x="379.89" y="306.2646"/><rect fill="#FFFFFF" height="10" style="stroke:#000000;stroke-width:0.5;" width="15" x="546.1107" y="311.2646"/><rect fill="#FFFFFF" height="2" style="stroke:#000000;stroke-width:0.5;" width="4" x="544.1107" y="313.2646"/><rect fill="#FFFFFF" height="2" style="stroke:#000000;stroke-width:0.5;" width="4" x="544.1107" y="317.2646"/><text fill="#000000" font-family="'WenQuanYi Micro Hei'" font-size="12" lengthAdjust="spacing" textLength="146.2207" x="394.89" y="338.3291">scripts/subset-fonts.mjs</text><text fill="#000000" font-family="'WenQuanYi Micro Hei'" font-size="12" lengthAdjust="spacing" textLength="60" x="394.89" y="352.9131">&#23383;&#20307;&#23376;&#38598;&#21270;</text></g><!--entity WC--><g class="entity" data-qualified-name="P_ORCH.WC" data-source-line="57" id="ent0007"><rect fill="#FFFFFF" height="59.168" style="stroke:#000000;stroke-width:0.5;" width="179.8457" x="606.08" y="306.2646"/><rect fill="#FFFFFF" height="10" style="stroke:#000000;stroke-width:0.5;" width="15" x="765.9257" y="311.2646"/><rect fill="#FFFFFF" height="2" style="stroke:#000000;stroke-width:0.5;" width="4" x="763.9257" y="313.2646"/><rect fill="#FFFFFF" height="2" style="stroke:#000000;stroke-width:0.5;" width="4" x="763.9257" y="317.2646"/><text fill="#000000" font-family="'WenQuanYi Micro Hei'" font-size="12" lengthAdjust="spacing" textLength="139.8457" x="621.08" y="338.3291">scripts/word-count.mjs</text><text fill="#000000" font-family="'WenQuanYi Micro Hei'" font-size="12" lengthAdjust="spacing" textLength="48" x="621.08" y="352.9131">&#23383;&#25968;&#32479;&#35745;</text></g><!--entity FORMULA--><g class="entity" data-qualified-name="P_ORCH.FORMULA" data-source-line="58" id="ent0008"><rect fill="#FFFFFF" height="59.168" style="stroke:#000000;stroke-width:0.5;" width="262.7793" x="77.61" y="306.2646"/><rect fill="#FFFFFF" height="10" style="stroke:#000000;stroke-width:0.5;" width="15" x="320.3893" y="311.2646"/><rect fill="#FFFFFF" height="2" style="stroke:#000000;stroke-width:0.5;" width="4" x="318.3893" y="313.2646"/><rect fill="#FFFFFF" height="2" style="stroke:#000000;stroke-width:0.5;" width="4" x="318.3893" y="317.2646"/><text fill="#000000" font-family="'WenQuanYi Micro Hei'" font-size="12" lengthAdjust="spacing" textLength="222.7793" x="92.61" y="338.3291">scripts/optimize-formula-images.mjs</text><text fill="#000000" font-family="'WenQuanYi Micro Hei'" font-size="12" lengthAdjust="spacing" textLength="72" x="92.61" y="352.9131">&#20844;&#24335;&#22270;&#29255;&#20462;&#22797;</text></g><!--entity PCL--><g class="entity" data-qualified-name="P_SKILLS.PCL" data-source-line="62" id="ent0010"><rect fill="#FFFFFF" height="59.168" style="stroke:#000000;stroke-width:0.5;" width="226.5508" x="2020.72" y="306.2646"/><rect fill="#FFFFFF" height="10" style="stroke:#000000;stroke-width:0.5;" width="15" x="2227.2708" y="311.2646"/><rect fill="#FFFFFF" height="2" style="stroke:#000000;stroke-width:0.5;" width="4" x="2225.2708" y="313.2646"/><rect fill="#FFFFFF" height="2" style="stroke:#000000;stroke-width:0.5;" width="4" x="2225.2708" y="317.2646"/><text fill="#000000" font-family="'WenQuanYi Micro Hei'" font-size="12" lengthAdjust="spacing" textLength="139.582" x="2035.72" y="338.3291">project-cookbook-latex</text><text fill="#000000" font-family="'WenQuanYi Micro Hei'" font-size="12" lengthAdjust="spacing" textLength="186.5508" x="2035.72" y="352.9131">&#36164;&#26009;&#31351;&#23613; / 8 &#19975;&#23383; / ElegantBook</text></g><!--entity L2N--><g class="entity" data-qualified-name="P_SKILLS.L2N" data-source-line="63" id="ent0011"><rect fill="#FFFFFF" height="59.168" style="stroke:#000000;stroke-width:0.5;" width="224.793" x="1755.6" y="306.2646"/><rect fill="#FFFFFF" height="10" style="stroke:#000000;stroke-width:0.5;" width="15" x="1960.393" y="311.2646"/><rect fill="#FFFFFF" height="2" style="stroke:#000000;stroke-width:0.5;" width="4" x="1958.393" y="313.2646"/><rect fill="#FFFFFF" height="2" style="stroke:#000000;stroke-width:0.5;" width="4" x="1958.393" y="317.2646"/><text fill="#000000" font-family="'WenQuanYi Micro Hei'" font-size="12" lengthAdjust="spacing" textLength="118.1602" x="1770.6" y="338.3291">latex-to-nextra-site</text><text fill="#000000" font-family="'WenQuanYi Micro Hei'" font-size="12" lengthAdjust="spacing" textLength="184.793" x="1770.6" y="352.9131">Nextra v3 / Docker / PlantUML</text></g><!--entity ERO--><g class="entity" data-qualified-name="P_SKILLS.ERO" data-source-line="64" id="ent0012"><rect fill="#FFFFFF" height="59.168" style="stroke:#000000;stroke-width:0.5;" width="192.7773" x="1522.61" y="306.2646"/><rect fill="#FFFFFF" height="10" style="stroke:#000000;stroke-width:0.5;" width="15" x="1695.3873" y="311.2646"/><rect fill="#FFFFFF" height="2" style="stroke:#000000;stroke-width:0.5;" width="4" x="1693.3873" y="313.2646"/><rect fill="#FFFFFF" height="2" style="stroke:#000000;stroke-width:0.5;" width="4" x="1693.3873" y="317.2646"/><text fill="#000000" font-family="'WenQuanYi Micro Hei'" font-size="12" lengthAdjust="spacing" textLength="136.1367" x="1537.61" y="338.3291">epub-reader-optimizer</text><text fill="#000000" font-family="'WenQuanYi Micro Hei'" font-size="12" lengthAdjust="spacing" textLength="152.7773" x="1537.61" y="352.9131">CSS &#37325;&#20889; / &#23383;&#20307; / &#20844;&#24335;&#20462;&#22797;</text></g><!--entity BR--><g class="entity" data-qualified-name="P_RESEARCH.BR" data-source-line="68" id="ent0014"><rect fill="#FFFFFF" height="59.168" style="stroke:#000000;stroke-width:0.5;" width="158.2539" x="180.87" y="470.4346"/><rect fill="#FFFFFF" height="10" style="stroke:#000000;stroke-width:0.5;" width="15" x="319.1239" y="475.4346"/><rect fill="#FFFFFF" height="2" style="stroke:#000000;stroke-width:0.5;" width="4" x="317.1239" y="477.4346"/><rect fill="#FFFFFF" height="2" style="stroke:#000000;stroke-width:0.5;" width="4" x="317.1239" y="481.4346"/><text fill="#000000" font-family="'WenQuanYi Micro Hei'" font-size="12" lengthAdjust="spacing" textLength="87.8262" x="195.87" y="502.4991">agent-browser</text><text fill="#000000" font-family="'WenQuanYi Micro Hei'" font-size="12" lengthAdjust="spacing" textLength="118.2539" x="195.87" y="517.0831">/vivaldi-automation</text></g><!--entity WF--><g class="entity" data-qualified-name="P_RESEARCH.WF" data-source-line="69" id="ent0015"><rect fill="#FFFFFF" height="44.584" style="stroke:#000000;stroke-width:0.5;" width="181.0117" x="379.49" y="477.7246"/><rect fill="#FFFFFF" height="10" style="stroke:#000000;stroke-width:0.5;" width="15" x="540.5017" y="482.7246"/><rect fill="#FFFFFF" height="2" style="stroke:#000000;stroke-width:0.5;" width="4" x="538.5017" y="484.7246"/><rect fill="#FFFFFF" height="2" style="stroke:#000000;stroke-width:0.5;" width="4" x="538.5017" y="488.7246"/><text fill="#000000" font-family="'WenQuanYi Micro Hei'" font-size="12" lengthAdjust="spacing" textLength="141.0117" x="394.49" y="509.7891">WebFetch / WebSearch</text></g><!--entity ARX--><g class="entity" data-qualified-name="P_RESEARCH.ARX" data-source-line="70" id="ent0016"><rect fill="#FFFFFF" height="59.168" style="stroke:#000000;stroke-width:0.5;" width="153.0566" x="600.47" y="470.4346"/><rect fill="#FFFFFF" height="10" style="stroke:#000000;stroke-width:0.5;" width="15" x="733.5266" y="475.4346"/><rect fill="#FFFFFF" height="2" style="stroke:#000000;stroke-width:0.5;" width="4" x="731.5266" y="477.4346"/><rect fill="#FFFFFF" height="2" style="stroke:#000000;stroke-width:0.5;" width="4" x="731.5266" y="481.4346"/><text fill="#000000" font-family="'WenQuanYi Micro Hei'" font-size="12" lengthAdjust="spacing" textLength="83.1445" x="615.47" y="502.4991">arxiv-watcher</text><text fill="#000000" font-family="'WenQuanYi Micro Hei'" font-size="12" lengthAdjust="spacing" textLength="113.0566" x="615.47" y="517.0831">/connected-papers</text></g><!--entity D2X--><g class="entity" data-qualified-name="P_RESEARCH.D2X" data-source-line="71" id="ent0017"><rect fill="#FFFFFF" height="59.168" style="stroke:#000000;stroke-width:0.5;" width="94.0293" x="793.99" y="470.4346"/><rect fill="#FFFFFF" height="10" style="stroke:#000000;stroke-width:0.5;" width="15" x="868.0193" y="475.4346"/><rect fill="#FFFFFF" height="2" style="stroke:#000000;stroke-width:0.5;" width="4" x="866.0193" y="477.4346"/><rect fill="#FFFFFF" height="2" style="stroke:#000000;stroke-width:0.5;" width="4" x="866.0193" y="481.4346"/><text fill="#000000" font-family="'WenQuanYi Micro Hei'" font-size="12" lengthAdjust="spacing" textLength="54.0293" x="808.99" y="502.4991">doc2x-cli</text><text fill="#000000" font-family="'WenQuanYi Micro Hei'" font-size="12" lengthAdjust="spacing" textLength="53.7656" x="808.99" y="517.0831">PDF OCR</text></g><!--entity GH--><g class="entity" data-qualified-name="P_RESEARCH.GH" data-source-line="72" id="ent0018"><rect fill="#FFFFFF" height="59.168" style="stroke:#000000;stroke-width:0.5;" width="109.6328" x="31.18" y="470.4346"/><rect fill="#FFFFFF" height="10" style="stroke:#000000;stroke-width:0.5;" width="15" x="120.8128" y="475.4346"/><rect fill="#FFFFFF" height="2" style="stroke:#000000;stroke-width:0.5;" width="4" x="118.8128" y="477.4346"/><rect fill="#FFFFFF" height="2" style="stroke:#000000;stroke-width:0.5;" width="4" x="118.8128" y="481.4346"/><text fill="#000000" font-family="'WenQuanYi Micro Hei'" font-size="12" lengthAdjust="spacing" textLength="33.3574" x="46.18" y="502.4991">gh-cli</text><text fill="#000000" font-family="'WenQuanYi Micro Hei'" font-size="12" lengthAdjust="spacing" textLength="69.6328" x="46.18" y="517.0831">GitHub &#20179;&#24211;</text></g><!--entity PU--><g class="entity" data-qualified-name="P_DIAGRAM.PU" data-source-line="76" id="ent0020"><rect fill="#FFFFFF" height="44.584" style="stroke:#000000;stroke-width:0.5;" width="92.8574" x="2801.57" y="313.5646"/><rect fill="#FFFFFF" height="10" style="stroke:#000000;stroke-width:0.5;" width="15" x="2874.4274" y="318.5646"/><rect fill="#FFFFFF" height="2" style="stroke:#000000;stroke-width:0.5;" width="4" x="2872.4274" y="320.5646"/><rect fill="#FFFFFF" height="2" style="stroke:#000000;stroke-width:0.5;" width="4" x="2872.4274" y="324.5646"/><text fill="#000000" font-family="'WenQuanYi Micro Hei'" font-size="12" lengthAdjust="spacing" textLength="52.8574" x="2816.57" y="345.6291">plantuml</text></g><!--entity DR--><g class="entity" data-qualified-name="P_DIAGRAM.DR" data-source-line="77" id="ent0021"><rect fill="#FFFFFF" height="44.584" style="stroke:#000000;stroke-width:0.5;" width="80.2012" x="2934.9" y="313.5646"/><rect fill="#FFFFFF" height="10" style="stroke:#000000;stroke-width:0.5;" width="15" x="2995.1012" y="318.5646"/><rect fill="#FFFFFF" height="2" style="stroke:#000000;stroke-width:0.5;" width="4" x="2993.1012" y="320.5646"/><rect fill="#FFFFFF" height="2" style="stroke:#000000;stroke-width:0.5;" width="4" x="2993.1012" y="324.5646"/><text fill="#000000" font-family="'WenQuanYi Micro Hei'" font-size="12" lengthAdjust="spacing" textLength="40.2012" x="2949.9" y="345.6291">drawio</text></g><!--entity EX--><g class="entity" data-qualified-name="P_DIAGRAM.EX" data-source-line="78" id="ent0022"><rect fill="#FFFFFF" height="44.584" style="stroke:#000000;stroke-width:0.5;" width="103.9199" x="2467.04" y="313.5646"/><rect fill="#FFFFFF" height="10" style="stroke:#000000;stroke-width:0.5;" width="15" x="2550.9599" y="318.5646"/><rect fill="#FFFFFF" height="2" style="stroke:#000000;stroke-width:0.5;" width="4" x="2548.9599" y="320.5646"/><rect fill="#FFFFFF" height="2" style="stroke:#000000;stroke-width:0.5;" width="4" x="2548.9599" y="324.5646"/><text fill="#000000" font-family="'WenQuanYi Micro Hei'" font-size="12" lengthAdjust="spacing" textLength="63.9199" x="2482.04" y="345.6291">excalidraw</text></g><!--entity CH--><g class="entity" data-qualified-name="P_DIAGRAM.CH" data-source-line="79" id="ent0023"><rect fill="#FFFFFF" height="44.584" style="stroke:#000000;stroke-width:0.5;" width="150.7949" x="2610.6" y="313.5646"/><rect fill="#FFFFFF" height="10" style="stroke:#000000;stroke-width:0.5;" width="15" x="2741.3949" y="318.5646"/><rect fill="#FFFFFF" height="2" style="stroke:#000000;stroke-width:0.5;" width="4" x="2739.3949" y="320.5646"/><rect fill="#FFFFFF" height="2" style="stroke:#000000;stroke-width:0.5;" width="4" x="2739.3949" y="324.5646"/><text fill="#000000" font-family="'WenQuanYi Micro Hei'" font-size="12" lengthAdjust="spacing" textLength="110.7949" x="2625.6" y="345.6291">chart-visualization</text></g><!--entity ORE--><g class="entity" data-qualified-name="P_TEMPLATES.ORE" data-source-line="83" id="ent0025"><rect fill="#FFFFFF" height="44.584" style="stroke:#000000;stroke-width:0.5;" width="241.0586" x="984.47" y="477.7246"/><rect fill="#FFFFFF" height="10" style="stroke:#000000;stroke-width:0.5;" width="15" x="1205.5286" y="482.7246"/><rect fill="#FFFFFF" height="2" style="stroke:#000000;stroke-width:0.5;" width="4" x="1203.5286" y="484.7246"/><rect fill="#FFFFFF" height="2" style="stroke:#000000;stroke-width:0.5;" width="4" x="1203.5286" y="488.7246"/><text fill="#000000" font-family="'WenQuanYi Micro Hei'" font-size="12" lengthAdjust="spacing" textLength="201.0586" x="999.47" y="509.7891">references/style-guide-oreilly.md</text></g><!--entity SPR--><g class="entity" data-qualified-name="P_TEMPLATES.SPR" data-source-line="84" id="ent0026"><rect fill="#FFFFFF" height="44.584" style="stroke:#000000;stroke-width:0.5;" width="254.0078" x="1266" y="477.7246"/><rect fill="#FFFFFF" height="10" style="stroke:#000000;stroke-width:0.5;" width="15" x="1500.0078" y="482.7246"/><rect fill="#FFFFFF" height="2" style="stroke:#000000;stroke-width:0.5;" width="4" x="1498.0078" y="484.7246"/><rect fill="#FFFFFF" height="2" style="stroke:#000000;stroke-width:0.5;" width="4" x="1498.0078" y="488.7246"/><text fill="#000000" font-family="'WenQuanYi Micro Hei'" font-size="12" lengthAdjust="spacing" textLength="214.0078" x="1281" y="509.7891">references/style-guide-springer.md</text></g><!--entity TPL--><g class="entity" data-qualified-name="P_TEMPLATES.TPL" data-source-line="85" id="ent0027"><rect fill="#FFFFFF" height="59.168" style="stroke:#000000;stroke-width:0.5;" width="174.9941" x="1560.5" y="470.4346"/><rect fill="#FFFFFF" height="10" style="stroke:#000000;stroke-width:0.5;" width="15" x="1715.4941" y="475.4346"/><rect fill="#FFFFFF" height="2" style="stroke:#000000;stroke-width:0.5;" width="4" x="1713.4941" y="477.4346"/><rect fill="#FFFFFF" height="2" style="stroke:#000000;stroke-width:0.5;" width="4" x="1713.4941" y="481.4346"/><text fill="#000000" font-family="'WenQuanYi Micro Hei'" font-size="12" lengthAdjust="spacing" textLength="133.8398" x="1575.5" y="502.4991">assets/template-mdx/</text><text fill="#000000" font-family="'WenQuanYi Micro Hei'" font-size="12" lengthAdjust="spacing" textLength="134.9941" x="1575.5" y="517.0831">chapter-template.mdx</text></g><!--entity NXT--><g class="entity" data-qualified-name="P_TEMPLATES.NXT" data-source-line="86" id="ent0028"><rect fill="#FFFFFF" height="44.584" style="stroke:#000000;stroke-width:0.5;" width="186.4902" x="2040.75" y="477.7246"/><rect fill="#FFFFFF" height="10" style="stroke:#000000;stroke-width:0.5;" width="15" x="2207.2402" y="482.7246"/><rect fill="#FFFFFF" height="2" style="stroke:#000000;stroke-width:0.5;" width="4" x="2205.2402" y="484.7246"/><rect fill="#FFFFFF" height="2" style="stroke:#000000;stroke-width:0.5;" width="4" x="2205.2402" y="488.7246"/><text fill="#000000" font-family="'WenQuanYi Micro Hei'" font-size="12" lengthAdjust="spacing" textLength="146.4902" x="2055.75" y="509.7891">assets/nextra-template/</text></g><!--entity CSS--><g class="entity" data-qualified-name="P_TEMPLATES.CSS" data-source-line="87" id="ent0029"><rect fill="#FFFFFF" height="44.584" style="stroke:#000000;stroke-width:0.5;" width="225.5723" x="1775.21" y="477.7246"/><rect fill="#FFFFFF" height="10" style="stroke:#000000;stroke-width:0.5;" width="15" x="1980.7823" y="482.7246"/><rect fill="#FFFFFF" height="2" style="stroke:#000000;stroke-width:0.5;" width="4" x="1978.7823" y="484.7246"/><rect fill="#FFFFFF" height="2" style="stroke:#000000;stroke-width:0.5;" width="4" x="1978.7823" y="488.7246"/><text fill="#000000" font-family="'WenQuanYi Micro Hei'" font-size="12" lengthAdjust="spacing" textLength="185.5723" x="1790.21" y="509.7891">assets/stylesheet.template.css</text></g><!--entity MDX--><g class="entity" data-qualified-name="P_OUTPUT.MDX" data-source-line="91" id="ent0031"><path d="M2463,480.9346 C2463,470.9346 2509,470.9346 2509,470.9346 C2509,470.9346 2555,470.9346 2555,480.9346 L2555,519.1026 C2555,529.1026 2509,529.1026 2509,529.1026 C2509,529.1026 2463,529.1026 2463,519.1026 L2463,480.9346" fill="#FFFFFF" style="stroke:#000000;stroke-width:0.5;"/><path d="M2463,480.9346 C2463,490.9346 2509,490.9346 2509,490.9346 C2509,490.9346 2555,490.9346 2555,480.9346" fill="none" style="stroke:#000000;stroke-width:0.5;"/><text fill="#000000" font-family="'WenQuanYi Micro Hei'" font-size="12" lengthAdjust="spacing" textLength="27.5801" x="2473" y="506.9991">MDX</text><text fill="#000000" font-family="'WenQuanYi Micro Hei'" font-size="12" lengthAdjust="spacing" textLength="72" x="2473" y="521.5831">&#31456;&#33410;&#21270;&#28304;&#26684;&#24335;</text></g><!--entity PDF--><g class="entity" data-qualified-name="P_OUTPUT.PDF" data-source-line="92" id="ent0032"><path d="M2714.54,480.9346 C2714.54,470.9346 2762.0048,470.9346 2762.0048,470.9346 C2762.0048,470.9346 2809.4697,470.9346 2809.4697,480.9346 L2809.4697,519.1026 C2809.4697,529.1026 2762.0048,529.1026 2762.0048,529.1026 C2762.0048,529.1026 2714.54,529.1026 2714.54,519.1026 L2714.54,480.9346" fill="#FFFFFF" style="stroke:#000000;stroke-width:0.5;"/><path d="M2714.54,480.9346 C2714.54,490.9346 2762.0048,490.9346 2762.0048,490.9346 C2762.0048,490.9346 2809.4697,490.9346 2809.4697,480.9346" fill="none" style="stroke:#000000;stroke-width:0.5;"/><text fill="#000000" font-family="'WenQuanYi Micro Hei'" font-size="12" lengthAdjust="spacing" textLength="74.9297" x="2724.54" y="506.9991">ElegantBook</text><text fill="#000000" font-family="'WenQuanYi Micro Hei'" font-size="12" lengthAdjust="spacing" textLength="23.3789" x="2724.54" y="521.5831">PDF</text></g><!--entity WEB--><g class="entity" data-qualified-name="P_OUTPUT.WEB" data-source-line="93" id="ent0033"><path d="M2308.7025,479.3295 C2312.4053,471.8376 2317.7472,472.5664 2322.0791,478.7126 C2326.0389,472.9557 2331.8895,472.1031 2335.6431,478.9348 C2338.6765,472.3495 2344.8824,471.2203 2349.7451,476.8172 C2353.4044,471.1832 2358.3385,472.0409 2361.8401,476.9973 C2365.9056,471.2695 2371.8642,472.1642 2374.7585,478.2752 C2379.0911,472.5654 2385.1424,472.9982 2388.7911,479.0884 C2393.2534,471.9273 2398.8847,473.2685 2403.2452,479.2009 C2407.6228,474.0669 2412.1001,473.6699 2415.366,480.3422 C2420.799,481.7638 2422.3233,485.1831 2419.6622,490.1502 C2426.9249,490.9265 2427.749,495.9432 2424.7425,501.3696 C2429.4139,506.6789 2426.8454,511.1741 2420.8385,512.8531 C2423.6106,517.5201 2421.7177,522.0302 2415.8747,522.0448 C2412.8167,529.953 2406.7674,531.2596 2401.6103,524.0218 C2399.4403,530.9936 2394.6889,531.0765 2389.8321,526.8469 C2385.7268,535.0893 2380.2199,535.5968 2374.5423,528.4044 C2371.8781,536.4421 2367.4783,536.0862 2361.7084,531.5826 C2356.9149,537.1491 2350.1391,537.4226 2347.6662,529.2165 C2342.4059,534.7247 2338.2456,533.8959 2334.8412,527.257 C2330.3059,532.308 2323.8632,531.8638 2321.4597,524.8855 C2316.6543,529.7967 2310.9744,529.4576 2307.8406,522.9005 C2301.5337,520.8825 2300.2747,516.1524 2303.9628,510.9037 C2298.2428,509.6665 2297.1265,505.4402 2300.3037,500.9367 C2296.9211,496.6751 2298.0161,492.1659 2303.5505,490.7451 C2299.0442,484.5176 2302.3001,480.6338 2308.7025,479.3295" fill="#FFFFFF" style="stroke:#000000;stroke-width:0.5;"/><text fill="#000000" font-family="'WenQuanYi Micro Hei'" font-size="12" lengthAdjust="spacing" textLength="68.502" x="2314.4" y="497.4991">Nextra &#32593;&#31449;</text><text fill="#000000" font-family="'WenQuanYi Micro Hei'" font-size="12" lengthAdjust="spacing" textLength="93.2051" x="2314.4" y="512.0831">Vercel / Docker</text></g><!--entity EOUT--><g class="entity" data-qualified-name="P_OUTPUT.EOUT" data-source-line="94" id="ent0034"><path d="M2594.97,488.2246 C2594.97,478.2246 2634.9964,478.2246 2634.9964,478.2246 C2634.9964,478.2246 2675.0227,478.2246 2675.0227,488.2246 L2675.0227,511.8086 C2675.0227,521.8086 2634.9964,521.8086 2634.9964,521.8086 C2634.9964,521.8086 2594.97,521.8086 2594.97,511.8086 L2594.97,488.2246" fill="#FFFFFF" style="stroke:#000000;stroke-width:0.5;"/><path d="M2594.97,488.2246 C2594.97,498.2246 2634.9964,498.2246 2634.9964,498.2246 C2634.9964,498.2246 2675.0227,498.2246 2675.0227,488.2246" fill="none" style="stroke:#000000;stroke-width:0.5;"/><text fill="#000000" font-family="'WenQuanYi Micro Hei'" font-size="12" lengthAdjust="spacing" textLength="60.0527" x="2604.97" y="514.2891">&#20248;&#21270; EPUB</text></g><!--entity ??--><g class="entity" data-qualified-name=".." data-source-line="50" id="ent0001"><ellipse cx="533" cy="52.0146" fill="#FFFFFF" rx="8" ry="8" style="stroke:#000000;stroke-width:0.5;"/><path d="M533,60.0146 L533,87.0146 M520,68.0146 L546,68.0146 M533,87.0146 L520,102.0146 M533,87.0146 L546,102.0146" fill="none" style="stroke:#000000;stroke-width:0.5;"/><text fill="#000000" font-family="'WenQuanYi Micro Hei'" font-size="12" lengthAdjust="spacing" textLength="24" x="521" y="115.5791">&#29992;&#25143;</text></g><!--link ?? to ORCH--><g class="link" data-entity-1="ent0001" data-entity-2="ent0003" data-link-type="dependency" data-source-line="97" id="lnk35"><path d="M533,118.3946 C533,138.4846 533,158.0546 533,176.7846" fill="none" id="&#29992;&#25143;-to-ORCH" style="stroke:#000000;stroke-width:0.75;"/><polygon fill="#000000" points="533,181.7846,537,172.7846,533,176.7846,529,172.7846,533,181.7846" style="stroke:#000000;stroke-width:0.75;stroke-linejoin:miter;stroke-miterlimit:10;"/></g><!--link ORCH to BR--><g class="link" data-entity-1="ent0003" data-entity-2="ent0014" data-link-type="dependency" data-source-line="99" id="lnk36"><path d="M582.44,235.6546 C588.91,237.9146 595.53,239.8846 602,241.2646 C617,244.4746 867.31,238.2646 878,249.2646 C926.36,299.0546 926.7,355.9846 878,405.4346 C867.88,415.7146 372.47,408.3046 359,413.4346 C328.85,424.9246 305.0516,446.3034 286.8416,466.3534" fill="none" id="ORCH-to-BR" style="stroke:#000000;stroke-width:0.75;"/><polygon fill="#000000" points="283.48,470.0546,292.4919,466.0816,286.8416,466.3534,286.5699,460.703,283.48,470.0546" style="stroke:#000000;stroke-width:0.75;stroke-linejoin:miter;stroke-miterlimit:10;"/></g><!--link ORCH to WF--><g class="link" data-entity-1="ent0003" data-entity-2="ent0015" data-link-type="dependency" data-source-line="100" id="lnk37"><path d="M582.43,235.6946 C588.9,237.9546 595.53,239.9046 602,241.2646 C621.47,245.3646 946.09,235.0446 960,249.2646 C1008.53,298.8946 1008.56,355.8446 960,405.4346 C945.23,420.5246 599.9,406.3746 580,413.4346 C543.52,426.3846 513.157,453.0013 492.897,473.8213" fill="none" id="ORCH-to-WF" style="stroke:#000000;stroke-width:0.75;"/><polygon fill="#000000" points="489.41,477.4046,498.5533,473.7441,492.897,473.8213,492.8199,468.1649,489.41,477.4046" style="stroke:#000000;stroke-width:0.75;stroke-linejoin:miter;stroke-miterlimit:10;"/></g><!--link ORCH to ARX--><g class="link" data-entity-1="ent0003" data-entity-2="ent0016" data-link-type="dependency" data-source-line="101" id="lnk38"><path d="M582.42,235.7146 C588.89,237.9646 595.53,239.9146 602,241.2646 C613.07,243.5846 1001.08,241.1946 1009,249.2646 C1057.59,298.8246 1057.24,355.5346 1009,405.4346 C999.92,414.8246 786.14,408.6046 774,413.4346 C744.37,425.2246 721.088,446.5331 703.278,466.5031" fill="none" id="ORCH-to-ARX" style="stroke:#000000;stroke-width:0.75;"/><polygon fill="#000000" points="699.95,470.2346,708.9256,466.1802,703.278,466.5031,702.9551,460.8554,699.95,470.2346" style="stroke:#000000;stroke-width:0.75;stroke-linejoin:miter;stroke-miterlimit:10;"/></g><!--link ORCH to D2X--><g class="link" data-entity-1="ent0003" data-entity-2="ent0017" data-link-type="dependency" data-source-line="102" id="lnk39"><path d="M582.42,235.7246 C588.89,237.9746 595.53,239.9246 602,241.2646 C614.4,243.8446 1049.12,240.2346 1058,249.2646 C1106.65,298.7746 1105.88,355.1946 1058,405.4346 C1045.26,418.8046 907.83,403.9346 892,413.4346 C871.09,425.9946 859.5786,446.025 851.8086,465.675" fill="none" id="ORCH-to-D2X" style="stroke:#000000;stroke-width:0.75;"/><polygon fill="#000000" points="849.97,470.3246,856.9992,463.4261,851.8086,465.675,849.5597,460.4843,849.97,470.3246" style="stroke:#000000;stroke-width:0.75;stroke-linejoin:miter;stroke-miterlimit:10;"/></g><!--link ORCH to GH--><g class="link" data-entity-1="ent0003" data-entity-2="ent0018" data-link-type="dependency" data-source-line="103" id="lnk40"><path d="M582.45,235.5946 C588.92,237.8646 595.54,239.8546 602,241.2646 C613.08,243.6946 798.14,241.0946 806,249.2646 C854.11,299.3046 854.77,356.0546 806,405.4346 C793.41,418.1846 177.27,405.9346 161,413.4346 C135.52,425.1746 117.9598,446.0356 104.9398,466.0156" fill="none" id="ORCH-to-GH" style="stroke:#000000;stroke-width:0.75;"/><polygon fill="#000000" points="102.21,470.2046,110.4749,464.8482,104.9398,466.0156,103.7724,460.4805,102.21,470.2046" style="stroke:#000000;stroke-width:0.75;stroke-linejoin:miter;stroke-miterlimit:10;"/></g><!--link ORCH to PCL--><g class="link" data-entity-1="ent0003" data-entity-2="ent0010" data-link-type="dependency" data-source-line="104" id="lnk41"><path d="M582.41,235.8046 C588.88,238.0346 595.52,239.9646 602,241.2646 C640.07,248.9546 1962.76,238.2746 2000,249.2646 C2037.73,260.4046 2071.0442,282.5682 2096.6542,302.7682" fill="none" id="ORCH-to-PCL" style="stroke:#000000;stroke-width:0.75;"/><polygon fill="#000000" points="2100.58,305.8646,2095.9908,297.1504,2096.6542,302.7682,2091.0364,303.4316,2100.58,305.8646" style="stroke:#000000;stroke-width:0.75;stroke-linejoin:miter;stroke-miterlimit:10;"/></g><!--link ORCH to L2N--><g class="link" data-entity-1="ent0003" data-entity-2="ent0011" data-link-type="dependency" data-source-line="105" id="lnk42"><path d="M582.41,235.7946 C588.88,238.0346 595.52,239.9546 602,241.2646 C663.69,253.7646 1674.67,231.3046 1735,249.2646 C1772.5,260.4346 1805.5461,282.5732 1830.9561,302.7732" fill="none" id="ORCH-to-L2N" style="stroke:#000000;stroke-width:0.75;"/><polygon fill="#000000" points="1834.87,305.8846,1830.3141,297.1529,1830.9561,302.7732,1825.3358,303.4152,1834.87,305.8846" style="stroke:#000000;stroke-width:0.75;stroke-linejoin:miter;stroke-miterlimit:10;"/></g><!--link ORCH to ERO--><g class="link" data-entity-1="ent0003" data-entity-2="ent0012" data-link-type="dependency" data-source-line="106" id="lnk43"><path d="M582.41,235.7846 C588.88,238.0246 595.52,239.9546 602,241.2646 C651.92,251.4246 1471.29,231.4046 1519,249.2646 C1549.39,260.6446 1573.451,282.0493 1591.871,302.1393" fill="none" id="ORCH-to-ERO" style="stroke:#000000;stroke-width:0.75;"/><polygon fill="#000000" points="1595.25,305.8246,1592.116,296.4877,1591.871,302.1393,1586.2194,301.8942,1595.25,305.8246" style="stroke:#000000;stroke-width:0.75;stroke-linejoin:miter;stroke-miterlimit:10;"/></g><!--link ORCH to PU--><g class="link" data-entity-1="ent0003" data-entity-2="ent0020" data-link-type="dependency" data-source-line="107" id="lnk44"><path d="M582.4,235.8146 C588.88,238.0446 595.52,239.9646 602,241.2646 C631.67,247.2246 2753.82,235.9646 2781,249.2646 C2808.12,262.5446 2825.2107,288.2147 2835.9407,308.9347" fill="none" id="ORCH-to-PU" style="stroke:#000000;stroke-width:0.75;"/><polygon fill="#000000" points="2838.24,313.3746,2837.6533,303.5433,2835.9407,308.9347,2830.5493,307.2221,2838.24,313.3746" style="stroke:#000000;stroke-width:0.75;stroke-linejoin:miter;stroke-miterlimit:10;"/></g><!--link ORCH to DR--><g class="link" data-entity-1="ent0003" data-entity-2="ent0021" data-link-type="dependency" data-source-line="108" id="lnk45"><path d="M582.4,235.8146 C588.88,238.0546 595.52,239.9646 602,241.2646 C633.48,247.5846 2885.48,234.5146 2914,249.2646 C2939.93,262.6846 2955.2056,288.2107 2964.5756,308.8807" fill="none" id="ORCH-to-DR" style="stroke:#000000;stroke-width:0.75;"/><polygon fill="#000000" points="2966.64,313.4346,2966.5673,303.5861,2964.5756,308.8807,2959.281,306.889,2966.64,313.4346" style="stroke:#000000;stroke-width:0.75;stroke-linejoin:miter;stroke-miterlimit:10;"/></g><!--link ORCH to EX--><g class="link" data-entity-1="ent0003" data-entity-2="ent0022" data-link-type="dependency" data-source-line="109" id="lnk46"><path d="M582.4,235.8046 C588.88,238.0446 595.52,239.9646 602,241.2646 C649.52,250.8346 2299.84,238.0646 2347,249.2646 C2399.08,261.6346 2449.2423,289.4651 2482.5623,310.5051" fill="none" id="ORCH-to-EX" style="stroke:#000000;stroke-width:0.75;"/><polygon fill="#000000" points="2486.79,313.1746,2481.3158,304.9873,2482.5623,310.5051,2477.0445,311.7515,2486.79,313.1746" style="stroke:#000000;stroke-width:0.75;stroke-linejoin:miter;stroke-miterlimit:10;"/></g><!--link ORCH to CH--><g class="link" data-entity-1="ent0003" data-entity-2="ent0023" data-link-type="dependency" data-source-line="110" id="lnk47"><path d="M582.4,235.8146 C588.88,238.0446 595.52,239.9646 602,241.2646 C629.08,246.7146 2565.23,239.3146 2591,249.2646 C2624.13,262.0646 2649.8067,288.4244 2666.7667,309.2944" fill="none" id="ORCH-to-CH" style="stroke:#000000;stroke-width:0.75;"/><polygon fill="#000000" points="2669.92,313.1746,2667.3483,303.6675,2666.7667,309.2944,2661.1398,308.7128,2669.92,313.1746" style="stroke:#000000;stroke-width:0.75;stroke-linejoin:miter;stroke-miterlimit:10;"/></g><!--link ORCH to ORE--><g class="link" data-entity-1="ent0003" data-entity-2="ent0025" data-link-type="dependency" data-source-line="111" id="lnk48"><path d="M582.42,235.7346 C588.89,237.9846 595.52,239.9246 602,241.2646 C615.74,244.1146 1097.16,239.2746 1107,249.2646 C1167.83,311.0746 1134.1638,424.0698 1115.7538,472.5898" fill="none" id="ORCH-to-ORE" style="stroke:#000000;stroke-width:0.75;"/><polygon fill="#000000" points="1113.98,477.2646,1120.9126,470.269,1115.7538,472.5898,1113.4329,467.431,1113.98,477.2646" style="stroke:#000000;stroke-width:0.75;stroke-linejoin:miter;stroke-miterlimit:10;"/></g><!--link ORCH to SPR--><g class="link" data-entity-1="ent0003" data-entity-2="ent0026" data-link-type="dependency" data-source-line="112" id="lnk49"><path d="M582.42,235.7446 C588.89,237.9946 595.52,239.9346 602,241.2646 C632.09,247.4846 1126.85,236.9646 1155,249.2646 C1266.41,297.9546 1348.2493,422.1683 1378.4093,473.2883" fill="none" id="ORCH-to-SPR" style="stroke:#000000;stroke-width:0.75;"/><polygon fill="#000000" points="1380.95,477.5946,1379.8219,467.8106,1378.4093,473.2883,1372.9316,471.8757,1380.95,477.5946" style="stroke:#000000;stroke-width:0.75;stroke-linejoin:miter;stroke-miterlimit:10;"/></g><!--link ORCH to TPL--><g class="link" data-entity-1="ent0003" data-entity-2="ent0027" data-link-type="dependency" data-source-line="113" id="lnk50"><path d="M582.41,235.7646 C588.89,238.0046 595.52,239.9446 602,241.2646 C638.57,248.7746 1238.93,236.4646 1274,249.2646 C1376.68,286.7446 1363.17,363.2346 1464,405.4346 C1495.33,418.5546 1508.55,400.6046 1540,413.4346 C1571.01,426.0946 1596.7985,447.0364 1617.0685,466.5564" fill="none" id="ORCH-to-TPL" style="stroke:#000000;stroke-width:0.75;"/><polygon fill="#000000" points="1620.67,470.0246,1616.9619,460.9005,1617.0685,466.5564,1611.4126,466.663,1620.67,470.0246" style="stroke:#000000;stroke-width:0.75;stroke-linejoin:miter;stroke-miterlimit:10;"/></g><!--link PCL to NXT--><g class="link" data-entity-1="ent0010" data-entity-2="ent0028" data-link-type="dependency" data-source-line="115" id="lnk51"><path d="M2134,365.8446 C2134,397.9146 2134,443.8346 2134,472.5246" fill="none" id="PCL-to-NXT" style="stroke:#000000;stroke-width:0.75;"/><polygon fill="#000000" points="2134,477.5246,2138,468.5246,2134,472.5246,2130,468.5246,2134,477.5246" style="stroke:#000000;stroke-width:0.75;stroke-linejoin:miter;stroke-miterlimit:10;"/></g><!--link ERO to CSS--><g class="link" data-entity-1="ent0012" data-entity-2="ent0029" data-link-type="dependency" data-source-line="116" id="lnk52"><path d="M1665.19,365.8246 C1686.4,378.6346 1712.11,393.4646 1736,405.4346 C1744.19,409.5446 1746.89,409.1646 1755,413.4346 C1791.68,432.7746 1827.2532,456.2226 1853.6332,474.5426" fill="none" id="ERO-to-CSS" style="stroke:#000000;stroke-width:0.75;"/><polygon fill="#000000" points="1857.74,477.3946,1852.6294,468.9755,1853.6332,474.5426,1848.0661,475.5464,1857.74,477.3946" style="stroke:#000000;stroke-width:0.75;stroke-linejoin:miter;stroke-miterlimit:10;"/></g><!--link PCL to M2T--><g class="link" data-entity-1="ent0010" data-entity-2="ent0004" data-link-type="dependency" data-source-line="117" id="lnk53"><path d="M2100.24,305.9046 C2074.6,285.8646 2037.47,260.7846 2000,249.2646 C1884.69,213.8146 1058.69,212.0775 791.5,212.4575" fill="none" id="PCL-to-M2T" style="stroke:#000000;stroke-width:0.75;"/><polygon fill="#000000" points="786.5,212.4646,795.5057,216.4518,791.5,212.4575,795.4943,208.4519,786.5,212.4646" style="stroke:#000000;stroke-width:0.75;stroke-linejoin:miter;stroke-miterlimit:10;"/></g><!--link L2N to NXT--><g class="link" data-entity-1="ent0011" data-entity-2="ent0028" data-link-type="dependency" data-source-line="118" id="lnk54"><path d="M1921.46,365.9046 C1945.51,378.5846 1974.41,393.2946 2001,405.4346 C2009.71,409.4146 2012.67,408.7246 2021,413.4346 C2053.57,431.8446 2083.4856,455.332 2105.5156,474.002" fill="none" id="L2N-to-NXT" style="stroke:#000000;stroke-width:0.75;"/><polygon fill="#000000" points="2109.33,477.2346,2105.0501,468.3643,2105.5156,474.002,2099.8779,474.4674,2109.33,477.2346" style="stroke:#000000;stroke-width:0.75;stroke-linejoin:miter;stroke-miterlimit:10;"/></g><!--link ERO to EPUB--><g class="link" data-entity-1="ent0012" data-entity-2="ent0005" data-link-type="dependency" data-source-line="119" id="lnk55"><path d="M1595.25,305.8146 C1576.84,285.7246 1549.39,260.6346 1519,249.2646 C1491.55,239.0046 493.05,245.1546 464,241.2646 C457.46,240.3946 455.6646,240.2168 448.9546,238.8868" fill="none" id="ERO-to-EPUB" style="stroke:#000000;stroke-width:0.75;"/><polygon fill="#000000" points="444.05,237.9146,452.1005,243.5882,448.9546,238.8868,453.656,235.7408,444.05,237.9146" style="stroke:#000000;stroke-width:0.75;stroke-linejoin:miter;stroke-miterlimit:10;"/></g><!--link EPUB to FONT--><g class="link" data-entity-1="ent0005" data-entity-2="ent0006" data-link-type="dependency" data-source-line="120" id="lnk56"><path d="M383.73,241.6346 C402.38,261.1146 423.4015,283.0637 442.0115,302.4937" fill="none" id="EPUB-to-FONT" style="stroke:#000000;stroke-width:0.75;"/><polygon fill="#000000" points="445.47,306.1046,442.1334,296.8382,442.0115,302.4937,436.3559,302.3718,445.47,306.1046" style="stroke:#000000;stroke-width:0.75;stroke-linejoin:miter;stroke-miterlimit:10;"/></g><!--link EPUB to FORMULA--><g class="link" data-entity-1="ent0005" data-entity-2="ent0008" data-link-type="dependency" data-source-line="121" id="lnk57"><path d="M321.16,241.6346 C297.81,261.0446 271.0358,283.2994 247.6858,302.6994" fill="none" id="EPUB-to-FORMULA" style="stroke:#000000;stroke-width:0.75;"/><polygon fill="#000000" points="243.84,305.8946,253.3187,303.2199,247.6858,302.6994,248.2063,297.0665,243.84,305.8946" style="stroke:#000000;stroke-width:0.75;stroke-linejoin:miter;stroke-miterlimit:10;"/></g><!--link ORCH to WC--><g class="link" data-entity-1="ent0003" data-entity-2="ent0007" data-link-type="dependency" data-source-line="122" id="lnk58"><path d="M575.39,241.6246 C579,244.1846 582.57,246.7546 586,249.2646 C610.98,267.5846 634.5595,285.8715 655.8095,302.6915" fill="none" id="ORCH-to-WC" style="stroke:#000000;stroke-width:0.75;"/><polygon fill="#000000" points="659.73,305.7946,655.1557,297.0725,655.8095,302.6915,650.1906,303.3453,659.73,305.7946" style="stroke:#000000;stroke-width:0.75;stroke-linejoin:miter;stroke-miterlimit:10;"/></g><!--link M2T to PDF--><g class="link" data-entity-1="ent0004" data-entity-2="ent0032" data-link-type="dependency" data-source-line="123" id="lnk59"><path d="M786.33,212.3946 C1109.68,211.5346 2278.28,211.0746 2347,249.2646 C2419.46,289.5346 2376.74,364.7946 2449,405.4346 C2472.84,418.8446 2670.61,401.0646 2695,413.4346 C2719.06,425.6446 2734.6872,446.5733 2745.9672,466.5033" fill="none" id="M2T-to-PDF" style="stroke:#000000;stroke-width:0.75;"/><polygon fill="#000000" points="2748.43,470.8546,2747.4781,461.0519,2745.9672,466.5033,2740.5158,464.9924,2748.43,470.8546" style="stroke:#000000;stroke-width:0.75;stroke-linejoin:miter;stroke-miterlimit:10;"/></g><!--link PCL to MDX--><g class="link" data-entity-1="ent0010" data-entity-2="ent0031" data-link-type="dependency" data-source-line="124" id="lnk60"><path d="M2185.02,365.8446 C2213.5,380.5146 2250.17,396.9646 2285,405.4346 C2319.16,413.7446 2411.85,397.1346 2443,413.4346 C2466.61,425.7946 2481.8833,446.4142 2492.9933,466.2142" fill="none" id="PCL-to-MDX" style="stroke:#000000;stroke-width:0.75;"/><polygon fill="#000000" points="2495.44,470.5746,2494.5243,460.7685,2492.9933,466.2142,2487.5476,464.6832,2495.44,470.5746" style="stroke:#000000;stroke-width:0.75;stroke-linejoin:miter;stroke-miterlimit:10;"/></g><!--link L2N to WEB--><g class="link" data-entity-1="ent0011" data-entity-2="ent0033" data-link-type="dependency" data-source-line="125" id="lnk61"><path d="M1912.15,365.9246 C1937.12,380.7146 1969.57,397.2646 2001,405.4346 C2053.5,419.0946 2193.75,395.6446 2245,413.4346 C2278.57,425.0946 2306.901,446.7795 2328.761,466.7795" fill="none" id="L2N-to-WEB" style="stroke:#000000;stroke-width:0.75;"/><polygon fill="#000000" points="2332.45,470.1546,2328.5099,461.1283,2328.761,466.7795,2323.1097,467.0306,2332.45,470.1546" style="stroke:#000000;stroke-width:0.75;stroke-linejoin:miter;stroke-miterlimit:10;"/></g><!--link EPUB to EOUT--><g class="link" data-entity-1="ent0005" data-entity-2="ent0034" data-link-type="dependency" data-source-line="126" id="lnk62"><path d="M444.04,237.9346 C450.76,239.2646 457.46,240.4046 464,241.2646 C488.8,244.5546 2243.82,235.9546 2265,249.2646 C2330.35,290.3446 2276.27,363.3946 2341,405.4346 C2362.82,419.6046 2552.13,401.0346 2575,413.4346 C2600.52,427.2746 2615.5353,452.6818 2624.7353,473.2118" fill="none" id="EPUB-to-EOUT" style="stroke:#000000;stroke-width:0.75;"/><polygon fill="#000000" points="2626.78,477.7746,2626.7498,467.9258,2624.7353,473.2118,2619.4493,471.1974,2626.78,477.7746" style="stroke:#000000;stroke-width:0.75;stroke-linejoin:miter;stroke-miterlimit:10;"/></g><!--link P_SKILLS to P_RESEARCH--><!--link P_DIAGRAM to P_OUTPUT--><?plantuml-src ZLVRRXj56BxVfnY52sxOf1Wgk49oR2Ufi1FZ0mcgApJUdTXJhsUMsTd4BK92LLfJr9P2Ig5KG2iLqQgqAXUGAadRTq4-96_1FxFhpLW5sr5IpUny_-dx3pDz4uLjptOfRWZS3kQvQ211DeaWp24ea1SyWlxvyXQi17KaMYiieseXZrBpdRTGcpFkD0Ll4ojeKUPZq61yH5A4vaaTEws6u25pCzpZ0hsnf7yCX4isSUZ99SxaAWO5S-k4VHHYzWb51Ue8ZbO8dVjlV9bU9EZjb74ODB7Bjobhe4ti1QOZZeU382qXedeeoHc7CorzoXGcduMAWG890jmWQOys6788aqGOg3WOmOW0QUCWxKWk5gV66y6uS8c88QVqZm4fOY6fGttCv7Hz9dYYrbKkoNHr6ZLHJpccQHdq-BFuvxI0pTc14urdL1gdwrghdoVE3EIL9Pw5b0WsqR5gG1mSpA1h19mS9c_xd95Pydy2dQWHoevkKNbXfWADa5EgoPsfcjmfaMQnnFMPY4kGKmg4X-uCh6dOH4qbg23C6juChfr09-T02BuzyR3If4wBmVn1f-RVEsq67qsz2kd8_rDW3CPnY2MfX8dkSDwgmv-z2VEUeE71Jk_Wxy4lyBi34EuZoL6TIyb15HKG4UNCKCyWbG7nqRkcJO5PItqyRNxqeqOkwtj4ZAYnBAmc7nhUUZZuQi-oOXIQ6nxU7jpuhl_dfHeRTt4EuG0LFrqhPLRGvnP2PyiVdiddvzjkZKKoWslTti63SmgcG0eIE8BwCbXekvsK99tvzlcWnWhP3MH_WFAuGZOqkf2gcE1wI3tN9dvO7yFdYjL53LSB4n-4zO18S9B989BeF_cXzsAt_-JcyTqh_MktjTJIskgObMse3Tk1CfA9pE3xPyE3Nu-UtjS2wnaJpdr9st15AIxQeOTjsWQwHlOk_z4__AP_z-NmQhVtwcd_mVNOPAbGpQUjBmnwuGme7_wqWyejwdb1pAhciXpnwWkkngMTqE_1kElKsD5VEuFRTuQFzlhFNg05z3xgFU-2rx3CUQIXBnpUqeQBcRnIfELioMq6TIgm7L19QcnLRz3MEo2OvKuBBiu5LFH07buLMZoVMbNYAWEs81XQo1w5BseiKowZu-xr_fKx81SnhHQQ0YFuN6bjB70WTt3zwN6tgtAozrl_ybuSUYbNpgMJeW8iatOTcYzGnXQsw1RsN6hZ43e1goRGsXTB2hnEwaj4Easm3yiomS9fHhbRqhf4XsxPsnWGMXUyCXWGIrpRnpuHWOQcIniAwt8drR4TZzPOCRk4rZ8bVPfDwTD6CpfQfd8bhAFUmMv_VrS3bbV6qtltvT7zXsFnPS-abqlfGfnRnJEyzg8qLRLbWRSfZwpfg4Z7mHvLdoCYjGTE4nuMzXODGZYxU494Pjp-uE7zmS-lUizlg6BPlncxKCaLYlbq9HSNMFAuXDvHKy5kXDGbDXS4Al82T7JSmxa9uC0NyAuZOeGk5xNly1mWq2sIj7rLVJOq_W8CaYRsuTbcZpw3K4TBLOfvGoekqn5gGKDMDoe6HBiGD0cHyuao9uWo2OKvniNHozr-Tx-t__lmwgFHyAfMYjMAPi6Dxoyq1_C5HjZZUqTVNu9X0QmDxXr2BMiHE1l36fsc2oNIcrNbvgWx3Ct5xJLyyUtmyPqQ-vW8XtX9gsdyUcvnJ6dly4SmhEUQFi-1cogIQ3OZ6uQV7gYMdhrg2-MVhA7MaxKgvcIZQZVPG9qcQpKUaergzcIZclO4LZLq6GPpXjgCeLOLJB9HzP1iL9ejiAetAg5W9nA7b8s-gri0d7aDeyUz-aVlz1WtTj64FI4ZOu6Uo7t8Ig8RqZZIhTXF56YghMJ-scURr7K9EmV_RM6sCPoiapv-3HCLrRy0?></g></svg>