<svg xmlns="http://www.w3.org/2000/svg" xmlns:xlink="http://www.w3.org/1999/xlink" contentStyleType="text/css" data-diagram-type="DESCRIPTION" height="539px" preserveAspectRatio="none" style="width:3865px;height:539px;background:#FFFFFF;" version="1.1" viewBox="0 0 3865 539" width="3865px" zoomAndPan="magnify"><?plantuml 1.2026.6?><defs/><g><g class="title" data-source-line="18"><text fill="#000000" font-family="sans-serif" font-size="14" font-weight="700" lengthAdjust="spacing" textLength="321.6924" x="1768.1538" y="22.9951">cookbook-forge Component Architecture</text></g><!--cluster Orchestration\ncookbook-forge--><g class="cluster" data-qualified-name="Orchestration.ncookbook-forge" data-source-line="22" id="ent0002"><path d="M8.5,135.0969 L132.8545,135.0969 A3.75,3.75 0 0 1 135.3545,137.5969 L142.3545,173.6906 L807.5,173.6906 A2.5,2.5 0 0 1 810,176.1906 L810,384.7869 A2.5,2.5 0 0 1 807.5,387.2869 L8.5,387.2869 A2.5,2.5 0 0 1 6,384.7869 L6,137.5969 A2.5,2.5 0 0 1 8.5,135.0969" fill="#FFFFFF" style="stroke:#000000;stroke-width:1.5;"/><line style="stroke:#000000;stroke-width:1.5;" x1="6" x2="142.3545" y1="173.6906" y2="173.6906"/><text fill="#000000" font-family="sans-serif" font-size="14" font-weight="700" lengthAdjust="spacing" textLength="109.0195" x="17.1675" y="150.092">Orchestration</text><text fill="#000000" font-family="sans-serif" font-size="14" font-weight="700" lengthAdjust="spacing" textLength="123.3545" x="10" y="166.3889">cookbook-forge</text></g><!--cluster Reused Skills--><g class="cluster" data-qualified-name="Reused Skills" data-source-line="31" id="ent0009"><path d="M2622.5,273.6869 L2728.5889,273.6869 A3.75,3.75 0 0 1 2731.0889,276.1869 L2738.0889,295.9838 L3555.5,295.9838 A2.5,2.5 0 0 1 3558,298.4838 L3558,384.7869 A2.5,2.5 0 0 1 3555.5,387.2869 L2622.5,387.2869 A2.5,2.5 0 0 1 2620,384.7869 L2620,276.1869 A2.5,2.5 0 0 1 2622.5,273.6869" fill="#FFFFFF" style="stroke:#000000;stroke-width:1.5;"/><line style="stroke:#000000;stroke-width:1.5;" x1="2620" x2="2738.0889" y1="295.9838" y2="295.9838"/><text fill="#000000" font-family="sans-serif" font-size="14" font-weight="700" lengthAdjust="spacing" textLength="105.0889" x="2624" y="288.682">Reused Skills</text></g><!--cluster Research Tools--><g class="cluster" data-qualified-name="Research Tools" data-source-line="37" id="ent0013"><path d="M886.5,273.6869 L1007.0127,273.6869 A3.75,3.75 0 0 1 1009.5127,276.1869 L1016.5127,295.9838 L1838.5,295.9838 A2.5,2.5 0 0 1 1841,298.4838 L1841,384.7869 A2.5,2.5 0 0 1 1838.5,387.2869 L886.5,387.2869 A2.5,2.5 0 0 1 884,384.7869 L884,276.1869 A2.5,2.5 0 0 1 886.5,273.6869" fill="#FFFFFF" style="stroke:#000000;stroke-width:1.5;"/><line style="stroke:#000000;stroke-width:1.5;" x1="884" x2="1016.5127" y1="295.9838" y2="295.9838"/><text fill="#000000" font-family="sans-serif" font-size="14" font-weight="700" lengthAdjust="spacing" textLength="119.5127" x="888" y="288.682">Research Tools</text></g><!--cluster Diagram Tools--><g class="cluster" data-qualified-name="Diagram Tools" data-source-line="45" id="ent0019"><path d="M1867.5,281.8369 L1982.1201,281.8369 A3.75,3.75 0 0 1 1984.6201,284.3369 L1991.6201,304.1337 L2472.5,304.1337 A2.5,2.5 0 0 1 2475,306.6337 L2475,376.6369 A2.5,2.5 0 0 1 2472.5,379.1369 L1867.5,379.1369 A2.5,2.5 0 0 1 1865,376.6369 L1865,284.3369 A2.5,2.5 0 0 1 1867.5,281.8369" fill="#FFFFFF" style="stroke:#000000;stroke-width:1.5;"/><line style="stroke:#000000;stroke-width:1.5;" x1="1865" x2="1991.6201" y1="304.1337" y2="304.1337"/><text fill="#000000" font-family="sans-serif" font-size="14" font-weight="700" lengthAdjust="spacing" textLength="113.6201" x="1869" y="296.832">Diagram Tools</text></g><!--cluster Templates and Resources--><g class="cluster" data-qualified-name="Templates and Resources" data-source-line="52" id="ent0024"><path d="M1763.5,411.2869 L1967.3291,411.2869 A3.75,3.75 0 0 1 1969.8291,413.7869 L1976.8291,433.5837 L3152.5,433.5837 A2.5,2.5 0 0 1 3155,436.0837 L3155,522.3769 A2.5,2.5 0 0 1 3152.5,524.8769 L1763.5,524.8769 A2.5,2.5 0 0 1 1761,522.3769 L1761,413.7869 A2.5,2.5 0 0 1 1763.5,411.2869" fill="#FFFFFF" style="stroke:#000000;stroke-width:1.5;"/><line style="stroke:#000000;stroke-width:1.5;" x1="1761" x2="1976.8291" y1="433.5837" y2="433.5837"/><text fill="#000000" font-family="sans-serif" font-size="14" font-weight="700" lengthAdjust="spacing" textLength="202.8291" x="1765" y="426.282">Templates and Resources</text></g><!--cluster Output Artifacts--><g class="cluster" data-qualified-name="Output Artifacts" data-source-line="60" id="ent0030"><path d="M3181.5,411.2869 L3310.708,411.2869 A3.75,3.75 0 0 1 3313.208,413.7869 L3320.208,433.5837 L3847.5,433.5837 A2.5,2.5 0 0 1 3850,436.0837 L3850,522.3769 A2.5,2.5 0 0 1 3847.5,524.8769 L3181.5,524.8769 A2.5,2.5 0 0 1 3179,522.3769 L3179,413.7869 A2.5,2.5 0 0 1 3181.5,411.2869" fill="#FFFFFF" style="stroke:#000000;stroke-width:1.5;"/><line style="stroke:#000000;stroke-width:1.5;" x1="3179" x2="3320.208" y1="433.5837" y2="433.5837"/><text fill="#000000" font-family="sans-serif" font-size="14" font-weight="700" lengthAdjust="spacing" textLength="128.208" x="3183" y="426.282">Output Artifacts</text></g><!--entity ORCH--><g class="entity" data-qualified-name="Orchestration.ncookbook-forge.ORCH" data-source-line="23" id="ent0003"><rect fill="#FFFFFF" height="62.5938" rx="2.5" ry="2.5" style="stroke:#000000;stroke-width:0.5;" width="133.4404" x="443.28" y="186.0969"/><rect fill="#FFFFFF" height="10" style="stroke:#000000;stroke-width:0.5;" width="15" x="556.7204" y="191.0969"/><rect fill="#FFFFFF" height="2" style="stroke:#000000;stroke-width:0.5;" width="4" x="554.7204" y="193.0969"/><rect fill="#FFFFFF" height="2" style="stroke:#000000;stroke-width:0.5;" width="4" x="554.7204" y="197.0969"/><text fill="#000000" font-family="sans-serif" font-size="14" lengthAdjust="spacing" textLength="64.7705" x="458.28" y="219.092">SKILL.md</text><text fill="#000000" font-family="sans-serif" font-size="14" lengthAdjust="spacing" textLength="93.4404" x="458.28" y="235.3889">orchestration</text></g><!--entity M2T--><g class="entity" data-qualified-name="Orchestration.ncookbook-forge.M2T" data-source-line="24" id="ent0004"><rect fill="#FFFFFF" height="62.5938" rx="2.5" ry="2.5" style="stroke:#000000;stroke-width:0.5;" width="182.3994" x="611.8" y="186.0969"/><rect fill="#FFFFFF" height="10" style="stroke:#000000;stroke-width:0.5;" width="15" x="774.1994" y="191.0969"/><rect fill="#FFFFFF" height="2" style="stroke:#000000;stroke-width:0.5;" width="4" x="772.1994" y="193.0969"/><rect fill="#FFFFFF" height="2" style="stroke:#000000;stroke-width:0.5;" width="4" x="772.1994" y="197.0969"/><text fill="#000000" font-family="sans-serif" font-size="14" lengthAdjust="spacing" textLength="142.3994" x="626.8" y="219.092">scripts/mdx2tex.mjs</text><text fill="#000000" font-family="sans-serif" font-size="14" lengthAdjust="spacing" textLength="101.2676" x="626.8" y="235.3889">MDX -&gt; LaTeX</text></g><!--entity EPUB--><g class="entity" data-qualified-name="Orchestration.ncookbook-forge.EPUB" data-source-line="25" id="ent0005"><rect fill="#FFFFFF" height="62.5938" rx="2.5" ry="2.5" style="stroke:#000000;stroke-width:0.5;" width="195.0322" x="213.48" y="186.0969"/><rect fill="#FFFFFF" height="10" style="stroke:#000000;stroke-width:0.5;" width="15" x="388.5122" y="191.0969"/><rect fill="#FFFFFF" height="2" style="stroke:#000000;stroke-width:0.5;" width="4" x="386.5122" y="193.0969"/><rect fill="#FFFFFF" height="2" style="stroke:#000000;stroke-width:0.5;" width="4" x="386.5122" y="197.0969"/><text fill="#000000" font-family="sans-serif" font-size="14" lengthAdjust="spacing" textLength="155.0322" x="228.48" y="219.092">scripts/build-epub.mjs</text><text fill="#000000" font-family="sans-serif" font-size="14" lengthAdjust="spacing" textLength="95.2725" x="228.48" y="235.3889">MDX -&gt; EPUB</text></g><!--entity FONT--><g class="entity" data-qualified-name="Orchestration.ncookbook-forge.FONT" data-source-line="26" id="ent0006"><rect fill="#FFFFFF" height="62.5938" rx="2.5" ry="2.5" style="stroke:#000000;stroke-width:0.5;" width="206.9473" x="352.53" y="308.6869"/><rect fill="#FFFFFF" height="10" style="stroke:#000000;stroke-width:0.5;" width="15" x="539.4773" y="313.6869"/><rect fill="#FFFFFF" height="2" style="stroke:#000000;stroke-width:0.5;" width="4" x="537.4773" y="315.6869"/><rect fill="#FFFFFF" height="2" style="stroke:#000000;stroke-width:0.5;" width="4" x="537.4773" y="319.6869"/><text fill="#000000" font-family="sans-serif" font-size="14" lengthAdjust="spacing" textLength="166.9473" x="367.53" y="341.682">scripts/subset-fonts.mjs</text><text fill="#000000" font-family="sans-serif" font-size="14" lengthAdjust="spacing" textLength="105.8955" x="367.53" y="357.9789">font subsetting</text></g><!--entity WC--><g class="entity" data-qualified-name="Orchestration.ncookbook-forge.WC" data-source-line="27" id="ent0007"><rect fill="#FFFFFF" height="62.5938" rx="2.5" ry="2.5" style="stroke:#000000;stroke-width:0.5;" width="199.5029" x="594.25" y="308.6869"/><rect fill="#FFFFFF" height="10" style="stroke:#000000;stroke-width:0.5;" width="15" x="773.7529" y="313.6869"/><rect fill="#FFFFFF" height="2" style="stroke:#000000;stroke-width:0.5;" width="4" x="771.7529" y="315.6869"/><rect fill="#FFFFFF" height="2" style="stroke:#000000;stroke-width:0.5;" width="4" x="771.7529" y="319.6869"/><text fill="#000000" font-family="sans-serif" font-size="14" lengthAdjust="spacing" textLength="159.5029" x="609.25" y="341.682">scripts/word-count.mjs</text><text fill="#000000" font-family="sans-serif" font-size="14" lengthAdjust="spacing" textLength="78.6064" x="609.25" y="357.9789">word count</text></g><!--entity FORMULA--><g class="entity" data-qualified-name="Orchestration.ncookbook-forge.FORMULA" data-source-line="28" id="ent0008"><rect fill="#FFFFFF" height="62.5938" rx="2.5" ry="2.5" style="stroke:#000000;stroke-width:0.5;" width="295.8486" x="22.08" y="308.6869"/><rect fill="#FFFFFF" height="10" style="stroke:#000000;stroke-width:0.5;" width="15" x="297.9286" y="313.6869"/><rect fill="#FFFFFF" height="2" style="stroke:#000000;stroke-width:0.5;" width="4" x="295.9286" y="315.6869"/><rect fill="#FFFFFF" height="2" style="stroke:#000000;stroke-width:0.5;" width="4" x="295.9286" y="319.6869"/><text fill="#000000" font-family="sans-serif" font-size="14" lengthAdjust="spacing" textLength="255.8486" x="37.08" y="341.682">scripts/optimize-formula-images.mjs</text><text fill="#000000" font-family="sans-serif" font-size="14" lengthAdjust="spacing" textLength="148.2168" x="37.08" y="357.9789">formula image repair</text></g><!--entity PCL--><g class="entity" data-qualified-name="Reused Skills.PCL" data-source-line="32" id="ent0010"><rect fill="#FFFFFF" height="62.5938" rx="2.5" ry="2.5" style="stroke:#000000;stroke-width:0.5;" width="300.4902" x="3241.75" y="308.6869"/><rect fill="#FFFFFF" height="10" style="stroke:#000000;stroke-width:0.5;" width="15" x="3522.2402" y="313.6869"/><rect fill="#FFFFFF" height="2" style="stroke:#000000;stroke-width:0.5;" width="4" x="3520.2402" y="315.6869"/><rect fill="#FFFFFF" height="2" style="stroke:#000000;stroke-width:0.5;" width="4" x="3520.2402" y="319.6869"/><text fill="#000000" font-family="sans-serif" font-size="14" lengthAdjust="spacing" textLength="160.918" x="3256.75" y="341.682">project-cookbook-latex</text><text fill="#000000" font-family="sans-serif" font-size="14" lengthAdjust="spacing" textLength="260.4902" x="3256.75" y="357.9789">research / 80k+ words / ElegantBook</text></g><!--entity L2N--><g class="entity" data-qualified-name="Reused Skills.L2N" data-source-line="33" id="ent0011"><rect fill="#FFFFFF" height="62.5938" rx="2.5" ry="2.5" style="stroke:#000000;stroke-width:0.5;" width="250.9912" x="2955.5" y="308.6869"/><rect fill="#FFFFFF" height="10" style="stroke:#000000;stroke-width:0.5;" width="15" x="3186.4912" y="313.6869"/><rect fill="#FFFFFF" height="2" style="stroke:#000000;stroke-width:0.5;" width="4" x="3184.4912" y="315.6869"/><rect fill="#FFFFFF" height="2" style="stroke:#000000;stroke-width:0.5;" width="4" x="3184.4912" y="319.6869"/><text fill="#000000" font-family="sans-serif" font-size="14" lengthAdjust="spacing" textLength="134.9482" x="2970.5" y="341.682">latex-to-nextra-site</text><text fill="#000000" font-family="sans-serif" font-size="14" lengthAdjust="spacing" textLength="210.9912" x="2970.5" y="357.9789">Nextra v3 / Docker / PlantUML</text></g><!--entity ERO--><g class="entity" data-qualified-name="Reused Skills.ERO" data-source-line="34" id="ent0012"><rect fill="#FFFFFF" height="62.5938" rx="2.5" ry="2.5" style="stroke:#000000;stroke-width:0.5;" width="284.1113" x="2635.94" y="308.6869"/><rect fill="#FFFFFF" height="10" style="stroke:#000000;stroke-width:0.5;" width="15" x="2900.0513" y="313.6869"/><rect fill="#FFFFFF" height="2" style="stroke:#000000;stroke-width:0.5;" width="4" x="2898.0513" y="315.6869"/><rect fill="#FFFFFF" height="2" style="stroke:#000000;stroke-width:0.5;" width="4" x="2898.0513" y="319.6869"/><text fill="#000000" font-family="sans-serif" font-size="14" lengthAdjust="spacing" textLength="157.6436" x="2650.94" y="341.682">epub-reader-optimizer</text><text fill="#000000" font-family="sans-serif" font-size="14" lengthAdjust="spacing" textLength="244.1113" x="2650.94" y="357.9789">CSS rewrite / fonts / formula repair</text></g><!--entity BR--><g class="entity" data-qualified-name="Research Tools.BR" data-source-line="38" id="ent0014"><rect fill="#FFFFFF" height="62.5938" rx="2.5" ry="2.5" style="stroke:#000000;stroke-width:0.5;" width="176.0146" x="899.99" y="308.6869"/><rect fill="#FFFFFF" height="10" style="stroke:#000000;stroke-width:0.5;" width="15" x="1056.0046" y="313.6869"/><rect fill="#FFFFFF" height="2" style="stroke:#000000;stroke-width:0.5;" width="4" x="1054.0046" y="315.6869"/><rect fill="#FFFFFF" height="2" style="stroke:#000000;stroke-width:0.5;" width="4" x="1054.0046" y="319.6869"/><text fill="#000000" font-family="sans-serif" font-size="14" lengthAdjust="spacing" textLength="101.8145" x="914.99" y="341.682">agent-browser</text><text fill="#000000" font-family="sans-serif" font-size="14" lengthAdjust="spacing" textLength="136.0146" x="914.99" y="357.9789">/vivaldi-automation</text></g><!--entity WF--><g class="entity" data-qualified-name="Research Tools.WF" data-source-line="39" id="ent0015"><rect fill="#FFFFFF" height="46.2969" rx="2.5" ry="2.5" style="stroke:#000000;stroke-width:0.5;" width="203.4336" x="1111.28" y="316.8369"/><rect fill="#FFFFFF" height="10" style="stroke:#000000;stroke-width:0.5;" width="15" x="1294.7136" y="321.8369"/><rect fill="#FFFFFF" height="2" style="stroke:#000000;stroke-width:0.5;" width="4" x="1292.7136" y="323.8369"/><rect fill="#FFFFFF" height="2" style="stroke:#000000;stroke-width:0.5;" width="4" x="1292.7136" y="327.8369"/><text fill="#000000" font-family="sans-serif" font-size="14" lengthAdjust="spacing" textLength="163.4336" x="1126.28" y="349.832">WebFetch / WebSearch</text></g><!--entity ARX--><g class="entity" data-qualified-name="Research Tools.ARX" data-source-line="40" id="ent0016"><rect fill="#FFFFFF" height="62.5938" rx="2.5" ry="2.5" style="stroke:#000000;stroke-width:0.5;" width="171.0928" x="1349.45" y="308.6869"/><rect fill="#FFFFFF" height="10" style="stroke:#000000;stroke-width:0.5;" width="15" x="1500.5428" y="313.6869"/><rect fill="#FFFFFF" height="2" style="stroke:#000000;stroke-width:0.5;" width="4" x="1498.5428" y="315.6869"/><rect fill="#FFFFFF" height="2" style="stroke:#000000;stroke-width:0.5;" width="4" x="1498.5428" y="319.6869"/><text fill="#000000" font-family="sans-serif" font-size="14" lengthAdjust="spacing" textLength="96.3047" x="1364.45" y="341.682">arxiv-watcher</text><text fill="#000000" font-family="sans-serif" font-size="14" lengthAdjust="spacing" textLength="131.0928" x="1364.45" y="357.9789">/connected-papers</text></g><!--entity D2X--><g class="entity" data-qualified-name="Research Tools.D2X" data-source-line="41" id="ent0017"><rect fill="#FFFFFF" height="62.5938" rx="2.5" ry="2.5" style="stroke:#000000;stroke-width:0.5;" width="102.8701" x="1555.56" y="308.6869"/><rect fill="#FFFFFF" height="10" style="stroke:#000000;stroke-width:0.5;" width="15" x="1638.4301" y="313.6869"/><rect fill="#FFFFFF" height="2" style="stroke:#000000;stroke-width:0.5;" width="4" x="1636.4301" y="315.6869"/><rect fill="#FFFFFF" height="2" style="stroke:#000000;stroke-width:0.5;" width="4" x="1636.4301" y="319.6869"/><text fill="#000000" font-family="sans-serif" font-size="14" lengthAdjust="spacing" textLength="62.8701" x="1570.56" y="341.682">doc2x-cli</text><text fill="#000000" font-family="sans-serif" font-size="14" lengthAdjust="spacing" textLength="62.248" x="1570.56" y="357.9789">PDF OCR</text></g><!--entity GH--><g class="entity" data-qualified-name="Research Tools.GH" data-source-line="42" id="ent0018"><rect fill="#FFFFFF" height="62.5938" rx="2.5" ry="2.5" style="stroke:#000000;stroke-width:0.5;" width="132.0801" x="1692.96" y="308.6869"/><rect fill="#FFFFFF" height="10" style="stroke:#000000;stroke-width:0.5;" width="15" x="1805.0401" y="313.6869"/><rect fill="#FFFFFF" height="2" style="stroke:#000000;stroke-width:0.5;" width="4" x="1803.0401" y="315.6869"/><rect fill="#FFFFFF" height="2" style="stroke:#000000;stroke-width:0.5;" width="4" x="1803.0401" y="319.6869"/><text fill="#000000" font-family="sans-serif" font-size="14" lengthAdjust="spacing" textLength="38.2881" x="1707.96" y="341.682">gh-cli</text><text fill="#000000" font-family="sans-serif" font-size="14" lengthAdjust="spacing" textLength="92.0801" x="1707.96" y="357.9789">GitHub repos</text></g><!--entity PU--><g class="entity" data-qualified-name="Diagram Tools.PU" data-source-line="46" id="ent0020"><rect fill="#FFFFFF" height="46.2969" rx="2.5" ry="2.5" style="stroke:#000000;stroke-width:0.5;" width="102.1182" x="1880.94" y="316.8369"/><rect fill="#FFFFFF" height="10" style="stroke:#000000;stroke-width:0.5;" width="15" x="1963.0582" y="321.8369"/><rect fill="#FFFFFF" height="2" style="stroke:#000000;stroke-width:0.5;" width="4" x="1961.0582" y="323.8369"/><rect fill="#FFFFFF" height="2" style="stroke:#000000;stroke-width:0.5;" width="4" x="1961.0582" y="327.8369"/><text fill="#000000" font-family="sans-serif" font-size="14" lengthAdjust="spacing" textLength="62.1182" x="1895.94" y="349.832">plantuml</text></g><!--entity DR--><g class="entity" data-qualified-name="Diagram Tools.DR" data-source-line="47" id="ent0021"><rect fill="#FFFFFF" height="46.2969" rx="2.5" ry="2.5" style="stroke:#000000;stroke-width:0.5;" width="87.127" x="2018.44" y="316.8369"/><rect fill="#FFFFFF" height="10" style="stroke:#000000;stroke-width:0.5;" width="15" x="2085.567" y="321.8369"/><rect fill="#FFFFFF" height="2" style="stroke:#000000;stroke-width:0.5;" width="4" x="2083.567" y="323.8369"/><rect fill="#FFFFFF" height="2" style="stroke:#000000;stroke-width:0.5;" width="4" x="2083.567" y="327.8369"/><text fill="#000000" font-family="sans-serif" font-size="14" lengthAdjust="spacing" textLength="47.127" x="2033.44" y="349.832">drawio</text></g><!--entity EX--><g class="entity" data-qualified-name="Diagram Tools.EX" data-source-line="48" id="ent0022"><rect fill="#FFFFFF" height="46.2969" rx="2.5" ry="2.5" style="stroke:#000000;stroke-width:0.5;" width="115.626" x="2140.19" y="316.8369"/><rect fill="#FFFFFF" height="10" style="stroke:#000000;stroke-width:0.5;" width="15" x="2235.816" y="321.8369"/><rect fill="#FFFFFF" height="2" style="stroke:#000000;stroke-width:0.5;" width="4" x="2233.816" y="323.8369"/><rect fill="#FFFFFF" height="2" style="stroke:#000000;stroke-width:0.5;" width="4" x="2233.816" y="327.8369"/><text fill="#000000" font-family="sans-serif" font-size="14" lengthAdjust="spacing" textLength="75.626" x="2155.19" y="349.832">excalidraw</text></g><!--entity CH--><g class="entity" data-qualified-name="Diagram Tools.CH" data-source-line="49" id="ent0023"><rect fill="#FFFFFF" height="46.2969" rx="2.5" ry="2.5" style="stroke:#000000;stroke-width:0.5;" width="168.8916" x="2290.55" y="316.8369"/><rect fill="#FFFFFF" height="10" style="stroke:#000000;stroke-width:0.5;" width="15" x="2439.4416" y="321.8369"/><rect fill="#FFFFFF" height="2" style="stroke:#000000;stroke-width:0.5;" width="4" x="2437.4416" y="323.8369"/><rect fill="#FFFFFF" height="2" style="stroke:#000000;stroke-width:0.5;" width="4" x="2437.4416" y="327.8369"/><text fill="#000000" font-family="sans-serif" font-size="14" lengthAdjust="spacing" textLength="128.8916" x="2305.55" y="349.832">chart-visualization</text></g><!--entity ORE--><g class="entity" data-qualified-name="Templates and Resources.ORE" data-source-line="53" id="ent0025"><rect fill="#FFFFFF" height="46.2969" rx="2.5" ry="2.5" style="stroke:#000000;stroke-width:0.5;" width="272.1621" x="2009.92" y="454.4269"/><rect fill="#FFFFFF" height="10" style="stroke:#000000;stroke-width:0.5;" width="15" x="2262.0821" y="459.4269"/><rect fill="#FFFFFF" height="2" style="stroke:#000000;stroke-width:0.5;" width="4" x="2260.0821" y="461.4269"/><rect fill="#FFFFFF" height="2" style="stroke:#000000;stroke-width:0.5;" width="4" x="2260.0821" y="465.4269"/><text fill="#000000" font-family="sans-serif" font-size="14" lengthAdjust="spacing" textLength="232.1621" x="2024.92" y="487.422">references/style-guide-oreilly.md</text></g><!--entity SPR--><g class="entity" data-qualified-name="Templates and Resources.SPR" data-source-line="54" id="ent0026"><rect fill="#FFFFFF" height="46.2969" rx="2.5" ry="2.5" style="stroke:#000000;stroke-width:0.5;" width="287.2285" x="2317.39" y="454.4269"/><rect fill="#FFFFFF" height="10" style="stroke:#000000;stroke-width:0.5;" width="15" x="2584.6185" y="459.4269"/><rect fill="#FFFFFF" height="2" style="stroke:#000000;stroke-width:0.5;" width="4" x="2582.6185" y="461.4269"/><rect fill="#FFFFFF" height="2" style="stroke:#000000;stroke-width:0.5;" width="4" x="2582.6185" y="465.4269"/><text fill="#000000" font-family="sans-serif" font-size="14" lengthAdjust="spacing" textLength="247.2285" x="2332.39" y="487.422">references/style-guide-springer.md</text></g><!--entity TPL--><g class="entity" data-qualified-name="Templates and Resources.TPL" data-source-line="55" id="ent0027"><rect fill="#FFFFFF" height="62.5938" rx="2.5" ry="2.5" style="stroke:#000000;stroke-width:0.5;" width="197.4043" x="1777.3" y="446.2869"/><rect fill="#FFFFFF" height="10" style="stroke:#000000;stroke-width:0.5;" width="15" x="1954.7043" y="451.2869"/><rect fill="#FFFFFF" height="2" style="stroke:#000000;stroke-width:0.5;" width="4" x="1952.7043" y="453.2869"/><rect fill="#FFFFFF" height="2" style="stroke:#000000;stroke-width:0.5;" width="4" x="1952.7043" y="457.2869"/><text fill="#000000" font-family="sans-serif" font-size="14" lengthAdjust="spacing" textLength="153.0566" x="1792.3" y="479.282">assets/template-mdx/</text><text fill="#000000" font-family="sans-serif" font-size="14" lengthAdjust="spacing" textLength="157.4043" x="1792.3" y="495.5789">chapter-template.mdx</text></g><!--entity NXT--><g class="entity" data-qualified-name="Templates and Resources.NXT" data-source-line="56" id="ent0028"><rect fill="#FFFFFF" height="46.2969" rx="2.5" ry="2.5" style="stroke:#000000;stroke-width:0.5;" width="207.8428" x="2931.08" y="454.4269"/><rect fill="#FFFFFF" height="10" style="stroke:#000000;stroke-width:0.5;" width="15" x="3118.9228" y="459.4269"/><rect fill="#FFFFFF" height="2" style="stroke:#000000;stroke-width:0.5;" width="4" x="3116.9228" y="461.4269"/><rect fill="#FFFFFF" height="2" style="stroke:#000000;stroke-width:0.5;" width="4" x="3116.9228" y="465.4269"/><text fill="#000000" font-family="sans-serif" font-size="14" lengthAdjust="spacing" textLength="167.8428" x="2946.08" y="487.422">assets/nextra-template/</text></g><!--entity CSS--><g class="entity" data-qualified-name="Templates and Resources.CSS" data-source-line="57" id="ent0029"><rect fill="#FFFFFF" height="46.2969" rx="2.5" ry="2.5" style="stroke:#000000;stroke-width:0.5;" width="256.1182" x="2639.94" y="454.4269"/><rect fill="#FFFFFF" height="10" style="stroke:#000000;stroke-width:0.5;" width="15" x="2876.0582" y="459.4269"/><rect fill="#FFFFFF" height="2" style="stroke:#000000;stroke-width:0.5;" width="4" x="2874.0582" y="461.4269"/><rect fill="#FFFFFF" height="2" style="stroke:#000000;stroke-width:0.5;" width="4" x="2874.0582" y="465.4269"/><text fill="#000000" font-family="sans-serif" font-size="14" lengthAdjust="spacing" textLength="216.1182" x="2654.94" y="487.422">assets/stylesheet.template.css</text></g><!--entity MDX--><g class="entity" data-qualified-name="Output Artifacts.MDX" data-source-line="61" id="ent0031"><path d="M3368.06,456.7869 C3368.06,446.7869 3445.0009,446.7869 3445.0009,446.7869 C3445.0009,446.7869 3521.9418,446.7869 3521.9418,456.7869 L3521.9418,498.3806 C3521.9418,508.3806 3445.0009,508.3806 3445.0009,508.3806 C3445.0009,508.3806 3368.06,508.3806 3368.06,498.3806 L3368.06,456.7869" fill="#FFFFFF" style="stroke:#000000;stroke-width:0.5;"/><path d="M3368.06,456.7869 C3368.06,466.7869 3445.0009,466.7869 3445.0009,466.7869 C3445.0009,466.7869 3521.9418,466.7869 3521.9418,456.7869" fill="none" style="stroke:#000000;stroke-width:0.5;"/><text fill="#000000" font-family="sans-serif" font-size="14" lengthAdjust="spacing" textLength="32.4502" x="3378.06" y="483.782">MDX</text><text fill="#000000" font-family="sans-serif" font-size="14" lengthAdjust="spacing" textLength="133.8818" x="3378.06" y="500.0789">chapterized source</text></g><!--entity PDF--><g class="entity" data-qualified-name="Output Artifacts.PDF" data-source-line="62" id="ent0032"><path d="M3725.99,456.7869 C3725.99,446.7869 3779.9998,446.7869 3779.9998,446.7869 C3779.9998,446.7869 3834.0095,446.7869 3834.0095,456.7869 L3834.0095,498.3806 C3834.0095,508.3806 3779.9998,508.3806 3779.9998,508.3806 C3779.9998,508.3806 3725.99,508.3806 3725.99,498.3806 L3725.99,456.7869" fill="#FFFFFF" style="stroke:#000000;stroke-width:0.5;"/><path d="M3725.99,456.7869 C3725.99,466.7869 3779.9998,466.7869 3779.9998,466.7869 C3779.9998,466.7869 3834.0095,466.7869 3834.0095,456.7869" fill="none" style="stroke:#000000;stroke-width:0.5;"/><text fill="#000000" font-family="sans-serif" font-size="14" lengthAdjust="spacing" textLength="88.0195" x="3735.99" y="483.782">ElegantBook</text><text fill="#000000" font-family="sans-serif" font-size="14" lengthAdjust="spacing" textLength="27.2754" x="3735.99" y="500.0789">PDF</text></g><!--entity WEB--><g class="entity" data-qualified-name="Output Artifacts.WEB" data-source-line="63" id="ent0033"><path d="M3204.3009,454.4822 C3207.2575,448.2411 3212.9429,449.4002 3215.9232,454.4579 C3219.3857,449.1519 3224.5757,448.841 3228.0117,454.487 C3231.0261,447.1897 3237.6005,446.9272 3241.3116,453.8346 C3244.8982,447.8735 3248.3691,447.5398 3252.3434,453.4752 C3256.4227,447.6934 3261.3091,447.4957 3265.338,453.5306 C3269.1572,449.1176 3273.1428,447.9794 3276.6143,453.9098 C3280.1495,447.5931 3285.9297,448.8514 3289.1462,454.2507 C3292.4407,448.2391 3297.551,448.0219 3301.1572,453.9367 C3306.2715,448.5102 3310.1293,448.9227 3313.9988,455.2919 C3317.3795,450.063 3322.9711,450.7173 3325.6309,456.0833 C3330.5305,458.4558 3331.102,462.4365 3327.1335,466.1346 C3332.7493,469.1267 3333.0502,474.4528 3327.8489,478.0921 C3334.1305,482.4807 3333.7262,486.4238 3327.1825,490.1008 C3332.3663,495.444 3331.5751,499.3008 3324.9015,502.4546 C3322.6192,507.4504 3317.7909,507.4927 3314.5191,503.612 C3310.2001,509.647 3306.4529,508.8084 3302.0977,503.6522 C3298.2715,509.48 3293.2697,510.411 3289.0723,504.0488 C3286.6969,509.6562 3280.953,512.2878 3276.5442,506.2331 C3273.755,512.2863 3270.0182,513.2019 3265.5985,507.7896 C3261.0524,513.5433 3255.9218,513.3247 3253.2027,506.0511 C3249.2422,513.0807 3244.1984,511.6497 3240.2263,506.0631 C3236.2589,511.6361 3230.794,511.2316 3227.92,504.93 C3223.8136,508.6638 3220.0382,508.5047 3217.3766,503.2376 C3213.0415,508.7731 3206.6529,508.7744 3203.7409,501.6989 C3196.5845,499.2971 3196.5492,494.4692 3201.1122,489.5348 C3195.4527,487.5009 3194.0914,483.9604 3197.6123,478.9041 C3193.5027,474.6382 3194.4683,468.798 3200.808,467.4467 C3195.1964,461.1933 3197.1947,457.3092 3204.3009,454.4822" fill="#FFFFFF" style="stroke:#000000;stroke-width:0.5;"/><text fill="#000000" font-family="sans-serif" font-size="14" lengthAdjust="spacing" textLength="76.9316" x="3210.36" y="474.282">Nextra site</text><text fill="#000000" font-family="sans-serif" font-size="14" lengthAdjust="spacing" textLength="107.2832" x="3210.36" y="490.5789">Vercel / Docker</text></g><!--entity EOUT--><g class="entity" data-qualified-name="Output Artifacts.EOUT" data-source-line="64" id="ent0034"><path d="M3557.37,464.9269 C3557.37,454.9269 3623.9955,454.9269 3623.9955,454.9269 C3623.9955,454.9269 3690.621,454.9269 3690.621,464.9269 L3690.621,490.2238 C3690.621,500.2238 3623.9955,500.2238 3623.9955,500.2238 C3623.9955,500.2238 3557.37,500.2238 3557.37,490.2238 L3557.37,464.9269" fill="#FFFFFF" style="stroke:#000000;stroke-width:0.5;"/><path d="M3557.37,464.9269 C3557.37,474.9269 3623.9955,474.9269 3623.9955,474.9269 C3623.9955,474.9269 3690.621,474.9269 3690.621,464.9269" fill="none" style="stroke:#000000;stroke-width:0.5;"/><text fill="#000000" font-family="sans-serif" font-size="14" lengthAdjust="spacing" textLength="113.251" x="3567.37" y="491.922">Optimized EPUB</text></g><!--entity User--><g class="entity" data-qualified-name="User" data-source-line="20" id="ent0001"><ellipse cx="509.9951" cy="51.2969" fill="#FFFFFF" rx="8" ry="8" style="stroke:#000000;stroke-width:0.5;"/><path d="M509.9951,59.2969 L509.9951,86.2969 M496.9951,67.2969 L522.9951,67.2969 M509.9951,86.2969 L496.9951,101.2969 M509.9951,86.2969 L522.9951,101.2969" fill="none" style="stroke:#000000;stroke-width:0.5;"/><text fill="#000000" font-family="sans-serif" font-size="14" lengthAdjust="spacing" textLength="31.9102" x="494.04" y="115.792">User</text></g><!--link User to ORCH--><g class="link" data-entity-1="ent0001" data-entity-2="ent0003" data-link-type="dependency" data-source-line="67" id="lnk35"><path d="M510,119.3969 C510,140.3769 510,161.2069 510,180.9269" fill="none" id="User-to-ORCH" style="stroke:#000000;stroke-width:0.75;"/><polygon fill="#000000" points="510,185.9269,514,176.9269,510,180.9269,506,176.9269,510,185.9269" style="stroke:#000000;stroke-width:0.75;stroke-linejoin:miter;stroke-miterlimit:10;"/></g><!--link ORCH to BR--><g class="link" data-entity-1="ent0003" data-entity-2="ent0014" data-link-type="dependency" data-source-line="68" id="lnk36"><path d="M576.91,244.4269 C582.63,246.0769 588.38,247.5269 594,248.6869 C715.67,273.7969 754.85,227.2969 873,265.6869 C901.15,274.8369 925.1915,289.5653 946.5615,305.2753" fill="none" id="ORCH-to-BR" style="stroke:#000000;stroke-width:0.75;"/><polygon fill="#000000" points="950.59,308.2369,945.7079,299.6832,946.5615,305.2753,940.9694,306.1289,950.59,308.2369" style="stroke:#000000;stroke-width:0.75;stroke-linejoin:miter;stroke-miterlimit:10;"/></g><!--link ORCH to WF--><g class="link" data-entity-1="ent0003" data-entity-2="ent0015" data-link-type="dependency" data-source-line="69" id="lnk37"><path d="M576.88,244.5969 C582.61,246.2069 588.37,247.6069 594,248.6869 C703.17,269.6969 987.56,233.5769 1094,265.6869 C1128.38,276.0669 1158.8032,295.9061 1181.7132,313.3661" fill="none" id="ORCH-to-WF" style="stroke:#000000;stroke-width:0.75;"/><polygon fill="#000000" points="1185.69,316.3969,1180.9564,307.7601,1181.7132,313.3661,1176.1072,314.123,1185.69,316.3969" style="stroke:#000000;stroke-width:0.75;stroke-linejoin:miter;stroke-miterlimit:10;"/></g><!--link ORCH to ARX--><g class="link" data-entity-1="ent0003" data-entity-2="ent0016" data-link-type="dependency" data-source-line="70" id="lnk38"><path d="M576.86,244.6669 C582.6,246.2569 588.36,247.6369 594,248.6869 C674.63,263.7469 1254.16,239.8269 1332,265.6869 C1358.24,274.4069 1379.7793,289.0835 1398.7693,305.0135" fill="none" id="ORCH-to-ARX" style="stroke:#000000;stroke-width:0.75;"/><polygon fill="#000000" points="1402.6,308.2269,1398.2755,299.3782,1398.7693,305.0135,1393.1341,305.5073,1402.6,308.2269" style="stroke:#000000;stroke-width:0.75;stroke-linejoin:miter;stroke-miterlimit:10;"/></g><!--link ORCH to D2X--><g class="link" data-entity-1="ent0003" data-entity-2="ent0017" data-link-type="dependency" data-source-line="71" id="lnk39"><path d="M576.86,244.6969 C582.59,246.2769 588.36,247.6469 594,248.6869 C645.59,258.1869 1490.04,244.4569 1538,265.6869 C1558.14,274.6069 1572.1396,288.5198 1584.2396,304.3998" fill="none" id="ORCH-to-D2X" style="stroke:#000000;stroke-width:0.75;"/><polygon fill="#000000" points="1587.27,308.3769,1584.997,298.7939,1584.2396,304.3998,1578.6337,303.6425,1587.27,308.3769" style="stroke:#000000;stroke-width:0.75;stroke-linejoin:miter;stroke-miterlimit:10;"/></g><!--link ORCH to GH--><g class="link" data-entity-1="ent0003" data-entity-2="ent0018" data-link-type="dependency" data-source-line="72" id="lnk40"><path d="M576.86,244.7069 C582.59,246.2869 588.36,247.6569 594,248.6869 C653.14,259.5069 1619.94,243.9769 1676,265.6869 C1698.59,274.4369 1715.6272,288.682 1730.5772,304.602" fill="none" id="ORCH-to-GH" style="stroke:#000000;stroke-width:0.75;"/><polygon fill="#000000" points="1734,308.2469,1730.7549,298.948,1730.5772,304.602,1724.9232,304.4244,1734,308.2469" style="stroke:#000000;stroke-width:0.75;stroke-linejoin:miter;stroke-miterlimit:10;"/></g><!--link ORCH to PCL--><g class="link" data-entity-1="ent0003" data-entity-2="ent0010" data-link-type="dependency" data-source-line="73" id="lnk41"><path d="M576.84,244.7669 C582.58,246.3369 588.35,247.6869 594,248.6869 C737.85,274.3169 3081.06,235.3869 3224,265.6869 C3263.53,274.0669 3300.7263,289.9241 3332.6663,306.0441" fill="none" id="ORCH-to-PCL" style="stroke:#000000;stroke-width:0.75;"/><polygon fill="#000000" points="3337.13,308.2969,3330.8976,300.6708,3332.6663,306.0441,3327.293,307.8128,3337.13,308.2969" style="stroke:#000000;stroke-width:0.75;stroke-linejoin:miter;stroke-miterlimit:10;"/></g><!--link ORCH to L2N--><g class="link" data-entity-1="ent0003" data-entity-2="ent0011" data-link-type="dependency" data-source-line="74" id="lnk42"><path d="M576.85,244.7569 C582.58,246.3269 588.35,247.6769 594,248.6869 C722.2,271.5769 2811.52,234.6769 2938,265.6869 C2972.41,274.1269 3003.5762,289.6649 3030.5762,305.7749" fill="none" id="ORCH-to-L2N" style="stroke:#000000;stroke-width:0.75;"/><polygon fill="#000000" points="3034.87,308.3369,3029.1908,300.2904,3030.5762,305.7749,3025.0917,307.1604,3034.87,308.3369" style="stroke:#000000;stroke-width:0.75;stroke-linejoin:miter;stroke-miterlimit:10;"/></g><!--link ORCH to ERO--><g class="link" data-entity-1="ent0003" data-entity-2="ent0012" data-link-type="dependency" data-source-line="75" id="lnk43"><path d="M576.85,244.7569 C582.59,246.3269 588.35,247.6769 594,248.6869 C814.39,288.1769 2389.97,219.2769 2609,265.6869 C2648.73,274.1069 2686.1701,289.9764 2718.3101,306.0864" fill="none" id="ORCH-to-ERO" style="stroke:#000000;stroke-width:0.75;"/><polygon fill="#000000" points="2722.78,308.3269,2716.5266,300.718,2718.3101,306.0864,2712.9418,307.8699,2722.78,308.3269" style="stroke:#000000;stroke-width:0.75;stroke-linejoin:miter;stroke-miterlimit:10;"/></g><!--link ORCH to PU--><g class="link" data-entity-1="ent0003" data-entity-2="ent0020" data-link-type="dependency" data-source-line="76" id="lnk44"><path d="M576.85,244.7169 C582.59,246.2969 588.36,247.6669 594,248.6869 C662.17,261.0869 1775.82,242.2069 1841,265.6869 C1869.44,275.9369 1892.1328,295.4843 1909.0328,313.0443" fill="none" id="ORCH-to-PU" style="stroke:#000000;stroke-width:0.75;"/><polygon fill="#000000" points="1912.5,316.6469,1909.1411,307.3885,1909.0328,313.0443,1903.377,312.936,1912.5,316.6469" style="stroke:#000000;stroke-width:0.75;stroke-linejoin:miter;stroke-miterlimit:10;"/></g><!--link ORCH to DR--><g class="link" data-entity-1="ent0003" data-entity-2="ent0021" data-link-type="dependency" data-source-line="77" id="lnk45"><path d="M576.85,244.7269 C582.59,246.3069 588.36,247.6669 594,248.6869 C670.92,262.6169 1930.42,232.0869 2001,265.6869 C2023.12,276.2269 2037.4939,294.7796 2047.8439,312.1796" fill="none" id="ORCH-to-DR" style="stroke:#000000;stroke-width:0.75;"/><polygon fill="#000000" points="2050.4,316.4769,2049.2368,306.697,2047.8439,312.1796,2042.3612,310.7867,2050.4,316.4769" style="stroke:#000000;stroke-width:0.75;stroke-linejoin:miter;stroke-miterlimit:10;"/></g><!--link ORCH to EX--><g class="link" data-entity-1="ent0003" data-entity-2="ent0022" data-link-type="dependency" data-source-line="78" id="lnk46"><path d="M576.85,244.7369 C582.59,246.3169 588.36,247.6669 594,248.6869 C677.6,263.7869 2044.51,233.1969 2123,265.6869 C2147.9,275.9969 2166.0212,294.9239 2179.4612,312.3939" fill="none" id="ORCH-to-EX" style="stroke:#000000;stroke-width:0.75;"/><polygon fill="#000000" points="2182.51,316.3569,2180.1926,306.7845,2179.4612,312.3939,2173.8518,311.6626,2182.51,316.3569" style="stroke:#000000;stroke-width:0.75;stroke-linejoin:miter;stroke-miterlimit:10;"/></g><!--link ORCH to CH--><g class="link" data-entity-1="ent0003" data-entity-2="ent0023" data-link-type="dependency" data-source-line="79" id="lnk47"><path d="M576.85,244.7469 C582.59,246.3169 588.35,247.6769 594,248.6869 C685.81,265.2169 2184.35,236.6469 2273,265.6869 C2303.88,275.8069 2329.669,295.604 2348.929,313.204" fill="none" id="ORCH-to-CH" style="stroke:#000000;stroke-width:0.75;"/><polygon fill="#000000" points="2352.62,316.5769,2348.6745,307.5529,2348.929,313.204,2343.2779,313.4585,2352.62,316.5769" style="stroke:#000000;stroke-width:0.75;stroke-linejoin:miter;stroke-miterlimit:10;"/></g><!--link ORCH to ORE--><g class="link" data-entity-1="ent0003" data-entity-2="ent0025" data-link-type="dependency" data-source-line="80" id="lnk48"><path d="M576.85,244.7469 C582.59,246.3269 588.35,247.6769 594,248.6869 C619.72,253.3069 2456.61,247.1369 2475,265.6869 C2515.54,306.5969 2514.79,353.6369 2475,395.2869 C2461.55,409.3569 2318.88,398.5669 2300,403.2869 C2257.63,413.8769 2217.2972,434.1092 2187.0472,451.4592" fill="none" id="ORCH-to-ORE" style="stroke:#000000;stroke-width:0.75;"/><polygon fill="#000000" points="2182.71,453.9469,2192.5071,452.9389,2187.0472,451.4592,2188.5269,445.9993,2182.71,453.9469" style="stroke:#000000;stroke-width:0.75;stroke-linejoin:miter;stroke-miterlimit:10;"/></g><!--link ORCH to SPR--><g class="link" data-entity-1="ent0003" data-entity-2="ent0026" data-link-type="dependency" data-source-line="81" id="lnk49"><path d="M576.85,244.7469 C582.59,246.3269 588.35,247.6769 594,248.6869 C620.28,253.4069 2497.21,246.7269 2516,265.6869 C2556.55,306.5969 2532.88,340.2169 2516,395.2869 C2509.26,417.2769 2497.5061,434.8252 2484.9061,450.1452" fill="none" id="ORCH-to-SPR" style="stroke:#000000;stroke-width:0.75;"/><polygon fill="#000000" points="2481.73,454.0069,2490.5363,449.5967,2484.9061,450.1452,2484.3576,444.515,2481.73,454.0069" style="stroke:#000000;stroke-width:0.75;stroke-linejoin:miter;stroke-miterlimit:10;"/></g><!--link ORCH to TPL--><g class="link" data-entity-1="ent0003" data-entity-2="ent0027" data-link-type="dependency" data-source-line="82" id="lnk50"><path d="M576.93,244.3169 C582.65,245.9869 588.39,247.4769 594,248.6869 C641.29,258.8769 770.22,239.6669 811,265.6869 C866.73,301.2469 828.34,359.6169 884,395.2869 C957.98,442.6769 1535.4926,465.9158 1771.8526,473.5358" fill="none" id="ORCH-to-TPL" style="stroke:#000000;stroke-width:0.75;"/><polygon fill="#000000" points="1776.85,473.6969,1767.9836,469.409,1771.8526,473.5358,1767.7258,477.4048,1776.85,473.6969" style="stroke:#000000;stroke-width:0.75;stroke-linejoin:miter;stroke-miterlimit:10;"/></g><!--link PCL to NXT--><g class="link" data-entity-1="ent0010" data-entity-2="ent0028" data-link-type="dependency" data-source-line="83" id="lnk51"><path d="M3304.59,371.7369 C3278.84,380.1169 3250.47,388.6869 3224,395.2869 C3204.29,400.1969 3198.26,396.8269 3179,403.2869 C3140.83,416.0769 3104.537,435.0514 3076.197,451.4614" fill="none" id="PCL-to-NXT" style="stroke:#000000;stroke-width:0.75;"/><polygon fill="#000000" points="3071.87,453.9669,3081.6629,452.9186,3076.197,451.4614,3077.6541,445.9954,3071.87,453.9669" style="stroke:#000000;stroke-width:0.75;stroke-linejoin:miter;stroke-miterlimit:10;"/></g><!--link ERO to CSS--><g class="link" data-entity-1="ent0012" data-entity-2="ent0029" data-link-type="dependency" data-source-line="84" id="lnk52"><path d="M2775.73,371.7569 C2773.89,396.7569 2771.6979,426.4704 2770.0379,448.9704" fill="none" id="ERO-to-CSS" style="stroke:#000000;stroke-width:0.75;"/><polygon fill="#000000" points="2769.67,453.9569,2774.3214,445.2756,2770.0379,448.9704,2766.343,444.687,2769.67,453.9569" style="stroke:#000000;stroke-width:0.75;stroke-linejoin:miter;stroke-miterlimit:10;"/></g><!--link PCL to M2T--><g class="link" data-entity-1="ent0010" data-entity-2="ent0004" data-link-type="dependency" data-source-line="85" id="lnk53"><path d="M3336.71,308.2869 C3304.81,292.2769 3263.33,274.2769 3224,265.6869 C3103.25,239.3069 1237.9898,222.6974 799.4998,219.1474" fill="none" id="PCL-to-M2T" style="stroke:#000000;stroke-width:0.75;"/><polygon fill="#000000" points="794.5,219.1069,803.4673,223.1796,799.4998,219.1474,803.5321,215.1799,794.5,219.1069" style="stroke:#000000;stroke-width:0.75;stroke-linejoin:miter;stroke-miterlimit:10;"/></g><!--link L2N to NXT--><g class="link" data-entity-1="ent0011" data-entity-2="ent0028" data-link-type="dependency" data-source-line="86" id="lnk54"><path d="M3070.56,371.7569 C3062.08,396.7569 3051.9176,426.7224 3044.2776,449.2224" fill="none" id="L2N-to-NXT" style="stroke:#000000;stroke-width:0.75;"/><polygon fill="#000000" points="3042.67,453.9569,3049.3513,446.7209,3044.2776,449.2224,3041.7761,444.1487,3042.67,453.9569" style="stroke:#000000;stroke-width:0.75;stroke-linejoin:miter;stroke-miterlimit:10;"/></g><!--link ERO to EPUB--><g class="link" data-entity-1="ent0012" data-entity-2="ent0005" data-link-type="dependency" data-source-line="87" id="lnk55"><path d="M2676.34,308.2269 C2618.02,292.1469 2543.08,274.0969 2475,265.6869 C2249.04,237.7969 651.67,278.8669 426,248.6869 C420.37,247.9369 419.5449,247.9152 413.7649,246.8352" fill="none" id="ERO-to-EPUB" style="stroke:#000000;stroke-width:0.75;"/><polygon fill="#000000" points="408.85,245.9169,416.9622,251.5019,413.7649,246.8352,418.4316,243.638,408.85,245.9169" style="stroke:#000000;stroke-width:0.75;stroke-linejoin:miter;stroke-miterlimit:10;"/></g><!--link EPUB to FONT--><g class="link" data-entity-1="ent0005" data-entity-2="ent0006" data-link-type="dependency" data-source-line="88" id="lnk56"><path d="M347.96,249.1369 C369.78,267.2769 393.4557,286.9698 415.2557,305.0998" fill="none" id="EPUB-to-FONT" style="stroke:#000000;stroke-width:0.75;"/><polygon fill="#000000" points="419.1,308.2969,414.738,299.4667,415.2557,305.0998,409.6226,305.6175,419.1,308.2969" style="stroke:#000000;stroke-width:0.75;stroke-linejoin:miter;stroke-miterlimit:10;"/></g><!--link EPUB to FORMULA--><g class="link" data-entity-1="ent0005" data-entity-2="ent0008" data-link-type="dependency" data-source-line="89" id="lnk57"><path d="M275.05,249.1369 C253.84,267.2769 230.8799,286.9172 209.6799,305.0472" fill="none" id="EPUB-to-FORMULA" style="stroke:#000000;stroke-width:0.75;"/><polygon fill="#000000" points="205.88,308.2969,215.3196,305.4874,209.6799,305.0472,210.1202,299.4075,205.88,308.2969" style="stroke:#000000;stroke-width:0.75;stroke-linejoin:miter;stroke-miterlimit:10;"/></g><!--link ORCH to WC--><g class="link" data-entity-1="ent0003" data-entity-2="ent0007" data-link-type="dependency" data-source-line="90" id="lnk58"><path d="M556.91,249.1369 C584.59,267.2769 615.3278,287.4266 642.9978,305.5566" fill="none" id="ORCH-to-WC" style="stroke:#000000;stroke-width:0.75;"/><polygon fill="#000000" points="647.18,308.2969,641.8442,300.0186,642.9978,305.5566,637.4598,306.7101,647.18,308.2969" style="stroke:#000000;stroke-width:0.75;stroke-linejoin:miter;stroke-miterlimit:10;"/></g><!--link M2T to PDF--><g class="link" data-entity-1="ent0004" data-entity-2="ent0032" data-link-type="dependency" data-source-line="91" id="lnk59"><path d="M794.38,218.6969 C1283.87,220.4869 3576.07,230.7269 3640,265.6869 C3711.52,304.8069 3751.2092,393.2614 3768.5792,441.6014" fill="none" id="M2T-to-PDF" style="stroke:#000000;stroke-width:0.75;"/><polygon fill="#000000" points="3770.27,446.3069,3770.9909,436.4844,3768.5792,441.6014,3763.4622,439.1897,3770.27,446.3069" style="stroke:#000000;stroke-width:0.75;stroke-linejoin:miter;stroke-miterlimit:10;"/></g><!--link PCL to MDX--><g class="link" data-entity-1="ent0010" data-entity-2="ent0031" data-link-type="dependency" data-source-line="92" id="lnk60"><path d="M3404.03,371.7569 C3412.76,394.0969 3422.7,419.5299 3431.38,441.7399" fill="none" id="PCL-to-MDX" style="stroke:#000000;stroke-width:0.75;"/><polygon fill="#000000" points="3433.2,446.3969,3433.6496,436.5583,3431.38,441.7399,3426.1984,439.4703,3433.2,446.3969" style="stroke:#000000;stroke-width:0.75;stroke-linejoin:miter;stroke-miterlimit:10;"/></g><!--link L2N to WEB--><g class="link" data-entity-1="ent0011" data-entity-2="ent0033" data-link-type="dependency" data-source-line="93" id="lnk61"><path d="M3122.53,371.7569 C3152.47,393.9469 3188.7131,420.7895 3218.6231,442.9595" fill="none" id="L2N-to-WEB" style="stroke:#000000;stroke-width:0.75;"/><polygon fill="#000000" points="3222.64,445.9369,3217.7916,437.3641,3218.6231,442.9595,3213.0277,443.7911,3222.64,445.9369" style="stroke:#000000;stroke-width:0.75;stroke-linejoin:miter;stroke-miterlimit:10;"/></g><!--link EPUB to EOUT--><g class="link" data-entity-1="ent0005" data-entity-2="ent0034" data-link-type="dependency" data-source-line="94" id="lnk62"><path d="M408.85,245.9369 C414.62,247.0069 420.37,247.9469 426,248.6869 C469.12,254.3969 3523.02,239.8369 3558,265.6869 C3618.47,310.3769 3625.0571,405.2569 3624.8171,449.6169" fill="none" id="EPUB-to-EOUT" style="stroke:#000000;stroke-width:0.75;"/><polygon fill="#000000" points="3624.79,454.6169,3628.8386,445.6386,3624.8171,449.6169,3620.8388,445.5954,3624.79,454.6169" style="stroke:#000000;stroke-width:0.75;stroke-linejoin:miter;stroke-miterlimit:10;"/></g><?plantuml-src ZLHRRoet47xVNs7HnyeXeghQfqe9bwGg2OXBWtJeWzaTm8TTUsLx0-TK_U-TcLqMSwgIWmHux6--kOy_Q5CgfmfHM6FJlRC5YE0gI7pxulSgiqTjTcAhSX-_R5Hws3bRcQnlS-l43oF-H8WCjghAmyYQq43k-HD17j9WtUE7J3NCkWpS_p7rRL5Q0oPyp7Q1tcIS8f7QmSTyP-1Dje4AQgFyTz2roDlnvhRAlYDMXjraUd3E7cy-BlOwFHZmNjpV_V9paWGTSX2fjOSDVkNMkXrSieewwLu7I4Fb84aKrKuiFRWaAUjCYSu48U23Kq5RipRNL1tnToB4f_aVlu_7TqMsDZP6_oMK5vDP_vamFdMw3BvRPATUWDDTyTclpSjW9UHlOgmMi6BqIsyHWpULpZC9PRMvmW-doqU6qo76-shZ8Q1l9lXQWuwYlWuu6wmrchnUMJbYqcMAjGcr3ic2POQ_zMEmBOCkz5UW11HLhgGkC4-jDRuJV2SSb4gxnkJiPJb-IFw9CZk3oaCcvWUTvxx9PEdiPoo7RDESAqpMsZZme32teYj-lJ_yACX5Zy8mXvsYyR07jZFjZuc6jMImqi09Yo4z5dbjNbaGxp-Xui2c1t1ucEQeltmPi_guzqhgb73fG64hodEyRctwypd6T7H8XegSPFwlOuwY7SuctqJQUB-mjWqLNqoG6snQJ-JTT_skyanBLGLRNFhdSKRWDzYC873yU9mpMrsS4NEvatwNHuK8vagjCPX6o6IfId2UeG-p5M4pc_PECitrsam78p7fp_XrqEFNtRv-UjBXkTfGKBRMVdg-2ccWrOwcBewef5HMHLvNOid6d3fgMnlWGE2KgbpJTPqfDfhkbGloNViAtxvUOkzVsrn0KL9blL0c4vXKMxaKpjOTRC61mOkk3rzoaBjAPo2j0-olBpYTpJWERu1zwN18m9tHyoaxhJoEZ--6nhx46UxYAjYhCc27dAzHwSHQY-auqcfQy8pgCkHrjOWWx8BV0uIxbYprTTwnwQwICAb2MT7c2dgB2wk9FcisiUZWYcXTmxRDH9sb3c-NmUeA6qqFDmE3y1z1AMrZqMb6ffwVFm69ydPu6FqsVBoYd3JZal5kOiXmibnG2BHOXSJrnIkHVbZ21c_FsCtjcTgr5QWxM-4fqgQ1RmKQtrQW8Rp0bX5NP70OqSPEKPkq0dL1Ar1nqIYVgOfefjR6EftlQOkZB__1yBgc7vPu3KTIlI4lkUWdo5DxZoLfkR66PsvAVaj0QVuN?></g></svg>