<svg xmlns="http://www.w3.org/2000/svg" xmlns:xlink="http://www.w3.org/1999/xlink" contentStyleType="text/css" data-diagram-type="DESCRIPTION" height="633px" preserveAspectRatio="none" style="width:1652px;height:633px;background:#FFFFFF;" version="1.1" viewBox="0.00 -434.41 1652.00 1501.82" width="1652px" zoomAndPan="magnify"><?plantuml 1.2026.6?><defs/><g><g class="title" data-source-line="23"><text fill="#000000" font-family="'WenQuanYi Micro Hei'" font-size="14" font-weight="700" lengthAdjust="spacing" textLength="184.2283" x="730.3859" y="22.9951">cookbook-forge &#32452;&#20214;&#26550;&#26500;</text></g><!--cluster P1--><g class="cluster" data-qualified-name="P1" data-source-line="29" id="ent0002"><rect fill="#FFFFFF" height="254.81" rx="2.5" ry="2.5" style="stroke:#000000;stroke-width:1;" width="466" x="1172" y="204.5069"/><text fill="#000000" font-family="'WenQuanYi Micro Hei'" font-size="11" font-weight="700" lengthAdjust="spacing" textLength="133.7507" x="1338.1246" y="216.7173">&#32534;&#25490;&#23618; cookbook-forge</text></g><!--cluster P2--><g class="cluster" data-qualified-name="P2" data-source-line="38" id="ent0009"><rect fill="#FFFFFF" height="270.82" rx="2.5" ry="2.5" style="stroke:#000000;stroke-width:1;" width="442" x="245" y="44.2969"/><text fill="#000000" font-family="'WenQuanYi Micro Hei'" font-size="11" font-weight="700" lengthAdjust="spacing" textLength="65.9995" x="433.0002" y="56.5073">&#25968;&#25454;&#37319;&#38598;&#24037;&#20855;</text></g><!--cluster P3--><g class="cluster" data-qualified-name="P3" data-source-line="46" id="ent0015"><rect fill="#FFFFFF" height="118.61" rx="2.5" ry="2.5" style="stroke:#000000;stroke-width:1;" width="600" x="727" y="44.2969"/><text fill="#000000" font-family="'WenQuanYi Micro Hei'" font-size="11" font-weight="700" lengthAdjust="spacing" textLength="58.9261" x="997.5369" y="56.5073">&#22797;&#29992; Skills</text></g><!--cluster P4--><g class="cluster" data-qualified-name="P4" data-source-line="52" id="ent0019"><rect fill="#FFFFFF" height="258.01" rx="2.5" ry="2.5" style="stroke:#000000;stroke-width:1;" width="307" x="769" y="202.9069"/><text fill="#000000" font-family="'WenQuanYi Micro Hei'" font-size="11" font-weight="700" lengthAdjust="spacing" textLength="43.9997" x="900.5002" y="215.1173">&#22270;&#34920;&#24037;&#20855;</text></g><!--cluster P5--><g class="cluster" data-qualified-name="P5" data-source-line="59" id="ent0024"><rect fill="#FFFFFF" height="258.01" rx="2.5" ry="2.5" style="stroke:#000000;stroke-width:1;" width="722" x="7" y="355.1169"/><text fill="#000000" font-family="'WenQuanYi Micro Hei'" font-size="11" font-weight="700" lengthAdjust="spacing" textLength="54.9996" x="340.5002" y="367.3273">&#27169;&#26495;&#19982;&#36164;&#28304;</text></g><!--cluster P6--><g class="cluster" data-qualified-name="P6" data-source-line="67" id="ent0030"><rect fill="#FFFFFF" height="118.61" rx="2.5" ry="2.5" style="stroke:#000000;stroke-width:1;" width="441" x="859" y="500.9169"/><text fill="#000000" font-family="'WenQuanYi Micro Hei'" font-size="11" font-weight="700" lengthAdjust="spacing" textLength="43.9997" x="1057.5002" y="513.1273">&#36755;&#20986;&#20135;&#29289;</text></g><!--entity ORCH--><g class="entity" data-qualified-name="P1.ORCH" data-source-line="30" id="ent0003"><rect fill="#FFFFFF" height="55.6094" rx="2.5" ry="2.5" style="stroke:#000000;stroke-width:0.5;" width="90.8911" x="1309.55" y="235.5069"/><rect fill="#FFFFFF" height="10" style="stroke:#000000;stroke-width:0.5;" width="15" x="1380.4411" y="240.5069"/><rect fill="#FFFFFF" height="2" style="stroke:#000000;stroke-width:0.5;" width="4" x="1378.4411" y="242.5069"/><rect fill="#FFFFFF" height="2" style="stroke:#000000;stroke-width:0.5;" width="4" x="1378.4411" y="246.5069"/><text fill="#000000" font-family="'WenQuanYi Micro Hei'" font-size="11" lengthAdjust="spacing" textLength="50.8911" x="1324.55" y="265.7173">SKILL.md</text><text fill="#000000" font-family="'WenQuanYi Micro Hei'" font-size="11" lengthAdjust="spacing" textLength="43.9997" x="1324.55" y="278.522">&#32534;&#25490;&#25351;&#20196;</text></g><!--entity M2T--><g class="entity" data-qualified-name="P1.M2T" data-source-line="31" id="ent0004"><rect fill="#FFFFFF" height="55.6094" rx="2.5" ry="2.5" style="stroke:#000000;stroke-width:0.5;" width="111.7954" x="1188.1" y="235.5069"/><rect fill="#FFFFFF" height="10" style="stroke:#000000;stroke-width:0.5;" width="15" x="1279.8954" y="240.5069"/><rect fill="#FFFFFF" height="2" style="stroke:#000000;stroke-width:0.5;" width="4" x="1277.8954" y="242.5069"/><rect fill="#FFFFFF" height="2" style="stroke:#000000;stroke-width:0.5;" width="4" x="1277.8954" y="246.5069"/><text fill="#000000" font-family="'WenQuanYi Micro Hei'" font-size="11" lengthAdjust="spacing" textLength="71.7954" x="1203.1" y="265.7173">mdx2tex.mjs</text><text fill="#000000" font-family="'WenQuanYi Micro Hei'" font-size="11" lengthAdjust="spacing" textLength="68.605" x="1203.1" y="278.522">MDX&#8594;LaTeX</text></g><!--entity EPUB--><g class="entity" data-qualified-name="P1.EPUB" data-source-line="32" id="ent0005"><rect fill="#FFFFFF" height="55.6094" rx="2.5" ry="2.5" style="stroke:#000000;stroke-width:0.5;" width="121.7212" x="1410.14" y="235.5069"/><rect fill="#FFFFFF" height="10" style="stroke:#000000;stroke-width:0.5;" width="15" x="1511.8612" y="240.5069"/><rect fill="#FFFFFF" height="2" style="stroke:#000000;stroke-width:0.5;" width="4" x="1509.8612" y="242.5069"/><rect fill="#FFFFFF" height="2" style="stroke:#000000;stroke-width:0.5;" width="4" x="1509.8612" y="246.5069"/><text fill="#000000" font-family="'WenQuanYi Micro Hei'" font-size="11" lengthAdjust="spacing" textLength="81.7212" x="1425.14" y="265.7173">build-epub.mjs</text><text fill="#000000" font-family="'WenQuanYi Micro Hei'" font-size="11" lengthAdjust="spacing" textLength="63.8945" x="1425.14" y="278.522">MDX&#8594;EPUB</text></g><!--entity FONT--><g class="entity" data-qualified-name="P1.FONT" data-source-line="33" id="ent0006"><rect fill="#FFFFFF" height="55.6094" rx="2.5" ry="2.5" style="stroke:#000000;stroke-width:0.5;" width="131.083" x="1490.46" y="387.7069"/><rect fill="#FFFFFF" height="10" style="stroke:#000000;stroke-width:0.5;" width="15" x="1601.543" y="392.7069"/><rect fill="#FFFFFF" height="2" style="stroke:#000000;stroke-width:0.5;" width="4" x="1599.543" y="394.7069"/><rect fill="#FFFFFF" height="2" style="stroke:#000000;stroke-width:0.5;" width="4" x="1599.543" y="398.7069"/><text fill="#000000" font-family="'WenQuanYi Micro Hei'" font-size="11" lengthAdjust="spacing" textLength="91.083" x="1505.46" y="417.9173">subset-fonts.mjs</text><text fill="#000000" font-family="'WenQuanYi Micro Hei'" font-size="11" lengthAdjust="spacing" textLength="54.9996" x="1505.46" y="430.722">&#23383;&#20307;&#23376;&#38598;&#21270;</text></g><!--entity WC--><g class="entity" data-qualified-name="P1.WC" data-source-line="34" id="ent0007"><rect fill="#FFFFFF" height="55.6094" rx="2.5" ry="2.5" style="stroke:#000000;stroke-width:0.5;" width="125.2339" x="1188.38" y="387.7069"/><rect fill="#FFFFFF" height="10" style="stroke:#000000;stroke-width:0.5;" width="15" x="1293.6139" y="392.7069"/><rect fill="#FFFFFF" height="2" style="stroke:#000000;stroke-width:0.5;" width="4" x="1291.6139" y="394.7069"/><rect fill="#FFFFFF" height="2" style="stroke:#000000;stroke-width:0.5;" width="4" x="1291.6139" y="398.7069"/><text fill="#000000" font-family="'WenQuanYi Micro Hei'" font-size="11" lengthAdjust="spacing" textLength="85.2339" x="1203.38" y="417.9173">word-count.mjs</text><text fill="#000000" font-family="'WenQuanYi Micro Hei'" font-size="11" lengthAdjust="spacing" textLength="43.9997" x="1203.38" y="430.722">&#23383;&#25968;&#32479;&#35745;</text></g><!--entity FORMULA--><g class="entity" data-qualified-name="P1.FORMULA" data-source-line="35" id="ent0008"><rect fill="#FFFFFF" height="55.6094" rx="2.5" ry="2.5" style="stroke:#000000;stroke-width:0.5;" width="156.9717" x="1323.51" y="387.7069"/><rect fill="#FFFFFF" height="10" style="stroke:#000000;stroke-width:0.5;" width="15" x="1460.4817" y="392.7069"/><rect fill="#FFFFFF" height="2" style="stroke:#000000;stroke-width:0.5;" width="4" x="1458.4817" y="394.7069"/><rect fill="#FFFFFF" height="2" style="stroke:#000000;stroke-width:0.5;" width="4" x="1458.4817" y="398.7069"/><text fill="#000000" font-family="'WenQuanYi Micro Hei'" font-size="11" lengthAdjust="spacing" textLength="116.9717" x="1338.51" y="417.9173">optimize-formula.mjs</text><text fill="#000000" font-family="'WenQuanYi Micro Hei'" font-size="11" lengthAdjust="spacing" textLength="65.9995" x="1338.51" y="430.722">&#20844;&#24335;&#22270;&#29255;&#20462;&#22797;</text></g><!--entity BR--><g class="entity" data-qualified-name="P2.BR" data-source-line="39" id="ent0010"><rect fill="#FFFFFF" height="55.6094" rx="2.5" ry="2.5" style="stroke:#000000;stroke-width:0.5;" width="119.9971" x="269" y="83.2969"/><rect fill="#FFFFFF" height="10" style="stroke:#000000;stroke-width:0.5;" width="15" x="368.9971" y="88.2969"/><rect fill="#FFFFFF" height="2" style="stroke:#000000;stroke-width:0.5;" width="4" x="366.9971" y="90.2969"/><rect fill="#FFFFFF" height="2" style="stroke:#000000;stroke-width:0.5;" width="4" x="366.9971" y="94.2969"/><text fill="#000000" font-family="'WenQuanYi Micro Hei'" font-size="11" lengthAdjust="spacing" textLength="79.9971" x="284" y="113.5073">agent-browser</text><text fill="#000000" font-family="'WenQuanYi Micro Hei'" font-size="11" lengthAdjust="spacing" textLength="39.6172" x="284" y="126.312">/vivaldi</text></g><!--entity WF--><g class="entity" data-qualified-name="P2.WF" data-source-line="40" id="ent0011"><rect fill="#FFFFFF" height="55.6094" rx="2.5" ry="2.5" style="stroke:#000000;stroke-width:0.5;" width="102.6592" x="398.67" y="83.2969"/><rect fill="#FFFFFF" height="10" style="stroke:#000000;stroke-width:0.5;" width="15" x="481.3292" y="88.2969"/><rect fill="#FFFFFF" height="2" style="stroke:#000000;stroke-width:0.5;" width="4" x="479.3292" y="90.2969"/><rect fill="#FFFFFF" height="2" style="stroke:#000000;stroke-width:0.5;" width="4" x="479.3292" y="94.2969"/><text fill="#000000" font-family="'WenQuanYi Micro Hei'" font-size="11" lengthAdjust="spacing" textLength="58.7598" x="413.67" y="113.5073">WebFetch/</text><text fill="#000000" font-family="'WenQuanYi Micro Hei'" font-size="11" lengthAdjust="spacing" textLength="62.6592" x="413.67" y="126.312">WebSearch</text></g><!--entity ARX--><g class="entity" data-qualified-name="P2.ARX" data-source-line="41" id="ent0012"><rect fill="#FFFFFF" height="55.6094" rx="2.5" ry="2.5" style="stroke:#000000;stroke-width:0.5;" width="143.0015" x="511.5" y="83.2969"/><rect fill="#FFFFFF" height="10" style="stroke:#000000;stroke-width:0.5;" width="15" x="634.5015" y="88.2969"/><rect fill="#FFFFFF" height="2" style="stroke:#000000;stroke-width:0.5;" width="4" x="632.5015" y="90.2969"/><rect fill="#FFFFFF" height="2" style="stroke:#000000;stroke-width:0.5;" width="4" x="632.5015" y="94.2969"/><text fill="#000000" font-family="'WenQuanYi Micro Hei'" font-size="11" lengthAdjust="spacing" textLength="75.668" x="526.5" y="113.5073">arxiv-watcher</text><text fill="#000000" font-family="'WenQuanYi Micro Hei'" font-size="11" lengthAdjust="spacing" textLength="103.0015" x="526.5" y="126.312">/connected-papers</text></g><!--entity D2X--><g class="entity" data-qualified-name="P2.D2X" data-source-line="42" id="ent0013"><rect fill="#FFFFFF" height="55.6094" rx="2.5" ry="2.5" style="stroke:#000000;stroke-width:0.5;" width="89.3979" x="276.3" y="235.5069"/><rect fill="#FFFFFF" height="10" style="stroke:#000000;stroke-width:0.5;" width="15" x="345.6979" y="240.5069"/><rect fill="#FFFFFF" height="2" style="stroke:#000000;stroke-width:0.5;" width="4" x="343.6979" y="242.5069"/><rect fill="#FFFFFF" height="2" style="stroke:#000000;stroke-width:0.5;" width="4" x="343.6979" y="246.5069"/><text fill="#000000" font-family="'WenQuanYi Micro Hei'" font-size="11" lengthAdjust="spacing" textLength="49.3979" x="291.3" y="265.7173">doc2x-cli</text><text fill="#000000" font-family="'WenQuanYi Micro Hei'" font-size="11" lengthAdjust="spacing" textLength="48.9092" x="291.3" y="278.522">PDF OCR</text></g><!--entity GH--><g class="entity" data-qualified-name="P2.GH" data-source-line="43" id="ent0014"><rect fill="#FFFFFF" height="55.6094" rx="2.5" ry="2.5" style="stroke:#000000;stroke-width:0.5;" width="100.1185" x="375.94" y="235.5069"/><rect fill="#FFFFFF" height="10" style="stroke:#000000;stroke-width:0.5;" width="15" x="456.0585" y="240.5069"/><rect fill="#FFFFFF" height="2" style="stroke:#000000;stroke-width:0.5;" width="4" x="454.0585" y="242.5069"/><rect fill="#FFFFFF" height="2" style="stroke:#000000;stroke-width:0.5;" width="4" x="454.0585" y="246.5069"/><text fill="#000000" font-family="'WenQuanYi Micro Hei'" font-size="11" lengthAdjust="spacing" textLength="30.0835" x="390.94" y="265.7173">gh-cli</text><text fill="#000000" font-family="'WenQuanYi Micro Hei'" font-size="11" lengthAdjust="spacing" textLength="60.1185" x="390.94" y="278.522">GitHub&#20179;&#24211;</text></g><!--entity PCL--><g class="entity" data-qualified-name="P3.PCL" data-source-line="47" id="ent0016"><rect fill="#FFFFFF" height="55.6094" rx="2.5" ry="2.5" style="stroke:#000000;stroke-width:0.5;" width="189.5684" x="1113.22" y="83.2969"/><rect fill="#FFFFFF" height="10" style="stroke:#000000;stroke-width:0.5;" width="15" x="1282.7884" y="88.2969"/><rect fill="#FFFFFF" height="2" style="stroke:#000000;stroke-width:0.5;" width="4" x="1280.7884" y="90.2969"/><rect fill="#FFFFFF" height="2" style="stroke:#000000;stroke-width:0.5;" width="4" x="1280.7884" y="94.2969"/><text fill="#000000" font-family="'WenQuanYi Micro Hei'" font-size="11" lengthAdjust="spacing" textLength="126.4355" x="1128.22" y="113.5073">project-cookbook-latex</text><text fill="#000000" font-family="'WenQuanYi Micro Hei'" font-size="11" lengthAdjust="spacing" textLength="149.5684" x="1128.22" y="126.312">&#36164;&#26009;&#31351;&#23613;/8&#19975;&#23383;/ElegantBook</text></g><!--entity L2N--><g class="entity" data-qualified-name="P3.L2N" data-source-line="48" id="ent0017"><rect fill="#FFFFFF" height="55.6094" rx="2.5" ry="2.5" style="stroke:#000000;stroke-width:0.5;" width="170.7109" x="758.64" y="83.2969"/><rect fill="#FFFFFF" height="10" style="stroke:#000000;stroke-width:0.5;" width="15" x="909.3509" y="88.2969"/><rect fill="#FFFFFF" height="2" style="stroke:#000000;stroke-width:0.5;" width="4" x="907.3509" y="90.2969"/><rect fill="#FFFFFF" height="2" style="stroke:#000000;stroke-width:0.5;" width="4" x="907.3509" y="94.2969"/><text fill="#000000" font-family="'WenQuanYi Micro Hei'" font-size="11" lengthAdjust="spacing" textLength="106.0308" x="773.64" y="113.5073">latex-to-nextra-site</text><text fill="#000000" font-family="'WenQuanYi Micro Hei'" font-size="11" lengthAdjust="spacing" textLength="130.7109" x="773.64" y="126.312">Nextra v3/Docker/PUML</text></g><!--entity ERO--><g class="entity" data-qualified-name="P3.ERO" data-source-line="49" id="ent0018"><rect fill="#FFFFFF" height="55.6094" rx="2.5" ry="2.5" style="stroke:#000000;stroke-width:0.5;" width="163.8628" x="939.07" y="83.2969"/><rect fill="#FFFFFF" height="10" style="stroke:#000000;stroke-width:0.5;" width="15" x="1082.9328" y="88.2969"/><rect fill="#FFFFFF" height="2" style="stroke:#000000;stroke-width:0.5;" width="4" x="1080.9328" y="90.2969"/><rect fill="#FFFFFF" height="2" style="stroke:#000000;stroke-width:0.5;" width="4" x="1080.9328" y="94.2969"/><text fill="#000000" font-family="'WenQuanYi Micro Hei'" font-size="11" lengthAdjust="spacing" textLength="123.8628" x="954.07" y="113.5073">epub-reader-optimizer</text><text fill="#000000" font-family="'WenQuanYi Micro Hei'" font-size="11" lengthAdjust="spacing" textLength="117.057" x="954.07" y="126.312">CSS&#37325;&#20889;/&#23383;&#20307;/&#20844;&#24335;&#20462;&#22797;</text></g><!--entity PU--><g class="entity" data-qualified-name="P4.PU" data-source-line="53" id="ent0020"><rect fill="#FFFFFF" height="42.8047" rx="2.5" ry="2.5" style="stroke:#000000;stroke-width:0.5;" width="88.8071" x="803.6" y="241.9069"/><rect fill="#FFFFFF" height="10" style="stroke:#000000;stroke-width:0.5;" width="15" x="872.4071" y="246.9069"/><rect fill="#FFFFFF" height="2" style="stroke:#000000;stroke-width:0.5;" width="4" x="870.4071" y="248.9069"/><rect fill="#FFFFFF" height="2" style="stroke:#000000;stroke-width:0.5;" width="4" x="870.4071" y="252.9069"/><text fill="#000000" font-family="'WenQuanYi Micro Hei'" font-size="11" lengthAdjust="spacing" textLength="48.8071" x="818.6" y="272.1173">plantuml</text></g><!--entity DR--><g class="entity" data-qualified-name="P4.DR" data-source-line="54" id="ent0021"><rect fill="#FFFFFF" height="42.8047" rx="2.5" ry="2.5" style="stroke:#000000;stroke-width:0.5;" width="77.0283" x="902.49" y="241.9069"/><rect fill="#FFFFFF" height="10" style="stroke:#000000;stroke-width:0.5;" width="15" x="959.5183" y="246.9069"/><rect fill="#FFFFFF" height="2" style="stroke:#000000;stroke-width:0.5;" width="4" x="957.5183" y="248.9069"/><rect fill="#FFFFFF" height="2" style="stroke:#000000;stroke-width:0.5;" width="4" x="957.5183" y="252.9069"/><text fill="#000000" font-family="'WenQuanYi Micro Hei'" font-size="11" lengthAdjust="spacing" textLength="37.0283" x="917.49" y="272.1173">drawio</text></g><!--entity EX--><g class="entity" data-qualified-name="P4.EX" data-source-line="55" id="ent0022"><rect fill="#FFFFFF" height="42.8047" rx="2.5" ry="2.5" style="stroke:#000000;stroke-width:0.5;" width="99.4204" x="801.29" y="394.1169"/><rect fill="#FFFFFF" height="10" style="stroke:#000000;stroke-width:0.5;" width="15" x="880.7104" y="399.1169"/><rect fill="#FFFFFF" height="2" style="stroke:#000000;stroke-width:0.5;" width="4" x="878.7104" y="401.1169"/><rect fill="#FFFFFF" height="2" style="stroke:#000000;stroke-width:0.5;" width="4" x="878.7104" y="405.1169"/><text fill="#000000" font-family="'WenQuanYi Micro Hei'" font-size="11" lengthAdjust="spacing" textLength="59.4204" x="816.29" y="424.3273">excalidraw</text></g><!--entity CH--><g class="entity" data-qualified-name="P4.CH" data-source-line="56" id="ent0023"><rect fill="#FFFFFF" height="42.8047" rx="2.5" ry="2.5" style="stroke:#000000;stroke-width:0.5;" width="141.272" x="910.36" y="394.1169"/><rect fill="#FFFFFF" height="10" style="stroke:#000000;stroke-width:0.5;" width="15" x="1031.632" y="399.1169"/><rect fill="#FFFFFF" height="2" style="stroke:#000000;stroke-width:0.5;" width="4" x="1029.632" y="401.1169"/><rect fill="#FFFFFF" height="2" style="stroke:#000000;stroke-width:0.5;" width="4" x="1029.632" y="405.1169"/><text fill="#000000" font-family="'WenQuanYi Micro Hei'" font-size="11" lengthAdjust="spacing" textLength="101.272" x="925.36" y="424.3273">chart-visualization</text></g><!--entity ORE--><g class="entity" data-qualified-name="P5.ORE" data-source-line="60" id="ent0025"><rect fill="#FFFFFF" height="42.8047" rx="2.5" ry="2.5" style="stroke:#000000;stroke-width:0.5;" width="159.9688" x="31.02" y="394.1169"/><rect fill="#FFFFFF" height="10" style="stroke:#000000;stroke-width:0.5;" width="15" x="170.9888" y="399.1169"/><rect fill="#FFFFFF" height="2" style="stroke:#000000;stroke-width:0.5;" width="4" x="168.9888" y="401.1169"/><rect fill="#FFFFFF" height="2" style="stroke:#000000;stroke-width:0.5;" width="4" x="168.9888" y="405.1169"/><text fill="#000000" font-family="'WenQuanYi Micro Hei'" font-size="11" lengthAdjust="spacing" textLength="119.9688" x="46.02" y="424.3273">style-guide-oreilly.md</text></g><!--entity SPR--><g class="entity" data-qualified-name="P5.SPR" data-source-line="61" id="ent0026"><rect fill="#FFFFFF" height="42.8047" rx="2.5" ry="2.5" style="stroke:#000000;stroke-width:0.5;" width="171.8066" x="201.1" y="394.1169"/><rect fill="#FFFFFF" height="10" style="stroke:#000000;stroke-width:0.5;" width="15" x="352.9066" y="399.1169"/><rect fill="#FFFFFF" height="2" style="stroke:#000000;stroke-width:0.5;" width="4" x="350.9066" y="401.1169"/><rect fill="#FFFFFF" height="2" style="stroke:#000000;stroke-width:0.5;" width="4" x="350.9066" y="405.1169"/><text fill="#000000" font-family="'WenQuanYi Micro Hei'" font-size="11" lengthAdjust="spacing" textLength="131.8066" x="216.1" y="424.3273">style-guide-springer.md</text></g><!--entity TPL--><g class="entity" data-qualified-name="P5.TPL" data-source-line="62" id="ent0027"><rect fill="#FFFFFF" height="42.8047" rx="2.5" ry="2.5" style="stroke:#000000;stroke-width:0.5;" width="163.6748" x="31.16" y="546.3169"/><rect fill="#FFFFFF" height="10" style="stroke:#000000;stroke-width:0.5;" width="15" x="174.8348" y="551.3169"/><rect fill="#FFFFFF" height="2" style="stroke:#000000;stroke-width:0.5;" width="4" x="172.8348" y="553.3169"/><rect fill="#FFFFFF" height="2" style="stroke:#000000;stroke-width:0.5;" width="4" x="172.8348" y="557.3169"/><text fill="#000000" font-family="'WenQuanYi Micro Hei'" font-size="11" lengthAdjust="spacing" textLength="123.6748" x="46.16" y="576.5273">chapter-template.mdx</text></g><!--entity NXT--><g class="entity" data-qualified-name="P5.NXT" data-source-line="63" id="ent0028"><rect fill="#FFFFFF" height="42.8047" rx="2.5" ry="2.5" style="stroke:#000000;stroke-width:0.5;" width="133.1563" x="382.42" y="394.1169"/><rect fill="#FFFFFF" height="10" style="stroke:#000000;stroke-width:0.5;" width="15" x="495.5763" y="399.1169"/><rect fill="#FFFFFF" height="2" style="stroke:#000000;stroke-width:0.5;" width="4" x="493.5763" y="401.1169"/><rect fill="#FFFFFF" height="2" style="stroke:#000000;stroke-width:0.5;" width="4" x="493.5763" y="405.1169"/><text fill="#000000" font-family="'WenQuanYi Micro Hei'" font-size="11" lengthAdjust="spacing" textLength="93.1563" x="397.42" y="424.3273">nextra-template/</text></g><!--entity CSS--><g class="entity" data-qualified-name="P5.CSS" data-source-line="64" id="ent0029"><rect fill="#FFFFFF" height="42.8047" rx="2.5" ry="2.5" style="stroke:#000000;stroke-width:0.5;" width="171.0869" x="525.46" y="394.1169"/><rect fill="#FFFFFF" height="10" style="stroke:#000000;stroke-width:0.5;" width="15" x="676.5469" y="399.1169"/><rect fill="#FFFFFF" height="2" style="stroke:#000000;stroke-width:0.5;" width="4" x="674.5469" y="401.1169"/><rect fill="#FFFFFF" height="2" style="stroke:#000000;stroke-width:0.5;" width="4" x="674.5469" y="405.1169"/><text fill="#000000" font-family="'WenQuanYi Micro Hei'" font-size="11" lengthAdjust="spacing" textLength="131.0869" x="540.46" y="424.3273">stylesheet.template.css</text></g><!--entity MDX--><g class="entity" data-qualified-name="P6.MDX" data-source-line="68" id="ent0031"><path d="M1009,550.4169 C1009,540.4169 1051.9998,540.4169 1051.9998,540.4169 C1051.9998,540.4169 1094.9995,540.4169 1094.9995,550.4169 L1094.9995,585.0263 C1094.9995,595.0263 1051.9998,595.0263 1051.9998,595.0263 C1051.9998,595.0263 1009,595.0263 1009,585.0263 L1009,550.4169" fill="#FFFFFF" style="stroke:#000000;stroke-width:0.5;"/><path d="M1009,550.4169 C1009,560.4169 1051.9998,560.4169 1051.9998,560.4169 C1051.9998,560.4169 1094.9995,560.4169 1094.9995,550.4169" fill="none" style="stroke:#000000;stroke-width:0.5;"/><text fill="#000000" font-family="'WenQuanYi Micro Hei'" font-size="11" lengthAdjust="spacing" textLength="25.4966" x="1019" y="574.6273">MDX</text><text fill="#000000" font-family="'WenQuanYi Micro Hei'" font-size="11" lengthAdjust="spacing" textLength="65.9995" x="1019" y="587.432">&#31456;&#33410;&#21270;&#28304;&#26684;&#24335;</text></g><!--entity PDF--><g class="entity" data-qualified-name="P6.PDF" data-source-line="69" id="ent0032"><path d="M1105.42,550.4169 C1105.42,540.4169 1149.9991,540.4169 1149.9991,540.4169 C1149.9991,540.4169 1194.5782,540.4169 1194.5782,550.4169 L1194.5782,585.0263 C1194.5782,595.0263 1149.9991,595.0263 1149.9991,595.0263 C1149.9991,595.0263 1105.42,595.0263 1105.42,585.0263 L1105.42,550.4169" fill="#FFFFFF" style="stroke:#000000;stroke-width:0.5;"/><path d="M1105.42,550.4169 C1105.42,560.4169 1149.9991,560.4169 1149.9991,560.4169 C1149.9991,560.4169 1194.5782,560.4169 1194.5782,550.4169" fill="none" style="stroke:#000000;stroke-width:0.5;"/><text fill="#000000" font-family="'WenQuanYi Micro Hei'" font-size="11" lengthAdjust="spacing" textLength="69.1582" x="1115.42" y="574.6273">ElegantBook</text><text fill="#000000" font-family="'WenQuanYi Micro Hei'" font-size="11" lengthAdjust="spacing" textLength="21.4307" x="1115.42" y="587.432">PDF</text></g><!--entity WEB--><g class="entity" data-qualified-name="P6.WEB" data-source-line="70" id="ent0033"><path d="M900.097,549.7077 C903.5189,543.851 907.9015,544.2948 912.092,548.8195 C915.1905,543.1436 918.9433,540.9232 924.0881,546.6706 C927.1096,541.3083 931.8897,540.3001 935.3605,546.2218 C938.1039,542.121 942.3474,540.6518 945.2802,546.0234 C949.9752,540.8417 953.9469,540.2979 957.9562,546.7692 C961.8911,541.8513 967.2052,541.4072 969.695,548.2159 C973.2384,543.3753 977.1492,542.9843 981.1601,547.6522 C984.6332,543.282 988.015,544.0135 990.8593,548.3524 C1001.0316,551.675 1004.0437,561.9901 996.1459,569.7725 C1005.2894,577.2485 1001.3429,586.2533 991.5621,589.2832 C987.869,593.9645 984.025,594.2778 981.2672,588.3735 C977.5394,595.2871 973.163,594.7364 968.1957,589.7332 C965.4423,595.1127 961.4312,594.634 957.8461,590.6529 C954.5377,596.9894 948.7204,596.3626 945.1291,590.9593 C941.0559,595.5358 937.9486,594.5951 935.5163,589.3527 C932.2312,595.1779 926.3429,596.3175 922.9497,589.4599 C920.1296,595.2099 914.2832,595.0647 911.2539,589.6796 C907.5476,593.3554 903.3552,593.8357 901.1357,588.0839 C889.8725,584.5738 889.6423,576.0083 897.0072,568.5593 C890.1963,560.7547 890.4529,554.8152 900.097,549.7077" fill="#FFFFFF" style="stroke:#000000;stroke-width:0.5;"/><text fill="#000000" font-family="'WenQuanYi Micro Hei'" font-size="11" lengthAdjust="spacing" textLength="59.0819" x="906.35" y="565.1273">Nextra&#32593;&#31449;</text><text fill="#000000" font-family="'WenQuanYi Micro Hei'" font-size="11" lengthAdjust="spacing" textLength="77.3008" x="906.35" y="577.932">Vercel/Docker</text></g><!--entity EOUT--><g class="entity" data-qualified-name="P6.EOUT" data-source-line="71" id="ent0034"><path d="M1204.41,556.8169 C1204.41,546.8169 1240.0005,546.8169 1240.0005,546.8169 C1240.0005,546.8169 1275.591,546.8169 1275.591,556.8169 L1275.591,578.6216 C1275.591,588.6216 1240.0005,588.6216 1240.0005,588.6216 C1240.0005,588.6216 1204.41,588.6216 1204.41,578.6216 L1204.41,556.8169" fill="#FFFFFF" style="stroke:#000000;stroke-width:0.5;"/><path d="M1204.41,556.8169 C1204.41,566.8169 1240.0005,566.8169 1240.0005,566.8169 C1240.0005,566.8169 1275.591,566.8169 1275.591,556.8169" fill="none" style="stroke:#000000;stroke-width:0.5;"/><text fill="#000000" font-family="'WenQuanYi Micro Hei'" font-size="11" lengthAdjust="spacing" textLength="51.181" x="1214.41" y="581.0273">&#20248;&#21270;EPUB</text></g><!--entity ??--><g class="entity" data-qualified-name=".." data-source-line="27" id="ent0001"><ellipse cx="1365" cy="83.1969" fill="#FFFFFF" rx="8" ry="8" style="stroke:#000000;stroke-width:0.5;"/><path d="M1365,91.1969 L1365,118.1969 M1352,99.1969 L1378,99.1969 M1365,118.1969 L1352,133.1969 M1365,118.1969 L1378,133.1969" fill="none" style="stroke:#000000;stroke-width:0.5;"/><text fill="#000000" font-family="'WenQuanYi Micro Hei'" font-size="11" lengthAdjust="spacing" textLength="21.9998" x="1354.0001" y="144.9073">&#29992;&#25143;</text></g><!--link ?? to ORCH--><g class="link" data-entity-1="ent0001" data-entity-2="ent0003" data-link-type="dependency" data-source-line="74" id="lnk35"><path d="M1362.63,147.6969 C1360.84,174.5969 1358.7521,205.9479 1357.1221,230.4379" fill="none" id="&#29992;&#25143;-to-ORCH" style="stroke:#000000;stroke-width:0.75;"/><polygon fill="#000000" points="1356.79,235.4269,1361.3789,226.7124,1357.1221,230.4379,1353.3965,226.1811,1356.79,235.4269" style="stroke:#000000;stroke-width:0.75;stroke-linejoin:miter;stroke-miterlimit:10;"/></g><!--link ORCH to P2--><g class="link" data-entity-1="ent0003" data-entity-2="ent0009" data-link-type="dependency" data-source-line="75" id="lnk36"><path d="M1344.88,235.2569 C1336.88,218.0869 1323.89,197.2169 1305,186.9069 C1276.71,171.4669 753.42,194.0969 725,178.9069 C709.6,170.6769 698.3275,154.7469 690.7963,140.5069 C689.8548,138.7269 688.9719,136.9733 688.1466,135.2644 C687.9403,134.8372 687.7376,134.4128 687.5385,133.9915 C687.439,133.7808 687.3403,133.5709 687.2425,133.3618 C687.1937,133.2573 689.2535,137.6866 689.2051,137.5825" fill="none" id="ORCH-to-P2" style="stroke:#000000;stroke-width:0.75;"/><polygon fill="#000000" points="687.0966,133.0488,687.2649,142.8962,689.2051,137.5825,694.5188,139.5226,687.0966,133.0488" style="stroke:#000000;stroke-width:0.75;stroke-linejoin:miter;stroke-miterlimit:10;"/></g><!--link P2 to P3--><g class="link" data-entity-1="ent0009" data-entity-2="ent0015" data-link-type="dependency" data-source-line="76" id="lnk37"><path d="M687.1904,111.0969 C687.4775,111.0969 687.7646,111.0969 688.0516,111.0969 C688.6258,111.0969 689.1999,111.0969 689.7741,111.0969 C690.9225,111.0969 692.0708,111.0969 693.2192,111.0969 C697.8128,111.0969 702.4069,111.0969 707.0013,111.0969 C711.5956,111.0969 716.1903,111.0969 720.7852,111.0969 C721.9339,111.0969 723.0826,111.0969 724.2313,111.0969 C724.8057,111.0969 725.38,111.0969 725.9544,111.0969 C726.2416,111.0969 726.5288,111.0969 726.816,111.0969 C726.8519,111.0969 721.8878,111.0969 721.9237,111.0969" fill="none" id="P2-to-P3" style="stroke:#000000;stroke-width:0.75;"/><polygon fill="#000000" points="726.9237,111.0969,717.9237,107.0969,721.9237,111.0969,717.9237,115.0969,726.9237,111.0969" style="stroke:#000000;stroke-width:0.75;stroke-linejoin:miter;stroke-miterlimit:10;"/></g><!--link P3 to P4--><g class="link" data-entity-1="ent0015" data-entity-2="ent0019" data-link-type="dependency" data-source-line="77" id="lnk38"><path d="M745.0436,163.1099 C745.0978,163.3427 745.1521,163.5755 745.2066,163.8083 C745.3156,164.2738 745.4252,164.7392 745.5354,165.2043 C745.7558,166.1345 745.9784,167.0634 746.2033,167.9899 C747.1028,171.6958 748.0375,175.3619 749,178.9069 C753.965,197.1819 760.69,217.3194 766.305,233.2281 C767.0069,235.2167 767.6914,237.1392 768.353,238.9838 C768.5184,239.4449 768.6823,239.9012 768.8448,240.3524 C768.8854,240.4652 767.2309,235.8738 767.2713,235.9859" fill="none" id="P3-to-P4" style="stroke:#000000;stroke-width:0.75;"/><polygon fill="#000000" points="768.9663,240.6898,769.6784,230.8668,767.2713,235.9859,762.1521,233.5788,768.9663,240.6898" style="stroke:#000000;stroke-width:0.75;stroke-linejoin:miter;stroke-miterlimit:10;"/></g><!--link P4 to P5--><g class="link" data-entity-1="ent0019" data-entity-2="ent0024" data-link-type="dependency" data-source-line="78" id="lnk39"><path d="M768.9357,285.9387 C768.8586,286.1455 768.7811,286.3534 768.7032,286.5624 C768.3915,287.3985 768.0731,288.2522 767.7486,289.1227 C762.5559,303.0497 755.7719,321.245 748.9888,339.4381 C742.2056,357.6313 735.4234,375.8222 730.2345,389.7405 C729.9102,390.6104 729.5921,391.4636 729.2807,392.299 C729.2028,392.5079 730.872,388.0306 730.7949,388.2373" fill="none" id="P4-to-P5" style="stroke:#000000;stroke-width:0.75;"/><polygon fill="#000000" points="729.0483,392.9223,735.9402,385.8866,730.7949,388.2373,728.4442,383.092,729.0483,392.9223" style="stroke:#000000;stroke-width:0.75;stroke-linejoin:miter;stroke-miterlimit:10;"/></g><!--link P5 to P6--><g class="link" data-entity-1="ent0024" data-entity-2="ent0030" data-link-type="dependency" data-source-line="79" id="lnk40"><path d="M729.2483,424.9982 C729.5212,425.279 729.8002,425.5659 730.0849,425.8588 C730.6544,426.4447 731.2471,427.0545 731.8622,427.6873 C733.0923,428.9528 734.4116,430.3101 735.8119,431.7507 C738.6126,434.632 741.7374,437.8468 745.1216,441.3284 C758.6581,455.255 776.3438,473.4506 794.0275,491.6444 C811.7113,509.8381 829.3931,528.03 842.9222,541.9491 C846.3045,545.4288 849.4272,548.6415 852.2255,551.5205 C853.6246,552.9599 854.9427,554.316 856.1715,555.5802 C856.7859,556.2123 857.3781,556.8215 857.9469,557.4067 C858.2313,557.6992 858.5098,557.9858 858.7824,558.2663 C858.8506,558.3364 855.4334,554.8208 855.5008,554.8902" fill="none" id="P5-to-P6" style="stroke:#000000;stroke-width:0.75;"/><polygon fill="#000000" points="858.9858,558.4755,855.581,549.2339,855.5008,554.8902,849.8445,554.8099,858.9858,558.4755" style="stroke:#000000;stroke-width:0.75;stroke-linejoin:miter;stroke-miterlimit:10;"/></g><!--link ORCH to WC--><g class="link" data-entity-1="ent0003" data-entity-2="ent0007" data-link-type="dependency" data-source-line="81" id="lnk41"><path d="M1336.17,291.5069 C1317.38,318.6469 1291.5157,355.9957 1272.7157,383.1557" fill="none" id="ORCH-to-WC" style="stroke:#000000;stroke-width:0.75;"/><polygon fill="#000000" points="1269.87,387.2669,1278.2813,382.1433,1272.7157,383.1557,1271.7034,377.5902,1269.87,387.2669" style="stroke:#000000;stroke-width:0.75;stroke-linejoin:miter;stroke-miterlimit:10;"/></g><!--link PCL to M2T--><g class="link" data-entity-1="ent0016" data-entity-2="ent0004" data-link-type="dependency" data-source-line="82" id="lnk42"><path d="M1214.52,139.3069 C1221.02,166.4369 1229.7946,203.0346 1236.3046,230.1946" fill="none" id="PCL-to-M2T" style="stroke:#000000;stroke-width:0.75;"/><polygon fill="#000000" points="1237.47,235.0569,1239.262,225.3724,1236.3046,230.1946,1231.4824,227.2371,1237.47,235.0569" style="stroke:#000000;stroke-width:0.75;stroke-linejoin:miter;stroke-miterlimit:10;"/></g><!--link L2N to NXT--><g class="link" data-entity-1="ent0017" data-entity-2="ent0028" data-link-type="dependency" data-source-line="83" id="lnk43"><path d="M813.13,139.1869 C796.72,152.5369 775.7,168.0569 755,178.9069 C745.04,184.1269 739.37,179.3969 731,186.9069 C678.55,233.9969 723.24,291.4069 665,331.1169 C638.34,349.2869 549.26,325.5069 520,339.1169 C494.89,350.7869 477.1412,371.5925 464.7112,389.5925" fill="none" id="L2N-to-NXT" style="stroke:#000000;stroke-width:0.75;"/><polygon fill="#000000" points="461.87,393.7069,470.2756,388.574,464.7112,389.5925,463.6926,384.0281,461.87,393.7069" style="stroke:#000000;stroke-width:0.75;stroke-linejoin:miter;stroke-miterlimit:10;"/></g><!--link ERO to EPUB--><g class="link" data-entity-1="ent0018" data-entity-2="ent0005" data-link-type="dependency" data-source-line="84" id="lnk44"><path d="M1047.27,139.3869 C1063.28,154.0569 1085.03,170.7569 1108,178.9069 C1139.11,189.9469 1375.12,172.8669 1405,186.9069 C1426.57,197.0469 1441.1832,213.7689 1452.6832,230.9889" fill="none" id="ERO-to-EPUB" style="stroke:#000000;stroke-width:0.75;"/><polygon fill="#000000" points="1455.46,235.1469,1453.7881,225.441,1452.6832,230.9889,1447.1353,229.8839,1455.46,235.1469" style="stroke:#000000;stroke-width:0.75;stroke-linejoin:miter;stroke-miterlimit:10;"/></g><!--link ERO to CSS--><g class="link" data-entity-1="ent0018" data-entity-2="ent0029" data-link-type="dependency" data-source-line="85" id="lnk45"><path d="M994.66,139.2069 C978.64,153.8169 956.89,170.5169 934,178.9069 C916.56,185.2969 782.23,176.2769 767,186.9069 C709.93,226.7269 746.73,274.6869 706,331.1169 C688.14,355.8469 665.6684,375.3047 645.1984,390.6747" fill="none" id="ERO-to-CSS" style="stroke:#000000;stroke-width:0.75;"/><polygon fill="#000000" points="641.2,393.6769,650.7988,391.4716,645.1984,390.6747,645.9953,385.0743,641.2,393.6769" style="stroke:#000000;stroke-width:0.75;stroke-linejoin:miter;stroke-miterlimit:10;"/></g><!--link EPUB to FONT--><g class="link" data-entity-1="ent0005" data-entity-2="ent0006" data-link-type="dependency" data-source-line="86" id="lnk46"><path d="M1486.39,291.5069 C1501.75,318.6469 1522.7474,355.7553 1538.1174,382.9153" fill="none" id="EPUB-to-FONT" style="stroke:#000000;stroke-width:0.75;"/><polygon fill="#000000" points="1540.58,387.2669,1539.6286,377.4641,1538.1174,382.9153,1532.6662,381.4042,1540.58,387.2669" style="stroke:#000000;stroke-width:0.75;stroke-linejoin:miter;stroke-miterlimit:10;"/></g><!--link EPUB to FORMULA--><g class="link" data-entity-1="ent0005" data-entity-2="ent0008" data-link-type="dependency" data-source-line="87" id="lnk47"><path d="M1458.5,291.5069 C1446.04,318.6469 1429.0763,355.5629 1416.6063,382.7229" fill="none" id="EPUB-to-FORMULA" style="stroke:#000000;stroke-width:0.75;"/><polygon fill="#000000" points="1414.52,387.2669,1421.9104,380.7568,1416.6063,382.7229,1414.6401,377.4187,1414.52,387.2669" style="stroke:#000000;stroke-width:0.75;stroke-linejoin:miter;stroke-miterlimit:10;"/></g><!--link M2T to PDF--><g class="link" data-entity-1="ent0004" data-entity-2="ent0032" data-link-type="dependency" data-source-line="88" id="lnk48"><path d="M1203.9,291.4269 C1188.65,304.0169 1172.83,320.3669 1164,339.1169 C1132.62,405.7269 1138.7689,490.7435 1144.8489,534.9635" fill="none" id="M2T-to-PDF" style="stroke:#000000;stroke-width:0.75;"/><polygon fill="#000000" points="1145.53,539.9169,1148.2668,530.4559,1144.8489,534.9635,1140.3414,531.5456,1145.53,539.9169" style="stroke:#000000;stroke-width:0.75;stroke-linejoin:miter;stroke-miterlimit:10;"/></g><!--link PCL to MDX--><g class="link" data-entity-1="ent0016" data-entity-2="ent0031" data-link-type="dependency" data-source-line="89" id="lnk49"><path d="M1196.54,139.2769 C1190.73,153.3869 1183.71,170.9669 1178,186.9069 C1132.36,314.1969 1130.4,349.1869 1086,476.9169 C1078.56,498.3369 1071.244,517.6775 1064.314,535.4775" fill="none" id="PCL-to-MDX" style="stroke:#000000;stroke-width:0.75;"/><polygon fill="#000000" points="1062.5,540.1369,1069.4927,533.2013,1064.314,535.4775,1062.0377,530.2989,1062.5,540.1369" style="stroke:#000000;stroke-width:0.75;stroke-linejoin:miter;stroke-miterlimit:10;"/></g><!--link L2N to WEB--><g class="link" data-entity-1="ent0017" data-entity-2="ent0033" data-link-type="dependency" data-source-line="90" id="lnk50"><path d="M871.45,139.0869 C888.11,153.6569 910.61,170.3569 934,178.9069 C947.38,183.7969 1052.24,176.5169 1062,186.9069 C1106.13,233.8769 1104.34,428.3369 1062,476.9169 C1044.9,496.5369 1026.3,471.5069 1004,484.9169 C982.84,497.6469 969.4385,516.7527 959.5585,535.3227" fill="none" id="L2N-to-WEB" style="stroke:#000000;stroke-width:0.75;"/><polygon fill="#000000" points="957.21,539.7369,964.9686,533.6702,959.5585,535.3227,957.906,529.9126,957.21,539.7369" style="stroke:#000000;stroke-width:0.75;stroke-linejoin:miter;stroke-miterlimit:10;"/></g><!--link EPUB to EOUT--><g class="link" data-entity-1="ent0005" data-entity-2="ent0034" data-link-type="dependency" data-source-line="91" id="lnk51"><path d="M1452.33,291.4169 C1440.61,306.0169 1424.11,322.7269 1405,331.1169 C1382.4,341.0369 1200.14,321.3469 1183,339.1169 C1161.74,361.1569 1166.59,451.0569 1183,476.9169 C1187.47,483.9669 1194.05,479.0569 1200,484.9169 C1217.46,502.1169 1226.8801,523.7264 1232.8301,541.8464" fill="none" id="EPUB-to-EOUT" style="stroke:#000000;stroke-width:0.75;"/><polygon fill="#000000" points="1234.39,546.5969,1235.3826,536.7982,1232.8301,541.8464,1227.7818,539.294,1234.39,546.5969" style="stroke:#000000;stroke-width:0.75;stroke-linejoin:miter;stroke-miterlimit:10;"/></g><?plantuml-src ZLLRJnj757xVNp5odnS74z8-HG9VGbK3hcqALTs7yUvWJxoUMStEWfCgBn71JHNIDBIq2BKDKgeIfK7fGql4BV-byjhmBt9cndRMKGfPsTQPFTzyC-Sx5mSDodmiS1CrEUDENV0cGLA4n0g6dg2ENRvAMGqjOo-8UwhOQTG43vcRvXuNwAESVc88bopZq9CvpcGVSaK_xuVCOJWziKZOvo5cNr8qInt1qGoXYVVZI_GsGUFZCUUK8xcOllHQ1iQ5IyJ_NIlDcpvdXCdBsTv2BsGi016kaSlv1i0BsJ9OuYeEFe1kYBmuNe-7xWV4gc4NCaq9mLSlT9Rhr6am4WJeojZ7ap4luou9Y8_6uri4PWtrCXL7-aQZahpb4II88p6hUSIo99Nmmk6yKOMllSn5ZQ3UqLhdwD_kR_1P0mZtaUIeogNaK4vKxQQSMHPMLO5wF-vrlpsmhFu9AD4xtke-V1pzVVSTsWJ20IgCesyiXBugVVPfFZ_MT2lCmBiFsfsZfryho7mnFQCWJRULagGrrhmPLDXiPkc_zSTvN2PB6ZIRAYjCDQIUQnC_hCPXsSB2j4OfGy62i1eG2TTWCZ30wCNFdPFDwCMZyvtrwC6MHkVcvpJfAgJBTY2hSeZj_lIoT_JxsVwk1Ywc5OpxaZQXerHqpT33VV2zlwBZxwETqzxzTkVrVlHqeyzTd5t8JrbtOa81QNTZ_xpTLdSu-2EwTs0aIXc90CEaNONy1qHKM7A5hc3FfPfkkgWGYwIQ8zAf9oiCp1B1mgcR2-OqWMZH5NiL0q8JE9mno1rnRH_xH0GQEbLSKbYNEwcMxNYqmWgP79fF5xKtazBUMjsuRb0v4rOxHvlHuQRstvWPYGYYXN90fGRrlC04Cs62yGM_2MVRmvBmCEIsmix-MUjkRVUU7KGlJvAVT5wrGUnarYCrhCO3R-XJ2kcyuj1RRCbjHbfIO3kWabJOd5wWbObaXZiD8fA5XTcytfPFpQbjgZfiGJ2qe3t86SYHBfNEsnlH-dRIr4BIP2wMisnnVZIwdTEptRrufgxsW_FWjc7JCvTTq7eAl4gvqL3dYhGSx57rsd1hNPqw5j9UeK48ljjOjPNsfaTbxUxjTdzztNdrKAbr-CYSFMdE3bH7sxMGkiJcWe3mjw2j-esKVHSH-0B-c8WOG4g5OlyUlWHv96dwIcLmjxI_ND3AzmKVk9FQDxTK7j87TKBas72x4vZY0er70ZaxtOpQXvt3FtltdvaehkaetFx8HGbeO1W9pv-SVNSNsXA2xJuvXgneCFX6iB4oqLLh63EgzXqrTb72r4Rlv8VUy-qA-u88XtZzCj7WnUpq26Fd-1SuLKqDxSxEBvJL_Ss8GxPztGmdzQDNXPG5tQgj2GjANLjNBQWBRKrQa2LjNRFUReBf0GMjJJN5e4grhUI4YjEsdbk3XH9HlT0BFQDYApDLWCUS0y4FkK6j0RUASxX9H_K6?></g></svg>