<svg xmlns="http://www.w3.org/2000/svg" xmlns:xlink="http://www.w3.org/1999/xlink" contentStyleType="text/css" data-diagram-type="DESCRIPTION" height="911px" preserveAspectRatio="none" style="width:1324px;height:911px;background:#FFFFFF;" version="1.1" viewBox="0 0 1324 911" width="1324px" zoomAndPan="magnify"><?plantuml 1.2026.6?><defs/><g><g class="title" data-source-line="25"><text fill="#000000" font-family="'WenQuanYi Micro Hei'" font-size="14" font-weight="700" lengthAdjust="spacing" textLength="184.2283" x="566.3859" y="22.9951">cookbook-forge &#32452;&#20214;&#26550;&#26500;</text></g><!--cluster P_ORCH--><g class="cluster" data-qualified-name="P_ORCH" data-source-line="34" id="ent0002"><rect fill="#FFFFFF" height="111.28" style="stroke:#000000;stroke-width:1;" width="118" x="333" y="130.4369"/><text fill="#000000" font-family="'WenQuanYi Micro Hei'" font-size="10" font-weight="700" lengthAdjust="spacing" textLength="30" x="377" y="141.7191">&#32534;&#25490;&#23618;</text><text fill="#000000" font-family="'WenQuanYi Micro Hei'" font-size="10" font-weight="700" lengthAdjust="spacing" textLength="88.1104" x="347.9448" y="153.3597">cookbook-forge</text></g><!--cluster P_RESEARCH--><g class="cluster" data-qualified-name="P_RESEARCH" data-source-line="38" id="ent0004"><rect fill="#FFFFFF" height="103.64" style="stroke:#000000;stroke-width:1;" width="659" x="37" y="273.7169"/><text fill="#000000" font-family="'WenQuanYi Micro Hei'" font-size="10" font-weight="700" lengthAdjust="spacing" textLength="59.9999" x="336.5" y="284.9991">&#25968;&#25454;&#37319;&#38598;&#24037;&#20855;</text></g><!--cluster P_DIAGRAM--><g class="cluster" data-qualified-name="P_DIAGRAM" data-source-line="46" id="ent0010"><rect fill="#FFFFFF" height="103.64" style="stroke:#000000;stroke-width:1;" width="469" x="51" y="417.3569"/><text fill="#000000" font-family="'WenQuanYi Micro Hei'" font-size="10" font-weight="700" lengthAdjust="spacing" textLength="39.9999" x="265.5" y="428.6391">&#22270;&#34920;&#24037;&#20855;</text></g><!--cluster P_SKILLS--><g class="cluster" data-qualified-name="P_SKILLS" data-source-line="53" id="ent0015"><rect fill="#FFFFFF" height="103.64" style="stroke:#000000;stroke-width:1;" width="455" x="636" y="417.3569"/><text fill="#000000" font-family="'WenQuanYi Micro Hei'" font-size="10" font-weight="700" lengthAdjust="spacing" textLength="53.5693" x="836.7153" y="428.6391">&#22797;&#29992; Skills</text></g><!--cluster P_BUILD--><g class="cluster" data-qualified-name="P_BUILD" data-source-line="59" id="ent0019"><rect fill="#FFFFFF" height="193.28" style="stroke:#000000;stroke-width:1;" width="382" x="701" y="560.9969"/><text fill="#000000" font-family="'WenQuanYi Micro Hei'" font-size="10" font-weight="700" lengthAdjust="spacing" textLength="39.9999" x="872" y="572.2791">&#26500;&#24314;&#36716;&#25442;</text></g><!--cluster P_TEMPLATES--><g class="cluster" data-qualified-name="P_TEMPLATES" data-source-line="67" id="ent0025"><rect fill="#FFFFFF" height="103.64" style="stroke:#000000;stroke-width:1;" width="654" x="7" y="560.9969"/><text fill="#000000" font-family="'WenQuanYi Micro Hei'" font-size="10" font-weight="700" lengthAdjust="spacing" textLength="39.9999" x="314" y="572.2791">&#27169;&#26495;&#36164;&#28304;</text></g><!--cluster P_OUTPUT--><g class="cluster" data-qualified-name="P_OUTPUT" data-source-line="75" id="ent0031"><rect fill="#FFFFFF" height="103.64" style="stroke:#000000;stroke-width:1;" width="332" x="978" y="794.2769"/><text fill="#000000" font-family="'WenQuanYi Micro Hei'" font-size="10" font-weight="700" lengthAdjust="spacing" textLength="39.9999" x="1124" y="805.5591">&#36755;&#20986;&#20135;&#29289;</text></g><!--entity ORCH--><g class="entity" data-qualified-name="P_ORCH.ORCH" data-source-line="35" id="ent0003"><rect fill="#FFFFFF" height="53.2813" style="stroke:#000000;stroke-width:0.5;" width="86.2646" x="348.87" y="172.4369"/><rect fill="#FFFFFF" height="10" style="stroke:#000000;stroke-width:0.5;" width="15" x="415.1346" y="177.4369"/><rect fill="#FFFFFF" height="2" style="stroke:#000000;stroke-width:0.5;" width="4" x="413.1346" y="179.4369"/><rect fill="#FFFFFF" height="2" style="stroke:#000000;stroke-width:0.5;" width="4" x="413.1346" y="183.4369"/><text fill="#000000" font-family="'WenQuanYi Micro Hei'" font-size="10" lengthAdjust="spacing" textLength="46.2646" x="363.87" y="201.7191">SKILL.md</text><text fill="#000000" font-family="'WenQuanYi Micro Hei'" font-size="10" lengthAdjust="spacing" textLength="39.9999" x="363.87" y="213.3597">&#32534;&#25490;&#25351;&#20196;</text></g><!--entity BR--><g class="entity" data-qualified-name="P_RESEARCH.BR" data-source-line="39" id="ent0005"><rect fill="#FFFFFF" height="41.6406" style="stroke:#000000;stroke-width:0.5;" width="112.7246" x="70.64" y="311.7169"/><rect fill="#FFFFFF" height="10" style="stroke:#000000;stroke-width:0.5;" width="15" x="163.3646" y="316.7169"/><rect fill="#FFFFFF" height="2" style="stroke:#000000;stroke-width:0.5;" width="4" x="161.3646" y="318.7169"/><rect fill="#FFFFFF" height="2" style="stroke:#000000;stroke-width:0.5;" width="4" x="161.3646" y="322.7169"/><text fill="#000000" font-family="'WenQuanYi Micro Hei'" font-size="10" lengthAdjust="spacing" textLength="72.7246" x="85.64" y="340.9991">agent-browser</text></g><!--entity WF--><g class="entity" data-qualified-name="P_RESEARCH.WF" data-source-line="40" id="ent0006"><rect fill="#FFFFFF" height="41.6406" style="stroke:#000000;stroke-width:0.5;" width="127.9932" x="208" y="311.7169"/><rect fill="#FFFFFF" height="10" style="stroke:#000000;stroke-width:0.5;" width="15" x="315.9932" y="316.7169"/><rect fill="#FFFFFF" height="2" style="stroke:#000000;stroke-width:0.5;" width="4" x="313.9932" y="318.7169"/><rect fill="#FFFFFF" height="2" style="stroke:#000000;stroke-width:0.5;" width="4" x="313.9932" y="322.7169"/><text fill="#000000" font-family="'WenQuanYi Micro Hei'" font-size="10" lengthAdjust="spacing" textLength="87.9932" x="223" y="340.9991">WebFetch/Search</text></g><!--entity ARX--><g class="entity" data-qualified-name="P_RESEARCH.ARX" data-source-line="41" id="ent0007"><rect fill="#FFFFFF" height="41.6406" style="stroke:#000000;stroke-width:0.5;" width="108.7891" x="360.61" y="311.7169"/><rect fill="#FFFFFF" height="10" style="stroke:#000000;stroke-width:0.5;" width="15" x="449.3991" y="316.7169"/><rect fill="#FFFFFF" height="2" style="stroke:#000000;stroke-width:0.5;" width="4" x="447.3991" y="318.7169"/><rect fill="#FFFFFF" height="2" style="stroke:#000000;stroke-width:0.5;" width="4" x="447.3991" y="322.7169"/><text fill="#000000" font-family="'WenQuanYi Micro Hei'" font-size="10" lengthAdjust="spacing" textLength="68.7891" x="375.61" y="340.9991">arxiv-watcher</text></g><!--entity D2X--><g class="entity" data-qualified-name="P_RESEARCH.D2X" data-source-line="42" id="ent0008"><rect fill="#FFFFFF" height="41.6406" style="stroke:#000000;stroke-width:0.5;" width="84.9072" x="494.55" y="311.7169"/><rect fill="#FFFFFF" height="10" style="stroke:#000000;stroke-width:0.5;" width="15" x="559.4572" y="316.7169"/><rect fill="#FFFFFF" height="2" style="stroke:#000000;stroke-width:0.5;" width="4" x="557.4572" y="318.7169"/><rect fill="#FFFFFF" height="2" style="stroke:#000000;stroke-width:0.5;" width="4" x="557.4572" y="322.7169"/><text fill="#000000" font-family="'WenQuanYi Micro Hei'" font-size="10" lengthAdjust="spacing" textLength="44.9072" x="509.55" y="340.9991">doc2x-cli</text></g><!--entity GH--><g class="entity" data-qualified-name="P_RESEARCH.GH" data-source-line="43" id="ent0009"><rect fill="#FFFFFF" height="41.6406" style="stroke:#000000;stroke-width:0.5;" width="67.3486" x="604.33" y="311.7169"/><rect fill="#FFFFFF" height="10" style="stroke:#000000;stroke-width:0.5;" width="15" x="651.6786" y="316.7169"/><rect fill="#FFFFFF" height="2" style="stroke:#000000;stroke-width:0.5;" width="4" x="649.6786" y="318.7169"/><rect fill="#FFFFFF" height="2" style="stroke:#000000;stroke-width:0.5;" width="4" x="649.6786" y="322.7169"/><text fill="#000000" font-family="'WenQuanYi Micro Hei'" font-size="10" lengthAdjust="spacing" textLength="27.3486" x="619.33" y="340.9991">gh-cli</text></g><!--entity PU--><g class="entity" data-qualified-name="P_DIAGRAM.PU" data-source-line="47" id="ent0011"><rect fill="#FFFFFF" height="41.6406" style="stroke:#000000;stroke-width:0.5;" width="84.3701" x="84.81" y="455.3569"/><rect fill="#FFFFFF" height="10" style="stroke:#000000;stroke-width:0.5;" width="15" x="149.1801" y="460.3569"/><rect fill="#FFFFFF" height="2" style="stroke:#000000;stroke-width:0.5;" width="4" x="147.1801" y="462.3569"/><rect fill="#FFFFFF" height="2" style="stroke:#000000;stroke-width:0.5;" width="4" x="147.1801" y="466.3569"/><text fill="#000000" font-family="'WenQuanYi Micro Hei'" font-size="10" lengthAdjust="spacing" textLength="44.3701" x="99.81" y="484.6391">plantuml</text></g><!--entity DR--><g class="entity" data-qualified-name="P_DIAGRAM.DR" data-source-line="48" id="ent0012"><rect fill="#FFFFFF" height="41.6406" style="stroke:#000000;stroke-width:0.5;" width="73.6621" x="194.17" y="455.3569"/><rect fill="#FFFFFF" height="10" style="stroke:#000000;stroke-width:0.5;" width="15" x="247.8321" y="460.3569"/><rect fill="#FFFFFF" height="2" style="stroke:#000000;stroke-width:0.5;" width="4" x="245.8321" y="462.3569"/><rect fill="#FFFFFF" height="2" style="stroke:#000000;stroke-width:0.5;" width="4" x="245.8321" y="466.3569"/><text fill="#000000" font-family="'WenQuanYi Micro Hei'" font-size="10" lengthAdjust="spacing" textLength="33.6621" x="209.17" y="484.6391">drawio</text></g><!--entity EX--><g class="entity" data-qualified-name="P_DIAGRAM.EX" data-source-line="49" id="ent0013"><rect fill="#FFFFFF" height="41.6406" style="stroke:#000000;stroke-width:0.5;" width="94.0186" x="292.99" y="455.3569"/><rect fill="#FFFFFF" height="10" style="stroke:#000000;stroke-width:0.5;" width="15" x="367.0086" y="460.3569"/><rect fill="#FFFFFF" height="2" style="stroke:#000000;stroke-width:0.5;" width="4" x="365.0086" y="462.3569"/><rect fill="#FFFFFF" height="2" style="stroke:#000000;stroke-width:0.5;" width="4" x="365.0086" y="466.3569"/><text fill="#000000" font-family="'WenQuanYi Micro Hei'" font-size="10" lengthAdjust="spacing" textLength="54.0186" x="307.99" y="484.6391">excalidraw</text></g><!--entity CH--><g class="entity" data-qualified-name="P_DIAGRAM.CH" data-source-line="50" id="ent0014"><rect fill="#FFFFFF" height="41.6406" style="stroke:#000000;stroke-width:0.5;" width="83.5498" x="412.23" y="455.3569"/><rect fill="#FFFFFF" height="10" style="stroke:#000000;stroke-width:0.5;" width="15" x="475.7798" y="460.3569"/><rect fill="#FFFFFF" height="2" style="stroke:#000000;stroke-width:0.5;" width="4" x="473.7798" y="462.3569"/><rect fill="#FFFFFF" height="2" style="stroke:#000000;stroke-width:0.5;" width="4" x="473.7798" y="466.3569"/><text fill="#000000" font-family="'WenQuanYi Micro Hei'" font-size="10" lengthAdjust="spacing" textLength="43.5498" x="427.23" y="484.6391">chart-viz</text></g><!--entity PCL--><g class="entity" data-qualified-name="P_SKILLS.PCL" data-source-line="54" id="ent0016"><rect fill="#FFFFFF" height="41.6406" style="stroke:#000000;stroke-width:0.5;" width="116.4063" x="940.8" y="455.3569"/><rect fill="#FFFFFF" height="10" style="stroke:#000000;stroke-width:0.5;" width="15" x="1037.2063" y="460.3569"/><rect fill="#FFFFFF" height="2" style="stroke:#000000;stroke-width:0.5;" width="4" x="1035.2063" y="462.3569"/><rect fill="#FFFFFF" height="2" style="stroke:#000000;stroke-width:0.5;" width="4" x="1035.2063" y="466.3569"/><text fill="#000000" font-family="'WenQuanYi Micro Hei'" font-size="10" lengthAdjust="spacing" textLength="76.4063" x="955.8" y="484.6391">cookbook-latex</text></g><!--entity L2N--><g class="entity" data-qualified-name="P_SKILLS.L2N" data-source-line="55" id="ent0017"><rect fill="#FFFFFF" height="41.6406" style="stroke:#000000;stroke-width:0.5;" width="114.7217" x="800.64" y="455.3569"/><rect fill="#FFFFFF" height="10" style="stroke:#000000;stroke-width:0.5;" width="15" x="895.3617" y="460.3569"/><rect fill="#FFFFFF" height="2" style="stroke:#000000;stroke-width:0.5;" width="4" x="893.3617" y="462.3569"/><rect fill="#FFFFFF" height="2" style="stroke:#000000;stroke-width:0.5;" width="4" x="893.3617" y="466.3569"/><text fill="#000000" font-family="'WenQuanYi Micro Hei'" font-size="10" lengthAdjust="spacing" textLength="74.7217" x="815.64" y="484.6391">latex-to-nextra</text></g><!--entity ERO--><g class="entity" data-qualified-name="P_SKILLS.ERO" data-source-line="56" id="ent0018"><rect fill="#FFFFFF" height="41.6406" style="stroke:#000000;stroke-width:0.5;" width="115.9912" x="660" y="455.3569"/><rect fill="#FFFFFF" height="10" style="stroke:#000000;stroke-width:0.5;" width="15" x="755.9912" y="460.3569"/><rect fill="#FFFFFF" height="2" style="stroke:#000000;stroke-width:0.5;" width="4" x="753.9912" y="462.3569"/><rect fill="#FFFFFF" height="2" style="stroke:#000000;stroke-width:0.5;" width="4" x="753.9912" y="466.3569"/><text fill="#000000" font-family="'WenQuanYi Micro Hei'" font-size="10" lengthAdjust="spacing" textLength="75.9912" x="675" y="484.6391">epub-optimizer</text></g><!--entity M2T--><g class="entity" data-qualified-name="P_BUILD.M2T" data-source-line="60" id="ent0020"><rect fill="#FFFFFF" height="41.6406" style="stroke:#000000;stroke-width:0.5;" width="84.3604" x="964.82" y="598.9969"/><rect fill="#FFFFFF" height="10" style="stroke:#000000;stroke-width:0.5;" width="15" x="1029.1804" y="603.9969"/><rect fill="#FFFFFF" height="2" style="stroke:#000000;stroke-width:0.5;" width="4" x="1027.1804" y="605.9969"/><rect fill="#FFFFFF" height="2" style="stroke:#000000;stroke-width:0.5;" width="4" x="1027.1804" y="609.9969"/><text fill="#000000" font-family="'WenQuanYi Micro Hei'" font-size="10" lengthAdjust="spacing" textLength="44.3604" x="979.82" y="628.2791">mdx2tex</text></g><!--entity EPUB--><g class="entity" data-qualified-name="P_BUILD.EPUB" data-source-line="61" id="ent0021"><rect fill="#FFFFFF" height="41.6406" style="stroke:#000000;stroke-width:0.5;" width="93.3838" x="725.31" y="598.9969"/><rect fill="#FFFFFF" height="10" style="stroke:#000000;stroke-width:0.5;" width="15" x="798.6938" y="603.9969"/><rect fill="#FFFFFF" height="2" style="stroke:#000000;stroke-width:0.5;" width="4" x="796.6938" y="605.9969"/><rect fill="#FFFFFF" height="2" style="stroke:#000000;stroke-width:0.5;" width="4" x="796.6938" y="609.9969"/><text fill="#000000" font-family="'WenQuanYi Micro Hei'" font-size="10" lengthAdjust="spacing" textLength="53.3838" x="740.31" y="628.2791">build-epub</text></g><!--entity FONT--><g class="entity" data-qualified-name="P_BUILD.FONT" data-source-line="62" id="ent0022"><rect fill="#FFFFFF" height="41.6406" style="stroke:#000000;stroke-width:0.5;" width="101.8945" x="725.05" y="688.6369"/><rect fill="#FFFFFF" height="10" style="stroke:#000000;stroke-width:0.5;" width="15" x="806.9445" y="693.6369"/><rect fill="#FFFFFF" height="2" style="stroke:#000000;stroke-width:0.5;" width="4" x="804.9445" y="695.6369"/><rect fill="#FFFFFF" height="2" style="stroke:#000000;stroke-width:0.5;" width="4" x="804.9445" y="699.6369"/><text fill="#000000" font-family="'WenQuanYi Micro Hei'" font-size="10" lengthAdjust="spacing" textLength="61.8945" x="740.05" y="717.9191">subset-fonts</text></g><!--entity WC--><g class="entity" data-qualified-name="P_BUILD.WC" data-source-line="63" id="ent0023"><rect fill="#FFFFFF" height="41.6406" style="stroke:#000000;stroke-width:0.5;" width="96.5771" x="843.71" y="598.9969"/><rect fill="#FFFFFF" height="10" style="stroke:#000000;stroke-width:0.5;" width="15" x="920.2871" y="603.9969"/><rect fill="#FFFFFF" height="2" style="stroke:#000000;stroke-width:0.5;" width="4" x="918.2871" y="605.9969"/><rect fill="#FFFFFF" height="2" style="stroke:#000000;stroke-width:0.5;" width="4" x="918.2871" y="609.9969"/><text fill="#000000" font-family="'WenQuanYi Micro Hei'" font-size="10" lengthAdjust="spacing" textLength="56.5771" x="858.71" y="628.2791">word-count</text></g><!--entity FORMULA--><g class="entity" data-qualified-name="P_BUILD.FORMULA" data-source-line="64" id="ent0024"><rect fill="#FFFFFF" height="41.6406" style="stroke:#000000;stroke-width:0.5;" width="94.5605" x="851.72" y="688.6369"/><rect fill="#FFFFFF" height="10" style="stroke:#000000;stroke-width:0.5;" width="15" x="926.2805" y="693.6369"/><rect fill="#FFFFFF" height="2" style="stroke:#000000;stroke-width:0.5;" width="4" x="924.2805" y="695.6369"/><rect fill="#FFFFFF" height="2" style="stroke:#000000;stroke-width:0.5;" width="4" x="924.2805" y="699.6369"/><text fill="#000000" font-family="'WenQuanYi Micro Hei'" font-size="10" lengthAdjust="spacing" textLength="54.5605" x="866.72" y="717.9191">fix-formula</text></g><!--entity ORE--><g class="entity" data-qualified-name="P_TEMPLATES.ORE" data-source-line="68" id="ent0026"><rect fill="#FFFFFF" height="41.6406" style="stroke:#000000;stroke-width:0.5;" width="109.1162" x="40.44" y="598.9969"/><rect fill="#FFFFFF" height="10" style="stroke:#000000;stroke-width:0.5;" width="15" x="129.5562" y="603.9969"/><rect fill="#FFFFFF" height="2" style="stroke:#000000;stroke-width:0.5;" width="4" x="127.5562" y="605.9969"/><rect fill="#FFFFFF" height="2" style="stroke:#000000;stroke-width:0.5;" width="4" x="127.5562" y="609.9969"/><text fill="#000000" font-family="'WenQuanYi Micro Hei'" font-size="10" lengthAdjust="spacing" textLength="69.1162" x="55.44" y="628.2791">O'Reilly guide</text></g><!--entity SPR--><g class="entity" data-qualified-name="P_TEMPLATES.SPR" data-source-line="69" id="ent0027"><rect fill="#FFFFFF" height="41.6406" style="stroke:#000000;stroke-width:0.5;" width="113.6768" x="174.16" y="598.9969"/><rect fill="#FFFFFF" height="10" style="stroke:#000000;stroke-width:0.5;" width="15" x="267.8368" y="603.9969"/><rect fill="#FFFFFF" height="2" style="stroke:#000000;stroke-width:0.5;" width="4" x="265.8368" y="605.9969"/><rect fill="#FFFFFF" height="2" style="stroke:#000000;stroke-width:0.5;" width="4" x="265.8368" y="609.9969"/><text fill="#000000" font-family="'WenQuanYi Micro Hei'" font-size="10" lengthAdjust="spacing" textLength="73.6768" x="189.16" y="628.2791">Springer guide</text></g><!--entity TPL--><g class="entity" data-qualified-name="P_TEMPLATES.TPL" data-source-line="70" id="ent0028"><rect fill="#FFFFFF" height="41.6406" style="stroke:#000000;stroke-width:0.5;" width="94.7217" x="312.64" y="598.9969"/><rect fill="#FFFFFF" height="10" style="stroke:#000000;stroke-width:0.5;" width="15" x="387.3617" y="603.9969"/><rect fill="#FFFFFF" height="2" style="stroke:#000000;stroke-width:0.5;" width="4" x="385.3617" y="605.9969"/><rect fill="#FFFFFF" height="2" style="stroke:#000000;stroke-width:0.5;" width="4" x="385.3617" y="609.9969"/><text fill="#000000" font-family="'WenQuanYi Micro Hei'" font-size="10" lengthAdjust="spacing" textLength="54.7217" x="327.64" y="628.2791">chapter tpl</text></g><!--entity NXT--><g class="entity" data-qualified-name="P_TEMPLATES.NXT" data-source-line="71" id="ent0029"><rect fill="#FFFFFF" height="41.6406" style="stroke:#000000;stroke-width:0.5;" width="88.7939" x="548.6" y="598.9969"/><rect fill="#FFFFFF" height="10" style="stroke:#000000;stroke-width:0.5;" width="15" x="617.3939" y="603.9969"/><rect fill="#FFFFFF" height="2" style="stroke:#000000;stroke-width:0.5;" width="4" x="615.3939" y="605.9969"/><rect fill="#FFFFFF" height="2" style="stroke:#000000;stroke-width:0.5;" width="4" x="615.3939" y="609.9969"/><text fill="#000000" font-family="'WenQuanYi Micro Hei'" font-size="10" lengthAdjust="spacing" textLength="48.7939" x="563.6" y="628.2791">nextra tpl</text></g><!--entity CSS--><g class="entity" data-qualified-name="P_TEMPLATES.CSS" data-source-line="72" id="ent0030"><rect fill="#FFFFFF" height="41.6406" style="stroke:#000000;stroke-width:0.5;" width="91.7529" x="432.12" y="598.9969"/><rect fill="#FFFFFF" height="10" style="stroke:#000000;stroke-width:0.5;" width="15" x="503.8729" y="603.9969"/><rect fill="#FFFFFF" height="2" style="stroke:#000000;stroke-width:0.5;" width="4" x="501.8729" y="605.9969"/><rect fill="#FFFFFF" height="2" style="stroke:#000000;stroke-width:0.5;" width="4" x="501.8729" y="609.9969"/><text fill="#000000" font-family="'WenQuanYi Micro Hei'" font-size="10" lengthAdjust="spacing" textLength="51.7529" x="447.12" y="628.2791">stylesheet</text></g><!--entity MDX--><g class="entity" data-qualified-name="P_OUTPUT.MDX" data-source-line="76" id="ent0032"><path d="M1242.41,842.7769 C1242.41,832.7769 1263.9994,832.7769 1263.9994,832.7769 C1263.9994,832.7769 1285.5887,832.7769 1285.5887,842.7769 L1285.5887,863.4175 C1285.5887,873.4175 1263.9994,873.4175 1263.9994,873.4175 C1263.9994,873.4175 1242.41,873.4175 1242.41,863.4175 L1242.41,842.7769" fill="#FFFFFF" style="stroke:#000000;stroke-width:0.5;"/><path d="M1242.41,842.7769 C1242.41,852.7769 1263.9994,852.7769 1263.9994,852.7769 C1263.9994,852.7769 1285.5887,852.7769 1285.5887,842.7769" fill="none" style="stroke:#000000;stroke-width:0.5;"/><text fill="#000000" font-family="'WenQuanYi Micro Hei'" font-size="10" lengthAdjust="spacing" textLength="23.1787" x="1252.41" y="866.0591">MDX</text></g><!--entity PDF--><g class="entity" data-qualified-name="P_OUTPUT.PDF" data-source-line="77" id="ent0033"><path d="M1178.26,842.7769 C1178.26,832.7769 1198.0012,832.7769 1198.0012,832.7769 C1198.0012,832.7769 1217.7424,832.7769 1217.7424,842.7769 L1217.7424,863.4175 C1217.7424,873.4175 1198.0012,873.4175 1198.0012,873.4175 C1198.0012,873.4175 1178.26,873.4175 1178.26,863.4175 L1178.26,842.7769" fill="#FFFFFF" style="stroke:#000000;stroke-width:0.5;"/><path d="M1178.26,842.7769 C1178.26,852.7769 1198.0012,852.7769 1198.0012,852.7769 C1198.0012,852.7769 1217.7424,852.7769 1217.7424,842.7769" fill="none" style="stroke:#000000;stroke-width:0.5;"/><text fill="#000000" font-family="'WenQuanYi Micro Hei'" font-size="10" lengthAdjust="spacing" textLength="19.4824" x="1188.26" y="866.0591">PDF</text></g><!--entity WEB--><g class="entity" data-qualified-name="P_OUTPUT.WEB" data-source-line="78" id="ent0034"><path d="M1091.4458,840.8976 C1094.4684,833.3147 1100.9355,832.9975 1105.5119,839.3265 C1108.7437,832.3968 1114.4284,830.5636 1119.9673,836.792 C1124.7518,831.0873 1130.7658,831.0053 1133.7852,838.6229 C1138.4159,832.9854 1143.9318,834.2552 1146.7654,840.574 C1156.5338,840.282 1158.5308,844.8033 1155.1261,853.2203 C1158.412,862.6278 1155.6615,867.0444 1145.401,866.6212 C1144.0318,874.6858 1138.9966,877.1013 1132.495,871.4507 C1129.7351,877.9028 1123.891,880.0273 1119.1057,873.5478 C1113.7062,879.1513 1108.2192,876.5707 1105.719,870.2837 C1100.6229,875.5642 1095.8865,874.0802 1092.9102,867.912 C1085.5833,865.9341 1083.3911,860.3878 1088.4681,854.3478 C1082.653,848.7168 1084.2738,843.6534 1091.4458,840.8976" fill="#FFFFFF" style="stroke:#000000;stroke-width:0.5;"/><text fill="#000000" font-family="'WenQuanYi Micro Hei'" font-size="10" lengthAdjust="spacing" textLength="40.4492" x="1097.78" y="856.5591">Website</text></g><!--entity EOUT--><g class="entity" data-qualified-name="P_OUTPUT.EOUT" data-source-line="79" id="ent0035"><path d="M1011.74,842.7769 C1011.74,832.7769 1035.0042,832.7769 1035.0042,832.7769 C1035.0042,832.7769 1058.2683,832.7769 1058.2683,842.7769 L1058.2683,863.4175 C1058.2683,873.4175 1035.0042,873.4175 1035.0042,873.4175 C1035.0042,873.4175 1011.74,873.4175 1011.74,863.4175 L1011.74,842.7769" fill="#FFFFFF" style="stroke:#000000;stroke-width:0.5;"/><path d="M1011.74,842.7769 C1011.74,852.7769 1035.0042,852.7769 1035.0042,852.7769 C1035.0042,852.7769 1058.2683,852.7769 1058.2683,842.7769" fill="none" style="stroke:#000000;stroke-width:0.5;"/><text fill="#000000" font-family="'WenQuanYi Micro Hei'" font-size="10" lengthAdjust="spacing" textLength="26.5283" x="1021.74" y="866.0591">EPUB</text></g><!--entity USER--><g class="entity" data-qualified-name="USER" data-source-line="32" id="ent0001"><ellipse cx="392" cy="51.2969" fill="#FFFFFF" rx="8" ry="8" style="stroke:#000000;stroke-width:0.5;"/><path d="M392,59.2969 L392,86.2969 M379,67.2969 L405,67.2969 M392,86.2969 L379,101.2969 M392,86.2969 L405,101.2969" fill="none" style="stroke:#000000;stroke-width:0.5;"/><text fill="#000000" font-family="'WenQuanYi Micro Hei'" font-size="10" lengthAdjust="spacing" textLength="20" x="382" y="112.0791">&#29992;&#25143;</text></g><!--link USER to ORCH--><g class="link" data-entity-1="ent0001" data-entity-2="ent0003" data-link-type="dependency" data-source-line="82" id="lnk36"><path d="M392,114.8369 C392,133.2469 392,150.3869 392,167.2069" fill="none" id="USER-to-ORCH" style="stroke:#000000;stroke-width:0.75;"/><polygon fill="#000000" points="392,172.2069,396,163.2069,392,167.2069,388,163.2069,392,172.2069" style="stroke:#000000;stroke-width:0.75;stroke-linejoin:miter;stroke-miterlimit:10;"/></g><!--link ORCH to P_RESEARCH--><g class="link" data-entity-1="ent0003" data-entity-2="ent0004" data-link-type="dependency" data-source-line="84" id="lnk37"><path d="M348.4,201.4769 C267.13,205.0369 97.08,217.2569 57,257.7169 C54.1675,260.5756 51.845,263.8245 49.9505,267.3272 C49.0033,269.0785 48.1631,270.8932 47.4196,272.7544 C47.3267,272.987 49.0285,268.553 48.9386,268.7871" fill="none" id="ORCH-to-P_RESEARCH" style="stroke:#000000;stroke-width:0.75;"/><polygon fill="#000000" points="47.1453,273.4544,54.1071,266.4878,48.9386,268.7871,46.6394,263.6186,47.1453,273.4544" style="stroke:#000000;stroke-width:0.75;stroke-linejoin:miter;stroke-miterlimit:10;"/></g><!--link ORCH to P_SKILLS--><g class="link" data-entity-1="ent0003" data-entity-2="ent0015" data-link-type="dependency" data-source-line="85" id="lnk38"><path d="M435.37,206.2969 C493.18,215.1169 598.41,232.9669 686,257.7169 C861.75,307.3669 955.11,260.1969 1071,401.3569 C1073.5538,404.4681 1075.665,407.9083 1077.4035,411.5521 C1078.2727,413.374 1077.345,410.546 1078.0366,412.4541" fill="none" id="ORCH-to-P_SKILLS" style="stroke:#000000;stroke-width:0.75;"/><polygon fill="#000000" points="1079.7403,417.1548,1080.4341,407.3304,1078.0366,412.4541,1072.9129,410.0565,1079.7403,417.1548" style="stroke:#000000;stroke-width:0.75;stroke-linejoin:miter;stroke-miterlimit:10;"/></g><!--link P_RESEARCH to P_DIAGRAM--><g class="link" data-entity-1="ent0004" data-entity-2="ent0010" data-link-type="dependency" data-source-line="87" id="lnk39"><path d="M49.3608,377.6388 C49.4102,378.1395 49.4599,378.6423 49.5098,379.147 C50.308,387.2227 51.1559,395.8013 52.0038,404.3794 C52.4277,408.6684 52.3598,407.9816 52.7774,412.2075" fill="none" id="P_RESEARCH-to-P_DIAGRAM" style="stroke:#000000;stroke-width:0.75;"/><polygon fill="#000000" points="53.2692,417.1833,56.3646,407.8335,52.7774,412.2075,48.4034,408.6203,53.2692,417.1833" style="stroke:#000000;stroke-width:0.75;stroke-linejoin:miter;stroke-miterlimit:10;"/></g><!--link P_SKILLS to P_BUILD--><g class="link" data-entity-1="ent0015" data-entity-2="ent0019" data-link-type="dependency" data-source-line="88" id="lnk40"><path d="M1080.5098,521.2788 C1080.4815,521.7795 1080.4531,522.2823 1080.4246,522.787 C1079.9688,530.8627 1079.4844,539.4413 1079,548.0194 C1078.7578,552.3084 1078.7975,551.6053 1078.5589,555.8312" fill="none" id="P_SKILLS-to-P_BUILD" style="stroke:#000000;stroke-width:0.75;"/><polygon fill="#000000" points="1078.277,560.8233,1082.778,552.0631,1078.5589,555.8312,1074.7908,551.6121,1078.277,560.8233" style="stroke:#000000;stroke-width:0.75;stroke-linejoin:miter;stroke-miterlimit:10;"/></g><!--link P_DIAGRAM to P_TEMPLATES--><g class="link" data-entity-1="ent0010" data-entity-2="ent0025" data-link-type="dependency" data-source-line="90" id="lnk41"><path d="M50.8716,490.7164 C50.8248,490.7982 50.7779,490.8804 50.7308,490.9628 C50.6367,491.1276 50.5421,491.2937 50.447,491.4608 C48.9249,494.1357 47.2741,497.1066 45.5588,500.3031 C38.6975,513.0894 30.805,529.4869 26,544.9969 C24.8113,548.8331 23.7491,552.8228 22.8002,556.8725 C22.563,557.8849 22.3329,558.9011 22.1096,559.9196 C22.0538,560.1742 23.0523,555.5413 22.9973,555.7962" fill="none" id="P_DIAGRAM-to-P_TEMPLATES" style="stroke:#000000;stroke-width:0.75;"/><polygon fill="#000000" points="21.9435,560.6839,27.7506,552.7291,22.9973,555.7962,19.9303,551.0429,21.9435,560.6839" style="stroke:#000000;stroke-width:0.75;stroke-linejoin:miter;stroke-miterlimit:10;"/></g><!--link P_BUILD to P_OUTPUT--><g class="link" data-entity-1="ent0019" data-entity-2="ent0031" data-link-type="dependency" data-source-line="91" id="lnk42"><path d="M1083.0895,653.8899 C1083.1267,654.0954 1083.1637,654.3015 1083.2006,654.5083 C1083.3483,655.3355 1083.4941,656.1732 1083.6375,657.0208 C1084.7848,663.8016 1085.7825,671.2163 1086.4175,678.9769 C1088.9575,710.0194 1085.695,746.5969 1063,770.2769 C1042.86,791.2869 1018.98,758.0969 998,778.2769 C995.0988,781.0669 992.7242,784.2636 990.7914,787.7276 C989.825,789.4596 988.969,791.2585 988.2128,793.1067 C988.1183,793.3377 988.0253,793.5695 987.9339,793.8021 C987.8882,793.9183 989.6408,789.3692 989.5958,789.4859" fill="none" id="P_BUILD-to-P_OUTPUT" style="stroke:#000000;stroke-width:0.75;"/><polygon fill="#000000" points="987.7979,794.1514,994.7666,787.1918,989.5958,789.4859,987.3017,784.3151,987.7979,794.1514" style="stroke:#000000;stroke-width:0.75;stroke-linejoin:miter;stroke-miterlimit:10;"/></g><!--link BR to PU--><!--link WF to DR--><!--link ARX to EX--><!--link D2X to CH--><!--link GH to PCL--><!--link PCL to M2T--><!--link PCL to M2T--><g class="link" data-entity-1="ent0016" data-entity-2="ent0020" data-link-type="dependency" data-source-line="110" id="lnk57"><path d="M1006.95,497.4669 C1011.9,524.3969 1014.9241,566.6694 1013.0141,593.5694" fill="none" id="PCL-to-M2T" style="stroke:#000000;stroke-width:0.75;stroke-dasharray:7,7;"/><polygon fill="#000000" points="1012.66,598.5569,1017.2874,589.8628,1013.0141,593.5694,1009.3075,589.2962,1012.66,598.5569" style="stroke:#000000;stroke-width:0.75;stroke-linejoin:miter;stroke-miterlimit:10;"/></g><!--link L2N to EPUB--><!--link ERO to WC--><!--link PU to ORE--><!--link DR to SPR--><!--link M2T to MDX--><!--link EPUB to PDF--><!--link FONT to WEB--><!--link WC to EOUT--><!--link PCL to MDX--><g class="link" data-entity-1="ent0016" data-entity-2="ent0032" data-link-type="dependency" data-source-line="111" id="lnk58"><path d="M1013.97,497.4169 C1025.27,511.0469 1042.04,528.1069 1061,536.9969 C1090.55,550.8469 1107.05,526.5869 1134,544.9969 C1234.39,613.5869 1257.1104,771.3171 1262.1904,827.5771" fill="none" id="PCL-to-MDX" style="stroke:#000000;stroke-width:0.75;stroke-dasharray:7,7;"/><polygon fill="#000000" points="1262.64,832.5569,1265.8144,823.2336,1262.1904,827.5771,1257.8468,823.9531,1262.64,832.5569" style="stroke:#000000;stroke-width:0.75;stroke-linejoin:miter;stroke-miterlimit:10;"/></g><!--link L2N to NXT--><g class="link" data-entity-1="ent0017" data-entity-2="ent0029" data-link-type="dependency" data-source-line="112" id="lnk59"><path d="M840.58,497.4569 C827.57,511.1069 808.57,528.1669 788,536.9969 C756.38,550.5669 743.54,533.8069 711,544.9969 C675.81,557.0969 644.2315,578.3193 621.4815,595.7193" fill="none" id="L2N-to-NXT" style="stroke:#000000;stroke-width:0.75;stroke-dasharray:7,7;"/><polygon fill="#000000" points="617.51,598.7569,627.0888,596.4665,621.4815,595.7193,622.2287,590.112,617.51,598.7569" style="stroke:#000000;stroke-width:0.75;stroke-linejoin:miter;stroke-miterlimit:10;"/></g><!--link L2N to WEB--><g class="link" data-entity-1="ent0017" data-entity-2="ent0034" data-link-type="dependency" data-source-line="113" id="lnk60"><path d="M874.73,497.2069 C887.68,511.1169 906.91,528.6069 928,536.9969 C944.64,543.6069 1076.06,532.6169 1089,544.9969 C1169.5,621.9869 1139.6004,771.771 1125.0804,827.041" fill="none" id="L2N-to-WEB" style="stroke:#000000;stroke-width:0.75;stroke-dasharray:7,7;"/><polygon fill="#000000" points="1123.81,831.8769,1129.9655,824.1886,1125.0804,827.041,1122.2281,822.1559,1123.81,831.8769" style="stroke:#000000;stroke-width:0.75;stroke-linejoin:miter;stroke-miterlimit:10;"/></g><!--link ERO to CSS--><g class="link" data-entity-1="ent0018" data-entity-2="ent0030" data-link-type="dependency" data-source-line="114" id="lnk61"><path d="M659.51,490.1969 C621.72,500.6269 572.9,518.0469 536,544.9969 C516.26,559.4169 502.3912,578.0376 492.0912,594.5076" fill="none" id="ERO-to-CSS" style="stroke:#000000;stroke-width:0.75;stroke-dasharray:7,7;"/><polygon fill="#000000" points="489.44,598.7469,497.6035,593.2371,492.0912,594.5076,490.8207,588.9953,489.44,598.7469" style="stroke:#000000;stroke-width:0.75;stroke-linejoin:miter;stroke-miterlimit:10;"/></g><!--link ERO to EPUB--><g class="link" data-entity-1="ent0018" data-entity-2="ent0021" data-link-type="dependency" data-source-line="115" id="lnk62"><path d="M725.74,497.4669 C736,524.3969 752.2381,566.9852 762.4981,593.8852" fill="none" id="ERO-to-EPUB" style="stroke:#000000;stroke-width:0.75;stroke-dasharray:7,7;"/><polygon fill="#000000" points="764.28,598.5569,764.81,588.7223,762.4981,593.8852,757.3353,591.5733,764.28,598.5569" style="stroke:#000000;stroke-width:0.75;stroke-linejoin:miter;stroke-miterlimit:10;"/></g><!--link EPUB to FONT--><g class="link" data-entity-1="ent0021" data-entity-2="ent0022" data-link-type="dependency" data-source-line="116" id="lnk63"><path d="M772.91,640.7069 C773.56,654.9469 774.203,669.052 774.853,683.352" fill="none" id="EPUB-to-FONT" style="stroke:#000000;stroke-width:0.75;stroke-dasharray:7,7;"/><polygon fill="#000000" points="775.08,688.3469,778.6672,679.1745,774.853,683.352,770.6755,679.5378,775.08,688.3469" style="stroke:#000000;stroke-width:0.75;stroke-linejoin:miter;stroke-miterlimit:10;"/></g><!--link EPUB to FORMULA--><g class="link" data-entity-1="ent0021" data-entity-2="ent0024" data-link-type="dependency" data-source-line="117" id="lnk64"><path d="M788.12,640.9269 C799.13,653.6369 814.64,669.6769 831,680.6369 C837.25,684.8269 839.6942,686.453 846.7442,689.723" fill="none" id="EPUB-to-FORMULA" style="stroke:#000000;stroke-width:0.75;stroke-dasharray:7,7;"/><polygon fill="#000000" points="851.28,691.8269,844.7986,684.4113,846.7442,689.723,841.4324,691.6686,851.28,691.8269" style="stroke:#000000;stroke-width:0.75;stroke-linejoin:miter;stroke-miterlimit:10;"/></g><!--link EPUB to EOUT--><g class="link" data-entity-1="ent0021" data-entity-2="ent0035" data-link-type="dependency" data-source-line="118" id="lnk65"><path d="M785.69,641.0269 C796.29,654.8269 812.28,672.1069 831,680.6369 C856.94,692.4469 935.15,673.0369 959,688.6369 C993.15,710.9669 978.06,736.5269 1001,770.2769 C1003.66,774.1869 1005.59,774.2069 1008,778.2769 C1018.15,795.4169 1024.1249,812.2126 1028.5649,827.6126" fill="none" id="EPUB-to-EOUT" style="stroke:#000000;stroke-width:0.75;stroke-dasharray:7,7;"/><polygon fill="#000000" points="1029.95,832.4169,1031.3002,822.661,1028.5649,827.6126,1023.6133,824.8772,1029.95,832.4169" style="stroke:#000000;stroke-width:0.75;stroke-linejoin:miter;stroke-miterlimit:10;"/></g><!--link M2T to PDF--><g class="link" data-entity-1="ent0020" data-entity-2="ent0033" data-link-type="dependency" data-source-line="119" id="lnk66"><path d="M1017.22,641.0669 C1025.11,654.5269 1037.32,671.3669 1053,680.6369 C1073.13,692.5369 1085.23,676.1569 1105,688.6369 C1145.75,714.3569 1142.76,736.0569 1166,778.2769 C1175.77,796.0169 1182.9159,812.6915 1188.8559,827.8515" fill="none" id="M2T-to-PDF" style="stroke:#000000;stroke-width:0.75;stroke-dasharray:7,7;"/><polygon fill="#000000" points="1190.68,832.5069,1191.121,822.6679,1188.8559,827.8515,1183.6723,825.5864,1190.68,832.5069" style="stroke:#000000;stroke-width:0.75;stroke-linejoin:miter;stroke-miterlimit:10;"/></g><?plantuml-src ZLLTRnj557tVNp4A3trXJR24UAlapoJ2JepNbeFQ2itkJkoHrpEhsTd6BK92A12G249GUAceL5H4a1221uYKGFalA7RIVy6zCsjdRPUaLZvspxrpxfcvvuvlaNGKkI6dVKL7IK6gFb5iZoac0aOI_I1YvD-F7i6Jue4cEyqDqcqsIB4mVfsCf931GCaHSv8X5p45XXn8j4hp4Py6mxwIgGWhCfAAl5Otdrn6oFPe6kcw57gR0i5QZubtKohUuwJ90oN99kDhBy_t-4D6tbpF1PC13UK-5tsoHwCaBoI8Q9AKDEp8JpNR2gGmg_EBCvbAC0LuBb0Aj5Jb6tTYqwGAcSfIriqdbz824jfdDtFD4gzbgyXHB0KJ-cQ-gzHh6QjKKvycho1mddczmaYcuIkeCsdNCfMKallN1Zi37Wm5InAoNdZxhRnKwvWE6-l_8yYPQZ75qLp3D0HI3dtuTVTWLXYvE3iuF_jp-WH-3Y15naHBuakj9L1nnGBDfSZH2ncoXCMac9Ubg1YkWB7jksTc48cew4VCSIXwYrmyEfv-Ta9eGhfUhUquMJPPk_Zhk-cNNqz-__YkM9IwXicjztVQbKtoWKF87U-ThKQZC0hl2hjc-iNX-TcpUvY6ISw7ETRfjxzDZtvzSNZuul6davCV9v-SP7JjcbShpIaXLsZNXnOaJ1ccSXln7lFhJ0U3Dpn6LJ0maLxTh51ZVj_Tfn3CLfJQknW8PL0Skq743LWj6h0_c2CRYm8dZvzVFZrUa5RTAcsqIqshB8weq73LcRMjhgcWw3wNbjwePEE0HXnX0zPCoM10bNRlyuS6MpgMoRCZQ0JnXZoAagoiELRFLfrt8AAQZMtjIWCZ1d2rT0LuKL4JQXItZOmuzLqPQpw2QycUIQszizYE9mUJizFBlt-P7lsGbIrtjnfLMtKKZekpSirY1o4_vL7e8hFbQtNB22Ufdp0D_X0wCO7wphR9tuS9T0COL6rxLK5mZu_HIgCqebbokzbjb1QL7J-TVl_FvHy7qzElCcMTMhFLA7LgsPdit6epEAu7f9_oa6Lsgnb3nWhkQxXoho9Ugvqr8TOGqB5jOATb3j6UtHpTtZNQpRTMCc3CQgzuteB2o-VVJ0vFpqz_klZyvzbCT3kjRiV82xFBZAmrgxic3FyNy5QrRfTLqS01tbVuJUKdNDiPwzNA2mlmi4sW1dLG2auiSTtRTimSCv7uUZLDUSpwoN5oisO3cR-TkUKiR8o0wJF_MtZU1MVc5OlRlJjE6IJT6V0mPE8UV74A5wUaLry6OL9WG9TH61MOq6KKzh6nkS8A_dVWppAEHeK1M656fuBzbt5mPAkx3AAFgYlxG0yvGBzI4HgBz2iAeR4u1oibeQ-zoef0RAhPKA5ms-nY_Wpyk2DyHclEdf47TuJFQCxPizqg2i8tCucvDpjgSy2KnKtX2oh-3m00?></g></svg>