<svg xmlns="http://www.w3.org/2000/svg" xmlns:xlink="http://www.w3.org/1999/xlink" contentStyleType="text/css" data-diagram-type="DESCRIPTION" height="636px" preserveAspectRatio="none" style="width:1652px;height:636px;background:#FFFFFF;" version="1.1" viewBox="0.00 -432.91 1652.00 1501.82" width="1652px" zoomAndPan="magnify"><?plantuml 1.2026.6?><defs/><g><g class="title" data-source-line="23"><text fill="#000000" font-family="Helvetica" font-size="14" font-weight="700" lengthAdjust="spacing" textLength="321.6924" x="661.6538" y="22.9951">cookbook-forge Component Architecture</text></g><!--cluster P1--><g class="cluster" data-qualified-name="P1" data-source-line="29" id="ent0002"><rect fill="#FFFFFF" height="267.81" rx="2.5" ry="2.5" style="stroke:#000000;stroke-width:1;" width="466" x="1172" y="194.9069"/><text fill="#000000" font-family="Helvetica" font-size="11" font-weight="700" lengthAdjust="spacing" textLength="85.6582" x="1362.1709" y="207.1173">Orchestration</text><text fill="#000000" font-family="Helvetica" font-size="11" font-weight="700" lengthAdjust="spacing" textLength="96.9214" x="1356.5393" y="219.922">cookbook-forge</text></g><!--cluster P2--><g class="cluster" data-qualified-name="P2" data-source-line="38" id="ent0009"><rect fill="#FFFFFF" height="274.22" rx="2.5" ry="2.5" style="stroke:#000000;stroke-width:1;" width="442" x="245" y="44.2969"/><text fill="#000000" font-family="Helvetica" font-size="11" font-weight="700" lengthAdjust="spacing" textLength="93.9028" x="419.0486" y="56.5073">Research Tools</text></g><!--cluster P3--><g class="cluster" data-qualified-name="P3" data-source-line="46" id="ent0015"><rect fill="#FFFFFF" height="118.61" rx="2.5" ry="2.5" style="stroke:#000000;stroke-width:1;" width="640" x="727" y="44.2969"/><text fill="#000000" font-family="Helvetica" font-size="11" font-weight="700" lengthAdjust="spacing" textLength="82.5698" x="1005.7151" y="56.5073">Reused Skills</text></g><!--cluster P4--><g class="cluster" data-qualified-name="P4" data-source-line="52" id="ent0019"><rect fill="#FFFFFF" height="258.01" rx="2.5" ry="2.5" style="stroke:#000000;stroke-width:1;" width="307" x="769" y="206.3069"/><text fill="#000000" font-family="Helvetica" font-size="11" font-weight="700" lengthAdjust="spacing" textLength="89.2729" x="877.8635" y="218.5173">Diagram Tools</text></g><!--cluster P5--><g class="cluster" data-qualified-name="P5" data-source-line="59" id="ent0024"><rect fill="#FFFFFF" height="258.01" rx="2.5" ry="2.5" style="stroke:#000000;stroke-width:1;" width="722" x="7" y="358.5169"/><text fill="#000000" font-family="Helvetica" font-size="11" font-weight="700" lengthAdjust="spacing" textLength="145.8306" x="295.0847" y="370.7273">Templates &amp; Resources</text></g><!--cluster P6--><g class="cluster" data-qualified-name="P6" data-source-line="67" id="ent0030"><rect fill="#FFFFFF" height="118.61" rx="2.5" ry="2.5" style="stroke:#000000;stroke-width:1;" width="516" x="821" y="504.3169"/><text fill="#000000" font-family="Helvetica" font-size="11" font-weight="700" lengthAdjust="spacing" textLength="100.7349" x="1028.6326" y="516.5273">Output Artifacts</text></g><!--entity ORCH--><g class="entity" data-qualified-name="P1.ORCH" data-source-line="30" id="ent0003"><rect fill="#FFFFFF" height="55.6094" rx="2.5" ry="2.5" style="stroke:#000000;stroke-width:0.5;" width="113.4175" x="1310.29" y="238.9069"/><rect fill="#FFFFFF" height="10" style="stroke:#000000;stroke-width:0.5;" width="15" x="1403.7075" y="243.9069"/><rect fill="#FFFFFF" height="2" style="stroke:#000000;stroke-width:0.5;" width="4" x="1401.7075" y="245.9069"/><rect fill="#FFFFFF" height="2" style="stroke:#000000;stroke-width:0.5;" width="4" x="1401.7075" y="249.9069"/><text fill="#000000" font-family="Helvetica" font-size="11" lengthAdjust="spacing" textLength="50.8911" x="1325.29" y="269.1173">SKILL.md</text><text fill="#000000" font-family="Helvetica" font-size="11" lengthAdjust="spacing" textLength="73.4175" x="1325.29" y="281.922">orchestration</text></g><!--entity M2T--><g class="entity" data-qualified-name="P1.M2T" data-source-line="31" id="ent0004"><rect fill="#FFFFFF" height="55.6094" rx="2.5" ry="2.5" style="stroke:#000000;stroke-width:0.5;" width="111.7954" x="1188.1" y="238.9069"/><rect fill="#FFFFFF" height="10" style="stroke:#000000;stroke-width:0.5;" width="15" x="1279.8954" y="243.9069"/><rect fill="#FFFFFF" height="2" style="stroke:#000000;stroke-width:0.5;" width="4" x="1277.8954" y="245.9069"/><rect fill="#FFFFFF" height="2" style="stroke:#000000;stroke-width:0.5;" width="4" x="1277.8954" y="249.9069"/><text fill="#000000" font-family="Helvetica" font-size="11" lengthAdjust="spacing" textLength="71.7954" x="1203.1" y="269.1173">mdx2tex.mjs</text><text fill="#000000" font-family="Helvetica" font-size="11" lengthAdjust="spacing" textLength="68.605" x="1203.1" y="281.922">MDX&#8594;LaTeX</text></g><!--entity EPUB--><g class="entity" data-qualified-name="P1.EPUB" data-source-line="32" id="ent0005"><rect fill="#FFFFFF" height="55.6094" rx="2.5" ry="2.5" style="stroke:#000000;stroke-width:0.5;" width="121.7212" x="1434.14" y="238.9069"/><rect fill="#FFFFFF" height="10" style="stroke:#000000;stroke-width:0.5;" width="15" x="1535.8612" y="243.9069"/><rect fill="#FFFFFF" height="2" style="stroke:#000000;stroke-width:0.5;" width="4" x="1533.8612" y="245.9069"/><rect fill="#FFFFFF" height="2" style="stroke:#000000;stroke-width:0.5;" width="4" x="1533.8612" y="249.9069"/><text fill="#000000" font-family="Helvetica" font-size="11" lengthAdjust="spacing" textLength="81.7212" x="1449.14" y="269.1173">build-epub.mjs</text><text fill="#000000" font-family="Helvetica" font-size="11" lengthAdjust="spacing" textLength="63.8945" x="1449.14" y="281.922">MDX&#8594;EPUB</text></g><!--entity FONT--><g class="entity" data-qualified-name="P1.FONT" data-source-line="33" id="ent0006"><rect fill="#FFFFFF" height="55.6094" rx="2.5" ry="2.5" style="stroke:#000000;stroke-width:0.5;" width="131.083" x="1490.46" y="391.1069"/><rect fill="#FFFFFF" height="10" style="stroke:#000000;stroke-width:0.5;" width="15" x="1601.543" y="396.1069"/><rect fill="#FFFFFF" height="2" style="stroke:#000000;stroke-width:0.5;" width="4" x="1599.543" y="398.1069"/><rect fill="#FFFFFF" height="2" style="stroke:#000000;stroke-width:0.5;" width="4" x="1599.543" y="402.1069"/><text fill="#000000" font-family="Helvetica" font-size="11" lengthAdjust="spacing" textLength="91.083" x="1505.46" y="421.3173">subset-fonts.mjs</text><text fill="#000000" font-family="Helvetica" font-size="11" lengthAdjust="spacing" textLength="83.2036" x="1505.46" y="434.122">font subsetting</text></g><!--entity WC--><g class="entity" data-qualified-name="P1.WC" data-source-line="34" id="ent0007"><rect fill="#FFFFFF" height="55.6094" rx="2.5" ry="2.5" style="stroke:#000000;stroke-width:0.5;" width="125.2339" x="1188.38" y="391.1069"/><rect fill="#FFFFFF" height="10" style="stroke:#000000;stroke-width:0.5;" width="15" x="1293.6139" y="396.1069"/><rect fill="#FFFFFF" height="2" style="stroke:#000000;stroke-width:0.5;" width="4" x="1291.6139" y="398.1069"/><rect fill="#FFFFFF" height="2" style="stroke:#000000;stroke-width:0.5;" width="4" x="1291.6139" y="402.1069"/><text fill="#000000" font-family="Helvetica" font-size="11" lengthAdjust="spacing" textLength="85.2339" x="1203.38" y="421.3173">word-count.mjs</text><text fill="#000000" font-family="Helvetica" font-size="11" lengthAdjust="spacing" textLength="61.7622" x="1203.38" y="434.122">word count</text></g><!--entity FORMULA--><g class="entity" data-qualified-name="P1.FORMULA" data-source-line="35" id="ent0008"><rect fill="#FFFFFF" height="55.6094" rx="2.5" ry="2.5" style="stroke:#000000;stroke-width:0.5;" width="156.9717" x="1323.51" y="391.1069"/><rect fill="#FFFFFF" height="10" style="stroke:#000000;stroke-width:0.5;" width="15" x="1460.4817" y="396.1069"/><rect fill="#FFFFFF" height="2" style="stroke:#000000;stroke-width:0.5;" width="4" x="1458.4817" y="398.1069"/><rect fill="#FFFFFF" height="2" style="stroke:#000000;stroke-width:0.5;" width="4" x="1458.4817" y="402.1069"/><text fill="#000000" font-family="Helvetica" font-size="11" lengthAdjust="spacing" textLength="116.9717" x="1338.51" y="421.3173">optimize-formula.mjs</text><text fill="#000000" font-family="Helvetica" font-size="11" lengthAdjust="spacing" textLength="78.6973" x="1338.51" y="434.122">formula repair</text></g><!--entity BR--><g class="entity" data-qualified-name="P2.BR" data-source-line="39" id="ent0010"><rect fill="#FFFFFF" height="55.6094" rx="2.5" ry="2.5" style="stroke:#000000;stroke-width:0.5;" width="119.9971" x="269" y="83.2969"/><rect fill="#FFFFFF" height="10" style="stroke:#000000;stroke-width:0.5;" width="15" x="368.9971" y="88.2969"/><rect fill="#FFFFFF" height="2" style="stroke:#000000;stroke-width:0.5;" width="4" x="366.9971" y="90.2969"/><rect fill="#FFFFFF" height="2" style="stroke:#000000;stroke-width:0.5;" width="4" x="366.9971" y="94.2969"/><text fill="#000000" font-family="Helvetica" font-size="11" lengthAdjust="spacing" textLength="79.9971" x="284" y="113.5073">agent-browser</text><text fill="#000000" font-family="Helvetica" font-size="11" lengthAdjust="spacing" textLength="39.6172" x="284" y="126.312">/vivaldi</text></g><!--entity WF--><g class="entity" data-qualified-name="P2.WF" data-source-line="40" id="ent0011"><rect fill="#FFFFFF" height="55.6094" rx="2.5" ry="2.5" style="stroke:#000000;stroke-width:0.5;" width="102.6592" x="398.67" y="83.2969"/><rect fill="#FFFFFF" height="10" style="stroke:#000000;stroke-width:0.5;" width="15" x="481.3292" y="88.2969"/><rect fill="#FFFFFF" height="2" style="stroke:#000000;stroke-width:0.5;" width="4" x="479.3292" y="90.2969"/><rect fill="#FFFFFF" height="2" style="stroke:#000000;stroke-width:0.5;" width="4" x="479.3292" y="94.2969"/><text fill="#000000" font-family="Helvetica" font-size="11" lengthAdjust="spacing" textLength="58.7598" x="413.67" y="113.5073">WebFetch/</text><text fill="#000000" font-family="Helvetica" font-size="11" lengthAdjust="spacing" textLength="62.6592" x="413.67" y="126.312">WebSearch</text></g><!--entity ARX--><g class="entity" data-qualified-name="P2.ARX" data-source-line="41" id="ent0012"><rect fill="#FFFFFF" height="55.6094" rx="2.5" ry="2.5" style="stroke:#000000;stroke-width:0.5;" width="143.0015" x="511.5" y="83.2969"/><rect fill="#FFFFFF" height="10" style="stroke:#000000;stroke-width:0.5;" width="15" x="634.5015" y="88.2969"/><rect fill="#FFFFFF" height="2" style="stroke:#000000;stroke-width:0.5;" width="4" x="632.5015" y="90.2969"/><rect fill="#FFFFFF" height="2" style="stroke:#000000;stroke-width:0.5;" width="4" x="632.5015" y="94.2969"/><text fill="#000000" font-family="Helvetica" font-size="11" lengthAdjust="spacing" textLength="75.668" x="526.5" y="113.5073">arxiv-watcher</text><text fill="#000000" font-family="Helvetica" font-size="11" lengthAdjust="spacing" textLength="103.0015" x="526.5" y="126.312">/connected-papers</text></g><!--entity D2X--><g class="entity" data-qualified-name="P2.D2X" data-source-line="42" id="ent0013"><rect fill="#FFFFFF" height="55.6094" rx="2.5" ry="2.5" style="stroke:#000000;stroke-width:0.5;" width="89.3979" x="276.3" y="238.9069"/><rect fill="#FFFFFF" height="10" style="stroke:#000000;stroke-width:0.5;" width="15" x="345.6979" y="243.9069"/><rect fill="#FFFFFF" height="2" style="stroke:#000000;stroke-width:0.5;" width="4" x="343.6979" y="245.9069"/><rect fill="#FFFFFF" height="2" style="stroke:#000000;stroke-width:0.5;" width="4" x="343.6979" y="249.9069"/><text fill="#000000" font-family="Helvetica" font-size="11" lengthAdjust="spacing" textLength="49.3979" x="291.3" y="269.1173">doc2x-cli</text><text fill="#000000" font-family="Helvetica" font-size="11" lengthAdjust="spacing" textLength="48.9092" x="291.3" y="281.922">PDF OCR</text></g><!--entity GH--><g class="entity" data-qualified-name="P2.GH" data-source-line="43" id="ent0014"><rect fill="#FFFFFF" height="55.6094" rx="2.5" ry="2.5" style="stroke:#000000;stroke-width:0.5;" width="112.3486" x="375.83" y="238.9069"/><rect fill="#FFFFFF" height="10" style="stroke:#000000;stroke-width:0.5;" width="15" x="468.1786" y="243.9069"/><rect fill="#FFFFFF" height="2" style="stroke:#000000;stroke-width:0.5;" width="4" x="466.1786" y="245.9069"/><rect fill="#FFFFFF" height="2" style="stroke:#000000;stroke-width:0.5;" width="4" x="466.1786" y="249.9069"/><text fill="#000000" font-family="Helvetica" font-size="11" lengthAdjust="spacing" textLength="30.0835" x="390.83" y="269.1173">gh-cli</text><text fill="#000000" font-family="Helvetica" font-size="11" lengthAdjust="spacing" textLength="72.3486" x="390.83" y="281.922">GitHub repos</text></g><!--entity PCL--><g class="entity" data-qualified-name="P3.PCL" data-source-line="47" id="ent0016"><rect fill="#FFFFFF" height="55.6094" rx="2.5" ry="2.5" style="stroke:#000000;stroke-width:0.5;" width="221.4678" x="1121.27" y="83.2969"/><rect fill="#FFFFFF" height="10" style="stroke:#000000;stroke-width:0.5;" width="15" x="1322.7378" y="88.2969"/><rect fill="#FFFFFF" height="2" style="stroke:#000000;stroke-width:0.5;" width="4" x="1320.7378" y="90.2969"/><rect fill="#FFFFFF" height="2" style="stroke:#000000;stroke-width:0.5;" width="4" x="1320.7378" y="94.2969"/><text fill="#000000" font-family="Helvetica" font-size="11" lengthAdjust="spacing" textLength="84.0469" x="1136.27" y="113.5073">cookbook-latex</text><text fill="#000000" font-family="Helvetica" font-size="11" lengthAdjust="spacing" textLength="181.4678" x="1136.27" y="126.312">research/80k words/ElegantBook</text></g><!--entity L2N--><g class="entity" data-qualified-name="P3.L2N" data-source-line="48" id="ent0017"><rect fill="#FFFFFF" height="55.6094" rx="2.5" ry="2.5" style="stroke:#000000;stroke-width:0.5;" width="170.7109" x="758.64" y="83.2969"/><rect fill="#FFFFFF" height="10" style="stroke:#000000;stroke-width:0.5;" width="15" x="909.3509" y="88.2969"/><rect fill="#FFFFFF" height="2" style="stroke:#000000;stroke-width:0.5;" width="4" x="907.3509" y="90.2969"/><rect fill="#FFFFFF" height="2" style="stroke:#000000;stroke-width:0.5;" width="4" x="907.3509" y="94.2969"/><text fill="#000000" font-family="Helvetica" font-size="11" lengthAdjust="spacing" textLength="82.1938" x="773.64" y="113.5073">latex-to-nextra</text><text fill="#000000" font-family="Helvetica" font-size="11" lengthAdjust="spacing" textLength="130.7109" x="773.64" y="126.312">Nextra v3/Docker/PUML</text></g><!--entity ERO--><g class="entity" data-qualified-name="P3.ERO" data-source-line="49" id="ent0018"><rect fill="#FFFFFF" height="55.6094" rx="2.5" ry="2.5" style="stroke:#000000;stroke-width:0.5;" width="171.71" x="939.15" y="83.2969"/><rect fill="#FFFFFF" height="10" style="stroke:#000000;stroke-width:0.5;" width="15" x="1090.86" y="88.2969"/><rect fill="#FFFFFF" height="2" style="stroke:#000000;stroke-width:0.5;" width="4" x="1088.86" y="90.2969"/><rect fill="#FFFFFF" height="2" style="stroke:#000000;stroke-width:0.5;" width="4" x="1088.86" y="94.2969"/><text fill="#000000" font-family="Helvetica" font-size="11" lengthAdjust="spacing" textLength="83.5903" x="954.15" y="113.5073">epub-optimizer</text><text fill="#000000" font-family="Helvetica" font-size="11" lengthAdjust="spacing" textLength="131.71" x="954.15" y="126.312">CSS rewrite/fonts/repair</text></g><!--entity PU--><g class="entity" data-qualified-name="P4.PU" data-source-line="53" id="ent0020"><rect fill="#FFFFFF" height="42.8047" rx="2.5" ry="2.5" style="stroke:#000000;stroke-width:0.5;" width="88.8071" x="803.6" y="245.3069"/><rect fill="#FFFFFF" height="10" style="stroke:#000000;stroke-width:0.5;" width="15" x="872.4071" y="250.3069"/><rect fill="#FFFFFF" height="2" style="stroke:#000000;stroke-width:0.5;" width="4" x="870.4071" y="252.3069"/><rect fill="#FFFFFF" height="2" style="stroke:#000000;stroke-width:0.5;" width="4" x="870.4071" y="256.3069"/><text fill="#000000" font-family="Helvetica" font-size="11" lengthAdjust="spacing" textLength="48.8071" x="818.6" y="275.5173">plantuml</text></g><!--entity DR--><g class="entity" data-qualified-name="P4.DR" data-source-line="54" id="ent0021"><rect fill="#FFFFFF" height="42.8047" rx="2.5" ry="2.5" style="stroke:#000000;stroke-width:0.5;" width="77.0283" x="902.49" y="245.3069"/><rect fill="#FFFFFF" height="10" style="stroke:#000000;stroke-width:0.5;" width="15" x="959.5183" y="250.3069"/><rect fill="#FFFFFF" height="2" style="stroke:#000000;stroke-width:0.5;" width="4" x="957.5183" y="252.3069"/><rect fill="#FFFFFF" height="2" style="stroke:#000000;stroke-width:0.5;" width="4" x="957.5183" y="256.3069"/><text fill="#000000" font-family="Helvetica" font-size="11" lengthAdjust="spacing" textLength="37.0283" x="917.49" y="275.5173">drawio</text></g><!--entity EX--><g class="entity" data-qualified-name="P4.EX" data-source-line="55" id="ent0022"><rect fill="#FFFFFF" height="42.8047" rx="2.5" ry="2.5" style="stroke:#000000;stroke-width:0.5;" width="99.4204" x="801.29" y="397.5169"/><rect fill="#FFFFFF" height="10" style="stroke:#000000;stroke-width:0.5;" width="15" x="880.7104" y="402.5169"/><rect fill="#FFFFFF" height="2" style="stroke:#000000;stroke-width:0.5;" width="4" x="878.7104" y="404.5169"/><rect fill="#FFFFFF" height="2" style="stroke:#000000;stroke-width:0.5;" width="4" x="878.7104" y="408.5169"/><text fill="#000000" font-family="Helvetica" font-size="11" lengthAdjust="spacing" textLength="59.4204" x="816.29" y="427.7273">excalidraw</text></g><!--entity CH--><g class="entity" data-qualified-name="P4.CH" data-source-line="56" id="ent0023"><rect fill="#FFFFFF" height="42.8047" rx="2.5" ry="2.5" style="stroke:#000000;stroke-width:0.5;" width="141.272" x="910.36" y="397.5169"/><rect fill="#FFFFFF" height="10" style="stroke:#000000;stroke-width:0.5;" width="15" x="1031.632" y="402.5169"/><rect fill="#FFFFFF" height="2" style="stroke:#000000;stroke-width:0.5;" width="4" x="1029.632" y="404.5169"/><rect fill="#FFFFFF" height="2" style="stroke:#000000;stroke-width:0.5;" width="4" x="1029.632" y="408.5169"/><text fill="#000000" font-family="Helvetica" font-size="11" lengthAdjust="spacing" textLength="101.272" x="925.36" y="427.7273">chart-visualization</text></g><!--entity ORE--><g class="entity" data-qualified-name="P5.ORE" data-source-line="60" id="ent0025"><rect fill="#FFFFFF" height="42.8047" rx="2.5" ry="2.5" style="stroke:#000000;stroke-width:0.5;" width="159.9688" x="31.02" y="397.5169"/><rect fill="#FFFFFF" height="10" style="stroke:#000000;stroke-width:0.5;" width="15" x="170.9888" y="402.5169"/><rect fill="#FFFFFF" height="2" style="stroke:#000000;stroke-width:0.5;" width="4" x="168.9888" y="404.5169"/><rect fill="#FFFFFF" height="2" style="stroke:#000000;stroke-width:0.5;" width="4" x="168.9888" y="408.5169"/><text fill="#000000" font-family="Helvetica" font-size="11" lengthAdjust="spacing" textLength="119.9688" x="46.02" y="427.7273">style-guide-oreilly.md</text></g><!--entity SPR--><g class="entity" data-qualified-name="P5.SPR" data-source-line="61" id="ent0026"><rect fill="#FFFFFF" height="42.8047" rx="2.5" ry="2.5" style="stroke:#000000;stroke-width:0.5;" width="171.8066" x="201.1" y="397.5169"/><rect fill="#FFFFFF" height="10" style="stroke:#000000;stroke-width:0.5;" width="15" x="352.9066" y="402.5169"/><rect fill="#FFFFFF" height="2" style="stroke:#000000;stroke-width:0.5;" width="4" x="350.9066" y="404.5169"/><rect fill="#FFFFFF" height="2" style="stroke:#000000;stroke-width:0.5;" width="4" x="350.9066" y="408.5169"/><text fill="#000000" font-family="Helvetica" font-size="11" lengthAdjust="spacing" textLength="131.8066" x="216.1" y="427.7273">style-guide-springer.md</text></g><!--entity TPL--><g class="entity" data-qualified-name="P5.TPL" data-source-line="62" id="ent0027"><rect fill="#FFFFFF" height="42.8047" rx="2.5" ry="2.5" style="stroke:#000000;stroke-width:0.5;" width="163.6748" x="31.16" y="549.7169"/><rect fill="#FFFFFF" height="10" style="stroke:#000000;stroke-width:0.5;" width="15" x="174.8348" y="554.7169"/><rect fill="#FFFFFF" height="2" style="stroke:#000000;stroke-width:0.5;" width="4" x="172.8348" y="556.7169"/><rect fill="#FFFFFF" height="2" style="stroke:#000000;stroke-width:0.5;" width="4" x="172.8348" y="560.7169"/><text fill="#000000" font-family="Helvetica" font-size="11" lengthAdjust="spacing" textLength="123.6748" x="46.16" y="579.9273">chapter-template.mdx</text></g><!--entity NXT--><g class="entity" data-qualified-name="P5.NXT" data-source-line="63" id="ent0028"><rect fill="#FFFFFF" height="42.8047" rx="2.5" ry="2.5" style="stroke:#000000;stroke-width:0.5;" width="133.1563" x="382.42" y="397.5169"/><rect fill="#FFFFFF" height="10" style="stroke:#000000;stroke-width:0.5;" width="15" x="495.5763" y="402.5169"/><rect fill="#FFFFFF" height="2" style="stroke:#000000;stroke-width:0.5;" width="4" x="493.5763" y="404.5169"/><rect fill="#FFFFFF" height="2" style="stroke:#000000;stroke-width:0.5;" width="4" x="493.5763" y="408.5169"/><text fill="#000000" font-family="Helvetica" font-size="11" lengthAdjust="spacing" textLength="93.1563" x="397.42" y="427.7273">nextra-template/</text></g><!--entity CSS--><g class="entity" data-qualified-name="P5.CSS" data-source-line="64" id="ent0029"><rect fill="#FFFFFF" height="42.8047" rx="2.5" ry="2.5" style="stroke:#000000;stroke-width:0.5;" width="171.0869" x="525.46" y="397.5169"/><rect fill="#FFFFFF" height="10" style="stroke:#000000;stroke-width:0.5;" width="15" x="676.5469" y="402.5169"/><rect fill="#FFFFFF" height="2" style="stroke:#000000;stroke-width:0.5;" width="4" x="674.5469" y="404.5169"/><rect fill="#FFFFFF" height="2" style="stroke:#000000;stroke-width:0.5;" width="4" x="674.5469" y="408.5169"/><text fill="#000000" font-family="Helvetica" font-size="11" lengthAdjust="spacing" textLength="131.0869" x="540.46" y="427.7273">stylesheet.template.css</text></g><!--entity MDX--><g class="entity" data-qualified-name="P6.MDX" data-source-line="68" id="ent0031"><path d="M970.4,553.8169 C970.4,543.8169 1032.9964,543.8169 1032.9964,543.8169 C1032.9964,543.8169 1095.5929,543.8169 1095.5929,553.8169 L1095.5929,588.4263 C1095.5929,598.4263 1032.9964,598.4263 1032.9964,598.4263 C1032.9964,598.4263 970.4,598.4263 970.4,588.4263 L970.4,553.8169" fill="#FFFFFF" style="stroke:#000000;stroke-width:0.5;"/><path d="M970.4,553.8169 C970.4,563.8169 1032.9964,563.8169 1032.9964,563.8169 C1032.9964,563.8169 1095.5929,563.8169 1095.5929,553.8169" fill="none" style="stroke:#000000;stroke-width:0.5;"/><text fill="#000000" font-family="Helvetica" font-size="11" lengthAdjust="spacing" textLength="25.4966" x="980.4" y="578.0273">MDX</text><text fill="#000000" font-family="Helvetica" font-size="11" lengthAdjust="spacing" textLength="105.1929" x="980.4" y="590.832">chapterized source</text></g><!--entity PDF--><g class="entity" data-qualified-name="P6.PDF" data-source-line="69" id="ent0032"><path d="M1105.42,553.8169 C1105.42,543.8169 1149.9991,543.8169 1149.9991,543.8169 C1149.9991,543.8169 1194.5782,543.8169 1194.5782,553.8169 L1194.5782,588.4263 C1194.5782,598.4263 1149.9991,598.4263 1149.9991,598.4263 C1149.9991,598.4263 1105.42,598.4263 1105.42,588.4263 L1105.42,553.8169" fill="#FFFFFF" style="stroke:#000000;stroke-width:0.5;"/><path d="M1105.42,553.8169 C1105.42,563.8169 1149.9991,563.8169 1149.9991,563.8169 C1149.9991,563.8169 1194.5782,563.8169 1194.5782,553.8169" fill="none" style="stroke:#000000;stroke-width:0.5;"/><text fill="#000000" font-family="Helvetica" font-size="11" lengthAdjust="spacing" textLength="69.1582" x="1115.42" y="578.0273">ElegantBook</text><text fill="#000000" font-family="Helvetica" font-size="11" lengthAdjust="spacing" textLength="21.4307" x="1115.42" y="590.832">PDF</text></g><!--entity WEB--><g class="entity" data-qualified-name="P6.WEB" data-source-line="70" id="ent0033"><path d="M862.097,553.1077 C865.5189,547.251 869.9015,547.6948 874.092,552.2195 C877.1905,546.5436 880.9433,544.3232 886.0881,550.0706 C889.1096,544.7083 893.8897,543.7001 897.3605,549.6218 C900.1039,545.521 904.3474,544.0518 907.2802,549.4234 C911.9752,544.2417 915.9469,543.6979 919.9562,550.1692 C923.8911,545.2513 929.2052,544.8072 931.695,551.6159 C935.2384,546.7753 939.1492,546.3843 943.1601,551.0522 C946.6332,546.682 950.015,547.4135 952.8593,551.7524 C963.0316,555.075 966.0437,565.3901 958.1459,573.1725 C967.2894,580.6485 963.3429,589.6533 953.5621,592.6832 C949.869,597.3645 946.025,597.6778 943.2672,591.7735 C939.5394,598.6871 935.163,598.1364 930.1957,593.1332 C927.4423,598.5127 923.4312,598.034 919.8461,594.0529 C916.5377,600.3894 910.7204,599.7626 907.1291,594.3593 C903.0559,598.9358 899.9486,597.9951 897.5163,592.7527 C894.2312,598.5779 888.3429,599.7175 884.9497,592.8599 C882.1296,598.6099 876.2832,598.4647 873.2539,593.0796 C869.5476,596.7554 865.3552,597.2357 863.1357,591.4839 C851.8725,587.9738 851.6423,579.4083 859.0072,571.9593 C852.1963,564.1547 852.4529,558.2152 862.097,553.1077" fill="#FFFFFF" style="stroke:#000000;stroke-width:0.5;"/><text fill="#000000" font-family="Helvetica" font-size="11" lengthAdjust="spacing" textLength="60.4463" x="868.35" y="568.5273">Nextra site</text><text fill="#000000" font-family="Helvetica" font-size="11" lengthAdjust="spacing" textLength="77.3008" x="868.35" y="581.332">Vercel/Docker</text></g><!--entity EOUT--><g class="entity" data-qualified-name="P6.EOUT" data-source-line="71" id="ent0034"><path d="M1204.51,560.2169 C1204.51,550.2169 1259.0015,550.2169 1259.0015,550.2169 C1259.0015,550.2169 1313.4929,550.2169 1313.4929,560.2169 L1313.4929,582.0216 C1313.4929,592.0216 1259.0015,592.0216 1259.0015,592.0216 C1259.0015,592.0216 1204.51,592.0216 1204.51,582.0216 L1204.51,560.2169" fill="#FFFFFF" style="stroke:#000000;stroke-width:0.5;"/><path d="M1204.51,560.2169 C1204.51,570.2169 1259.0015,570.2169 1259.0015,570.2169 C1259.0015,570.2169 1313.4929,570.2169 1313.4929,560.2169" fill="none" style="stroke:#000000;stroke-width:0.5;"/><text fill="#000000" font-family="Helvetica" font-size="11" lengthAdjust="spacing" textLength="88.9829" x="1214.51" y="584.4273">Optimized EPUB</text></g><!--entity User--><g class="entity" data-qualified-name="User" data-source-line="27" id="ent0001"><ellipse cx="1405" cy="83.1969" fill="#FFFFFF" rx="8" ry="8" style="stroke:#000000;stroke-width:0.5;"/><path d="M1405,91.1969 L1405,118.1969 M1392,99.1969 L1418,99.1969 M1405,118.1969 L1392,133.1969 M1405,118.1969 L1418,133.1969" fill="none" style="stroke:#000000;stroke-width:0.5;"/><text fill="#000000" font-family="Helvetica" font-size="11" lengthAdjust="spacing" textLength="25.0723" x="1392.4639" y="144.9073">User</text></g><!--link User to ORCH--><g class="link" data-entity-1="ent0001" data-entity-2="ent0003" data-link-type="dependency" data-source-line="74" id="lnk35"><path d="M1396.19,147.7269 C1389.35,175.3769 1381.1996,208.2829 1374.9496,233.5729" fill="none" id="User-to-ORCH" style="stroke:#000000;stroke-width:0.75;"/><polygon fill="#000000" points="1373.75,238.4269,1379.7924,230.6494,1374.9496,233.5729,1372.0261,228.7301,1373.75,238.4269" style="stroke:#000000;stroke-width:0.75;stroke-linejoin:miter;stroke-miterlimit:10;"/></g><!--link ORCH to P2--><g class="link" data-entity-1="ent0003" data-entity-2="ent0009" data-link-type="dependency" data-source-line="75" id="lnk36"><path d="M1353.8,238.4769 C1343.34,220.2569 1326.85,197.6969 1305,186.9069 C1276.11,172.6269 753.42,194.0869 725,178.9069 C709.6,170.6769 698.3275,154.7444 690.7963,140.5031 C689.8548,138.723 688.9719,136.9692 688.1466,135.2603 C687.9403,134.833 687.7376,134.4086 687.5385,133.9872 C687.439,133.7766 687.3403,133.5667 687.2425,133.3576 C687.1937,133.253 689.2534,137.6824 689.205,137.5782" fill="none" id="ORCH-to-P2" style="stroke:#000000;stroke-width:0.75;"/><polygon fill="#000000" points="687.0966,133.0445,687.2648,142.8919,689.205,137.5782,694.5187,139.5185,687.0966,133.0445" style="stroke:#000000;stroke-width:0.75;stroke-linejoin:miter;stroke-miterlimit:10;"/></g><!--link P2 to P3--><g class="link" data-entity-1="ent0009" data-entity-2="ent0015" data-link-type="dependency" data-source-line="76" id="lnk37"><path d="M687.1904,111.0969 C687.4775,111.0969 687.7646,111.0969 688.0516,111.0969 C688.6258,111.0969 689.1999,111.0969 689.7741,111.0969 C690.9225,111.0969 692.0708,111.0969 693.2192,111.0969 C697.8128,111.0969 702.4069,111.0969 707.0013,111.0969 C711.5956,111.0969 716.1903,111.0969 720.7852,111.0969 C721.9339,111.0969 723.0826,111.0969 724.2313,111.0969 C724.8057,111.0969 725.38,111.0969 725.9544,111.0969 C726.2416,111.0969 726.5288,111.0969 726.816,111.0969 C726.8519,111.0969 721.8878,111.0969 721.9237,111.0969" fill="none" id="P2-to-P3" style="stroke:#000000;stroke-width:0.75;"/><polygon fill="#000000" points="726.9237,111.0969,717.9237,107.0969,721.9237,111.0969,717.9237,115.0969,726.9237,111.0969" style="stroke:#000000;stroke-width:0.75;stroke-linejoin:miter;stroke-miterlimit:10;"/></g><!--link P3 to P4--><g class="link" data-entity-1="ent0015" data-entity-2="ent0019" data-link-type="dependency" data-source-line="77" id="lnk38"><path d="M745.1024,163.0918 C745.1561,163.3247 745.21,163.5577 745.2639,163.7906 C745.3719,164.2565 745.4804,164.7222 745.5894,165.1876 C745.8075,166.1185 746.0276,167.0482 746.2497,167.9755 C747.138,171.6848 748.0575,175.3556 749,178.9069 C754.035,197.8819 760.7625,218.8394 766.3613,235.4069 C767.0611,237.4778 767.7433,239.4802 768.4024,241.4015 C768.5671,241.8818 767.103,237.6293 767.2648,238.0993" fill="none" id="P3-to-P4" style="stroke:#000000;stroke-width:0.75;"/><polygon fill="#000000" points="768.8922,242.827,769.7451,233.0152,767.2648,238.0993,762.1807,235.619,768.8922,242.827" style="stroke:#000000;stroke-width:0.75;stroke-linejoin:miter;stroke-miterlimit:10;"/></g><!--link P4 to P5--><g class="link" data-entity-1="ent0019" data-entity-2="ent0024" data-link-type="dependency" data-source-line="78" id="lnk39"><path d="M768.9357,289.3387 C768.8586,289.5455 768.7811,289.7534 768.7032,289.9624 C768.3915,290.7985 768.0731,291.6522 767.7486,292.5227 C762.5559,306.4497 755.7719,324.645 748.9888,342.8381 C742.2056,361.0313 735.4234,379.2222 730.2345,393.1405 C729.9102,394.0104 729.5921,394.8636 729.2807,395.699 C729.2028,395.9079 730.872,391.4306 730.7949,391.6373" fill="none" id="P4-to-P5" style="stroke:#000000;stroke-width:0.75;"/><polygon fill="#000000" points="729.0483,396.3223,735.9402,389.2866,730.7949,391.6373,728.4442,386.492,729.0483,396.3223" style="stroke:#000000;stroke-width:0.75;stroke-linejoin:miter;stroke-miterlimit:10;"/></g><!--link P5 to P6--><g class="link" data-entity-1="ent0024" data-entity-2="ent0030" data-link-type="dependency" data-source-line="79" id="lnk40"><path d="M729.0343,431.0873 C729.9443,432.3528 730.9202,433.7101 731.9561,435.1507 C734.0278,438.032 736.3393,441.2468 738.8427,444.7284 C748.8559,458.655 761.9381,476.8506 775.0188,495.0444 C788.0994,513.2381 801.1784,531.43 811.1855,545.3491 C813.6872,548.8288 815.997,552.0415 818.0668,554.9205 C819.1016,556.3599 817.1579,553.6562 818.0668,554.9205" fill="none" id="P5-to-P6" style="stroke:#000000;stroke-width:0.75;"/><polygon fill="#000000" points="820.9854,558.9802,818.9796,549.3378,818.0668,554.9205,812.484,554.0076,820.9854,558.9802" style="stroke:#000000;stroke-width:0.75;stroke-linejoin:miter;stroke-miterlimit:10;"/></g><!--link ORCH to WC--><g class="link" data-entity-1="ent0003" data-entity-2="ent0007" data-link-type="dependency" data-source-line="81" id="lnk41"><path d="M1345.99,294.9069 C1325.04,322.0469 1296.0757,359.5492 1275.1057,386.7092" fill="none" id="ORCH-to-WC" style="stroke:#000000;stroke-width:0.75;"/><polygon fill="#000000" points="1272.05,390.6669,1280.7163,385.9876,1275.1057,386.7092,1274.3841,381.0986,1272.05,390.6669" style="stroke:#000000;stroke-width:0.75;stroke-linejoin:miter;stroke-miterlimit:10;"/></g><!--link PCL to M2T--><g class="link" data-entity-1="ent0016" data-entity-2="ent0004" data-link-type="dependency" data-source-line="82" id="lnk42"><path d="M1234.12,139.2069 C1236.3,167.1969 1239.3118,205.642 1241.4918,233.632" fill="none" id="PCL-to-M2T" style="stroke:#000000;stroke-width:0.75;"/><polygon fill="#000000" points="1241.88,238.6169,1245.1691,229.3334,1241.4918,233.632,1237.1932,229.9546,1241.88,238.6169" style="stroke:#000000;stroke-width:0.75;stroke-linejoin:miter;stroke-miterlimit:10;"/></g><!--link L2N to NXT--><g class="link" data-entity-1="ent0017" data-entity-2="ent0028" data-link-type="dependency" data-source-line="83" id="lnk43"><path d="M813.13,139.1869 C796.72,152.5369 775.7,168.0469 755,178.9069 C745.04,184.1269 739.33,179.3569 731,186.9069 C677.74,235.1469 724.2,293.7769 665,334.5169 C638.42,352.8069 549.26,328.9069 520,342.5169 C494.89,354.1869 477.1412,374.9925 464.7112,392.9925" fill="none" id="L2N-to-NXT" style="stroke:#000000;stroke-width:0.75;"/><polygon fill="#000000" points="461.87,397.1069,470.2756,391.974,464.7112,392.9925,463.6926,387.4281,461.87,397.1069" style="stroke:#000000;stroke-width:0.75;stroke-linejoin:miter;stroke-miterlimit:10;"/></g><!--link ERO to EPUB--><g class="link" data-entity-1="ent0018" data-entity-2="ent0005" data-link-type="dependency" data-source-line="84" id="lnk44"><path d="M1052.3,139.0669 C1069.16,153.8269 1092.08,170.7269 1116,178.9069 C1148.92,190.1569 1397.67,171.7869 1429,186.9069 C1451.5,197.7569 1466.4836,216.0647 1477.8436,234.2747" fill="none" id="ERO-to-EPUB" style="stroke:#000000;stroke-width:0.75;"/><polygon fill="#000000" points="1480.49,238.5169,1479.1202,228.7637,1477.8436,234.2747,1472.3326,232.998,1480.49,238.5169" style="stroke:#000000;stroke-width:0.75;stroke-linejoin:miter;stroke-miterlimit:10;"/></g><!--link ERO to CSS--><g class="link" data-entity-1="ent0018" data-entity-2="ent0029" data-link-type="dependency" data-source-line="85" id="lnk45"><path d="M997.23,139.2169 C980.4,153.8269 957.65,170.5269 934,178.9069 C916.49,185.1069 782.19,176.2069 767,186.9069 C708.96,227.7669 747.31,276.7869 706,334.5169 C688.25,359.3269 665.7723,378.78 645.2723,394.13" fill="none" id="ERO-to-CSS" style="stroke:#000000;stroke-width:0.75;"/><polygon fill="#000000" points="641.27,397.1269,650.8717,394.9344,645.2723,394.13,646.0767,388.5306,641.27,397.1269" style="stroke:#000000;stroke-width:0.75;stroke-linejoin:miter;stroke-miterlimit:10;"/></g><!--link EPUB to FONT--><g class="link" data-entity-1="ent0005" data-entity-2="ent0006" data-link-type="dependency" data-source-line="86" id="lnk46"><path d="M1506.05,294.9069 C1517.07,322.0469 1532.0187,358.8743 1543.0487,386.0343" fill="none" id="EPUB-to-FONT" style="stroke:#000000;stroke-width:0.75;"/><polygon fill="#000000" points="1544.93,390.6669,1545.2496,380.8232,1543.0487,386.0343,1537.8376,383.8333,1544.93,390.6669" style="stroke:#000000;stroke-width:0.75;stroke-linejoin:miter;stroke-miterlimit:10;"/></g><!--link EPUB to FORMULA--><g class="link" data-entity-1="ent0005" data-entity-2="ent0008" data-link-type="dependency" data-source-line="87" id="lnk47"><path d="M1478.16,294.9069 C1461.36,322.0469 1438.3225,359.256 1421.5025,386.416" fill="none" id="EPUB-to-FORMULA" style="stroke:#000000;stroke-width:0.75;"/><polygon fill="#000000" points="1418.87,390.6669,1427.0092,385.1214,1421.5025,386.416,1420.2079,380.9093,1418.87,390.6669" style="stroke:#000000;stroke-width:0.75;stroke-linejoin:miter;stroke-miterlimit:10;"/></g><!--link M2T to PDF--><g class="link" data-entity-1="ent0004" data-entity-2="ent0032" data-link-type="dependency" data-source-line="88" id="lnk48"><path d="M1203.9,294.8269 C1188.65,307.4169 1172.83,323.7669 1164,342.5169 C1132.62,409.1269 1138.7689,494.1435 1144.8489,538.3635" fill="none" id="M2T-to-PDF" style="stroke:#000000;stroke-width:0.75;"/><polygon fill="#000000" points="1145.53,543.3169,1148.2668,533.8559,1144.8489,538.3635,1140.3414,534.9456,1145.53,543.3169" style="stroke:#000000;stroke-width:0.75;stroke-linejoin:miter;stroke-miterlimit:10;"/></g><!--link PCL to MDX--><g class="link" data-entity-1="ent0016" data-entity-2="ent0031" data-link-type="dependency" data-source-line="89" id="lnk49"><path d="M1209.2,139.1369 C1198.57,152.7769 1186.44,169.9969 1178,186.9069 C1117.02,309.0669 1142.8,355.7069 1087,480.3169 C1077.04,502.5669 1065.449,521.9438 1054.049,539.3538" fill="none" id="PCL-to-MDX" style="stroke:#000000;stroke-width:0.75;"/><polygon fill="#000000" points="1051.31,543.5369,1059.5867,538.1987,1054.049,539.3538,1052.8938,533.8162,1051.31,543.5369" style="stroke:#000000;stroke-width:0.75;stroke-linejoin:miter;stroke-miterlimit:10;"/></g><!--link L2N to WEB--><g class="link" data-entity-1="ent0017" data-entity-2="ent0033" data-link-type="dependency" data-source-line="90" id="lnk50"><path d="M871.45,139.0869 C888.11,153.6469 910.61,170.3469 934,178.9069 C947.38,183.7969 1052.24,176.5169 1062,186.9069 C1106.64,234.4269 1106.17,432.3569 1062,480.3169 C1047.35,496.2269 983.79,477.6069 965,488.3169 C943.52,500.5669 930.2954,519.9395 920.7454,538.7295" fill="none" id="L2N-to-WEB" style="stroke:#000000;stroke-width:0.75;"/><polygon fill="#000000" points="918.48,543.1869,926.1236,536.976,920.7454,538.7295,918.9919,533.3513,918.48,543.1869" style="stroke:#000000;stroke-width:0.75;stroke-linejoin:miter;stroke-miterlimit:10;"/></g><!--link EPUB to EOUT--><g class="link" data-entity-1="ent0005" data-entity-2="ent0034" data-link-type="dependency" data-source-line="91" id="lnk51"><path d="M1476.34,294.8469 C1464.62,309.4569 1448.12,326.1569 1429,334.5169 C1416.47,339.9869 1192.51,332.6869 1183,342.5169 C1161.7,364.5169 1166.59,454.4569 1183,480.3169 C1187.47,487.3669 1193.58,482.9869 1200,488.3169 C1220.88,505.6569 1235.6278,527.6465 1245.9678,545.7265" fill="none" id="EPUB-to-EOUT" style="stroke:#000000;stroke-width:0.75;"/><polygon fill="#000000" points="1248.45,550.0669,1247.4542,540.2685,1245.9678,545.7265,1240.5097,544.2401,1248.45,550.0669" style="stroke:#000000;stroke-width:0.75;stroke-linejoin:miter;stroke-miterlimit:10;"/></g><?plantuml-src ZLJRRXit47tVho1Se6zhsNASvgc0hKjSL9O4NMe3tJvmkME95PTSa5n9IT7NVa0-iL_IuN0bhu9KZW199EVCuLmEnssahhZb9IkDDc9jJGdCsneITxIuDI_CJkeLU-7AjIqv5vkLDRKkUaOPotuOqgU5AE25ryeFZVODv8e-tuQCETx-06eBNWh-RSnSVWPsVTqotWblxFsReKIOiGNO_mkbPyhAQD3-RRPNw5d6AHBn5RpDTm2UPUjpptFkleFkY3oVhp9ryHsv4kmiqvsrPdVMk5XBiT7W7Bkw_EcsPTMc00SLkswxMAutuR3RHbQnHdF_IG6p83pNAmL9ugN70s7C9iTl-cBi2buRXDUBjVG8hsq0cufvmtBZlK5XoS0ZZKuI7lJ1bWviaZGtiOi9-eBpbWTCfa_lk63SiUar-ojXxFVvhx-CHfTbaMdJzlaZO2QptaF0bCM-ws5_MVxfCltOV_xtdoyZle1d0Zrs5m6Jrr8LALHrteODfijxGeL5WBawT-0n3krT18ObYySU7okXXvCnaUwmUQd07lk83Nj6Uu8zzGB8L5wM-Bf2ScMj-86MDbZlYalRiCuUbwExvEzMeMROGuw9iuKnoiNAT6DbqAvzcgC6iBQPxcpbbgj24jNzB22U81-25-jEfd4v9w8Os908x5vkqnr71148epLs3OgquXLOHz2xsNF05aPqzwbGCjFJ_f1DUZEozhjaNQsZwQFq3tKUSZBH--F3LzdK3WestqXrIEOc9dDKWEBOoKpR9k_EXwiD2sLrdO625G-3mMo8UzeR1KzoIBr9DUnH79aUqp_RtdJwHcp0TgRBnn5vZBhZu154a1wwWedtvdCCUMTHp1rgVAVLbC5iSf92N_9LU3IjVhoBALGAewjB5ODRKjKitqaJAqKTWRtWIeRZI4xL4sjkVRgLhaRRvrTvzqwBju2o2iawzYD3MPZQ2cWYk8qHkF22qrKj2qYD1Ipo9tmvpLCPV8rmbKKzWpr0vjDP4qtbmQQ-kGxDUx8lfbJlMEQZkKEsyVFYIE_M0Fxow2vSb09M-IITIUshEamHBrzmHZIPlATCYcRCiWjyfZWUOaZOhOB5l0cCjXDiIo2aqiZO3reNOTIoYqOQ3ZkTwTy0YLGZ4i8-3UvF22UDHWeQ3mGPJ9QBa4QOPonDVuupAFpGRjfDy7dIwYP1RTFgNO8IeTLjWgsYrVlarGd716gPbc5OeKff7MgAwgCrZQV39bGo7D26Hb5h5qS8yiHxCFiZDvRhm1qoFJfHJly1?></g></svg>