<svg xmlns="http://www.w3.org/2000/svg" xmlns:xlink="http://www.w3.org/1999/xlink" contentStyleType="text/css" data-diagram-type="DESCRIPTION" height="567px" preserveAspectRatio="none" style="width:3124px;height:567px;background:#FFFFFF;" version="1.1" viewBox="0 0 3124 567" width="3124px" zoomAndPan="magnify"><?plantuml 1.2026.6?><defs/><g><g class="title" data-source-line="43"><text fill="#000000" font-family="Helvetica" font-size="14" font-weight="700" lengthAdjust="spacing" textLength="320.0381" x="1398.481" y="24.0752">cookbook-forge Component Architecture</text></g><!--cluster P_ORCH--><g class="cluster" data-qualified-name="P_ORCH" data-source-line="52" id="ent0002"><rect fill="#FFFFFF" height="247.33" style="stroke:#000000;stroke-width:1;" width="740" x="7" y="134.1046"/><text fill="#000000" font-family="Helvetica" font-size="12" font-weight="700" lengthAdjust="spacing" textLength="92.666" x="330.667" y="148.1691">Orchestration</text><text fill="#000000" font-family="Helvetica" font-size="12" font-weight="700" lengthAdjust="spacing" textLength="105.8965" x="324.0518" y="162.7531">cookbook-forge</text></g><!--cluster P_SKILLS--><g class="cluster" data-qualified-name="P_SKILLS" data-source-line="61" id="ent0009"><rect fill="#FFFFFF" height="124.17" style="stroke:#000000;stroke-width:1;" width="899" x="1419" y="265.2646"/><text fill="#000000" font-family="Helvetica" font-size="12" font-weight="700" lengthAdjust="spacing" textLength="89.4844" x="1823.7578" y="279.3291">Reused Skills</text></g><!--cluster P_RESEARCH--><g class="cluster" data-qualified-name="P_RESEARCH" data-source-line="67" id="ent0013"><rect fill="#FFFFFF" height="124.17" style="stroke:#000000;stroke-width:1;" width="938" x="25" y="429.4346"/><text fill="#000000" font-family="Helvetica" font-size="12" font-weight="700" lengthAdjust="spacing" textLength="102.0117" x="442.9941" y="443.4991">Research Tools</text></g><!--cluster P_DIAGRAM--><g class="cluster" data-qualified-name="P_DIAGRAM" data-source-line="75" id="ent0019"><rect fill="#FFFFFF" height="109.58" style="stroke:#000000;stroke-width:1;" width="620" x="2490" y="272.5646"/><text fill="#000000" font-family="Helvetica" font-size="12" font-weight="700" lengthAdjust="spacing" textLength="97.125" x="2751.4375" y="286.6291">Diagram Tools</text></g><!--cluster P_TEMPLATES--><g class="cluster" data-qualified-name="P_TEMPLATES" data-source-line="82" id="ent0024"><rect fill="#FFFFFF" height="108.17" style="stroke:#000000;stroke-width:1;" width="1275" x="995" y="437.4346"/><text fill="#000000" font-family="Helvetica" font-size="12" font-weight="700" lengthAdjust="spacing" textLength="172.4414" x="1546.2793" y="451.4991">Templates and Resources</text></g><!--cluster P_OUTPUT--><g class="cluster" data-qualified-name="P_OUTPUT" data-source-line="90" id="ent0030"><rect fill="#FFFFFF" height="124.17" style="stroke:#000000;stroke-width:1;" width="661" x="2302" y="429.4346"/><text fill="#000000" font-family="Helvetica" font-size="12" font-weight="700" lengthAdjust="spacing" textLength="108.3047" x="2578.3477" y="443.4991">Output Artifacts</text></g><!--entity ORCH--><g class="entity" data-qualified-name="P_ORCH.ORCH" data-source-line="53" id="ent0003"><rect fill="#FFFFFF" height="59.168" style="stroke:#000000;stroke-width:0.5;" width="119.6055" x="407.2" y="182.1046"/><rect fill="#FFFFFF" height="10" style="stroke:#000000;stroke-width:0.5;" width="15" x="506.8055" y="187.1046"/><rect fill="#FFFFFF" height="2" style="stroke:#000000;stroke-width:0.5;" width="4" x="504.8055" y="189.1046"/><rect fill="#FFFFFF" height="2" style="stroke:#000000;stroke-width:0.5;" width="4" x="504.8055" y="193.1046"/><text fill="#000000" font-family="Helvetica" font-size="12" lengthAdjust="spacing" textLength="58.4414" x="422.2" y="214.1691">SKILL.md</text><text fill="#000000" font-family="Helvetica" font-size="12" lengthAdjust="spacing" textLength="79.6055" x="422.2" y="228.7531">orchestration</text></g><!--entity M2T--><g class="entity" data-qualified-name="P_ORCH.M2T" data-source-line="54" id="ent0004"><rect fill="#FFFFFF" height="59.168" style="stroke:#000000;stroke-width:0.5;" width="164.1016" x="566.95" y="182.1046"/><rect fill="#FFFFFF" height="10" style="stroke:#000000;stroke-width:0.5;" width="15" x="711.0516" y="187.1046"/><rect fill="#FFFFFF" height="2" style="stroke:#000000;stroke-width:0.5;" width="4" x="709.0516" y="189.1046"/><rect fill="#FFFFFF" height="2" style="stroke:#000000;stroke-width:0.5;" width="4" x="709.0516" y="193.1046"/><text fill="#000000" font-family="Helvetica" font-size="12" lengthAdjust="spacing" textLength="124.1016" x="581.95" y="214.1691">scripts/mdx2tex.mjs</text><text fill="#000000" font-family="Helvetica" font-size="12" lengthAdjust="spacing" textLength="87.9375" x="581.95" y="228.7531">MDX -&gt; LaTeX</text></g><!--entity EPUB--><g class="entity" data-qualified-name="P_ORCH.EPUB" data-source-line="55" id="ent0005"><rect fill="#FFFFFF" height="59.168" style="stroke:#000000;stroke-width:0.5;" width="175.5215" x="191.24" y="182.1046"/><rect fill="#FFFFFF" height="10" style="stroke:#000000;stroke-width:0.5;" width="15" x="346.7615" y="187.1046"/><rect fill="#FFFFFF" height="2" style="stroke:#000000;stroke-width:0.5;" width="4" x="344.7615" y="189.1046"/><rect fill="#FFFFFF" height="2" style="stroke:#000000;stroke-width:0.5;" width="4" x="344.7615" y="193.1046"/><text fill="#000000" font-family="Helvetica" font-size="12" lengthAdjust="spacing" textLength="135.5215" x="206.24" y="214.1691">scripts/build-epub.mjs</text><text fill="#000000" font-family="Helvetica" font-size="12" lengthAdjust="spacing" textLength="83.1211" x="206.24" y="228.7531">MDX -&gt; EPUB</text></g><!--entity FONT--><g class="entity" data-qualified-name="P_ORCH.FONT" data-source-line="56" id="ent0006"><rect fill="#FFFFFF" height="59.168" style="stroke:#000000;stroke-width:0.5;" width="186.2207" x="324.89" y="306.2646"/><rect fill="#FFFFFF" height="10" style="stroke:#000000;stroke-width:0.5;" width="15" x="491.1107" y="311.2646"/><rect fill="#FFFFFF" height="2" style="stroke:#000000;stroke-width:0.5;" width="4" x="489.1107" y="313.2646"/><rect fill="#FFFFFF" height="2" style="stroke:#000000;stroke-width:0.5;" width="4" x="489.1107" y="317.2646"/><text fill="#000000" font-family="Helvetica" font-size="12" lengthAdjust="spacing" textLength="146.2207" x="339.89" y="338.3291">scripts/subset-fonts.mjs</text><text fill="#000000" font-family="Helvetica" font-size="12" lengthAdjust="spacing" textLength="90.5859" x="339.89" y="352.9131">font subsetting</text></g><!--entity WC--><g class="entity" data-qualified-name="P_ORCH.WC" data-source-line="57" id="ent0007"><rect fill="#FFFFFF" height="59.168" style="stroke:#000000;stroke-width:0.5;" width="179.8457" x="551.08" y="306.2646"/><rect fill="#FFFFFF" height="10" style="stroke:#000000;stroke-width:0.5;" width="15" x="710.9257" y="311.2646"/><rect fill="#FFFFFF" height="2" style="stroke:#000000;stroke-width:0.5;" width="4" x="708.9257" y="313.2646"/><rect fill="#FFFFFF" height="2" style="stroke:#000000;stroke-width:0.5;" width="4" x="708.9257" y="317.2646"/><text fill="#000000" font-family="Helvetica" font-size="12" lengthAdjust="spacing" textLength="139.8457" x="566.08" y="338.3291">scripts/word-count.mjs</text><text fill="#000000" font-family="Helvetica" font-size="12" lengthAdjust="spacing" textLength="67.3711" x="566.08" y="352.9131">word count</text></g><!--entity FORMULA--><g class="entity" data-qualified-name="P_ORCH.FORMULA" data-source-line="58" id="ent0008"><rect fill="#FFFFFF" height="59.168" style="stroke:#000000;stroke-width:0.5;" width="262.7793" x="22.61" y="306.2646"/><rect fill="#FFFFFF" height="10" style="stroke:#000000;stroke-width:0.5;" width="15" x="265.3893" y="311.2646"/><rect fill="#FFFFFF" height="2" style="stroke:#000000;stroke-width:0.5;" width="4" x="263.3893" y="313.2646"/><rect fill="#FFFFFF" height="2" style="stroke:#000000;stroke-width:0.5;" width="4" x="263.3893" y="317.2646"/><text fill="#000000" font-family="Helvetica" font-size="12" lengthAdjust="spacing" textLength="222.7793" x="37.61" y="338.3291">scripts/optimize-formula-images.mjs</text><text fill="#000000" font-family="Helvetica" font-size="12" lengthAdjust="spacing" textLength="126.9902" x="37.61" y="352.9131">formula image repair</text></g><!--entity PCL--><g class="entity" data-qualified-name="P_SKILLS.PCL" data-source-line="62" id="ent0010"><rect fill="#FFFFFF" height="59.168" style="stroke:#000000;stroke-width:0.5;" width="266.8984" x="2027.55" y="306.2646"/><rect fill="#FFFFFF" height="10" style="stroke:#000000;stroke-width:0.5;" width="15" x="2274.4484" y="311.2646"/><rect fill="#FFFFFF" height="2" style="stroke:#000000;stroke-width:0.5;" width="4" x="2272.4484" y="313.2646"/><rect fill="#FFFFFF" height="2" style="stroke:#000000;stroke-width:0.5;" width="4" x="2272.4484" y="317.2646"/><text fill="#000000" font-family="Helvetica" font-size="12" lengthAdjust="spacing" textLength="139.582" x="2042.55" y="338.3291">project-cookbook-latex</text><text fill="#000000" font-family="Helvetica" font-size="12" lengthAdjust="spacing" textLength="226.8984" x="2042.55" y="352.9131">research / 80k+ words / ElegantBook</text></g><!--entity L2N--><g class="entity" data-qualified-name="P_SKILLS.L2N" data-source-line="63" id="ent0011"><rect fill="#FFFFFF" height="59.168" style="stroke:#000000;stroke-width:0.5;" width="224.793" x="1762.6" y="306.2646"/><rect fill="#FFFFFF" height="10" style="stroke:#000000;stroke-width:0.5;" width="15" x="1967.393" y="311.2646"/><rect fill="#FFFFFF" height="2" style="stroke:#000000;stroke-width:0.5;" width="4" x="1965.393" y="313.2646"/><rect fill="#FFFFFF" height="2" style="stroke:#000000;stroke-width:0.5;" width="4" x="1965.393" y="317.2646"/><text fill="#000000" font-family="Helvetica" font-size="12" lengthAdjust="spacing" textLength="118.1602" x="1777.6" y="338.3291">latex-to-nextra-site</text><text fill="#000000" font-family="Helvetica" font-size="12" lengthAdjust="spacing" textLength="184.793" x="1777.6" y="352.9131">Nextra v3 / Docker / PlantUML</text></g><!--entity ERO--><g class="entity" data-qualified-name="P_SKILLS.ERO" data-source-line="64" id="ent0012"><rect fill="#FFFFFF" height="59.168" style="stroke:#000000;stroke-width:0.5;" width="255.209" x="1467.4" y="306.2646"/><rect fill="#FFFFFF" height="10" style="stroke:#000000;stroke-width:0.5;" width="15" x="1702.609" y="311.2646"/><rect fill="#FFFFFF" height="2" style="stroke:#000000;stroke-width:0.5;" width="4" x="1700.609" y="313.2646"/><rect fill="#FFFFFF" height="2" style="stroke:#000000;stroke-width:0.5;" width="4" x="1700.609" y="317.2646"/><text fill="#000000" font-family="Helvetica" font-size="12" lengthAdjust="spacing" textLength="136.1367" x="1482.4" y="338.3291">epub-reader-optimizer</text><text fill="#000000" font-family="Helvetica" font-size="12" lengthAdjust="spacing" textLength="215.209" x="1482.4" y="352.9131">CSS rewrite / fonts / formula repair</text></g><!--entity BR--><g class="entity" data-qualified-name="P_RESEARCH.BR" data-source-line="68" id="ent0014"><rect fill="#FFFFFF" height="59.168" style="stroke:#000000;stroke-width:0.5;" width="158.2539" x="207.87" y="470.4346"/><rect fill="#FFFFFF" height="10" style="stroke:#000000;stroke-width:0.5;" width="15" x="346.1239" y="475.4346"/><rect fill="#FFFFFF" height="2" style="stroke:#000000;stroke-width:0.5;" width="4" x="344.1239" y="477.4346"/><rect fill="#FFFFFF" height="2" style="stroke:#000000;stroke-width:0.5;" width="4" x="344.1239" y="481.4346"/><text fill="#000000" font-family="Helvetica" font-size="12" lengthAdjust="spacing" textLength="87.8262" x="222.87" y="502.4991">agent-browser</text><text fill="#000000" font-family="Helvetica" font-size="12" lengthAdjust="spacing" textLength="118.2539" x="222.87" y="517.0831">/vivaldi-automation</text></g><!--entity WF--><g class="entity" data-qualified-name="P_RESEARCH.WF" data-source-line="69" id="ent0015"><rect fill="#FFFFFF" height="44.584" style="stroke:#000000;stroke-width:0.5;" width="181.0117" x="406.49" y="477.7246"/><rect fill="#FFFFFF" height="10" style="stroke:#000000;stroke-width:0.5;" width="15" x="567.5017" y="482.7246"/><rect fill="#FFFFFF" height="2" style="stroke:#000000;stroke-width:0.5;" width="4" x="565.5017" y="484.7246"/><rect fill="#FFFFFF" height="2" style="stroke:#000000;stroke-width:0.5;" width="4" x="565.5017" y="488.7246"/><text fill="#000000" font-family="Helvetica" font-size="12" lengthAdjust="spacing" textLength="141.0117" x="421.49" y="509.7891">WebFetch / WebSearch</text></g><!--entity ARX--><g class="entity" data-qualified-name="P_RESEARCH.ARX" data-source-line="70" id="ent0016"><rect fill="#FFFFFF" height="59.168" style="stroke:#000000;stroke-width:0.5;" width="153.0566" x="627.47" y="470.4346"/><rect fill="#FFFFFF" height="10" style="stroke:#000000;stroke-width:0.5;" width="15" x="760.5266" y="475.4346"/><rect fill="#FFFFFF" height="2" style="stroke:#000000;stroke-width:0.5;" width="4" x="758.5266" y="477.4346"/><rect fill="#FFFFFF" height="2" style="stroke:#000000;stroke-width:0.5;" width="4" x="758.5266" y="481.4346"/><text fill="#000000" font-family="Helvetica" font-size="12" lengthAdjust="spacing" textLength="83.1445" x="642.47" y="502.4991">arxiv-watcher</text><text fill="#000000" font-family="Helvetica" font-size="12" lengthAdjust="spacing" textLength="113.0566" x="642.47" y="517.0831">/connected-papers</text></g><!--entity D2X--><g class="entity" data-qualified-name="P_RESEARCH.D2X" data-source-line="71" id="ent0017"><rect fill="#FFFFFF" height="59.168" style="stroke:#000000;stroke-width:0.5;" width="94.0293" x="820.99" y="470.4346"/><rect fill="#FFFFFF" height="10" style="stroke:#000000;stroke-width:0.5;" width="15" x="895.0193" y="475.4346"/><rect fill="#FFFFFF" height="2" style="stroke:#000000;stroke-width:0.5;" width="4" x="893.0193" y="477.4346"/><rect fill="#FFFFFF" height="2" style="stroke:#000000;stroke-width:0.5;" width="4" x="893.0193" y="481.4346"/><text fill="#000000" font-family="Helvetica" font-size="12" lengthAdjust="spacing" textLength="54.0293" x="835.99" y="502.4991">doc2x-cli</text><text fill="#000000" font-family="Helvetica" font-size="12" lengthAdjust="spacing" textLength="53.7656" x="835.99" y="517.0831">PDF OCR</text></g><!--entity GH--><g class="entity" data-qualified-name="P_RESEARCH.GH" data-source-line="72" id="ent0018"><rect fill="#FFFFFF" height="59.168" style="stroke:#000000;stroke-width:0.5;" width="118.9141" x="48.54" y="470.4346"/><rect fill="#FFFFFF" height="10" style="stroke:#000000;stroke-width:0.5;" width="15" x="147.4541" y="475.4346"/><rect fill="#FFFFFF" height="2" style="stroke:#000000;stroke-width:0.5;" width="4" x="145.4541" y="477.4346"/><rect fill="#FFFFFF" height="2" style="stroke:#000000;stroke-width:0.5;" width="4" x="145.4541" y="481.4346"/><text fill="#000000" font-family="Helvetica" font-size="12" lengthAdjust="spacing" textLength="33.3574" x="63.54" y="502.4991">gh-cli</text><text fill="#000000" font-family="Helvetica" font-size="12" lengthAdjust="spacing" textLength="78.9141" x="63.54" y="517.0831">GitHub repos</text></g><!--entity PU--><g class="entity" data-qualified-name="P_DIAGRAM.PU" data-source-line="76" id="ent0020"><rect fill="#FFFFFF" height="44.584" style="stroke:#000000;stroke-width:0.5;" width="92.8574" x="2848.57" y="313.5646"/><rect fill="#FFFFFF" height="10" style="stroke:#000000;stroke-width:0.5;" width="15" x="2921.4274" y="318.5646"/><rect fill="#FFFFFF" height="2" style="stroke:#000000;stroke-width:0.5;" width="4" x="2919.4274" y="320.5646"/><rect fill="#FFFFFF" height="2" style="stroke:#000000;stroke-width:0.5;" width="4" x="2919.4274" y="324.5646"/><text fill="#000000" font-family="Helvetica" font-size="12" lengthAdjust="spacing" textLength="52.8574" x="2863.57" y="345.6291">plantuml</text></g><!--entity DR--><g class="entity" data-qualified-name="P_DIAGRAM.DR" data-source-line="77" id="ent0021"><rect fill="#FFFFFF" height="44.584" style="stroke:#000000;stroke-width:0.5;" width="80.2012" x="2981.9" y="313.5646"/><rect fill="#FFFFFF" height="10" style="stroke:#000000;stroke-width:0.5;" width="15" x="3042.1012" y="318.5646"/><rect fill="#FFFFFF" height="2" style="stroke:#000000;stroke-width:0.5;" width="4" x="3040.1012" y="320.5646"/><rect fill="#FFFFFF" height="2" style="stroke:#000000;stroke-width:0.5;" width="4" x="3040.1012" y="324.5646"/><text fill="#000000" font-family="Helvetica" font-size="12" lengthAdjust="spacing" textLength="40.2012" x="2996.9" y="345.6291">drawio</text></g><!--entity EX--><g class="entity" data-qualified-name="P_DIAGRAM.EX" data-source-line="78" id="ent0022"><rect fill="#FFFFFF" height="44.584" style="stroke:#000000;stroke-width:0.5;" width="103.9199" x="2514.04" y="313.5646"/><rect fill="#FFFFFF" height="10" style="stroke:#000000;stroke-width:0.5;" width="15" x="2597.9599" y="318.5646"/><rect fill="#FFFFFF" height="2" style="stroke:#000000;stroke-width:0.5;" width="4" x="2595.9599" y="320.5646"/><rect fill="#FFFFFF" height="2" style="stroke:#000000;stroke-width:0.5;" width="4" x="2595.9599" y="324.5646"/><text fill="#000000" font-family="Helvetica" font-size="12" lengthAdjust="spacing" textLength="63.9199" x="2529.04" y="345.6291">excalidraw</text></g><!--entity CH--><g class="entity" data-qualified-name="P_DIAGRAM.CH" data-source-line="79" id="ent0023"><rect fill="#FFFFFF" height="44.584" style="stroke:#000000;stroke-width:0.5;" width="150.7949" x="2657.6" y="313.5646"/><rect fill="#FFFFFF" height="10" style="stroke:#000000;stroke-width:0.5;" width="15" x="2788.3949" y="318.5646"/><rect fill="#FFFFFF" height="2" style="stroke:#000000;stroke-width:0.5;" width="4" x="2786.3949" y="320.5646"/><rect fill="#FFFFFF" height="2" style="stroke:#000000;stroke-width:0.5;" width="4" x="2786.3949" y="324.5646"/><text fill="#000000" font-family="Helvetica" font-size="12" lengthAdjust="spacing" textLength="110.7949" x="2672.6" y="345.6291">chart-visualization</text></g><!--entity ORE--><g class="entity" data-qualified-name="P_TEMPLATES.ORE" data-source-line="83" id="ent0025"><rect fill="#FFFFFF" height="44.584" style="stroke:#000000;stroke-width:0.5;" width="241.0586" x="1011.47" y="477.7246"/><rect fill="#FFFFFF" height="10" style="stroke:#000000;stroke-width:0.5;" width="15" x="1232.5286" y="482.7246"/><rect fill="#FFFFFF" height="2" style="stroke:#000000;stroke-width:0.5;" width="4" x="1230.5286" y="484.7246"/><rect fill="#FFFFFF" height="2" style="stroke:#000000;stroke-width:0.5;" width="4" x="1230.5286" y="488.7246"/><text fill="#000000" font-family="Helvetica" font-size="12" lengthAdjust="spacing" textLength="201.0586" x="1026.47" y="509.7891">references/style-guide-oreilly.md</text></g><!--entity SPR--><g class="entity" data-qualified-name="P_TEMPLATES.SPR" data-source-line="84" id="ent0026"><rect fill="#FFFFFF" height="44.584" style="stroke:#000000;stroke-width:0.5;" width="254.0078" x="1293" y="477.7246"/><rect fill="#FFFFFF" height="10" style="stroke:#000000;stroke-width:0.5;" width="15" x="1527.0078" y="482.7246"/><rect fill="#FFFFFF" height="2" style="stroke:#000000;stroke-width:0.5;" width="4" x="1525.0078" y="484.7246"/><rect fill="#FFFFFF" height="2" style="stroke:#000000;stroke-width:0.5;" width="4" x="1525.0078" y="488.7246"/><text fill="#000000" font-family="Helvetica" font-size="12" lengthAdjust="spacing" textLength="214.0078" x="1308" y="509.7891">references/style-guide-springer.md</text></g><!--entity TPL--><g class="entity" data-qualified-name="P_TEMPLATES.TPL" data-source-line="85" id="ent0027"><rect fill="#FFFFFF" height="59.168" style="stroke:#000000;stroke-width:0.5;" width="174.9941" x="1587.5" y="470.4346"/><rect fill="#FFFFFF" height="10" style="stroke:#000000;stroke-width:0.5;" width="15" x="1742.4941" y="475.4346"/><rect fill="#FFFFFF" height="2" style="stroke:#000000;stroke-width:0.5;" width="4" x="1740.4941" y="477.4346"/><rect fill="#FFFFFF" height="2" style="stroke:#000000;stroke-width:0.5;" width="4" x="1740.4941" y="481.4346"/><text fill="#000000" font-family="Helvetica" font-size="12" lengthAdjust="spacing" textLength="133.8398" x="1602.5" y="502.4991">assets/template-mdx/</text><text fill="#000000" font-family="Helvetica" font-size="12" lengthAdjust="spacing" textLength="134.9941" x="1602.5" y="517.0831">chapter-template.mdx</text></g><!--entity NXT--><g class="entity" data-qualified-name="P_TEMPLATES.NXT" data-source-line="86" id="ent0028"><rect fill="#FFFFFF" height="44.584" style="stroke:#000000;stroke-width:0.5;" width="186.4902" x="2067.75" y="477.7246"/><rect fill="#FFFFFF" height="10" style="stroke:#000000;stroke-width:0.5;" width="15" x="2234.2402" y="482.7246"/><rect fill="#FFFFFF" height="2" style="stroke:#000000;stroke-width:0.5;" width="4" x="2232.2402" y="484.7246"/><rect fill="#FFFFFF" height="2" style="stroke:#000000;stroke-width:0.5;" width="4" x="2232.2402" y="488.7246"/><text fill="#000000" font-family="Helvetica" font-size="12" lengthAdjust="spacing" textLength="146.4902" x="2082.75" y="509.7891">assets/nextra-template/</text></g><!--entity CSS--><g class="entity" data-qualified-name="P_TEMPLATES.CSS" data-source-line="87" id="ent0029"><rect fill="#FFFFFF" height="44.584" style="stroke:#000000;stroke-width:0.5;" width="225.5723" x="1802.21" y="477.7246"/><rect fill="#FFFFFF" height="10" style="stroke:#000000;stroke-width:0.5;" width="15" x="2007.7823" y="482.7246"/><rect fill="#FFFFFF" height="2" style="stroke:#000000;stroke-width:0.5;" width="4" x="2005.7823" y="484.7246"/><rect fill="#FFFFFF" height="2" style="stroke:#000000;stroke-width:0.5;" width="4" x="2005.7823" y="488.7246"/><text fill="#000000" font-family="Helvetica" font-size="12" lengthAdjust="spacing" textLength="185.5723" x="1817.21" y="509.7891">assets/stylesheet.template.css</text></g><!--entity MDX--><g class="entity" data-qualified-name="P_OUTPUT.MDX" data-source-line="91" id="ent0031"><path d="M2489.19,480.9346 C2489.19,470.9346 2555.9996,470.9346 2555.9996,470.9346 C2555.9996,470.9346 2622.8091,470.9346 2622.8091,480.9346 L2622.8091,519.1026 C2622.8091,529.1026 2555.9996,529.1026 2555.9996,529.1026 C2555.9996,529.1026 2489.19,529.1026 2489.19,519.1026 L2489.19,480.9346" fill="#FFFFFF" style="stroke:#000000;stroke-width:0.5;"/><path d="M2489.19,480.9346 C2489.19,490.9346 2555.9996,490.9346 2555.9996,490.9346 C2555.9996,490.9346 2622.8091,490.9346 2622.8091,480.9346" fill="none" style="stroke:#000000;stroke-width:0.5;"/><text fill="#000000" font-family="Helvetica" font-size="12" lengthAdjust="spacing" textLength="27.5801" x="2499.19" y="506.9991">MDX</text><text fill="#000000" font-family="Helvetica" font-size="12" lengthAdjust="spacing" textLength="113.6191" x="2499.19" y="521.5831">chapterized source</text></g><!--entity PDF--><g class="entity" data-qualified-name="P_OUTPUT.PDF" data-source-line="92" id="ent0032"><path d="M2819.54,480.9346 C2819.54,470.9346 2867.0048,470.9346 2867.0048,470.9346 C2867.0048,470.9346 2914.4697,470.9346 2914.4697,480.9346 L2914.4697,519.1026 C2914.4697,529.1026 2867.0048,529.1026 2867.0048,529.1026 C2867.0048,529.1026 2819.54,529.1026 2819.54,519.1026 L2819.54,480.9346" fill="#FFFFFF" style="stroke:#000000;stroke-width:0.5;"/><path d="M2819.54,480.9346 C2819.54,490.9346 2867.0048,490.9346 2867.0048,490.9346 C2867.0048,490.9346 2914.4697,490.9346 2914.4697,480.9346" fill="none" style="stroke:#000000;stroke-width:0.5;"/><text fill="#000000" font-family="Helvetica" font-size="12" lengthAdjust="spacing" textLength="74.9297" x="2829.54" y="506.9991">ElegantBook</text><text fill="#000000" font-family="Helvetica" font-size="12" lengthAdjust="spacing" textLength="23.3789" x="2829.54" y="521.5831">PDF</text></g><!--entity WEB--><g class="entity" data-qualified-name="P_OUTPUT.WEB" data-source-line="93" id="ent0033"><path d="M2335.7025,479.3295 C2339.4053,471.8376 2344.7472,472.5664 2349.0791,478.7126 C2353.0389,472.9557 2358.8895,472.1031 2362.6431,478.9348 C2365.6765,472.3495 2371.8824,471.2203 2376.7451,476.8172 C2380.4044,471.1832 2385.3385,472.0409 2388.8401,476.9973 C2392.9056,471.2695 2398.8642,472.1642 2401.7585,478.2752 C2406.0911,472.5654 2412.1424,472.9982 2415.7911,479.0884 C2420.2534,471.9273 2425.8847,473.2685 2430.2452,479.2009 C2434.6228,474.0669 2439.1001,473.6699 2442.366,480.3422 C2447.799,481.7638 2449.3233,485.1831 2446.6622,490.1502 C2453.9249,490.9265 2454.749,495.9432 2451.7425,501.3696 C2456.4139,506.6789 2453.8454,511.1741 2447.8385,512.8531 C2450.6106,517.5201 2448.7177,522.0302 2442.8747,522.0448 C2439.8167,529.953 2433.7674,531.2596 2428.6103,524.0218 C2426.4403,530.9936 2421.6889,531.0765 2416.8321,526.8469 C2412.7268,535.0893 2407.2199,535.5968 2401.5423,528.4044 C2398.8781,536.4421 2394.4783,536.0862 2388.7084,531.5826 C2383.9149,537.1491 2377.1391,537.4226 2374.6662,529.2165 C2369.4059,534.7247 2365.2456,533.8959 2361.8412,527.257 C2357.3059,532.308 2350.8632,531.8638 2348.4597,524.8855 C2343.6543,529.7967 2337.9744,529.4576 2334.8406,522.9005 C2328.5337,520.8825 2327.2747,516.1524 2330.9628,510.9037 C2325.2428,509.6665 2324.1265,505.4402 2327.3037,500.9367 C2323.9211,496.6751 2325.0161,492.1659 2330.5505,490.7451 C2326.0442,484.5176 2329.3001,480.6338 2335.7025,479.3295" fill="#FFFFFF" style="stroke:#000000;stroke-width:0.5;"/><text fill="#000000" font-family="Helvetica" font-size="12" lengthAdjust="spacing" textLength="65.9238" x="2341.4" y="497.4991">Nextra site</text><text fill="#000000" font-family="Helvetica" font-size="12" lengthAdjust="spacing" textLength="93.2051" x="2341.4" y="512.0831">Vercel / Docker</text></g><!--entity EOUT--><g class="entity" data-qualified-name="P_OUTPUT.EOUT" data-source-line="94" id="ent0034"><path d="M2662.55,488.2246 C2662.55,478.2246 2720.9953,478.2246 2720.9953,478.2246 C2720.9953,478.2246 2779.4406,478.2246 2779.4406,488.2246 L2779.4406,511.8086 C2779.4406,521.8086 2720.9953,521.8086 2720.9953,521.8086 C2720.9953,521.8086 2662.55,521.8086 2662.55,511.8086 L2662.55,488.2246" fill="#FFFFFF" style="stroke:#000000;stroke-width:0.5;"/><path d="M2662.55,488.2246 C2662.55,498.2246 2720.9953,498.2246 2720.9953,498.2246 C2720.9953,498.2246 2779.4406,498.2246 2779.4406,488.2246" fill="none" style="stroke:#000000;stroke-width:0.5;"/><text fill="#000000" font-family="Helvetica" font-size="12" lengthAdjust="spacing" textLength="96.8906" x="2672.55" y="514.2891">Optimized EPUB</text></g><!--entity User--><g class="entity" data-qualified-name="User" data-source-line="50" id="ent0001"><ellipse cx="467.0023" cy="52.0146" fill="#FFFFFF" rx="8" ry="8" style="stroke:#000000;stroke-width:0.5;"/><path d="M467.0023,60.0146 L467.0023,87.0146 M454.0023,68.0146 L480.0023,68.0146 M467.0023,87.0146 L454.0023,102.0146 M467.0023,87.0146 L480.0023,102.0146" fill="none" style="stroke:#000000;stroke-width:0.5;"/><text fill="#000000" font-family="Helvetica" font-size="12" lengthAdjust="spacing" textLength="27.3047" x="453.35" y="115.5791">User</text></g><!--link User to ORCH--><g class="link" data-entity-1="ent0001" data-entity-2="ent0003" data-link-type="dependency" data-source-line="97" id="lnk35"><path d="M467,118.3946 C467,138.4846 467,158.0546 467,176.7846" fill="none" id="User-to-ORCH" style="stroke:#000000;stroke-width:0.75;"/><polygon fill="#000000" points="467,181.7846,471,172.7846,467,176.7846,463,172.7846,467,181.7846" style="stroke:#000000;stroke-width:0.75;stroke-linejoin:miter;stroke-miterlimit:10;"/></g><!--link ORCH to BR--><g class="link" data-entity-1="ent0003" data-entity-2="ent0014" data-link-type="dependency" data-source-line="99" id="lnk36"><path d="M527.16,236.4246 C533.78,238.3646 540.48,240.0446 547,241.2646 C562.07,244.1046 812.31,238.2646 823,249.2646 C871.36,299.0546 871.63,355.9146 823,405.4346 C805.99,422.7646 408.68,404.7546 386,413.4346 C355.87,424.9746 332.0735,446.3451 313.8535,466.3851" fill="none" id="ORCH-to-BR" style="stroke:#000000;stroke-width:0.75;"/><polygon fill="#000000" points="310.49,470.0846,319.504,466.1163,313.8535,466.3851,313.5848,460.7347,310.49,470.0846" style="stroke:#000000;stroke-width:0.75;stroke-linejoin:miter;stroke-miterlimit:10;"/></g><!--link ORCH to WF--><g class="link" data-entity-1="ent0003" data-entity-2="ent0015" data-link-type="dependency" data-source-line="100" id="lnk37"><path d="M527.15,236.4746 C533.77,238.3946 540.47,240.0646 547,241.2646 C556.78,243.0746 898.05,242.1546 905,249.2646 C953.53,298.8946 953.42,355.7046 905,405.4346 C893.45,417.3046 622.59,407.8546 607,413.4346 C570.55,426.4946 540.1905,453.0846 519.9205,473.8746" fill="none" id="ORCH-to-WF" style="stroke:#000000;stroke-width:0.75;"/><polygon fill="#000000" points="516.43,477.4546,525.5769,473.803,519.9205,473.8746,519.8488,468.2182,516.43,477.4546" style="stroke:#000000;stroke-width:0.75;stroke-linejoin:miter;stroke-miterlimit:10;"/></g><!--link ORCH to ARX--><g class="link" data-entity-1="ent0003" data-entity-2="ent0016" data-link-type="dependency" data-source-line="101" id="lnk38"><path d="M527.15,236.4846 C533.77,238.4146 540.47,240.0746 547,241.2646 C558.12,243.3046 946.08,241.1946 954,249.2646 C1002.59,298.8246 1001.78,355.0946 954,405.4346 C942.28,417.7846 816.76,407.0046 801,413.4346 C771.68,425.4046 748.575,446.4384 730.735,466.2584" fill="none" id="ORCH-to-ARX" style="stroke:#000000;stroke-width:0.75;"/><polygon fill="#000000" points="727.39,469.9746,736.3841,465.9614,730.735,466.2584,730.438,460.6093,727.39,469.9746" style="stroke:#000000;stroke-width:0.75;stroke-linejoin:miter;stroke-miterlimit:10;"/></g><!--link ORCH to D2X--><g class="link" data-entity-1="ent0003" data-entity-2="ent0017" data-link-type="dependency" data-source-line="102" id="lnk39"><path d="M527.15,236.5046 C533.76,238.4246 540.47,240.0746 547,241.2646 C559.46,243.5446 994.12,240.2346 1003,249.2646 C1051.65,298.7746 1049.69,354.0846 1003,405.4346 C990.39,419.3146 934.85,403.4146 919,413.4346 C898.54,426.3846 887.0783,446.1309 879.1983,465.5709" fill="none" id="ORCH-to-D2X" style="stroke:#000000;stroke-width:0.75;"/><polygon fill="#000000" points="877.32,470.2046,884.408,463.3665,879.1983,465.5709,876.9939,460.3612,877.32,470.2046" style="stroke:#000000;stroke-width:0.75;stroke-linejoin:miter;stroke-miterlimit:10;"/></g><!--link ORCH to GH--><g class="link" data-entity-1="ent0003" data-entity-2="ent0018" data-link-type="dependency" data-source-line="103" id="lnk40"><path d="M527.17,236.3546 C533.79,238.3046 540.48,240.0046 547,241.2646 C558.14,243.4246 743.14,241.0946 751,249.2646 C799.11,299.3046 799.73,356.0146 751,405.4346 C740.02,416.5746 202.3,407.1046 188,413.4346 C161.59,425.1246 142.7424,446.0891 128.6324,466.0891" fill="none" id="ORCH-to-GH" style="stroke:#000000;stroke-width:0.75;"/><polygon fill="#000000" points="125.75,470.1746,134.2067,465.1265,128.6324,466.0891,127.6698,460.5147,125.75,470.1746" style="stroke:#000000;stroke-width:0.75;stroke-linejoin:miter;stroke-miterlimit:10;"/></g><!--link ORCH to PCL--><g class="link" data-entity-1="ent0003" data-entity-2="ent0010" data-link-type="dependency" data-source-line="104" id="lnk41"><path d="M527.13,236.5846 C533.75,238.4846 540.46,240.1146 547,241.2646 C586.94,248.3046 1967.77,238.9846 2007,249.2646 C2049.16,260.3246 2087.9636,282.7757 2117.7536,303.0057" fill="none" id="ORCH-to-PCL" style="stroke:#000000;stroke-width:0.75;"/><polygon fill="#000000" points="2121.89,305.8146,2116.6917,297.4494,2117.7536,303.0057,2112.1973,304.0676,2121.89,305.8146" style="stroke:#000000;stroke-width:0.75;stroke-linejoin:miter;stroke-miterlimit:10;"/></g><!--link ORCH to L2N--><g class="link" data-entity-1="ent0003" data-entity-2="ent0011" data-link-type="dependency" data-source-line="105" id="lnk42"><path d="M527.13,236.5746 C533.75,238.4846 540.46,240.1146 547,241.2646 C612.43,252.8346 1679.35,230.2046 1743,249.2646 C1780.28,260.4346 1813.0593,282.5566 1838.2493,302.7566" fill="none" id="ORCH-to-L2N" style="stroke:#000000;stroke-width:0.75;"/><polygon fill="#000000" points="1842.15,305.8846,1837.6311,297.1337,1838.2493,302.7566,1832.6263,303.3748,1842.15,305.8846" style="stroke:#000000;stroke-width:0.75;stroke-linejoin:miter;stroke-miterlimit:10;"/></g><!--link ORCH to ERO--><g class="link" data-entity-1="ent0003" data-entity-2="ent0012" data-link-type="dependency" data-source-line="106" id="lnk43"><path d="M527.14,236.5646 C533.76,238.4746 540.47,240.1046 547,241.2646 C597.11,250.1746 1414.26,234.6246 1463,249.2646 C1500.27,260.4746 1533.0472,282.5993 1558.2472,302.7793" fill="none" id="ORCH-to-ERO" style="stroke:#000000;stroke-width:0.75;"/><polygon fill="#000000" points="1562.15,305.9046,1557.6252,297.1567,1558.2472,302.7793,1552.6246,303.4013,1562.15,305.9046" style="stroke:#000000;stroke-width:0.75;stroke-linejoin:miter;stroke-miterlimit:10;"/></g><!--link ORCH to PU--><g class="link" data-entity-1="ent0003" data-entity-2="ent0020" data-link-type="dependency" data-source-line="107" id="lnk44"><path d="M527.13,236.5946 C533.75,238.4946 540.46,240.1246 547,241.2646 C578.21,246.7346 2799.54,235.3446 2828,249.2646 C2855.12,262.5346 2872.2107,288.2147 2882.9407,308.9347" fill="none" id="ORCH-to-PU" style="stroke:#000000;stroke-width:0.75;"/><polygon fill="#000000" points="2885.24,313.3746,2884.6533,303.5433,2882.9407,308.9347,2877.5493,307.2221,2885.24,313.3746" style="stroke:#000000;stroke-width:0.75;stroke-linejoin:miter;stroke-miterlimit:10;"/></g><!--link ORCH to DR--><g class="link" data-entity-1="ent0003" data-entity-2="ent0021" data-link-type="dependency" data-source-line="108" id="lnk45"><path d="M527.13,236.5946 C533.75,238.5046 540.46,240.1246 547,241.2646 C580.03,247.0446 2931.22,233.8646 2961,249.2646 C2986.93,262.6846 3002.2175,288.2099 3011.5775,308.8799" fill="none" id="ORCH-to-DR" style="stroke:#000000;stroke-width:0.75;"/><polygon fill="#000000" points="3013.64,313.4346,3013.5712,303.586,3011.5775,308.8799,3006.2836,306.8861,3013.64,313.4346" style="stroke:#000000;stroke-width:0.75;stroke-linejoin:miter;stroke-miterlimit:10;"/></g><!--link ORCH to EX--><g class="link" data-entity-1="ent0003" data-entity-2="ent0022" data-link-type="dependency" data-source-line="109" id="lnk46"><path d="M527.13,236.5946 C533.75,238.4946 540.46,240.1246 547,241.2646 C597.53,250.1346 2344.08,237.4246 2394,249.2646 C2446.09,261.6346 2496.2414,289.4665 2529.5714,310.4965" fill="none" id="ORCH-to-EX" style="stroke:#000000;stroke-width:0.75;"/><polygon fill="#000000" points="2533.8,313.1646,2528.323,304.9792,2529.5714,310.4965,2524.054,311.745,2533.8,313.1646" style="stroke:#000000;stroke-width:0.75;stroke-linejoin:miter;stroke-miterlimit:10;"/></g><!--link ORCH to CH--><g class="link" data-entity-1="ent0003" data-entity-2="ent0023" data-link-type="dependency" data-source-line="110" id="lnk47"><path d="M527.13,236.5946 C533.75,238.4946 540.46,240.1246 547,241.2646 C575.61,246.2846 2610.91,238.8046 2638,249.2646 C2671.13,262.0646 2696.8076,288.4136 2713.7676,309.2936" fill="none" id="ORCH-to-CH" style="stroke:#000000;stroke-width:0.75;"/><polygon fill="#000000" points="2716.92,313.1746,2714.3505,303.6669,2713.7676,309.2936,2708.1409,308.7107,2716.92,313.1746" style="stroke:#000000;stroke-width:0.75;stroke-linejoin:miter;stroke-miterlimit:10;"/></g><!--link ORCH to ORE--><g class="link" data-entity-1="ent0003" data-entity-2="ent0025" data-link-type="dependency" data-source-line="111" id="lnk48"><path d="M527.14,236.5146 C533.76,238.4346 540.47,240.0846 547,241.2646 C560.8,243.7746 1040.73,240.9046 1052,249.2646 C1125.68,303.9346 1132.955,422.2747 1132.705,472.3147" fill="none" id="ORCH-to-ORE" style="stroke:#000000;stroke-width:0.75;"/><polygon fill="#000000" points="1132.68,477.3146,1136.7249,468.3347,1132.705,472.3147,1128.725,468.2948,1132.68,477.3146" style="stroke:#000000;stroke-width:0.75;stroke-linejoin:miter;stroke-miterlimit:10;"/></g><!--link ORCH to SPR--><g class="link" data-entity-1="ent0003" data-entity-2="ent0026" data-link-type="dependency" data-source-line="112" id="lnk49"><path d="M527.14,236.5246 C533.76,238.4446 540.47,240.0946 547,241.2646 C578.38,246.9346 1091.1,238.1846 1121,249.2646 C1186.48,273.5346 1337.3013,417.6526 1394.5613,473.8426" fill="none" id="ORCH-to-SPR" style="stroke:#000000;stroke-width:0.75;"/><polygon fill="#000000" points="1398.13,477.3446,1394.5079,468.186,1394.5613,473.8426,1388.9047,473.896,1398.13,477.3446" style="stroke:#000000;stroke-width:0.75;stroke-linejoin:miter;stroke-miterlimit:10;"/></g><!--link ORCH to TPL--><g class="link" data-entity-1="ent0003" data-entity-2="ent0027" data-link-type="dependency" data-source-line="113" id="lnk50"><path d="M527.14,236.5446 C533.76,238.4546 540.47,240.0946 547,241.2646 C585.45,248.1546 1213.93,234.2746 1250,249.2646 C1341.47,287.2846 1318.3,365.6346 1409,405.4346 C1441.19,419.5646 1534.1,401.0446 1567,413.4346 C1598.79,425.4146 1624.979,446.9248 1645.179,466.8348" fill="none" id="ORCH-to-TPL" style="stroke:#000000;stroke-width:0.75;"/><polygon fill="#000000" points="1648.74,470.3446,1645.1381,461.1781,1645.179,466.8348,1639.5223,466.8757,1648.74,470.3446" style="stroke:#000000;stroke-width:0.75;stroke-linejoin:miter;stroke-miterlimit:10;"/></g><!--link PCL to NXT--><g class="link" data-entity-1="ent0010" data-entity-2="ent0028" data-link-type="dependency" data-source-line="115" id="lnk51"><path d="M2161,365.8446 C2161,397.9146 2161,443.8346 2161,472.5246" fill="none" id="PCL-to-NXT" style="stroke:#000000;stroke-width:0.75;"/><polygon fill="#000000" points="2161,477.5246,2165,468.5246,2161,472.5246,2157,468.5246,2161,477.5246" style="stroke:#000000;stroke-width:0.75;stroke-linejoin:miter;stroke-miterlimit:10;"/></g><!--link ERO to CSS--><g class="link" data-entity-1="ent0012" data-entity-2="ent0029" data-link-type="dependency" data-source-line="116" id="lnk52"><path d="M1649.64,365.8746 C1677.05,379.4646 1711.13,394.9446 1743,405.4346 C1759.81,410.9746 1765.61,406.7546 1782,413.4346 C1821.54,429.5546 1858.1401,454.638 1883.9001,474.228" fill="none" id="ERO-to-CSS" style="stroke:#000000;stroke-width:0.75;"/><polygon fill="#000000" points="1887.88,477.2546,1883.1375,468.6228,1883.9001,474.228,1878.2949,474.9906,1887.88,477.2546" style="stroke:#000000;stroke-width:0.75;stroke-linejoin:miter;stroke-miterlimit:10;"/></g><!--link PCL to M2T--><g class="link" data-entity-1="ent0010" data-entity-2="ent0004" data-link-type="dependency" data-source-line="117" id="lnk53"><path d="M2121.51,305.8746 C2091.69,285.8146 2048.89,260.7346 2007,249.2646 C1884.51,215.7546 1011.93,212.7366 736.49,212.6266" fill="none" id="PCL-to-M2T" style="stroke:#000000;stroke-width:0.75;"/><polygon fill="#000000" points="731.49,212.6246,740.4884,216.6282,736.49,212.6266,740.4916,208.6282,731.49,212.6246" style="stroke:#000000;stroke-width:0.75;stroke-linejoin:miter;stroke-miterlimit:10;"/></g><!--link L2N to NXT--><g class="link" data-entity-1="ent0011" data-entity-2="ent0028" data-link-type="dependency" data-source-line="118" id="lnk54"><path d="M1923.12,365.8046 C1947.77,379.5546 1978.7,395.1746 2008,405.4346 C2025.11,411.4246 2031.47,405.9946 2048,413.4346 C2083.01,429.1846 2113.6292,454.1406 2135.0892,473.8706" fill="none" id="L2N-to-NXT" style="stroke:#000000;stroke-width:0.75;"/><polygon fill="#000000" points="2138.77,477.2546,2134.8518,468.2187,2135.0892,473.8706,2129.4373,474.108,2138.77,477.2546" style="stroke:#000000;stroke-width:0.75;stroke-linejoin:miter;stroke-miterlimit:10;"/></g><!--link ERO to EPUB--><g class="link" data-entity-1="ent0012" data-entity-2="ent0005" data-link-type="dependency" data-source-line="119" id="lnk55"><path d="M1562.15,305.8946 C1536.96,285.6946 1500.28,260.4446 1463,249.2646 C1405.74,232.0946 446.25,249.2046 387,241.2646 C380.46,240.3946 378.6646,240.2168 371.9546,238.8868" fill="none" id="ERO-to-EPUB" style="stroke:#000000;stroke-width:0.75;"/><polygon fill="#000000" points="367.05,237.9146,375.1005,243.5882,371.9546,238.8868,376.656,235.7408,367.05,237.9146" style="stroke:#000000;stroke-width:0.75;stroke-linejoin:miter;stroke-miterlimit:10;"/></g><!--link EPUB to FONT--><g class="link" data-entity-1="ent0005" data-entity-2="ent0006" data-link-type="dependency" data-source-line="120" id="lnk56"><path d="M311.94,241.6346 C334.1,261.1146 359.4342,283.3741 381.5442,302.8041" fill="none" id="EPUB-to-FONT" style="stroke:#000000;stroke-width:0.75;"/><polygon fill="#000000" points="385.3,306.1046,381.18,297.159,381.5442,302.8041,375.8991,303.1683,385.3,306.1046" style="stroke:#000000;stroke-width:0.75;stroke-linejoin:miter;stroke-miterlimit:10;"/></g><!--link EPUB to FORMULA--><g class="link" data-entity-1="ent0005" data-entity-2="ent0008" data-link-type="dependency" data-source-line="121" id="lnk57"><path d="M249.38,241.6346 C229.45,261.1146 206.8658,283.1798 186.9858,302.6098" fill="none" id="EPUB-to-FORMULA" style="stroke:#000000;stroke-width:0.75;"/><polygon fill="#000000" points="183.41,306.1046,192.6423,302.6746,186.9858,302.6098,187.0505,296.9533,183.41,306.1046" style="stroke:#000000;stroke-width:0.75;stroke-linejoin:miter;stroke-miterlimit:10;"/></g><!--link ORCH to WC--><g class="link" data-entity-1="ent0003" data-entity-2="ent0007" data-link-type="dependency" data-source-line="122" id="lnk58"><path d="M519.08,241.6246 C523.16,244.1346 527.17,246.7046 531,249.2646 C557.13,266.7746 581.2088,285.4224 602.3988,302.6324" fill="none" id="ORCH-to-WC" style="stroke:#000000;stroke-width:0.75;"/><polygon fill="#000000" points="606.28,305.7846,601.8156,297.0057,602.3988,302.6324,596.7721,303.2156,606.28,305.7846" style="stroke:#000000;stroke-width:0.75;stroke-linejoin:miter;stroke-miterlimit:10;"/></g><!--link M2T to PDF--><g class="link" data-entity-1="ent0004" data-entity-2="ent0032" data-link-type="dependency" data-source-line="123" id="lnk59"><path d="M731.54,212.2846 C1067.87,210.9046 2320.64,208.5646 2394,249.2646 C2466.49,289.4946 2423.62,365.0146 2496,405.4346 C2525.4,421.8546 2768.87,398.3946 2799,413.4346 C2823.28,425.5546 2839.1555,446.5013 2850.6455,466.4613" fill="none" id="M2T-to-PDF" style="stroke:#000000;stroke-width:0.75;"/><polygon fill="#000000" points="2853.14,470.7946,2852.1166,460.9991,2850.6455,466.4613,2845.1833,464.9903,2853.14,470.7946" style="stroke:#000000;stroke-width:0.75;stroke-linejoin:miter;stroke-miterlimit:10;"/></g><!--link PCL to MDX--><g class="link" data-entity-1="ent0010" data-entity-2="ent0031" data-link-type="dependency" data-source-line="124" id="lnk60"><path d="M2219.63,365.8546 C2251.96,380.4346 2293.29,396.7946 2332,405.4346 C2361.98,412.1346 2441.96,400.8946 2470,413.4346 C2497.31,425.6446 2517.703,446.7036 2533.193,466.5436" fill="none" id="PCL-to-MDX" style="stroke:#000000;stroke-width:0.75;"/><polygon fill="#000000" points="2536.27,470.4846,2533.8843,460.9291,2533.193,466.5436,2527.5786,465.8523,2536.27,470.4846" style="stroke:#000000;stroke-width:0.75;stroke-linejoin:miter;stroke-miterlimit:10;"/></g><!--link L2N to WEB--><g class="link" data-entity-1="ent0011" data-entity-2="ent0033" data-link-type="dependency" data-source-line="125" id="lnk61"><path d="M1918.84,365.7846 C1943.85,380.6246 1976.44,397.2646 2008,405.4346 C2064.82,420.1346 2216.53,394.2546 2272,413.4346 C2305.59,425.0546 2333.9127,446.7377 2355.7727,466.7577" fill="none" id="L2N-to-WEB" style="stroke:#000000;stroke-width:0.75;"/><polygon fill="#000000" points="2359.46,470.1346,2355.5244,461.1063,2355.7727,466.7577,2350.1213,467.006,2359.46,470.1346" style="stroke:#000000;stroke-width:0.75;stroke-linejoin:miter;stroke-miterlimit:10;"/></g><!--link EPUB to EOUT--><g class="link" data-entity-1="ent0005" data-entity-2="ent0034" data-link-type="dependency" data-source-line="126" id="lnk62"><path d="M367.04,237.9446 C373.76,239.2646 380.46,240.4046 387,241.2646 C400.25,243.0246 2300.68,242.1546 2312,249.2646 C2377.36,290.3346 2323.21,363.4846 2388,405.4346 C2411.79,420.8446 2617.25,401.5846 2643,413.4346 C2672.4,426.9746 2692.976,453.1225 2706.196,473.7925" fill="none" id="EPUB-to-EOUT" style="stroke:#000000;stroke-width:0.75;"/><polygon fill="#000000" points="2708.89,478.0046,2707.4105,468.2675,2706.196,473.7925,2700.6711,472.5779,2708.89,478.0046" style="stroke:#000000;stroke-width:0.75;stroke-linejoin:miter;stroke-miterlimit:10;"/></g><!--link P_SKILLS to P_RESEARCH--><!--link P_DIAGRAM to P_OUTPUT--><?plantuml-src ZLVRRY8t6BwVfx3IYrwqXfHsjRsgH80SL4vYe8cqh2hZ-GDU1djgUu1iLQaFqIVia_ItFGocsmAHaXtRtt_w_eEzNvDoazDCiALc6zDGUaaql886oO4O-vO3-VlFl_1B2sx9QF10PeC-QJNstvADaegljDf0OjP25WmrH9l4wZ8-MJ2-NcfLogoZSgN9L_V-9q9ayChAtDuhQOSC5Jn2lWKhEFjlJ2e-0_ck5HsQ5SlKJiWbUMMvYOtpd1dJjXZ5ehJmn9NqqhUnCFnMkgW7O0nRGZiNIqauI0iwGbK1Q0aQfQE3DhTAtrsCCS2Kpa1Na5l_4q76J6FGec3INjONWyzg7IeBbzLvr5azQKNJ0-efhl6Fhv7Dwu5dZNTS6Y_h6Yq-0R-2lDIoQqW9iBEEpGnmPgxGTG2U3rDj2YNXclmVeMSrOjc9hR1lLnLeG5wefkogQiekHDfbbYsk8gv6NYWGLMPNiEPXPpLDi8AONEPNk7Q4di-1rcftzd2w4dmjSVwGsyRxTt7mOUfDOM__Jq4q64yXYHKMfpXNQht0N_gACnwETOEM-KfO3A7KW61L4Al8GbchKAdGU22KZ0n9JAg1WlmGMzTChjtcktYp22sT-bj47qXA4kPceEi4dIGLXjoCq0t0QuOvStDvwkuDOOQCVnrDEe_azuIG3-dFJ_r-OvFDfOhbFZgSGpcCuLeKrZGtsRvbOT_OV39pEUY-4FeJwRCfl7Zqe3MDmOjIv1c5eboSu7lZsPs7kuyORyg50OjUIck2XFiaOTlYLUIbxaV34oixB1JAiQPia75hujSU_jo9mQgmOeEtbQDYK-QCYWqoLblpUyJl8Sa54xeoEHdC-ktaZuZZ2PG6CfAkHPwRYbFFP1fOBRHoWvFMvESu-FPpgJ7X37acJVBZxVeRujmrkEZbiFGNZrfxc-DEtwdnKjGgAh5UDQC6osikXtv1jj-ZO5VnDLwWJJBEKHvV55wytnewSKS-rS2mbUWXTZsNdJJ5-7OQbQ6W9zp_6-AF8kzDHl-Akl9-gbGTzgINzjfrEI5EMhh05ZJEL7ChjYpF16KbTi6nikuc3lmCYtkmdWtyJBtkaBPxhqllnPRk62AyBdnhI2GLCbgm0hJnqFRanM4pnLjxodCnb-FkFHbr9lwqs_AdorKuUX3siLou45MGVdWy2R0RNcydyNMVsW-Jzg3AgsCPttaXIJDlMRETKC6QZmhsdEN2RGSIlGTyXSyBkXMcnBFFHo8wfmvCOLEuf1l2P8RZqAXISpYuCkqDnltsj5SLMVsynEPnau4kIv41LHgmAj-mfwicxfq1cq9ZQu4-eDEnZm4V1u0DOojtA7P-4qV9YXNuYAE7RHJQUwdfk1z9LSLwG3KzPFWoZI3U1RC2i8rQ6JSX9rYU9voCIbkKRhfQyOe3xq36Q3OTpwQUYQowqSWD3fdQJIpsZ0G2lGYUdM2ZdlD54_HsNUbnTwkHcwhHGjVz0gWehrlEevzxToSgHrMJPNwwUKWF_NJXk25DA0v0FrGJFu3T4ZkX_iQohxzTNTSBLyRr0cks_dPpebwuhgyNhdUFi5caApBOYzHs8hMkPkg5AubwuJATe5M_S3b5Eq4SitROTpS1ElC5nezyzyUl_2YFLc7A7ide9AWdk8z9gNLZ5W-w7Vsr0azqKezX-c4biWpaH_n_ZAJHd4gEBVq59jJKFm00?></g></svg>