<svg xmlns="http://www.w3.org/2000/svg" xmlns:xlink="http://www.w3.org/1999/xlink" contentStyleType="text/css" data-diagram-type="DESCRIPTION" height="539px" preserveAspectRatio="none" style="width:3720px;height:539px;background:#FFFFFF;" version="1.1" viewBox="0 0 3720 539" width="3720px" zoomAndPan="magnify"><?plantuml 1.2026.6?><defs/><g><g class="title" data-source-line="19"><text fill="#000000" font-family="'WenQuanYi Micro Hei'" font-size="14" font-weight="700" lengthAdjust="spacing" textLength="184.2283" x="1764.3859" y="22.9951">cookbook-forge &#32452;&#20214;&#26550;&#26500;</text></g><!--cluster ???\ncookbook-forge--><g class="cluster" data-qualified-name="....ncookbook-forge" data-source-line="23" id="ent0002"><path d="M8.5,135.0969 L132.8545,135.0969 A3.75,3.75 0 0 1 135.3545,137.5969 L142.3545,173.6906 L807.5,173.6906 A2.5,2.5 0 0 1 810,176.1906 L810,384.7869 A2.5,2.5 0 0 1 807.5,387.2869 L8.5,387.2869 A2.5,2.5 0 0 1 6,384.7869 L6,137.5969 A2.5,2.5 0 0 1 8.5,135.0969" fill="#FFFFFF" style="stroke:#000000;stroke-width:1.5;"/><line style="stroke:#000000;stroke-width:1.5;" x1="6" x2="142.3545" y1="173.6906" y2="173.6906"/><text fill="#000000" font-family="'WenQuanYi Micro Hei'" font-size="14" font-weight="700" lengthAdjust="spacing" textLength="41.9998" x="50.6773" y="150.092">&#32534;&#25490;&#23618;</text><text fill="#000000" font-family="'WenQuanYi Micro Hei'" font-size="14" font-weight="700" lengthAdjust="spacing" textLength="123.3545" x="10" y="166.3889">cookbook-forge</text></g><!--cluster ??? Skills--><g class="cluster" data-qualified-name="... Skills" data-source-line="32" id="ent0009"><path d="M2611.5,273.6869 L2701.4969,273.6869 A3.75,3.75 0 0 1 2703.9969,276.1869 L2710.9969,295.9838 L3423.5,295.9838 A2.5,2.5 0 0 1 3426,298.4838 L3426,384.7869 A2.5,2.5 0 0 1 3423.5,387.2869 L2611.5,387.2869 A2.5,2.5 0 0 1 2609,384.7869 L2609,276.1869 A2.5,2.5 0 0 1 2611.5,273.6869" fill="#FFFFFF" style="stroke:#000000;stroke-width:1.5;"/><line style="stroke:#000000;stroke-width:1.5;" x1="2609" x2="2710.9969" y1="295.9838" y2="295.9838"/><text fill="#000000" font-family="'WenQuanYi Micro Hei'" font-size="14" font-weight="700" lengthAdjust="spacing" textLength="88.9969" x="2613" y="288.682">&#22797;&#29992;&#30340; Skills</text></g><!--cluster ??????--><g class="cluster" data-qualified-name="......" data-source-line="38" id="ent0013"><path d="M886.5,273.6869 L971.4996,273.6869 A3.75,3.75 0 0 1 973.9996,276.1869 L980.9996,295.9838 L1827.5,295.9838 A2.5,2.5 0 0 1 1830,298.4838 L1830,384.7869 A2.5,2.5 0 0 1 1827.5,387.2869 L886.5,387.2869 A2.5,2.5 0 0 1 884,384.7869 L884,276.1869 A2.5,2.5 0 0 1 886.5,273.6869" fill="#FFFFFF" style="stroke:#000000;stroke-width:1.5;"/><line style="stroke:#000000;stroke-width:1.5;" x1="884" x2="980.9996" y1="295.9838" y2="295.9838"/><text fill="#000000" font-family="'WenQuanYi Micro Hei'" font-size="14" font-weight="700" lengthAdjust="spacing" textLength="83.9996" x="888" y="288.682">&#25968;&#25454;&#37319;&#38598;&#24037;&#20855;</text></g><!--cluster ????--><g class="cluster" data-qualified-name="...." data-source-line="46" id="ent0019"><path d="M1856.5,281.8369 L1913.4998,281.8369 A3.75,3.75 0 0 1 1915.9998,284.3369 L1922.9998,304.1337 L2461.5,304.1337 A2.5,2.5 0 0 1 2464,306.6337 L2464,376.6369 A2.5,2.5 0 0 1 2461.5,379.1369 L1856.5,379.1369 A2.5,2.5 0 0 1 1854,376.6369 L1854,284.3369 A2.5,2.5 0 0 1 1856.5,281.8369" fill="#FFFFFF" style="stroke:#000000;stroke-width:1.5;"/><line style="stroke:#000000;stroke-width:1.5;" x1="1854" x2="1922.9998" y1="304.1337" y2="304.1337"/><text fill="#000000" font-family="'WenQuanYi Micro Hei'" font-size="14" font-weight="700" lengthAdjust="spacing" textLength="55.9998" x="1858" y="296.832">&#22270;&#34920;&#24037;&#20855;</text></g><!--cluster ?????--><g class="cluster" data-qualified-name="....." data-source-line="53" id="ent0024"><path d="M1712.5,411.2869 L1783.4997,411.2869 A3.75,3.75 0 0 1 1785.9997,413.7869 L1792.9997,433.5837 L3101.5,433.5837 A2.5,2.5 0 0 1 3104,436.0837 L3104,522.3769 A2.5,2.5 0 0 1 3101.5,524.8769 L1712.5,524.8769 A2.5,2.5 0 0 1 1710,522.3769 L1710,413.7869 A2.5,2.5 0 0 1 1712.5,411.2869" fill="#FFFFFF" style="stroke:#000000;stroke-width:1.5;"/><line style="stroke:#000000;stroke-width:1.5;" x1="1710" x2="1792.9997" y1="433.5837" y2="433.5837"/><text fill="#000000" font-family="'WenQuanYi Micro Hei'" font-size="14" font-weight="700" lengthAdjust="spacing" textLength="69.9997" x="1714" y="426.282">&#27169;&#26495;&#19982;&#36164;&#28304;</text></g><!--cluster ????--><g class="cluster" data-qualified-name="...." data-source-line="61" id="ent0030"><path d="M3130.5,411.2869 L3187.4998,411.2869 A3.75,3.75 0 0 1 3189.9998,413.7869 L3196.9998,433.5837 L3702.5,433.5837 A2.5,2.5 0 0 1 3705,436.0837 L3705,522.3769 A2.5,2.5 0 0 1 3702.5,524.8769 L3130.5,524.8769 A2.5,2.5 0 0 1 3128,522.3769 L3128,413.7869 A2.5,2.5 0 0 1 3130.5,411.2869" fill="#FFFFFF" style="stroke:#000000;stroke-width:1.5;"/><line style="stroke:#000000;stroke-width:1.5;" x1="3128" x2="3196.9998" y1="433.5837" y2="433.5837"/><text fill="#000000" font-family="'WenQuanYi Micro Hei'" font-size="14" font-weight="700" lengthAdjust="spacing" textLength="55.9998" x="3132" y="426.282">&#36755;&#20986;&#20135;&#29289;</text></g><!--entity ORCH--><g class="entity" data-qualified-name="....ncookbook-forge.ORCH" data-source-line="24" id="ent0003"><rect fill="#FFFFFF" height="62.5938" rx="2.5" ry="2.5" style="stroke:#000000;stroke-width:0.5;" width="104.7705" x="471.61" y="186.0969"/><rect fill="#FFFFFF" height="10" style="stroke:#000000;stroke-width:0.5;" width="15" x="556.3805" y="191.0969"/><rect fill="#FFFFFF" height="2" style="stroke:#000000;stroke-width:0.5;" width="4" x="554.3805" y="193.0969"/><rect fill="#FFFFFF" height="2" style="stroke:#000000;stroke-width:0.5;" width="4" x="554.3805" y="197.0969"/><text fill="#000000" font-family="'WenQuanYi Micro Hei'" font-size="14" lengthAdjust="spacing" textLength="64.7705" x="486.61" y="219.092">SKILL.md</text><text fill="#000000" font-family="'WenQuanYi Micro Hei'" font-size="14" lengthAdjust="spacing" textLength="55.9998" x="486.61" y="235.3889">&#32534;&#25490;&#25351;&#20196;</text></g><!--entity M2T--><g class="entity" data-qualified-name="....ncookbook-forge.M2T" data-source-line="25" id="ent0004"><rect fill="#FFFFFF" height="62.5938" rx="2.5" ry="2.5" style="stroke:#000000;stroke-width:0.5;" width="182.3994" x="611.8" y="186.0969"/><rect fill="#FFFFFF" height="10" style="stroke:#000000;stroke-width:0.5;" width="15" x="774.1994" y="191.0969"/><rect fill="#FFFFFF" height="2" style="stroke:#000000;stroke-width:0.5;" width="4" x="772.1994" y="193.0969"/><rect fill="#FFFFFF" height="2" style="stroke:#000000;stroke-width:0.5;" width="4" x="772.1994" y="197.0969"/><text fill="#000000" font-family="'WenQuanYi Micro Hei'" font-size="14" lengthAdjust="spacing" textLength="142.3994" x="626.8" y="219.092">scripts/mdx2tex.mjs</text><text fill="#000000" font-family="'WenQuanYi Micro Hei'" font-size="14" lengthAdjust="spacing" textLength="101.2676" x="626.8" y="235.3889">MDX -&gt; LaTeX</text></g><!--entity EPUB--><g class="entity" data-qualified-name="....ncookbook-forge.EPUB" data-source-line="26" id="ent0005"><rect fill="#FFFFFF" height="62.5938" rx="2.5" ry="2.5" style="stroke:#000000;stroke-width:0.5;" width="195.0322" x="241.48" y="186.0969"/><rect fill="#FFFFFF" height="10" style="stroke:#000000;stroke-width:0.5;" width="15" x="416.5122" y="191.0969"/><rect fill="#FFFFFF" height="2" style="stroke:#000000;stroke-width:0.5;" width="4" x="414.5122" y="193.0969"/><rect fill="#FFFFFF" height="2" style="stroke:#000000;stroke-width:0.5;" width="4" x="414.5122" y="197.0969"/><text fill="#000000" font-family="'WenQuanYi Micro Hei'" font-size="14" lengthAdjust="spacing" textLength="155.0322" x="256.48" y="219.092">scripts/build-epub.mjs</text><text fill="#000000" font-family="'WenQuanYi Micro Hei'" font-size="14" lengthAdjust="spacing" textLength="95.2725" x="256.48" y="235.3889">MDX -&gt; EPUB</text></g><!--entity FONT--><g class="entity" data-qualified-name="....ncookbook-forge.FONT" data-source-line="27" id="ent0006"><rect fill="#FFFFFF" height="62.5938" rx="2.5" ry="2.5" style="stroke:#000000;stroke-width:0.5;" width="206.9473" x="352.53" y="308.6869"/><rect fill="#FFFFFF" height="10" style="stroke:#000000;stroke-width:0.5;" width="15" x="539.4773" y="313.6869"/><rect fill="#FFFFFF" height="2" style="stroke:#000000;stroke-width:0.5;" width="4" x="537.4773" y="315.6869"/><rect fill="#FFFFFF" height="2" style="stroke:#000000;stroke-width:0.5;" width="4" x="537.4773" y="319.6869"/><text fill="#000000" font-family="'WenQuanYi Micro Hei'" font-size="14" lengthAdjust="spacing" textLength="166.9473" x="367.53" y="341.682">scripts/subset-fonts.mjs</text><text fill="#000000" font-family="'WenQuanYi Micro Hei'" font-size="14" lengthAdjust="spacing" textLength="69.9997" x="367.53" y="357.9789">&#23383;&#20307;&#23376;&#38598;&#21270;</text></g><!--entity WC--><g class="entity" data-qualified-name="....ncookbook-forge.WC" data-source-line="28" id="ent0007"><rect fill="#FFFFFF" height="62.5938" rx="2.5" ry="2.5" style="stroke:#000000;stroke-width:0.5;" width="199.5029" x="594.25" y="308.6869"/><rect fill="#FFFFFF" height="10" style="stroke:#000000;stroke-width:0.5;" width="15" x="773.7529" y="313.6869"/><rect fill="#FFFFFF" height="2" style="stroke:#000000;stroke-width:0.5;" width="4" x="771.7529" y="315.6869"/><rect fill="#FFFFFF" height="2" style="stroke:#000000;stroke-width:0.5;" width="4" x="771.7529" y="319.6869"/><text fill="#000000" font-family="'WenQuanYi Micro Hei'" font-size="14" lengthAdjust="spacing" textLength="159.5029" x="609.25" y="341.682">scripts/word-count.mjs</text><text fill="#000000" font-family="'WenQuanYi Micro Hei'" font-size="14" lengthAdjust="spacing" textLength="55.9998" x="609.25" y="357.9789">&#23383;&#25968;&#32479;&#35745;</text></g><!--entity FORMULA--><g class="entity" data-qualified-name="....ncookbook-forge.FORMULA" data-source-line="29" id="ent0008"><rect fill="#FFFFFF" height="62.5938" rx="2.5" ry="2.5" style="stroke:#000000;stroke-width:0.5;" width="295.8486" x="22.08" y="308.6869"/><rect fill="#FFFFFF" height="10" style="stroke:#000000;stroke-width:0.5;" width="15" x="297.9286" y="313.6869"/><rect fill="#FFFFFF" height="2" style="stroke:#000000;stroke-width:0.5;" width="4" x="295.9286" y="315.6869"/><rect fill="#FFFFFF" height="2" style="stroke:#000000;stroke-width:0.5;" width="4" x="295.9286" y="319.6869"/><text fill="#000000" font-family="'WenQuanYi Micro Hei'" font-size="14" lengthAdjust="spacing" textLength="255.8486" x="37.08" y="341.682">scripts/optimize-formula-images.mjs</text><text fill="#000000" font-family="'WenQuanYi Micro Hei'" font-size="14" lengthAdjust="spacing" textLength="83.9996" x="37.08" y="357.9789">&#20844;&#24335;&#22270;&#29255;&#20462;&#22797;</text></g><!--entity PCL--><g class="entity" data-qualified-name="... Skills.PCL" data-source-line="33" id="ent0010"><rect fill="#FFFFFF" height="62.5938" rx="2.5" ry="2.5" style="stroke:#000000;stroke-width:0.5;" width="252.611" x="3157.69" y="308.6869"/><rect fill="#FFFFFF" height="10" style="stroke:#000000;stroke-width:0.5;" width="15" x="3390.301" y="313.6869"/><rect fill="#FFFFFF" height="2" style="stroke:#000000;stroke-width:0.5;" width="4" x="3388.301" y="315.6869"/><rect fill="#FFFFFF" height="2" style="stroke:#000000;stroke-width:0.5;" width="4" x="3388.301" y="319.6869"/><text fill="#000000" font-family="'WenQuanYi Micro Hei'" font-size="14" lengthAdjust="spacing" textLength="160.918" x="3172.69" y="341.682">project-cookbook-latex</text><text fill="#000000" font-family="'WenQuanYi Micro Hei'" font-size="14" lengthAdjust="spacing" textLength="212.611" x="3172.69" y="357.9789">&#36164;&#26009;&#31351;&#23613; / 8 &#19975;&#23383; / ElegantBook</text></g><!--entity L2N--><g class="entity" data-qualified-name="... Skills.L2N" data-source-line="34" id="ent0011"><rect fill="#FFFFFF" height="62.5938" rx="2.5" ry="2.5" style="stroke:#000000;stroke-width:0.5;" width="250.9912" x="2871.5" y="308.6869"/><rect fill="#FFFFFF" height="10" style="stroke:#000000;stroke-width:0.5;" width="15" x="3102.4912" y="313.6869"/><rect fill="#FFFFFF" height="2" style="stroke:#000000;stroke-width:0.5;" width="4" x="3100.4912" y="315.6869"/><rect fill="#FFFFFF" height="2" style="stroke:#000000;stroke-width:0.5;" width="4" x="3100.4912" y="319.6869"/><text fill="#000000" font-family="'WenQuanYi Micro Hei'" font-size="14" lengthAdjust="spacing" textLength="134.9482" x="2886.5" y="341.682">latex-to-nextra-site</text><text fill="#000000" font-family="'WenQuanYi Micro Hei'" font-size="14" lengthAdjust="spacing" textLength="210.9912" x="2886.5" y="357.9789">Nextra v3 / Docker / PlantUML</text></g><!--entity ERO--><g class="entity" data-qualified-name="... Skills.ERO" data-source-line="35" id="ent0012"><rect fill="#FFFFFF" height="62.5938" rx="2.5" ry="2.5" style="stroke:#000000;stroke-width:0.5;" width="211.2329" x="2625.38" y="308.6869"/><rect fill="#FFFFFF" height="10" style="stroke:#000000;stroke-width:0.5;" width="15" x="2816.6129" y="313.6869"/><rect fill="#FFFFFF" height="2" style="stroke:#000000;stroke-width:0.5;" width="4" x="2814.6129" y="315.6869"/><rect fill="#FFFFFF" height="2" style="stroke:#000000;stroke-width:0.5;" width="4" x="2814.6129" y="319.6869"/><text fill="#000000" font-family="'WenQuanYi Micro Hei'" font-size="14" lengthAdjust="spacing" textLength="157.6436" x="2640.38" y="341.682">epub-reader-optimizer</text><text fill="#000000" font-family="'WenQuanYi Micro Hei'" font-size="14" lengthAdjust="spacing" textLength="171.2329" x="2640.38" y="357.9789">CSS &#37325;&#20889; / &#23383;&#20307; / &#20844;&#24335;&#20462;&#22797;</text></g><!--entity BR--><g class="entity" data-qualified-name=".......BR" data-source-line="39" id="ent0014"><rect fill="#FFFFFF" height="62.5938" rx="2.5" ry="2.5" style="stroke:#000000;stroke-width:0.5;" width="176.0146" x="899.99" y="308.6869"/><rect fill="#FFFFFF" height="10" style="stroke:#000000;stroke-width:0.5;" width="15" x="1056.0046" y="313.6869"/><rect fill="#FFFFFF" height="2" style="stroke:#000000;stroke-width:0.5;" width="4" x="1054.0046" y="315.6869"/><rect fill="#FFFFFF" height="2" style="stroke:#000000;stroke-width:0.5;" width="4" x="1054.0046" y="319.6869"/><text fill="#000000" font-family="'WenQuanYi Micro Hei'" font-size="14" lengthAdjust="spacing" textLength="101.8145" x="914.99" y="341.682">agent-browser</text><text fill="#000000" font-family="'WenQuanYi Micro Hei'" font-size="14" lengthAdjust="spacing" textLength="136.0146" x="914.99" y="357.9789">/vivaldi-automation</text></g><!--entity WF--><g class="entity" data-qualified-name=".......WF" data-source-line="40" id="ent0015"><rect fill="#FFFFFF" height="46.2969" rx="2.5" ry="2.5" style="stroke:#000000;stroke-width:0.5;" width="203.4336" x="1111.28" y="316.8369"/><rect fill="#FFFFFF" height="10" style="stroke:#000000;stroke-width:0.5;" width="15" x="1294.7136" y="321.8369"/><rect fill="#FFFFFF" height="2" style="stroke:#000000;stroke-width:0.5;" width="4" x="1292.7136" y="323.8369"/><rect fill="#FFFFFF" height="2" style="stroke:#000000;stroke-width:0.5;" width="4" x="1292.7136" y="327.8369"/><text fill="#000000" font-family="'WenQuanYi Micro Hei'" font-size="14" lengthAdjust="spacing" textLength="163.4336" x="1126.28" y="349.832">WebFetch / WebSearch</text></g><!--entity ARX--><g class="entity" data-qualified-name=".......ARX" data-source-line="41" id="ent0016"><rect fill="#FFFFFF" height="62.5938" rx="2.5" ry="2.5" style="stroke:#000000;stroke-width:0.5;" width="171.0928" x="1349.45" y="308.6869"/><rect fill="#FFFFFF" height="10" style="stroke:#000000;stroke-width:0.5;" width="15" x="1500.5428" y="313.6869"/><rect fill="#FFFFFF" height="2" style="stroke:#000000;stroke-width:0.5;" width="4" x="1498.5428" y="315.6869"/><rect fill="#FFFFFF" height="2" style="stroke:#000000;stroke-width:0.5;" width="4" x="1498.5428" y="319.6869"/><text fill="#000000" font-family="'WenQuanYi Micro Hei'" font-size="14" lengthAdjust="spacing" textLength="96.3047" x="1364.45" y="341.682">arxiv-watcher</text><text fill="#000000" font-family="'WenQuanYi Micro Hei'" font-size="14" lengthAdjust="spacing" textLength="131.0928" x="1364.45" y="357.9789">/connected-papers</text></g><!--entity D2X--><g class="entity" data-qualified-name=".......D2X" data-source-line="42" id="ent0017"><rect fill="#FFFFFF" height="62.5938" rx="2.5" ry="2.5" style="stroke:#000000;stroke-width:0.5;" width="102.8701" x="1555.56" y="308.6869"/><rect fill="#FFFFFF" height="10" style="stroke:#000000;stroke-width:0.5;" width="15" x="1638.4301" y="313.6869"/><rect fill="#FFFFFF" height="2" style="stroke:#000000;stroke-width:0.5;" width="4" x="1636.4301" y="315.6869"/><rect fill="#FFFFFF" height="2" style="stroke:#000000;stroke-width:0.5;" width="4" x="1636.4301" y="319.6869"/><text fill="#000000" font-family="'WenQuanYi Micro Hei'" font-size="14" lengthAdjust="spacing" textLength="62.8701" x="1570.56" y="341.682">doc2x-cli</text><text fill="#000000" font-family="'WenQuanYi Micro Hei'" font-size="14" lengthAdjust="spacing" textLength="62.248" x="1570.56" y="357.9789">PDF OCR</text></g><!--entity GH--><g class="entity" data-qualified-name=".......GH" data-source-line="43" id="ent0018"><rect fill="#FFFFFF" height="62.5938" rx="2.5" ry="2.5" style="stroke:#000000;stroke-width:0.5;" width="120.9647" x="1693.52" y="308.6869"/><rect fill="#FFFFFF" height="10" style="stroke:#000000;stroke-width:0.5;" width="15" x="1794.4847" y="313.6869"/><rect fill="#FFFFFF" height="2" style="stroke:#000000;stroke-width:0.5;" width="4" x="1792.4847" y="315.6869"/><rect fill="#FFFFFF" height="2" style="stroke:#000000;stroke-width:0.5;" width="4" x="1792.4847" y="319.6869"/><text fill="#000000" font-family="'WenQuanYi Micro Hei'" font-size="14" lengthAdjust="spacing" textLength="38.2881" x="1708.52" y="341.682">gh-cli</text><text fill="#000000" font-family="'WenQuanYi Micro Hei'" font-size="14" lengthAdjust="spacing" textLength="80.9647" x="1708.52" y="357.9789">GitHub &#20179;&#24211;</text></g><!--entity PU--><g class="entity" data-qualified-name=".....PU" data-source-line="47" id="ent0020"><rect fill="#FFFFFF" height="46.2969" rx="2.5" ry="2.5" style="stroke:#000000;stroke-width:0.5;" width="102.1182" x="1869.94" y="316.8369"/><rect fill="#FFFFFF" height="10" style="stroke:#000000;stroke-width:0.5;" width="15" x="1952.0582" y="321.8369"/><rect fill="#FFFFFF" height="2" style="stroke:#000000;stroke-width:0.5;" width="4" x="1950.0582" y="323.8369"/><rect fill="#FFFFFF" height="2" style="stroke:#000000;stroke-width:0.5;" width="4" x="1950.0582" y="327.8369"/><text fill="#000000" font-family="'WenQuanYi Micro Hei'" font-size="14" lengthAdjust="spacing" textLength="62.1182" x="1884.94" y="349.832">plantuml</text></g><!--entity DR--><g class="entity" data-qualified-name=".....DR" data-source-line="48" id="ent0021"><rect fill="#FFFFFF" height="46.2969" rx="2.5" ry="2.5" style="stroke:#000000;stroke-width:0.5;" width="87.127" x="2007.44" y="316.8369"/><rect fill="#FFFFFF" height="10" style="stroke:#000000;stroke-width:0.5;" width="15" x="2074.567" y="321.8369"/><rect fill="#FFFFFF" height="2" style="stroke:#000000;stroke-width:0.5;" width="4" x="2072.567" y="323.8369"/><rect fill="#FFFFFF" height="2" style="stroke:#000000;stroke-width:0.5;" width="4" x="2072.567" y="327.8369"/><text fill="#000000" font-family="'WenQuanYi Micro Hei'" font-size="14" lengthAdjust="spacing" textLength="47.127" x="2022.44" y="349.832">drawio</text></g><!--entity EX--><g class="entity" data-qualified-name=".....EX" data-source-line="49" id="ent0022"><rect fill="#FFFFFF" height="46.2969" rx="2.5" ry="2.5" style="stroke:#000000;stroke-width:0.5;" width="115.626" x="2129.19" y="316.8369"/><rect fill="#FFFFFF" height="10" style="stroke:#000000;stroke-width:0.5;" width="15" x="2224.816" y="321.8369"/><rect fill="#FFFFFF" height="2" style="stroke:#000000;stroke-width:0.5;" width="4" x="2222.816" y="323.8369"/><rect fill="#FFFFFF" height="2" style="stroke:#000000;stroke-width:0.5;" width="4" x="2222.816" y="327.8369"/><text fill="#000000" font-family="'WenQuanYi Micro Hei'" font-size="14" lengthAdjust="spacing" textLength="75.626" x="2144.19" y="349.832">excalidraw</text></g><!--entity CH--><g class="entity" data-qualified-name=".....CH" data-source-line="50" id="ent0023"><rect fill="#FFFFFF" height="46.2969" rx="2.5" ry="2.5" style="stroke:#000000;stroke-width:0.5;" width="168.8916" x="2279.55" y="316.8369"/><rect fill="#FFFFFF" height="10" style="stroke:#000000;stroke-width:0.5;" width="15" x="2428.4416" y="321.8369"/><rect fill="#FFFFFF" height="2" style="stroke:#000000;stroke-width:0.5;" width="4" x="2426.4416" y="323.8369"/><rect fill="#FFFFFF" height="2" style="stroke:#000000;stroke-width:0.5;" width="4" x="2426.4416" y="327.8369"/><text fill="#000000" font-family="'WenQuanYi Micro Hei'" font-size="14" lengthAdjust="spacing" textLength="128.8916" x="2294.55" y="349.832">chart-visualization</text></g><!--entity ORE--><g class="entity" data-qualified-name="......ORE" data-source-line="54" id="ent0025"><rect fill="#FFFFFF" height="46.2969" rx="2.5" ry="2.5" style="stroke:#000000;stroke-width:0.5;" width="272.1621" x="1958.92" y="454.4269"/><rect fill="#FFFFFF" height="10" style="stroke:#000000;stroke-width:0.5;" width="15" x="2211.0821" y="459.4269"/><rect fill="#FFFFFF" height="2" style="stroke:#000000;stroke-width:0.5;" width="4" x="2209.0821" y="461.4269"/><rect fill="#FFFFFF" height="2" style="stroke:#000000;stroke-width:0.5;" width="4" x="2209.0821" y="465.4269"/><text fill="#000000" font-family="'WenQuanYi Micro Hei'" font-size="14" lengthAdjust="spacing" textLength="232.1621" x="1973.92" y="487.422">references/style-guide-oreilly.md</text></g><!--entity SPR--><g class="entity" data-qualified-name="......SPR" data-source-line="55" id="ent0026"><rect fill="#FFFFFF" height="46.2969" rx="2.5" ry="2.5" style="stroke:#000000;stroke-width:0.5;" width="287.2285" x="2266.39" y="454.4269"/><rect fill="#FFFFFF" height="10" style="stroke:#000000;stroke-width:0.5;" width="15" x="2533.6185" y="459.4269"/><rect fill="#FFFFFF" height="2" style="stroke:#000000;stroke-width:0.5;" width="4" x="2531.6185" y="461.4269"/><rect fill="#FFFFFF" height="2" style="stroke:#000000;stroke-width:0.5;" width="4" x="2531.6185" y="465.4269"/><text fill="#000000" font-family="'WenQuanYi Micro Hei'" font-size="14" lengthAdjust="spacing" textLength="247.2285" x="2281.39" y="487.422">references/style-guide-springer.md</text></g><!--entity TPL--><g class="entity" data-qualified-name="......TPL" data-source-line="56" id="ent0027"><rect fill="#FFFFFF" height="62.5938" rx="2.5" ry="2.5" style="stroke:#000000;stroke-width:0.5;" width="197.4043" x="1726.3" y="446.2869"/><rect fill="#FFFFFF" height="10" style="stroke:#000000;stroke-width:0.5;" width="15" x="1903.7043" y="451.2869"/><rect fill="#FFFFFF" height="2" style="stroke:#000000;stroke-width:0.5;" width="4" x="1901.7043" y="453.2869"/><rect fill="#FFFFFF" height="2" style="stroke:#000000;stroke-width:0.5;" width="4" x="1901.7043" y="457.2869"/><text fill="#000000" font-family="'WenQuanYi Micro Hei'" font-size="14" lengthAdjust="spacing" textLength="153.0566" x="1741.3" y="479.282">assets/template-mdx/</text><text fill="#000000" font-family="'WenQuanYi Micro Hei'" font-size="14" lengthAdjust="spacing" textLength="157.4043" x="1741.3" y="495.5789">chapter-template.mdx</text></g><!--entity NXT--><g class="entity" data-qualified-name="......NXT" data-source-line="57" id="ent0028"><rect fill="#FFFFFF" height="46.2969" rx="2.5" ry="2.5" style="stroke:#000000;stroke-width:0.5;" width="207.8428" x="2880.08" y="454.4269"/><rect fill="#FFFFFF" height="10" style="stroke:#000000;stroke-width:0.5;" width="15" x="3067.9228" y="459.4269"/><rect fill="#FFFFFF" height="2" style="stroke:#000000;stroke-width:0.5;" width="4" x="3065.9228" y="461.4269"/><rect fill="#FFFFFF" height="2" style="stroke:#000000;stroke-width:0.5;" width="4" x="3065.9228" y="465.4269"/><text fill="#000000" font-family="'WenQuanYi Micro Hei'" font-size="14" lengthAdjust="spacing" textLength="167.8428" x="2895.08" y="487.422">assets/nextra-template/</text></g><!--entity CSS--><g class="entity" data-qualified-name="......CSS" data-source-line="58" id="ent0029"><rect fill="#FFFFFF" height="46.2969" rx="2.5" ry="2.5" style="stroke:#000000;stroke-width:0.5;" width="256.1182" x="2588.94" y="454.4269"/><rect fill="#FFFFFF" height="10" style="stroke:#000000;stroke-width:0.5;" width="15" x="2825.0582" y="459.4269"/><rect fill="#FFFFFF" height="2" style="stroke:#000000;stroke-width:0.5;" width="4" x="2823.0582" y="461.4269"/><rect fill="#FFFFFF" height="2" style="stroke:#000000;stroke-width:0.5;" width="4" x="2823.0582" y="465.4269"/><text fill="#000000" font-family="'WenQuanYi Micro Hei'" font-size="14" lengthAdjust="spacing" textLength="216.1182" x="2603.94" y="487.422">assets/stylesheet.template.css</text></g><!--entity MDX--><g class="entity" data-qualified-name=".....MDX" data-source-line="62" id="ent0031"><path d="M3317,456.7869 C3317,446.7869 3368.9998,446.7869 3368.9998,446.7869 C3368.9998,446.7869 3420.9996,446.7869 3420.9996,456.7869 L3420.9996,498.3806 C3420.9996,508.3806 3368.9998,508.3806 3368.9998,508.3806 C3368.9998,508.3806 3317,508.3806 3317,498.3806 L3317,456.7869" fill="#FFFFFF" style="stroke:#000000;stroke-width:0.5;"/><path d="M3317,456.7869 C3317,466.7869 3368.9998,466.7869 3368.9998,466.7869 C3368.9998,466.7869 3420.9996,466.7869 3420.9996,456.7869" fill="none" style="stroke:#000000;stroke-width:0.5;"/><text fill="#000000" font-family="'WenQuanYi Micro Hei'" font-size="14" lengthAdjust="spacing" textLength="32.4502" x="3327" y="483.782">MDX</text><text fill="#000000" font-family="'WenQuanYi Micro Hei'" font-size="14" lengthAdjust="spacing" textLength="83.9996" x="3327" y="500.0789">&#31456;&#33410;&#21270;&#28304;&#26684;&#24335;</text></g><!--entity PDF--><g class="entity" data-qualified-name=".....PDF" data-source-line="63" id="ent0032"><path d="M3580.99,456.7869 C3580.99,446.7869 3634.9998,446.7869 3634.9998,446.7869 C3634.9998,446.7869 3689.0095,446.7869 3689.0095,456.7869 L3689.0095,498.3806 C3689.0095,508.3806 3634.9998,508.3806 3634.9998,508.3806 C3634.9998,508.3806 3580.99,508.3806 3580.99,498.3806 L3580.99,456.7869" fill="#FFFFFF" style="stroke:#000000;stroke-width:0.5;"/><path d="M3580.99,456.7869 C3580.99,466.7869 3634.9998,466.7869 3634.9998,466.7869 C3634.9998,466.7869 3689.0095,466.7869 3689.0095,456.7869" fill="none" style="stroke:#000000;stroke-width:0.5;"/><text fill="#000000" font-family="'WenQuanYi Micro Hei'" font-size="14" lengthAdjust="spacing" textLength="88.0195" x="3590.99" y="483.782">ElegantBook</text><text fill="#000000" font-family="'WenQuanYi Micro Hei'" font-size="14" lengthAdjust="spacing" textLength="27.2754" x="3590.99" y="500.0789">PDF</text></g><!--entity WEB--><g class="entity" data-qualified-name=".....WEB" data-source-line="64" id="ent0033"><path d="M3153.3009,454.4822 C3156.2575,448.2411 3161.9429,449.4002 3164.9232,454.4579 C3168.3857,449.1519 3173.5757,448.841 3177.0117,454.487 C3180.0261,447.1897 3186.6005,446.9272 3190.3116,453.8346 C3193.8982,447.8735 3197.3691,447.5398 3201.3434,453.4752 C3205.4227,447.6934 3210.3091,447.4957 3214.338,453.5306 C3218.1572,449.1176 3222.1428,447.9794 3225.6143,453.9098 C3229.1495,447.5931 3234.9297,448.8514 3238.1462,454.2507 C3241.4407,448.2391 3246.551,448.0219 3250.1572,453.9367 C3255.2715,448.5102 3259.1293,448.9227 3262.9988,455.2919 C3266.3795,450.063 3271.9711,450.7173 3274.6309,456.0833 C3279.5305,458.4558 3280.102,462.4365 3276.1335,466.1346 C3281.7493,469.1267 3282.0502,474.4528 3276.8489,478.0921 C3283.1305,482.4807 3282.7262,486.4238 3276.1825,490.1008 C3281.3663,495.444 3280.5751,499.3008 3273.9015,502.4546 C3271.6192,507.4504 3266.7909,507.4927 3263.5191,503.612 C3259.2001,509.647 3255.4529,508.8084 3251.0977,503.6522 C3247.2715,509.48 3242.2697,510.411 3238.0723,504.0488 C3235.6969,509.6562 3229.953,512.2878 3225.5442,506.2331 C3222.755,512.2863 3219.0182,513.2019 3214.5985,507.7896 C3210.0524,513.5433 3204.9218,513.3247 3202.2027,506.0511 C3198.2422,513.0807 3193.1984,511.6497 3189.2263,506.0631 C3185.2589,511.6361 3179.794,511.2316 3176.92,504.93 C3172.8136,508.6638 3169.0382,508.5047 3166.3766,503.2376 C3162.0415,508.7731 3155.6529,508.7744 3152.7409,501.6989 C3145.5845,499.2971 3145.5492,494.4692 3150.1122,489.5348 C3144.4527,487.5009 3143.0914,483.9604 3146.6123,478.9041 C3142.5027,474.6382 3143.4683,468.798 3149.808,467.4467 C3144.1964,461.1933 3146.1947,457.3092 3153.3009,454.4822" fill="#FFFFFF" style="stroke:#000000;stroke-width:0.5;"/><text fill="#000000" font-family="'WenQuanYi Micro Hei'" font-size="14" lengthAdjust="spacing" textLength="79.6454" x="3159.36" y="474.282">Nextra &#32593;&#31449;</text><text fill="#000000" font-family="'WenQuanYi Micro Hei'" font-size="14" lengthAdjust="spacing" textLength="107.2832" x="3159.36" y="490.5789">Vercel / Docker</text></g><!--entity EOUT--><g class="entity" data-qualified-name=".....EOUT" data-source-line="65" id="ent0034"><path d="M3456.21,464.9269 C3456.21,454.9269 3501.0049,454.9269 3501.0049,454.9269 C3501.0049,454.9269 3545.7997,454.9269 3545.7997,464.9269 L3545.7997,490.2238 C3545.7997,500.2238 3501.0049,500.2238 3501.0049,500.2238 C3501.0049,500.2238 3456.21,500.2238 3456.21,490.2238 L3456.21,464.9269" fill="#FFFFFF" style="stroke:#000000;stroke-width:0.5;"/><path d="M3456.21,464.9269 C3456.21,474.9269 3501.0049,474.9269 3501.0049,474.9269 C3501.0049,474.9269 3545.7997,474.9269 3545.7997,464.9269" fill="none" style="stroke:#000000;stroke-width:0.5;"/><text fill="#000000" font-family="'WenQuanYi Micro Hei'" font-size="14" lengthAdjust="spacing" textLength="69.5897" x="3466.21" y="491.922">&#20248;&#21270; EPUB</text></g><!--entity ??--><g class="entity" data-qualified-name=".." data-source-line="21" id="ent0001"><ellipse cx="523.9999" cy="51.2969" fill="#FFFFFF" rx="8" ry="8" style="stroke:#000000;stroke-width:0.5;"/><path d="M523.9999,59.2969 L523.9999,86.2969 M510.9999,67.2969 L536.9999,67.2969 M523.9999,86.2969 L510.9999,101.2969 M523.9999,86.2969 L536.9999,101.2969" fill="none" style="stroke:#000000;stroke-width:0.5;"/><text fill="#000000" font-family="'WenQuanYi Micro Hei'" font-size="14" lengthAdjust="spacing" textLength="27.9999" x="510" y="115.792">&#29992;&#25143;</text></g><!--link ?? to ORCH--><g class="link" data-entity-1="ent0001" data-entity-2="ent0003" data-link-type="dependency" data-source-line="68" id="lnk35"><path d="M524,119.3969 C524,140.3769 524,161.2069 524,180.9269" fill="none" id="&#29992;&#25143;-to-ORCH" style="stroke:#000000;stroke-width:0.75;"/><polygon fill="#000000" points="524,185.9269,528,176.9269,524,180.9269,520,176.9269,524,185.9269" style="stroke:#000000;stroke-width:0.75;stroke-linejoin:miter;stroke-miterlimit:10;"/></g><!--link ORCH to BR--><g class="link" data-entity-1="ent0003" data-entity-2="ent0014" data-link-type="dependency" data-source-line="69" id="lnk36"><path d="M576.85,243.5269 C582.55,245.5469 588.33,247.3369 594,248.6869 C714.83,277.5769 754.85,227.2969 873,265.6869 C901.15,274.8369 925.1915,289.5653 946.5615,305.2753" fill="none" id="ORCH-to-BR" style="stroke:#000000;stroke-width:0.75;"/><polygon fill="#000000" points="950.59,308.2369,945.7079,299.6832,946.5615,305.2753,940.9694,306.1289,950.59,308.2369" style="stroke:#000000;stroke-width:0.75;stroke-linejoin:miter;stroke-miterlimit:10;"/></g><!--link ORCH to WF--><g class="link" data-entity-1="ent0003" data-entity-2="ent0015" data-link-type="dependency" data-source-line="70" id="lnk37"><path d="M576.81,243.6769 C582.52,245.6769 588.32,247.4069 594,248.6869 C702.47,273.0869 987.56,233.5769 1094,265.6869 C1128.38,276.0669 1158.8032,295.9061 1181.7132,313.3661" fill="none" id="ORCH-to-WF" style="stroke:#000000;stroke-width:0.75;"/><polygon fill="#000000" points="1185.69,316.3969,1180.9564,307.7601,1181.7132,313.3661,1176.1072,314.123,1185.69,316.3969" style="stroke:#000000;stroke-width:0.75;stroke-linejoin:miter;stroke-miterlimit:10;"/></g><!--link ORCH to ARX--><g class="link" data-entity-1="ent0003" data-entity-2="ent0016" data-link-type="dependency" data-source-line="71" id="lnk38"><path d="M576.8,243.7469 C582.51,245.7269 588.31,247.4469 594,248.6869 C674.12,266.2469 1254.16,239.8269 1332,265.6869 C1358.24,274.4069 1379.7793,289.0835 1398.7693,305.0135" fill="none" id="ORCH-to-ARX" style="stroke:#000000;stroke-width:0.75;"/><polygon fill="#000000" points="1402.6,308.2269,1398.2755,299.3782,1398.7693,305.0135,1393.1341,305.5073,1402.6,308.2269" style="stroke:#000000;stroke-width:0.75;stroke-linejoin:miter;stroke-miterlimit:10;"/></g><!--link ORCH to D2X--><g class="link" data-entity-1="ent0003" data-entity-2="ent0017" data-link-type="dependency" data-source-line="72" id="lnk39"><path d="M576.79,243.7769 C582.5,245.7569 588.31,247.4569 594,248.6869 C645.26,259.7869 1490.04,244.4569 1538,265.6869 C1558.14,274.6069 1572.1396,288.5198 1584.2396,304.3998" fill="none" id="ORCH-to-D2X" style="stroke:#000000;stroke-width:0.75;"/><polygon fill="#000000" points="1587.27,308.3769,1584.997,298.7939,1584.2396,304.3998,1578.6337,303.6425,1587.27,308.3769" style="stroke:#000000;stroke-width:0.75;stroke-linejoin:miter;stroke-miterlimit:10;"/></g><!--link ORCH to GH--><g class="link" data-entity-1="ent0003" data-entity-2="ent0018" data-link-type="dependency" data-source-line="73" id="lnk40"><path d="M576.79,243.7869 C582.5,245.7669 588.3,247.4669 594,248.6869 C652.77,261.3469 1620.28,243.1069 1676,265.6869 C1697.7,274.4869 1713.6338,288.6172 1727.5738,304.5172" fill="none" id="ORCH-to-GH" style="stroke:#000000;stroke-width:0.75;"/><polygon fill="#000000" points="1730.87,308.2769,1727.9446,298.8725,1727.5738,304.5172,1721.9291,304.1465,1730.87,308.2769" style="stroke:#000000;stroke-width:0.75;stroke-linejoin:miter;stroke-miterlimit:10;"/></g><!--link ORCH to PCL--><g class="link" data-entity-1="ent0003" data-entity-2="ent0010" data-link-type="dependency" data-source-line="74" id="lnk41"><path d="M576.78,243.8369 C582.49,245.8069 588.3,247.4869 594,248.6869 C732.41,277.8369 3002.56,232.2369 3140,265.6869 C3174.62,274.1169 3206.028,289.6689 3233.228,305.7789" fill="none" id="ORCH-to-PCL" style="stroke:#000000;stroke-width:0.75;"/><polygon fill="#000000" points="3237.53,308.3269,3231.8247,300.2988,3233.228,305.7789,3227.7479,307.1821,3237.53,308.3269" style="stroke:#000000;stroke-width:0.75;stroke-linejoin:miter;stroke-miterlimit:10;"/></g><!--link ORCH to L2N--><g class="link" data-entity-1="ent0003" data-entity-2="ent0011" data-link-type="dependency" data-source-line="75" id="lnk42"><path d="M576.78,243.8369 C582.49,245.7969 588.3,247.4869 594,248.6869 C716.85,274.6169 2732.06,235.7769 2854,265.6869 C2888.41,274.1269 2919.5755,289.6761 2946.5755,305.7761" fill="none" id="ORCH-to-L2N" style="stroke:#000000;stroke-width:0.75;"/><polygon fill="#000000" points="2950.87,308.3369,2945.1886,300.2919,2946.5755,305.7761,2941.0913,307.1631,2950.87,308.3369" style="stroke:#000000;stroke-width:0.75;stroke-linejoin:miter;stroke-miterlimit:10;"/></g><!--link ORCH to ERO--><g class="link" data-entity-1="ent0003" data-entity-2="ent0012" data-link-type="dependency" data-source-line="76" id="lnk43"><path d="M576.78,243.8269 C582.49,245.7969 588.3,247.4869 594,248.6869 C702.93,271.7369 2490.29,237.4869 2598,265.6869 C2630.39,274.1669 2659.1745,289.5724 2684.1945,305.6624" fill="none" id="ORCH-to-ERO" style="stroke:#000000;stroke-width:0.75;"/><polygon fill="#000000" points="2688.4,308.3669,2682.9938,300.1345,2684.1945,305.6624,2678.6666,306.8632,2688.4,308.3669" style="stroke:#000000;stroke-width:0.75;stroke-linejoin:miter;stroke-miterlimit:10;"/></g><!--link ORCH to PU--><g class="link" data-entity-1="ent0003" data-entity-2="ent0020" data-link-type="dependency" data-source-line="77" id="lnk44"><path d="M576.79,243.7969 C582.5,245.7769 588.3,247.4669 594,248.6869 C661.15,263.0769 1765.39,242.4069 1830,265.6869 C1858.44,275.9369 1881.1328,295.4843 1898.0328,313.0443" fill="none" id="ORCH-to-PU" style="stroke:#000000;stroke-width:0.75;"/><polygon fill="#000000" points="1901.5,316.6469,1898.1411,307.3885,1898.0328,313.0443,1892.377,312.936,1901.5,316.6469" style="stroke:#000000;stroke-width:0.75;stroke-linejoin:miter;stroke-miterlimit:10;"/></g><!--link ORCH to DR--><g class="link" data-entity-1="ent0003" data-entity-2="ent0021" data-link-type="dependency" data-source-line="78" id="lnk45"><path d="M576.78,243.8069 C582.49,245.7769 588.3,247.4769 594,248.6869 C669.85,264.8869 1919.97,232.3369 1990,265.6869 C2012.12,276.2269 2026.495,294.779 2036.845,312.189" fill="none" id="ORCH-to-DR" style="stroke:#000000;stroke-width:0.75;"/><polygon fill="#000000" points="2039.4,316.4869,2038.2393,306.7067,2036.845,312.189,2031.3626,310.7947,2039.4,316.4869" style="stroke:#000000;stroke-width:0.75;stroke-linejoin:miter;stroke-miterlimit:10;"/></g><!--link ORCH to EX--><g class="link" data-entity-1="ent0003" data-entity-2="ent0022" data-link-type="dependency" data-source-line="79" id="lnk46"><path d="M576.78,243.8169 C582.49,245.7869 588.3,247.4769 594,248.6869 C676.49,266.2569 2034.08,233.4269 2112,265.6869 C2136.9,275.9969 2155.0212,294.9239 2168.4612,312.3939" fill="none" id="ORCH-to-EX" style="stroke:#000000;stroke-width:0.75;"/><polygon fill="#000000" points="2171.51,316.3569,2169.1926,306.7845,2168.4612,312.3939,2162.8518,311.6626,2171.51,316.3569" style="stroke:#000000;stroke-width:0.75;stroke-linejoin:miter;stroke-miterlimit:10;"/></g><!--link ORCH to CH--><g class="link" data-entity-1="ent0003" data-entity-2="ent0023" data-link-type="dependency" data-source-line="80" id="lnk47"><path d="M576.78,243.8169 C582.49,245.7869 588.3,247.4769 594,248.6869 C684.65,267.9469 2173.94,236.8369 2262,265.6869 C2292.88,275.8069 2318.669,295.604 2337.929,313.204" fill="none" id="ORCH-to-CH" style="stroke:#000000;stroke-width:0.75;"/><polygon fill="#000000" points="2341.62,316.5769,2337.6745,307.5529,2337.929,313.204,2332.2779,313.4585,2341.62,316.5769" style="stroke:#000000;stroke-width:0.75;stroke-linejoin:miter;stroke-miterlimit:10;"/></g><!--link ORCH to ORE--><g class="link" data-entity-1="ent0003" data-entity-2="ent0025" data-link-type="dependency" data-source-line="81" id="lnk48"><path d="M576.78,243.8269 C582.49,245.7969 588.3,247.4769 594,248.6869 C619.41,254.0769 2445.72,247.2369 2464,265.6869 C2504.54,306.5969 2503.96,353.8069 2464,395.2869 C2455.71,403.8869 2260.61,400.4369 2249,403.2869 C2206.44,413.7269 2165.9519,434.1 2135.7119,451.53" fill="none" id="ORCH-to-ORE" style="stroke:#000000;stroke-width:0.75;"/><polygon fill="#000000" points="2131.38,454.0269,2141.175,452.998,2135.7119,451.53,2137.18,446.067,2131.38,454.0269" style="stroke:#000000;stroke-width:0.75;stroke-linejoin:miter;stroke-miterlimit:10;"/></g><!--link ORCH to SPR--><g class="link" data-entity-1="ent0003" data-entity-2="ent0026" data-link-type="dependency" data-source-line="82" id="lnk49"><path d="M576.78,243.8269 C582.49,245.7969 588.3,247.4869 594,248.6869 C619.97,254.1869 2486.32,246.8369 2505,265.6869 C2545.55,306.5969 2529.09,342.9669 2505,395.2869 C2493.56,420.1269 2474.5069,437.3987 2453.8969,451.3887" fill="none" id="ORCH-to-SPR" style="stroke:#000000;stroke-width:0.75;"/><polygon fill="#000000" points="2449.76,454.1969,2459.453,452.4518,2453.8969,451.3887,2454.96,445.8327,2449.76,454.1969" style="stroke:#000000;stroke-width:0.75;stroke-linejoin:miter;stroke-miterlimit:10;"/></g><!--link ORCH to TPL--><g class="link" data-entity-1="ent0003" data-entity-2="ent0027" data-link-type="dependency" data-source-line="83" id="lnk50"><path d="M576.87,243.4269 C582.57,245.4669 588.35,247.2869 594,248.6869 C640.95,260.3469 770.22,239.6669 811,265.6869 C866.73,301.2469 828.42,359.4969 884,395.2869 C953.58,440.0769 1493.5834,464.5912 1720.9334,473.0412" fill="none" id="ORCH-to-TPL" style="stroke:#000000;stroke-width:0.75;"/><polygon fill="#000000" points="1725.93,473.2269,1717.0848,468.8954,1720.9334,473.0412,1716.7876,476.8898,1725.93,473.2269" style="stroke:#000000;stroke-width:0.75;stroke-linejoin:miter;stroke-miterlimit:10;"/></g><!--link PCL to NXT--><g class="link" data-entity-1="ent0010" data-entity-2="ent0028" data-link-type="dependency" data-source-line="84" id="lnk51"><path d="M3202.85,371.7769 C3178.58,381.4169 3152.04,392.3869 3128,403.2869 C3092.99,419.1469 3058.6307,436.6808 3030.1507,451.7308" fill="none" id="PCL-to-NXT" style="stroke:#000000;stroke-width:0.75;"/><polygon fill="#000000" points="3025.73,454.0669,3035.5562,453.3985,3030.1507,451.7308,3031.8184,446.3253,3025.73,454.0669" style="stroke:#000000;stroke-width:0.75;stroke-linejoin:miter;stroke-miterlimit:10;"/></g><!--link ERO to CSS--><g class="link" data-entity-1="ent0012" data-entity-2="ent0029" data-link-type="dependency" data-source-line="85" id="lnk52"><path d="M2727.82,371.7569 C2725.24,396.7569 2722.1728,426.4832 2719.8528,448.9832" fill="none" id="ERO-to-CSS" style="stroke:#000000;stroke-width:0.75;"/><polygon fill="#000000" points="2719.34,453.9569,2724.242,445.4146,2719.8528,448.9832,2716.2842,444.5941,2719.34,453.9569" style="stroke:#000000;stroke-width:0.75;stroke-linejoin:miter;stroke-miterlimit:10;"/></g><!--link PCL to M2T--><g class="link" data-entity-1="ent0010" data-entity-2="ent0004" data-link-type="dependency" data-source-line="86" id="lnk53"><path d="M3237.16,308.3069 C3209.99,292.2969 3174.43,274.2969 3140,265.6869 C3024.38,236.7669 1229.5199,222.1529 799.6799,219.0529" fill="none" id="PCL-to-M2T" style="stroke:#000000;stroke-width:0.75;"/><polygon fill="#000000" points="794.68,219.0169,803.6509,223.0817,799.6799,219.0529,803.7086,215.0819,794.68,219.0169" style="stroke:#000000;stroke-width:0.75;stroke-linejoin:miter;stroke-miterlimit:10;"/></g><!--link L2N to NXT--><g class="link" data-entity-1="ent0011" data-entity-2="ent0028" data-link-type="dependency" data-source-line="87" id="lnk54"><path d="M2994.05,371.7569 C2991.65,396.7569 2988.8078,426.4798 2986.6478,448.9798" fill="none" id="L2N-to-NXT" style="stroke:#000000;stroke-width:0.75;"/><polygon fill="#000000" points="2986.17,453.9569,2991.0117,445.3803,2986.6478,448.9798,2983.0484,444.6158,2986.17,453.9569" style="stroke:#000000;stroke-width:0.75;stroke-linejoin:miter;stroke-miterlimit:10;"/></g><!--link ERO to EPUB--><g class="link" data-entity-1="ent0012" data-entity-2="ent0005" data-link-type="dependency" data-source-line="88" id="lnk55"><path d="M2641.69,308.2169 C2590.39,292.1369 2524.35,274.0869 2464,265.6869 C2242.79,234.9269 675.37,278.3169 454,248.6869 C448.37,247.9369 447.5449,247.9152 441.7649,246.8352" fill="none" id="ERO-to-EPUB" style="stroke:#000000;stroke-width:0.75;"/><polygon fill="#000000" points="436.85,245.9169,444.9622,251.5019,441.7649,246.8352,446.4316,243.638,436.85,245.9169" style="stroke:#000000;stroke-width:0.75;stroke-linejoin:miter;stroke-miterlimit:10;"/></g><!--link EPUB to FONT--><g class="link" data-entity-1="ent0005" data-entity-2="ent0006" data-link-type="dependency" data-source-line="89" id="lnk56"><path d="M368.83,249.1369 C386.43,267.2769 405.1473,286.5793 422.7473,304.7093" fill="none" id="EPUB-to-FONT" style="stroke:#000000;stroke-width:0.75;"/><polygon fill="#000000" points="426.23,308.2969,422.8312,299.0531,422.7473,304.7093,417.0911,304.6254,426.23,308.2969" style="stroke:#000000;stroke-width:0.75;stroke-linejoin:miter;stroke-miterlimit:10;"/></g><!--link EPUB to FORMULA--><g class="link" data-entity-1="ent0005" data-entity-2="ent0008" data-link-type="dependency" data-source-line="90" id="lnk57"><path d="M295.92,249.1369 C270.49,267.2769 242.4907,287.2636 217.0707,305.3936" fill="none" id="EPUB-to-FORMULA" style="stroke:#000000;stroke-width:0.75;"/><polygon fill="#000000" points="213,308.2969,222.6499,306.3275,217.0707,305.3936,218.0047,299.8143,213,308.2969" style="stroke:#000000;stroke-width:0.75;stroke-linejoin:miter;stroke-miterlimit:10;"/></g><!--link ORCH to WC--><g class="link" data-entity-1="ent0003" data-entity-2="ent0007" data-link-type="dependency" data-source-line="91" id="lnk58"><path d="M567.34,249.1369 C592.91,267.2769 621.1018,287.2741 646.6618,305.4041" fill="none" id="ORCH-to-WC" style="stroke:#000000;stroke-width:0.75;"/><polygon fill="#000000" points="650.74,308.2969,645.7134,299.8273,646.6618,305.4041,641.085,306.3525,650.74,308.2969" style="stroke:#000000;stroke-width:0.75;stroke-linejoin:miter;stroke-miterlimit:10;"/></g><!--link M2T to PDF--><g class="link" data-entity-1="ent0004" data-entity-2="ent0032" data-link-type="dependency" data-source-line="92" id="lnk59"><path d="M794.38,218.6969 C1271.18,220.4369 3454.11,230.3269 3514,265.6869 C3581.43,305.4969 3613.3473,393.525 3626.5473,441.645" fill="none" id="M2T-to-PDF" style="stroke:#000000;stroke-width:0.75;"/><polygon fill="#000000" points="3627.87,446.4669,3629.3466,436.7293,3626.5473,441.645,3621.6316,438.8457,3627.87,446.4669" style="stroke:#000000;stroke-width:0.75;stroke-linejoin:miter;stroke-miterlimit:10;"/></g><!--link PCL to MDX--><g class="link" data-entity-1="ent0010" data-entity-2="ent0031" data-link-type="dependency" data-source-line="93" id="lnk60"><path d="M3303.29,371.7569 C3317.3,394.0969 3333.5047,419.9502 3347.4247,442.1602" fill="none" id="PCL-to-MDX" style="stroke:#000000;stroke-width:0.75;"/><polygon fill="#000000" points="3350.08,446.3969,3348.6898,436.6466,3347.4247,442.1602,3341.9111,440.8951,3350.08,446.3969" style="stroke:#000000;stroke-width:0.75;stroke-linejoin:miter;stroke-miterlimit:10;"/></g><!--link L2N to WEB--><g class="link" data-entity-1="ent0011" data-entity-2="ent0033" data-link-type="dependency" data-source-line="94" id="lnk61"><path d="M3051.29,371.6869 C3068.31,381.5469 3087.06,392.6669 3104,403.2869 C3125.55,416.7769 3144.8672,429.6127 3164.4872,442.9727" fill="none" id="L2N-to-WEB" style="stroke:#000000;stroke-width:0.75;"/><polygon fill="#000000" points="3168.62,445.7869,3163.4323,437.4151,3164.4872,442.9727,3158.9295,444.0276,3168.62,445.7869" style="stroke:#000000;stroke-width:0.75;stroke-linejoin:miter;stroke-miterlimit:10;"/></g><!--link EPUB to EOUT--><g class="link" data-entity-1="ent0005" data-entity-2="ent0034" data-link-type="dependency" data-source-line="95" id="lnk62"><path d="M436.85,245.9369 C442.62,247.0069 448.37,247.9469 454,248.6869 C494.92,254.1069 3392.34,241.7969 3426,265.6869 C3488.1,309.7869 3498.8749,404.9807 3500.6149,449.5307" fill="none" id="EPUB-to-EOUT" style="stroke:#000000;stroke-width:0.75;"/><polygon fill="#000000" points="3500.81,454.5269,3504.4557,445.3776,3500.6149,449.5307,3496.4618,445.6898,3500.81,454.5269" style="stroke:#000000;stroke-width:0.75;stroke-linejoin:miter;stroke-miterlimit:10;"/></g><?plantuml-src ZLLRRnj557xthnYPvush80HFI8al2S99Z2zD4EPXl3knfzwTMStC9cuHBrLQjwWfXK0WH40Z5P6gD2eFa2fEqZ_ZjPD_mPbPUxCMuDJoPSwUxtndpjMoJPcF1VQGnnctMu9x12aHa9ICDRA57Rv9MHEjOrScDGrijvk21yp9SfSBz4x1l188XwpZm5K5pjG8SiEy_XkoZC5xUfMmJmBCFgLeYTg2eqL2qmdydAsucB_MSmJZmY7Y_pndkUTpHfYwdkqAEfMn14IuIQxd6mEdikMmmWqitu8kHawFr-M1ynQn6jXKfZaX-EPKPRL5xJOZKg8RC--_bqefgbo2RCxR3VXOwrmq2HhsjlgzlmU_m7ihbSAwOcZutU7WmN4gvKSPGkdXwUxWyRVXdtVhRD8yZRv88VHPvUEFYiKPpwcp23burEttddsEi4GhvUoYXaXRK5_9ZETqPXNfp7YtP9qjvTQGzI4guYfPC-YbsMeIt0YewrZ43neJ-7ofDc_W-f34ow0XYOAhCIKZY_3b3_spdV3baylz--6ZNMDLM5cUyB89URPiA8UARGRVlnhsVhquEZ06gzaadFkAUlGEqHdm0XTRr8CaZVtT-oCy_JhSFny-xFRV78NFjaSkoqkrubpgoqHIGGU97lwqXIfjwhfob4jVy5l4LbQSQ1T3lkhiug-jmUxUyFbn-EeCPT07gF-w2pU5OzubJQp7WhUDirAsg8cCdQMunKX72Mn9gaYTBHi1RRmBXZbkjuc0Gya5-zfIqPWNPvUrkSww9GY65hJ68OiworOgwBAx7TxV0xiek_fWmau4d2-lJ0GB2Hri7rrskxeEnx-5zuv7uOAMAQi1xIerVMQ3Rc3NeHOE5FUmefmPllco1g-IHe4ekmKUuLWXMDYjg485moKwTCFQn80mN3Pd35997Cl7FX7IGEVAQnhhS7ksOzakhRDIhe1MicMZpSqQRRCLgHQeMWmQgD_R2Kzs361XSRA8--SN1uSJ4VawcO7dHhMe6MS2Rr8UEJ21a8wDNQeVHzaoJkqM5ihQe380tPshsBEJBWU71uEVt_HVFzOTSV9av5MGTI88imbCWRhj4giPK8TON13ehTimcwDfp4y1Ir_0NmmHOtIbP2wB9GoLp2ZY-RgdB1ZX32o25lOLzCRuCHXrZ5MrL4nOZPflZCeOoF9QDG4nLv0jGjHCJ6RBg5hGRXF1NvplXDsJ_idlmuVFeyYTqTv5QTWEi81UFBtuwYwCEgHcyFGKkZ9j5ajkRGARc1dJ00O4lm2ozUv5wT6W3C--6RxOgxERHDZ4ZOV6u5VpynEa_TCVmR7PIaQVNwbLzUsZVOeiM5rc7Uel8q5NnsTeuVYiUpGMT4l6maB2MizvBEYfZGKzVLUmMe8huJ2Ve4rUIlT8BEWMY0LTMN1gphg4u2QoXYADd-iD3dVv5yQiQlrb9BE24rAq7QzoaKq1JtHxg4dC3KKSS-lSnmGwqVy0?></g></svg>