<svg xmlns="http://www.w3.org/2000/svg" xmlns:xlink="http://www.w3.org/1999/xlink" contentStyleType="text/css" data-diagram-type="DESCRIPTION" height="475px" preserveAspectRatio="none" style="width:2628px;height:475px;background:#FFFFFF;" version="1.1" viewBox="0 0 2628 475" width="2628px" zoomAndPan="magnify"><?plantuml 1.2026.6?><defs/><g><g class="title" data-source-line="14"><text fill="#000000" font-family="sans-serif" font-size="14" font-weight="700" lengthAdjust="spacing" textLength="271.5508" x="1175.1946" y="22.9951">cookbook-forge Use Case Diagram</text></g><!--cluster cookbook-forge--><g class="cluster" data-qualified-name="cookbook-forge" data-source-line="21" id="ent0003"><rect fill="#FFFFFF" height="323" rx="2.5" ry="2.5" style="stroke:#000000;stroke-width:1;" width="2514.81" x="100.13" y="44.2969"/><text fill="#000000" font-family="sans-serif" font-size="14" font-weight="700" lengthAdjust="spacing" textLength="123.3545" x="1295.8578" y="59.292">cookbook-forge</text></g><!--entity UC0--><g class="entity" data-qualified-name="cookbook-forge.UC0" data-source-line="22" id="ent0004"><ellipse cx="217.7038" cy="172.2996" fill="#FFFFFF" rx="101.5638" ry="22.7128" style="stroke:#000000;stroke-width:0.5;"/><text fill="#000000" font-family="sans-serif" font-size="14" lengthAdjust="spacing" textLength="179.498" x="127.9547" y="176.9481">Specify topic and sources</text></g><!--entity UC1--><g class="entity" data-qualified-name="cookbook-forge.UC1" data-source-line="23" id="ent0005"><ellipse cx="579.5153" cy="167.2979" fill="#FFFFFF" rx="135.2553" ry="29.4511" style="stroke:#000000;stroke-width:0.5;"/><text fill="#000000" font-family="sans-serif" font-size="14" lengthAdjust="spacing" textLength="210.1777" x="474.4264" y="164.0352">Collect multi-source materials</text><text fill="#000000" font-family="sans-serif" font-size="14" lengthAdjust="spacing" textLength="206.4658" x="476.2824" y="180.3321">(web/GitHub/arxiv/PDF/EPUB)</text></g><!--entity UC2--><g class="entity" data-qualified-name="cookbook-forge.UC2" data-source-line="24" id="ent0006"><ellipse cx="964.108" cy="168.2945" fill="#FFFFFF" rx="124.338" ry="27.2676" style="stroke:#000000;stroke-width:0.5;"/><text fill="#000000" font-family="sans-serif" font-size="14" lengthAdjust="spacing" textLength="228.5869" x="849.8146" y="172.9429">Generate big picture and outline</text></g><!--entity UC3--><g class="entity" data-qualified-name="cookbook-forge.UC3" data-source-line="25" id="ent0007"><ellipse cx="1285.3752" cy="219.2939" fill="#FFFFFF" rx="71.9352" ry="16.787" style="stroke:#000000;stroke-width:0.5;"/><text fill="#000000" font-family="sans-serif" font-size="14" lengthAdjust="spacing" textLength="111.2139" x="1229.7682" y="223.9423">Approve outline</text></g><!--entity UC4--><g class="entity" data-qualified-name="cookbook-forge.UC4" data-source-line="26" id="ent0008"><ellipse cx="1563.2384" cy="219.3005" fill="#FFFFFF" rx="80.9184" ry="18.5837" style="stroke:#000000;stroke-width:0.5;"/><text fill="#000000" font-family="sans-serif" font-size="14" lengthAdjust="spacing" textLength="132.8359" x="1496.8204" y="223.949">Write chapter MDX</text></g><!--entity UC5--><g class="entity" data-qualified-name="cookbook-forge.UC5" data-source-line="27" id="ent0009"><ellipse cx="1859.4406" cy="219.293" fill="#FFFFFF" rx="90.2806" ry="20.4561" style="stroke:#000000;stroke-width:0.5;"/><text fill="#000000" font-family="sans-serif" font-size="14" lengthAdjust="spacing" textLength="154.376" x="1782.2527" y="223.9414">Word count validation</text></g><!--entity UC6--><g class="entity" data-qualified-name="cookbook-forge.UC6" data-source-line="28" id="ent0010"><ellipse cx="2182.8251" cy="330.2919" fill="#FFFFFF" rx="91.0251" ry="20.605" style="stroke:#000000;stroke-width:0.5;"/><text fill="#000000" font-family="sans-serif" font-size="14" lengthAdjust="spacing" textLength="156.0576" x="2104.7963" y="334.9403">Emit ElegantBook PDF</text></g><!--entity UC7--><g class="entity" data-qualified-name="cookbook-forge.UC7" data-source-line="29" id="ent0011"><ellipse cx="2182.8335" cy="181.2956" fill="#FFFFFF" rx="84.9435" ry="19.3887" style="stroke:#000000;stroke-width:0.5;"/><text fill="#000000" font-family="sans-serif" font-size="14" lengthAdjust="spacing" textLength="142.1943" x="2111.7363" y="185.944">Emit Nextra website</text></g><!--entity UC8--><g class="entity" data-qualified-name="cookbook-forge.UC8" data-source-line="30" id="ent0012"><ellipse cx="2182.8346" cy="255.2938" fill="#FFFFFF" rx="87.0846" ry="19.8169" style="stroke:#000000;stroke-width:0.5;"/><text fill="#000000" font-family="sans-serif" font-size="14" lengthAdjust="spacing" textLength="147.1094" x="2109.2799" y="259.9422">Emit optimized EPUB</text></g><!--entity UC9--><g class="entity" data-qualified-name="cookbook-forge.UC9" data-source-line="31" id="ent0013"><ellipse cx="2182.8262" cy="103.3001" fill="#FFFFFF" rx="108.1162" ry="24.0232" style="stroke:#000000;stroke-width:0.5;"/><text fill="#000000" font-family="sans-serif" font-size="14" lengthAdjust="spacing" textLength="193.7988" x="2085.9268" y="107.9486">Generate bilingual README</text></g><!--entity UC10--><g class="entity" data-qualified-name="cookbook-forge.UC10" data-source-line="32" id="ent0014"><ellipse cx="2507.4481" cy="216.2965" fill="#FFFFFF" rx="91.4981" ry="20.6996" style="stroke:#000000;stroke-width:0.5;"/><text fill="#000000" font-family="sans-serif" font-size="14" lengthAdjust="spacing" textLength="157.124" x="2428.8861" y="220.9449">Browse website online</text></g><!--entity UC11--><g class="entity" data-qualified-name="cookbook-forge.UC11" data-source-line="33" id="ent0015"><ellipse cx="2507.4537" cy="316.2996" fill="#FFFFFF" rx="89.2637" ry="20.2527" style="stroke:#000000;stroke-width:0.5;"/><text fill="#000000" font-family="sans-serif" font-size="14" lengthAdjust="spacing" textLength="152.0723" x="2431.4175" y="320.948">Download PDF / EPUB</text></g><!--entity Author--><g class="entity" data-qualified-name="Author" data-source-line="18" id="ent0001"><ellipse cx="29.5669" cy="199.6469" fill="#FFFFFF" rx="8" ry="8" style="stroke:#000000;stroke-width:0.5;"/><path d="M29.5669,207.6469 L29.5669,234.6469 M16.5669,215.6469 L42.5669,215.6469 M29.5669,234.6469 L16.5669,249.6469 M29.5669,234.6469 L42.5669,249.6469" fill="none" style="stroke:#000000;stroke-width:0.5;"/><text fill="#000000" font-family="sans-serif" font-size="14" lengthAdjust="spacing" textLength="47.1338" x="6" y="264.142">Author</text></g><!--entity Reader--><g class="entity" data-qualified-name="Reader" data-source-line="19" id="ent0002"><ellipse cx="2182.8279" cy="394.6469" fill="#FFFFFF" rx="8" ry="8" style="stroke:#000000;stroke-width:0.5;"/><path d="M2182.8279,402.6469 L2182.8279,429.6469 M2169.8279,410.6469 L2195.8279,410.6469 M2182.8279,429.6469 L2169.8279,444.6469 M2182.8279,429.6469 L2195.8279,444.6469" fill="none" style="stroke:#000000;stroke-width:0.5;"/><text fill="#000000" font-family="sans-serif" font-size="14" lengthAdjust="spacing" textLength="50.1758" x="2157.74" y="459.142">Reader</text></g><!--link Author to UC0--><g class="link" data-entity-1="ent0001" data-entity-2="ent0004" data-link-type="dependency" data-source-line="36" id="lnk16"><path d="M53.39,222.3069 C78.92,214.4869 116.5292,202.971 151.7292,192.191" fill="none" id="Author-to-UC0" style="stroke:#000000;stroke-width:0.75;"/><polygon fill="#000000" points="156.51,190.7269,146.7332,189.5376,151.7292,192.191,149.0758,197.187,156.51,190.7269" style="stroke:#000000;stroke-width:0.75;stroke-linejoin:miter;stroke-miterlimit:10;"/></g><!--link Author to UC3--><g class="link" data-entity-1="ent0001" data-entity-2="ent0007" data-link-type="dependency" data-source-line="37" id="lnk17"><path d="M53.41,233.3469 C88.42,239.1869 157.55,249.2969 216.7,249.2969 C216.7,249.2969 216.7,249.2969 965.11,249.2969 C1055.58,249.2969 1154.8868,237.8893 1218.9768,229.0593" fill="none" id="Author-to-UC3" style="stroke:#000000;stroke-width:0.75;"/><polygon fill="#000000" points="1223.93,228.3769,1214.4683,225.6427,1218.9768,229.0593,1215.5602,233.5678,1223.93,228.3769" style="stroke:#000000;stroke-width:0.75;stroke-linejoin:miter;stroke-miterlimit:10;"/></g><!--link UC0 to UC1--><g class="link" data-entity-1="ent0004" data-entity-2="ent0005" data-link-type="dependency" data-source-line="38" id="lnk18"><path d="M319.41,170.8969 C358.08,170.3569 397.8505,169.8058 439.1805,169.2358" fill="none" id="UC0-to-UC1" style="stroke:#000000;stroke-width:0.75;stroke-dasharray:7,7;"/><polygon fill="#000000" points="444.18,169.1669,435.1257,165.2914,439.1805,169.2358,435.236,173.2906,444.18,169.1669" style="stroke:#000000;stroke-width:0.75;stroke-linejoin:miter;stroke-miterlimit:10;"/><text fill="#000000" font-family="sans-serif" font-size="13" lengthAdjust="spacing" textLength="63.0068" x="350.26" y="165.7138">&#171;include&#187;</text></g><!--link UC1 to UC2--><g class="link" data-entity-1="ent0005" data-entity-2="ent0006" data-link-type="dependency" data-source-line="39" id="lnk19"><path d="M715.14,167.6469 C755.6,167.7569 794.78,167.853 834.49,167.963" fill="none" id="UC1-to-UC2" style="stroke:#000000;stroke-width:0.75;stroke-dasharray:7,7;"/><polygon fill="#000000" points="839.49,167.9769,830.5011,163.952,834.49,167.963,830.479,171.9519,839.49,167.9769" style="stroke:#000000;stroke-width:0.75;stroke-linejoin:miter;stroke-miterlimit:10;"/><text fill="#000000" font-family="sans-serif" font-size="13" lengthAdjust="spacing" textLength="63.0068" x="745.77" y="163.8038">&#171;include&#187;</text></g><!--link UC2 to UC3--><g class="link" data-entity-1="ent0006" data-entity-2="ent0007" data-link-type="dependency" data-source-line="40" id="lnk20"><path d="M1065.69,184.3669 C1118.15,192.7469 1175.5726,201.9179 1220.2526,209.0579" fill="none" id="UC2-to-UC3" style="stroke:#000000;stroke-width:0.75;stroke-dasharray:7,7;"/><polygon fill="#000000" points="1225.19,209.8469,1216.934,204.4768,1220.2526,209.0579,1215.6716,212.3766,1225.19,209.8469" style="stroke:#000000;stroke-width:0.75;stroke-linejoin:miter;stroke-miterlimit:10;"/><text fill="#000000" font-family="sans-serif" font-size="13" lengthAdjust="spacing" textLength="63.0068" x="1119.45" y="189.8638">&#171;include&#187;</text></g><!--link UC3 to UC4--><g class="link" data-entity-1="ent0007" data-entity-2="ent0008" data-link-type="dependency" data-source-line="41" id="lnk21"><path d="M1357.78,219.2969 C1395.77,219.2969 1437.62,219.2969 1476.89,219.2969" fill="none" id="UC3-to-UC4" style="stroke:#000000;stroke-width:0.75;stroke-dasharray:7,7;"/><polygon fill="#000000" points="1481.89,219.2969,1472.89,215.2969,1476.89,219.2969,1472.89,223.2969,1481.89,219.2969" style="stroke:#000000;stroke-width:0.75;stroke-linejoin:miter;stroke-miterlimit:10;"/><text fill="#000000" font-family="sans-serif" font-size="13" lengthAdjust="spacing" textLength="63.0068" x="1388.32" y="215.3638">&#171;include&#187;</text></g><!--link UC4 to UC5--><g class="link" data-entity-1="ent0008" data-entity-2="ent0009" data-link-type="dependency" data-source-line="42" id="lnk22"><path d="M1644.63,219.2969 C1683.08,219.2969 1724.24,219.2969 1763.82,219.2969" fill="none" id="UC4-to-UC5" style="stroke:#000000;stroke-width:0.75;stroke-dasharray:7,7;"/><polygon fill="#000000" points="1768.82,219.2969,1759.82,215.2969,1763.82,219.2969,1759.82,223.2969,1768.82,219.2969" style="stroke:#000000;stroke-width:0.75;stroke-linejoin:miter;stroke-miterlimit:10;"/><text fill="#000000" font-family="sans-serif" font-size="13" lengthAdjust="spacing" textLength="63.0068" x="1675.15" y="215.3638">&#171;include&#187;</text></g><!--link UC5 to UC6--><g class="link" data-entity-1="ent0009" data-entity-2="ent0010" data-link-type="dependency" data-source-line="43" id="lnk23"><path d="M1895.13,238.4169 C1918.52,250.7369 1950.35,266.4269 1979.72,277.2969 C2023.77,293.6069 2070.109,305.8484 2109.949,315.0784" fill="none" id="UC5-to-UC6" style="stroke:#000000;stroke-width:0.75;stroke-dasharray:7,7;"/><polygon fill="#000000" points="2114.82,316.2069,2106.955,310.2788,2109.949,315.0784,2105.1494,318.0724,2114.82,316.2069" style="stroke:#000000;stroke-width:0.75;stroke-linejoin:miter;stroke-miterlimit:10;"/><text fill="#000000" font-family="sans-serif" font-size="13" lengthAdjust="spacing" textLength="61.1851" x="1981.72" y="273.3638">&#171;extend&#187;</text></g><!--link UC5 to UC7--><g class="link" data-entity-1="ent0009" data-entity-2="ent0011" data-link-type="dependency" data-source-line="44" id="lnk24"><path d="M1940.3,209.8569 C1991.14,203.8469 2051.6245,196.6935 2101.5645,190.7935" fill="none" id="UC5-to-UC7" style="stroke:#000000;stroke-width:0.75;stroke-dasharray:7,7;"/><polygon fill="#000000" points="2106.53,190.2069,2097.1229,187.2904,2101.5645,190.7935,2098.0615,195.2352,2106.53,190.2069" style="stroke:#000000;stroke-width:0.75;stroke-linejoin:miter;stroke-miterlimit:10;"/><text fill="#000000" font-family="sans-serif" font-size="13" lengthAdjust="spacing" textLength="61.1851" x="1981.72" y="194.0938">&#171;extend&#187;</text></g><!--link UC5 to UC8--><g class="link" data-entity-1="ent0009" data-entity-2="ent0012" data-link-type="dependency" data-source-line="45" id="lnk25"><path d="M1919.82,234.9269 C1938.83,239.3369 1960.04,243.6569 1979.72,246.2969 C2017.49,251.3769 2054.5522,253.618 2090.4822,254.688" fill="none" id="UC5-to-UC8" style="stroke:#000000;stroke-width:0.75;stroke-dasharray:7,7;"/><polygon fill="#000000" points="2095.48,254.8369,2086.6031,250.5707,2090.4822,254.688,2086.3649,258.5672,2095.48,254.8369" style="stroke:#000000;stroke-width:0.75;stroke-linejoin:miter;stroke-miterlimit:10;"/><text fill="#000000" font-family="sans-serif" font-size="13" lengthAdjust="spacing" textLength="61.1851" x="1981.72" y="242.3638">&#171;extend&#187;</text></g><!--link UC5 to UC9--><g class="link" data-entity-1="ent0009" data-entity-2="ent0013" data-link-type="dependency" data-source-line="46" id="lnk26"><path d="M1905.89,201.3469 C1928.09,192.6869 1955.22,182.2569 1979.72,173.2969 C2027.32,155.8869 2076.8858,138.7455 2117.2058,125.0455" fill="none" id="UC5-to-UC9" style="stroke:#000000;stroke-width:0.75;stroke-dasharray:7,7;"/><polygon fill="#000000" points="2121.94,123.4369,2112.1316,122.545,2117.2058,125.0455,2114.7053,130.1197,2121.94,123.4369" style="stroke:#000000;stroke-width:0.75;stroke-linejoin:miter;stroke-miterlimit:10;"/><text fill="#000000" font-family="sans-serif" font-size="13" lengthAdjust="spacing" textLength="63.0068" x="1980.72" y="147.5738">&#171;include&#187;</text></g><!--link UC7 to UC10--><g class="link" data-entity-1="ent0011" data-entity-2="ent0014" data-link-type="dependency" data-source-line="47" id="lnk27"><path d="M2260.29,189.5969 C2309.57,194.9369 2368.6592,201.3475 2419.0692,206.8175" fill="none" id="UC7-to-UC10" style="stroke:#000000;stroke-width:0.75;stroke-dasharray:7,7;"/><polygon fill="#000000" points="2424.04,207.3569,2415.524,202.4093,2419.0692,206.8175,2414.661,210.3626,2424.04,207.3569" style="stroke:#000000;stroke-width:0.75;stroke-linejoin:miter;stroke-miterlimit:10;"/><text fill="#000000" font-family="sans-serif" font-size="13" lengthAdjust="spacing" textLength="63.0068" x="2321.95" y="192.7738">&#171;include&#187;</text></g><!--link UC6 to UC11--><g class="link" data-entity-1="ent0010" data-entity-2="ent0015" data-link-type="dependency" data-source-line="48" id="lnk28"><path d="M2272.42,326.4569 C2318.21,324.4669 2368.8947,322.2628 2414.4647,320.2928" fill="none" id="UC6-to-UC11" style="stroke:#000000;stroke-width:0.75;stroke-dasharray:7,7;"/><polygon fill="#000000" points="2419.46,320.0769,2410.2956,316.4693,2414.4647,320.2928,2410.6412,324.4619,2419.46,320.0769" style="stroke:#000000;stroke-width:0.75;stroke-linejoin:miter;stroke-miterlimit:10;"/><text fill="#000000" font-family="sans-serif" font-size="13" lengthAdjust="spacing" textLength="63.0068" x="2321.95" y="317.7038">&#171;include&#187;</text></g><!--link UC8 to UC11--><g class="link" data-entity-1="ent0012" data-entity-2="ent0015" data-link-type="dependency" data-source-line="49" id="lnk29"><path d="M2251.07,268.0069 C2305.73,278.3469 2377.6271,291.9376 2432.7171,302.3576" fill="none" id="UC8-to-UC11" style="stroke:#000000;stroke-width:0.75;stroke-dasharray:7,7;"/><polygon fill="#000000" points="2437.63,303.2869,2429.5302,297.6839,2432.7171,302.3576,2428.0434,305.5445,2437.63,303.2869" style="stroke:#000000;stroke-width:0.75;stroke-linejoin:miter;stroke-miterlimit:10;"/><text fill="#000000" font-family="sans-serif" font-size="13" lengthAdjust="spacing" textLength="63.0068" x="2321.95" y="278.2138">&#171;include&#187;</text></g><!--link Reader to UC10--><g class="link" data-entity-1="ent0002" data-entity-2="ent0014" data-link-type="dependency" data-source-line="50" id="lnk30"><path d="M2208.09,418.5969 C2249.1,407.8869 2332.83,381.3269 2385.95,332.2969 C2406.12,313.6769 2397.46,298.5969 2415.95,278.2969 C2431.46,261.2569 2448.2542,249.0686 2466.1542,238.2186" fill="none" id="Reader-to-UC10" style="stroke:#000000;stroke-width:0.75;"/><polygon fill="#000000" points="2470.43,235.6269,2460.6601,236.8714,2466.1542,238.2186,2464.8069,243.7127,2470.43,235.6269" style="stroke:#000000;stroke-width:0.75;stroke-linejoin:miter;stroke-miterlimit:10;"/></g><!--link Reader to UC11--><g class="link" data-entity-1="ent0002" data-entity-2="ent0015" data-link-type="dependency" data-source-line="51" id="lnk31"><path d="M2208.36,424.7669 C2247.3,424.7269 2325.09,421.3969 2385.95,398.2969 C2423.8,383.9369 2457.589,358.7217 2480.469,339.4117" fill="none" id="Reader-to-UC11" style="stroke:#000000;stroke-width:0.75;"/><polygon fill="#000000" points="2484.29,336.1869,2474.8322,338.9348,2480.469,339.4117,2479.992,345.0484,2484.29,336.1869" style="stroke:#000000;stroke-width:0.75;stroke-linejoin:miter;stroke-miterlimit:10;"/></g><?plantuml-src ZPDRZzCm48NV_Ij6vGKUUadlYrQLUbrU5gqA5JpmuZhJnAfZHuwpNK3yToQD2mbHkqIgMkTyFfuvusP7gLDkUGA9qKR4rYG8pkR8iZzA5lFGdAIEuC1LLbNsN1mZQt8TBeqo5jvipa-52F70S-KsHZkFzCvF1PaBP-pYLQSICpP4Uyrfbw7W6RxkTG5lkcrHEAuZzHz-Vz6RZdDhpUcc-3cMugWnow3NcOmOSz8f167CSK-Vzi7O28lgOKdbmqhoYBOofl3Wm1cmCeeTXD9IFT9endWH6inp5nlh5rlaL29Zzb8pjEh-BVZ90F8o8cXzIb78mtUoJwK0haF8J6u5PYtW6UoMlIfCpIdoXOHcBjib20btQ2LTdM_wxGdttGVfFkJxBhSlyhdxjDfqrq-xnJjl5rJj7b2ZfTsmbn7GyIwtU2x1v4v9ZNvFlxfddgRMFEC_oA2AVB6IF4NCKoeC7bTVFJIiGJHAIZxN3fwvaY4l4lNWg0gk4-bWhJ3YsYqeHQ2MF3TkS1_nnLaE54D6DNXiqi1CwcGYVs08HJOUcrw9XjgCSgvWkvwl7jSUlgl22xfQzErF1QChoGIr0QxCIIl3mw89w5PF3mBsYx7oAa6xFJkFlhOSC7e5dKxnEu3tS7yljL1vYBCPAzwKIh-XzBqoQ2W3hmmRoj0heuOoyihuh53SgCEQCBacJAy9Tur39fSsUmrfV96Q4KolIUL_qiT80wclWzy0?></g></svg>