<svg xmlns="http://www.w3.org/2000/svg" xmlns:xlink="http://www.w3.org/1999/xlink" contentStyleType="text/css" data-diagram-type="DESCRIPTION" height="678px" preserveAspectRatio="none" style="width:565px;height:678px;background:#FFFFFF;" version="1.1" viewBox="0 0 565 678" width="565px" zoomAndPan="magnify"><?plantuml 1.2026.6?><defs/><g><g class="title" data-source-line="18"><text fill="#000000" font-family="Helvetica" font-size="14" font-weight="700" lengthAdjust="spacing" textLength="271.5508" x="143.5815" y="22.9951">cookbook-forge Use Case Diagram</text></g><!--cluster cookbook-forge--><g class="cluster" data-qualified-name="cookbook-forge" data-source-line="25" id="ent0003"><rect fill="#FFFFFF" height="522.02" rx="2.5" ry="2.5" style="stroke:#000000;stroke-width:1;" width="488" x="7" y="142.5969"/><text fill="#000000" font-family="Helvetica" font-size="11" font-weight="700" lengthAdjust="spacing" textLength="96.9214" x="202.5393" y="154.8073">cookbook-forge</text></g><!--entity UC0--><g class="entity" data-qualified-name="cookbook-forge.UC0" data-source-line="26" id="ent0004"><ellipse cx="186.9975" cy="194.4498" fill="#FFFFFF" rx="52.3875" ry="20.8529" style="stroke:#000000;stroke-width:0.5;"/><text fill="#000000" font-family="Helvetica" font-size="11" lengthAdjust="spacing" textLength="70.8447" x="151.5751" y="191.314">Specify topic</text><text fill="#000000" font-family="Helvetica" font-size="11" lengthAdjust="spacing" textLength="66.6929" x="153.651" y="204.1187">and sources</text></g><!--entity UC1--><g class="entity" data-qualified-name="cookbook-forge.UC1" data-source-line="27" id="ent0005"><ellipse cx="186.9975" cy="263.5804" fill="#FFFFFF" rx="59.3675" ry="14.2735" style="stroke:#000000;stroke-width:0.5;"/><text fill="#000000" font-family="Helvetica" font-size="11" lengthAdjust="spacing" textLength="92.791" x="140.602" y="266.4827">Collect materials</text></g><!--entity UC2--><g class="entity" data-qualified-name="cookbook-forge.UC2" data-source-line="28" id="ent0006"><ellipse cx="202.9954" cy="326.116" fill="#FFFFFF" rx="59.3454" ry="14.2691" style="stroke:#000000;stroke-width:0.5;"/><text fill="#000000" font-family="Helvetica" font-size="11" lengthAdjust="spacing" textLength="92.7373" x="156.6267" y="329.0183">Generate outline</text></g><!--entity UC3--><g class="entity" data-qualified-name="cookbook-forge.UC3" data-source-line="29" id="ent0007"><ellipse cx="281.0033" cy="388.2195" fill="#FFFFFF" rx="57.1633" ry="13.8327" style="stroke:#000000;stroke-width:0.5;"/><text fill="#000000" font-family="Helvetica" font-size="11" lengthAdjust="spacing" textLength="87.3823" x="237.3122" y="391.1219">Approve outline</text></g><!--entity UC4--><g class="entity" data-qualified-name="cookbook-forge.UC4" data-source-line="30" id="ent0008"><ellipse cx="281.0012" cy="455.9825" fill="#FFFFFF" rx="72.0212" ry="19.9356" style="stroke:#000000;stroke-width:0.5;"/><text fill="#000000" font-family="Helvetica" font-size="11" lengthAdjust="spacing" textLength="104.3711" x="228.8157" y="454.2032">Write chapter MDX</text><text fill="#000000" font-family="Helvetica" font-size="11" lengthAdjust="spacing" textLength="70.979" x="245.5117" y="467.0079">+word count</text></g><!--entity UC6--><g class="entity" data-qualified-name="cookbook-forge.UC6" data-source-line="31" id="ent0009"><ellipse cx="60.9984" cy="546.3312" fill="#FFFFFF" rx="38.3284" ry="12.0543" style="stroke:#000000;stroke-width:0.5;"/><text fill="#000000" font-family="Helvetica" font-size="11" lengthAdjust="spacing" textLength="49.9619" x="36.0175" y="549.2335">Emit PDF</text></g><!--entity UC7--><g class="entity" data-qualified-name="cookbook-forge.UC7" data-source-line="32" id="ent0010"><ellipse cx="268.9988" cy="546.3286" fill="#FFFFFF" rx="57.8088" ry="13.9618" style="stroke:#000000;stroke-width:0.5;"/><text fill="#000000" font-family="Helvetica" font-size="11" lengthAdjust="spacing" textLength="88.9775" x="224.51" y="549.231">Emit Nextra site</text></g><!--entity UC8--><g class="entity" data-qualified-name="cookbook-forge.UC8" data-source-line="33" id="ent0011"><ellipse cx="154.9988" cy="546.3312" fill="#FFFFFF" rx="43.8088" ry="12.0543" style="stroke:#000000;stroke-width:0.5;"/><text fill="#000000" font-family="Helvetica" font-size="11" lengthAdjust="spacing" textLength="57.7124" x="126.1426" y="549.2335">Emit EPUB</text></g><!--entity UC9--><g class="entity" data-qualified-name="cookbook-forge.UC9" data-source-line="34" id="ent0012"><ellipse cx="416.002" cy="546.3313" fill="#FFFFFF" rx="63.172" ry="15.0344" style="stroke:#000000;stroke-width:0.5;"/><text fill="#000000" font-family="Helvetica" font-size="11" lengthAdjust="spacing" textLength="101.9004" x="365.0518" y="549.2336">Generate README</text></g><!--entity UC10--><g class="entity" data-qualified-name="cookbook-forge.UC10" data-source-line="35" id="ent0013"><ellipse cx="339.9999" cy="632.6808" fill="#FFFFFF" rx="56.7699" ry="13.754" style="stroke:#000000;stroke-width:0.5;"/><text fill="#000000" font-family="Helvetica" font-size="11" lengthAdjust="spacing" textLength="86.4048" x="296.7975" y="635.5832">Browse website</text></g><!--entity UC11--><g class="entity" data-qualified-name="cookbook-forge.UC11" data-source-line="36" id="ent0014"><ellipse cx="154.9976" cy="632.6804" fill="#FFFFFF" rx="67.7176" ry="15.9435" style="stroke:#000000;stroke-width:0.5;"/><text fill="#000000" font-family="Helvetica" font-size="11" lengthAdjust="spacing" textLength="112.4922" x="98.7515" y="635.5827">Download PDF/EPUB</text></g><!--entity AUTHOR--><g class="entity" data-qualified-name="AUTHOR" data-source-line="22" id="ent0001"><ellipse cx="233.9968" cy="51.2969" fill="#FFFFFF" rx="8" ry="8" style="stroke:#000000;stroke-width:0.5;"/><path d="M233.9968,59.2969 L233.9968,86.2969 M220.9968,67.2969 L246.9968,67.2969 M233.9968,86.2969 L220.9968,101.2969 M233.9968,86.2969 L246.9968,101.2969" fill="none" style="stroke:#000000;stroke-width:0.5;"/><text fill="#000000" font-family="Helvetica" font-size="11" lengthAdjust="spacing" textLength="37.0337" x="215.48" y="113.0073">Author</text></g><!--entity READER--><g class="entity" data-qualified-name="READER" data-source-line="23" id="ent0002"><ellipse cx="531.0019" cy="518.4269" fill="#FFFFFF" rx="8" ry="8" style="stroke:#000000;stroke-width:0.5;"/><path d="M531.0019,526.4269 L531.0019,553.4269 M518.0019,534.4269 L544.0019,534.4269 M531.0019,553.4269 L518.0019,568.4269 M531.0019,553.4269 L544.0019,568.4269" fill="none" style="stroke:#000000;stroke-width:0.5;"/><text fill="#000000" font-family="Helvetica" font-size="11" lengthAdjust="spacing" textLength="39.4238" x="511.29" y="580.1373">Reader</text></g><!--link AUTHOR to UC0--><g class="link" data-entity-1="ent0001" data-entity-2="ent0004" data-link-type="dependency" data-source-line="39" id="lnk15"><path d="M219.13,116.0269 C211.22,135.0869 203.7175,153.1692 197.1275,169.0392" fill="none" id="AUTHOR-to-UC0" style="stroke:#000000;stroke-width:0.75;"/><polygon fill="#000000" points="195.21,173.6569,202.3557,166.879,197.1275,169.0392,194.9673,163.811,195.21,173.6569" style="stroke:#000000;stroke-width:0.75;stroke-linejoin:miter;stroke-miterlimit:10;"/></g><!--link AUTHOR to UC3--><g class="link" data-entity-1="ent0001" data-entity-2="ent0007" data-link-type="dependency" data-source-line="40" id="lnk16"><path d="M252.85,108.1969 C265.92,130.3469 281,162.5869 281,193.4469 C281,193.4469 281,193.4469 281,327.1169 C281,343.3969 281,357.1569 281,369.3269" fill="none" id="AUTHOR-to-UC3" style="stroke:#000000;stroke-width:0.75;"/><polygon fill="#000000" points="281,374.3269,285,365.3269,281,369.3269,277,365.3269,281,374.3269" style="stroke:#000000;stroke-width:0.75;stroke-linejoin:miter;stroke-miterlimit:10;"/></g><!--link UC0 to UC1--><g class="link" data-entity-1="ent0004" data-entity-2="ent0005" data-link-type="dependency" data-source-line="41" id="lnk17"><path d="M187,215.5869 C187,226.4069 187,234.4469 187,244.0369" fill="none" id="UC0-to-UC1" style="stroke:#000000;stroke-width:0.75;stroke-dasharray:7,7;"/><polygon fill="#000000" points="187,249.0369,191,240.0369,187,244.0369,183,240.0369,187,249.0369" style="stroke:#000000;stroke-width:0.75;stroke-linejoin:miter;stroke-miterlimit:10;"/><text fill="#000000" font-family="Helvetica" font-size="11" lengthAdjust="spacing" textLength="53.3135" x="188" y="236.5173">&#171;include&#187;</text></g><!--link UC1 to UC2--><g class="link" data-entity-1="ent0005" data-entity-2="ent0006" data-link-type="dependency" data-source-line="42" id="lnk18"><path d="M190.63,278.3169 C193.25,288.2269 195.4954,296.7021 198.1054,306.6021" fill="none" id="UC1-to-UC2" style="stroke:#000000;stroke-width:0.75;stroke-dasharray:7,7;"/><polygon fill="#000000" points="199.38,311.4369,200.9535,301.7145,198.1054,306.6021,193.2178,303.7539,199.38,311.4369" style="stroke:#000000;stroke-width:0.75;stroke-linejoin:miter;stroke-miterlimit:10;"/><text fill="#000000" font-family="Helvetica" font-size="11" lengthAdjust="spacing" textLength="53.3135" x="197.43" y="299.0573">&#171;include&#187;</text></g><!--link UC2 to UC3--><g class="link" data-entity-1="ent0006" data-entity-2="ent0007" data-link-type="dependency" data-source-line="43" id="lnk19"><path d="M204.77,340.7369 C206.45,348.5669 209.71,358.0869 216,364.3869 C222.25,370.6569 225.673,373.3615 233.983,376.6615" fill="none" id="UC2-to-UC3" style="stroke:#000000;stroke-width:0.75;stroke-dasharray:7,7;"/><polygon fill="#000000" points="238.63,378.5069,231.7417,371.4676,233.983,376.6615,228.7891,378.9028,238.63,378.5069" style="stroke:#000000;stroke-width:0.75;stroke-linejoin:miter;stroke-miterlimit:10;"/><text fill="#000000" font-family="Helvetica" font-size="11" lengthAdjust="spacing" textLength="53.3135" x="217" y="361.5973">&#171;include&#187;</text></g><!--link UC3 to UC4--><g class="link" data-entity-1="ent0007" data-entity-2="ent0008" data-link-type="dependency" data-source-line="44" id="lnk20"><path d="M281,402.5269 C281,412.0669 281,420.0469 281,430.7169" fill="none" id="UC3-to-UC4" style="stroke:#000000;stroke-width:0.75;stroke-dasharray:7,7;"/><polygon fill="#000000" points="281,435.7169,285,426.7169,281,430.7169,277,426.7169,281,435.7169" style="stroke:#000000;stroke-width:0.75;stroke-linejoin:miter;stroke-miterlimit:10;"/><text fill="#000000" font-family="Helvetica" font-size="11" lengthAdjust="spacing" textLength="53.3135" x="282" y="423.2673">&#171;include&#187;</text></g><!--link UC4 to UC6--><g class="link" data-entity-1="ent0008" data-entity-2="ent0009" data-link-type="dependency" data-source-line="45" id="lnk21"><path d="M218.3,466.1269 C195.11,470.6169 168.9,477.0369 146,485.9269 C126.32,493.5669 122.38,497.9369 105,509.9269 C93.86,517.6069 85.7559,524.066 77.1459,531.356" fill="none" id="UC4-to-UC6" style="stroke:#000000;stroke-width:0.75;stroke-dasharray:7,7;"/><polygon fill="#000000" points="73.33,534.5869,82.7834,531.824,77.1459,531.356,77.6139,525.7185,73.33,534.5869" style="stroke:#000000;stroke-width:0.75;stroke-linejoin:miter;stroke-miterlimit:10;"/><text fill="#000000" font-family="Helvetica" font-size="11" lengthAdjust="spacing" textLength="51.772" x="147" y="497.1373">&#171;extend&#187;</text></g><!--link UC4 to UC7--><g class="link" data-entity-1="ent0008" data-entity-2="ent0010" data-link-type="dependency" data-source-line="46" id="lnk22"><path d="M278.4,476.1569 C276.11,493.0069 273.5139,512.1325 271.4939,526.9825" fill="none" id="UC4-to-UC7" style="stroke:#000000;stroke-width:0.75;stroke-dasharray:7,7;"/><polygon fill="#000000" points="270.82,531.9369,275.9966,523.5581,271.4939,526.9825,268.0696,522.4799,270.82,531.9369" style="stroke:#000000;stroke-width:0.75;stroke-linejoin:miter;stroke-miterlimit:10;"/><text fill="#000000" font-family="Helvetica" font-size="11" lengthAdjust="spacing" textLength="51.772" x="277.78" y="497.1373">&#171;extend&#187;</text></g><!--link UC4 to UC8--><g class="link" data-entity-1="ent0008" data-entity-2="ent0011" data-link-type="dependency" data-source-line="47" id="lnk23"><path d="M241.62,473.1069 C233.88,476.8969 226,481.2169 219,485.9269 C197.87,500.1469 180.3089,517.6198 168.3989,530.4698" fill="none" id="UC4-to-UC8" style="stroke:#000000;stroke-width:0.75;stroke-dasharray:7,7;"/><polygon fill="#000000" points="165,534.1369,174.0516,530.2552,168.3989,530.4698,168.1843,524.817,165,534.1369" style="stroke:#000000;stroke-width:0.75;stroke-linejoin:miter;stroke-miterlimit:10;"/><text fill="#000000" font-family="Helvetica" font-size="11" lengthAdjust="spacing" textLength="51.772" x="220" y="497.1373">&#171;extend&#187;</text></g><!--link UC4 to UC9--><g class="link" data-entity-1="ent0008" data-entity-2="ent0012" data-link-type="dependency" data-source-line="48" id="lnk24"><path d="M318.83,473.2469 C326.67,477.0769 334.75,481.3869 342,485.9269 C345.04,487.8269 374.2473,511.4365 395.1373,528.3865" fill="none" id="UC4-to-UC9" style="stroke:#000000;stroke-width:0.75;stroke-dasharray:7,7;"/><polygon fill="#000000" points="399.02,531.5369,394.5515,522.7601,395.1373,528.3865,389.5109,528.9723,399.02,531.5369" style="stroke:#000000;stroke-width:0.75;stroke-linejoin:miter;stroke-miterlimit:10;"/><text fill="#000000" font-family="Helvetica" font-size="11" lengthAdjust="spacing" textLength="53.3135" x="359.1" y="497.1373">&#171;include&#187;</text></g><!--link UC7 to UC10--><g class="link" data-entity-1="ent0010" data-entity-2="ent0013" data-link-type="dependency" data-source-line="49" id="lnk25"><path d="M268.3,560.6269 C268.32,573.7469 270.35,593.6969 281,606.7269 C286.49,613.4469 289.5605,616.3127 297.5005,619.9327" fill="none" id="UC7-to-UC10" style="stroke:#000000;stroke-width:0.75;stroke-dasharray:7,7;"/><polygon fill="#000000" points="302.05,622.0069,295.5203,614.6337,297.5005,619.9327,292.2016,621.9129,302.05,622.0069" style="stroke:#000000;stroke-width:0.75;stroke-linejoin:miter;stroke-miterlimit:10;"/><text fill="#000000" font-family="Helvetica" font-size="11" lengthAdjust="spacing" textLength="53.3135" x="282" y="603.9373">&#171;include&#187;</text></g><!--link UC6 to UC11--><g class="link" data-entity-1="ent0009" data-entity-2="ent0014" data-link-type="dependency" data-source-line="50" id="lnk26"><path d="M65.22,558.3769 C70.73,571.4969 81.53,593.2769 97,606.7269 C102.71,611.6969 105.0434,613.6311 111.9934,616.9711" fill="none" id="UC6-to-UC11" style="stroke:#000000;stroke-width:0.75;stroke-dasharray:7,7;"/><polygon fill="#000000" points="116.5,619.1369,110.1207,611.6332,111.9934,616.9711,106.6555,618.8438,116.5,619.1369" style="stroke:#000000;stroke-width:0.75;stroke-linejoin:miter;stroke-miterlimit:10;"/><text fill="#000000" font-family="Helvetica" font-size="11" lengthAdjust="spacing" textLength="53.3135" x="98" y="603.9373">&#171;include&#187;</text></g><!--link UC8 to UC11--><g class="link" data-entity-1="ent0011" data-entity-2="ent0014" data-link-type="dependency" data-source-line="51" id="lnk27"><path d="M155,558.7069 C155,573.6269 155,594.8769 155,611.4969" fill="none" id="UC8-to-UC11" style="stroke:#000000;stroke-width:0.75;stroke-dasharray:7,7;"/><polygon fill="#000000" points="155,616.4969,159,607.4969,155,611.4969,151,607.4969,155,616.4969" style="stroke:#000000;stroke-width:0.75;stroke-linejoin:miter;stroke-miterlimit:10;"/><text fill="#000000" font-family="Helvetica" font-size="11" lengthAdjust="spacing" textLength="53.3135" x="156" y="603.9373">&#171;include&#187;</text></g><!--link READER to UC10--><g class="link" data-entity-1="ent0002" data-entity-2="ent0013" data-link-type="dependency" data-source-line="52" id="lnk28"><path d="M510.94,566.3869 C504.52,572.0069 497.2,577.9269 490,582.7269 C457.98,604.0769 420.7981,615.6396 389.3681,622.7096" fill="none" id="READER-to-UC10" style="stroke:#000000;stroke-width:0.75;"/><polygon fill="#000000" points="384.49,623.8069,394.1484,625.7342,389.3681,622.7096,392.3928,617.9292,384.49,623.8069" style="stroke:#000000;stroke-width:0.75;stroke-linejoin:miter;stroke-miterlimit:10;"/></g><!--link READER to UC11--><g class="link" data-entity-1="ent0002" data-entity-2="ent0014" data-link-type="dependency" data-source-line="53" id="lnk29"><path d="M510.9,568.5469 C504.7,573.9669 497.51,579.2469 490,582.7269 C477.57,588.5069 310.4168,611.1807 217.8768,623.4307" fill="none" id="READER-to-UC11" style="stroke:#000000;stroke-width:0.75;"/><polygon fill="#000000" points="212.92,624.0869,222.3671,626.8712,217.8768,623.4307,221.3172,618.9404,212.92,624.0869" style="stroke:#000000;stroke-width:0.75;stroke-linejoin:miter;stroke-miterlimit:10;"/></g><!--link UC0 to UC6--><!--link UC1 to UC7--><!--link UC2 to UC8--><!--link UC3 to UC9--><!--link UC4 to UC10--><?plantuml-src ZPHVRzem5CNV_IcksED4Hw0hC5MLA7_MbtOLBTgaTG_6kO15y8riftIRzjrt4yncbj8kKfJa_8xlpJsnujRQvDBA3Mp8a5fPsY1uMw1mVuXRoPIssYnX8JCNaxbKwwMbmgH3oiZ2cqbrH8uK5xB8_8IC3vPMTJnlkP7S_GgpH_HQoSWpK9xivQlTTZQoATfZtMOEbNJuUgszySLgKrHUccNs7_N-Mb-iEB2MjY_2-vLMQuFEGUka-_xv8E_q3uGaYQ2X51tcaBGZqKgpBiLsImYlVOQWYDPpFfiBiaiiGu0Xfm0ZBPUyWcsKWoUOa_V4BRNbiJGP8MIPFGmAl-ABT32OtLzzcWPvYf9dBkNfU30QJuMm-pYWSTYp0Jy5GB5B7nftEIgz-CuzSwqUZ3GfE2giGjSeoys6hTZDmMLS63RIezMyMuCfYKqVqQ1b0r3XCsqmUDgnPv3dbXx_jNHYosUhkOPQoPnxmVNeouDvk-LlonaMneSLf_6AyKPxk1rD0ZkhiHjyybQ2uyB1qwrvnhUpom1xpqvL9dmz3fP-RBdatSFNBSwZ3ib1W2FQcenaMhxckwWLxwLVGko-AJIR5rNm1uyTmHASd9Jt2No0ytDjL5QaU74XIcL7sZNI3gHJ8vr0JclaD92pYd1eQD83q3q6UiT0lzQakn-cLKDdUrGVj7SCxJP-28j3FtnEH1LVy-jAfocQR_p3DSrgZvJPrUHk5LnDxbMfrUH-DMTDvfVu3G00?></g></svg>