<svg xmlns="http://www.w3.org/2000/svg" xmlns:xlink="http://www.w3.org/1999/xlink" contentStyleType="text/css" data-diagram-type="DESCRIPTION" height="649px" preserveAspectRatio="none" style="width:547px;height:649px;background:#FFFFFF;" version="1.1" viewBox="0 0 547 649" width="547px" zoomAndPan="magnify"><?plantuml 1.2026.6?><defs/><g><g class="title" data-source-line="18"><text fill="#000000" font-family="'WenQuanYi Micro Hei'" font-size="14" font-weight="700" lengthAdjust="spacing" textLength="170.2283" x="184.8858" y="22.9951">cookbook-forge &#29992;&#20363;&#22270;</text></g><!--cluster cookbook-forge--><g class="cluster" data-qualified-name="cookbook-forge" data-source-line="25" id="ent0003"><rect fill="#FFFFFF" height="493" rx="2.5" ry="2.5" style="stroke:#000000;stroke-width:1;" width="482" x="7" y="142.6069"/><text fill="#000000" font-family="'WenQuanYi Micro Hei'" font-size="11" font-weight="700" lengthAdjust="spacing" textLength="96.9214" x="199.5393" y="154.8173">cookbook-forge</text></g><!--entity UC0--><g class="entity" data-qualified-name="cookbook-forge.UC0" data-source-line="26" id="ent0004"><ellipse cx="169.9997" cy="186.6208" fill="#FFFFFF" rx="53.0697" ry="13.0139" style="stroke:#000000;stroke-width:0.5;"/><text fill="#000000" font-family="'WenQuanYi Micro Hei'" font-size="11" lengthAdjust="spacing" textLength="76.9995" x="131.5" y="189.5232">&#25351;&#23450;&#20027;&#39064;&#19982;&#36164;&#26009;</text></g><!--entity UC1--><g class="entity" data-qualified-name="cookbook-forge.UC1" data-source-line="27" id="ent0005"><ellipse cx="169.9954" cy="245.8219" fill="#FFFFFF" rx="48.9754" ry="12.1951" style="stroke:#000000;stroke-width:0.5;"/><text fill="#000000" font-family="'WenQuanYi Micro Hei'" font-size="11" lengthAdjust="spacing" textLength="65.9995" x="136.9956" y="248.7243">&#37319;&#38598;&#22810;&#28304;&#36164;&#26009;</text></g><!--entity UC2--><g class="entity" data-qualified-name="cookbook-forge.UC2" data-source-line="28" id="ent0006"><ellipse cx="195.0025" cy="305.9094" fill="#FFFFFF" rx="57.4125" ry="13.8825" style="stroke:#000000;stroke-width:0.5;"/><text fill="#000000" font-family="'WenQuanYi Micro Hei'" font-size="11" lengthAdjust="spacing" textLength="87.9994" x="151.0028" y="308.8117">&#29983;&#25104;&#20840;&#26223;&#22270;&#19982;&#22823;&#32434;</text></g><!--entity UC3--><g class="entity" data-qualified-name="cookbook-forge.UC3" data-source-line="29" id="ent0007"><ellipse cx="270.9954" cy="365.9719" fill="#FFFFFF" rx="48.9754" ry="12.1951" style="stroke:#000000;stroke-width:0.5;"/><text fill="#000000" font-family="'WenQuanYi Micro Hei'" font-size="11" lengthAdjust="spacing" textLength="65.9995" x="237.9956" y="368.8743">&#29992;&#25143;&#30830;&#35748;&#22823;&#32434;</text></g><!--entity UC4--><g class="entity" data-qualified-name="cookbook-forge.UC4" data-source-line="30" id="ent0008"><ellipse cx="270.9952" cy="432.258" fill="#FFFFFF" rx="51.6852" ry="20.0811" style="stroke:#000000;stroke-width:0.5;"/><text fill="#000000" font-family="'WenQuanYi Micro Hei'" font-size="11" lengthAdjust="spacing" textLength="72.9929" x="234.4988" y="430.2576">&#36880;&#31456;&#20889;&#20316; MDX</text><text fill="#000000" font-family="'WenQuanYi Micro Hei'" font-size="11" lengthAdjust="spacing" textLength="53.2165" x="244.387" y="443.0623">+&#23383;&#25968;&#26657;&#39564;</text></g><!--entity UC6--><g class="entity" data-qualified-name="cookbook-forge.UC6" data-source-line="31" id="ent0009"><ellipse cx="59.0025" cy="522.7412" fill="#FFFFFF" rx="36.1825" ry="12.0543" style="stroke:#000000;stroke-width:0.5;"/><text fill="#000000" font-family="'WenQuanYi Micro Hei'" font-size="11" lengthAdjust="spacing" textLength="46.9271" x="35.5389" y="525.6435">&#36755;&#20986; PDF</text></g><!--entity UC7--><g class="entity" data-qualified-name="cookbook-forge.UC7" data-source-line="32" id="ent0010"><ellipse cx="260.0031" cy="522.7355" fill="#FFFFFF" rx="57.4431" ry="13.8886" style="stroke:#000000;stroke-width:0.5;"/><text fill="#000000" font-family="'WenQuanYi Micro Hei'" font-size="11" lengthAdjust="spacing" textLength="88.0749" x="215.9656" y="525.6378">&#36755;&#20986; Nextra &#32593;&#31449;</text></g><!--entity UC8--><g class="entity" data-qualified-name="cookbook-forge.UC8" data-source-line="33" id="ent0011"><ellipse cx="149.0029" cy="522.7412" fill="#FFFFFF" rx="41.6629" ry="12.0543" style="stroke:#000000;stroke-width:0.5;"/><text fill="#000000" font-family="'WenQuanYi Micro Hei'" font-size="11" lengthAdjust="spacing" textLength="54.6776" x="121.6641" y="525.6435">&#36755;&#20986; EPUB</text></g><!--entity UC9--><g class="entity" data-qualified-name="cookbook-forge.UC9" data-source-line="34" id="ent0012"><ellipse cx="408.0043" cy="522.7397" fill="#FFFFFF" rx="64.7143" ry="15.3429" style="stroke:#000000;stroke-width:0.5;"/><text fill="#000000" font-family="'WenQuanYi Micro Hei'" font-size="11" lengthAdjust="spacing" textLength="105.5255" x="355.2416" y="525.6421">&#29983;&#25104;&#20013;&#33521;&#25991; README</text></g><!--entity UC10--><g class="entity" data-qualified-name="cookbook-forge.UC10" data-source-line="35" id="ent0013"><ellipse cx="329.9954" cy="606.3719" fill="#FFFFFF" rx="48.9754" ry="12.1951" style="stroke:#000000;stroke-width:0.5;"/><text fill="#000000" font-family="'WenQuanYi Micro Hei'" font-size="11" lengthAdjust="spacing" textLength="65.9995" x="296.9956" y="609.2743">&#22312;&#32447;&#27983;&#35272;&#32593;&#31449;</text></g><!--entity UC11--><g class="entity" data-qualified-name="cookbook-forge.UC11" data-source-line="36" id="ent0014"><ellipse cx="148.9999" cy="606.3788" fill="#FFFFFF" rx="54.1599" ry="13.232" style="stroke:#000000;stroke-width:0.5;"/><text fill="#000000" font-family="'WenQuanYi Micro Hei'" font-size="11" lengthAdjust="spacing" textLength="79.8143" x="109.0927" y="609.2812">&#19979;&#36733; PDF/EPUB</text></g><!--entity AUTHOR--><g class="entity" data-qualified-name="AUTHOR" data-source-line="22" id="ent0001"><ellipse cx="220" cy="51.2969" fill="#FFFFFF" rx="8" ry="8" style="stroke:#000000;stroke-width:0.5;"/><path d="M220,59.2969 L220,86.2969 M207,67.2969 L233,67.2969 M220,86.2969 L207,101.2969 M220,86.2969 L233,101.2969" fill="none" style="stroke:#000000;stroke-width:0.5;"/><text fill="#000000" font-family="'WenQuanYi Micro Hei'" font-size="11" lengthAdjust="spacing" textLength="21.9998" x="209.0001" y="113.0073">&#20316;&#32773;</text></g><!--entity READER--><g class="entity" data-qualified-name="READER" data-source-line="23" id="ent0002"><ellipse cx="519" cy="494.8369" fill="#FFFFFF" rx="8" ry="8" style="stroke:#000000;stroke-width:0.5;"/><path d="M519,502.8369 L519,529.8369 M506,510.8369 L532,510.8369 M519,529.8369 L506,544.8369 M519,529.8369 L532,544.8369" fill="none" style="stroke:#000000;stroke-width:0.5;"/><text fill="#000000" font-family="'WenQuanYi Micro Hei'" font-size="11" lengthAdjust="spacing" textLength="21.9998" x="508.0001" y="556.5473">&#35835;&#32773;</text></g><!--link AUTHOR to UC0--><g class="link" data-entity-1="ent0001" data-entity-2="ent0004" data-link-type="dependency" data-source-line="39" id="lnk15"><path d="M206.07,109.5669 C196.13,130.5169 185.4138,153.1298 178.0338,168.6798" fill="none" id="AUTHOR-to-UC0" style="stroke:#000000;stroke-width:0.75;"/><polygon fill="#000000" points="175.89,173.1969,183.3625,166.7812,178.0338,168.6798,176.1352,163.3511,175.89,173.1969" style="stroke:#000000;stroke-width:0.75;stroke-linejoin:miter;stroke-miterlimit:10;"/></g><!--link AUTHOR to UC3--><g class="link" data-entity-1="ent0001" data-entity-2="ent0007" data-link-type="dependency" data-source-line="40" id="lnk16"><path d="M233.94,96.8969 C249.04,116.7369 271,151.4569 271,185.6169 C271,185.6169 271,185.6169 271,306.9069 C271,323.0369 271,336.6869 271,348.4069" fill="none" id="AUTHOR-to-UC3" style="stroke:#000000;stroke-width:0.75;"/><polygon fill="#000000" points="271,353.4069,275,344.4069,271,348.4069,267,344.4069,271,353.4069" style="stroke:#000000;stroke-width:0.75;stroke-linejoin:miter;stroke-miterlimit:10;"/></g><!--link UC0 to UC1--><g class="link" data-entity-1="ent0004" data-entity-2="ent0005" data-link-type="dependency" data-source-line="41" id="lnk17"><path d="M170,200.0269 C170,209.8869 170,218.5769 170,228.2169" fill="none" id="UC0-to-UC1" style="stroke:#000000;stroke-width:0.75;stroke-dasharray:7,7;"/><polygon fill="#000000" points="170,233.2169,174,224.2169,170,228.2169,166,224.2169,170,233.2169" style="stroke:#000000;stroke-width:0.75;stroke-linejoin:miter;stroke-miterlimit:10;"/><text fill="#000000" font-family="'WenQuanYi Micro Hei'" font-size="11" lengthAdjust="spacing" textLength="53.3135" x="171" y="220.8373">&#171;include&#187;</text></g><!--link UC1 to UC2--><g class="link" data-entity-1="ent0005" data-entity-2="ent0006" data-link-type="dependency" data-source-line="42" id="lnk18"><path d="M174.94,258.2969 C179.09,267.9569 183.0511,277.1652 187.3911,287.2352" fill="none" id="UC1-to-UC2" style="stroke:#000000;stroke-width:0.75;stroke-dasharray:7,7;"/><polygon fill="#000000" points="189.37,291.8269,189.4813,281.9786,187.3911,287.2352,182.1345,285.145,189.37,291.8269" style="stroke:#000000;stroke-width:0.75;stroke-linejoin:miter;stroke-miterlimit:10;"/><text fill="#000000" font-family="'WenQuanYi Micro Hei'" font-size="11" lengthAdjust="spacing" textLength="53.3135" x="185.74" y="279.2273">&#171;include&#187;</text></g><!--link UC2 to UC3--><g class="link" data-entity-1="ent0006" data-entity-2="ent0007" data-link-type="dependency" data-source-line="43" id="lnk19"><path d="M195.91,320.0369 C197.11,327.8669 199.84,337.4669 206,343.7869 C212.79,350.7569 217.1759,353.8281 226.4159,356.9681" fill="none" id="UC2-to-UC3" style="stroke:#000000;stroke-width:0.75;stroke-dasharray:7,7;"/><polygon fill="#000000" points="231.15,358.5769,223.9156,351.8938,226.4159,356.9681,221.3416,359.4684,231.15,358.5769" style="stroke:#000000;stroke-width:0.75;stroke-linejoin:miter;stroke-miterlimit:10;"/><text fill="#000000" font-family="'WenQuanYi Micro Hei'" font-size="11" lengthAdjust="spacing" textLength="53.3135" x="207" y="340.9973">&#171;include&#187;</text></g><!--link UC3 to UC4--><g class="link" data-entity-1="ent0007" data-entity-2="ent0008" data-link-type="dependency" data-source-line="44" id="lnk20"><path d="M271,378.4769 C271,387.7169 271,395.9169 271,406.7969" fill="none" id="UC3-to-UC4" style="stroke:#000000;stroke-width:0.75;stroke-dasharray:7,7;"/><polygon fill="#000000" points="271,411.7969,275,402.7969,271,406.7969,267,402.7969,271,411.7969" style="stroke:#000000;stroke-width:0.75;stroke-linejoin:miter;stroke-miterlimit:10;"/><text fill="#000000" font-family="'WenQuanYi Micro Hei'" font-size="11" lengthAdjust="spacing" textLength="53.3135" x="272" y="399.3873">&#171;include&#187;</text></g><!--link UC4 to UC6--><g class="link" data-entity-1="ent0008" data-entity-2="ent0009" data-link-type="dependency" data-source-line="45" id="lnk21"><path d="M222.33,439.5869 C196.58,443.9869 164.83,451.1369 138,462.3369 C119.91,469.8869 116.75,474.6669 101,486.3369 C90.43,494.1769 82.8016,500.5415 74.5616,507.8015" fill="none" id="UC4-to-UC6" style="stroke:#000000;stroke-width:0.75;stroke-dasharray:7,7;"/><polygon fill="#000000" points="70.81,511.1069,80.2072,508.1584,74.5616,507.8015,74.9185,502.1559,70.81,511.1069" style="stroke:#000000;stroke-width:0.75;stroke-linejoin:miter;stroke-miterlimit:10;"/><text fill="#000000" font-family="'WenQuanYi Micro Hei'" font-size="11" lengthAdjust="spacing" textLength="51.772" x="139" y="473.5473">&#171;extend&#187;</text></g><!--link UC4 to UC7--><g class="link" data-entity-1="ent0008" data-entity-2="ent0010" data-link-type="dependency" data-source-line="46" id="lnk22"><path d="M268.61,452.4569 C266.5,469.4369 264.0981,488.7852 262.2481,503.6352" fill="none" id="UC4-to-UC7" style="stroke:#000000;stroke-width:0.75;stroke-dasharray:7,7;"/><polygon fill="#000000" points="261.63,508.5969,266.7119,500.1604,262.2481,503.6352,258.7733,499.1714,261.63,508.5969" style="stroke:#000000;stroke-width:0.75;stroke-linejoin:miter;stroke-miterlimit:10;"/><text fill="#000000" font-family="'WenQuanYi Micro Hei'" font-size="11" lengthAdjust="spacing" textLength="51.772" x="268.13" y="473.5473">&#171;extend&#187;</text></g><!--link UC4 to UC8--><g class="link" data-entity-1="ent0008" data-entity-2="ent0011" data-link-type="dependency" data-source-line="47" id="lnk23"><path d="M236.03,447.5269 C227.21,451.7569 217.99,456.7669 210,462.3369 C189.62,476.5369 173.0154,493.9165 161.7454,506.7765" fill="none" id="UC4-to-UC8" style="stroke:#000000;stroke-width:0.75;stroke-dasharray:7,7;"/><polygon fill="#000000" points="158.45,510.5369,167.39,506.4046,161.7454,506.7765,161.3735,501.1319,158.45,510.5369" style="stroke:#000000;stroke-width:0.75;stroke-linejoin:miter;stroke-miterlimit:10;"/><text fill="#000000" font-family="'WenQuanYi Micro Hei'" font-size="11" lengthAdjust="spacing" textLength="51.772" x="211" y="473.5473">&#171;extend&#187;</text></g><!--link UC4 to UC9--><g class="link" data-entity-1="ent0008" data-entity-2="ent0012" data-link-type="dependency" data-source-line="48" id="lnk24"><path d="M304.94,447.8269 C313.95,452.1169 323.52,457.0869 332,462.3369 C332.78,462.8169 364.074,487.3233 386.284,504.7233" fill="none" id="UC4-to-UC9" style="stroke:#000000;stroke-width:0.75;stroke-dasharray:7,7;"/><polygon fill="#000000" points="390.22,507.8069,385.6021,499.1077,386.284,504.7233,380.6684,505.4053,390.22,507.8069" style="stroke:#000000;stroke-width:0.75;stroke-linejoin:miter;stroke-miterlimit:10;"/><text fill="#000000" font-family="'WenQuanYi Micro Hei'" font-size="11" lengthAdjust="spacing" textLength="53.3135" x="349.92" y="473.5473">&#171;include&#187;</text></g><!--link UC7 to UC10--><g class="link" data-entity-1="ent0010" data-entity-2="ent0013" data-link-type="dependency" data-source-line="49" id="lnk25"><path d="M258.94,537.1069 C258.63,550.2869 260.23,570.2769 271,583.1469 C276.76,590.0269 280.2251,592.9515 288.6151,596.2415" fill="none" id="UC7-to-UC10" style="stroke:#000000;stroke-width:0.75;stroke-dasharray:7,7;"/><polygon fill="#000000" points="293.27,598.0669,286.3514,591.0573,288.6151,596.2415,283.4309,598.5052,293.27,598.0669" style="stroke:#000000;stroke-width:0.75;stroke-linejoin:miter;stroke-miterlimit:10;"/><text fill="#000000" font-family="'WenQuanYi Micro Hei'" font-size="11" lengthAdjust="spacing" textLength="53.3135" x="272" y="580.3573">&#171;include&#187;</text></g><!--link UC6 to UC11--><g class="link" data-entity-1="ent0009" data-entity-2="ent0014" data-link-type="dependency" data-source-line="50" id="lnk26"><path d="M62.34,534.8969 C66.84,548.1069 76.05,569.9869 91,583.1469 C97.32,588.6969 100.5411,591.0365 108.4011,594.2465" fill="none" id="UC6-to-UC11" style="stroke:#000000;stroke-width:0.75;stroke-dasharray:7,7;"/><polygon fill="#000000" points="113.03,596.1369,106.2104,589.031,108.4011,594.2465,103.1857,596.4372,113.03,596.1369" style="stroke:#000000;stroke-width:0.75;stroke-linejoin:miter;stroke-miterlimit:10;"/><text fill="#000000" font-family="'WenQuanYi Micro Hei'" font-size="11" lengthAdjust="spacing" textLength="53.3135" x="92" y="580.3573">&#171;include&#187;</text></g><!--link UC8 to UC11--><g class="link" data-entity-1="ent0011" data-entity-2="ent0014" data-link-type="dependency" data-source-line="51" id="lnk27"><path d="M149,535.0869 C149,550.2469 149,572.0169 149,587.7769" fill="none" id="UC8-to-UC11" style="stroke:#000000;stroke-width:0.75;stroke-dasharray:7,7;"/><polygon fill="#000000" points="149,592.7769,153,583.7769,149,587.7769,145,583.7769,149,592.7769" style="stroke:#000000;stroke-width:0.75;stroke-linejoin:miter;stroke-miterlimit:10;"/><text fill="#000000" font-family="'WenQuanYi Micro Hei'" font-size="11" lengthAdjust="spacing" textLength="53.3135" x="150" y="580.3573">&#171;include&#187;</text></g><!--link READER to UC10--><g class="link" data-entity-1="ent0002" data-entity-2="ent0013" data-link-type="dependency" data-source-line="52" id="lnk28"><path d="M505.11,540.2069 C499.09,546.6769 491.66,553.8069 484,559.1469 C450.55,582.4269 410.0935,593.3156 377.2635,599.1256" fill="none" id="READER-to-UC10" style="stroke:#000000;stroke-width:0.75;"/><polygon fill="#000000" points="372.34,599.9969,381.8993,602.3673,377.2635,599.1256,380.5052,594.4897,372.34,599.9969" style="stroke:#000000;stroke-width:0.75;stroke-linejoin:miter;stroke-miterlimit:10;"/></g><!--link READER to UC11--><g class="link" data-entity-1="ent0002" data-entity-2="ent0014" data-link-type="dependency" data-source-line="53" id="lnk29"><path d="M505.1,542.0369 C499.28,548.4469 492,555.0569 484,559.1469 C476.24,563.1069 337.63,581.9469 329,583.1469 C284.25,589.3669 238.0756,595.0116 201.7656,599.2916" fill="none" id="READER-to-UC11" style="stroke:#000000;stroke-width:0.75;"/><polygon fill="#000000" points="196.8,599.8769,206.2064,602.7958,201.7656,599.2916,205.2699,594.8508,196.8,599.8769" style="stroke:#000000;stroke-width:0.75;stroke-linejoin:miter;stroke-miterlimit:10;"/></g><!--link UC0 to UC6--><!--link UC1 to UC7--><!--link UC2 to UC8--><!--link UC3 to UC9--><!--link UC4 to UC10--><?plantuml-src ZPHVJzDG6CRlpwTuCo_DSDsG3KD81enm0-9aKQDU7Dh3rcoSGqwxO3GcN0XR0b6CYF8d4Gm9YmHG4-8oClmowvzz2q-xJjjq0viiMP_Vq_Vf-xIRLbJf4kPu4HOPPNA1iqK2EYyJfFqbMW4hR5cbULZ09SrFvh5Sp7DMfieuAp4EjoRTm-TGo08kb_H9HdNF4dEFtfOPBD8ZZmXzKCRqYGhJgimPJ14rulEdPPtniHkJEpR65SBx9USq8cEDt3ohQxnsMfR8EgRvqd_C-sUzTcAQSxPyBPmhg7AH4as3s43oRkzI7wel2KYI3rAc48qiWHJtYHpJeYF6OmZfgbuY83DMd1UVw0BZUGBMLgrrjMxiNGdEba1dCCzqdOaibOjzL4OHmaxfq6hksokhW3L8v-QcxcSzsJw_zEHi9ZsHoIB4kpr091WMWLS8eDof7IBcHiKusstLBzjVFxVgR-sBD-RsJiIPb1kF-OtjIgMzjsOSxPgDpO1ByhkihIzcTTDOhPaxvs8VCT4uEhOQFprlFEYjcTLVrk6PVNOKS2K2kIkRric1iROZLeVfYSVFw6tZz9FvyRjvSDZ-jk5TCkY_nBxwO5GQC3inwT6X7dI6lD0v1glvtZhfhfBiuSlCviOyd0flsggVski_pEsAM_nqndCE-vt6Virg_3Oltjd7rK2S52YuLL-tcqtdhk_uCiNRzHgXpiE6Q7JKVIo1qmGI4WmCEDybk0SZ8ogLIsM5Z8uYH-cGU8Z4FP88aOH71aDaq2D3BX4D4ge4GB8VIFK3mw6GP7UPM0WDTL5uqLG_rFb5U6M9oeFd4dBhYpujg8f2w7FnTqoZxYlZT1UIasvn8JdbjXQIXzqzGxAuYJy0?></g></svg>