<svg xmlns="http://www.w3.org/2000/svg" xmlns:xlink="http://www.w3.org/1999/xlink" contentStyleType="text/css" data-diagram-type="DESCRIPTION" height="767px" preserveAspectRatio="none" style="width:657px;height:767px;background:#FFFFFF;" version="1.1" viewBox="0 0 657 767" width="657px" zoomAndPan="magnify"><?plantuml 1.2026.6?><defs/><g><g class="title" data-source-line="23"><text fill="#000000" font-family="Helvetica" font-size="14" font-weight="700" lengthAdjust="spacing" textLength="271.5508" x="189.4785" y="22.9951">cookbook-forge Use Case Diagram</text></g><!--cluster cookbook-forge--><g class="cluster" data-qualified-name="cookbook-forge" data-source-line="33" id="ent0003"><rect fill="#FFFFFF" height="604.93" style="stroke:#000000;stroke-width:1;" width="576" x="7" y="148.7669"/><text fill="#000000" font-family="Helvetica" font-size="12" font-weight="700" lengthAdjust="spacing" textLength="105.7324" x="242.1338" y="161.9055">cookbook-forge</text></g><!--entity UC0--><g class="entity" data-qualified-name="cookbook-forge.UC0" data-source-line="34" id="ent0004"><ellipse cx="215.9973" cy="203.2427" fill="#FFFFFF" rx="56.8773" ry="22.4759" style="stroke:#000000;stroke-width:0.5;"/><text fill="#000000" font-family="Helvetica" font-size="12" lengthAdjust="spacing" textLength="77.2852" x="177.3547" y="200.1401">Specify topic</text><text fill="#000000" font-family="Helvetica" font-size="12" lengthAdjust="spacing" textLength="72.7559" x="179.6193" y="214.1088">and sources</text></g><!--entity UC1--><g class="entity" data-qualified-name="cookbook-forge.UC1" data-source-line="35" id="ent0005"><ellipse cx="216.0018" cy="286.0152" fill="#FFFFFF" rx="64.4918" ry="15.2984" style="stroke:#000000;stroke-width:0.5;"/><text fill="#000000" font-family="Helvetica" font-size="12" lengthAdjust="spacing" textLength="101.2266" x="165.3885" y="289.4996">Collect materials</text></g><!--entity UC2--><g class="entity" data-qualified-name="cookbook-forge.UC2" data-source-line="36" id="ent0006"><ellipse cx="236.9977" cy="361.6104" fill="#FFFFFF" rx="64.4677" ry="15.2935" style="stroke:#000000;stroke-width:0.5;"/><text fill="#000000" font-family="Helvetica" font-size="12" lengthAdjust="spacing" textLength="101.168" x="186.4137" y="365.0948">Generate outline</text></g><!--entity UC3--><g class="entity" data-qualified-name="cookbook-forge.UC3" data-source-line="37" id="ent0007"><ellipse cx="338.9973" cy="436.7143" fill="#FFFFFF" rx="62.0873" ry="14.8175" style="stroke:#000000;stroke-width:0.5;"/><text fill="#000000" font-family="Helvetica" font-size="12" lengthAdjust="spacing" textLength="95.3262" x="291.3342" y="440.1987">Approve outline</text></g><!--entity UC4--><g class="entity" data-qualified-name="cookbook-forge.UC4" data-source-line="38" id="ent0008"><ellipse cx="338.9959" cy="518.0121" fill="#FFFFFF" rx="78.2959" ry="21.4752" style="stroke:#000000;stroke-width:0.5;"/><text fill="#000000" font-family="Helvetica" font-size="12" lengthAdjust="spacing" textLength="113.8594" x="282.0662" y="516.3892">Write chapter MDX</text><text fill="#000000" font-family="Helvetica" font-size="12" lengthAdjust="spacing" textLength="77.4316" x="300.28" y="530.3579">+word count</text></g><!--entity UC6--><g class="entity" data-qualified-name="cookbook-forge.UC6" data-source-line="39" id="ent0009"><ellipse cx="65.0001" cy="621.4743" fill="#FFFFFF" rx="41.5401" ry="12.8774" style="stroke:#000000;stroke-width:0.5;"/><text fill="#000000" font-family="Helvetica" font-size="12" lengthAdjust="spacing" textLength="54.5039" x="37.7481" y="624.9586">Emit PDF</text></g><!--entity UC7--><g class="entity" data-qualified-name="cookbook-forge.UC7" data-source-line="40" id="ent0010"><ellipse cx="314.0014" cy="621.4752" fill="#FFFFFF" rx="62.7914" ry="14.9583" style="stroke:#000000;stroke-width:0.5;"/><text fill="#000000" font-family="Helvetica" font-size="12" lengthAdjust="spacing" textLength="97.0664" x="265.4682" y="624.9595">Emit Nextra site</text></g><!--entity UC8--><g class="entity" data-qualified-name="cookbook-forge.UC8" data-source-line="41" id="ent0011"><ellipse cx="178.9987" cy="621.4743" fill="#FFFFFF" rx="47.5187" ry="12.8774" style="stroke:#000000;stroke-width:0.5;"/><text fill="#000000" font-family="Helvetica" font-size="12" lengthAdjust="spacing" textLength="62.959" x="147.5192" y="624.9586">Emit EPUB</text></g><!--entity UC9--><g class="entity" data-qualified-name="cookbook-forge.UC9" data-source-line="42" id="ent0012"><ellipse cx="498.0022" cy="621.4753" fill="#FFFFFF" rx="68.6422" ry="16.1284" style="stroke:#000000;stroke-width:0.5;"/><text fill="#000000" font-family="Helvetica" font-size="12" lengthAdjust="spacing" textLength="111.1641" x="442.4202" y="624.9597">Generate README</text></g><!--entity UC10--><g class="entity" data-qualified-name="cookbook-forge.UC10" data-source-line="43" id="ent0013"><ellipse cx="402.998" cy="720.5785" fill="#FFFFFF" rx="61.658" ry="14.7316" style="stroke:#000000;stroke-width:0.5;"/><text fill="#000000" font-family="Helvetica" font-size="12" lengthAdjust="spacing" textLength="94.2598" x="355.8681" y="724.0629">Browse website</text></g><!--entity UC11--><g class="entity" data-qualified-name="cookbook-forge.UC11" data-source-line="44" id="ent0014"><ellipse cx="179.0011" cy="720.5771" fill="#FFFFFF" rx="73.6011" ry="17.1202" style="stroke:#000000;stroke-width:0.5;"/><text fill="#000000" font-family="Helvetica" font-size="12" lengthAdjust="spacing" textLength="122.7188" x="117.6417" y="724.0615">Download PDF/EPUB</text></g><!--entity AUTHOR--><g class="entity" data-qualified-name="AUTHOR" data-source-line="30" id="ent0001"><ellipse cx="277.0002" cy="51.2969" fill="#FFFFFF" rx="8" ry="8" style="stroke:#000000;stroke-width:0.5;"/><path d="M277.0002,59.2969 L277.0002,86.2969 M264.0002,67.2969 L290.0002,67.2969 M277.0002,86.2969 L264.0002,101.2969 M277.0002,86.2969 L290.0002,101.2969" fill="none" style="stroke:#000000;stroke-width:0.5;"/><text fill="#000000" font-family="Helvetica" font-size="12" lengthAdjust="spacing" textLength="40.4004" x="256.8" y="113.9355">Author</text></g><!--entity READER--><g class="entity" data-qualified-name="READER" data-source-line="31" id="ent0002"><ellipse cx="621.0039" cy="592.9869" fill="#FFFFFF" rx="8" ry="8" style="stroke:#000000;stroke-width:0.5;"/><path d="M621.0039,600.9869 L621.0039,627.9869 M608.0039,608.9869 L634.0039,608.9869 M621.0039,627.9869 L608.0039,642.9869 M621.0039,627.9869 L634.0039,642.9869" fill="none" style="stroke:#000000;stroke-width:0.5;"/><text fill="#000000" font-family="Helvetica" font-size="12" lengthAdjust="spacing" textLength="43.0078" x="599.5" y="655.6255">Reader</text></g><!--link AUTHOR to UC0--><g class="link" data-entity-1="ent0001" data-entity-2="ent0004" data-link-type="dependency" data-source-line="47" id="lnk15"><path d="M258.7,117.2269 C248.24,138.0469 237.7342,158.9688 228.9042,176.5488" fill="none" id="AUTHOR-to-UC0" style="stroke:#000000;stroke-width:0.75;"/><polygon fill="#000000" points="226.66,181.0169,234.274,174.7697,228.9042,176.5488,227.1251,171.179,226.66,181.0169" style="stroke:#000000;stroke-width:0.75;stroke-linejoin:miter;stroke-miterlimit:10;"/></g><!--link AUTHOR to UC3--><g class="link" data-entity-1="ent0001" data-entity-2="ent0007" data-link-type="dependency" data-source-line="48" id="lnk16"><path d="M297.65,104.5469 C315.68,127.8069 339,165.0769 339,202.2469 C339,202.2469 339,202.2469 339,362.6069 C339,383.0469 339,401.6969 339,416.4269" fill="none" id="AUTHOR-to-UC3" style="stroke:#000000;stroke-width:0.75;"/><polygon fill="#000000" points="339,421.4269,343,412.4269,339,416.4269,335,412.4269,339,421.4269" style="stroke:#000000;stroke-width:0.75;stroke-linejoin:miter;stroke-miterlimit:10;"/></g><!--link UC0 to UC1--><g class="link" data-entity-1="ent0004" data-entity-2="ent0005" data-link-type="dependency" data-source-line="49" id="lnk17"><path d="M216,225.8869 C216,240.0969 216,253.2769 216,265.7069" fill="none" id="UC0-to-UC1" style="stroke:#000000;stroke-width:0.75;stroke-dasharray:7,7;"/><polygon fill="#000000" points="216,270.7069,220,261.7069,216,265.7069,212,261.7069,216,270.7069" style="stroke:#000000;stroke-width:0.75;stroke-linejoin:miter;stroke-miterlimit:10;"/><text fill="#000000" font-family="Helvetica" font-size="12" lengthAdjust="spacing" textLength="58.1602" x="217" y="252.8555">&#171;include&#187;</text></g><!--link UC1 to UC2--><g class="link" data-entity-1="ent0005" data-entity-2="ent0006" data-link-type="dependency" data-source-line="50" id="lnk18"><path d="M220.15,301.5569 C223.83,314.4569 227.8074,328.399 231.4874,341.289" fill="none" id="UC1-to-UC2" style="stroke:#000000;stroke-width:0.75;stroke-dasharray:7,7;"/><polygon fill="#000000" points="232.86,346.0969,234.2356,336.3446,231.4874,341.289,226.543,338.5407,232.86,346.0969" style="stroke:#000000;stroke-width:0.75;stroke-linejoin:miter;stroke-miterlimit:10;"/><text fill="#000000" font-family="Helvetica" font-size="12" lengthAdjust="spacing" textLength="58.1602" x="229.38" y="328.4555">&#171;include&#187;</text></g><!--link UC2 to UC3--><g class="link" data-entity-1="ent0006" data-entity-2="ent0007" data-link-type="dependency" data-source-line="51" id="lnk19"><path d="M241.43,377.1369 C245.04,386.7569 251.02,399.0069 260,406.9069 C269.87,415.5769 277.8521,420.0512 290.1621,424.3712" fill="none" id="UC2-to-UC3" style="stroke:#000000;stroke-width:0.75;stroke-dasharray:7,7;"/><polygon fill="#000000" points="294.88,426.0269,287.7123,419.2723,290.1621,424.3712,285.0632,426.821,294.88,426.0269" style="stroke:#000000;stroke-width:0.75;stroke-linejoin:miter;stroke-miterlimit:10;"/><text fill="#000000" font-family="Helvetica" font-size="12" lengthAdjust="spacing" textLength="58.1602" x="261" y="404.0455">&#171;include&#187;</text></g><!--link UC3 to UC4--><g class="link" data-entity-1="ent0007" data-entity-2="ent0008" data-link-type="dependency" data-source-line="52" id="lnk20"><path d="M339,451.8969 C339,464.1869 339,477.1569 339,491.0969" fill="none" id="UC3-to-UC4" style="stroke:#000000;stroke-width:0.75;stroke-dasharray:7,7;"/><polygon fill="#000000" points="339,496.0969,343,487.0969,339,491.0969,335,487.0969,339,496.0969" style="stroke:#000000;stroke-width:0.75;stroke-linejoin:miter;stroke-miterlimit:10;"/><text fill="#000000" font-family="Helvetica" font-size="12" lengthAdjust="spacing" textLength="58.1602" x="340" y="478.6755">&#171;include&#187;</text></g><!--link UC4 to UC6--><g class="link" data-entity-1="ent0008" data-entity-2="ent0009" data-link-type="dependency" data-source-line="53" id="lnk21"><path d="M272.08,529.5869 C242.44,535.3069 207.47,543.4869 177,554.4869 C149.7,564.3469 144,569.7469 119,584.4869 C105.8,592.2669 95.4996,599.0888 84.8796,606.4488" fill="none" id="UC4-to-UC6" style="stroke:#000000;stroke-width:0.75;stroke-dasharray:7,7;"/><polygon fill="#000000" points="80.77,609.2969,90.4457,607.458,84.8796,606.4488,85.8888,600.8827,80.77,609.2969" style="stroke:#000000;stroke-width:0.75;stroke-linejoin:miter;stroke-miterlimit:10;"/><text fill="#000000" font-family="Helvetica" font-size="12" lengthAdjust="spacing" textLength="56.4785" x="178" y="566.6255">&#171;extend&#187;</text></g><!--link UC4 to UC7--><g class="link" data-entity-1="ent0008" data-entity-2="ent0010" data-link-type="dependency" data-source-line="54" id="lnk22"><path d="M333.94,539.5469 C329.06,559.3469 322.9962,583.9521 318.7162,601.3221" fill="none" id="UC4-to-UC7" style="stroke:#000000;stroke-width:0.75;stroke-dasharray:7,7;"/><polygon fill="#000000" points="317.52,606.1769,323.5571,598.3952,318.7162,601.3221,315.7894,596.4813,317.52,606.1769" style="stroke:#000000;stroke-width:0.75;stroke-linejoin:miter;stroke-miterlimit:10;"/><text fill="#000000" font-family="Helvetica" font-size="12" lengthAdjust="spacing" textLength="56.4785" x="331.2" y="566.6255">&#171;extend&#187;</text></g><!--link UC4 to UC8--><g class="link" data-entity-1="ent0008" data-entity-2="ent0011" data-link-type="dependency" data-source-line="55" id="lnk23"><path d="M297.08,536.4869 C285.74,541.7769 273.67,547.9269 263,554.4869 C236.14,570.9969 211.6599,591.3695 195.7299,605.4195" fill="none" id="UC4-to-UC8" style="stroke:#000000;stroke-width:0.75;stroke-dasharray:7,7;"/><polygon fill="#000000" points="191.98,608.7269,201.3756,605.7736,195.7299,605.4195,196.0839,599.7738,191.98,608.7269" style="stroke:#000000;stroke-width:0.75;stroke-linejoin:miter;stroke-miterlimit:10;"/><text fill="#000000" font-family="Helvetica" font-size="12" lengthAdjust="spacing" textLength="56.4785" x="264" y="566.6255">&#171;extend&#187;</text></g><!--link UC4 to UC9--><g class="link" data-entity-1="ent0008" data-entity-2="ent0012" data-link-type="dependency" data-source-line="56" id="lnk24"><path d="M375.08,537.3669 C384.92,542.6569 395.49,548.5869 405,554.4869 C431.25,570.7669 456.0413,588.7051 474.5313,602.5851" fill="none" id="UC4-to-UC9" style="stroke:#000000;stroke-width:0.75;stroke-dasharray:7,7;"/><polygon fill="#000000" points="478.53,605.5869,473.7337,596.9848,474.5313,602.5851,468.931,603.3827,478.53,605.5869" style="stroke:#000000;stroke-width:0.75;stroke-linejoin:miter;stroke-miterlimit:10;"/><text fill="#000000" font-family="Helvetica" font-size="12" lengthAdjust="spacing" textLength="58.1602" x="426.97" y="566.6255">&#171;include&#187;</text></g><!--link UC7 to UC10--><g class="link" data-entity-1="ent0010" data-entity-2="ent0013" data-link-type="dependency" data-source-line="57" id="lnk25"><path d="M315.45,636.7269 C317.62,651.3169 322.97,673.8669 336,688.4569 C343.86,697.2569 350.1422,701.746 360.8422,706.446" fill="none" id="UC7-to-UC10" style="stroke:#000000;stroke-width:0.75;stroke-dasharray:7,7;"/><polygon fill="#000000" points="365.42,708.4569,358.7886,701.1751,360.8422,706.446,355.5712,708.4997,365.42,708.4569" style="stroke:#000000;stroke-width:0.75;stroke-linejoin:miter;stroke-miterlimit:10;"/><text fill="#000000" font-family="Helvetica" font-size="12" lengthAdjust="spacing" textLength="58.1602" x="337" y="685.5955">&#171;include&#187;</text></g><!--link UC6 to UC11--><g class="link" data-entity-1="ent0009" data-entity-2="ent0014" data-link-type="dependency" data-source-line="58" id="lnk26"><path d="M71.33,634.6069 C79.37,649.0469 94.45,673.1069 113,688.4569 C121.2,695.2369 126.602,698.785 136.242,703.355" fill="none" id="UC6-to-UC11" style="stroke:#000000;stroke-width:0.75;stroke-dasharray:7,7;"/><polygon fill="#000000" points="140.76,705.4969,134.341,698.0271,136.242,703.355,130.9141,705.256,140.76,705.4969" style="stroke:#000000;stroke-width:0.75;stroke-linejoin:miter;stroke-miterlimit:10;"/><text fill="#000000" font-family="Helvetica" font-size="12" lengthAdjust="spacing" textLength="58.1602" x="114" y="685.5955">&#171;include&#187;</text></g><!--link UC8 to UC11--><g class="link" data-entity-1="ent0011" data-entity-2="ent0014" data-link-type="dependency" data-source-line="59" id="lnk27"><path d="M179,634.7669 C179,652.1269 179,678.8269 179,698.1669" fill="none" id="UC8-to-UC11" style="stroke:#000000;stroke-width:0.75;stroke-dasharray:7,7;"/><polygon fill="#000000" points="179,703.1669,183,694.1669,179,698.1669,175,694.1669,179,703.1669" style="stroke:#000000;stroke-width:0.75;stroke-linejoin:miter;stroke-miterlimit:10;"/><text fill="#000000" font-family="Helvetica" font-size="12" lengthAdjust="spacing" textLength="58.1602" x="180" y="685.5955">&#171;include&#187;</text></g><!--link READER to UC10--><g class="link" data-entity-1="ent0002" data-entity-2="ent0013" data-link-type="dependency" data-source-line="60" id="lnk28"><path d="M599.37,643.6469 C593.63,648.7769 587.27,654.0569 581,658.4569 C557.89,674.6869 551.32,678.2269 525,688.4569 C500.65,697.9169 477.328,704.2291 454.178,709.4391" fill="none" id="READER-to-UC10" style="stroke:#000000;stroke-width:0.75;"/><polygon fill="#000000" points="449.3,710.5369,458.9586,712.4632,454.178,709.4391,457.2021,704.6584,449.3,710.5369" style="stroke:#000000;stroke-width:0.75;stroke-linejoin:miter;stroke-miterlimit:10;"/></g><!--link READER to UC11--><g class="link" data-entity-1="ent0002" data-entity-2="ent0014" data-link-type="dependency" data-source-line="61" id="lnk29"><path d="M599.4,645.8769 C593.84,650.7169 587.56,655.2869 581,658.4569 C551.15,672.8469 353.8231,698.4005 248.0831,711.3205" fill="none" id="READER-to-UC11" style="stroke:#000000;stroke-width:0.75;"/><polygon fill="#000000" points="243.12,711.9269,252.5387,714.8058,248.0831,711.3205,251.5684,706.8648,243.12,711.9269" style="stroke:#000000;stroke-width:0.75;stroke-linejoin:miter;stroke-miterlimit:10;"/></g><!--link UC0 to UC6--><!--link UC1 to UC7--><!--link UC2 to UC8--><!--link UC3 to UC9--><!--link UC4 to UC10--><?plantuml-src ZLHTRzem57tFhxXY3tlOO0Gwe5DLAItqGnejeaMRjEx1E1Um27PaEwNTD6a_OhzmlsGtYTdCKcWZeIJt79zxVNp2QyXMIJqMRAxPoZIKdeF66MgK7C7OnmJXzyzVzAG5jt0zF8V9y2Eq6WzlOQMauWkjLXYOfP0f8mMl25PdFZ9bV3dNAfFngKgKXbTdnUKnOfonBB5dIjehHW8NcDoZ5PmzpRaHtn32bWUQ1OlLMiWvp5XY_EOyOSP4bdOnpInUSYMBrKsFuaRJ4ZNLFI3YLkcJPwSlQKh7g1sbMLmUPMAGCuFFQss8UzN6o2sJy-G5Ul-eUnL79CJcBz3R4FUgHLghzLxmTY7uKg8nq6nqttjelppbMtomkmIy86nJ0YiifPOhjPpIhpwZJ6FkA9oIfT0lequqbO9LC5NMAf8JcZmIIdejf8hHO0ejVpJDv38ljlrXqjAFc-9xqHkpWu3bcO0eimkwCGFHvFRYUkpAOsJaNbuU3wB-O1m4VrT2RNly6dmF0B8o5L2xIP6BsIEDdmf-9vcCmQXCSpIrN6voslJPP4z2mh1Y5hMW3yEHGfzqZfHx8e3AR28aEaxBvqHfgjNz_vIsJ_ca1Mdm1Kkf5mpxd-_acpMbX8uZazQjEF1N35R2mgX_vh1E1RkY46W6XeGTfrlX34QJ4mVsdjnLxl1mu2Y7FkM4SaZtDKwz3k6MWNsrbebYSJxcEwzL60O_Wg0yKwZNZmlZjrxR0PMWqSYVG_W0HqT2yYIByVWuo2ibqgeWBOUqAqZR8GSLvC0XdG8Xqr36Mq1t5z3R1HnMcdGtcsbMeCu6gcwqjmigW-_C8jEttyEWiA_-PI7Y6ELN-c-NzI8ZkNULShSmhbBk5QvLoeV5FYjb6k8F?></g></svg>