<svg xmlns="http://www.w3.org/2000/svg" xmlns:xlink="http://www.w3.org/1999/xlink" contentStyleType="text/css" data-diagram-type="DESCRIPTION" height="1105px" preserveAspectRatio="none" style="width:417px;height:1105px;background:#FFFFFF;" version="1.1" viewBox="0 0 417 1105" width="417px" zoomAndPan="magnify"><?plantuml 1.2026.6?><defs/><g><g class="title" data-source-line="23"><text fill="#000000" font-family="'WenQuanYi Micro Hei'" font-size="14" font-weight="700" lengthAdjust="spacing" textLength="171.2061" x="119.7765" y="24.0752">cookbook-forge &#29992;&#20363;&#22270;</text></g><!--cluster cookbook-forge--><g class="cluster" data-qualified-name="cookbook-forge" data-source-line="33" id="ent0003"><rect fill="#FFFFFF" height="941.62" style="stroke:#000000;stroke-width:1;" width="350" x="49" y="150.1046"/><text fill="#000000" font-family="'WenQuanYi Micro Hei'" font-size="12" font-weight="700" lengthAdjust="spacing" textLength="105.8965" x="171.0518" y="164.1691">cookbook-forge</text></g><!--entity UC0--><g class="entity" data-qualified-name="cookbook-forge.UC0" data-source-line="34" id="ent0004"><ellipse cx="251.9977" cy="197.2282" fill="#FFFFFF" rx="58.6177" ry="14.1235" style="stroke:#000000;stroke-width:0.5;"/><text fill="#000000" font-family="'WenQuanYi Micro Hei'" font-size="12" lengthAdjust="spacing" textLength="84" x="209.9977" y="201.0202">&#25351;&#23450;&#20027;&#39064;&#19982;&#36164;&#26009;</text></g><!--entity UC1--><g class="entity" data-qualified-name="cookbook-forge.UC1" data-source-line="35" id="ent0005"><ellipse cx="199.9971" cy="281.0801" fill="#FFFFFF" rx="106.6771" ry="23.7354" style="stroke:#000000;stroke-width:0.5;"/><text fill="#000000" font-family="'WenQuanYi Micro Hei'" font-size="12" lengthAdjust="spacing" textLength="72" x="163.9971" y="272.7188">&#37319;&#38598;&#22810;&#28304;&#36164;&#26009;</text><text fill="#000000" font-family="'WenQuanYi Micro Hei'" font-size="12" lengthAdjust="spacing" textLength="183.1465" x="108.4239" y="287.3028">(&#32593;&#39029;/GitHub/arxiv/PDF/EPUB)</text></g><!--entity UC2--><g class="entity" data-qualified-name="cookbook-forge.UC2" data-source-line="36" id="ent0006"><ellipse cx="237.9992" cy="367.8665" fill="#FFFFFF" rx="73.2092" ry="17.0418" style="stroke:#000000;stroke-width:0.5;"/><text fill="#000000" font-family="'WenQuanYi Micro Hei'" font-size="12" lengthAdjust="spacing" textLength="120" x="177.9992" y="371.6585">&#29983;&#25104;&#20840;&#26223;&#22270;&#19982;&#31456;&#33410;&#22823;&#32434;</text></g><!--entity UC3--><g class="entity" data-qualified-name="cookbook-forge.UC3" data-source-line="37" id="ent0007"><ellipse cx="304.0017" cy="444.2171" fill="#FFFFFF" rx="53.9117" ry="13.3124" style="stroke:#000000;stroke-width:0.5;"/><text fill="#000000" font-family="'WenQuanYi Micro Hei'" font-size="12" lengthAdjust="spacing" textLength="72" x="268.0017" y="448.0091">&#29992;&#25143;&#30830;&#35748;&#22823;&#32434;</text></g><!--entity UC4--><g class="entity" data-qualified-name="cookbook-forge.UC4" data-source-line="38" id="ent0008"><ellipse cx="255.999" cy="517.3344" fill="#FFFFFF" rx="57.049" ry="13.8098" style="stroke:#000000;stroke-width:0.5;"/><text fill="#000000" font-family="'WenQuanYi Micro Hei'" font-size="12" lengthAdjust="spacing" textLength="79.7988" x="216.0996" y="521.1264">&#36880;&#31456;&#20889;&#20316; MDX</text></g><!--entity UC5--><g class="entity" data-qualified-name="cookbook-forge.UC5" data-source-line="39" id="ent0009"><ellipse cx="201.0017" cy="590.4671" fill="#FFFFFF" rx="53.9117" ry="13.3124" style="stroke:#000000;stroke-width:0.5;"/><text fill="#000000" font-family="'WenQuanYi Micro Hei'" font-size="12" lengthAdjust="spacing" textLength="72" x="165.0017" y="594.2591">&#23383;&#25968;&#36798;&#26631;&#26657;&#39564;</text></g><!--entity UC6--><g class="entity" data-qualified-name="cookbook-forge.UC6" data-source-line="40" id="ent0010"><ellipse cx="305.0029" cy="667.7452" fill="#FFFFFF" rx="77.8529" ry="17.9706" style="stroke:#000000;stroke-width:0.5;"/><text fill="#000000" font-family="'WenQuanYi Micro Hei'" font-size="12" lengthAdjust="spacing" textLength="130.7461" x="239.6299" y="671.5372">&#36755;&#20986; ElegantBook PDF</text></g><!--entity UC7--><g class="entity" data-qualified-name="cookbook-forge.UC7" data-source-line="41" id="ent0011"><ellipse cx="239.0044" cy="746.8275" fill="#FFFFFF" rx="63.5644" ry="15.1129" style="stroke:#000000;stroke-width:0.5;"/><text fill="#000000" font-family="'WenQuanYi Micro Hei'" font-size="12" lengthAdjust="spacing" textLength="96.7207" x="190.6441" y="750.6195">&#36755;&#20986; Nextra &#32593;&#31449;</text></g><!--entity UC8--><g class="entity" data-qualified-name="cookbook-forge.UC8" data-source-line="42" id="ent0012"><ellipse cx="270.9976" cy="807.0622" fill="#FFFFFF" rx="58.6376" ry="14.1275" style="stroke:#000000;stroke-width:0.5;"/><text fill="#000000" font-family="'WenQuanYi Micro Hei'" font-size="12" lengthAdjust="spacing" textLength="84.0527" x="228.9712" y="810.8542">&#36755;&#20986;&#20248;&#21270; EPUB</text></g><!--entity UC9--><g class="entity" data-qualified-name="cookbook-forge.UC9" data-source-line="43" id="ent0013"><ellipse cx="136.0021" cy="904.4871" fill="#FFFFFF" rx="71.2121" ry="16.6424" style="stroke:#000000;stroke-width:0.5;"/><text fill="#000000" font-family="'WenQuanYi Micro Hei'" font-size="12" lengthAdjust="spacing" textLength="115.3008" x="78.3518" y="908.2791">&#29983;&#25104;&#20013;&#33521;&#25991; README</text></g><!--entity UC10--><g class="entity" data-qualified-name="cookbook-forge.UC10" data-source-line="44" id="ent0014"><ellipse cx="163.0017" cy="1001.0971" fill="#FFFFFF" rx="53.9117" ry="13.3124" style="stroke:#000000;stroke-width:0.5;"/><text fill="#000000" font-family="'WenQuanYi Micro Hei'" font-size="12" lengthAdjust="spacing" textLength="72" x="127.0017" y="1004.8891">&#22312;&#32447;&#27983;&#35272;&#32593;&#31449;</text></g><!--entity UC11--><g class="entity" data-qualified-name="cookbook-forge.UC11" data-source-line="45" id="ent0015"><ellipse cx="212.0033" cy="1060.5653" fill="#FFFFFF" rx="63.8033" ry="15.1607" style="stroke:#000000;stroke-width:0.5;"/><text fill="#000000" font-family="'WenQuanYi Micro Hei'" font-size="12" lengthAdjust="spacing" textLength="97.3184" x="163.3441" y="1064.3573">&#19979;&#36733; PDF / EPUB</text></g><!--entity AUTHOR--><g class="entity" data-qualified-name="AUTHOR" data-source-line="30" id="ent0001"><ellipse cx="300" cy="52.0146" fill="#FFFFFF" rx="8" ry="8" style="stroke:#000000;stroke-width:0.5;"/><path d="M300,60.0146 L300,87.0146 M287,68.0146 L313,68.0146 M300,87.0146 L287,102.0146 M300,87.0146 L313,102.0146" fill="none" style="stroke:#000000;stroke-width:0.5;"/><text fill="#000000" font-family="'WenQuanYi Micro Hei'" font-size="12" lengthAdjust="spacing" textLength="24" x="288" y="115.5791">&#20316;&#32773;</text></g><!--entity READER--><g class="entity" data-qualified-name="READER" data-source-line="31" id="ent0002"><ellipse cx="19" cy="875.6946" fill="#FFFFFF" rx="8" ry="8" style="stroke:#000000;stroke-width:0.5;"/><path d="M19,883.6946 L19,910.6946 M6,891.6946 L32,891.6946 M19,910.6946 L6,925.6946 M19,910.6946 L32,925.6946" fill="none" style="stroke:#000000;stroke-width:0.5;"/><text fill="#000000" font-family="'WenQuanYi Micro Hei'" font-size="12" lengthAdjust="spacing" textLength="24" x="7" y="939.2591">&#35835;&#32773;</text></g><!--link AUTHOR to UC0--><g class="link" data-entity-1="ent0001" data-entity-2="ent0004" data-link-type="dependency" data-source-line="48" id="lnk16"><path d="M286.12,114.9046 C276.65,137.4746 266.5463,161.5648 259.5863,178.1348" fill="none" id="AUTHOR-to-UC0" style="stroke:#000000;stroke-width:0.75;"/><polygon fill="#000000" points="257.65,182.7446,264.8232,175.996,259.5863,178.1348,257.4475,172.8979,257.65,182.7446" style="stroke:#000000;stroke-width:0.75;stroke-linejoin:miter;stroke-miterlimit:10;"/></g><!--link AUTHOR to UC3--><g class="link" data-entity-1="ent0001" data-entity-2="ent0007" data-link-type="dependency" data-source-line="49" id="lnk17"><path d="M313.91,100.9946 C328.4,122.8946 349,160.3546 349,196.2246 C349,196.2246 349,196.2246 349,368.8646 C349,393.6046 334.0048,413.5694 320.7348,427.2994" fill="none" id="AUTHOR-to-UC3" style="stroke:#000000;stroke-width:0.75;"/><polygon fill="#000000" points="317.26,430.8946,326.3908,427.203,320.7348,427.2994,320.6384,421.6434,317.26,430.8946" style="stroke:#000000;stroke-width:0.75;stroke-linejoin:miter;stroke-miterlimit:10;"/></g><!--link UC0 to UC1--><g class="link" data-entity-1="ent0004" data-entity-2="ent0005" data-link-type="dependency" data-source-line="50" id="lnk18"><path d="M215.09,208.6146 C206.76,212.7546 198.93,218.4746 194,226.3446 C188.32,235.4146 187.7464,242.1972 190.1264,252.3272" fill="none" id="UC0-to-UC1" style="stroke:#000000;stroke-width:0.75;stroke-dasharray:7,7;"/><polygon fill="#000000" points="191.27,257.1946,193.1055,247.5183,190.1264,252.3272,185.3176,249.3481,191.27,257.1946" style="stroke:#000000;stroke-width:0.75;stroke-linejoin:miter;stroke-miterlimit:10;"/><text fill="#000000" font-family="'WenQuanYi Micro Hei'" font-size="12" lengthAdjust="spacing" textLength="58.1191" x="195" y="239.4091">&#171;include&#187;</text></g><!--link UC0 to UC1--><!--link UC1 to UC2--><g class="link" data-entity-1="ent0005" data-entity-2="ent0006" data-link-type="dependency" data-source-line="51" id="lnk19"><path d="M185.98,305.0246 C181.8,314.9446 179.61,326.4046 185,335.8146 C188.98,342.7546 190.9645,345.5902 197.7445,349.9502" fill="none" id="UC1-to-UC2" style="stroke:#000000;stroke-width:0.75;stroke-dasharray:7,7;"/><polygon fill="#000000" points="201.95,352.6546,196.5437,344.4223,197.7445,349.9502,192.2166,351.1511,201.95,352.6546" style="stroke:#000000;stroke-width:0.75;stroke-linejoin:miter;stroke-miterlimit:10;"/><text fill="#000000" font-family="'WenQuanYi Micro Hei'" font-size="12" lengthAdjust="spacing" textLength="58.1191" x="186" y="332.8791">&#171;include&#187;</text></g><!--link UC1 to UC2--><!--link UC2 to UC3--><g class="link" data-entity-1="ent0006" data-entity-2="ent0007" data-link-type="dependency" data-source-line="52" id="lnk20"><path d="M233.29,384.9846 C231.44,394.7246 230.98,406.9546 237,415.9046 C243.17,425.0746 248.3571,429.3443 258.6271,433.3843" fill="none" id="UC2-to-UC3" style="stroke:#000000;stroke-width:0.75;stroke-dasharray:7,7;"/><polygon fill="#000000" points="263.28,435.2146,256.369,428.1976,258.6271,433.3843,253.4404,435.6423,263.28,435.2146" style="stroke:#000000;stroke-width:0.75;stroke-linejoin:miter;stroke-miterlimit:10;"/><text fill="#000000" font-family="'WenQuanYi Micro Hei'" font-size="12" lengthAdjust="spacing" textLength="58.1191" x="238" y="412.9691">&#171;include&#187;</text></g><!--link UC2 to UC3--><!--link UC3 to UC4--><g class="link" data-entity-1="ent0007" data-entity-2="ent0008" data-link-type="dependency" data-source-line="53" id="lnk21"><path d="M271.33,455.1546 C263.31,459.2246 255.69,464.8346 251,472.5246 C245.42,481.6746 245.9069,489.1655 248.8769,498.3855" fill="none" id="UC3-to-UC4" style="stroke:#000000;stroke-width:0.75;stroke-dasharray:7,7;"/><polygon fill="#000000" points="250.41,503.1446,251.4578,493.3517,248.8769,498.3855,243.8432,495.8046,250.41,503.1446" style="stroke:#000000;stroke-width:0.75;stroke-linejoin:miter;stroke-miterlimit:10;"/><text fill="#000000" font-family="'WenQuanYi Micro Hei'" font-size="12" lengthAdjust="spacing" textLength="58.1191" x="252" y="485.5891">&#171;include&#187;</text></g><!--link UC3 to UC4--><!--link UC4 to UC5--><g class="link" data-entity-1="ent0008" data-entity-2="ent0009" data-link-type="dependency" data-source-line="54" id="lnk22"><path d="M218.48,527.9746 C209.63,532.0946 201.25,537.9246 196,546.1446 C190.21,555.2046 190.8011,562.8038 193.8811,571.9938" fill="none" id="UC4-to-UC5" style="stroke:#000000;stroke-width:0.75;stroke-dasharray:7,7;"/><polygon fill="#000000" points="195.47,576.7346,196.4027,566.9301,193.8811,571.9938,188.8174,569.4723,195.47,576.7346" style="stroke:#000000;stroke-width:0.75;stroke-linejoin:miter;stroke-miterlimit:10;"/><text fill="#000000" font-family="'WenQuanYi Micro Hei'" font-size="12" lengthAdjust="spacing" textLength="58.1191" x="197" y="559.2091">&#171;include&#187;</text></g><!--link UC4 to UC5--><!--link UC5 to UC6--><g class="link" data-entity-1="ent0009" data-entity-2="ent0010" data-link-type="dependency" data-source-line="55" id="lnk23"><path d="M226.1,602.6046 C235.21,607.1046 245.38,612.6746 254,618.7746 C266.9,627.8946 276.3492,636.5547 285.9792,646.3747" fill="none" id="UC5-to-UC6" style="stroke:#000000;stroke-width:0.75;stroke-dasharray:7,7;"/><polygon fill="#000000" points="289.48,649.9446,286.0344,640.7182,285.9792,646.3747,280.3226,646.3195,289.48,649.9446" style="stroke:#000000;stroke-width:0.75;stroke-linejoin:miter;stroke-miterlimit:10;"/><text fill="#000000" font-family="'WenQuanYi Micro Hei'" font-size="12" lengthAdjust="spacing" textLength="56.666" x="274.4" y="631.8391">&#171;extend&#187;</text></g><!--link UC5 to UC6--><!--link UC5 to UC7--><g class="link" data-entity-1="ent0009" data-entity-2="ent0011" data-link-type="dependency" data-source-line="56" id="lnk24"><path d="M180.62,603.1046 C165.17,613.2146 145.08,629.4246 136,649.7746 C129.49,664.3546 128.05,671.8646 136,685.7146 C149.87,709.8646 172.938,723.4019 196.138,732.5419" fill="none" id="UC5-to-UC7" style="stroke:#000000;stroke-width:0.75;stroke-dasharray:7,7;"/><polygon fill="#000000" points="200.79,734.3746,193.8826,727.3541,196.138,732.5419,190.9502,734.7973,200.79,734.3746" style="stroke:#000000;stroke-width:0.75;stroke-linejoin:miter;stroke-miterlimit:10;"/><text fill="#000000" font-family="'WenQuanYi Micro Hei'" font-size="12" lengthAdjust="spacing" textLength="56.666" x="137" y="672.8091">&#171;extend&#187;</text></g><!--link UC5 to UC8--><g class="link" data-entity-1="ent0009" data-entity-2="ent0012" data-link-type="dependency" data-source-line="57" id="lnk25"><path d="M199.33,604.1746 C197.49,623.7346 196.83,661.4946 215,685.7146 C222.34,695.4946 308.4,721.4146 315,731.7146 C322.25,743.0246 320.13,749.5246 315,761.9346 C309.79,774.5346 302.9221,782.2613 293.3621,790.0713" fill="none" id="UC5-to-UC8" style="stroke:#000000;stroke-width:0.75;stroke-dasharray:7,7;"/><polygon fill="#000000" points="289.49,793.2346,298.9905,790.6384,293.3621,790.0713,293.9292,784.443,289.49,793.2346" style="stroke:#000000;stroke-width:0.75;stroke-linejoin:miter;stroke-miterlimit:10;"/><text fill="#000000" font-family="'WenQuanYi Micro Hei'" font-size="12" lengthAdjust="spacing" textLength="56.666" x="286.16" y="713.7791">&#171;extend&#187;</text></g><!--link UC5 to UC9--><g class="link" data-entity-1="ent0009" data-entity-2="ent0013" data-link-type="dependency" data-source-line="58" id="lnk26"><path d="M167.05,601.2146 C157.08,605.3646 146.77,611.0746 139,618.7746 C118.96,638.6246 105.04,716.2746 103,731.7146 C95.38,789.5146 115.9517,852.5692 127.6117,882.8192" fill="none" id="UC5-to-UC9" style="stroke:#000000;stroke-width:0.75;stroke-dasharray:7,7;"/><polygon fill="#000000" points="129.41,887.4846,129.9054,877.6483,127.6117,882.8192,122.4407,880.5255,129.41,887.4846" style="stroke:#000000;stroke-width:0.75;stroke-linejoin:miter;stroke-miterlimit:10;"/><text fill="#000000" font-family="'WenQuanYi Micro Hei'" font-size="12" lengthAdjust="spacing" textLength="58.1191" x="104" y="751.8891">&#171;include&#187;</text></g><!--link UC7 to UC10--><g class="link" data-entity-1="ent0011" data-entity-2="ent0014" data-link-type="dependency" data-source-line="59" id="lnk27"><path d="M222.78,761.5346 C214.36,769.7046 204.83,780.8246 200,792.9346 C192.87,810.8146 198.44,816.9546 198,836.1946 C197.84,843.3046 194.68,845.9046 198,852.1946 C203.53,862.6546 214.47,856.7346 220,867.1946 C235.49,896.5046 232.51,911.0846 220,941.7746 C212.09,961.1846 198.2494,974.5943 184.6194,985.0343" fill="none" id="UC7-to-UC10" style="stroke:#000000;stroke-width:0.75;stroke-dasharray:7,7;"/><polygon fill="#000000" points="180.65,988.0746,190.2272,985.7775,184.6194,985.0343,185.3626,979.4264,180.65,988.0746" style="stroke:#000000;stroke-width:0.75;stroke-linejoin:miter;stroke-miterlimit:10;"/><text fill="#000000" font-family="'WenQuanYi Micro Hei'" font-size="12" lengthAdjust="spacing" textLength="58.1191" x="199" y="849.2591">&#171;include&#187;</text></g><!--link UC6 to UC11--><g class="link" data-entity-1="ent0010" data-entity-2="ent0015" data-link-type="dependency" data-source-line="60" id="lnk28"><path d="M311.93,686.0646 C320.99,709.7446 336.36,753.7446 342,792.9346 C351.48,858.8246 314.4,963.5046 309,972.7746 C290.46,1004.6046 260.3534,1028.3009 237.9134,1043.3409" fill="none" id="UC6-to-UC11" style="stroke:#000000;stroke-width:0.75;stroke-dasharray:7,7;"/><polygon fill="#000000" points="233.76,1046.1246,243.4631,1044.4366,237.9134,1043.3409,239.0091,1037.7912,233.76,1046.1246" style="stroke:#000000;stroke-width:0.75;stroke-linejoin:miter;stroke-miterlimit:10;"/><text fill="#000000" font-family="'WenQuanYi Micro Hei'" font-size="12" lengthAdjust="spacing" textLength="58.1191" x="343.64" y="849.2591">&#171;include&#187;</text></g><!--link UC8 to UC11--><g class="link" data-entity-1="ent0012" data-entity-2="ent0015" data-link-type="dependency" data-source-line="61" id="lnk29"><path d="M269.06,821.2746 C264.06,854.2646 249.64,942.7446 229,1014.4046 C225.99,1024.8646 223.5234,1031.7189 219.9834,1040.4789" fill="none" id="UC8-to-UC11" style="stroke:#000000;stroke-width:0.75;stroke-dasharray:7,7;"/><polygon fill="#000000" points="218.11,1045.1146,225.1907,1038.2689,219.9834,1040.4789,217.7734,1035.2715,218.11,1045.1146" style="stroke:#000000;stroke-width:0.75;stroke-linejoin:miter;stroke-miterlimit:10;"/><text fill="#000000" font-family="'WenQuanYi Micro Hei'" font-size="12" lengthAdjust="spacing" textLength="58.1191" x="244.31" y="969.8391">&#171;include&#187;</text></g><!--link READER to UC10--><g class="link" data-entity-1="ent0002" data-entity-2="ent0014" data-link-type="dependency" data-source-line="62" id="lnk30"><path d="M32.8,923.7246 C38.06,929.9346 44.39,936.6046 51,941.7746 C77.24,962.3146 107.2041,977.0555 130.9641,987.2355" fill="none" id="READER-to-UC10" style="stroke:#000000;stroke-width:0.75;"/><polygon fill="#000000" points="135.56,989.2046,128.8626,981.9835,130.9641,987.2355,125.712,989.337,135.56,989.2046" style="stroke:#000000;stroke-width:0.75;stroke-linejoin:miter;stroke-miterlimit:10;"/></g><!--link READER to UC11--><g class="link" data-entity-1="ent0002" data-entity-2="ent0015" data-link-type="dependency" data-source-line="63" id="lnk31"><path d="M32.82,933.0946 C46.26,957.4446 68.74,992.3946 97,1014.4046 C118.07,1030.8146 141.0628,1040.4687 164.0428,1047.5687" fill="none" id="READER-to-UC11" style="stroke:#000000;stroke-width:0.75;"/><polygon fill="#000000" points="168.82,1049.0446,161.4019,1042.5661,164.0428,1047.5687,159.0403,1050.2096,168.82,1049.0446" style="stroke:#000000;stroke-width:0.75;stroke-linejoin:miter;stroke-miterlimit:10;"/></g><!--link UC6 to UC7--><!--link UC7 to UC8--><!--link UC8 to UC9--><!--link UC9 to UC10--><!--link UC10 to UC11--><?plantuml-src ZLLTQnj757tVNt5H7jf2z6rPTWa6EPRZGfKuZaLRsZwCTiVIelMCcPrjd9Q2AKbaOjEwr7NZ952x668QuhG5K-FKwdyfsjNgNsHsj6fccTZ9Wc3td3DdxZrp1xq7thAJjcpKP6ZPpL3M18QNCCF4nE3oEmw6_zQsnHkpJGutQjUWNliO2fdLox1C2JLRZ2vZmstRP0K91mK4pZoLQI2ptMJK8zPLwb06bsRbeoWil8GyXyzImgyZOP3w19ER7YAVsL2pJKPX3jkfD-jlsLzZo1SKqcqXYzwsIHEMaEEgXPWESjqA5nqrF8u_CYcHgtEA92wJ4Sm4hX0LarCs_TPEXZBABCnYIKu-YgJkOXEv-ErU8-65RWlOv8WqdNVmUoszq75U6A7cE_YDX1UwLHYZjoya5rkssIROTI6NAPSKTcPuoejubPzde0n2Kc9mcui9DYbjDyGllIJc6qD_-x3NtV0VTmLFLu1JQ53EgV2ncGZ7faJn9jJ2Bbw1WbeJGwGTWKMrYfLX4BVafM6Zb0q3HSC0lRCduTezG2vKwejpDnPYE7pnCeONgfMPwe9X_ByIKicwK_2D0U0Dnm5ImMR7FthKEtav-ErXx-JxyFXkiBERYfpgLtEgSD3f31xVzmyU1QTRGzKNvFt-sO-3_UFiDPlFUOqiOglsLzdvcTbiTRu-_K7iabTT-jk_1kjR_ht3OFU5Y4xis7-s5pxupZzusZ_zArvHIAuu3DR_xkyVXKS72LKnKTtQbZ3ox--AWA0sysci6LCr_lDVWf__2BlTOAyJxEqFVj-CLILL5NP_yZkdK7Lm4n4-BN83qL6i77-3yheOAOP0HD5_DagkhEjw_ppqDtSWIYOMJUZ1z4wUXnj_1ZiTUOwrQgoSJBJnvB1_-czm_4FuT3snQJvnNhsJZV3iBAeTikgk-RpnhM4CfmVIwIbvpedFeY4Wo6IYzpny25UksCHqF0jFJHaHCcGA6bE8cQB656DcJ6F6OgQaCQMO6PUCo1WJAq6KpoCcpYCcjKtAepPp6ZK-elG89iwZXfSlZb4SH_8xRyXWqv-tRCl2v4lnnqBIye94gMfmGKQgmKMPfmQFoJ0rk6J8LZIyB9lNu0dPdGPF6b5uUk4vGqQd4xBLqck2sSqMZvZnLm00?></g></svg>