<svg xmlns="http://www.w3.org/2000/svg" xmlns:xlink="http://www.w3.org/1999/xlink" contentStyleType="text/css" data-diagram-type="DESCRIPTION" height="736px" preserveAspectRatio="none" style="width:632px;height:736px;background:#FFFFFF;" version="1.1" viewBox="0 0 632 736" width="632px" zoomAndPan="magnify"><?plantuml 1.2026.6?><defs/><g><g class="title" data-source-line="23"><text fill="#000000" font-family="'WenQuanYi Micro Hei'" font-size="14" font-weight="700" lengthAdjust="spacing" textLength="170.2283" x="227.3858" y="22.9951">cookbook-forge &#29992;&#20363;&#22270;</text></g><!--cluster cookbook-forge--><g class="cluster" data-qualified-name="cookbook-forge" data-source-line="33" id="ent0003"><rect fill="#FFFFFF" height="573.28" style="stroke:#000000;stroke-width:1;" width="567" x="7" y="148.7669"/><text fill="#000000" font-family="'WenQuanYi Micro Hei'" font-size="12" font-weight="700" lengthAdjust="spacing" textLength="105.7324" x="237.6338" y="161.9055">cookbook-forge</text></g><!--entity UC0--><g class="entity" data-qualified-name="cookbook-forge.UC0" data-source-line="34" id="ent0004"><ellipse cx="197.002" cy="194.7013" fill="#FFFFFF" rx="57.622" ry="13.9244" style="stroke:#000000;stroke-width:0.5;"/><text fill="#000000" font-family="'WenQuanYi Micro Hei'" font-size="12" lengthAdjust="spacing" textLength="84.0006" x="155.0017" y="198.1857">&#25351;&#23450;&#20027;&#39064;&#19982;&#36164;&#26009;</text></g><!--entity UC1--><g class="entity" data-qualified-name="cookbook-forge.UC1" data-source-line="35" id="ent0005"><ellipse cx="196.9953" cy="266.6479" fill="#FFFFFF" rx="53.1553" ry="13.0311" style="stroke:#000000;stroke-width:0.5;"/><text fill="#000000" font-family="'WenQuanYi Micro Hei'" font-size="12" lengthAdjust="spacing" textLength="72.0005" x="160.9951" y="270.1323">&#37319;&#38598;&#22810;&#28304;&#36164;&#26009;</text></g><!--entity UC2--><g class="entity" data-qualified-name="cookbook-forge.UC2" data-source-line="36" id="ent0006"><ellipse cx="227.9997" cy="339.5488" fill="#FFFFFF" rx="62.3597" ry="14.8719" style="stroke:#000000;stroke-width:0.5;"/><text fill="#000000" font-family="'WenQuanYi Micro Hei'" font-size="12" lengthAdjust="spacing" textLength="96.0007" x="179.9993" y="343.0332">&#29983;&#25104;&#20840;&#26223;&#22270;&#19982;&#22823;&#32434;</text></g><!--entity UC3--><g class="entity" data-qualified-name="cookbook-forge.UC3" data-source-line="37" id="ent0007"><ellipse cx="327.9953" cy="412.4579" fill="#FFFFFF" rx="53.1553" ry="13.0311" style="stroke:#000000;stroke-width:0.5;"/><text fill="#000000" font-family="'WenQuanYi Micro Hei'" font-size="12" lengthAdjust="spacing" textLength="72.0005" x="291.9951" y="415.9423">&#29992;&#25143;&#30830;&#35748;&#22823;&#32434;</text></g><!--entity UC4--><g class="entity" data-qualified-name="cookbook-forge.UC4" data-source-line="38" id="ent0008"><ellipse cx="328.0017" cy="492.1208" fill="#FFFFFF" rx="56.1117" ry="21.6339" style="stroke:#000000;stroke-width:0.5;"/><text fill="#000000" font-family="'WenQuanYi Micro Hei'" font-size="12" lengthAdjust="spacing" textLength="79.6293" x="288.187" y="490.2568">&#36880;&#31456;&#20889;&#20316; MDX</text><text fill="#000000" font-family="'WenQuanYi Micro Hei'" font-size="12" lengthAdjust="spacing" textLength="58.0551" x="298.9741" y="504.2255">+&#23383;&#25968;&#26657;&#39564;</text></g><!--entity UC6--><g class="entity" data-qualified-name="cookbook-forge.UC6" data-source-line="39" id="ent0009"><ellipse cx="61.9993" cy="595.7343" fill="#FFFFFF" rx="39.1993" ry="12.8774" style="stroke:#000000;stroke-width:0.5;"/><text fill="#000000" font-family="'WenQuanYi Micro Hei'" font-size="12" lengthAdjust="spacing" textLength="51.1935" x="36.4025" y="599.2186">&#36755;&#20986; PDF</text></g><!--entity UC7--><g class="entity" data-qualified-name="cookbook-forge.UC7" data-source-line="40" id="ent0010"><ellipse cx="304.0027" cy="595.7354" fill="#FFFFFF" rx="62.3927" ry="14.8785" style="stroke:#000000;stroke-width:0.5;"/><text fill="#000000" font-family="'WenQuanYi Micro Hei'" font-size="12" lengthAdjust="spacing" textLength="96.0824" x="255.9615" y="599.2198">&#36755;&#20986; Nextra &#32593;&#31449;</text></g><!--entity UC8--><g class="entity" data-qualified-name="cookbook-forge.UC8" data-source-line="41" id="ent0011"><ellipse cx="170.9979" cy="595.7343" fill="#FFFFFF" rx="45.1779" ry="12.8774" style="stroke:#000000;stroke-width:0.5;"/><text fill="#000000" font-family="'WenQuanYi Micro Hei'" font-size="12" lengthAdjust="spacing" textLength="59.6486" x="141.1736" y="599.2186">&#36755;&#20986; EPUB</text></g><!--entity UC9--><g class="entity" data-qualified-name="cookbook-forge.UC9" data-source-line="42" id="ent0012"><ellipse cx="487.9951" cy="595.7319" fill="#FFFFFF" rx="70.3251" ry="16.465" style="stroke:#000000;stroke-width:0.5;"/><text fill="#000000" font-family="'WenQuanYi Micro Hei'" font-size="12" lengthAdjust="spacing" textLength="115.1196" x="430.4353" y="599.2163">&#29983;&#25104;&#20013;&#33521;&#25991; README</text></g><!--entity UC10--><g class="entity" data-qualified-name="cookbook-forge.UC10" data-source-line="43" id="ent0013"><ellipse cx="391.9953" cy="691.8879" fill="#FFFFFF" rx="53.1553" ry="13.0311" style="stroke:#000000;stroke-width:0.5;"/><text fill="#000000" font-family="'WenQuanYi Micro Hei'" font-size="12" lengthAdjust="spacing" textLength="72.0005" x="355.9951" y="695.3723">&#22312;&#32447;&#27983;&#35272;&#32593;&#31449;</text></g><!--entity UC11--><g class="entity" data-qualified-name="cookbook-forge.UC11" data-source-line="44" id="ent0014"><ellipse cx="171.0009" cy="691.8891" fill="#FFFFFF" rx="58.8109" ry="14.1622" style="stroke:#000000;stroke-width:0.5;"/><text fill="#000000" font-family="'WenQuanYi Micro Hei'" font-size="12" lengthAdjust="spacing" textLength="87.0705" x="127.4656" y="695.3734">&#19979;&#36733; PDF/EPUB</text></g><!--entity AUTHOR--><g class="entity" data-qualified-name="AUTHOR" data-source-line="30" id="ent0001"><ellipse cx="262" cy="51.2969" fill="#FFFFFF" rx="8" ry="8" style="stroke:#000000;stroke-width:0.5;"/><path d="M262,59.2969 L262,86.2969 M249,67.2969 L275,67.2969 M262,86.2969 L249,101.2969 M262,86.2969 L275,101.2969" fill="none" style="stroke:#000000;stroke-width:0.5;"/><text fill="#000000" font-family="'WenQuanYi Micro Hei'" font-size="12" lengthAdjust="spacing" textLength="24.0002" x="249.9999" y="113.9355">&#20316;&#32773;</text></g><!--entity READER--><g class="entity" data-qualified-name="READER" data-source-line="31" id="ent0002"><ellipse cx="604" cy="567.2569" fill="#FFFFFF" rx="8" ry="8" style="stroke:#000000;stroke-width:0.5;"/><path d="M604,575.2569 L604,602.2569 M591,583.2569 L617,583.2569 M604,602.2569 L591,617.2569 M604,602.2569 L617,617.2569" fill="none" style="stroke:#000000;stroke-width:0.5;"/><text fill="#000000" font-family="'WenQuanYi Micro Hei'" font-size="12" lengthAdjust="spacing" textLength="24.0002" x="591.9999" y="629.8955">&#35835;&#32773;</text></g><!--link AUTHOR to UC0--><g class="link" data-entity-1="ent0001" data-entity-2="ent0004" data-link-type="dependency" data-source-line="47" id="lnk15"><path d="M248.06,105.0069 C234.78,128.0769 217.7746,157.6036 207.1246,176.1036" fill="none" id="AUTHOR-to-UC0" style="stroke:#000000;stroke-width:0.75;"/><polygon fill="#000000" points="204.63,180.4369,212.5868,174.6326,207.1246,176.1036,205.6536,170.6414,204.63,180.4369" style="stroke:#000000;stroke-width:0.75;stroke-linejoin:miter;stroke-miterlimit:10;"/></g><!--link AUTHOR to UC3--><g class="link" data-entity-1="ent0001" data-entity-2="ent0007" data-link-type="dependency" data-source-line="48" id="lnk16"><path d="M276,93.9269 C295.37,113.6069 328,152.8269 328,193.6969 C328,193.6969 328,193.6969 328,340.5469 C328,361.1069 328,380.0169 328,394.1569" fill="none" id="AUTHOR-to-UC3" style="stroke:#000000;stroke-width:0.75;"/><polygon fill="#000000" points="328,399.1569,332,390.1569,328,394.1569,324,390.1569,328,399.1569" style="stroke:#000000;stroke-width:0.75;stroke-linejoin:miter;stroke-miterlimit:10;"/></g><!--link UC0 to UC1--><g class="link" data-entity-1="ent0004" data-entity-2="ent0005" data-link-type="dependency" data-source-line="49" id="lnk17"><path d="M197,208.8469 C197,221.6769 197,236.0169 197,248.4869" fill="none" id="UC0-to-UC1" style="stroke:#000000;stroke-width:0.75;stroke-dasharray:7,7;"/><polygon fill="#000000" points="197,253.4869,201,244.4869,197,248.4869,193,244.4869,197,253.4869" style="stroke:#000000;stroke-width:0.75;stroke-linejoin:miter;stroke-miterlimit:10;"/><text fill="#000000" font-family="'WenQuanYi Micro Hei'" font-size="12" lengthAdjust="spacing" textLength="58.1602" x="198" y="235.7555">&#171;include&#187;</text></g><!--link UC1 to UC2--><g class="link" data-entity-1="ent0005" data-entity-2="ent0006" data-link-type="dependency" data-source-line="50" id="lnk18"><path d="M202.4,279.9969 C207.81,292.3769 214.1255,306.8363 219.8055,319.8163" fill="none" id="UC1-to-UC2" style="stroke:#000000;stroke-width:0.75;stroke-dasharray:7,7;"/><polygon fill="#000000" points="221.81,324.3969,221.8665,314.5482,219.8055,319.8163,214.5375,317.7553,221.81,324.3969" style="stroke:#000000;stroke-width:0.75;stroke-linejoin:miter;stroke-miterlimit:10;"/><text fill="#000000" font-family="'WenQuanYi Micro Hei'" font-size="12" lengthAdjust="spacing" textLength="58.1602" x="216.28" y="306.8155">&#171;include&#187;</text></g><!--link UC2 to UC3--><g class="link" data-entity-1="ent0006" data-entity-2="ent0007" data-link-type="dependency" data-source-line="51" id="lnk19"><path d="M231.59,354.5769 C234.71,364.1869 240.17,376.5669 249,384.4269 C259.51,393.7669 268.6069,398.4602 281.8069,402.4802" fill="none" id="UC2-to-UC3" style="stroke:#000000;stroke-width:0.75;stroke-dasharray:7,7;"/><polygon fill="#000000" points="286.59,403.9369,279.1457,397.4884,281.8069,402.4802,276.8151,405.1413,286.59,403.9369" style="stroke:#000000;stroke-width:0.75;stroke-linejoin:miter;stroke-miterlimit:10;"/><text fill="#000000" font-family="'WenQuanYi Micro Hei'" font-size="12" lengthAdjust="spacing" textLength="58.1602" x="250" y="381.5655">&#171;include&#187;</text></g><!--link UC3 to UC4--><g class="link" data-entity-1="ent0007" data-entity-2="ent0008" data-link-type="dependency" data-source-line="52" id="lnk20"><path d="M328,425.9369 C328,437.8569 328,451.0469 328,465.1869" fill="none" id="UC3-to-UC4" style="stroke:#000000;stroke-width:0.75;stroke-dasharray:7,7;"/><polygon fill="#000000" points="328,470.1869,332,461.1869,328,465.1869,324,461.1869,328,470.1869" style="stroke:#000000;stroke-width:0.75;stroke-linejoin:miter;stroke-miterlimit:10;"/><text fill="#000000" font-family="'WenQuanYi Micro Hei'" font-size="12" lengthAdjust="spacing" textLength="58.1602" x="329" y="452.6255">&#171;include&#187;</text></g><!--link UC4 to UC6--><g class="link" data-entity-1="ent0008" data-entity-2="ent0009" data-link-type="dependency" data-source-line="53" id="lnk21"><path d="M276.14,500.8669 C244.29,506.5569 203.03,515.5969 168,528.7569 C141.93,538.5469 136.64,544.0369 113,558.7569 C100.49,566.5469 90.9102,573.2576 80.9002,580.6076" fill="none" id="UC4-to-UC6" style="stroke:#000000;stroke-width:0.75;stroke-dasharray:7,7;"/><polygon fill="#000000" points="76.87,583.5669,86.4918,581.4644,80.9002,580.6076,81.757,575.016,76.87,583.5669" style="stroke:#000000;stroke-width:0.75;stroke-linejoin:miter;stroke-miterlimit:10;"/><text fill="#000000" font-family="'WenQuanYi Micro Hei'" font-size="12" lengthAdjust="spacing" textLength="56.4785" x="169" y="540.8955">&#171;extend&#187;</text></g><!--link UC4 to UC7--><g class="link" data-entity-1="ent0008" data-entity-2="ent0010" data-link-type="dependency" data-source-line="54" id="lnk22"><path d="M323.14,513.6869 C318.46,533.5169 312.6388,558.1506 308.5288,575.5606" fill="none" id="UC4-to-UC7" style="stroke:#000000;stroke-width:0.75;stroke-dasharray:7,7;"/><polygon fill="#000000" points="307.38,580.4269,313.3408,572.5867,308.5288,575.5606,305.5548,570.7486,307.38,580.4269" style="stroke:#000000;stroke-width:0.75;stroke-linejoin:miter;stroke-miterlimit:10;"/><text fill="#000000" font-family="'WenQuanYi Micro Hei'" font-size="12" lengthAdjust="spacing" textLength="56.4785" x="320.55" y="540.8955">&#171;extend&#187;</text></g><!--link UC4 to UC8--><g class="link" data-entity-1="ent0008" data-entity-2="ent0011" data-link-type="dependency" data-source-line="55" id="lnk23"><path d="M290.85,508.6769 C278.48,514.4069 264.84,521.3169 253,528.7569 C226.69,545.2669 202.8667,565.5912 187.3467,579.6412" fill="none" id="UC4-to-UC8" style="stroke:#000000;stroke-width:0.75;stroke-dasharray:7,7;"/><polygon fill="#000000" points="183.64,582.9969,192.9966,579.9221,187.3467,579.6412,187.6276,573.9914,183.64,582.9969" style="stroke:#000000;stroke-width:0.75;stroke-linejoin:miter;stroke-miterlimit:10;"/><text fill="#000000" font-family="'WenQuanYi Micro Hei'" font-size="12" lengthAdjust="spacing" textLength="56.4785" x="254" y="540.8955">&#171;extend&#187;</text></g><!--link UC4 to UC9--><g class="link" data-entity-1="ent0008" data-entity-2="ent0012" data-link-type="dependency" data-source-line="56" id="lnk24"><path d="M360.99,509.9569 C371.67,515.6669 383.48,522.2469 394,528.7569 C420.29,544.9969 445.1797,562.7941 463.9097,576.6441" fill="none" id="UC4-to-UC9" style="stroke:#000000;stroke-width:0.75;stroke-dasharray:7,7;"/><polygon fill="#000000" points="467.93,579.6169,463.0718,571.0496,463.9097,576.6441,458.3153,577.482,467.93,579.6169" style="stroke:#000000;stroke-width:0.75;stroke-linejoin:miter;stroke-miterlimit:10;"/><text fill="#000000" font-family="'WenQuanYi Micro Hei'" font-size="12" lengthAdjust="spacing" textLength="58.1602" x="416.16" y="540.8955">&#171;include&#187;</text></g><!--link UC7 to UC10--><g class="link" data-entity-1="ent0010" data-entity-2="ent0013" data-link-type="dependency" data-source-line="57" id="lnk25"><path d="M305.1,611.0769 C306.94,625.7469 311.86,648.3469 325,662.7269 C333.17,671.6669 339.9684,676.0746 351.1084,680.3246" fill="none" id="UC7-to-UC10" style="stroke:#000000;stroke-width:0.75;stroke-dasharray:7,7;"/><polygon fill="#000000" points="355.78,682.1069,348.797,675.1616,351.1084,680.3246,345.9454,682.6361,355.78,682.1069" style="stroke:#000000;stroke-width:0.75;stroke-linejoin:miter;stroke-miterlimit:10;"/><text fill="#000000" font-family="'WenQuanYi Micro Hei'" font-size="12" lengthAdjust="spacing" textLength="58.1602" x="326" y="659.8655">&#171;include&#187;</text></g><!--link UC6 to UC11--><g class="link" data-entity-1="ent0009" data-entity-2="ent0014" data-link-type="dependency" data-source-line="58" id="lnk26"><path d="M67.15,608.7569 C73.92,623.2969 87.09,647.6869 105,662.7269 C113.87,670.1669 120.3773,674.0458 130.9673,678.3458" fill="none" id="UC6-to-UC11" style="stroke:#000000;stroke-width:0.75;stroke-dasharray:7,7;"/><polygon fill="#000000" points="135.6,680.2269,128.7661,673.1348,130.9673,678.3458,125.7563,680.5471,135.6,680.2269" style="stroke:#000000;stroke-width:0.75;stroke-linejoin:miter;stroke-miterlimit:10;"/><text fill="#000000" font-family="'WenQuanYi Micro Hei'" font-size="12" lengthAdjust="spacing" textLength="58.1602" x="106" y="659.8655">&#171;include&#187;</text></g><!--link UC8 to UC11--><g class="link" data-entity-1="ent0011" data-entity-2="ent0014" data-link-type="dependency" data-source-line="59" id="lnk27"><path d="M171,609.0469 C171,626.6869 171,654.0569 171,672.3569" fill="none" id="UC8-to-UC11" style="stroke:#000000;stroke-width:0.75;stroke-dasharray:7,7;"/><polygon fill="#000000" points="171,677.3569,175,668.3569,171,672.3569,167,668.3569,171,677.3569" style="stroke:#000000;stroke-width:0.75;stroke-linejoin:miter;stroke-miterlimit:10;"/><text fill="#000000" font-family="'WenQuanYi Micro Hei'" font-size="12" lengthAdjust="spacing" textLength="58.1602" x="172" y="659.8655">&#171;include&#187;</text></g><!--link READER to UC10--><g class="link" data-entity-1="ent0002" data-entity-2="ent0013" data-link-type="dependency" data-source-line="60" id="lnk28"><path d="M590.25,614.8969 C584.99,621.0569 578.65,627.6569 572,632.7269 C532.28,662.9569 481.1896,676.8939 442.2396,683.9639" fill="none" id="READER-to-UC10" style="stroke:#000000;stroke-width:0.75;"/><polygon fill="#000000" points="437.32,684.8569,446.8897,687.1852,442.2396,683.9639,445.4609,679.3138,437.32,684.8569" style="stroke:#000000;stroke-width:0.75;stroke-linejoin:miter;stroke-miterlimit:10;"/></g><!--link READER to UC11--><g class="link" data-entity-1="ent0002" data-entity-2="ent0014" data-link-type="dependency" data-source-line="61" id="lnk29"><path d="M590.04,617.1669 C585.02,623.0669 578.88,628.9269 572,632.7269 C542.01,649.2669 330.5509,673.7585 228.7009,684.7885" fill="none" id="READER-to-UC11" style="stroke:#000000;stroke-width:0.75;"/><polygon fill="#000000" points="223.73,685.3269,233.1084,688.3346,228.7009,684.7885,232.247,680.3811,223.73,685.3269" style="stroke:#000000;stroke-width:0.75;stroke-linejoin:miter;stroke-miterlimit:10;"/></g><!--link UC0 to UC6--><!--link UC1 to UC7--><!--link UC2 to UC8--><!--link UC3 to UC9--><!--link UC4 to UC10--><?plantuml-src ZLHTJnD157tVNt5J7tpGrduWBOQG55hKn08M6ZNgmtHtQ3TjPyZiDg36X0UX9135Y2WVYM188190JOXDIV6_cEvs-HTEjrkTpL9WaqrsppbpvjupT_Swb4j5lwAY74CbBK1P3XYUn0mJ6OEcloXY-3Exmf-OAkimcheBcTG320TcRaA94Yhd6IrXIIkeP0fn1m44dPL59elaGexHCb66Q94ok3PiNu92mPEeNDI7AT5743VmFSBaOHcH9ogaL9bHk8TLt_dwSVKbXb1O8BKyKkYqId8mYOgQM8XSH9eMrtb7sRAExykKsAk3WiGfan7CE2uGSLcdRF3IJjeooXJC74dGlWH9HiCoql3bNXtXXMvfBEk8v8fNyFillT1nZ1kXt1NyEi8BtUACqUaBoOcyAXS8rZG81gAt1JRHFkK9FADtCn06mIsHT5Nd4onJMiZosp_9vnj3SsMlSRfeR9nodaw1JY5BTPro7vNnS5HA16z25QpXAGYBDJ542Yqm8bOnrGvYtFveM2TbIKAjOO16VTEQdGEaGJmpSMyqxS3MqOa3fvFnH38jIVzMWizTjmzUIG3bzZY0prog68VhZUh9sTVFZUfRw_YDkRhcQpbbXeAYyAnIETkODtRMpTgoInKILSsLB-R2iZ6tPwuTyMYuex6pswpzTBHXjtRFNFZLt3wq3dTSgeXhtzdbvlwMCR_6MuTKul4pSiCu-6H-_6vkRPzzMtAMz8XBhDCFHgK6OubXX-qzXntXay0GDEllc_kTLgBdw99ZcK67ZdaxRLGFhCKVvch53ZwLT9HzejBOt6lMVfl7xwpT1TTs8LV0ZUgYLQ-tghubx1aAIQybgNtOuFSFsCVYUer87890eFKSWZlGtwyIkLXMyC20r4BQJDZ3X1qcuc4Y3jFZONeSfjTcU8AOA2uYses8TIFwF9j4Eyq4FLHlX_8s6kj6jRy89omUkViz9Ddn-P_cLKN1v3d_snE_FJAjx3nmr0xE0yVir3nmdzsd1-P5_0K0?></g></svg>