<svg xmlns="http://www.w3.org/2000/svg" xmlns:xlink="http://www.w3.org/1999/xlink" contentStyleType="text/css" data-diagram-type="DESCRIPTION" height="452px" preserveAspectRatio="none" style="width:2239px;height:452px;background:#FFFFFF;" version="1.1" viewBox="0 0 2239 452" width="2239px" zoomAndPan="magnify"><?plantuml 1.2026.6?><defs/><g><g class="title" data-source-line="15"><text fill="#000000" font-family="'WenQuanYi Micro Hei'" font-size="14" font-weight="700" lengthAdjust="spacing" textLength="170.2283" x="1031.1908" y="22.9951">cookbook-forge &#29992;&#20363;&#22270;</text></g><!--cluster cookbook-forge--><g class="cluster" data-qualified-name="cookbook-forge" data-source-line="22" id="ent0003"><rect fill="#FFFFFF" height="300" rx="2.5" ry="2.5" style="stroke:#000000;stroke-width:1;" width="2144.61" x="81" y="44.2969"/><text fill="#000000" font-family="'WenQuanYi Micro Hei'" font-size="14" font-weight="700" lengthAdjust="spacing" textLength="123.3545" x="1091.6278" y="59.292">cookbook-forge</text></g><!--entity UC0--><g class="entity" data-qualified-name="cookbook-forge.UC0" data-source-line="23" id="ent0004"><ellipse cx="163.7252" cy="157.2919" fill="#FFFFFF" rx="66.7252" ry="15.745" style="stroke:#000000;stroke-width:0.5;"/><text fill="#000000" font-family="'WenQuanYi Micro Hei'" font-size="14" lengthAdjust="spacing" textLength="97.9996" x="114.7254" y="161.9404">&#25351;&#23450;&#20027;&#39064;&#19982;&#36164;&#26009;</text></g><!--entity UC1--><g class="entity" data-qualified-name="cookbook-forge.UC1" data-source-line="24" id="ent0005"><ellipse cx="474.766" cy="149.3001" fill="#FFFFFF" rx="119.316" ry="26.2632" style="stroke:#000000;stroke-width:0.5;"/><text fill="#000000" font-family="'WenQuanYi Micro Hei'" font-size="14" lengthAdjust="spacing" textLength="83.9996" x="432.7662" y="140.4032">&#37319;&#38598;&#22810;&#28304;&#36164;&#26009;</text><text fill="#000000" font-family="'WenQuanYi Micro Hei'" font-size="14" lengthAdjust="spacing" textLength="205.5155" x="372.0083" y="156.7001">(&#32593;&#39029;/GitHub/arxiv/PDF/EPUB)</text></g><!--entity UC2--><g class="entity" data-qualified-name="cookbook-forge.UC2" data-source-line="25" id="ent0006"><ellipse cx="803.0831" cy="154.2955" fill="#FFFFFF" rx="83.9931" ry="19.1986" style="stroke:#000000;stroke-width:0.5;"/><text fill="#000000" font-family="'WenQuanYi Micro Hei'" font-size="14" lengthAdjust="spacing" textLength="139.9994" x="733.0834" y="158.9439">&#29983;&#25104;&#20840;&#26223;&#22270;&#19982;&#31456;&#33410;&#22823;&#32434;</text></g><!--entity UC3--><g class="entity" data-qualified-name="cookbook-forge.UC3" data-source-line="26" id="ent0007"><ellipse cx="1073.5842" cy="200.2997" fill="#FFFFFF" rx="61.5142" ry="14.7028" style="stroke:#000000;stroke-width:0.5;"/><text fill="#000000" font-family="'WenQuanYi Micro Hei'" font-size="14" lengthAdjust="spacing" textLength="83.9996" x="1031.5844" y="204.9482">&#29992;&#25143;&#30830;&#35748;&#22823;&#32434;</text></g><!--entity UC4--><g class="entity" data-qualified-name="cookbook-forge.UC4" data-source-line="27" id="ent0008"><ellipse cx="1324.8762" cy="200.2941" fill="#FFFFFF" rx="64.7862" ry="15.3572" style="stroke:#000000;stroke-width:0.5;"/><text fill="#000000" font-family="'WenQuanYi Micro Hei'" font-size="14" lengthAdjust="spacing" textLength="92.9001" x="1278.4261" y="204.9426">&#36880;&#31456;&#20889;&#20316; MDX</text></g><!--entity UC5--><g class="entity" data-qualified-name="cookbook-forge.UC5" data-source-line="28" id="ent0009"><ellipse cx="1576.1842" cy="200.2997" fill="#FFFFFF" rx="61.5142" ry="14.7028" style="stroke:#000000;stroke-width:0.5;"/><text fill="#000000" font-family="'WenQuanYi Micro Hei'" font-size="14" lengthAdjust="spacing" textLength="83.9996" x="1534.1844" y="204.9482">&#23383;&#25968;&#36798;&#26631;&#26657;&#39564;</text></g><!--entity UC6--><g class="entity" data-qualified-name="cookbook-forge.UC6" data-source-line="29" id="ent0010"><ellipse cx="1852.0178" cy="308.3004" fill="#FFFFFF" rx="89.3178" ry="20.2636" style="stroke:#000000;stroke-width:0.5;"/><text fill="#000000" font-family="'WenQuanYi Micro Hei'" font-size="14" lengthAdjust="spacing" textLength="152.1952" x="1775.9202" y="312.9489">&#36755;&#20986; ElegantBook PDF</text></g><!--entity UC7--><g class="entity" data-qualified-name="cookbook-forge.UC7" data-source-line="30" id="ent0011"><ellipse cx="1852.0212" cy="169.2951" fill="#FFFFFF" rx="72.2912" ry="16.8582" style="stroke:#000000;stroke-width:0.5;"/><text fill="#000000" font-family="'WenQuanYi Micro Hei'" font-size="14" lengthAdjust="spacing" textLength="112.0955" x="1795.9735" y="173.9436">&#36755;&#20986; Nextra &#32593;&#31449;</text></g><!--entity UC8--><g class="entity" data-qualified-name="cookbook-forge.UC8" data-source-line="31" id="ent0012"><ellipse cx="1852.0177" cy="237.3004" fill="#FFFFFF" rx="66.5677" ry="15.7135" style="stroke:#000000;stroke-width:0.5;"/><text fill="#000000" font-family="'WenQuanYi Micro Hei'" font-size="14" lengthAdjust="spacing" textLength="97.5896" x="1803.2229" y="241.9489">&#36755;&#20986;&#20248;&#21270; EPUB</text></g><!--entity UC9--><g class="entity" data-qualified-name="cookbook-forge.UC9" data-source-line="32" id="ent0013"><ellipse cx="1852.0156" cy="98.296" fill="#FFFFFF" rx="81.5456" ry="18.7091" style="stroke:#000000;stroke-width:0.5;"/><text fill="#000000" font-family="'WenQuanYi Micro Hei'" font-size="14" lengthAdjust="spacing" textLength="134.3054" x="1784.8629" y="102.9444">&#29983;&#25104;&#20013;&#33521;&#25991; README</text></g><!--entity UC10--><g class="entity" data-qualified-name="cookbook-forge.UC10" data-source-line="33" id="ent0014"><ellipse cx="2137.9742" cy="201.2997" fill="#FFFFFF" rx="61.5142" ry="14.7028" style="stroke:#000000;stroke-width:0.5;"/><text fill="#000000" font-family="'WenQuanYi Micro Hei'" font-size="14" lengthAdjust="spacing" textLength="83.9996" x="2095.9744" y="205.9482">&#22312;&#32447;&#27983;&#35272;&#32593;&#31449;</text></g><!--entity UC11--><g class="entity" data-qualified-name="cookbook-forge.UC11" data-source-line="34" id="ent0015"><ellipse cx="2137.9704" cy="293.295" fill="#FFFFFF" rx="71.6404" ry="16.7281" style="stroke:#000000;stroke-width:0.5;"/><text fill="#000000" font-family="'WenQuanYi Micro Hei'" font-size="14" lengthAdjust="spacing" textLength="110.4823" x="2082.7293" y="297.9434">&#19979;&#36733; PDF / EPUB</text></g><!--entity ??--><g class="entity" data-qualified-name=".." data-source-line="19" id="ent0001"><ellipse cx="19.9999" cy="178.6469" fill="#FFFFFF" rx="8" ry="8" style="stroke:#000000;stroke-width:0.5;"/><path d="M19.9999,186.6469 L19.9999,213.6469 M6.9999,194.6469 L32.9999,194.6469 M19.9999,213.6469 L6.9999,228.6469 M19.9999,213.6469 L32.9999,228.6469" fill="none" style="stroke:#000000;stroke-width:0.5;"/><text fill="#000000" font-family="'WenQuanYi Micro Hei'" font-size="14" lengthAdjust="spacing" textLength="27.9999" x="6" y="243.142">&#20316;&#32773;</text></g><!--entity ??--><g class="entity" data-qualified-name=".." data-source-line="20" id="ent0002"><ellipse cx="1852.0199" cy="371.6469" fill="#FFFFFF" rx="8" ry="8" style="stroke:#000000;stroke-width:0.5;"/><path d="M1852.0199,379.6469 L1852.0199,406.6469 M1839.0199,387.6469 L1865.0199,387.6469 M1852.0199,406.6469 L1839.0199,421.6469 M1852.0199,406.6469 L1865.0199,421.6469" fill="none" style="stroke:#000000;stroke-width:0.5;"/><text fill="#000000" font-family="'WenQuanYi Micro Hei'" font-size="14" lengthAdjust="spacing" textLength="27.9999" x="1838.02" y="436.142">&#35835;&#32773;</text></g><!--link ?? to UC0--><g class="link" data-entity-1="ent0001" data-entity-2="ent0004" data-link-type="dependency" data-source-line="37" id="lnk16"><path d="M34.33,203.4969 C55.07,196.0369 91.0952,183.0694 121.1452,172.2594" fill="none" id="&#20316;&#32773;-to-UC0" style="stroke:#000000;stroke-width:0.75;"/><polygon fill="#000000" points="125.85,170.5669,116.0273,169.8495,121.1452,172.2594,118.7353,177.3772,125.85,170.5669" style="stroke:#000000;stroke-width:0.75;stroke-linejoin:miter;stroke-miterlimit:10;"/></g><!--link ?? to UC3--><g class="link" data-entity-1="ent0001" data-entity-2="ent0007" data-link-type="dependency" data-source-line="38" id="lnk17"><path d="M34.2,211.4269 C59.15,217.0469 115.02,228.2969 162.73,228.2969 C162.73,228.2969 162.73,228.2969 804.08,228.2969 C880.47,228.2969 963.4977,217.7043 1017.3277,209.4543" fill="none" id="&#20316;&#32773;-to-UC3" style="stroke:#000000;stroke-width:0.75;"/><polygon fill="#000000" points="1022.27,208.6969,1012.7679,206.1065,1017.3277,209.4543,1013.9798,214.0141,1022.27,208.6969" style="stroke:#000000;stroke-width:0.75;stroke-linejoin:miter;stroke-miterlimit:10;"/></g><!--link UC0 to UC1--><g class="link" data-entity-1="ent0004" data-entity-2="ent0005" data-link-type="dependency" data-source-line="39" id="lnk18"><path d="M230.26,155.5969 C266.76,154.6569 308.3117,153.5871 350.9117,152.4771" fill="none" id="UC0-to-UC1" style="stroke:#000000;stroke-width:0.75;stroke-dasharray:7,7;"/><polygon fill="#000000" points="355.91,152.3469,346.8089,148.5827,350.9117,152.4771,347.0172,156.5799,355.91,152.3469" style="stroke:#000000;stroke-width:0.75;stroke-linejoin:miter;stroke-miterlimit:10;"/><text fill="#000000" font-family="'WenQuanYi Micro Hei'" font-size="13" lengthAdjust="spacing" textLength="63.0068" x="261.45" y="149.3638">&#171;include&#187;</text></g><!--link UC1 to UC2--><g class="link" data-entity-1="ent0005" data-entity-2="ent0006" data-link-type="dependency" data-source-line="40" id="lnk19"><path d="M594.03,151.1069 C635.44,151.7469 676.0206,152.3704 713.9406,152.9504" fill="none" id="UC1-to-UC2" style="stroke:#000000;stroke-width:0.75;stroke-dasharray:7,7;"/><polygon fill="#000000" points="718.94,153.0269,710.0022,148.8897,713.9406,152.9504,709.8799,156.8888,718.94,153.0269" style="stroke:#000000;stroke-width:0.75;stroke-linejoin:miter;stroke-miterlimit:10;"/><text fill="#000000" font-family="'WenQuanYi Micro Hei'" font-size="13" lengthAdjust="spacing" textLength="63.0068" x="625.08" y="147.7138">&#171;include&#187;</text></g><!--link UC2 to UC3--><g class="link" data-entity-1="ent0006" data-entity-2="ent0007" data-link-type="dependency" data-source-line="41" id="lnk20"><path d="M871.48,165.8469 C918.4,173.8869 975.0017,183.5833 1017.5917,190.8733" fill="none" id="UC2-to-UC3" style="stroke:#000000;stroke-width:0.75;stroke-dasharray:7,7;"/><polygon fill="#000000" points="1022.52,191.7169,1014.3239,186.2558,1017.5917,190.8733,1012.9742,194.1411,1022.52,191.7169" style="stroke:#000000;stroke-width:0.75;stroke-linejoin:miter;stroke-miterlimit:10;"/><text fill="#000000" font-family="'WenQuanYi Micro Hei'" font-size="13" lengthAdjust="spacing" textLength="63.0068" x="918.07" y="170.6138">&#171;include&#187;</text></g><!--link UC3 to UC4--><g class="link" data-entity-1="ent0007" data-entity-2="ent0008" data-link-type="dependency" data-source-line="42" id="lnk21"><path d="M1135.57,200.2969 C1173.19,200.2969 1216.39,200.2969 1254.61,200.2969" fill="none" id="UC3-to-UC4" style="stroke:#000000;stroke-width:0.75;stroke-dasharray:7,7;"/><polygon fill="#000000" points="1259.61,200.2969,1250.61,196.2969,1254.61,200.2969,1250.61,204.2969,1259.61,200.2969" style="stroke:#000000;stroke-width:0.75;stroke-linejoin:miter;stroke-miterlimit:10;"/><text fill="#000000" font-family="'WenQuanYi Micro Hei'" font-size="13" lengthAdjust="spacing" textLength="63.0068" x="1166.1" y="196.3638">&#171;include&#187;</text></g><!--link UC4 to UC5--><g class="link" data-entity-1="ent0008" data-entity-2="ent0009" data-link-type="dependency" data-source-line="43" id="lnk22"><path d="M1390.08,200.2969 C1428.32,200.2969 1471.56,200.2969 1509.21,200.2969" fill="none" id="UC4-to-UC5" style="stroke:#000000;stroke-width:0.75;stroke-dasharray:7,7;"/><polygon fill="#000000" points="1514.21,200.2969,1505.21,196.2969,1509.21,200.2969,1505.21,204.2969,1514.21,200.2969" style="stroke:#000000;stroke-width:0.75;stroke-linejoin:miter;stroke-miterlimit:10;"/><text fill="#000000" font-family="'WenQuanYi Micro Hei'" font-size="13" lengthAdjust="spacing" textLength="63.0068" x="1420.67" y="196.3638">&#171;include&#187;</text></g><!--link UC5 to UC6--><g class="link" data-entity-1="ent0009" data-entity-2="ent0010" data-link-type="dependency" data-source-line="44" id="lnk23"><path d="M1601.27,214.1369 C1619.22,224.1169 1644.54,237.5069 1667.7,247.2969 C1709.56,264.9969 1753.6766,279.6012 1790.4466,290.7912" fill="none" id="UC5-to-UC6" style="stroke:#000000;stroke-width:0.75;stroke-dasharray:7,7;"/><polygon fill="#000000" points="1795.23,292.2469,1787.7844,285.7999,1790.4466,290.7912,1785.4553,293.4533,1795.23,292.2469" style="stroke:#000000;stroke-width:0.75;stroke-linejoin:miter;stroke-miterlimit:10;"/><text fill="#000000" font-family="'WenQuanYi Micro Hei'" font-size="13" lengthAdjust="spacing" textLength="61.1851" x="1669.7" y="243.3638">&#171;extend&#187;</text></g><!--link UC5 to UC7--><g class="link" data-entity-1="ent0009" data-entity-2="ent0011" data-link-type="dependency" data-source-line="45" id="lnk24"><path d="M1632.6,194.0269 C1677.14,188.9869 1734.8018,182.4598 1781.5818,177.1598" fill="none" id="UC5-to-UC7" style="stroke:#000000;stroke-width:0.75;stroke-dasharray:7,7;"/><polygon fill="#000000" points="1786.55,176.5969,1777.1569,173.6355,1781.5818,177.1598,1778.0575,181.5846,1786.55,176.5969" style="stroke:#000000;stroke-width:0.75;stroke-linejoin:miter;stroke-miterlimit:10;"/><text fill="#000000" font-family="'WenQuanYi Micro Hei'" font-size="13" lengthAdjust="spacing" textLength="61.1851" x="1669.7" y="179.0138">&#171;extend&#187;</text></g><!--link UC5 to UC8--><g class="link" data-entity-1="ent0009" data-entity-2="ent0012" data-link-type="dependency" data-source-line="46" id="lnk25"><path d="M1628.37,208.4769 C1641.2,210.4569 1654.94,212.5169 1667.7,214.2969 C1709.15,220.1069 1751.0162,225.3662 1786.9662,229.7162" fill="none" id="UC5-to-UC8" style="stroke:#000000;stroke-width:0.75;stroke-dasharray:7,7;"/><polygon fill="#000000" points="1791.93,230.3169,1783.4757,225.2647,1786.9662,229.7162,1782.5147,233.2068,1791.93,230.3169" style="stroke:#000000;stroke-width:0.75;stroke-linejoin:miter;stroke-miterlimit:10;"/><text fill="#000000" font-family="'WenQuanYi Micro Hei'" font-size="13" lengthAdjust="spacing" textLength="61.1851" x="1669.7" y="210.3638">&#171;extend&#187;</text></g><!--link UC5 to UC9--><g class="link" data-entity-1="ent0009" data-entity-2="ent0013" data-link-type="dependency" data-source-line="47" id="lnk26"><path d="M1604.15,186.7669 C1621.96,178.0869 1645.94,166.8769 1667.7,158.2969 C1711.78,140.9269 1758.356,125.8806 1795.476,114.6006" fill="none" id="UC5-to-UC9" style="stroke:#000000;stroke-width:0.75;stroke-dasharray:7,7;"/><polygon fill="#000000" points="1800.26,113.1469,1790.4858,111.9364,1795.476,114.6006,1792.8118,119.5908,1800.26,113.1469" style="stroke:#000000;stroke-width:0.75;stroke-linejoin:miter;stroke-miterlimit:10;"/><text fill="#000000" font-family="'WenQuanYi Micro Hei'" font-size="13" lengthAdjust="spacing" textLength="63.0068" x="1668.7" y="130.8838">&#171;include&#187;</text></g><!--link UC7 to UC10--><g class="link" data-entity-1="ent0011" data-entity-2="ent0014" data-link-type="dependency" data-source-line="48" id="lnk27"><path d="M1917.81,176.5969 C1967.24,182.1669 2029.6414,189.2071 2076.5914,194.4971" fill="none" id="UC7-to-UC10" style="stroke:#000000;stroke-width:0.75;stroke-dasharray:7,7;"/><polygon fill="#000000" points="2081.56,195.0569,2073.0644,190.0743,2076.5914,194.4971,2072.1687,198.024,2081.56,195.0569" style="stroke:#000000;stroke-width:0.75;stroke-linejoin:miter;stroke-miterlimit:10;"/><text fill="#000000" font-family="'WenQuanYi Micro Hei'" font-size="13" lengthAdjust="spacing" textLength="63.0068" x="1972.33" y="179.4538">&#171;include&#187;</text></g><!--link UC6 to UC11--><g class="link" data-entity-1="ent0010" data-entity-2="ent0015" data-link-type="dependency" data-source-line="49" id="lnk28"><path d="M1939.37,303.7369 C1980.49,301.5669 2024.007,299.2716 2062.677,297.2216" fill="none" id="UC6-to-UC11" style="stroke:#000000;stroke-width:0.75;stroke-dasharray:7,7;"/><polygon fill="#000000" points="2067.67,296.9569,2058.4709,293.4389,2062.677,297.2216,2058.8944,301.4277,2067.67,296.9569" style="stroke:#000000;stroke-width:0.75;stroke-linejoin:miter;stroke-miterlimit:10;"/><text fill="#000000" font-family="'WenQuanYi Micro Hei'" font-size="13" lengthAdjust="spacing" textLength="63.0068" x="1972.33" y="295.0838">&#171;include&#187;</text></g><!--link UC8 to UC11--><g class="link" data-entity-1="ent0012" data-entity-2="ent0015" data-link-type="dependency" data-source-line="50" id="lnk29"><path d="M1904.11,247.3769 C1954.41,257.2969 2026.0545,271.4193 2077.5145,281.5693" fill="none" id="UC8-to-UC11" style="stroke:#000000;stroke-width:0.75;stroke-dasharray:7,7;"/><polygon fill="#000000" points="2082.42,282.5369,2074.3642,276.8709,2077.5145,281.5693,2072.8161,284.7197,2082.42,282.5369" style="stroke:#000000;stroke-width:0.75;stroke-linejoin:miter;stroke-miterlimit:10;"/><text fill="#000000" font-family="'WenQuanYi Micro Hei'" font-size="13" lengthAdjust="spacing" textLength="63.0068" x="1972.33" y="258.0138">&#171;include&#187;</text></g><!--link ?? to UC10--><g class="link" data-entity-1="ent0002" data-entity-2="ent0014" data-link-type="dependency" data-source-line="51" id="lnk30"><path d="M1866.04,397.5669 C1898.29,387.7869 1983.07,358.6969 2036.33,309.2969 C2055.34,291.6769 2049.4,278.9169 2066.33,259.2969 C2081.05,242.2369 2097.1287,229.1873 2112.1287,218.3373" fill="none" id="&#35835;&#32773;-to-UC10" style="stroke:#000000;stroke-width:0.75;"/><polygon fill="#000000" points="2116.18,215.4069,2106.5434,217.4406,2112.1287,218.3373,2111.2321,223.9226,2116.18,215.4069" style="stroke:#000000;stroke-width:0.75;stroke-linejoin:miter;stroke-miterlimit:10;"/></g><!--link ?? to UC11--><g class="link" data-entity-1="ent0002" data-entity-2="ent0015" data-link-type="dependency" data-source-line="52" id="lnk31"><path d="M1866.1,401.7869 C1897.1,402.4669 1976.84,401.3169 2036.33,375.2969 C2071.23,360.0369 2100.4712,332.8166 2118.6612,313.6166" fill="none" id="&#35835;&#32773;-to-UC11" style="stroke:#000000;stroke-width:0.75;"/><polygon fill="#000000" points="2122.1,309.9869,2113.0064,313.7693,2118.6612,313.6166,2118.814,319.2714,2122.1,309.9869" style="stroke:#000000;stroke-width:0.75;stroke-linejoin:miter;stroke-miterlimit:10;"/></g><?plantuml-src ZPFlIzj06CVVtr_nqBtPNcXRQwqE4VnHvnl5oMGRxCsPNDlGU3SkoHHa86DQcR9rp7N-WkaGB1Dr6yXANRj_9h_wNonjhrj2h2uGoENpkUUv-rwYvHNw77Ey28kCCYd7sI81dHi4QN-9biCoMr9e5Z9OrVna0KlvB6S6bSUPoZZScMnTFaCc6Moe-YIZkb1YhUjwPGPxtIEF2NreOFfKWMb5uWocY1Bn-QEIplZOhPtR6kCouTqwpsj4mXgvlLP7lB7Q795qJBFgVzJxfzvOSPHpjdGZV9HJf3mbcWQntbGI8LtHLG8IO_a5x-x9C9ubu6oNpVgcjLz7I2KP7NG6NCdcT90LxYr4OHGXt4mBpDg1kxec1kx5LNE0U6Un40aMZi0A0Z3QsK34tYfOvtjcvQhnPSUil7KlNzkbtGXW3UR7OtwnKIWqzjUjupsxMcnRp-XTf_Q-SNGPVQ3eKyP25FDbvKLqTc8ocfwT7xidgiJzLPpjp_P6qLehsxiNtjwyZixfeVlcbNLyubH_Y1bzmHbbU-EdStJkdXy7h4HWTQj5hv2rlkk50TCJJuJJxtUiiq_snszklMuV5kp3eyRNBM4b_PPR_s0Lgf1MIHPJVSpB3RmT2NFW6dE6BEiSWnU5Szf9BXNsp5yxrbO9cia8QJ0SZ5avSpU_swK2pAL79wRJmXmAREEWx5H_svVlt9EDGDDuuBpCogPRgpNN3b5_rtWSlKIe_Sr0Jyz8wvm3mmJoNa5lR_Cv3lTXU5YXach8P6G4DT-qIL-8z0cI29648FqXqYz8CaIIWWoqY9SneN80fBg1mMvWADGarTbcB8G6EYWSmM0trFxvH8pUSGJ7yJy0?></g></svg>