<svg xmlns="http://www.w3.org/2000/svg" xmlns:xlink="http://www.w3.org/1999/xlink" contentStyleType="text/css" data-diagram-type="DESCRIPTION" height="1182px" preserveAspectRatio="none" style="width:476px;height:1182px;background:#FFFFFF;" version="1.1" viewBox="0 0 476 1182" width="476px" zoomAndPan="magnify"><?plantuml 1.2026.6?><defs/><g><g class="title" data-source-line="23"><text fill="#000000" font-family="Helvetica" font-size="14" font-weight="700" lengthAdjust="spacing" textLength="270.6279" x="99.5506" y="24.0752">cookbook-forge Use Case Diagram</text></g><!--cluster cookbook-forge--><g class="cluster" data-qualified-name="cookbook-forge" data-source-line="33" id="ent0003"><rect fill="#FFFFFF" height="1017.98" style="stroke:#000000;stroke-width:1;" width="352" x="64.22" y="150.0946"/><text fill="#000000" font-family="Helvetica" font-size="12" font-weight="700" lengthAdjust="spacing" textLength="105.8965" x="187.2718" y="164.1591">cookbook-forge</text></g><!--entity UC0--><g class="entity" data-qualified-name="cookbook-forge.UC0" data-source-line="34" id="ent0004"><ellipse cx="234.2182" cy="203.0943" fill="#FFFFFF" rx="87.9982" ry="19.9996" style="stroke:#000000;stroke-width:0.5;"/><text fill="#000000" font-family="Helvetica" font-size="12" lengthAdjust="spacing" textLength="153.5625" x="157.4369" y="206.8863">Specify topic and sources</text></g><!--entity UC1--><g class="entity" data-qualified-name="cookbook-forge.UC1" data-source-line="35" id="ent0005"><ellipse cx="201.2202" cy="295.4287" fill="#FFFFFF" rx="119.6202" ry="26.324" style="stroke:#000000;stroke-width:0.5;"/><text fill="#000000" font-family="Helvetica" font-size="12" lengthAdjust="spacing" textLength="180.416" x="111.0122" y="291.7305">Collect multi-source materials</text><text fill="#000000" font-family="Helvetica" font-size="12" lengthAdjust="spacing" textLength="183.5918" x="109.4244" y="306.3145">(web/GitHub/arxiv/PDF/EPUB)</text></g><!--entity UC2--><g class="entity" data-qualified-name="cookbook-forge.UC2" data-source-line="36" id="ent0006"><ellipse cx="215.216" cy="391.5958" fill="#FFFFFF" rx="107.256" ry="23.8512" style="stroke:#000000;stroke-width:0.5;"/><text fill="#000000" font-family="Helvetica" font-size="12" lengthAdjust="spacing" textLength="195.3457" x="117.5432" y="395.3878">Generate big picture and outline</text></g><!--entity UC3--><g class="entity" data-qualified-name="cookbook-forge.UC3" data-source-line="37" id="ent0007"><ellipse cx="281.215" cy="476.4276" fill="#FFFFFF" rx="62.865" ry="14.973" style="stroke:#000000;stroke-width:0.5;"/><text fill="#000000" font-family="Helvetica" font-size="12" lengthAdjust="spacing" textLength="94.9629" x="233.7335" y="480.2196">Approve outline</text></g><!--entity UC4--><g class="entity" data-qualified-name="cookbook-forge.UC4" data-source-line="38" id="ent0008"><ellipse cx="231.2175" cy="553.9022" fill="#FFFFFF" rx="70.5375" ry="16.5075" style="stroke:#000000;stroke-width:0.5;"/><text fill="#000000" font-family="Helvetica" font-size="12" lengthAdjust="spacing" textLength="113.7012" x="174.3669" y="557.6941">Write chapter MDX</text></g><!--entity UC5--><g class="entity" data-qualified-name="cookbook-forge.UC5" data-source-line="39" id="ent0009"><ellipse cx="216.2198" cy="634.4946" fill="#FFFFFF" rx="78.4498" ry="18.09" style="stroke:#000000;stroke-width:0.5;"/><text fill="#000000" font-family="Helvetica" font-size="12" lengthAdjust="spacing" textLength="132.1113" x="150.1642" y="638.2866">Word count validation</text></g><!--entity UC6--><g class="entity" data-qualified-name="cookbook-forge.UC6" data-source-line="40" id="ent0010"><ellipse cx="321.22" cy="716.8426" fill="#FFFFFF" rx="79.29" ry="18.258" style="stroke:#000000;stroke-width:0.5;"/><text fill="#000000" font-family="Helvetica" font-size="12" lengthAdjust="spacing" textLength="134.0273" x="254.2063" y="720.6346">Emit ElegantBook PDF</text></g><!--entity UC7--><g class="entity" data-qualified-name="cookbook-forge.UC7" data-source-line="41" id="ent0011"><ellipse cx="264.2195" cy="798.3066" fill="#FFFFFF" rx="74.0095" ry="17.2019" style="stroke:#000000;stroke-width:0.5;"/><text fill="#000000" font-family="Helvetica" font-size="12" lengthAdjust="spacing" textLength="121.8691" x="203.2849" y="802.0985">Emit Nextra website</text></g><!--entity UC8--><g class="entity" data-qualified-name="cookbook-forge.UC8" data-source-line="42" id="ent0012"><ellipse cx="293.2185" cy="864.0824" fill="#FFFFFF" rx="75.8885" ry="17.5777" style="stroke:#000000;stroke-width:0.5;"/><text fill="#000000" font-family="Helvetica" font-size="12" lengthAdjust="spacing" textLength="126.2285" x="230.1043" y="867.8743">Emit optimized EPUB</text></g><!--entity UC9--><g class="entity" data-qualified-name="cookbook-forge.UC9" data-source-line="43" id="ent0013"><ellipse cx="173.2185" cy="964.9543" fill="#FFFFFF" rx="93.3985" ry="21.0797" style="stroke:#000000;stroke-width:0.5;"/><text fill="#000000" font-family="Helvetica" font-size="12" lengthAdjust="spacing" textLength="165.4395" x="90.4987" y="968.7463">Generate bilingual README</text></g><!--entity UC10--><g class="entity" data-qualified-name="cookbook-forge.UC10" data-source-line="44" id="ent0014"><ellipse cx="197.2167" cy="1066.532" fill="#FFFFFF" rx="79.4367" ry="18.2873" style="stroke:#000000;stroke-width:0.5;"/><text fill="#000000" font-family="Helvetica" font-size="12" lengthAdjust="spacing" textLength="134.3613" x="130.036" y="1070.324">Browse website online</text></g><!--entity UC11--><g class="entity" data-qualified-name="cookbook-forge.UC11" data-source-line="45" id="ent0015"><ellipse cx="258.2195" cy="1133.9405" fill="#FFFFFF" rx="78.6295" ry="18.1259" style="stroke:#000000;stroke-width:0.5;"/><text fill="#000000" font-family="Helvetica" font-size="12" lengthAdjust="spacing" textLength="132.5215" x="191.9587" y="1137.7325">Download PDF / EPUB</text></g><!--entity AUTHOR--><g class="entity" data-qualified-name="AUTHOR" data-source-line="30" id="ent0001"><ellipse cx="297.2217" cy="52.0146" fill="#FFFFFF" rx="8" ry="8" style="stroke:#000000;stroke-width:0.5;"/><path d="M297.2217,60.0146 L297.2217,87.0146 M284.2217,68.0146 L310.2217,68.0146 M297.2217,87.0146 L284.2217,102.0146 M297.2217,87.0146 L310.2217,102.0146" fill="none" style="stroke:#000000;stroke-width:0.5;"/><text fill="#000000" font-family="Helvetica" font-size="12" lengthAdjust="spacing" textLength="40.5234" x="276.96" y="115.5791">Author</text></g><!--entity READER--><g class="entity" data-qualified-name="READER" data-source-line="31" id="ent0002"><ellipse cx="27.2227" cy="936.1646" fill="#FFFFFF" rx="8" ry="8" style="stroke:#000000;stroke-width:0.5;"/><path d="M27.2227,944.1646 L27.2227,971.1646 M14.2227,952.1646 L40.2227,952.1646 M27.2227,971.1646 L14.2227,986.1646 M27.2227,971.1646 L40.2227,986.1646" fill="none" style="stroke:#000000;stroke-width:0.5;"/><text fill="#000000" font-family="Helvetica" font-size="12" lengthAdjust="spacing" textLength="42.4453" x="6" y="999.7291">Reader</text></g><!--link AUTHOR to UC0--><g class="link" data-entity-1="ent0001" data-entity-2="ent0004" data-link-type="dependency" data-source-line="48" id="lnk16"><path d="M277.98,118.5546 C266.83,139.8346 255.5788,161.3148 246.5388,178.5848" fill="none" id="AUTHOR-to-UC0" style="stroke:#000000;stroke-width:0.75;"/><polygon fill="#000000" points="244.22,183.0146,251.9377,176.896,246.5388,178.5848,244.85,173.186,244.22,183.0146" style="stroke:#000000;stroke-width:0.75;stroke-linejoin:miter;stroke-miterlimit:10;"/></g><!--link AUTHOR to UC3--><g class="link" data-entity-1="ent0001" data-entity-2="ent0007" data-link-type="dependency" data-source-line="49" id="lnk17"><path d="M317.85,104.8146 C336.22,127.7546 360.22,164.8546 360.22,202.0946 C360.22,202.0946 360.22,202.0946 360.22,392.5946 C360.22,424.1946 334.0366,445.9208 310.9366,459.7908" fill="none" id="AUTHOR-to-UC3" style="stroke:#000000;stroke-width:0.75;"/><polygon fill="#000000" points="306.65,462.3646,316.425,461.161,310.9366,459.7908,312.3069,454.3024,306.65,462.3646" style="stroke:#000000;stroke-width:0.75;stroke-linejoin:miter;stroke-miterlimit:10;"/></g><!--link UC0 to UC1--><g class="link" data-entity-1="ent0004" data-entity-2="ent0005" data-link-type="dependency" data-source-line="50" id="lnk18"><path d="M198.59,221.7746 C192.81,226.2746 187.61,231.6946 184.22,238.0946 C179.16,247.6646 179.2809,254.3476 183.4209,264.3076" fill="none" id="UC0-to-UC1" style="stroke:#000000;stroke-width:0.75;stroke-dasharray:7,7;"/><polygon fill="#000000" points="185.34,268.9246,185.5792,259.0787,183.4209,264.3076,178.1919,262.1493,185.34,268.9246" style="stroke:#000000;stroke-width:0.75;stroke-linejoin:miter;stroke-miterlimit:10;"/><text fill="#000000" font-family="Helvetica" font-size="12" lengthAdjust="spacing" textLength="58.1191" x="185.22" y="251.1591">&#171;include&#187;</text></g><!--link UC0 to UC1--><!--link UC1 to UC2--><g class="link" data-entity-1="ent0005" data-entity-2="ent0006" data-link-type="dependency" data-source-line="51" id="lnk19"><path d="M179.02,321.7646 C173.24,331.3946 169.74,342.5146 174.22,352.7446 C176.71,358.4246 177.0953,359.9823 181.4053,364.5923" fill="none" id="UC1-to-UC2" style="stroke:#000000;stroke-width:0.75;stroke-dasharray:7,7;"/><polygon fill="#000000" points="184.82,368.2446,181.5955,358.9386,181.4053,364.5923,175.7516,364.4021,184.82,368.2446" style="stroke:#000000;stroke-width:0.75;stroke-linejoin:miter;stroke-miterlimit:10;"/><text fill="#000000" font-family="Helvetica" font-size="12" lengthAdjust="spacing" textLength="58.1191" x="175.22" y="349.8091">&#171;include&#187;</text></g><!--link UC1 to UC2--><!--link UC2 to UC3--><g class="link" data-entity-1="ent0006" data-entity-2="ent0007" data-link-type="dependency" data-source-line="52" id="lnk20"><path d="M209.24,415.6946 C207.93,425.8846 208.37,437.5346 214.22,446.4446 C219.86,455.0246 224.091,458.9994 233.451,463.2694" fill="none" id="UC2-to-UC3" style="stroke:#000000;stroke-width:0.75;stroke-dasharray:7,7;"/><polygon fill="#000000" points="238,465.3446,231.472,457.97,233.451,463.2694,228.1516,465.2484,238,465.3446" style="stroke:#000000;stroke-width:0.75;stroke-linejoin:miter;stroke-miterlimit:10;"/><text fill="#000000" font-family="Helvetica" font-size="12" lengthAdjust="spacing" textLength="58.1191" x="215.22" y="443.5091">&#171;include&#187;</text></g><!--link UC2 to UC3--><!--link UC3 to UC4--><g class="link" data-entity-1="ent0007" data-entity-2="ent0008" data-link-type="dependency" data-source-line="53" id="lnk21"><path d="M238,487.5046 C228.64,491.7646 219.86,497.8146 214.22,506.3946 C207.99,515.8746 210.0276,523.7251 216.0476,533.1951" fill="none" id="UC3-to-UC4" style="stroke:#000000;stroke-width:0.75;stroke-dasharray:7,7;"/><polygon fill="#000000" points="218.73,537.4146,217.2774,527.6735,216.0476,533.1951,210.5261,531.9653,218.73,537.4146" style="stroke:#000000;stroke-width:0.75;stroke-linejoin:miter;stroke-miterlimit:10;"/><text fill="#000000" font-family="Helvetica" font-size="12" lengthAdjust="spacing" textLength="58.1191" x="215.22" y="519.4591">&#171;include&#187;</text></g><!--link UC3 to UC4--><!--link UC4 to UC5--><g class="link" data-entity-1="ent0008" data-entity-2="ent0009" data-link-type="dependency" data-source-line="54" id="lnk22"><path d="M197.69,568.7746 C191.11,573.1046 185.06,578.5846 181.22,585.4046 C175.06,596.3946 179.0471,604.442 188.7471,613.402" fill="none" id="UC4-to-UC5" style="stroke:#000000;stroke-width:0.75;stroke-dasharray:7,7;"/><polygon fill="#000000" points="192.42,616.7946,188.523,607.7496,188.7471,613.402,183.0947,613.6261,192.42,616.7946" style="stroke:#000000;stroke-width:0.75;stroke-linejoin:miter;stroke-miterlimit:10;"/><text fill="#000000" font-family="Helvetica" font-size="12" lengthAdjust="spacing" textLength="58.1191" x="182.22" y="598.4691">&#171;include&#187;</text></g><!--link UC4 to UC5--><!--link UC5 to UC6--><g class="link" data-entity-1="ent0009" data-entity-2="ent0010" data-link-type="dependency" data-source-line="55" id="lnk23"><path d="M246.13,651.6746 C254.19,656.4546 262.74,661.9346 270.22,667.5846 C282.67,676.9946 291.8991,685.5045 301.5391,695.2245" fill="none" id="UC5-to-UC6" style="stroke:#000000;stroke-width:0.75;stroke-dasharray:7,7;"/><polygon fill="#000000" points="305.06,698.7746,301.5625,689.5677,301.5391,695.2245,295.8823,695.2012,305.06,698.7746" style="stroke:#000000;stroke-width:0.75;stroke-linejoin:miter;stroke-miterlimit:10;"/><text fill="#000000" font-family="Helvetica" font-size="12" lengthAdjust="spacing" textLength="56.666" x="288.98" y="680.6491">&#171;extend&#187;</text></g><!--link UC5 to UC6--><!--link UC5 to UC7--><g class="link" data-entity-1="ent0009" data-entity-2="ent0011" data-link-type="dependency" data-source-line="56" id="lnk24"><path d="M192.3,652.0746 C167.27,671.5646 133.84,705.0846 151.22,735.1046 C165.47,759.7146 188.7198,773.4288 213.2498,782.8088" fill="none" id="UC5-to-UC7" style="stroke:#000000;stroke-width:0.75;stroke-dasharray:7,7;"/><polygon fill="#000000" points="217.92,784.5946,210.9423,777.644,213.2498,782.8088,208.085,785.1163,217.92,784.5946" style="stroke:#000000;stroke-width:0.75;stroke-linejoin:miter;stroke-miterlimit:10;"/><text fill="#000000" font-family="Helvetica" font-size="12" lengthAdjust="spacing" textLength="56.666" x="152.22" y="721.9091">&#171;extend&#187;</text></g><!--link UC5 to UC8--><g class="link" data-entity-1="ent0009" data-entity-2="ent0012" data-link-type="dependency" data-source-line="57" id="lnk25"><path d="M213.49,653.0346 C211.13,674.7146 210.6,711.5946 229.22,735.1046 C247.22,757.8146 334.74,757.2746 351.22,781.1046 C359.92,793.6846 357.76,801.6846 351.22,815.5046 C344.98,828.6946 337.2034,836.5877 325.8134,844.5177" fill="none" id="UC5-to-UC8" style="stroke:#000000;stroke-width:0.75;stroke-dasharray:7,7;"/><polygon fill="#000000" points="321.71,847.3746,331.3817,845.515,325.8134,844.5177,326.8106,838.9495,321.71,847.3746" style="stroke:#000000;stroke-width:0.75;stroke-linejoin:miter;stroke-miterlimit:10;"/><text fill="#000000" font-family="Helvetica" font-size="12" lengthAdjust="spacing" textLength="56.666" x="325.17" y="763.1691">&#171;extend&#187;</text></g><!--link UC5 to UC9--><g class="link" data-entity-1="ent0009" data-entity-2="ent0013" data-link-type="dependency" data-source-line="58" id="lnk26"><path d="M177.42,650.5146 C169.02,655.0646 160.73,660.7246 154.22,667.5846 C134.46,688.4446 119.19,766.7246 117.22,781.1046 C108.9,841.9546 139.3772,906.0089 158.2972,939.2589" fill="none" id="UC5-to-UC9" style="stroke:#000000;stroke-width:0.75;stroke-dasharray:7,7;"/><polygon fill="#000000" points="160.77,943.6046,159.7955,933.8041,158.2972,939.2589,152.8424,937.7606,160.77,943.6046" style="stroke:#000000;stroke-width:0.75;stroke-linejoin:miter;stroke-miterlimit:10;"/><text fill="#000000" font-family="Helvetica" font-size="12" lengthAdjust="spacing" textLength="58.1191" x="118.22" y="803.3691">&#171;include&#187;</text></g><!--link UC7 to UC10--><g class="link" data-entity-1="ent0011" data-entity-2="ent0014" data-link-type="dependency" data-source-line="59" id="lnk27"><path d="M235.57,814.5346 C223.89,822.3846 211.64,833.1446 205.22,846.5046 C198.45,860.5946 199.61,867.0846 205.22,881.6646 C211.89,898.9946 217.65,902.5546 233.22,912.6646 C251.26,924.3746 266.59,910.2646 279.22,927.6646 C298.69,954.4946 293.84,972.4946 279.22,1002.2446 C268.99,1023.0646 252.5559,1036.4331 234.4959,1047.0931" fill="none" id="UC7-to-UC10" style="stroke:#000000;stroke-width:0.75;stroke-dasharray:7,7;"/><polygon fill="#000000" points="230.19,1049.6346,239.9738,1048.5045,234.4959,1047.0931,235.9073,1041.6152,230.19,1049.6346" style="stroke:#000000;stroke-width:0.75;stroke-linejoin:miter;stroke-miterlimit:10;"/><text fill="#000000" font-family="Helvetica" font-size="12" lengthAdjust="spacing" textLength="58.1191" x="234.22" y="909.7291">&#171;include&#187;</text></g><!--link UC6 to UC11--><g class="link" data-entity-1="ent0010" data-entity-2="ent0015" data-link-type="dependency" data-source-line="60" id="lnk28"><path d="M333.93,735.1246 C342.54,747.4546 353.69,764.6946 361.22,781.1046 C407.99,883.0046 418.9,932.7346 369.22,1033.2446 C351.03,1070.0546 317.0206,1096.7926 290.5506,1113.8826" fill="none" id="UC6-to-UC11" style="stroke:#000000;stroke-width:0.75;stroke-dasharray:7,7;"/><polygon fill="#000000" points="286.35,1116.5946,296.0807,1115.0734,290.5506,1113.8826,291.7414,1108.3525,286.35,1116.5946" style="stroke:#000000;stroke-width:0.75;stroke-linejoin:miter;stroke-miterlimit:10;"/><text fill="#000000" font-family="Helvetica" font-size="12" lengthAdjust="spacing" textLength="58.1191" x="402.61" y="909.7291">&#171;include&#187;</text></g><!--link UC8 to UC11--><g class="link" data-entity-1="ent0012" data-entity-2="ent0015" data-link-type="dependency" data-source-line="61" id="lnk29"><path d="M296.5,882.0046 C303.06,919.7746 315.06,1013.2246 289.22,1084.8246 C285.24,1095.8546 281.2576,1102.8842 274.9776,1111.6242" fill="none" id="UC8-to-UC11" style="stroke:#000000;stroke-width:0.75;stroke-dasharray:7,7;"/><polygon fill="#000000" points="272.06,1115.6846,280.5601,1110.7099,274.9776,1111.6242,274.0633,1106.0417,272.06,1115.6846" style="stroke:#000000;stroke-width:0.75;stroke-linejoin:miter;stroke-miterlimit:10;"/><text fill="#000000" font-family="Helvetica" font-size="12" lengthAdjust="spacing" textLength="58.1191" x="304.35" y="1030.3091">&#171;include&#187;</text></g><!--link READER to UC10--><g class="link" data-entity-1="ent0002" data-entity-2="ent0014" data-link-type="dependency" data-source-line="62" id="lnk30"><path d="M48.93,988.2846 C54.32,993.2146 60.27,998.1746 66.22,1002.2446 C95.1,1021.9946 126.4629,1036.9519 153.4029,1048.3119" fill="none" id="READER-to-UC10" style="stroke:#000000;stroke-width:0.75;"/><polygon fill="#000000" points="158.01,1050.2546,151.2713,1043.072,153.4029,1048.3119,148.163,1050.4434,158.01,1050.2546" style="stroke:#000000;stroke-width:0.75;stroke-linejoin:miter;stroke-miterlimit:10;"/></g><!--link READER to UC11--><g class="link" data-entity-1="ent0002" data-entity-2="ent0015" data-link-type="dependency" data-source-line="63" id="lnk31"><path d="M42.94,1002.5446 C56.03,1028.9446 77.07,1063.5346 105.22,1084.8246 C131.1,1104.3846 160.245,1114.9605 189.625,1121.9305" fill="none" id="READER-to-UC11" style="stroke:#000000;stroke-width:0.75;"/><polygon fill="#000000" points="194.49,1123.0846,186.6564,1117.1152,189.625,1121.9305,184.8097,1124.8992,194.49,1123.0846" style="stroke:#000000;stroke-width:0.75;stroke-linejoin:miter;stroke-miterlimit:10;"/></g><!--link UC6 to UC7--><!--link UC7 to UC8--><!--link UC8 to UC9--><!--link UC9 to UC10--><!--link UC10 to UC11--><?plantuml-src ZLNRRXCn47tVhnYL1q0Yz-PIX2gbJTeYqOlIHY013uvtih6oiLTURzg2aFW8lf0lOTRhK0UJjYj5kpld-7Zcp7Zp4efLMei5IpHRvNMb4z0uHusI8-JcFaNu_VCNFMd13LoUdyBq_0EqwtTlOAMauWkjLXZbIo4pHWfU48mkV6J6-3BHgf3niKgLXXSdzl8OCSvPaPeJ9Sq58u4pJDTe16V_vroBRmYjjWVc2nQhMo4JcBCqzpVdASlpeQ4gPeN1zrn9kxhfKLngMgAck0SCkL7wwCdiAvhICMf7QThBeqnpv2p7fxKsn4VL9iWDaqdw3Bq7wgEALoJ4acVeROYFgWsrLhUFWZSBmPSIynoQzNxNGqTLbs_mpkmIy0PXcn8POMXgkLBB6VrgSvffB1s5Ox8KHjMe4qrbO1JCb36Av8GcZuIItXPInPXZ1cq_DStaiWns_6IooezhUrxqnkmeOkLCmB0m2xgn78RJcxFBYGjFa95xPNWo7ex6aoZwknBsjjFVW-yHG55D1UnTPyZ5_9xIpmG79cF8LQ4vvdkbslIuwPF9dPHqOKLkYLf5X1Kpg0KTaY_orItE6gV2d1Mp1jDtOjsu6fqqnbVJezTEhkNBdI8T45eDCv40RMyAZJO5LPXKI7HhslwQOPPfjSP_A1sVyb4BqkGBbb5YS3xwv4ZxMoIQDsfi8GsiMIfYLZRC4Ri-SRmI1iOf9aoQ8t8Hg2J7wmMy2veopO1io2a7H-i7D9KPiQAFHWobDuuss64DbPaKBBMTFHyxye5FFgBvfxlR5PJqd6bjDN2aRcMgM5mM0Gr_zrOh-X55rL11hNPeMx_rseae1FLw-To2j_3kdP0yBM8yF8pAI8Mq0wJja4w0T1oo7o3x3ka6IDSXFOkGtIZZBQ2_2nZi0Ww2JVgRCfi1rDj0eGM3NL1r9fsDr93jzrPaZQrzNeWuHlcL_dPapHwLqjKWtBQM1k6EzJC8xripWt0tigK4yRujFWWFR7L1-20gpGiJRqRMkX2mfNOV02sIXIcHtXy0?></g></svg>