<svg xmlns="http://www.w3.org/2000/svg" xmlns:xlink="http://www.w3.org/1999/xlink" contentStyleType="text/css" data-diagram-type="ACTIVITY" height="905px" preserveAspectRatio="none" style="width:1095px;height:905px;background:#FFFFFF;" version="1.1" viewBox="0 0 1095 905" width="1095px" zoomAndPan="magnify"><?plantuml 1.2026.6?><defs/><g><g class="title" data-source-line="16"><text fill="#000000" font-family="'WenQuanYi Micro Hei'" font-size="14" font-weight="700" lengthAdjust="spacing" textLength="186.0811" x="453.4709" y="34.0752">cookbook-forge &#24037;&#20316;&#27969;&#31243;</text></g><ellipse cx="536.5115" cy="63.0146" fill="#222222" rx="10" ry="10" style="stroke:#222222;stroke-width:1;"/><path d="M610.5447,89.5073 L610.5447,106.3066 L590.5447,110.3066 L610.5447,114.3066 L610.5447,131.106 A0,0 0 0 0 610.5447,131.106 L765.6326,131.106 A0,0 0 0 0 765.6326,131.106 L765.6326,99.5073 L755.6326,89.5073 L610.5447,89.5073 A0,0 0 0 0 610.5447,89.5073" fill="#FFFFFF" style="stroke:#000000;stroke-width:0.5;"/><path d="M755.6326,89.5073 L755.6326,99.5073 L765.6326,99.5073 L755.6326,89.5073" fill="#FFFFFF" style="stroke:#000000;stroke-width:0.5;"/><text fill="#000000" font-family="'WenQuanYi Micro Hei'" font-size="13" lengthAdjust="spacing" textLength="108.0879" x="616.5447" y="107.5771">&#20027;&#39064; / &#36164;&#26009; / &#35835;&#32773;</text><text fill="#000000" font-family="'WenQuanYi Micro Hei'" font-size="13" lengthAdjust="spacing" textLength="134.0879" x="616.5447" y="123.3765">&#23383;&#25968; / &#26684;&#24335; / &#22270;&#34920;&#20559;&#22909;</text><rect fill="#FFFFFF" height="34.584" rx="12.5" ry="12.5" style="stroke:#000000;stroke-width:0.5;" width="108.0664" x="482.4783" y="93.0146"/><text fill="#000000" font-family="'WenQuanYi Micro Hei'" font-size="12" lengthAdjust="spacing" textLength="88.0664" x="492.4783" y="115.0791">&#38454;&#27573; 0 &#36755;&#20837;&#35782;&#21035;</text><path d="M610.5447,141.106 L610.5447,165.8049 L590.5447,169.8049 L610.5447,173.8049 L610.5447,198.5039 A0,0 0 0 0 610.5447,198.5039 L795.9172,198.5039 A0,0 0 0 0 795.9172,198.5039 L795.9172,151.106 L785.9172,141.106 L610.5447,141.106 A0,0 0 0 0 610.5447,141.106" fill="#FFFFFF" style="stroke:#000000;stroke-width:0.5;"/><path d="M785.9172,141.106 L785.9172,151.106 L795.9172,151.106 L785.9172,141.106" fill="#FFFFFF" style="stroke:#000000;stroke-width:0.5;"/><text fill="#000000" font-family="'WenQuanYi Micro Hei'" font-size="13" lengthAdjust="spacing" textLength="143.5269" x="616.5447" y="159.1758">URL / GitHub / arxiv /</text><text fill="#000000" font-family="'WenQuanYi Micro Hei'" font-size="13" lengthAdjust="spacing" textLength="156.9458" x="616.5447" y="174.9751">PDF / EPUB / &#26412;&#22320; / &#32593;&#32476;</text><text fill="#000000" font-family="'WenQuanYi Micro Hei'" font-size="13" lengthAdjust="spacing" textLength="164.3726" x="616.5447" y="190.7744">-&gt; metadata/sources.md</text><rect fill="#FFFFFF" height="34.584" rx="12.5" ry="12.5" style="stroke:#000000;stroke-width:0.5;" width="108.0664" x="482.4783" y="152.5129"/><text fill="#000000" font-family="'WenQuanYi Micro Hei'" font-size="12" lengthAdjust="spacing" textLength="88.0664" x="492.4783" y="174.5774">&#38454;&#27573; 1 &#36164;&#26009;&#37319;&#38598;</text><path d="M610.5447,258.9966 L610.5447,275.7959 L590.5447,279.7959 L610.5447,283.7959 L610.5447,300.5952 A0,0 0 0 0 610.5447,300.5952 L790.5344,300.5952 A0,0 0 0 0 790.5344,300.5952 L790.5344,268.9966 L780.5344,258.9966 L610.5447,258.9966 A0,0 0 0 0 610.5447,258.9966" fill="#FFFFFF" style="stroke:#000000;stroke-width:0.5;"/><path d="M780.5344,258.9966 L780.5344,268.9966 L790.5344,268.9966 L780.5344,258.9966" fill="#FFFFFF" style="stroke:#000000;stroke-width:0.5;"/><text fill="#000000" font-family="'WenQuanYi Micro Hei'" font-size="13" lengthAdjust="spacing" textLength="110.7793" x="616.5447" y="277.0664">&#20840;&#26223;&#22270; + &#31456;&#33410;&#30446;&#24405;</text><text fill="#000000" font-family="'WenQuanYi Micro Hei'" font-size="13" lengthAdjust="spacing" textLength="158.9897" x="616.5447" y="292.8657">-&gt; metadata/outline.md</text><rect fill="#FFFFFF" height="34.584" rx="12.5" ry="12.5" style="stroke:#000000;stroke-width:0.5;" width="108.0664" x="482.4783" y="262.5039"/><text fill="#000000" font-family="'WenQuanYi Micro Hei'" font-size="12" lengthAdjust="spacing" textLength="88.0664" x="492.4783" y="284.5684">&#38454;&#27573; 2 &#22823;&#32434;&#35774;&#35745;</text><polygon fill="#FFFFFF" points="536.5115,218.5039,548.5115,230.5039,536.5115,242.5039,524.5115,230.5039,536.5115,218.5039" style="stroke:#000000;stroke-width:0.5;stroke-linejoin:miter;stroke-miterlimit:10;"/><polygon fill="#FFFFFF" points="500.5117,320.5952,572.5112,320.5952,584.5112,332.5952,572.5112,344.5952,500.5117,344.5952,488.5117,332.5952,500.5117,320.5952" style="stroke:#000000;stroke-width:0.5;stroke-linejoin:miter;stroke-miterlimit:10;"/><text fill="#000000" font-family="'WenQuanYi Micro Hei'" font-size="11" lengthAdjust="spacing" textLength="11" x="540.5115" y="355.6543">&#26159;</text><text fill="#000000" font-family="'WenQuanYi Micro Hei'" font-size="11" lengthAdjust="spacing" textLength="71.9995" x="500.5117" y="336.97">&#29992;&#25143;&#30830;&#35748;&#22823;&#32434;?</text><text fill="#000000" font-family="'WenQuanYi Micro Hei'" font-size="11" lengthAdjust="spacing" textLength="11" x="584.5112" y="330.2856">&#21542;</text><path d="M614.4441,367.1543 L614.4441,391.8533 L594.4441,395.8533 L614.4441,399.8533 L614.4441,424.5522 A0,0 0 0 0 614.4441,424.5522 L834.3162,424.5522 A0,0 0 0 0 834.3162,424.5522 L834.3162,377.1543 L824.3162,367.1543 L614.4441,367.1543 A0,0 0 0 0 614.4441,367.1543" fill="#FFFFFF" style="stroke:#000000;stroke-width:0.5;"/><path d="M824.3162,367.1543 L824.3162,377.1543 L834.3162,377.1543 L824.3162,367.1543" fill="#FFFFFF" style="stroke:#000000;stroke-width:0.5;"/><text fill="#000000" font-family="'WenQuanYi Micro Hei'" font-size="13" lengthAdjust="spacing" textLength="76.7368" x="620.4441" y="385.2241">&#27599;&#31456; .mdx&#65306;</text><text fill="#000000" font-family="'WenQuanYi Micro Hei'" font-size="13" lengthAdjust="spacing" textLength="149.1318" x="620.4441" y="401.0234">&#24341;&#20837; / &#22320;&#22270; / &#21407;&#29702; / &#23454;&#29992;</text><text fill="#000000" font-family="'WenQuanYi Micro Hei'" font-size="13" lengthAdjust="spacing" textLength="198.8721" x="620.4441" y="416.8228">Recipes / &#38519;&#38449; / &#35201;&#28857; / &#24310;&#20280;&#38405;&#35835;</text><rect fill="#FFFFFF" height="34.584" rx="12.5" ry="12.5" style="stroke:#000000;stroke-width:0.5;" width="115.8652" x="478.5789" y="378.5613"/><text fill="#000000" font-family="'WenQuanYi Micro Hei'" font-size="12" lengthAdjust="spacing" textLength="95.8652" x="488.5789" y="400.6257">&#38454;&#27573; 3 &#36880;&#31456; MDX</text><rect fill="#FFFFFF" height="34.584" rx="12.5" ry="12.5" style="stroke:#000000;stroke-width:0.5;" width="156.0195" x="458.5017" y="501.1113"/><text fill="#000000" font-family="'WenQuanYi Micro Hei'" font-size="12" lengthAdjust="spacing" textLength="136.0195" x="468.5017" y="523.1758">&#25193;&#20889; Recipes / &#28304;&#30721;&#35299;&#26512;</text><rect fill="#FFFFFF" height="34.584" rx="12.5" ry="12.5" style="stroke:#000000;stroke-width:0.5;" width="93.8867" x="489.5681" y="564.511"/><text fill="#000000" font-family="'WenQuanYi Micro Hei'" font-size="12" lengthAdjust="spacing" textLength="73.8867" x="499.5681" y="586.5754">&#36895;&#26597;&#34920; / &#38468;&#24405;</text><polygon fill="#FFFFFF" points="506.0117,444.5522,567.0112,444.5522,579.0112,456.5522,567.0112,468.5522,506.0117,468.5522,494.0117,456.5522,506.0117,444.5522" style="stroke:#000000;stroke-width:0.5;stroke-linejoin:miter;stroke-miterlimit:10;"/><text fill="#000000" font-family="'WenQuanYi Micro Hei'" font-size="11" lengthAdjust="spacing" textLength="11" x="540.5115" y="479.6113">&#26159;</text><text fill="#000000" font-family="'WenQuanYi Micro Hei'" font-size="11" lengthAdjust="spacing" textLength="60.9995" x="506.0117" y="460.927">&#23383;&#25968;&#26410;&#36798;&#26631;?</text><text fill="#000000" font-family="'WenQuanYi Micro Hei'" font-size="11" lengthAdjust="spacing" textLength="11" x="483.0117" y="454.2427">&#21542;</text><rect fill="#FFFFFF" height="34.584" rx="12.5" ry="12.5" style="stroke:#000000;stroke-width:0.5;" width="120.0664" x="476.4783" y="641.095"/><text fill="#000000" font-family="'WenQuanYi Micro Hei'" font-size="12" lengthAdjust="spacing" textLength="100.0664" x="486.4783" y="663.1594">&#38454;&#27573; 5 &#22810;&#26684;&#24335;&#36716;&#25442;</text><rect fill="#555555" height="6" rx="2.5" ry="2.5" style="stroke:#555555;stroke-width:1;" width="1059.0229" x="16" y="695.679"/><rect fill="#FFFFFF" height="34.584" rx="12.5" ry="12.5" style="stroke:#000000;stroke-width:0.5;" width="111.2188" x="28" y="721.679"/><text fill="#000000" font-family="'WenQuanYi Micro Hei'" font-size="12" lengthAdjust="spacing" textLength="91.2188" x="38" y="743.7434">5a. MDX &#28304;&#26684;&#24335;</text><path d="M328.707,726.0713 L328.707,734.9709 L308.707,738.9709 L328.707,742.9709 L328.707,751.8706 A0,0 0 0 0 328.707,751.8706 L504.6597,751.8706 A0,0 0 0 0 504.6597,751.8706 L504.6597,736.0713 L494.6597,726.0713 L328.707,726.0713 A0,0 0 0 0 328.707,726.0713" fill="#FFFFFF" style="stroke:#000000;stroke-width:0.5;"/><path d="M494.6597,726.0713 L494.6597,736.0713 L504.6597,736.0713 L494.6597,726.0713" fill="#FFFFFF" style="stroke:#000000;stroke-width:0.5;"/><text fill="#000000" font-family="'WenQuanYi Micro Hei'" font-size="13" lengthAdjust="spacing" textLength="154.9526" x="334.707" y="744.1411">xelatex &#20004;&#36941;&#32534;&#35793; -&gt; PDF</text><rect fill="#FFFFFF" height="34.584" rx="12.5" ry="12.5" style="stroke:#000000;stroke-width:0.5;" width="159.4883" x="149.2188" y="721.679"/><text fill="#000000" font-family="'WenQuanYi Micro Hei'" font-size="12" lengthAdjust="spacing" textLength="139.4883" x="159.2188" y="743.7434">5b. ElegantBook LaTeX</text><path d="M663.6265,718.1716 L663.6265,734.9709 L643.6265,738.9709 L663.6265,742.9709 L663.6265,759.7703 A0,0 0 0 0 663.6265,759.7703 L776.2993,759.7703 A0,0 0 0 0 776.2993,759.7703 L776.2993,728.1716 L766.2993,718.1716 L663.6265,718.1716 A0,0 0 0 0 663.6265,718.1716" fill="#FFFFFF" style="stroke:#000000;stroke-width:0.5;"/><path d="M766.2993,718.1716 L766.2993,728.1716 L776.2993,728.1716 L766.2993,718.1716" fill="#FFFFFF" style="stroke:#000000;stroke-width:0.5;"/><text fill="#000000" font-family="'WenQuanYi Micro Hei'" font-size="13" lengthAdjust="spacing" textLength="91.6729" x="669.6265" y="736.2415">npm run build</text><text fill="#000000" font-family="'WenQuanYi Micro Hei'" font-size="13" lengthAdjust="spacing" textLength="91.4443" x="669.6265" y="752.0408">+ Docker &#39564;&#35777;</text><rect fill="#FFFFFF" height="34.584" rx="12.5" ry="12.5" style="stroke:#000000;stroke-width:0.5;" width="110.9668" x="532.6597" y="721.679"/><text fill="#000000" font-family="'WenQuanYi Micro Hei'" font-size="12" lengthAdjust="spacing" textLength="90.9668" x="542.6597" y="743.7434">5c. Nextra &#32593;&#31449;</text><path d="M899.8228,718.1716 L899.8228,734.9709 L879.8228,738.9709 L899.8228,742.9709 L899.8228,759.7703 A0,0 0 0 0 899.8228,759.7703 L1063.0229,759.7703 A0,0 0 0 0 1063.0229,759.7703 L1063.0229,728.1716 L1053.0229,718.1716 L899.8228,718.1716 A0,0 0 0 0 899.8228,718.1716" fill="#FFFFFF" style="stroke:#000000;stroke-width:0.5;"/><path d="M1053.0229,718.1716 L1053.0229,728.1716 L1063.0229,728.1716 L1053.0229,718.1716" fill="#FFFFFF" style="stroke:#000000;stroke-width:0.5;"/><text fill="#000000" font-family="'WenQuanYi Micro Hei'" font-size="13" lengthAdjust="spacing" textLength="142.2002" x="905.8228" y="736.2415">&#23383;&#20307;&#23376;&#38598;&#21270; + CSS &#37325;&#20889;</text><text fill="#000000" font-family="'WenQuanYi Micro Hei'" font-size="13" lengthAdjust="spacing" textLength="90.7778" x="905.8228" y="752.0408">+ Python &#25171;&#21253;</text><rect fill="#FFFFFF" height="34.584" rx="12.5" ry="12.5" style="stroke:#000000;stroke-width:0.5;" width="75.5234" x="804.2993" y="721.679"/><text fill="#000000" font-family="'WenQuanYi Micro Hei'" font-size="12" lengthAdjust="spacing" textLength="55.5234" x="814.2993" y="743.7434">5d. EPUB</text><rect fill="#555555" height="6" rx="2.5" ry="2.5" style="stroke:#555555;stroke-width:1;" width="1059.0229" x="16" y="779.7703"/><path d="M610.5447,802.2629 L610.5447,819.0623 L590.5447,823.0623 L610.5447,827.0623 L610.5447,843.8616 A0,0 0 0 0 610.5447,843.8616 L744.533,843.8616 A0,0 0 0 0 744.533,843.8616 L744.533,812.2629 L734.533,802.2629 L610.5447,802.2629 A0,0 0 0 0 610.5447,802.2629" fill="#FFFFFF" style="stroke:#000000;stroke-width:0.5;"/><path d="M734.533,802.2629 L734.533,812.2629 L744.533,812.2629 L734.533,802.2629" fill="#FFFFFF" style="stroke:#000000;stroke-width:0.5;"/><text fill="#000000" font-family="'WenQuanYi Micro Hei'" font-size="13" lengthAdjust="spacing" textLength="98.9092" x="616.5447" y="820.3328">&#20013;&#33521;&#25991; README</text><text fill="#000000" font-family="'WenQuanYi Micro Hei'" font-size="13" lengthAdjust="spacing" textLength="112.9883" x="616.5447" y="836.1321">+ &#38142;&#25509; + &#32479;&#35745;&#25253;&#21578;</text><rect fill="#FFFFFF" height="34.584" rx="12.5" ry="12.5" style="stroke:#000000;stroke-width:0.5;" width="108.0664" x="482.4783" y="805.7703"/><text fill="#000000" font-family="'WenQuanYi Micro Hei'" font-size="12" lengthAdjust="spacing" textLength="88.0664" x="492.4783" y="827.8347">&#38454;&#27573; 6 &#26368;&#32456;&#20132;&#20184;</text><ellipse cx="536.5115" cy="874.8616" fill="none" rx="11" ry="11" style="stroke:#222222;stroke-width:1;"/><ellipse cx="536.5115" cy="874.8616" fill="#222222" rx="6" ry="6" style="stroke:#222222;stroke-width:1;"/><line style="stroke:#000000;stroke-width:0.75;" x1="536.5115" x2="536.5115" y1="73.0146" y2="93.0146"/><polygon fill="#000000" points="532.5115,83.0146,536.5115,93.0146,540.5115,83.0146,536.5115,87.0146" style="stroke:#000000;stroke-width:1;stroke-linejoin:miter;stroke-miterlimit:10;"/><line style="stroke:#000000;stroke-width:0.75;" x1="536.5115" x2="536.5115" y1="127.5986" y2="152.5129"/><polygon fill="#000000" points="532.5115,142.5129,536.5115,152.5129,540.5115,142.5129,536.5115,146.5129" style="stroke:#000000;stroke-width:1;stroke-linejoin:miter;stroke-miterlimit:10;"/><line style="stroke:#000000;stroke-width:0.75;" x1="536.5115" x2="536.5115" y1="242.5039" y2="262.5039"/><polygon fill="#000000" points="532.5115,252.5039,536.5115,262.5039,540.5115,252.5039,536.5115,256.5039" style="stroke:#000000;stroke-width:1;stroke-linejoin:miter;stroke-miterlimit:10;"/><line style="stroke:#000000;stroke-width:0.75;" x1="584.5112" x2="802.5344" y1="332.5952" y2="332.5952"/><polygon fill="#000000" points="798.5344,289.7959,802.5344,279.7959,806.5344,289.7959,802.5344,285.7959" style="stroke:#000000;stroke-width:0.75;stroke-linejoin:miter;stroke-miterlimit:10;"/><line style="stroke:#000000;stroke-width:0.75;" x1="802.5344" x2="802.5344" y1="230.5039" y2="332.5952"/><line style="stroke:#000000;stroke-width:0.75;" x1="802.5344" x2="548.5115" y1="230.5039" y2="230.5039"/><polygon fill="#000000" points="558.5115,226.5039,548.5115,230.5039,558.5115,234.5039,554.5115,230.5039" style="stroke:#000000;stroke-width:1;stroke-linejoin:miter;stroke-miterlimit:10;"/><line style="stroke:#000000;stroke-width:0.75;" x1="536.5115" x2="536.5115" y1="297.0879" y2="320.5952"/><polygon fill="#000000" points="532.5115,310.5952,536.5115,320.5952,540.5115,310.5952,536.5115,314.5952" style="stroke:#000000;stroke-width:1;stroke-linejoin:miter;stroke-miterlimit:10;"/><line style="stroke:#000000;stroke-width:0.75;" x1="536.5115" x2="536.5115" y1="187.0969" y2="218.5039"/><polygon fill="#000000" points="532.5115,208.5039,536.5115,218.5039,540.5115,208.5039,536.5115,212.5039" style="stroke:#000000;stroke-width:1;stroke-linejoin:miter;stroke-miterlimit:10;"/><line style="stroke:#000000;stroke-width:0.75;" x1="536.5115" x2="536.5115" y1="344.5952" y2="378.5613"/><polygon fill="#000000" points="532.5115,368.5613,536.5115,378.5613,540.5115,368.5613,536.5115,372.5613" style="stroke:#000000;stroke-width:1;stroke-linejoin:miter;stroke-miterlimit:10;"/><line style="stroke:#000000;stroke-width:0.75;" x1="536.5115" x2="536.5115" y1="535.6953" y2="564.511"/><polygon fill="#000000" points="532.5115,554.511,536.5115,564.511,540.5115,554.511,536.5115,558.511" style="stroke:#000000;stroke-width:1;stroke-linejoin:miter;stroke-miterlimit:10;"/><line style="stroke:#000000;stroke-width:0.75;" x1="536.5115" x2="536.5115" y1="468.5522" y2="501.1113"/><polygon fill="#000000" points="532.5115,491.1113,536.5115,501.1113,540.5115,491.1113,536.5115,495.1113" style="stroke:#000000;stroke-width:1;stroke-linejoin:miter;stroke-miterlimit:10;"/><line style="stroke:#000000;stroke-width:0.75;" x1="536.5115" x2="536.5115" y1="599.095" y2="609.095"/><line style="stroke:#000000;stroke-width:0.75;" x1="536.5115" x2="626.5212" y1="609.095" y2="609.095"/><polygon fill="#000000" points="622.5212,544.511,626.5212,534.511,630.5212,544.511,626.5212,540.511" style="stroke:#000000;stroke-width:0.75;stroke-linejoin:miter;stroke-miterlimit:10;"/><line style="stroke:#000000;stroke-width:0.75;" x1="626.5212" x2="626.5212" y1="456.5522" y2="609.095"/><line style="stroke:#000000;stroke-width:0.75;" x1="626.5212" x2="579.0112" y1="456.5522" y2="456.5522"/><polygon fill="#000000" points="589.0112,452.5522,579.0112,456.5522,589.0112,460.5522,585.0112,456.5522" style="stroke:#000000;stroke-width:1;stroke-linejoin:miter;stroke-miterlimit:10;"/><line style="stroke:#000000;stroke-width:0.75;" x1="494.0117" x2="446.5017" y1="456.5522" y2="456.5522"/><polygon fill="#000000" points="442.5017,530.511,446.5017,540.511,450.5017,530.511,446.5017,534.511" style="stroke:#000000;stroke-width:0.75;stroke-linejoin:miter;stroke-miterlimit:10;"/><line style="stroke:#000000;stroke-width:0.75;" x1="446.5017" x2="446.5017" y1="456.5522" y2="621.095"/><line style="stroke:#000000;stroke-width:0.75;" x1="446.5017" x2="536.5115" y1="621.095" y2="621.095"/><line style="stroke:#000000;stroke-width:0.75;" x1="536.5115" x2="536.5115" y1="621.095" y2="641.095"/><polygon fill="#000000" points="532.5115,631.095,536.5115,641.095,540.5115,631.095,536.5115,635.095" style="stroke:#000000;stroke-width:1;stroke-linejoin:miter;stroke-miterlimit:10;"/><line style="stroke:#000000;stroke-width:0.75;" x1="536.5115" x2="536.5115" y1="413.1453" y2="444.5522"/><polygon fill="#000000" points="532.5115,434.5522,536.5115,444.5522,540.5115,434.5522,536.5115,438.5522" style="stroke:#000000;stroke-width:1;stroke-linejoin:miter;stroke-miterlimit:10;"/><line style="stroke:#000000;stroke-width:0.75;" x1="83.6094" x2="83.6094" y1="701.679" y2="721.679"/><polygon fill="#000000" points="79.6094,711.679,83.6094,721.679,87.6094,711.679,83.6094,715.679" style="stroke:#000000;stroke-width:1;stroke-linejoin:miter;stroke-miterlimit:10;"/><line style="stroke:#000000;stroke-width:0.75;" x1="228.9629" x2="228.9629" y1="701.679" y2="721.679"/><polygon fill="#000000" points="224.9629,711.679,228.9629,721.679,232.9629,711.679,228.9629,715.679" style="stroke:#000000;stroke-width:1;stroke-linejoin:miter;stroke-miterlimit:10;"/><line style="stroke:#000000;stroke-width:0.75;" x1="588.1431" x2="588.1431" y1="701.679" y2="721.679"/><polygon fill="#000000" points="584.1431,711.679,588.1431,721.679,592.1431,711.679,588.1431,715.679" style="stroke:#000000;stroke-width:1;stroke-linejoin:miter;stroke-miterlimit:10;"/><line style="stroke:#000000;stroke-width:0.75;" x1="842.061" x2="842.061" y1="701.679" y2="721.679"/><polygon fill="#000000" points="838.061,711.679,842.061,721.679,846.061,711.679,842.061,715.679" style="stroke:#000000;stroke-width:1;stroke-linejoin:miter;stroke-miterlimit:10;"/><line style="stroke:#000000;stroke-width:0.75;" x1="83.6094" x2="83.6094" y1="756.2629" y2="779.7703"/><polygon fill="#000000" points="79.6094,769.7703,83.6094,779.7703,87.6094,769.7703,83.6094,773.7703" style="stroke:#000000;stroke-width:1;stroke-linejoin:miter;stroke-miterlimit:10;"/><line style="stroke:#000000;stroke-width:0.75;" x1="228.9629" x2="228.9629" y1="756.2629" y2="779.7703"/><polygon fill="#000000" points="224.9629,769.7703,228.9629,779.7703,232.9629,769.7703,228.9629,773.7703" style="stroke:#000000;stroke-width:1;stroke-linejoin:miter;stroke-miterlimit:10;"/><line style="stroke:#000000;stroke-width:0.75;" x1="588.1431" x2="588.1431" y1="756.2629" y2="779.7703"/><polygon fill="#000000" points="584.1431,769.7703,588.1431,779.7703,592.1431,769.7703,588.1431,773.7703" style="stroke:#000000;stroke-width:1;stroke-linejoin:miter;stroke-miterlimit:10;"/><line style="stroke:#000000;stroke-width:0.75;" x1="842.061" x2="842.061" y1="756.2629" y2="779.7703"/><polygon fill="#000000" points="838.061,769.7703,842.061,779.7703,846.061,769.7703,842.061,773.7703" style="stroke:#000000;stroke-width:1;stroke-linejoin:miter;stroke-miterlimit:10;"/><line style="stroke:#000000;stroke-width:0.75;" x1="536.5115" x2="536.5115" y1="675.679" y2="695.679"/><polygon fill="#000000" points="532.5115,685.679,536.5115,695.679,540.5115,685.679,536.5115,689.679" style="stroke:#000000;stroke-width:1;stroke-linejoin:miter;stroke-miterlimit:10;"/><line style="stroke:#000000;stroke-width:0.75;" x1="536.5115" x2="536.5115" y1="785.7703" y2="805.7703"/><polygon fill="#000000" points="532.5115,795.7703,536.5115,805.7703,540.5115,795.7703,536.5115,799.7703" style="stroke:#000000;stroke-width:1;stroke-linejoin:miter;stroke-miterlimit:10;"/><line style="stroke:#000000;stroke-width:0.75;" x1="536.5115" x2="536.5115" y1="840.3542" y2="863.8616"/><polygon fill="#000000" points="532.5115,853.8616,536.5115,863.8616,540.5115,853.8616,536.5115,857.8616" style="stroke:#000000;stroke-width:1;stroke-linejoin:miter;stroke-miterlimit:10;"/><?plantuml-src ZLDTJnj757tVNt6Lle2Y6DAALggbLY66vY4WIX8rVHnx1tjbUyUQ7GVd3KSn9WI24ONOmGgGueI6O2UL22d--3NUsTsd_eNUMHlZKfTafPNkphrxpfrppxNYXfaYd2GXoKmMYN6Mf21uccfMBsF5YCxc3JCASoHXzMV291AFSfOszPiimJXyDUa_VHKwdIFfX9XafkYMZFhFu99fWknNVg7cpsbY_ch0b17X36vHuqfV_JGJTFopn7uLuphb_yTx8oAC1uPu-7ciNkKNuOKCWbhgNmvxziFbw9op-KkJTsD696vIouBHm7TZ0tXcEyrmatAuFgffmX092X76uc5yhyqn7gLWdrJQpR8ypZe7JpND4eGBxNkl-55MZs4KtDQ6dQkujKLxwJ2ecQWnS2CQ4nf0-rFTUrM44N2F7ykjaWfgTNSXXodxwBdSV8ydShTXDzOmiBTRxjw1dLspAqsDcZeeg1xFzIw6byzxsuiNUExDtaQ0dmnnAnt6WF2CyG16C34JciJlYPbxuugf_CukAqgdkUxKovY-zWCagI0w4MJ4OcaUeLOWgP-JSvgYH16STV4rsFjldDC_tMhBhUu5CVElFl1QkGDPgk5Lu2euXxlkyYDdksetD_raFnrBYuHXKaK7S84GvcC6Jc78-Ur0BfquUrMtkj_X_N4O30k6xCBhOVK33CbYRRYdqJVWBHIG5QP2zoye96jhAe5qcRyRBvJ-ZKsScfAz_5wrYy6p7QUmg8BgIsJ6cbaQCLBKmYElTE8LFwZvlSuwZ_vIHVMFxSOdhvZ3YPuBrcsyCrnPVkksMd8tt-tQxnMrb4_-i1TBVUZojE3iPjqtlykNXQ2lziAEtAcW6tpgnwXVK76SeUFjUtSUmucyw7Z8RRwJgw-26feshb36I40feU0x1PqKa2WnJByW782918qIKuoZs-4skKll3nXgXYQ8e1cqyxwNNNKQMsvjNGqJtTK_l0lWaG1CqupWnFVROMa0i9bA0a-R44uR2Tq_kGeX5edZCdflLznQzX9uFU3xUf07ZvwtcnlsKG4NnLxPGioRT-w0brz5rRiaCmz5Z9aWdspOAxb-4XNu-ftf-oskpO9JNsgVxhVhnV_izv7xz8FSoiFin8tGr8IciBsDbdnMKVwlx-2IoEMAlRvyRX5BiDG_?></g></svg>