<svg xmlns="http://www.w3.org/2000/svg" xmlns:xlink="http://www.w3.org/1999/xlink" contentStyleType="text/css" data-diagram-type="ACTIVITY" height="869px" preserveAspectRatio="none" style="width:972px;height:869px;background:#FFFFFF;" version="1.1" viewBox="0 0 972 869" width="972px" zoomAndPan="magnify"><?plantuml 1.2026.6?><defs/><g><g class="title" data-source-line="17"><text fill="#000000" font-family="'WenQuanYi Micro Hei'" font-size="14" font-weight="700" lengthAdjust="spacing" textLength="184.2283" x="393.2896" y="32.9951">cookbook-forge &#24037;&#20316;&#27969;&#31243;</text></g><ellipse cx="476.9332" cy="62.2969" fill="#222222" rx="10" ry="10" style="stroke:#222222;stroke-width:1;"/><path d="M545.1806,90.8945 L545.1806,104.6992 L525.1806,108.6992 L545.1806,112.6992 L545.1806,126.5039 A0,0 0 0 0 545.1806,126.5039 L661.5921,126.5039 A0,0 0 0 0 661.5921,126.5039 L661.5921,100.8945 L651.5921,90.8945 L545.1806,90.8945 A0,0 0 0 0 545.1806,90.8945" fill="#FFFFFF" style="stroke:#000000;stroke-width:0.5;"/><path d="M651.5921,90.8945 L651.5921,100.8945 L661.5921,100.8945 L651.5921,90.8945" fill="#FFFFFF" style="stroke:#000000;stroke-width:0.5;"/><text fill="#000000" font-family="'WenQuanYi Micro Hei'" font-size="11" lengthAdjust="spacing" textLength="73.4117" x="551.1806" y="106.105">&#20027;&#39064;/&#36164;&#26009;/&#35835;&#32773;</text><text fill="#000000" font-family="'WenQuanYi Micro Hei'" font-size="11" lengthAdjust="spacing" textLength="95.4115" x="551.1806" y="118.9097">&#23383;&#25968;/&#26684;&#24335;/&#22270;&#34920;&#20559;&#22909;</text><rect fill="#FFFFFF" height="32.8047" rx="12.5" ry="12.5" style="stroke:#000000;stroke-width:0.5;" width="96.4947" x="428.6859" y="92.2969"/><text fill="#000000" font-family="'WenQuanYi Micro Hei'" font-size="11" lengthAdjust="spacing" textLength="76.4947" x="438.6859" y="112.5073">&#38454;&#27573;0 &#36755;&#20837;&#35782;&#21035;</text><path d="M545.1806,138.6992 L545.1806,158.9063 L525.1806,162.9063 L545.1806,166.9063 L545.1806,187.1133 A0,0 0 0 0 545.1806,187.1133 L696.1127,187.1133 A0,0 0 0 0 696.1127,187.1133 L696.1127,148.6992 L686.1127,138.6992 L545.1806,138.6992 A0,0 0 0 0 545.1806,138.6992" fill="#FFFFFF" style="stroke:#000000;stroke-width:0.5;"/><path d="M686.1127,138.6992 L686.1127,148.6992 L696.1127,148.6992 L686.1127,138.6992" fill="#FFFFFF" style="stroke:#000000;stroke-width:0.5;"/><text fill="#000000" font-family="'WenQuanYi Micro Hei'" font-size="11" lengthAdjust="spacing" textLength="98.3984" x="551.1806" y="153.9097">URL/GitHub/arxiv/</text><text fill="#000000" font-family="'WenQuanYi Micro Hei'" font-size="11" lengthAdjust="spacing" textLength="105.7297" x="551.1806" y="166.7144">PDF/EPUB/&#26412;&#22320;/&#32593;&#32476;</text><text fill="#000000" font-family="'WenQuanYi Micro Hei'" font-size="11" lengthAdjust="spacing" textLength="129.9321" x="551.1806" y="179.519">&#8594;metadata/sources.md</text><rect fill="#FFFFFF" height="32.8047" rx="12.5" ry="12.5" style="stroke:#000000;stroke-width:0.5;" width="96.4947" x="428.6859" y="146.5039"/><text fill="#000000" font-family="'WenQuanYi Micro Hei'" font-size="11" lengthAdjust="spacing" textLength="76.4947" x="438.6859" y="166.7144">&#38454;&#27573;1 &#36164;&#26009;&#37319;&#38598;</text><path d="M545.1806,249.7109 L545.1806,263.5156 L525.1806,267.5156 L545.1806,271.5156 L545.1806,285.3203 A0,0 0 0 0 545.1806,285.3203 L691.4774,285.3203 A0,0 0 0 0 691.4774,285.3203 L691.4774,259.7109 L681.4774,249.7109 L545.1806,249.7109 A0,0 0 0 0 545.1806,249.7109" fill="#FFFFFF" style="stroke:#000000;stroke-width:0.5;"/><path d="M681.4774,249.7109 L681.4774,259.7109 L691.4774,259.7109 L681.4774,249.7109" fill="#FFFFFF" style="stroke:#000000;stroke-width:0.5;"/><text fill="#000000" font-family="'WenQuanYi Micro Hei'" font-size="11" lengthAdjust="spacing" textLength="86.2163" x="551.1806" y="264.9214">&#20840;&#26223;&#22270;+&#31456;&#33410;&#30446;&#24405;</text><text fill="#000000" font-family="'WenQuanYi Micro Hei'" font-size="11" lengthAdjust="spacing" textLength="125.2969" x="551.1806" y="277.7261">&#8594;metadata/outline.md</text><rect fill="#FFFFFF" height="32.8047" rx="12.5" ry="12.5" style="stroke:#000000;stroke-width:0.5;" width="96.4947" x="428.6859" y="251.1133"/><text fill="#000000" font-family="'WenQuanYi Micro Hei'" font-size="11" lengthAdjust="spacing" textLength="76.4947" x="438.6859" y="271.3237">&#38454;&#27573;2 &#22823;&#32434;&#35774;&#35745;</text><polygon fill="#FFFFFF" points="476.9332,207.1133,488.9332,219.1133,476.9332,231.1133,464.9332,219.1133,476.9332,207.1133" style="stroke:#000000;stroke-width:0.5;stroke-linejoin:miter;stroke-miterlimit:10;"/><polygon fill="#FFFFFF" points="441.0143,305.3203,512.8522,305.3203,524.8522,317.3203,512.8522,329.3203,441.0143,329.3203,429.0143,317.3203,441.0143,305.3203" style="stroke:#000000;stroke-width:0.5;stroke-linejoin:miter;stroke-miterlimit:10;"/><text fill="#000000" font-family="'WenQuanYi Micro Hei'" font-size="11" lengthAdjust="spacing" textLength="10.9999" x="480.9332" y="339.5308">&#26159;</text><text fill="#000000" font-family="'WenQuanYi Micro Hei'" font-size="11" lengthAdjust="spacing" textLength="71.8379" x="441.0143" y="321.1284">&#29992;&#25143;&#30830;&#35748;&#22823;&#32434;?</text><text fill="#000000" font-family="'WenQuanYi Micro Hei'" font-size="11" lengthAdjust="spacing" textLength="10.9999" x="524.8522" y="314.7261">&#21542;</text><path d="M548.6772,353.2261 L548.6772,373.4331 L528.6772,377.4331 L548.6772,381.4331 L548.6772,401.6401 A0,0 0 0 0 548.6772,401.6401 L711.7904,401.6401 A0,0 0 0 0 711.7904,401.6401 L711.7904,363.2261 L701.7904,353.2261 L548.6772,353.2261 A0,0 0 0 0 548.6772,353.2261" fill="#FFFFFF" style="stroke:#000000;stroke-width:0.5;"/><path d="M701.7904,353.2261 L701.7904,363.2261 L711.7904,363.2261 L701.7904,353.2261" fill="#FFFFFF" style="stroke:#000000;stroke-width:0.5;"/><text fill="#000000" font-family="'WenQuanYi Micro Hei'" font-size="11" lengthAdjust="spacing" textLength="64.2005" x="554.6772" y="368.4365">&#27599;&#31456; .mdx&#65306;</text><text fill="#000000" font-family="'WenQuanYi Micro Hei'" font-size="11" lengthAdjust="spacing" textLength="99.1176" x="554.6772" y="381.2412">&#24341;&#20837;/&#22320;&#22270;/&#21407;&#29702;/&#23454;&#29992;</text><text fill="#000000" font-family="'WenQuanYi Micro Hei'" font-size="11" lengthAdjust="spacing" textLength="142.1132" x="554.6772" y="394.0459">Recipes/&#38519;&#38449;/&#35201;&#28857;/&#24310;&#20280;&#38405;&#35835;</text><rect fill="#FFFFFF" height="32.8047" rx="12.5" ry="12.5" style="stroke:#000000;stroke-width:0.5;" width="103.488" x="425.1892" y="361.0308"/><text fill="#000000" font-family="'WenQuanYi Micro Hei'" font-size="11" lengthAdjust="spacing" textLength="83.488" x="435.1892" y="381.2412">&#38454;&#27573;3 &#36880;&#31456; MDX</text><rect fill="#FFFFFF" height="32.8047" rx="12.5" ry="12.5" style="stroke:#000000;stroke-width:0.5;" width="136.1978" x="408.8343" y="477.3506"/><text fill="#000000" font-family="'WenQuanYi Micro Hei'" font-size="11" lengthAdjust="spacing" textLength="116.1978" x="418.8343" y="497.561">&#25193;&#20889; Recipes/&#28304;&#30721;&#35299;&#26512;</text><rect fill="#FFFFFF" height="32.8047" rx="12.5" ry="12.5" style="stroke:#000000;stroke-width:0.5;" width="78.7057" x="437.5804" y="539.2529"/><text fill="#000000" font-family="'WenQuanYi Micro Hei'" font-size="11" lengthAdjust="spacing" textLength="58.7057" x="447.5804" y="559.4634">&#36895;&#26597;&#34920;/&#38468;&#24405;</text><polygon fill="#FFFFFF" points="446.5142,421.6401,507.3522,421.6401,519.3522,433.6401,507.3522,445.6401,446.5142,445.6401,434.5142,433.6401,446.5142,421.6401" style="stroke:#000000;stroke-width:0.5;stroke-linejoin:miter;stroke-miterlimit:10;"/><text fill="#000000" font-family="'WenQuanYi Micro Hei'" font-size="11" lengthAdjust="spacing" textLength="10.9999" x="480.9332" y="455.8506">&#26159;</text><text fill="#000000" font-family="'WenQuanYi Micro Hei'" font-size="11" lengthAdjust="spacing" textLength="60.838" x="446.5142" y="437.4482">&#23383;&#25968;&#26410;&#36798;&#26631;?</text><text fill="#000000" font-family="'WenQuanYi Micro Hei'" font-size="11" lengthAdjust="spacing" textLength="10.9999" x="423.5143" y="431.0459">&#21542;</text><rect fill="#FFFFFF" height="32.8047" rx="12.5" ry="12.5" style="stroke:#000000;stroke-width:0.5;" width="107.4946" x="423.1859" y="614.0576"/><text fill="#000000" font-family="'WenQuanYi Micro Hei'" font-size="11" lengthAdjust="spacing" textLength="87.4946" x="433.1859" y="634.2681">&#38454;&#27573;5 &#22810;&#26684;&#24335;&#36716;&#25442;</text><rect fill="#555555" height="6" rx="2.5" ry="2.5" style="stroke:#555555;stroke-width:1;" width="936.8074" x="16" y="666.8623"/><rect fill="#FFFFFF" height="32.8047" rx="12.5" ry="12.5" style="stroke:#000000;stroke-width:0.5;" width="102.7254" x="28" y="692.8623"/><text fill="#000000" font-family="'WenQuanYi Micro Hei'" font-size="11" lengthAdjust="spacing" textLength="82.7254" x="38" y="713.0728">5a. MDX &#28304;&#26684;&#24335;</text><path d="M308.2459,697.8623 L308.2459,705.2646 L288.2459,709.2646 L308.2459,713.2646 L308.2459,720.667 A0,0 0 0 0 308.2459,720.667 L448.0542,720.667 A0,0 0 0 0 448.0542,720.667 L448.0542,707.8623 L438.0542,697.8623 L308.2459,697.8623 A0,0 0 0 0 308.2459,697.8623" fill="#FFFFFF" style="stroke:#000000;stroke-width:0.5;"/><path d="M438.0542,697.8623 L438.0542,707.8623 L448.0542,707.8623 L438.0542,697.8623" fill="#FFFFFF" style="stroke:#000000;stroke-width:0.5;"/><text fill="#000000" font-family="'WenQuanYi Micro Hei'" font-size="11" lengthAdjust="spacing" textLength="118.8083" x="314.2459" y="713.0728">xelatex &#20004;&#36941;&#32534;&#35793;&#8594;PDF</text><rect fill="#FFFFFF" height="32.8047" rx="12.5" ry="12.5" style="stroke:#000000;stroke-width:0.5;" width="147.5205" x="140.7254" y="692.8623"/><text fill="#000000" font-family="'WenQuanYi Micro Hei'" font-size="11" lengthAdjust="spacing" textLength="127.5205" x="150.7254" y="713.0728">5b. ElegantBook LaTeX</text><path d="M598.6722,691.46 L598.6722,705.2646 L578.6722,709.2646 L598.6722,713.2646 L598.6722,727.0693 A0,0 0 0 0 598.6722,727.0693 L696.8494,727.0693 A0,0 0 0 0 696.8494,727.0693 L696.8494,701.46 L686.8494,691.46 L598.6722,691.46 A0,0 0 0 0 598.6722,691.46" fill="#FFFFFF" style="stroke:#000000;stroke-width:0.5;"/><path d="M686.8494,691.46 L686.8494,701.46 L696.8494,701.46 L686.8494,691.46" fill="#FFFFFF" style="stroke:#000000;stroke-width:0.5;"/><text fill="#000000" font-family="'WenQuanYi Micro Hei'" font-size="11" lengthAdjust="spacing" textLength="77.1772" x="604.6722" y="706.6704">npm run build</text><text fill="#000000" font-family="'WenQuanYi Micro Hei'" font-size="11" lengthAdjust="spacing" textLength="73.6214" x="604.6722" y="719.4751">+Docker &#39564;&#35777;</text><rect fill="#FFFFFF" height="32.8047" rx="12.5" ry="12.5" style="stroke:#000000;stroke-width:0.5;" width="102.618" x="476.0542" y="692.8623"/><text fill="#000000" font-family="'WenQuanYi Micro Hei'" font-size="11" lengthAdjust="spacing" textLength="82.618" x="486.0542" y="713.0728">5c. Nextra &#32593;&#31449;</text><path d="M811.9456,691.46 L811.9456,705.2646 L791.9456,709.2646 L811.9456,713.2646 L811.9456,727.0693 A0,0 0 0 0 811.9456,727.0693 L940.8074,727.0693 A0,0 0 0 0 940.8074,727.0693 L940.8074,701.46 L930.8074,691.46 L811.9456,691.46 A0,0 0 0 0 811.9456,691.46" fill="#FFFFFF" style="stroke:#000000;stroke-width:0.5;"/><path d="M930.8074,691.46 L930.8074,701.46 L940.8074,701.46 L930.8074,691.46" fill="#FFFFFF" style="stroke:#000000;stroke-width:0.5;"/><text fill="#000000" font-family="'WenQuanYi Micro Hei'" font-size="11" lengthAdjust="spacing" textLength="107.8618" x="817.9456" y="706.6704">&#23383;&#20307;&#23376;&#38598;&#21270;+CSS&#37325;&#20889;</text><text fill="#000000" font-family="'WenQuanYi Micro Hei'" font-size="11" lengthAdjust="spacing" textLength="72.8426" x="817.9456" y="719.4751">+Python &#25171;&#21253;</text><rect fill="#FFFFFF" height="32.8047" rx="12.5" ry="12.5" style="stroke:#000000;stroke-width:0.5;" width="70.1553" x="721.7904" y="692.8623"/><text fill="#000000" font-family="'WenQuanYi Micro Hei'" font-size="11" lengthAdjust="spacing" textLength="50.1553" x="731.7904" y="713.0728">5d. EPUB</text><rect fill="#555555" height="6" rx="2.5" ry="2.5" style="stroke:#555555;stroke-width:1;" width="936.8074" x="16" y="747.0693"/><path d="M545.1806,771.667 L545.1806,785.4717 L525.1806,789.4717 L545.1806,793.4717 L545.1806,807.2764 A0,0 0 0 0 545.1806,807.2764 L650.6137,807.2764 A0,0 0 0 0 650.6137,807.2764 L650.6137,781.667 L640.6137,771.667 L545.1806,771.667 A0,0 0 0 0 545.1806,771.667" fill="#FFFFFF" style="stroke:#000000;stroke-width:0.5;"/><path d="M640.6137,771.667 L640.6137,781.667 L650.6137,781.667 L640.6137,771.667" fill="#FFFFFF" style="stroke:#000000;stroke-width:0.5;"/><text fill="#000000" font-family="'WenQuanYi Micro Hei'" font-size="11" lengthAdjust="spacing" textLength="83.5257" x="551.1806" y="786.8774">&#20013;&#33521;&#25991; README</text><text fill="#000000" font-family="'WenQuanYi Micro Hei'" font-size="11" lengthAdjust="spacing" textLength="84.4331" x="551.1806" y="799.6821">+&#38142;&#25509;+&#32479;&#35745;&#25253;&#21578;</text><rect fill="#FFFFFF" height="32.8047" rx="12.5" ry="12.5" style="stroke:#000000;stroke-width:0.5;" width="96.4947" x="428.6859" y="773.0693"/><text fill="#000000" font-family="'WenQuanYi Micro Hei'" font-size="11" lengthAdjust="spacing" textLength="76.4947" x="438.6859" y="793.2798">&#38454;&#27573;6 &#26368;&#32456;&#20132;&#20184;</text><ellipse cx="476.9332" cy="838.2764" fill="none" rx="11" ry="11" style="stroke:#222222;stroke-width:1;"/><ellipse cx="476.9332" cy="838.2764" fill="#222222" rx="6" ry="6" style="stroke:#222222;stroke-width:1;"/><line style="stroke:#000000;stroke-width:0.75;" x1="476.9332" x2="476.9332" y1="72.2969" y2="92.2969"/><polygon fill="#000000" points="472.9332,82.2969,476.9332,92.2969,480.9332,82.2969,476.9332,86.2969" style="stroke:#000000;stroke-width:1;stroke-linejoin:miter;stroke-miterlimit:10;"/><line style="stroke:#000000;stroke-width:0.75;" x1="476.9332" x2="476.9332" y1="125.1016" y2="146.5039"/><polygon fill="#000000" points="472.9332,136.5039,476.9332,146.5039,480.9332,136.5039,476.9332,140.5039" style="stroke:#000000;stroke-width:1;stroke-linejoin:miter;stroke-miterlimit:10;"/><line style="stroke:#000000;stroke-width:0.75;" x1="476.9332" x2="476.9332" y1="231.1133" y2="251.1133"/><polygon fill="#000000" points="472.9332,241.1133,476.9332,251.1133,480.9332,241.1133,476.9332,245.1133" style="stroke:#000000;stroke-width:1;stroke-linejoin:miter;stroke-miterlimit:10;"/><line style="stroke:#000000;stroke-width:0.75;" x1="524.8522" x2="703.4774" y1="317.3203" y2="317.3203"/><polygon fill="#000000" points="699.4774,277.5156,703.4774,267.5156,707.4774,277.5156,703.4774,273.5156" style="stroke:#000000;stroke-width:0.75;stroke-linejoin:miter;stroke-miterlimit:10;"/><line style="stroke:#000000;stroke-width:0.75;" x1="703.4774" x2="703.4774" y1="219.1133" y2="317.3203"/><line style="stroke:#000000;stroke-width:0.75;" x1="703.4774" x2="488.9332" y1="219.1133" y2="219.1133"/><polygon fill="#000000" points="498.9332,215.1133,488.9332,219.1133,498.9332,223.1133,494.9332,219.1133" style="stroke:#000000;stroke-width:1;stroke-linejoin:miter;stroke-miterlimit:10;"/><line style="stroke:#000000;stroke-width:0.75;" x1="476.9332" x2="476.9332" y1="283.918" y2="305.3203"/><polygon fill="#000000" points="472.9332,295.3203,476.9332,305.3203,480.9332,295.3203,476.9332,299.3203" style="stroke:#000000;stroke-width:1;stroke-linejoin:miter;stroke-miterlimit:10;"/><line style="stroke:#000000;stroke-width:0.75;" x1="476.9332" x2="476.9332" y1="179.3086" y2="207.1133"/><polygon fill="#000000" points="472.9332,197.1133,476.9332,207.1133,480.9332,197.1133,476.9332,201.1133" style="stroke:#000000;stroke-width:1;stroke-linejoin:miter;stroke-miterlimit:10;"/><line style="stroke:#000000;stroke-width:0.75;" x1="476.9332" x2="476.9332" y1="329.3203" y2="361.0308"/><polygon fill="#000000" points="472.9332,351.0308,476.9332,361.0308,480.9332,351.0308,476.9332,355.0308" style="stroke:#000000;stroke-width:1;stroke-linejoin:miter;stroke-miterlimit:10;"/><line style="stroke:#000000;stroke-width:0.75;" x1="476.9332" x2="476.9332" y1="510.1553" y2="539.2529"/><polygon fill="#000000" points="472.9332,529.2529,476.9332,539.2529,480.9332,529.2529,476.9332,533.2529" style="stroke:#000000;stroke-width:1;stroke-linejoin:miter;stroke-miterlimit:10;"/><line style="stroke:#000000;stroke-width:0.75;" x1="476.9332" x2="476.9332" y1="445.6401" y2="477.3506"/><polygon fill="#000000" points="472.9332,467.3506,476.9332,477.3506,480.9332,467.3506,476.9332,471.3506" style="stroke:#000000;stroke-width:1;stroke-linejoin:miter;stroke-miterlimit:10;"/><line style="stroke:#000000;stroke-width:0.75;" x1="476.9332" x2="476.9332" y1="572.0576" y2="582.0576"/><line style="stroke:#000000;stroke-width:0.75;" x1="476.9332" x2="557.0321" y1="582.0576" y2="582.0576"/><polygon fill="#000000" points="553.0321,519.2529,557.0321,509.2529,561.0321,519.2529,557.0321,515.2529" style="stroke:#000000;stroke-width:0.75;stroke-linejoin:miter;stroke-miterlimit:10;"/><line style="stroke:#000000;stroke-width:0.75;" x1="557.0321" x2="557.0321" y1="433.6401" y2="582.0576"/><line style="stroke:#000000;stroke-width:0.75;" x1="557.0321" x2="519.3522" y1="433.6401" y2="433.6401"/><polygon fill="#000000" points="529.3522,429.6401,519.3522,433.6401,529.3522,437.6401,525.3522,433.6401" style="stroke:#000000;stroke-width:1;stroke-linejoin:miter;stroke-miterlimit:10;"/><line style="stroke:#000000;stroke-width:0.75;" x1="434.5142" x2="396.8343" y1="433.6401" y2="433.6401"/><polygon fill="#000000" points="392.8343,505.2529,396.8343,515.2529,400.8343,505.2529,396.8343,509.2529" style="stroke:#000000;stroke-width:0.75;stroke-linejoin:miter;stroke-miterlimit:10;"/><line style="stroke:#000000;stroke-width:0.75;" x1="396.8343" x2="396.8343" y1="433.6401" y2="594.0576"/><line style="stroke:#000000;stroke-width:0.75;" x1="396.8343" x2="476.9332" y1="594.0576" y2="594.0576"/><line style="stroke:#000000;stroke-width:0.75;" x1="476.9332" x2="476.9332" y1="594.0576" y2="614.0576"/><polygon fill="#000000" points="472.9332,604.0576,476.9332,614.0576,480.9332,604.0576,476.9332,608.0576" style="stroke:#000000;stroke-width:1;stroke-linejoin:miter;stroke-miterlimit:10;"/><line style="stroke:#000000;stroke-width:0.75;" x1="476.9332" x2="476.9332" y1="393.8354" y2="421.6401"/><polygon fill="#000000" points="472.9332,411.6401,476.9332,421.6401,480.9332,411.6401,476.9332,415.6401" style="stroke:#000000;stroke-width:1;stroke-linejoin:miter;stroke-miterlimit:10;"/><line style="stroke:#000000;stroke-width:0.75;" x1="79.3627" x2="79.3627" y1="672.8623" y2="692.8623"/><polygon fill="#000000" points="75.3627,682.8623,79.3627,692.8623,83.3627,682.8623,79.3627,686.8623" style="stroke:#000000;stroke-width:1;stroke-linejoin:miter;stroke-miterlimit:10;"/><line style="stroke:#000000;stroke-width:0.75;" x1="214.4856" x2="214.4856" y1="672.8623" y2="692.8623"/><polygon fill="#000000" points="210.4856,682.8623,214.4856,692.8623,218.4856,682.8623,214.4856,686.8623" style="stroke:#000000;stroke-width:1;stroke-linejoin:miter;stroke-miterlimit:10;"/><line style="stroke:#000000;stroke-width:0.75;" x1="527.3632" x2="527.3632" y1="672.8623" y2="692.8623"/><polygon fill="#000000" points="523.3632,682.8623,527.3632,692.8623,531.3632,682.8623,527.3632,686.8623" style="stroke:#000000;stroke-width:1;stroke-linejoin:miter;stroke-miterlimit:10;"/><line style="stroke:#000000;stroke-width:0.75;" x1="756.868" x2="756.868" y1="672.8623" y2="692.8623"/><polygon fill="#000000" points="752.868,682.8623,756.868,692.8623,760.868,682.8623,756.868,686.8623" style="stroke:#000000;stroke-width:1;stroke-linejoin:miter;stroke-miterlimit:10;"/><line style="stroke:#000000;stroke-width:0.75;" x1="79.3627" x2="79.3627" y1="725.667" y2="747.0693"/><polygon fill="#000000" points="75.3627,737.0693,79.3627,747.0693,83.3627,737.0693,79.3627,741.0693" style="stroke:#000000;stroke-width:1;stroke-linejoin:miter;stroke-miterlimit:10;"/><line style="stroke:#000000;stroke-width:0.75;" x1="214.4856" x2="214.4856" y1="725.667" y2="747.0693"/><polygon fill="#000000" points="210.4856,737.0693,214.4856,747.0693,218.4856,737.0693,214.4856,741.0693" style="stroke:#000000;stroke-width:1;stroke-linejoin:miter;stroke-miterlimit:10;"/><line style="stroke:#000000;stroke-width:0.75;" x1="527.3632" x2="527.3632" y1="725.667" y2="747.0693"/><polygon fill="#000000" points="523.3632,737.0693,527.3632,747.0693,531.3632,737.0693,527.3632,741.0693" style="stroke:#000000;stroke-width:1;stroke-linejoin:miter;stroke-miterlimit:10;"/><line style="stroke:#000000;stroke-width:0.75;" x1="756.868" x2="756.868" y1="725.667" y2="747.0693"/><polygon fill="#000000" points="752.868,737.0693,756.868,747.0693,760.868,737.0693,756.868,741.0693" style="stroke:#000000;stroke-width:1;stroke-linejoin:miter;stroke-miterlimit:10;"/><line style="stroke:#000000;stroke-width:0.75;" x1="476.9332" x2="476.9332" y1="646.8623" y2="666.8623"/><polygon fill="#000000" points="472.9332,656.8623,476.9332,666.8623,480.9332,656.8623,476.9332,660.8623" style="stroke:#000000;stroke-width:1;stroke-linejoin:miter;stroke-miterlimit:10;"/><line style="stroke:#000000;stroke-width:0.75;" x1="476.9332" x2="476.9332" y1="753.0693" y2="773.0693"/><polygon fill="#000000" points="472.9332,763.0693,476.9332,773.0693,480.9332,763.0693,476.9332,767.0693" style="stroke:#000000;stroke-width:1;stroke-linejoin:miter;stroke-miterlimit:10;"/><line style="stroke:#000000;stroke-width:0.75;" x1="476.9332" x2="476.9332" y1="805.874" y2="827.2764"/><polygon fill="#000000" points="472.9332,817.2764,476.9332,827.2764,480.9332,817.2764,476.9332,821.2764" style="stroke:#000000;stroke-width:1;stroke-linejoin:miter;stroke-miterlimit:10;"/><?plantuml-src ZLDTJnj757tthnYbBo1KBxIYbUg7AiJGF0H48L7Jn_7kO8zixrYpu-3a2KUnJGW4KmgnWnKWnGaDmKug4LByyMCgp-pkK_z2x_e3NEgIZBJIQiwTSywSUyUAKZE1EOwZE3EP7k4iJf3WIUAppX4hWWssICqmMi0ngny9OJqQvYnf6ZTOZ77qnLHxzLKOP04dOsAAcQ9RCjfUWqjcCAXV-ucOFoQn-JD5qrJd3DqazDhW-ddwWA2niJvmXWaoyKbNxIh63SB_pzHrNT1xLDp_DDTvvMVn1Ic6e8tFf-qTk9gTSxPu9NWxGlMeIImBZVg_7H-WCzSnmqt2qTYepoUeY16aCnODmVVb0kDXWkHfkTKegPEqVVZ4vxC4viBtdLlue2edeyXfRifCsQbcvV9Hm6T2n8ZJS4Ju46fzhBal2vfpyaXj5pMdMdEMCh0jZv-fhNUQsglB-hecTvhE_g5ChyjomqTC0taKFVenr3divdBkJlOI_PsvMzeFLDnCXZJCK_IU1dkpmIbjSlREXAPARsNfdMOtDknQ2O2_ih_4YS065bYpM9BhnFB7ZGj1JX84UwnTvQ-GF7Xjd_tXL9fEPJy0mB-quHQPGrMiWliH-sZFMNbexrHaOwiDzMknf8XHatXQ25rIGuiH2caFsRyUgkLJUx_YL0uwgjyF8sgX8Pb_DUmTG4EgK1tkXV8rSfVo88gcWtSlHQAgwnu0Qgc_wy-zhEjRq1qDeW2dcdowQ-Upcgoy04b0vuXE4yJItEAfMtYlEQ_IziC_DLdxqAf_T0iPwDX5G5sldUQfqXkdsLHxkQxHjZt8JZt-NMQBvxpgB6_lfPtNlwaN-K0xswLTjLk6VeFa8uWhuF7tcE6olIkEG_hFEmFYDDwgjPS17unYrACOntxluWYuEmKT2E4mfcQx8EH7ap4IngQOW1b6j_1jSdT00rCaXWL9mPGUkEarkxxjL3UWSp11_PswnAtxqGn92OwHDrb7nG6yPYAEUD94eIID6UsTaI3Je_30t3UhJZLz1Ri1pc5u1qtRyRDMOrCUv-4PoDNjaHlpysvk3RBk2CpU5n5c8lLuKwvc-WMydtPotM2_GQgqPDUMMsS7hLhXF-_rs7doNctdqDpazU3q96oDk9jDzRGyOjTsuHcebRBSMBcO2Kkmn3y0?></g></svg>