<svg xmlns="http://www.w3.org/2000/svg" xmlns:xlink="http://www.w3.org/1999/xlink" contentStyleType="text/css" data-diagram-type="ACTIVITY" height="905px" preserveAspectRatio="none" style="width:1215px;height:905px;background:#FFFFFF;" version="1.1" viewBox="0 0 1215 905" width="1215px" zoomAndPan="magnify"><?plantuml 1.2026.6?><defs/><g><g class="title" data-source-line="15"><text fill="#000000" font-family="sans-serif" font-size="14" font-weight="700" lengthAdjust="spacing" textLength="204.1143" x="504.5347" y="34.0752">cookbook-forge Workflow</text></g><ellipse cx="596.5918" cy="63.0146" fill="#222222" rx="10" ry="10" style="stroke:#222222;stroke-width:1;"/><path d="M699.4941,89.5073 L699.4941,106.3066 L679.4941,110.3066 L699.4941,114.3066 L699.4941,131.106 A0,0 0 0 0 699.4941,131.106 L963.311,131.106 A0,0 0 0 0 963.311,131.106 L963.311,99.5073 L953.311,89.5073 L699.4941,89.5073 A0,0 0 0 0 699.4941,89.5073" fill="#FFFFFF" style="stroke:#000000;stroke-width:0.5;"/><path d="M953.311,89.5073 L953.311,99.5073 L963.311,99.5073 L953.311,89.5073" fill="#FFFFFF" style="stroke:#000000;stroke-width:0.5;"/><text fill="#000000" font-family="sans-serif" font-size="13" lengthAdjust="spacing" textLength="169.457" x="705.4941" y="107.5771">topic / sources / audience</text><text fill="#000000" font-family="sans-serif" font-size="13" lengthAdjust="spacing" textLength="242.8169" x="705.4941" y="123.3765">word count / formats / diagram tools</text><rect fill="#FFFFFF" height="34.584" rx="12.5" ry="12.5" style="stroke:#000000;stroke-width:0.5;" width="165.8047" x="513.6895" y="93.0146"/><text fill="#000000" font-family="sans-serif" font-size="12" lengthAdjust="spacing" textLength="145.8047" x="523.6895" y="115.0791">Phase 0 Input gathering</text><path d="M679.877,141.106 L679.877,165.8049 L659.877,169.8049 L679.877,173.8049 L679.877,198.5039 A0,0 0 0 0 679.877,198.5039 L865.2495,198.5039 A0,0 0 0 0 865.2495,198.5039 L865.2495,151.106 L855.2495,141.106 L679.877,141.106 A0,0 0 0 0 679.877,141.106" fill="#FFFFFF" style="stroke:#000000;stroke-width:0.5;"/><path d="M855.2495,141.106 L855.2495,151.106 L865.2495,151.106 L855.2495,141.106" fill="#FFFFFF" style="stroke:#000000;stroke-width:0.5;"/><text fill="#000000" font-family="sans-serif" font-size="13" lengthAdjust="spacing" textLength="150.2998" x="685.877" y="159.1758">URLs / GitHub / arxiv /</text><text fill="#000000" font-family="sans-serif" font-size="13" lengthAdjust="spacing" textLength="161.0337" x="685.877" y="174.9751">PDF / EPUB / local / web</text><text fill="#000000" font-family="sans-serif" font-size="13" lengthAdjust="spacing" textLength="164.3726" x="685.877" y="190.7744">-&gt; metadata/sources.md</text><rect fill="#FFFFFF" height="34.584" rx="12.5" ry="12.5" style="stroke:#000000;stroke-width:0.5;" width="126.5703" x="533.3066" y="152.5129"/><text fill="#000000" font-family="sans-serif" font-size="12" lengthAdjust="spacing" textLength="106.5703" x="543.3066" y="174.5774">Phase 1 Research</text><path d="M695.6211,258.9966 L695.6211,275.7959 L675.6211,279.7959 L695.6211,283.7959 L695.6211,300.5952 A0,0 0 0 0 695.6211,300.5952 L875.6108,300.5952 A0,0 0 0 0 875.6108,300.5952 L875.6108,268.9966 L865.6108,258.9966 L695.6211,258.9966 A0,0 0 0 0 695.6211,258.9966" fill="#FFFFFF" style="stroke:#000000;stroke-width:0.5;"/><path d="M865.6108,258.9966 L865.6108,268.9966 L875.6108,268.9966 L865.6108,258.9966" fill="#FFFFFF" style="stroke:#000000;stroke-width:0.5;"/><text fill="#000000" font-family="sans-serif" font-size="13" lengthAdjust="spacing" textLength="116.5176" x="701.6211" y="277.0664">big picture + TOC</text><text fill="#000000" font-family="sans-serif" font-size="13" lengthAdjust="spacing" textLength="158.9897" x="701.6211" y="292.8657">-&gt; metadata/outline.md</text><rect fill="#FFFFFF" height="34.584" rx="12.5" ry="12.5" style="stroke:#000000;stroke-width:0.5;" width="158.0586" x="517.5625" y="262.5039"/><text fill="#000000" font-family="sans-serif" font-size="12" lengthAdjust="spacing" textLength="138.0586" x="527.5625" y="284.5684">Phase 2 Outline design</text><polygon fill="#FFFFFF" points="596.5918,218.5039,608.5918,230.5039,596.5918,242.5039,584.5918,230.5039,596.5918,218.5039" style="stroke:#000000;stroke-width:0.5;stroke-linejoin:miter;stroke-miterlimit:10;"/><polygon fill="#FFFFFF" points="533.2102,320.5952,659.9734,320.5952,671.9734,332.5952,659.9734,344.5952,533.2102,344.5952,521.2102,332.5952,533.2102,320.5952" style="stroke:#000000;stroke-width:0.5;stroke-linejoin:miter;stroke-miterlimit:10;"/><text fill="#000000" font-family="sans-serif" font-size="11" lengthAdjust="spacing" textLength="18.7935" x="600.5918" y="355.6543">yes</text><text fill="#000000" font-family="sans-serif" font-size="11" lengthAdjust="spacing" textLength="126.7632" x="533.2102" y="336.97">User approves outline?</text><text fill="#000000" font-family="sans-serif" font-size="11" lengthAdjust="spacing" textLength="13.6372" x="671.9734" y="330.2856">no</text><path d="M692.0703,367.1543 L692.0703,391.8533 L672.0703,395.8533 L692.0703,399.8533 L692.0703,424.5522 A0,0 0 0 0 692.0703,424.5522 L972.6006,424.5522 A0,0 0 0 0 972.6006,424.5522 L972.6006,377.1543 L962.6006,367.1543 L692.0703,367.1543 A0,0 0 0 0 692.0703,367.1543" fill="#FFFFFF" style="stroke:#000000;stroke-width:0.5;"/><path d="M962.6006,367.1543 L962.6006,377.1543 L972.6006,377.1543 L962.6006,367.1543" fill="#FFFFFF" style="stroke:#000000;stroke-width:0.5;"/><text fill="#000000" font-family="sans-serif" font-size="13" lengthAdjust="spacing" textLength="147.3545" x="698.0703" y="385.2241">one .mdx per chapter:</text><text fill="#000000" font-family="sans-serif" font-size="13" lengthAdjust="spacing" textLength="197.6978" x="698.0703" y="401.0234">intro / map / theory / practice</text><text fill="#000000" font-family="sans-serif" font-size="13" lengthAdjust="spacing" textLength="259.5303" x="698.0703" y="416.8228">Recipes / pitfalls / key points / see-also</text><rect fill="#FFFFFF" height="34.584" rx="12.5" ry="12.5" style="stroke:#000000;stroke-width:0.5;" width="150.957" x="521.1133" y="378.5613"/><text fill="#000000" font-family="sans-serif" font-size="12" lengthAdjust="spacing" textLength="130.957" x="531.1133" y="400.6257">Phase 3 Chapter MDX</text><rect fill="#FFFFFF" height="34.584" rx="12.5" ry="12.5" style="stroke:#000000;stroke-width:0.5;" width="220.5313" x="486.3262" y="501.1113"/><text fill="#000000" font-family="sans-serif" font-size="12" lengthAdjust="spacing" textLength="200.5313" x="496.3262" y="523.1758">Expand Recipes / source analysis</text><rect fill="#FFFFFF" height="34.584" rx="12.5" ry="12.5" style="stroke:#000000;stroke-width:0.5;" width="184.9531" x="504.1152" y="564.511"/><text fill="#000000" font-family="sans-serif" font-size="12" lengthAdjust="spacing" textLength="164.9531" x="514.1152" y="586.5754">Lookup tables / appendices</text><polygon fill="#FFFFFF" points="538.1301,444.5522,655.0535,444.5522,667.0535,456.5522,655.0535,468.5522,538.1301,468.5522,526.1301,456.5522,538.1301,444.5522" style="stroke:#000000;stroke-width:0.5;stroke-linejoin:miter;stroke-miterlimit:10;"/><text fill="#000000" font-family="sans-serif" font-size="11" lengthAdjust="spacing" textLength="18.7935" x="600.5918" y="479.6113">yes</text><text fill="#000000" font-family="sans-serif" font-size="11" lengthAdjust="spacing" textLength="116.9233" x="538.1301" y="460.927">Word count not met?</text><text fill="#000000" font-family="sans-serif" font-size="11" lengthAdjust="spacing" textLength="13.6372" x="512.4929" y="454.2427">no</text><rect fill="#FFFFFF" height="34.584" rx="12.5" ry="12.5" style="stroke:#000000;stroke-width:0.5;" width="183.5527" x="504.8154" y="641.095"/><text fill="#000000" font-family="sans-serif" font-size="12" lengthAdjust="spacing" textLength="163.5527" x="514.8154" y="663.1594">Phase 5 Format conversion</text><rect fill="#555555" height="6" rx="2.5" ry="2.5" style="stroke:#555555;stroke-width:1;" width="1179.1836" x="16" y="695.679"/><rect fill="#FFFFFF" height="34.584" rx="12.5" ry="12.5" style="stroke:#000000;stroke-width:0.5;" width="114.8691" x="28" y="721.679"/><text fill="#000000" font-family="sans-serif" font-size="12" lengthAdjust="spacing" textLength="94.8691" x="38" y="743.7434">5a. MDX source</text><path d="M332.3574,726.0713 L332.3574,734.9709 L312.3574,738.9709 L332.3574,742.9709 L332.3574,751.8706 A0,0 0 0 0 332.3574,751.8706 L528.502,751.8706 A0,0 0 0 0 528.502,751.8706 L528.502,736.0713 L518.502,726.0713 L332.3574,726.0713 A0,0 0 0 0 332.3574,726.0713" fill="#FFFFFF" style="stroke:#000000;stroke-width:0.5;"/><path d="M518.502,726.0713 L518.502,736.0713 L528.502,736.0713 L518.502,726.0713" fill="#FFFFFF" style="stroke:#000000;stroke-width:0.5;"/><text fill="#000000" font-family="sans-serif" font-size="13" lengthAdjust="spacing" textLength="175.1445" x="338.3574" y="744.1411">xelatex two passes -&gt; PDF</text><rect fill="#FFFFFF" height="34.584" rx="12.5" ry="12.5" style="stroke:#000000;stroke-width:0.5;" width="159.4883" x="152.8691" y="721.679"/><text fill="#000000" font-family="sans-serif" font-size="12" lengthAdjust="spacing" textLength="139.4883" x="162.8691" y="743.7434">5b. ElegantBook LaTeX</text><path d="M684.8906,718.1716 L684.8906,734.9709 L664.8906,738.9709 L684.8906,742.9709 L684.8906,759.7703 A0,0 0 0 0 684.8906,759.7703 L843.4126,759.7703 A0,0 0 0 0 843.4126,759.7703 L843.4126,728.1716 L833.4126,718.1716 L684.8906,718.1716 A0,0 0 0 0 684.8906,718.1716" fill="#FFFFFF" style="stroke:#000000;stroke-width:0.5;"/><path d="M833.4126,718.1716 L833.4126,728.1716 L843.4126,728.1716 L833.4126,718.1716" fill="#FFFFFF" style="stroke:#000000;stroke-width:0.5;"/><text fill="#000000" font-family="sans-serif" font-size="13" lengthAdjust="spacing" textLength="91.6729" x="690.8906" y="736.2415">npm run build</text><text fill="#000000" font-family="sans-serif" font-size="13" lengthAdjust="spacing" textLength="137.522" x="690.8906" y="752.0408">+ Docker verification</text><rect fill="#FFFFFF" height="34.584" rx="12.5" ry="12.5" style="stroke:#000000;stroke-width:0.5;" width="108.3887" x="556.502" y="721.679"/><text fill="#000000" font-family="sans-serif" font-size="12" lengthAdjust="spacing" textLength="88.3887" x="566.502" y="743.7434">5c. Nextra site</text><path d="M966.936,718.1716 L966.936,734.9709 L946.936,738.9709 L966.936,742.9709 L966.936,759.7703 A0,0 0 0 0 966.936,759.7703 L1183.1836,759.7703 A0,0 0 0 0 1183.1836,759.7703 L1183.1836,728.1716 L1173.1836,718.1716 L966.936,718.1716 A0,0 0 0 0 966.936,718.1716" fill="#FFFFFF" style="stroke:#000000;stroke-width:0.5;"/><path d="M1173.1836,718.1716 L1173.1836,728.1716 L1183.1836,728.1716 L1173.1836,718.1716" fill="#FFFFFF" style="stroke:#000000;stroke-width:0.5;"/><text fill="#000000" font-family="sans-serif" font-size="13" lengthAdjust="spacing" textLength="195.2476" x="972.936" y="736.2415">font subsetting + CSS rewrite</text><text fill="#000000" font-family="sans-serif" font-size="13" lengthAdjust="spacing" textLength="130.9521" x="972.936" y="752.0408">+ Python packaging</text><rect fill="#FFFFFF" height="34.584" rx="12.5" ry="12.5" style="stroke:#000000;stroke-width:0.5;" width="75.5234" x="871.4126" y="721.679"/><text fill="#000000" font-family="sans-serif" font-size="12" lengthAdjust="spacing" textLength="55.5234" x="881.4126" y="743.7434">5d. EPUB</text><rect fill="#555555" height="6" rx="2.5" ry="2.5" style="stroke:#555555;stroke-width:1;" width="1179.1836" x="16" y="779.7703"/><path d="M677.0703,802.2629 L677.0703,819.0623 L657.0703,823.0623 L677.0703,827.0623 L677.0703,843.8616 A0,0 0 0 0 677.0703,843.8616 L864.8105,843.8616 A0,0 0 0 0 864.8105,843.8616 L864.8105,812.2629 L854.8105,802.2629 L677.0703,802.2629 A0,0 0 0 0 677.0703,802.2629" fill="#FFFFFF" style="stroke:#000000;stroke-width:0.5;"/><path d="M854.8105,802.2629 L854.8105,812.2629 L864.8105,812.2629 L854.8105,802.2629" fill="#FFFFFF" style="stroke:#000000;stroke-width:0.5;"/><text fill="#000000" font-family="sans-serif" font-size="13" lengthAdjust="spacing" textLength="114.6387" x="683.0703" y="820.3328">bilingual README</text><text fill="#000000" font-family="sans-serif" font-size="13" lengthAdjust="spacing" textLength="166.7402" x="683.0703" y="836.1321">+ links + statistics report</text><rect fill="#FFFFFF" height="34.584" rx="12.5" ry="12.5" style="stroke:#000000;stroke-width:0.5;" width="120.957" x="536.1133" y="805.7703"/><text fill="#000000" font-family="sans-serif" font-size="12" lengthAdjust="spacing" textLength="100.957" x="546.1133" y="827.8347">Phase 6 Delivery</text><ellipse cx="596.5918" cy="874.8616" fill="none" rx="11" ry="11" style="stroke:#222222;stroke-width:1;"/><ellipse cx="596.5918" cy="874.8616" fill="#222222" rx="6" ry="6" style="stroke:#222222;stroke-width:1;"/><line style="stroke:#000000;stroke-width:0.75;" x1="596.5918" x2="596.5918" y1="73.0146" y2="93.0146"/><polygon fill="#000000" points="592.5918,83.0146,596.5918,93.0146,600.5918,83.0146,596.5918,87.0146" style="stroke:#000000;stroke-width:1;stroke-linejoin:miter;stroke-miterlimit:10;"/><line style="stroke:#000000;stroke-width:0.75;" x1="596.5918" x2="596.5918" y1="127.5986" y2="152.5129"/><polygon fill="#000000" points="592.5918,142.5129,596.5918,152.5129,600.5918,142.5129,596.5918,146.5129" style="stroke:#000000;stroke-width:1;stroke-linejoin:miter;stroke-miterlimit:10;"/><line style="stroke:#000000;stroke-width:0.75;" x1="596.5918" x2="596.5918" y1="242.5039" y2="262.5039"/><polygon fill="#000000" points="592.5918,252.5039,596.5918,262.5039,600.5918,252.5039,596.5918,256.5039" style="stroke:#000000;stroke-width:1;stroke-linejoin:miter;stroke-miterlimit:10;"/><line style="stroke:#000000;stroke-width:0.75;" x1="671.9734" x2="887.6108" y1="332.5952" y2="332.5952"/><polygon fill="#000000" points="883.6108,289.7959,887.6108,279.7959,891.6108,289.7959,887.6108,285.7959" style="stroke:#000000;stroke-width:0.75;stroke-linejoin:miter;stroke-miterlimit:10;"/><line style="stroke:#000000;stroke-width:0.75;" x1="887.6108" x2="887.6108" y1="230.5039" y2="332.5952"/><line style="stroke:#000000;stroke-width:0.75;" x1="887.6108" x2="608.5918" y1="230.5039" y2="230.5039"/><polygon fill="#000000" points="618.5918,226.5039,608.5918,230.5039,618.5918,234.5039,614.5918,230.5039" style="stroke:#000000;stroke-width:1;stroke-linejoin:miter;stroke-miterlimit:10;"/><line style="stroke:#000000;stroke-width:0.75;" x1="596.5918" x2="596.5918" y1="297.0879" y2="320.5952"/><polygon fill="#000000" points="592.5918,310.5952,596.5918,320.5952,600.5918,310.5952,596.5918,314.5952" style="stroke:#000000;stroke-width:1;stroke-linejoin:miter;stroke-miterlimit:10;"/><line style="stroke:#000000;stroke-width:0.75;" x1="596.5918" x2="596.5918" y1="187.0969" y2="218.5039"/><polygon fill="#000000" points="592.5918,208.5039,596.5918,218.5039,600.5918,208.5039,596.5918,212.5039" style="stroke:#000000;stroke-width:1;stroke-linejoin:miter;stroke-miterlimit:10;"/><line style="stroke:#000000;stroke-width:0.75;" x1="596.5918" x2="596.5918" y1="344.5952" y2="378.5613"/><polygon fill="#000000" points="592.5918,368.5613,596.5918,378.5613,600.5918,368.5613,596.5918,372.5613" style="stroke:#000000;stroke-width:1;stroke-linejoin:miter;stroke-miterlimit:10;"/><line style="stroke:#000000;stroke-width:0.75;" x1="596.5918" x2="596.5918" y1="535.6953" y2="564.511"/><polygon fill="#000000" points="592.5918,554.511,596.5918,564.511,600.5918,554.511,596.5918,558.511" style="stroke:#000000;stroke-width:1;stroke-linejoin:miter;stroke-miterlimit:10;"/><line style="stroke:#000000;stroke-width:0.75;" x1="596.5918" x2="596.5918" y1="468.5522" y2="501.1113"/><polygon fill="#000000" points="592.5918,491.1113,596.5918,501.1113,600.5918,491.1113,596.5918,495.1113" style="stroke:#000000;stroke-width:1;stroke-linejoin:miter;stroke-miterlimit:10;"/><line style="stroke:#000000;stroke-width:0.75;" x1="596.5918" x2="596.5918" y1="599.095" y2="609.095"/><line style="stroke:#000000;stroke-width:0.75;" x1="596.5918" x2="718.8574" y1="609.095" y2="609.095"/><polygon fill="#000000" points="714.8574,544.511,718.8574,534.511,722.8574,544.511,718.8574,540.511" style="stroke:#000000;stroke-width:0.75;stroke-linejoin:miter;stroke-miterlimit:10;"/><line style="stroke:#000000;stroke-width:0.75;" x1="718.8574" x2="718.8574" y1="456.5522" y2="609.095"/><line style="stroke:#000000;stroke-width:0.75;" x1="718.8574" x2="667.0535" y1="456.5522" y2="456.5522"/><polygon fill="#000000" points="677.0535,452.5522,667.0535,456.5522,677.0535,460.5522,673.0535,456.5522" style="stroke:#000000;stroke-width:1;stroke-linejoin:miter;stroke-miterlimit:10;"/><line style="stroke:#000000;stroke-width:0.75;" x1="526.1301" x2="474.3262" y1="456.5522" y2="456.5522"/><polygon fill="#000000" points="470.3262,530.511,474.3262,540.511,478.3262,530.511,474.3262,534.511" style="stroke:#000000;stroke-width:0.75;stroke-linejoin:miter;stroke-miterlimit:10;"/><line style="stroke:#000000;stroke-width:0.75;" x1="474.3262" x2="474.3262" y1="456.5522" y2="621.095"/><line style="stroke:#000000;stroke-width:0.75;" x1="474.3262" x2="596.5918" y1="621.095" y2="621.095"/><line style="stroke:#000000;stroke-width:0.75;" x1="596.5918" x2="596.5918" y1="621.095" y2="641.095"/><polygon fill="#000000" points="592.5918,631.095,596.5918,641.095,600.5918,631.095,596.5918,635.095" style="stroke:#000000;stroke-width:1;stroke-linejoin:miter;stroke-miterlimit:10;"/><line style="stroke:#000000;stroke-width:0.75;" x1="596.5918" x2="596.5918" y1="413.1453" y2="444.5522"/><polygon fill="#000000" points="592.5918,434.5522,596.5918,444.5522,600.5918,434.5522,596.5918,438.5522" style="stroke:#000000;stroke-width:1;stroke-linejoin:miter;stroke-miterlimit:10;"/><line style="stroke:#000000;stroke-width:0.75;" x1="85.4346" x2="85.4346" y1="701.679" y2="721.679"/><polygon fill="#000000" points="81.4346,711.679,85.4346,721.679,89.4346,711.679,85.4346,715.679" style="stroke:#000000;stroke-width:1;stroke-linejoin:miter;stroke-miterlimit:10;"/><line style="stroke:#000000;stroke-width:0.75;" x1="232.6133" x2="232.6133" y1="701.679" y2="721.679"/><polygon fill="#000000" points="228.6133,711.679,232.6133,721.679,236.6133,711.679,232.6133,715.679" style="stroke:#000000;stroke-width:1;stroke-linejoin:miter;stroke-miterlimit:10;"/><line style="stroke:#000000;stroke-width:0.75;" x1="610.6963" x2="610.6963" y1="701.679" y2="721.679"/><polygon fill="#000000" points="606.6963,711.679,610.6963,721.679,614.6963,711.679,610.6963,715.679" style="stroke:#000000;stroke-width:1;stroke-linejoin:miter;stroke-miterlimit:10;"/><line style="stroke:#000000;stroke-width:0.75;" x1="909.1743" x2="909.1743" y1="701.679" y2="721.679"/><polygon fill="#000000" points="905.1743,711.679,909.1743,721.679,913.1743,711.679,909.1743,715.679" style="stroke:#000000;stroke-width:1;stroke-linejoin:miter;stroke-miterlimit:10;"/><line style="stroke:#000000;stroke-width:0.75;" x1="85.4346" x2="85.4346" y1="756.2629" y2="779.7703"/><polygon fill="#000000" points="81.4346,769.7703,85.4346,779.7703,89.4346,769.7703,85.4346,773.7703" style="stroke:#000000;stroke-width:1;stroke-linejoin:miter;stroke-miterlimit:10;"/><line style="stroke:#000000;stroke-width:0.75;" x1="232.6133" x2="232.6133" y1="756.2629" y2="779.7703"/><polygon fill="#000000" points="228.6133,769.7703,232.6133,779.7703,236.6133,769.7703,232.6133,773.7703" style="stroke:#000000;stroke-width:1;stroke-linejoin:miter;stroke-miterlimit:10;"/><line style="stroke:#000000;stroke-width:0.75;" x1="610.6963" x2="610.6963" y1="756.2629" y2="779.7703"/><polygon fill="#000000" points="606.6963,769.7703,610.6963,779.7703,614.6963,769.7703,610.6963,773.7703" style="stroke:#000000;stroke-width:1;stroke-linejoin:miter;stroke-miterlimit:10;"/><line style="stroke:#000000;stroke-width:0.75;" x1="909.1743" x2="909.1743" y1="756.2629" y2="779.7703"/><polygon fill="#000000" points="905.1743,769.7703,909.1743,779.7703,913.1743,769.7703,909.1743,773.7703" style="stroke:#000000;stroke-width:1;stroke-linejoin:miter;stroke-miterlimit:10;"/><line style="stroke:#000000;stroke-width:0.75;" x1="596.5918" x2="596.5918" y1="675.679" y2="695.679"/><polygon fill="#000000" points="592.5918,685.679,596.5918,695.679,600.5918,685.679,596.5918,689.679" style="stroke:#000000;stroke-width:1;stroke-linejoin:miter;stroke-miterlimit:10;"/><line style="stroke:#000000;stroke-width:0.75;" x1="596.5918" x2="596.5918" y1="785.7703" y2="805.7703"/><polygon fill="#000000" points="592.5918,795.7703,596.5918,805.7703,600.5918,795.7703,596.5918,799.7703" style="stroke:#000000;stroke-width:1;stroke-linejoin:miter;stroke-miterlimit:10;"/><line style="stroke:#000000;stroke-width:0.75;" x1="596.5918" x2="596.5918" y1="840.3542" y2="863.8616"/><polygon fill="#000000" points="592.5918,853.8616,596.5918,863.8616,600.5918,853.8616,596.5918,857.8616" style="stroke:#000000;stroke-width:1;stroke-linejoin:miter;stroke-miterlimit:10;"/><?plantuml-src ZLHXJzj84FtkNp7IVG4X0ks9EubAhGe9ToVH5gKW-dLiJ-oLdPtLxfWa_xxFZe5SHA6M4gztPjwRUJExgN4-SEGbBTLhKKTT2bdi94jFbbHpgIldArfmctOjEHTD5RNpvQMs6kcFg-7PyIXbmLrhL-fjT3aTdXsNhsfoyIRGuAMnbFWhdC-5kGTdcxUndZn_2s_g6DgKlm_x6F0wUeowUjLuMxkYyP8IdKx-Fdk1PxvD9dg9zEuqoynPArIeDZb-nmkDbT2zncRHwYhBad6qxFocvYHqIl_vq1bLRBL4zFP3vg4mHLVLbX6P1bVG2INjOY49A-vA9xuG65Ue33oTD-o3PidMUvIEgpu_KsrJ9hwa7lAHyHtD9Gd7ejwZkfjVzz7_EFktotkYk7OFT0BBpVGAtxERkmkyMYsunNibEKp77safnYKRdumvJfRbCscK8DoZZ-plwLjdhVE2YKokyXzW-byMHBch24LR5uMEwFRRvR2xIwHRY9w8Q8-ALhM3-WTt2TtW4A8-GBOnujCXkKG7NW_x43hOI3fyrELFkgmv6AA-J7_iIQF85snh2Z0NMxTpx3jlKQ75aWF-qK6D6on2P8p6qAAv52uCVGlES6pRVjd8Xe8YkFz88iSuplgisLZ1_NDt-sHH_PZ-a3KKdQq38-QPOji0Oi_j9hdKQtj-ZH7i0XddxNPyGW0HaeCPYv4BYZpgS4PNmoI1sZz8J4xH90nNqwETyQINPsJQxXDNxFnWpISqQwLYRnUWfMk-bHylT7WjBPkioLPAWLD2OcWlfcotdNlGnOI-ojeYKt8cBu3wiAJOUSexrvR3pX5DjMZGCPJX5gvWGoslK9IJOSPVm5xWsgJKvKdC-lltY2w_VwSeguXSHgwRZTNgKK_HS0MdNQ9-CKWuQlmNJQLrI6kpDsYvmvXM7GxOVFPv-cMMzSZOQXBUk3ZC9GnM0dLGN29F10dtn4y0?></g></svg>