<svg xmlns="http://www.w3.org/2000/svg" xmlns:xlink="http://www.w3.org/1999/xlink" contentStyleType="text/css" data-diagram-type="ACTIVITY" height="869px" preserveAspectRatio="none" style="width:1079px;height:869px;background:#FFFFFF;" version="1.1" viewBox="0 0 1079 869" width="1079px" zoomAndPan="magnify"><?plantuml 1.2026.6?><defs/><g><g class="title" data-source-line="17"><text fill="#000000" font-family="Helvetica" font-size="14" font-weight="700" lengthAdjust="spacing" textLength="202.9453" x="437.2573" y="32.9951">cookbook-forge Workflow</text></g><ellipse cx="528.73" cy="62.2969" fill="#222222" rx="10" ry="10" style="stroke:#222222;stroke-width:1;"/><path d="M624.7917,90.8945 L624.7917,104.6992 L604.7917,108.6992 L624.7917,112.6992 L624.7917,126.5039 A0,0 0 0 0 624.7917,126.5039 L809.0623,126.5039 A0,0 0 0 0 809.0623,126.5039 L809.0623,100.8945 L799.0623,90.8945 L624.7917,90.8945 A0,0 0 0 0 624.7917,90.8945" fill="#FFFFFF" style="stroke:#000000;stroke-width:0.5;"/><path d="M799.0623,90.8945 L799.0623,100.8945 L809.0623,100.8945 L799.0623,90.8945" fill="#FFFFFF" style="stroke:#000000;stroke-width:0.5;"/><text fill="#000000" font-family="Helvetica" font-size="11" lengthAdjust="spacing" textLength="127.3486" x="630.7917" y="106.105">topic/sources/audience</text><text fill="#000000" font-family="Helvetica" font-size="11" lengthAdjust="spacing" textLength="163.2705" x="630.7917" y="118.9097">word count/formats/diagrams</text><rect fill="#FFFFFF" height="32.8047" rx="12.5" ry="12.5" style="stroke:#000000;stroke-width:0.5;" width="152.1235" x="452.6682" y="92.2969"/><text fill="#000000" font-family="Helvetica" font-size="11" lengthAdjust="spacing" textLength="132.1235" x="462.6682" y="112.5073">Phase 0 Input gathering</text><path d="M607.7439,138.6992 L607.7439,158.9063 L587.7439,162.9063 L607.7439,166.9063 L607.7439,187.1133 A0,0 0 0 0 607.7439,187.1133 L758.676,187.1133 A0,0 0 0 0 758.676,187.1133 L758.676,148.6992 L748.676,138.6992 L607.7439,138.6992 A0,0 0 0 0 607.7439,138.6992" fill="#FFFFFF" style="stroke:#000000;stroke-width:0.5;"/><path d="M748.676,138.6992 L748.676,148.6992 L758.676,148.6992 L748.676,138.6992" fill="#FFFFFF" style="stroke:#000000;stroke-width:0.5;"/><text fill="#000000" font-family="Helvetica" font-size="11" lengthAdjust="spacing" textLength="104.1294" x="613.7439" y="153.9097">URLs/GitHub/arxiv/</text><text fill="#000000" font-family="Helvetica" font-size="11" lengthAdjust="spacing" textLength="110.1074" x="613.7439" y="166.7144">PDF/EPUB/local/web</text><text fill="#000000" font-family="Helvetica" font-size="11" lengthAdjust="spacing" textLength="129.9321" x="613.7439" y="179.519">&#8594;metadata/sources.md</text><rect fill="#FFFFFF" height="32.8047" rx="12.5" ry="12.5" style="stroke:#000000;stroke-width:0.5;" width="118.0278" x="469.7161" y="146.5039"/><text fill="#000000" font-family="Helvetica" font-size="11" lengthAdjust="spacing" textLength="98.0278" x="479.7161" y="166.7144">Phase 1 Research</text><path d="M622.0391,249.7109 L622.0391,263.5156 L602.0391,267.5156 L622.0391,271.5156 L622.0391,285.3203 A0,0 0 0 0 622.0391,285.3203 L768.3359,285.3203 A0,0 0 0 0 768.3359,285.3203 L768.3359,259.7109 L758.3359,249.7109 L622.0391,249.7109 A0,0 0 0 0 622.0391,249.7109" fill="#FFFFFF" style="stroke:#000000;stroke-width:0.5;"/><path d="M758.3359,249.7109 L758.3359,259.7109 L768.3359,259.7109 L758.3359,249.7109" fill="#FFFFFF" style="stroke:#000000;stroke-width:0.5;"/><text fill="#000000" font-family="Helvetica" font-size="11" lengthAdjust="spacing" textLength="98.4468" x="628.0391" y="264.9214">big picture + TOC</text><text fill="#000000" font-family="Helvetica" font-size="11" lengthAdjust="spacing" textLength="125.2969" x="628.0391" y="277.7261">&#8594;metadata/outline.md</text><rect fill="#FFFFFF" height="32.8047" rx="12.5" ry="12.5" style="stroke:#000000;stroke-width:0.5;" width="146.6182" x="455.4209" y="251.1133"/><text fill="#000000" font-family="Helvetica" font-size="11" lengthAdjust="spacing" textLength="126.6182" x="465.4209" y="271.3237">Phase 2 Outline design</text><polygon fill="#FFFFFF" points="528.73,207.1133,540.73,219.1133,528.73,231.1133,516.73,219.1133,528.73,207.1133" style="stroke:#000000;stroke-width:0.5;stroke-linejoin:miter;stroke-miterlimit:10;"/><polygon fill="#FFFFFF" points="486.0432,305.3203,571.4167,305.3203,583.4167,317.3203,571.4167,329.3203,486.0432,329.3203,474.0432,317.3203,486.0432,305.3203" style="stroke:#000000;stroke-width:0.5;stroke-linejoin:miter;stroke-miterlimit:10;"/><text fill="#000000" font-family="Helvetica" font-size="11" lengthAdjust="spacing" textLength="19.0083" x="532.73" y="339.5308">yes</text><text fill="#000000" font-family="Helvetica" font-size="11" lengthAdjust="spacing" textLength="85.3735" x="486.0432" y="321.1284">User approves?</text><text fill="#000000" font-family="Helvetica" font-size="11" lengthAdjust="spacing" textLength="13.7017" x="583.4167" y="314.7261">no</text><path d="M618.6338,353.2261 L618.6338,373.4331 L598.6338,377.4331 L618.6338,381.4331 L618.6338,401.6401 A0,0 0 0 0 618.6338,401.6401 L783.7778,401.6401 A0,0 0 0 0 783.7778,401.6401 L783.7778,363.2261 L773.7778,353.2261 L618.6338,353.2261 A0,0 0 0 0 618.6338,353.2261" fill="#FFFFFF" style="stroke:#000000;stroke-width:0.5;"/><path d="M773.7778,353.2261 L773.7778,363.2261 L783.7778,363.2261 L773.7778,353.2261" fill="#FFFFFF" style="stroke:#000000;stroke-width:0.5;"/><text fill="#000000" font-family="Helvetica" font-size="11" lengthAdjust="spacing" textLength="122.9873" x="624.6338" y="368.4365">one .mdx per chapter:</text><text fill="#000000" font-family="Helvetica" font-size="11" lengthAdjust="spacing" textLength="141.4424" x="624.6338" y="381.2412">intro/map/theory/practice</text><text fill="#000000" font-family="Helvetica" font-size="11" lengthAdjust="spacing" textLength="144.144" x="624.6338" y="394.0459">Recipes/pitfalls/key points</text><rect fill="#FFFFFF" height="32.8047" rx="12.5" ry="12.5" style="stroke:#000000;stroke-width:0.5;" width="139.8076" x="458.8262" y="361.0308"/><text fill="#000000" font-family="Helvetica" font-size="11" lengthAdjust="spacing" textLength="119.8076" x="468.8262" y="381.2412">Phase 3 Chapter MDX</text><rect fill="#FFFFFF" height="32.8047" rx="12.5" ry="12.5" style="stroke:#000000;stroke-width:0.5;" width="196.1396" x="430.6602" y="477.3506"/><text fill="#000000" font-family="Helvetica" font-size="11" lengthAdjust="spacing" textLength="176.1396" x="440.6602" y="497.561">Expand Recipes/source analysis</text><rect fill="#FFFFFF" height="32.8047" rx="12.5" ry="12.5" style="stroke:#000000;stroke-width:0.5;" width="163.7358" x="446.8621" y="539.2529"/><text fill="#000000" font-family="Helvetica" font-size="11" lengthAdjust="spacing" textLength="143.7358" x="456.8621" y="559.4634">Lookup tables/appendices</text><polygon fill="#FFFFFF" points="470.5879,421.6401,586.8721,421.6401,598.8721,433.6401,586.8721,445.6401,470.5879,445.6401,458.5879,433.6401,470.5879,421.6401" style="stroke:#000000;stroke-width:0.5;stroke-linejoin:miter;stroke-miterlimit:10;"/><text fill="#000000" font-family="Helvetica" font-size="11" lengthAdjust="spacing" textLength="19.0083" x="532.73" y="455.8506">yes</text><text fill="#000000" font-family="Helvetica" font-size="11" lengthAdjust="spacing" textLength="116.2842" x="470.5879" y="437.4482">Word count not met?</text><text fill="#000000" font-family="Helvetica" font-size="11" lengthAdjust="spacing" textLength="13.7017" x="444.8862" y="431.0459">no</text><rect fill="#FFFFFF" height="32.8047" rx="12.5" ry="12.5" style="stroke:#000000;stroke-width:0.5;" width="169.7192" x="443.8704" y="614.0576"/><text fill="#000000" font-family="Helvetica" font-size="11" lengthAdjust="spacing" textLength="149.7192" x="453.8704" y="634.2681">Phase 5 Format conversion</text><rect fill="#555555" height="6" rx="2.5" ry="2.5" style="stroke:#555555;stroke-width:1;" width="1043.46" x="16" y="666.8623"/><rect fill="#FFFFFF" height="32.8047" rx="12.5" ry="12.5" style="stroke:#000000;stroke-width:0.5;" width="106.4961" x="28" y="692.8623"/><text fill="#000000" font-family="Helvetica" font-size="11" lengthAdjust="spacing" textLength="86.4961" x="38" y="713.0728">5a. MDX source</text><path d="M312.0166,697.8623 L312.0166,705.2646 L292.0166,709.2646 L312.0166,713.2646 L312.0166,720.667 A0,0 0 0 0 312.0166,720.667 L469.0449,720.667 A0,0 0 0 0 469.0449,720.667 L469.0449,707.8623 L459.0449,697.8623 L312.0166,697.8623 A0,0 0 0 0 312.0166,697.8623" fill="#FFFFFF" style="stroke:#000000;stroke-width:0.5;"/><path d="M459.0449,697.8623 L459.0449,707.8623 L469.0449,707.8623 L459.0449,697.8623" fill="#FFFFFF" style="stroke:#000000;stroke-width:0.5;"/><text fill="#000000" font-family="Helvetica" font-size="11" lengthAdjust="spacing" textLength="136.0283" x="318.0166" y="713.0728">xelatex two passes&#8594;PDF</text><rect fill="#FFFFFF" height="32.8047" rx="12.5" ry="12.5" style="stroke:#000000;stroke-width:0.5;" width="147.5205" x="144.4961" y="692.8623"/><text fill="#000000" font-family="Helvetica" font-size="11" lengthAdjust="spacing" textLength="127.5205" x="154.4961" y="713.0728">5b. ElegantBook LaTeX</text><path d="M617.5308,691.46 L617.5308,705.2646 L597.5308,709.2646 L617.5308,713.2646 L617.5308,727.0693 A0,0 0 0 0 617.5308,727.0693 L751.7964,727.0693 A0,0 0 0 0 751.7964,727.0693 L751.7964,701.46 L741.7964,691.46 L617.5308,691.46 A0,0 0 0 0 617.5308,691.46" fill="#FFFFFF" style="stroke:#000000;stroke-width:0.5;"/><path d="M741.7964,691.46 L741.7964,701.46 L751.7964,701.46 L741.7964,691.46" fill="#FFFFFF" style="stroke:#000000;stroke-width:0.5;"/><text fill="#000000" font-family="Helvetica" font-size="11" lengthAdjust="spacing" textLength="77.1772" x="623.5308" y="706.6704">npm run build</text><text fill="#000000" font-family="Helvetica" font-size="11" lengthAdjust="spacing" textLength="113.2656" x="623.5308" y="719.4751">+Docker verification</text><rect fill="#FFFFFF" height="32.8047" rx="12.5" ry="12.5" style="stroke:#000000;stroke-width:0.5;" width="100.4858" x="497.0449" y="692.8623"/><text fill="#000000" font-family="Helvetica" font-size="11" lengthAdjust="spacing" textLength="80.4858" x="507.0449" y="713.0728">5c. Nextra site</text><path d="M869.9517,691.46 L869.9517,705.2646 L849.9517,709.2646 L869.9517,713.2646 L869.9517,727.0693 A0,0 0 0 0 869.9517,727.0693 L1047.46,727.0693 A0,0 0 0 0 1047.46,727.0693 L1047.46,701.46 L1037.46,691.46 L869.9517,691.46 A0,0 0 0 0 869.9517,691.46" fill="#FFFFFF" style="stroke:#000000;stroke-width:0.5;"/><path d="M1037.46,691.46 L1037.46,701.46 L1047.46,701.46 L1037.46,691.46" fill="#FFFFFF" style="stroke:#000000;stroke-width:0.5;"/><text fill="#000000" font-family="Helvetica" font-size="11" lengthAdjust="spacing" textLength="156.5083" x="875.9517" y="706.6704">font subsetting+CSS rewrite</text><text fill="#000000" font-family="Helvetica" font-size="11" lengthAdjust="spacing" textLength="107.7173" x="875.9517" y="719.4751">+Python packaging</text><rect fill="#FFFFFF" height="32.8047" rx="12.5" ry="12.5" style="stroke:#000000;stroke-width:0.5;" width="70.1553" x="779.7964" y="692.8623"/><text fill="#000000" font-family="Helvetica" font-size="11" lengthAdjust="spacing" textLength="50.1553" x="789.7964" y="713.0728">5d. EPUB</text><rect fill="#555555" height="6" rx="2.5" ry="2.5" style="stroke:#555555;stroke-width:1;" width="1043.46" x="16" y="747.0693"/><path d="M604.9778,771.667 L604.9778,785.4717 L584.9778,789.4717 L604.9778,793.4717 L604.9778,807.2764 A0,0 0 0 0 604.9778,807.2764 L723.3772,807.2764 A0,0 0 0 0 723.3772,807.2764 L723.3772,781.667 L713.3772,771.667 L604.9778,771.667 A0,0 0 0 0 604.9778,771.667" fill="#FFFFFF" style="stroke:#000000;stroke-width:0.5;"/><path d="M713.3772,771.667 L713.3772,781.667 L723.3772,781.667 L713.3772,771.667" fill="#FFFFFF" style="stroke:#000000;stroke-width:0.5;"/><text fill="#000000" font-family="Helvetica" font-size="11" lengthAdjust="spacing" textLength="97.3994" x="610.9778" y="786.8774">bilingual README</text><text fill="#000000" font-family="Helvetica" font-size="11" lengthAdjust="spacing" textLength="92.6514" x="610.9778" y="799.6821">+links+statistics</text><rect fill="#FFFFFF" height="32.8047" rx="12.5" ry="12.5" style="stroke:#000000;stroke-width:0.5;" width="112.4956" x="472.4822" y="773.0693"/><text fill="#000000" font-family="Helvetica" font-size="11" lengthAdjust="spacing" textLength="92.4956" x="482.4822" y="793.2798">Phase 6 Delivery</text><ellipse cx="528.73" cy="838.2764" fill="none" rx="11" ry="11" style="stroke:#222222;stroke-width:1;"/><ellipse cx="528.73" cy="838.2764" fill="#222222" rx="6" ry="6" style="stroke:#222222;stroke-width:1;"/><line style="stroke:#000000;stroke-width:0.75;" x1="528.73" x2="528.73" y1="72.2969" y2="92.2969"/><polygon fill="#000000" points="524.73,82.2969,528.73,92.2969,532.73,82.2969,528.73,86.2969" style="stroke:#000000;stroke-width:1;stroke-linejoin:miter;stroke-miterlimit:10;"/><line style="stroke:#000000;stroke-width:0.75;" x1="528.73" x2="528.73" y1="125.1016" y2="146.5039"/><polygon fill="#000000" points="524.73,136.5039,528.73,146.5039,532.73,136.5039,528.73,140.5039" style="stroke:#000000;stroke-width:1;stroke-linejoin:miter;stroke-miterlimit:10;"/><line style="stroke:#000000;stroke-width:0.75;" x1="528.73" x2="528.73" y1="231.1133" y2="251.1133"/><polygon fill="#000000" points="524.73,241.1133,528.73,251.1133,532.73,241.1133,528.73,245.1133" style="stroke:#000000;stroke-width:1;stroke-linejoin:miter;stroke-miterlimit:10;"/><line style="stroke:#000000;stroke-width:0.75;" x1="583.4167" x2="780.3359" y1="317.3203" y2="317.3203"/><polygon fill="#000000" points="776.3359,277.5156,780.3359,267.5156,784.3359,277.5156,780.3359,273.5156" style="stroke:#000000;stroke-width:0.75;stroke-linejoin:miter;stroke-miterlimit:10;"/><line style="stroke:#000000;stroke-width:0.75;" x1="780.3359" x2="780.3359" y1="219.1133" y2="317.3203"/><line style="stroke:#000000;stroke-width:0.75;" x1="780.3359" x2="540.73" y1="219.1133" y2="219.1133"/><polygon fill="#000000" points="550.73,215.1133,540.73,219.1133,550.73,223.1133,546.73,219.1133" style="stroke:#000000;stroke-width:1;stroke-linejoin:miter;stroke-miterlimit:10;"/><line style="stroke:#000000;stroke-width:0.75;" x1="528.73" x2="528.73" y1="283.918" y2="305.3203"/><polygon fill="#000000" points="524.73,295.3203,528.73,305.3203,532.73,295.3203,528.73,299.3203" style="stroke:#000000;stroke-width:1;stroke-linejoin:miter;stroke-miterlimit:10;"/><line style="stroke:#000000;stroke-width:0.75;" x1="528.73" x2="528.73" y1="179.3086" y2="207.1133"/><polygon fill="#000000" points="524.73,197.1133,528.73,207.1133,532.73,197.1133,528.73,201.1133" style="stroke:#000000;stroke-width:1;stroke-linejoin:miter;stroke-miterlimit:10;"/><line style="stroke:#000000;stroke-width:0.75;" x1="528.73" x2="528.73" y1="329.3203" y2="361.0308"/><polygon fill="#000000" points="524.73,351.0308,528.73,361.0308,532.73,351.0308,528.73,355.0308" style="stroke:#000000;stroke-width:1;stroke-linejoin:miter;stroke-miterlimit:10;"/><line style="stroke:#000000;stroke-width:0.75;" x1="528.73" x2="528.73" y1="510.1553" y2="539.2529"/><polygon fill="#000000" points="524.73,529.2529,528.73,539.2529,532.73,529.2529,528.73,533.2529" style="stroke:#000000;stroke-width:1;stroke-linejoin:miter;stroke-miterlimit:10;"/><line style="stroke:#000000;stroke-width:0.75;" x1="528.73" x2="528.73" y1="445.6401" y2="477.3506"/><polygon fill="#000000" points="524.73,467.3506,528.73,477.3506,532.73,467.3506,528.73,471.3506" style="stroke:#000000;stroke-width:1;stroke-linejoin:miter;stroke-miterlimit:10;"/><line style="stroke:#000000;stroke-width:0.75;" x1="528.73" x2="528.73" y1="572.0576" y2="582.0576"/><line style="stroke:#000000;stroke-width:0.75;" x1="528.73" x2="638.7998" y1="582.0576" y2="582.0576"/><polygon fill="#000000" points="634.7998,519.2529,638.7998,509.2529,642.7998,519.2529,638.7998,515.2529" style="stroke:#000000;stroke-width:0.75;stroke-linejoin:miter;stroke-miterlimit:10;"/><line style="stroke:#000000;stroke-width:0.75;" x1="638.7998" x2="638.7998" y1="433.6401" y2="582.0576"/><line style="stroke:#000000;stroke-width:0.75;" x1="638.7998" x2="598.8721" y1="433.6401" y2="433.6401"/><polygon fill="#000000" points="608.8721,429.6401,598.8721,433.6401,608.8721,437.6401,604.8721,433.6401" style="stroke:#000000;stroke-width:1;stroke-linejoin:miter;stroke-miterlimit:10;"/><line style="stroke:#000000;stroke-width:0.75;" x1="458.5879" x2="418.6602" y1="433.6401" y2="433.6401"/><polygon fill="#000000" points="414.6602,505.2529,418.6602,515.2529,422.6602,505.2529,418.6602,509.2529" style="stroke:#000000;stroke-width:0.75;stroke-linejoin:miter;stroke-miterlimit:10;"/><line style="stroke:#000000;stroke-width:0.75;" x1="418.6602" x2="418.6602" y1="433.6401" y2="594.0576"/><line style="stroke:#000000;stroke-width:0.75;" x1="418.6602" x2="528.73" y1="594.0576" y2="594.0576"/><line style="stroke:#000000;stroke-width:0.75;" x1="528.73" x2="528.73" y1="594.0576" y2="614.0576"/><polygon fill="#000000" points="524.73,604.0576,528.73,614.0576,532.73,604.0576,528.73,608.0576" style="stroke:#000000;stroke-width:1;stroke-linejoin:miter;stroke-miterlimit:10;"/><line style="stroke:#000000;stroke-width:0.75;" x1="528.73" x2="528.73" y1="393.8354" y2="421.6401"/><polygon fill="#000000" points="524.73,411.6401,528.73,421.6401,532.73,411.6401,528.73,415.6401" style="stroke:#000000;stroke-width:1;stroke-linejoin:miter;stroke-miterlimit:10;"/><line style="stroke:#000000;stroke-width:0.75;" x1="81.248" x2="81.248" y1="672.8623" y2="692.8623"/><polygon fill="#000000" points="77.248,682.8623,81.248,692.8623,85.248,682.8623,81.248,686.8623" style="stroke:#000000;stroke-width:1;stroke-linejoin:miter;stroke-miterlimit:10;"/><line style="stroke:#000000;stroke-width:0.75;" x1="218.2563" x2="218.2563" y1="672.8623" y2="692.8623"/><polygon fill="#000000" points="214.2563,682.8623,218.2563,692.8623,222.2563,682.8623,218.2563,686.8623" style="stroke:#000000;stroke-width:1;stroke-linejoin:miter;stroke-miterlimit:10;"/><line style="stroke:#000000;stroke-width:0.75;" x1="547.2878" x2="547.2878" y1="672.8623" y2="692.8623"/><polygon fill="#000000" points="543.2878,682.8623,547.2878,692.8623,551.2878,682.8623,547.2878,686.8623" style="stroke:#000000;stroke-width:1;stroke-linejoin:miter;stroke-miterlimit:10;"/><line style="stroke:#000000;stroke-width:0.75;" x1="814.874" x2="814.874" y1="672.8623" y2="692.8623"/><polygon fill="#000000" points="810.874,682.8623,814.874,692.8623,818.874,682.8623,814.874,686.8623" style="stroke:#000000;stroke-width:1;stroke-linejoin:miter;stroke-miterlimit:10;"/><line style="stroke:#000000;stroke-width:0.75;" x1="81.248" x2="81.248" y1="725.667" y2="747.0693"/><polygon fill="#000000" points="77.248,737.0693,81.248,747.0693,85.248,737.0693,81.248,741.0693" style="stroke:#000000;stroke-width:1;stroke-linejoin:miter;stroke-miterlimit:10;"/><line style="stroke:#000000;stroke-width:0.75;" x1="218.2563" x2="218.2563" y1="725.667" y2="747.0693"/><polygon fill="#000000" points="214.2563,737.0693,218.2563,747.0693,222.2563,737.0693,218.2563,741.0693" style="stroke:#000000;stroke-width:1;stroke-linejoin:miter;stroke-miterlimit:10;"/><line style="stroke:#000000;stroke-width:0.75;" x1="547.2878" x2="547.2878" y1="725.667" y2="747.0693"/><polygon fill="#000000" points="543.2878,737.0693,547.2878,747.0693,551.2878,737.0693,547.2878,741.0693" style="stroke:#000000;stroke-width:1;stroke-linejoin:miter;stroke-miterlimit:10;"/><line style="stroke:#000000;stroke-width:0.75;" x1="814.874" x2="814.874" y1="725.667" y2="747.0693"/><polygon fill="#000000" points="810.874,737.0693,814.874,747.0693,818.874,737.0693,814.874,741.0693" style="stroke:#000000;stroke-width:1;stroke-linejoin:miter;stroke-miterlimit:10;"/><line style="stroke:#000000;stroke-width:0.75;" x1="528.73" x2="528.73" y1="646.8623" y2="666.8623"/><polygon fill="#000000" points="524.73,656.8623,528.73,666.8623,532.73,656.8623,528.73,660.8623" style="stroke:#000000;stroke-width:1;stroke-linejoin:miter;stroke-miterlimit:10;"/><line style="stroke:#000000;stroke-width:0.75;" x1="528.73" x2="528.73" y1="753.0693" y2="773.0693"/><polygon fill="#000000" points="524.73,763.0693,528.73,773.0693,532.73,763.0693,528.73,767.0693" style="stroke:#000000;stroke-width:1;stroke-linejoin:miter;stroke-miterlimit:10;"/><line style="stroke:#000000;stroke-width:0.75;" x1="528.73" x2="528.73" y1="805.874" y2="827.2764"/><polygon fill="#000000" points="524.73,817.2764,528.73,827.2764,532.73,817.2764,528.73,821.2764" style="stroke:#000000;stroke-width:1;stroke-linejoin:miter;stroke-miterlimit:10;"/><?plantuml-src ZLJRJjj047ttLupK5r3KcBIYbU2XWbnA9GfH0C7hs9xOAwztLxlZNFe1_O1-Oh-aOoUXRfG2bYnPCxFdd3apwr0guz1Z1PKrDYsyhGZOrnI5vqmeCBDBPNAOemxTJ89fcNjRcsnejVNmRj8-dOgCvbXhdbZ3svAJzZbSSeF2VaLwGQnIF5npftuG30QTv8rbkdnLILjbVKR-Vq8kKbOBnUlNiPuhtuGtKYZcPc-7tHru6TrxktmnUL-ej3GK0fpqFvyUu9bjn7X37WOdKSIADK5gRPd8-tvkVKxmQ7qvrtOPHO7HStGsBJ0GdC0tusg67BaWByjn7Xbn6BpA2uu0s3gLni7MFgKGOvqfCYb9OYbT2KTjE1Q22Zd4cS9ST8M8J0ODoeva03CAX3ujzj0VPjSX_ghugavYz2krY2Ku7KtYyVJXCjOsHHqlAP7Wxv-_AcBCa76dfbzbVvayES86Salv0MvhrigGx5nGkJcNr3_K08dAGPhZsXFquFvss4QxH7O3qH01x571ib3Yyj534DVHEMyN5BuSWmfmPEnnKmf7Qmh7EnC-mh10nrBzVVIqvuCLdSAo0YVfT5Ds9d5bsDkuGXVBTAnVnywZ3BqTm8nIvMGcJh7SPntYajRWh1pf360hyl5vMAqkQN2hj1KeferN3kNC3dFZCA11lGugDEQTNSikrGuO4zriWdD28aeaAHzR7cbyr-ufJDgr45gp81-KbHd8ffGDrYds6nTWmxE90-QeJ9jD-Z3MbAFXIo65QxodfmC3N956fXNmqeB342Z8y6HxkiFQGqxxS4ChzWX1CHt0DAu2Nnj8QgMpDj8RsRIKiKWJQYw_CvPENc38HBiixm7ekVpr8DH986QvQBtXtHruMdeHiY6QhhcmHbf9IyobeilIVBJkRUtz12FIIZIjzrOfKRAoUOqQPkEBqVUnX7eIAKDFxZsh8DlJsOyWz_iF?></g></svg>