<svg xmlns="http://www.w3.org/2000/svg" xmlns:xlink="http://www.w3.org/1999/xlink" contentStyleType="text/css" data-diagram-type="ACTIVITY" height="893px" preserveAspectRatio="none" style="width:1087px;height:893px;background:#FFFFFF;" version="1.1" viewBox="0 0 1087 893" width="1087px" zoomAndPan="magnify"><?plantuml 1.2026.6?><defs/><g><g class="title" data-source-line="16"><text fill="#000000" font-family="'WenQuanYi Micro Hei'" font-size="14" font-weight="700" lengthAdjust="spacing" textLength="184.2283" x="450.7106" y="32.9951">cookbook-forge &#24037;&#20316;&#27969;&#31243;</text></g><ellipse cx="532.8248" cy="62.2969" fill="#222222" rx="10" ry="10" style="stroke:#222222;stroke-width:1;"/><path d="M606.4569,89.1484 L606.4569,105.2813 L586.4569,109.2813 L606.4569,113.2813 L606.4569,129.4141 A0,0 0 0 0 606.4569,129.4141 L756.7461,129.4141 A0,0 0 0 0 756.7461,129.4141 L756.7461,99.1484 L746.7461,89.1484 L606.4569,89.1484 A0,0 0 0 0 606.4569,89.1484" fill="#FFFFFF" style="stroke:#000000;stroke-width:0.5;"/><path d="M746.7461,89.1484 L746.7461,99.1484 L756.7461,99.1484 L746.7461,89.1484" fill="#FFFFFF" style="stroke:#000000;stroke-width:0.5;"/><text fill="#000000" font-family="'WenQuanYi Micro Hei'" font-size="13" lengthAdjust="spacing" textLength="103.2892" x="612.4569" y="106.2153">&#20027;&#39064; / &#36164;&#26009; / &#35835;&#32773;</text><text fill="#000000" font-family="'WenQuanYi Micro Hei'" font-size="13" lengthAdjust="spacing" textLength="129.2892" x="612.4569" y="121.3481">&#23383;&#25968; / &#26684;&#24335; / &#22270;&#34920;&#20559;&#22909;</text><rect fill="#FFFFFF" height="33.9688" rx="12.5" ry="12.5" style="stroke:#000000;stroke-width:0.5;" width="107.2642" x="479.1927" y="92.2969"/><text fill="#000000" font-family="'WenQuanYi Micro Hei'" font-size="12" lengthAdjust="spacing" textLength="87.2642" x="489.1927" y="113.4355">&#38454;&#27573; 0 &#36755;&#20837;&#35782;&#21035;</text><path d="M606.4569,139.4141 L606.4569,163.1133 L586.4569,167.1133 L606.4569,171.1133 L606.4569,194.8125 A0,0 0 0 0 606.4569,194.8125 L789.8363,194.8125 A0,0 0 0 0 789.8363,194.8125 L789.8363,149.4141 L779.8363,139.4141 L606.4569,139.4141 A0,0 0 0 0 606.4569,139.4141" fill="#FFFFFF" style="stroke:#000000;stroke-width:0.5;"/><path d="M779.8363,139.4141 L779.8363,149.4141 L789.8363,149.4141 L779.8363,139.4141" fill="#FFFFFF" style="stroke:#000000;stroke-width:0.5;"/><text fill="#000000" font-family="'WenQuanYi Micro Hei'" font-size="13" lengthAdjust="spacing" textLength="136.9507" x="612.4569" y="156.481">URL / GitHub / arxiv /</text><text fill="#000000" font-family="'WenQuanYi Micro Hei'" font-size="13" lengthAdjust="spacing" textLength="149.7476" x="612.4569" y="171.6138">PDF / EPUB / &#26412;&#22320; / &#32593;&#32476;</text><text fill="#000000" font-family="'WenQuanYi Micro Hei'" font-size="13" lengthAdjust="spacing" textLength="162.3794" x="612.4569" y="186.7466">-&gt; metadata/sources.md</text><rect fill="#FFFFFF" height="33.9688" rx="12.5" ry="12.5" style="stroke:#000000;stroke-width:0.5;" width="107.2642" x="479.1927" y="150.1289"/><text fill="#000000" font-family="'WenQuanYi Micro Hei'" font-size="12" lengthAdjust="spacing" textLength="87.2642" x="489.1927" y="171.2676">&#38454;&#27573; 1 &#36164;&#26009;&#37319;&#38598;</text><path d="M606.4569,255.6641 L606.4569,271.7969 L586.4569,275.7969 L606.4569,279.7969 L606.4569,295.9297 A0,0 0 0 0 606.4569,295.9297 L784.3583,295.9297 A0,0 0 0 0 784.3583,295.9297 L784.3583,265.6641 L774.3583,255.6641 L606.4569,255.6641 A0,0 0 0 0 606.4569,255.6641" fill="#FFFFFF" style="stroke:#000000;stroke-width:0.5;"/><path d="M774.3583,255.6641 L774.3583,265.6641 L784.3583,265.6641 L774.3583,255.6641" fill="#FFFFFF" style="stroke:#000000;stroke-width:0.5;"/><text fill="#000000" font-family="'WenQuanYi Micro Hei'" font-size="13" lengthAdjust="spacing" textLength="110.1573" x="612.4569" y="272.731">&#20840;&#26223;&#22270; + &#31456;&#33410;&#30446;&#24405;</text><text fill="#000000" font-family="'WenQuanYi Micro Hei'" font-size="13" lengthAdjust="spacing" textLength="156.9014" x="612.4569" y="287.8638">-&gt; metadata/outline.md</text><rect fill="#FFFFFF" height="33.9688" rx="12.5" ry="12.5" style="stroke:#000000;stroke-width:0.5;" width="107.2642" x="479.1927" y="258.8125"/><text fill="#000000" font-family="'WenQuanYi Micro Hei'" font-size="12" lengthAdjust="spacing" textLength="87.2642" x="489.1927" y="279.9512">&#38454;&#27573; 2 &#22823;&#32434;&#35774;&#35745;</text><polygon fill="#FFFFFF" points="532.8248,214.8125,544.8248,226.8125,532.8248,238.8125,520.8248,226.8125,532.8248,214.8125" style="stroke:#000000;stroke-width:0.5;stroke-linejoin:miter;stroke-miterlimit:10;"/><polygon fill="#FFFFFF" points="496.9058,315.9297,568.7437,315.9297,580.7437,327.9297,568.7437,339.9297,496.9058,339.9297,484.9058,327.9297,496.9058,315.9297" style="stroke:#000000;stroke-width:0.5;stroke-linejoin:miter;stroke-miterlimit:10;"/><text fill="#000000" font-family="'WenQuanYi Micro Hei'" font-size="11" lengthAdjust="spacing" textLength="10.9999" x="536.8248" y="350.1401">&#26159;</text><text fill="#000000" font-family="'WenQuanYi Micro Hei'" font-size="11" lengthAdjust="spacing" textLength="71.8379" x="496.9058" y="331.7378">&#29992;&#25143;&#30830;&#35748;&#22823;&#32434;?</text><text fill="#000000" font-family="'WenQuanYi Micro Hei'" font-size="11" lengthAdjust="spacing" textLength="10.9999" x="580.7437" y="325.3354">&#21542;</text><path d="M610.2712,361.6401 L610.2712,385.3394 L590.2712,389.3394 L610.2712,393.3394 L610.2712,417.0386 A0,0 0 0 0 610.2712,417.0386 L824.018,417.0386 A0,0 0 0 0 824.018,417.0386 L824.018,371.6401 L814.018,361.6401 L610.2712,361.6401 A0,0 0 0 0 610.2712,361.6401" fill="#FFFFFF" style="stroke:#000000;stroke-width:0.5;"/><path d="M814.018,361.6401 L814.018,371.6401 L824.018,371.6401 L814.018,361.6401" fill="#FFFFFF" style="stroke:#000000;stroke-width:0.5;"/><text fill="#000000" font-family="'WenQuanYi Micro Hei'" font-size="13" lengthAdjust="spacing" textLength="75.8736" x="616.2712" y="378.707">&#27599;&#31456; .mdx&#65306;</text><text fill="#000000" font-family="'WenQuanYi Micro Hei'" font-size="13" lengthAdjust="spacing" textLength="141.9337" x="616.2712" y="393.8398">&#24341;&#20837; / &#22320;&#22270; / &#21407;&#29702; / &#23454;&#29992;</text><text fill="#000000" font-family="'WenQuanYi Micro Hei'" font-size="13" lengthAdjust="spacing" textLength="192.7467" x="616.2712" y="408.9727">Recipes / &#38519;&#38449; / &#35201;&#28857; / &#24310;&#20280;&#38405;&#35835;</text><rect fill="#FFFFFF" height="33.9688" rx="12.5" ry="12.5" style="stroke:#000000;stroke-width:0.5;" width="114.8929" x="475.3783" y="372.355"/><text fill="#000000" font-family="'WenQuanYi Micro Hei'" font-size="12" lengthAdjust="spacing" textLength="94.8929" x="485.3783" y="393.4937">&#38454;&#27573; 3 &#36880;&#31456; MDX</text><rect fill="#FFFFFF" height="33.9688" rx="12.5" ry="12.5" style="stroke:#000000;stroke-width:0.5;" width="154.3912" x="455.6292" y="492.749"/><text fill="#000000" font-family="'WenQuanYi Micro Hei'" font-size="12" lengthAdjust="spacing" textLength="134.3912" x="465.6292" y="513.8877">&#25193;&#20889; Recipes / &#28304;&#30721;&#35299;&#26512;</text><rect fill="#FFFFFF" height="33.9688" rx="12.5" ry="12.5" style="stroke:#000000;stroke-width:0.5;" width="91.6723" x="486.9886" y="555.8154"/><text fill="#000000" font-family="'WenQuanYi Micro Hei'" font-size="12" lengthAdjust="spacing" textLength="71.6723" x="496.9886" y="576.9541">&#36895;&#26597;&#34920; / &#38468;&#24405;</text><polygon fill="#FFFFFF" points="502.4058,437.0386,563.2438,437.0386,575.2438,449.0386,563.2438,461.0386,502.4058,461.0386,490.4058,449.0386,502.4058,437.0386" style="stroke:#000000;stroke-width:0.5;stroke-linejoin:miter;stroke-miterlimit:10;"/><text fill="#000000" font-family="'WenQuanYi Micro Hei'" font-size="11" lengthAdjust="spacing" textLength="10.9999" x="536.8248" y="471.249">&#26159;</text><text fill="#000000" font-family="'WenQuanYi Micro Hei'" font-size="11" lengthAdjust="spacing" textLength="60.838" x="502.4058" y="452.8467">&#23383;&#25968;&#26410;&#36798;&#26631;?</text><text fill="#000000" font-family="'WenQuanYi Micro Hei'" font-size="11" lengthAdjust="spacing" textLength="10.9999" x="479.4059" y="446.4443">&#21542;</text><rect fill="#FFFFFF" height="33.9688" rx="12.5" ry="12.5" style="stroke:#000000;stroke-width:0.5;" width="119.2643" x="473.1926" y="631.7842"/><text fill="#000000" font-family="'WenQuanYi Micro Hei'" font-size="12" lengthAdjust="spacing" textLength="99.2643" x="483.1926" y="652.9229">&#38454;&#27573; 5 &#22810;&#26684;&#24335;&#36716;&#25442;</text><rect fill="#555555" height="6" rx="2.5" ry="2.5" style="stroke:#555555;stroke-width:1;" width="1051.6496" x="16" y="685.7529"/><rect fill="#FFFFFF" height="33.9688" rx="12.5" ry="12.5" style="stroke:#000000;stroke-width:0.5;" width="110.2464" x="28" y="711.7529"/><text fill="#000000" font-family="'WenQuanYi Micro Hei'" font-size="12" lengthAdjust="spacing" textLength="90.2464" x="38" y="732.8916">5a. MDX &#28304;&#26684;&#24335;</text><path d="M327.3596,716.1709 L327.3596,724.7373 L307.3596,728.7373 L327.3596,732.7373 L327.3596,741.3037 A0,0 0 0 0 327.3596,741.3037 L501.7254,741.3037 A0,0 0 0 0 501.7254,741.3037 L501.7254,726.1709 L491.7254,716.1709 L327.3596,716.1709 A0,0 0 0 0 327.3596,716.1709" fill="#FFFFFF" style="stroke:#000000;stroke-width:0.5;"/><path d="M491.7254,716.1709 L491.7254,726.1709 L501.7254,726.1709 L491.7254,716.1709" fill="#FFFFFF" style="stroke:#000000;stroke-width:0.5;"/><text fill="#000000" font-family="'WenQuanYi Micro Hei'" font-size="13" lengthAdjust="spacing" textLength="153.3658" x="333.3596" y="733.2378">xelatex &#20004;&#36941;&#32534;&#35793; -&gt; PDF</text><rect fill="#FFFFFF" height="33.9688" rx="12.5" ry="12.5" style="stroke:#000000;stroke-width:0.5;" width="159.1133" x="148.2464" y="711.7529"/><text fill="#000000" font-family="'WenQuanYi Micro Hei'" font-size="12" lengthAdjust="spacing" textLength="139.1133" x="158.2464" y="732.8916">5b. ElegantBook LaTeX</text><path d="M659.8545,708.6045 L659.8545,724.7373 L639.8545,728.7373 L659.8545,732.7373 L659.8545,748.8701 A0,0 0 0 0 659.8545,748.8701 L772.064,748.8701 A0,0 0 0 0 772.064,748.8701 L772.064,718.6045 L762.064,708.6045 L659.8545,708.6045 A0,0 0 0 0 659.8545,708.6045" fill="#FFFFFF" style="stroke:#000000;stroke-width:0.5;"/><path d="M762.064,708.6045 L762.064,718.6045 L772.064,718.6045 L762.064,708.6045" fill="#FFFFFF" style="stroke:#000000;stroke-width:0.5;"/><text fill="#000000" font-family="'WenQuanYi Micro Hei'" font-size="13" lengthAdjust="spacing" textLength="91.2095" x="665.8545" y="725.6714">npm run build</text><text fill="#000000" font-family="'WenQuanYi Micro Hei'" font-size="13" lengthAdjust="spacing" textLength="91.1397" x="665.8545" y="740.8042">+ Docker &#39564;&#35777;</text><rect fill="#FFFFFF" height="33.9688" rx="12.5" ry="12.5" style="stroke:#000000;stroke-width:0.5;" width="110.1291" x="529.7254" y="711.7529"/><text fill="#000000" font-family="'WenQuanYi Micro Hei'" font-size="12" lengthAdjust="spacing" textLength="90.1291" x="539.7254" y="732.8916">5c. Nextra &#32593;&#31449;</text><path d="M894.7788,708.6045 L894.7788,724.7373 L874.7788,728.7373 L894.7788,732.7373 L894.7788,748.8701 A0,0 0 0 0 894.7788,748.8701 L1055.6496,748.8701 A0,0 0 0 0 1055.6496,748.8701 L1055.6496,718.6045 L1045.6496,708.6045 L894.7788,708.6045 A0,0 0 0 0 894.7788,708.6045" fill="#FFFFFF" style="stroke:#000000;stroke-width:0.5;"/><path d="M1045.6496,708.6045 L1045.6496,718.6045 L1055.6496,718.6045 L1045.6496,708.6045" fill="#FFFFFF" style="stroke:#000000;stroke-width:0.5;"/><text fill="#000000" font-family="'WenQuanYi Micro Hei'" font-size="13" lengthAdjust="spacing" textLength="139.8707" x="900.7788" y="725.6714">&#23383;&#20307;&#23376;&#38598;&#21270; + CSS &#37325;&#20889;</text><text fill="#000000" font-family="'WenQuanYi Micro Hei'" font-size="13" lengthAdjust="spacing" textLength="90.2193" x="900.7788" y="740.8042">+ Python &#25171;&#21253;</text><rect fill="#FFFFFF" height="33.9688" rx="12.5" ry="12.5" style="stroke:#000000;stroke-width:0.5;" width="74.7148" x="800.064" y="711.7529"/><text fill="#000000" font-family="'WenQuanYi Micro Hei'" font-size="12" lengthAdjust="spacing" textLength="54.7148" x="810.064" y="732.8916">5d. EPUB</text><rect fill="#555555" height="6" rx="2.5" ry="2.5" style="stroke:#555555;stroke-width:1;" width="1051.6496" x="16" y="768.8701"/><path d="M606.4569,791.7217 L606.4569,807.8545 L586.4569,811.8545 L606.4569,815.8545 L606.4569,831.9873 A0,0 0 0 0 606.4569,831.9873 L739.6391,831.9873 A0,0 0 0 0 739.6391,831.9873 L739.6391,801.7217 L729.6391,791.7217 L606.4569,791.7217 A0,0 0 0 0 606.4569,791.7217" fill="#FFFFFF" style="stroke:#000000;stroke-width:0.5;"/><path d="M729.6391,791.7217 L729.6391,801.7217 L739.6391,801.7217 L729.6391,791.7217" fill="#FFFFFF" style="stroke:#000000;stroke-width:0.5;"/><text fill="#000000" font-family="'WenQuanYi Micro Hei'" font-size="13" lengthAdjust="spacing" textLength="98.7124" x="612.4569" y="808.7886">&#20013;&#33521;&#25991; README</text><text fill="#000000" font-family="'WenQuanYi Micro Hei'" font-size="13" lengthAdjust="spacing" textLength="112.1822" x="612.4569" y="823.9214">+ &#38142;&#25509; + &#32479;&#35745;&#25253;&#21578;</text><rect fill="#FFFFFF" height="33.9688" rx="12.5" ry="12.5" style="stroke:#000000;stroke-width:0.5;" width="107.2642" x="479.1927" y="794.8701"/><text fill="#000000" font-family="'WenQuanYi Micro Hei'" font-size="12" lengthAdjust="spacing" textLength="87.2642" x="489.1927" y="816.0088">&#38454;&#27573; 6 &#26368;&#32456;&#20132;&#20184;</text><ellipse cx="532.8248" cy="862.9873" fill="none" rx="11" ry="11" style="stroke:#222222;stroke-width:1;"/><ellipse cx="532.8248" cy="862.9873" fill="#222222" rx="6" ry="6" style="stroke:#222222;stroke-width:1;"/><line style="stroke:#000000;stroke-width:0.75;" x1="532.8248" x2="532.8248" y1="72.2969" y2="92.2969"/><polygon fill="#000000" points="528.8248,82.2969,532.8248,92.2969,536.8248,82.2969,532.8248,86.2969" style="stroke:#000000;stroke-width:1;stroke-linejoin:miter;stroke-miterlimit:10;"/><line style="stroke:#000000;stroke-width:0.75;" x1="532.8248" x2="532.8248" y1="126.2656" y2="150.1289"/><polygon fill="#000000" points="528.8248,140.1289,532.8248,150.1289,536.8248,140.1289,532.8248,144.1289" style="stroke:#000000;stroke-width:1;stroke-linejoin:miter;stroke-miterlimit:10;"/><line style="stroke:#000000;stroke-width:0.75;" x1="532.8248" x2="532.8248" y1="238.8125" y2="258.8125"/><polygon fill="#000000" points="528.8248,248.8125,532.8248,258.8125,536.8248,248.8125,532.8248,252.8125" style="stroke:#000000;stroke-width:1;stroke-linejoin:miter;stroke-miterlimit:10;"/><line style="stroke:#000000;stroke-width:0.75;" x1="580.7437" x2="796.3583" y1="327.9297" y2="327.9297"/><polygon fill="#000000" points="792.3583,285.7969,796.3583,275.7969,800.3583,285.7969,796.3583,281.7969" style="stroke:#000000;stroke-width:0.75;stroke-linejoin:miter;stroke-miterlimit:10;"/><line style="stroke:#000000;stroke-width:0.75;" x1="796.3583" x2="796.3583" y1="226.8125" y2="327.9297"/><line style="stroke:#000000;stroke-width:0.75;" x1="796.3583" x2="544.8248" y1="226.8125" y2="226.8125"/><polygon fill="#000000" points="554.8248,222.8125,544.8248,226.8125,554.8248,230.8125,550.8248,226.8125" style="stroke:#000000;stroke-width:1;stroke-linejoin:miter;stroke-miterlimit:10;"/><line style="stroke:#000000;stroke-width:0.75;" x1="532.8248" x2="532.8248" y1="292.7813" y2="315.9297"/><polygon fill="#000000" points="528.8248,305.9297,532.8248,315.9297,536.8248,305.9297,532.8248,309.9297" style="stroke:#000000;stroke-width:1;stroke-linejoin:miter;stroke-miterlimit:10;"/><line style="stroke:#000000;stroke-width:0.75;" x1="532.8248" x2="532.8248" y1="184.0977" y2="214.8125"/><polygon fill="#000000" points="528.8248,204.8125,532.8248,214.8125,536.8248,204.8125,532.8248,208.8125" style="stroke:#000000;stroke-width:1;stroke-linejoin:miter;stroke-miterlimit:10;"/><line style="stroke:#000000;stroke-width:0.75;" x1="532.8248" x2="532.8248" y1="339.9297" y2="372.355"/><polygon fill="#000000" points="528.8248,362.355,532.8248,372.355,536.8248,362.355,532.8248,366.355" style="stroke:#000000;stroke-width:1;stroke-linejoin:miter;stroke-miterlimit:10;"/><line style="stroke:#000000;stroke-width:0.75;" x1="532.8248" x2="532.8248" y1="526.7178" y2="555.8154"/><polygon fill="#000000" points="528.8248,545.8154,532.8248,555.8154,536.8248,545.8154,532.8248,549.8154" style="stroke:#000000;stroke-width:1;stroke-linejoin:miter;stroke-miterlimit:10;"/><line style="stroke:#000000;stroke-width:0.75;" x1="532.8248" x2="532.8248" y1="461.0386" y2="492.749"/><polygon fill="#000000" points="528.8248,482.749,532.8248,492.749,536.8248,482.749,532.8248,486.749" style="stroke:#000000;stroke-width:1;stroke-linejoin:miter;stroke-miterlimit:10;"/><line style="stroke:#000000;stroke-width:0.75;" x1="532.8248" x2="532.8248" y1="589.7842" y2="599.7842"/><line style="stroke:#000000;stroke-width:0.75;" x1="532.8248" x2="622.0204" y1="599.7842" y2="599.7842"/><polygon fill="#000000" points="618.0204,535.8154,622.0204,525.8154,626.0204,535.8154,622.0204,531.8154" style="stroke:#000000;stroke-width:0.75;stroke-linejoin:miter;stroke-miterlimit:10;"/><line style="stroke:#000000;stroke-width:0.75;" x1="622.0204" x2="622.0204" y1="449.0386" y2="599.7842"/><line style="stroke:#000000;stroke-width:0.75;" x1="622.0204" x2="575.2438" y1="449.0386" y2="449.0386"/><polygon fill="#000000" points="585.2438,445.0386,575.2438,449.0386,585.2438,453.0386,581.2438,449.0386" style="stroke:#000000;stroke-width:1;stroke-linejoin:miter;stroke-miterlimit:10;"/><line style="stroke:#000000;stroke-width:0.75;" x1="490.4058" x2="443.6292" y1="449.0386" y2="449.0386"/><polygon fill="#000000" points="439.6292,521.8154,443.6292,531.8154,447.6292,521.8154,443.6292,525.8154" style="stroke:#000000;stroke-width:0.75;stroke-linejoin:miter;stroke-miterlimit:10;"/><line style="stroke:#000000;stroke-width:0.75;" x1="443.6292" x2="443.6292" y1="449.0386" y2="611.7842"/><line style="stroke:#000000;stroke-width:0.75;" x1="443.6292" x2="532.8248" y1="611.7842" y2="611.7842"/><line style="stroke:#000000;stroke-width:0.75;" x1="532.8248" x2="532.8248" y1="611.7842" y2="631.7842"/><polygon fill="#000000" points="528.8248,621.7842,532.8248,631.7842,536.8248,621.7842,532.8248,625.7842" style="stroke:#000000;stroke-width:1;stroke-linejoin:miter;stroke-miterlimit:10;"/><line style="stroke:#000000;stroke-width:0.75;" x1="532.8248" x2="532.8248" y1="406.3237" y2="437.0386"/><polygon fill="#000000" points="528.8248,427.0386,532.8248,437.0386,536.8248,427.0386,532.8248,431.0386" style="stroke:#000000;stroke-width:1;stroke-linejoin:miter;stroke-miterlimit:10;"/><line style="stroke:#000000;stroke-width:0.75;" x1="83.1232" x2="83.1232" y1="691.7529" y2="711.7529"/><polygon fill="#000000" points="79.1232,701.7529,83.1232,711.7529,87.1232,701.7529,83.1232,705.7529" style="stroke:#000000;stroke-width:1;stroke-linejoin:miter;stroke-miterlimit:10;"/><line style="stroke:#000000;stroke-width:0.75;" x1="227.803" x2="227.803" y1="691.7529" y2="711.7529"/><polygon fill="#000000" points="223.803,701.7529,227.803,711.7529,231.803,701.7529,227.803,705.7529" style="stroke:#000000;stroke-width:1;stroke-linejoin:miter;stroke-miterlimit:10;"/><line style="stroke:#000000;stroke-width:0.75;" x1="584.79" x2="584.79" y1="691.7529" y2="711.7529"/><polygon fill="#000000" points="580.79,701.7529,584.79,711.7529,588.79,701.7529,584.79,705.7529" style="stroke:#000000;stroke-width:1;stroke-linejoin:miter;stroke-miterlimit:10;"/><line style="stroke:#000000;stroke-width:0.75;" x1="837.4214" x2="837.4214" y1="691.7529" y2="711.7529"/><polygon fill="#000000" points="833.4214,701.7529,837.4214,711.7529,841.4214,701.7529,837.4214,705.7529" style="stroke:#000000;stroke-width:1;stroke-linejoin:miter;stroke-miterlimit:10;"/><line style="stroke:#000000;stroke-width:0.75;" x1="83.1232" x2="83.1232" y1="745.7217" y2="768.8701"/><polygon fill="#000000" points="79.1232,758.8701,83.1232,768.8701,87.1232,758.8701,83.1232,762.8701" style="stroke:#000000;stroke-width:1;stroke-linejoin:miter;stroke-miterlimit:10;"/><line style="stroke:#000000;stroke-width:0.75;" x1="227.803" x2="227.803" y1="745.7217" y2="768.8701"/><polygon fill="#000000" points="223.803,758.8701,227.803,768.8701,231.803,758.8701,227.803,762.8701" style="stroke:#000000;stroke-width:1;stroke-linejoin:miter;stroke-miterlimit:10;"/><line style="stroke:#000000;stroke-width:0.75;" x1="584.79" x2="584.79" y1="745.7217" y2="768.8701"/><polygon fill="#000000" points="580.79,758.8701,584.79,768.8701,588.79,758.8701,584.79,762.8701" style="stroke:#000000;stroke-width:1;stroke-linejoin:miter;stroke-miterlimit:10;"/><line style="stroke:#000000;stroke-width:0.75;" x1="837.4214" x2="837.4214" y1="745.7217" y2="768.8701"/><polygon fill="#000000" points="833.4214,758.8701,837.4214,768.8701,841.4214,758.8701,837.4214,762.8701" style="stroke:#000000;stroke-width:1;stroke-linejoin:miter;stroke-miterlimit:10;"/><line style="stroke:#000000;stroke-width:0.75;" x1="532.8248" x2="532.8248" y1="665.7529" y2="685.7529"/><polygon fill="#000000" points="528.8248,675.7529,532.8248,685.7529,536.8248,675.7529,532.8248,679.7529" style="stroke:#000000;stroke-width:1;stroke-linejoin:miter;stroke-miterlimit:10;"/><line style="stroke:#000000;stroke-width:0.75;" x1="532.8248" x2="532.8248" y1="774.8701" y2="794.8701"/><polygon fill="#000000" points="528.8248,784.8701,532.8248,794.8701,536.8248,784.8701,532.8248,788.8701" style="stroke:#000000;stroke-width:1;stroke-linejoin:miter;stroke-miterlimit:10;"/><line style="stroke:#000000;stroke-width:0.75;" x1="532.8248" x2="532.8248" y1="828.8389" y2="851.9873"/><polygon fill="#000000" points="528.8248,841.9873,532.8248,851.9873,536.8248,841.9873,532.8248,845.9873" style="stroke:#000000;stroke-width:1;stroke-linejoin:miter;stroke-miterlimit:10;"/><?plantuml-src ZLDTJnj757tVNt6Lle2Y6DAALggbLY66vY4WIX8rVHnx1tjbUyUQ7GVd3KSn9WI24ONOmGgGueI6O2UL22d--3NUsTsd_eNUMHlZKfTafPNkphrxpfrppxNYXfaYd2GXoKmMYN6Mf21uccfMBsF5YCxc3JCASoHXzMV291AFSfOszPiimJXyDUa_VHKwdIFfX9XafkYMZFhFu99fWknNVg7cpsbY_ch0b17X36vHuqfV_JGJTFopn7uLuphb_yTx8oAC1uPu-7ciNkKNuOKCWbhgNmvxziFbw9op-KkJTsD696vIouBHm7TZ0tXcEyrmatAuFgffmX092X76uc5yhyqn7gLWdrJQpR8ypZe7JpND4eGBxNkl-55MZs4KtDQ6dQkujKLxwJ2ecQWnS2CQ4nf0-rFTUrM44N2F7ykjaWfgTNSXXodxwBdSV8ydShTXDzOmiBTRxjw1dLspAqsDcZeeg1xFzIw6byzxsuiNUExDtaQ0dmnnAnt6WF2CyG16C34JciJlYPbxuugf_CukAqgdkUxKovY-zWCagI0w4MJ4OcaUeLOWgP-JSvgYH16STV4rsFjldDC_tMhBhUu5CVElFl1QkGDPgk5Lu2euXxlkyYDdksetD_raFnrBYuHXKaK7S84GvcC6Jc78-Ur0BfquUrMtkj_X_N4O30k6xCBhOVK33CbYRRYdqJVWBHIG5QP2zoye96jhAe5qcRyRBvJ-ZKsScfAz_5wrYy6p7QUmg8BgIsJ6cbaQCLBKmYElTE8LFwZvlSuwZ_vIHVMFxSOdhvZ3YPuBrcsyCrnPVkksMd8tt-tQxnMrb4_-i1TBVUZojE3iPjqtlykNXQ2lziAEtAcW6tpgnwXVK76SeUFjUtSUmucyw7Z8RRwJgw-26feshb36I40feU0x1PqKa2WnJByW782918qIKuoZs-4skKll3nXgXYQ8e1cqyxwNNNKQMsvjNGqJtTK_l0lWaG1CqupWnFVROMa0i9bA0a-R44uR2Tq_kGeX5edZCdflLznQzX9uFU3xUf07ZvwtcnlsKG4NnLxPGioRT-w0brz5rRiaCmz5Z9aWdspOAxb-4XNu-ftf-oskpO9JNsgVxhVhnV_izv7xz8FSoiFin8tGr8IciBsDbdnMKVwlx-2IoEMAlRvyRX5BiDG_?></g></svg>