<svg xmlns="http://www.w3.org/2000/svg" xmlns:xlink="http://www.w3.org/1999/xlink" contentStyleType="text/css" data-diagram-type="CLASS" height="417px" preserveAspectRatio="none" style="width:556px;height:417px;background:#FFFFFF;" version="1.1" viewBox="0 0 556 417" width="556px" zoomAndPan="magnify"><?plantuml 1.2026.6?><defs/><g><g class="title" data-source-line="11"><text fill="#000000" font-family="'WenQuanYi Micro Hei'" font-size="14" font-weight="700" lengthAdjust="spacing" textLength="142.1665" x="203.7878" y="22.9951">&#22270; 2-1&#65306;&#35013;&#39280;&#22120;&#31867;&#23618;&#27425;</text></g><!--class BaseDecorator--><g class="entity" data-qualified-name="BaseDecorator" data-source-line="13" id="ent0001"><rect fill="#F1F1F1" height="59.9688" rx="2.5" ry="2.5" style="stroke:#181818;stroke-width:0.5;" width="119.0508" x="213.85" y="44.2969"/><ellipse cx="227.85" cy="59.2969" fill="#CDCDCD" rx="10" ry="10" style="stroke:#181818;stroke-width:1;"/><path d="M227.4594,56.375 L226.6469,59.9531 L228.2875,59.9531 L227.4594,56.375 Z M226.4125,54.7969 L228.5219,54.7969 L230.8813,63.5469 L229.1469,63.5469 L228.6156,61.3906 L226.3031,61.3906 L225.7719,63.5469 L224.0375,63.5469 L226.4125,54.7969 Z " fill="#000000"/><text fill="#000000" font-family="'WenQuanYi Micro Hei'" font-size="12" font-style="italic" lengthAdjust="spacing" textLength="89.0508" x="240.85" y="63.4512">BaseDecorator</text><line style="stroke:#181818;stroke-width:0.5;" x1="214.85" x2="331.9008" y1="74.2969" y2="74.2969"/><line style="stroke:#181818;stroke-width:0.5;" x1="214.85" x2="331.9008" y1="82.2969" y2="82.2969"/><text fill="#000000" font-family="'WenQuanYi Micro Hei'" font-size="12" font-style="italic" lengthAdjust="spacing" textLength="64.0371" x="219.85" y="97.4355">+__call__()</text></g><!--class RetryDecorator--><g class="entity" data-qualified-name="RetryDecorator" data-source-line="16" id="ent0002"><rect fill="#F1F1F1" height="87.9063" rx="2.5" ry="2.5" style="stroke:#181818;stroke-width:0.5;" width="170.7422" x="7" y="165.2669"/><ellipse cx="42.803" cy="180.2669" fill="#C2C2C2" rx="10" ry="10" style="stroke:#181818;stroke-width:1;"/><path d="M44.6312,184.5169 Q44.2249,184.72 43.7718,184.8294 Q43.3187,184.9388 42.8343,184.9388 Q41.053,184.9388 40.1155,183.7825 Q39.1937,182.6106 39.1937,180.4075 Q39.1937,178.1888 40.1155,177.0325 Q41.053,175.8606 42.8343,175.8606 Q43.3187,175.8606 43.7718,175.97 Q44.2405,176.0638 44.6312,176.2825 L44.6312,178.2044 Q44.1937,177.7981 43.7718,177.6106 Q43.3499,177.4075 42.9124,177.4075 Q41.9593,177.4075 41.4749,178.1731 Q40.9905,178.9231 40.9905,180.4075 Q40.9905,181.8763 41.4749,182.6263 Q41.9593,183.3763 42.9124,183.3763 Q43.3499,183.3763 43.7718,183.1888 Q44.1937,183.0013 44.6312,182.595 L44.6312,184.5169 Z " fill="#000000"/><text fill="#000000" font-family="'WenQuanYi Micro Hei'" font-size="12" lengthAdjust="spacing" textLength="92.291" x="60.6481" y="184.4212">RetryDecorator</text><line style="stroke:#181818;stroke-width:0.5;" x1="8" x2="176.7422" y1="195.2669" y2="195.2669"/><text fill="#000000" font-family="'WenQuanYi Micro Hei'" font-size="12" lengthAdjust="spacing" textLength="61.1953" x="13" y="210.4055">-times: int</text><text fill="#000000" font-family="'WenQuanYi Micro Hei'" font-size="12" lengthAdjust="spacing" textLength="86.3086" x="13" y="224.3743">-func: Callable</text><line style="stroke:#181818;stroke-width:0.5;" x1="8" x2="176.7422" y1="231.2044" y2="231.2044"/><text fill="#000000" font-family="'WenQuanYi Micro Hei'" font-size="12" lengthAdjust="spacing" textLength="158.7422" x="13" y="246.343">+__call__(*args, **kwargs)</text></g><!--class SingletonDecorator--><g class="entity" data-qualified-name="SingletonDecorator" data-source-line="21" id="ent0003"><rect fill="#F1F1F1" height="87.9063" rx="2.5" ry="2.5" style="stroke:#181818;stroke-width:0.5;" width="170.7422" x="371" y="165.2669"/><ellipse cx="395.9661" cy="180.2669" fill="#C2C2C2" rx="10" ry="10" style="stroke:#181818;stroke-width:1;"/><path d="M397.7942,184.5169 Q397.388,184.72 396.9349,184.8294 Q396.4817,184.9388 395.9974,184.9388 Q394.2161,184.9388 393.2786,183.7825 Q392.3567,182.6106 392.3567,180.4075 Q392.3567,178.1888 393.2786,177.0325 Q394.2161,175.8606 395.9974,175.8606 Q396.4817,175.8606 396.9349,175.97 Q397.4036,176.0638 397.7942,176.2825 L397.7942,178.2044 Q397.3567,177.7981 396.9349,177.6106 Q396.513,177.4075 396.0755,177.4075 Q395.1224,177.4075 394.638,178.1731 Q394.1536,178.9231 394.1536,180.4075 Q394.1536,181.8763 394.638,182.6263 Q395.1224,183.3763 396.0755,183.3763 Q396.513,183.3763 396.9349,183.1888 Q397.3567,183.0013 397.7942,182.595 L397.7942,184.5169 Z " fill="#000000"/><text fill="#000000" font-family="'WenQuanYi Micro Hei'" font-size="12" lengthAdjust="spacing" textLength="116.373" x="411.403" y="184.4212">SingletonDecorator</text><line style="stroke:#181818;stroke-width:0.5;" x1="372" x2="540.7422" y1="195.2669" y2="195.2669"/><text fill="#000000" font-family="'WenQuanYi Micro Hei'" font-size="12" lengthAdjust="spacing" textLength="55.1777" x="377" y="210.4055">-cls: type</text><text fill="#000000" font-family="'WenQuanYi Micro Hei'" font-size="12" lengthAdjust="spacing" textLength="106.002" x="377" y="224.3743">-_instance: object</text><line style="stroke:#181818;stroke-width:0.5;" x1="372" x2="540.7422" y1="231.2044" y2="231.2044"/><text fill="#000000" font-family="'WenQuanYi Micro Hei'" font-size="12" lengthAdjust="spacing" textLength="158.7422" x="377" y="246.343">+__call__(*args, **kwargs)</text></g><!--class FunctionWrapper--><g class="entity" data-qualified-name="FunctionWrapper" data-source-line="26" id="ent0004"><rect fill="#F1F1F1" height="73.9375" rx="2.5" ry="2.5" style="stroke:#181818;stroke-width:0.5;" width="170.666" x="371.04" y="328.1669"/><ellipse cx="401.8095" cy="343.1669" fill="#C2C2C2" rx="10" ry="10" style="stroke:#181818;stroke-width:1;"/><path d="M403.6377,347.4169 Q403.2314,347.62 402.7783,347.7294 Q402.3252,347.8388 401.8408,347.8388 Q400.0595,347.8388 399.122,346.6825 Q398.2002,345.5106 398.2002,343.3075 Q398.2002,341.0888 399.122,339.9325 Q400.0595,338.7606 401.8408,338.7606 Q402.3252,338.7606 402.7783,338.87 Q403.247,338.9638 403.6377,339.1825 L403.6377,341.1044 Q403.2002,340.6981 402.7783,340.5106 Q402.3564,340.3075 401.9189,340.3075 Q400.9658,340.3075 400.4814,341.0731 Q399.997,341.8231 399.997,343.3075 Q399.997,344.7763 400.4814,345.5263 Q400.9658,346.2763 401.9189,346.2763 Q402.3564,346.2763 402.7783,346.0888 Q403.2002,345.9013 403.6377,345.495 L403.6377,347.4169 Z " fill="#000000"/><text fill="#000000" font-family="'WenQuanYi Micro Hei'" font-size="12" lengthAdjust="spacing" textLength="103.4004" x="418.5361" y="347.3212">FunctionWrapper</text><line style="stroke:#181818;stroke-width:0.5;" x1="372.04" x2="540.706" y1="358.1669" y2="358.1669"/><text fill="#000000" font-family="'WenQuanYi Micro Hei'" font-size="12" lengthAdjust="spacing" textLength="96.2461" x="377.04" y="373.3055">-wraps: Callable</text><line style="stroke:#181818;stroke-width:0.5;" x1="372.04" x2="540.706" y1="380.1356" y2="380.1356"/><text fill="#000000" font-family="'WenQuanYi Micro Hei'" font-size="12" lengthAdjust="spacing" textLength="158.666" x="377.04" y="395.2743">+__get__(instance, owner)</text></g><g class="entity" data-qualified-name="GMN8" data-source-line="36" id="ent0009"><path d="M213.13,190.2469 L213.13,205.2169 L178.04,209.2169 L213.13,213.2169 L213.13,228.1844 A0,0 0 0 0 213.13,228.1844 L335.6027,228.1844 A0,0 0 0 0 335.6027,228.1844 L335.6027,200.2469 L325.6027,190.2469 L213.13,190.2469 A0,0 0 0 0 213.13,190.2469" fill="#FFFFFF" style="stroke:#181818;stroke-width:0.5;"/><path d="M325.6027,190.2469 L325.6027,200.2469 L335.6027,200.2469 L325.6027,190.2469" fill="#FFFFFF" style="stroke:#181818;stroke-width:0.5;"/><text fill="#000000" font-family="'WenQuanYi Micro Hei'" font-size="12" lengthAdjust="spacing" textLength="84.0006" x="219.13" y="206.3855">&#21442;&#25968;&#21270;&#35013;&#39280;&#22120;&#65306;</text><text fill="#000000" font-family="'WenQuanYi Micro Hei'" font-size="12" lengthAdjust="spacing" textLength="101.4727" x="219.13" y="220.3543">@retry(times=3)</text></g><!--reverse link BaseDecorator to RetryDecorator--><g class="link" data-entity-1="ent0001" data-entity-2="ent0002" data-link-type="extension" data-source-line="31" id="lnk5"><path codeLine="31" d="M219.1425,115.1121 C195.0025,132.8421 178.24,145.1469 151.25,164.9669" fill="none" id="BaseDecorator-backto-RetryDecorator" style="stroke:#000000;stroke-width:1;"/><polygon fill="none" points="233.65,104.4569,215.5908,110.2763,222.6943,119.9479,233.65,104.4569" style="stroke:#000000;stroke-width:1;stroke-linejoin:miter;stroke-miterlimit:10;"/></g><!--reverse link BaseDecorator to SingletonDecorator--><g class="link" data-entity-1="ent0001" data-entity-2="ent0003" data-link-type="extension" data-source-line="32" id="lnk6"><path codeLine="32" d="M328.0937,115.0351 C352.5037,132.7651 369.56,145.1469 396.84,164.9669" fill="none" id="BaseDecorator-backto-SingletonDecorator" style="stroke:#000000;stroke-width:1;"/><polygon fill="none" points="313.53,104.4569,324.5676,119.8897,331.6198,110.1805,313.53,104.4569" style="stroke:#000000;stroke-width:1;stroke-linejoin:miter;stroke-miterlimit:10;"/></g><!--reverse link SingletonDecorator to FunctionWrapper--><g class="link" data-entity-1="ent0003" data-entity-2="ent0004" data-link-type="composition" data-source-line="33" id="lnk7"><path codeLine="33" d="M456.37,265.4969 C456.37,288.8869 456.37,305.4369 456.37,327.6769" fill="none" id="SingletonDecorator-backto-FunctionWrapper" style="stroke:#000000;stroke-width:1;"/><polygon fill="#000000" points="456.37,253.4969,452.37,259.4969,456.37,265.4969,460.37,259.4969,456.37,253.4969" style="stroke:#000000;stroke-width:1;stroke-linejoin:miter;stroke-miterlimit:10;"/><text fill="#000000" font-family="'WenQuanYi Micro Hei'" font-size="12" lengthAdjust="spacing" textLength="76.3359" x="457.37" y="295.3055">__wrapped__</text></g><?plantuml-src ZPA_RXD14CRxVOfHQ18JIqdeh22HFxAW8184AQ8wpUsDpulNEzRkd8uGqaIYYqG5Kg1228c28gb1lCq5g7W5rcTiBeuZiTNEpJU_-MRdmi2u4NeSmf0Twxxd8O7uWbIOPLBKWznpuR8TjkpXLhS-3KL6FIoiTDd97aR0qW6vHmMwfmOU6kqPxfDPMgpVDoy8rZSQoT37Z4lZSkYX3KqZsc88MoBUf8NG0yskhbvhIBQyv_AlpRNwD9AxaxPFwBdS9DbZeUqRvbLYn19Kxx_3HdlzzxTtFp---lNfl3hx_EFYQtLnSldbWrAO1l6ePM8MjZ7GBcdsA95qf01kmz5KSmn9ej7Q95bUKSTgKl6On1zUBMc3c2653XWdTTWhdEx0JYp5r58DdP5QwFEm2gtMe1pV_e7tuvDQ4dRpS6qZMWv7L4U9SK7GQUe0fyz8ot_Ykz6J67O77aSZchBB68LhLdEIY9esMWKk7VanIbrzhysNxVRSWonIN9zCBHYs5PNp9ZlHJ5dVioHHoiNjWpTvNu1xyuq1gjSdbs_EgzEtiyN7do1-l-V7okLwINVlh2Xo6OnHVm00?></g></svg>