<svg xmlns="http://www.w3.org/2000/svg" xmlns:xlink="http://www.w3.org/1999/xlink" contentStyleType="text/css" data-diagram-type="SEQUENCE" height="439px" preserveAspectRatio="none" style="width:379px;height:439px;background:#FFFFFF;" version="1.1" viewBox="0 0 379 439" width="379px" zoomAndPan="magnify"><?plantuml 1.2026.6?><defs/><g><g class="title" data-source-line="10"><text fill="#000000" font-family="'WenQuanYi Micro Hei'" font-size="14" font-weight="700" lengthAdjust="spacing" textLength="199.4789" x="86.4125" y="27.9951">&#22270; 1-1&#65306;@log &#35013;&#39280;&#22120;&#35843;&#29992;&#26102;&#24207;</text></g><g><title>wrapper..</title><rect fill="#FFFFFF" height="195.7813" style="stroke:#181818;stroke-width:1;" width="10" x="174.46" y="146.2344"/></g><g><title>func..</title><rect fill="#FFFFFF" height="27.9688" style="stroke:#181818;stroke-width:1;" width="10" x="275.4605" y="230.1406"/></g><g class="participant-lifeline" data-entity-uid="part1" data-qualified-name="Caller" data-source-line="12" id="part1-lifeline"><g><title>Caller</title><rect fill="#000000" fill-opacity="0.00000" height="243.75" width="8" x="21.3584" y="116.2656"/><line style="stroke:#181818;stroke-width:0.5;stroke-dasharray:5,5;" x1="25" x2="25" y1="116.2656" y2="360.0156"/></g></g><g class="participant-lifeline" data-entity-uid="part2" data-qualified-name="W" data-source-line="13" id="part2-lifeline"><g><title>wrapper..</title><rect fill="#000000" fill-opacity="0.00000" height="243.75" width="8" x="175.46" y="116.2656"/><line style="stroke:#181818;stroke-width:0.5;stroke-dasharray:5,5;" x1="178.9521" x2="178.9521" y1="116.2656" y2="360.0156"/></g></g><g class="participant-lifeline" data-entity-uid="part3" data-qualified-name="F" data-source-line="14" id="part3-lifeline"><g><title>func..</title><rect fill="#000000" fill-opacity="0.00000" height="243.75" width="8" x="276.4605" y="116.2656"/><line style="stroke:#181818;stroke-width:0.5;stroke-dasharray:5,5;" x1="279.7623" x2="279.7623" y1="116.2656" y2="360.0156"/></g></g><g class="participant-lifeline" data-entity-uid="part4" data-qualified-name="C" data-source-line="15" id="part4-lifeline"><g><title>console</title><rect fill="#000000" fill-opacity="0.00000" height="243.75" width="8" x="338.3762" y="116.2656"/><line style="stroke:#181818;stroke-width:0.5;stroke-dasharray:5,5;" x1="341.4484" x2="341.4484" y1="116.2656" y2="360.0156"/></g></g><g class="participant participant-head" data-entity-uid="part1" data-qualified-name="Caller" data-source-line="12" id="part1-head"><text fill="#000000" font-family="'WenQuanYi Micro Hei'" font-size="12" lengthAdjust="spacing" textLength="34.7168" x="5" y="113.4355">Caller</text><ellipse cx="25.3584" cy="50.7969" fill="#E3E3E3" rx="8" ry="8" style="stroke:#181818;stroke-width:0.5;"/><path d="M25.3584,58.7969 L25.3584,85.7969 M12.3584,66.7969 L38.3584,66.7969 M25.3584,85.7969 L12.3584,100.7969 M25.3584,85.7969 L38.3584,100.7969" fill="none" style="stroke:#181818;stroke-width:0.5;"/></g><g class="participant participant-tail" data-entity-uid="part1" data-qualified-name="Caller" data-source-line="12" id="part1-tail"><text fill="#000000" font-family="'WenQuanYi Micro Hei'" font-size="12" lengthAdjust="spacing" textLength="34.7168" x="5" y="370.1543">Caller</text><ellipse cx="25.3584" cy="381.4844" fill="#E3E3E3" rx="8" ry="8" style="stroke:#181818;stroke-width:0.5;"/><path d="M25.3584,389.4844 L25.3584,416.4844 M12.3584,397.4844 L38.3584,397.4844 M25.3584,416.4844 L12.3584,431.4844 M25.3584,416.4844 L38.3584,431.4844" fill="none" style="stroke:#181818;stroke-width:0.5;"/></g><g class="participant participant-head" data-entity-uid="part2" data-qualified-name="W" data-source-line="13" id="part2-head"><rect fill="#E3E3E3" height="27.9688" rx="2.5" ry="2.5" style="stroke:#181818;stroke-width:0.5;" width="73.0156" x="142.9521" y="87.2969"/><text fill="#000000" font-family="'WenQuanYi Micro Hei'" font-size="12" lengthAdjust="spacing" textLength="59.0156" x="149.9521" y="105.4355">wrapper()</text></g><g class="participant participant-tail" data-entity-uid="part2" data-qualified-name="W" data-source-line="13" id="part2-tail"><rect fill="#E3E3E3" height="27.9688" rx="2.5" ry="2.5" style="stroke:#181818;stroke-width:0.5;" width="73.0156" x="142.9521" y="359.0156"/><text fill="#000000" font-family="'WenQuanYi Micro Hei'" font-size="12" lengthAdjust="spacing" textLength="59.0156" x="149.9521" y="377.1543">wrapper()</text></g><g class="participant participant-head" data-entity-uid="part3" data-qualified-name="F" data-source-line="14" id="part3-head"><rect fill="#E3E3E3" height="27.9688" rx="2.5" ry="2.5" style="stroke:#181818;stroke-width:0.5;" width="49.3965" x="255.7623" y="87.2969"/><text fill="#000000" font-family="'WenQuanYi Micro Hei'" font-size="12" lengthAdjust="spacing" textLength="35.3965" x="262.7623" y="105.4355">func()</text></g><g class="participant participant-tail" data-entity-uid="part3" data-qualified-name="F" data-source-line="14" id="part3-tail"><rect fill="#E3E3E3" height="27.9688" rx="2.5" ry="2.5" style="stroke:#181818;stroke-width:0.5;" width="49.3965" x="255.7623" y="359.0156"/><text fill="#000000" font-family="'WenQuanYi Micro Hei'" font-size="12" lengthAdjust="spacing" textLength="35.3965" x="262.7623" y="377.1543">func()</text></g><g class="participant participant-head" data-entity-uid="part4" data-qualified-name="C" data-source-line="15" id="part4-head"><text fill="#000000" font-family="'WenQuanYi Micro Hei'" font-size="12" lengthAdjust="spacing" textLength="45.8555" x="316.4484" y="113.4355">console</text><path d="M324.3762,66.2969 C324.3762,56.2969 342.3762,56.2969 342.3762,56.2969 C342.3762,56.2969 360.3762,56.2969 360.3762,66.2969 L360.3762,92.2969 C360.3762,102.2969 342.3762,102.2969 342.3762,102.2969 C342.3762,102.2969 324.3762,102.2969 324.3762,92.2969 L324.3762,66.2969" fill="#E3E3E3" style="stroke:#181818;stroke-width:0.5;"/><path d="M324.3762,66.2969 C324.3762,76.2969 342.3762,76.2969 342.3762,76.2969 C342.3762,76.2969 360.3762,76.2969 360.3762,66.2969" fill="none" style="stroke:#181818;stroke-width:0.5;"/></g><g class="participant participant-tail" data-entity-uid="part4" data-qualified-name="C" data-source-line="15" id="part4-tail"><text fill="#000000" font-family="'WenQuanYi Micro Hei'" font-size="12" lengthAdjust="spacing" textLength="45.8555" x="316.4484" y="370.1543">console</text><path d="M324.3762,382.9844 C324.3762,372.9844 342.3762,372.9844 342.3762,372.9844 C342.3762,372.9844 360.3762,372.9844 360.3762,382.9844 L360.3762,408.9844 C360.3762,418.9844 342.3762,418.9844 342.3762,418.9844 C342.3762,418.9844 324.3762,418.9844 324.3762,408.9844 L324.3762,382.9844" fill="#E3E3E3" style="stroke:#181818;stroke-width:0.5;"/><path d="M324.3762,382.9844 C324.3762,392.9844 342.3762,392.9844 342.3762,392.9844 C342.3762,392.9844 360.3762,392.9844 360.3762,382.9844" fill="none" style="stroke:#181818;stroke-width:0.5;"/></g><g><title>wrapper..</title><rect fill="#FFFFFF" height="195.7813" style="stroke:#181818;stroke-width:1;" width="10" x="174.46" y="146.2344"/></g><g><title>func..</title><rect fill="#FFFFFF" height="27.9688" style="stroke:#181818;stroke-width:1;" width="10" x="275.4605" y="230.1406"/></g><g class="message" data-entity-1="part1" data-entity-2="part2" data-source-line="17" id="msg1"><polygon fill="#000000" points="162.46,142.2344,172.46,146.2344,162.46,150.2344,166.46,146.2344" style="stroke:#000000;stroke-width:1;stroke-linejoin:miter;stroke-miterlimit:10;"/><line style="stroke:#000000;stroke-width:1;" x1="25.3584" x2="168.46" y1="146.2344" y2="146.2344"/><text fill="#000000" font-family="'WenQuanYi Micro Hei'" font-size="12" lengthAdjust="spacing" textLength="130.1016" x="32.3584" y="141.4043">func(*args, **kwargs)</text></g><g class="message" data-entity-1="part2" data-entity-2="part4" data-source-line="19" id="msg2"><polygon fill="#000000" points="330.3762,170.2031,340.3762,174.2031,330.3762,178.2031,334.3762,174.2031" style="stroke:#000000;stroke-width:1;stroke-linejoin:miter;stroke-miterlimit:10;"/><line style="stroke:#000000;stroke-width:1;" x1="184.46" x2="336.3762" y1="174.2031" y2="174.2031"/><text fill="#000000" font-family="'WenQuanYi Micro Hei'" font-size="12" lengthAdjust="spacing" textLength="133.9162" x="191.46" y="169.373">print("[log] &#35843;&#29992; func")</text></g><g class="message" data-entity-1="part4" data-entity-2="part2" data-source-line="20" id="msg3"><polygon fill="#000000" points="195.46,198.1719,185.46,202.1719,195.46,206.1719,191.46,202.1719" style="stroke:#000000;stroke-width:1;stroke-linejoin:miter;stroke-miterlimit:10;"/><line style="stroke:#000000;stroke-width:1;stroke-dasharray:2,2;" x1="189.46" x2="341.3762" y1="202.1719" y2="202.1719"/><text fill="#000000" font-family="'WenQuanYi Micro Hei'" font-size="12" lengthAdjust="spacing" textLength="14.291" x="201.46" y="197.3418">ok</text></g><g class="message" data-entity-1="part2" data-entity-2="part3" data-source-line="22" id="msg4"><polygon fill="#000000" points="263.4605,226.1406,273.4605,230.1406,263.4605,234.1406,267.4605,230.1406" style="stroke:#000000;stroke-width:1;stroke-linejoin:miter;stroke-miterlimit:10;"/><line style="stroke:#000000;stroke-width:1;" x1="184.46" x2="269.4605" y1="230.1406" y2="230.1406"/><text fill="#000000" font-family="'WenQuanYi Micro Hei'" font-size="12" lengthAdjust="spacing" textLength="72.0005" x="191.46" y="225.3105">&#25191;&#34892;&#21407;&#22987;&#20989;&#25968;</text></g><g class="message" data-entity-1="part3" data-entity-2="part2" data-source-line="24" id="msg5"><polygon fill="#000000" points="195.46,254.1094,185.46,258.1094,195.46,262.1094,191.46,258.1094" style="stroke:#000000;stroke-width:1;stroke-linejoin:miter;stroke-miterlimit:10;"/><line style="stroke:#000000;stroke-width:1;stroke-dasharray:2,2;" x1="189.46" x2="279.4605" y1="258.1094" y2="258.1094"/><text fill="#000000" font-family="'WenQuanYi Micro Hei'" font-size="12" lengthAdjust="spacing" textLength="34.2129" x="201.46" y="253.2793">result</text></g><g class="message" data-entity-1="part2" data-entity-2="part4" data-source-line="26" id="msg6"><polygon fill="#000000" points="330.3762,282.0781,340.3762,286.0781,330.3762,290.0781,334.3762,286.0781" style="stroke:#000000;stroke-width:1;stroke-linejoin:miter;stroke-miterlimit:10;"/><line style="stroke:#000000;stroke-width:1;" x1="184.46" x2="336.3762" y1="286.0781" y2="286.0781"/><text fill="#000000" font-family="'WenQuanYi Micro Hei'" font-size="12" lengthAdjust="spacing" textLength="104.0685" x="191.46" y="281.248">print("[log] &#23436;&#25104;")</text></g><g class="message" data-entity-1="part4" data-entity-2="part2" data-source-line="27" id="msg7"><polygon fill="#000000" points="195.46,310.0469,185.46,314.0469,195.46,318.0469,191.46,314.0469" style="stroke:#000000;stroke-width:1;stroke-linejoin:miter;stroke-miterlimit:10;"/><line style="stroke:#000000;stroke-width:1;stroke-dasharray:2,2;" x1="189.46" x2="341.3762" y1="314.0469" y2="314.0469"/><text fill="#000000" font-family="'WenQuanYi Micro Hei'" font-size="12" lengthAdjust="spacing" textLength="14.291" x="201.46" y="309.2168">ok</text></g><g class="message" data-entity-1="part2" data-entity-2="part1" data-source-line="29" id="msg8"><polygon fill="#000000" points="36.3584,338.0156,26.3584,342.0156,36.3584,346.0156,32.3584,342.0156" style="stroke:#000000;stroke-width:1;stroke-linejoin:miter;stroke-miterlimit:10;"/><line style="stroke:#000000;stroke-width:1;stroke-dasharray:2,2;" x1="30.3584" x2="178.46" y1="342.0156" y2="342.0156"/><text fill="#000000" font-family="'WenQuanYi Micro Hei'" font-size="12" lengthAdjust="spacing" textLength="34.2129" x="42.3584" y="337.1855">result</text></g><?plantuml-src XL0_ImCn5D_pAHxdqXOBrj51B2U73WgYS8WulDwbDJHDZYHdnLL4HL47HTH1H4GdwUGWwhUvMYU_WkbTgITKV5F8x-zxkib4X0fRq9921XjAjYWO5LEYXqWDWsP3oLY4hkHImPYNJeuHqZh6t7XIc4Mq1evFnLACOfN10WkKX3dAdD7yPRPDeJAP0_K6XhBDH0Fgo7M-IC1HwwenYjLYG-S3ALBrH8vILKgs1pKdqic1irdi2jqolod4CCCf9DVlK2bNlbwlPhXiGEzkz_E-arm-zZex7sUFtOldvEM440oCbRh8ELN46XiMi0Y50QUjC8geAXGTG0t-Rx0UYs20U2H4WpNKzb9s2IqvJVzTGZ9RA4-33rEGQage6deSIgLck_ygzWkmJJJK9lXzfckPaMB259mrstiTihwfsYaI5ye3Ezaa8HsgtKpjMQ1xyD2xFKgERvA7msJlhNlU-GdnY3SqK5JR--LDl3yg94z7tVtJ_zBxocpXKTx-Dm00?></g></svg>